<svg id="_1" data-name="1" xmlns="http://www.w3.org/2000/svg" viewBox="0 0 373.5 195.75"><defs><style>.cls-1,.cls-2{fill-rule:evenodd;}.cls-2{fill:#010202;}</style></defs><title>zilla logo</title><path class="cls-1" d="M106.05,315.68v20.41h6.69V315.68h6.47v-6.05H99.55v6.05Zm45.19-6.05H134.73v26.46h16.85v-6H141.45v-4.65h9v-6h-9v-3.74h9.79v-6.05Zm15.9,13.23c0,9,6.84,13.53,13.56,13.49,5.64,0,11.57-3,12.55-10.43H186.6c-.72,2.83-3,4.27-5.9,4.27-4,0-6.57-3.44-6.57-7.33,0-4.38,2.61-7.37,6.57-7.37,2.84,0,4.84,1.21,5.79,3.89h6.65c-1-7.07-7-10.05-12.44-10.05-6.72,0-13.52,4.53-13.56,13.53Zm64.65-13.23h-6.92v9.6h-8.16v-9.6h-6.92v26.46h6.92V325.47h8.16v10.62h6.92V309.63Zm38.42,26.46h2.42V309.63h-6.92v12.95l-13.38-13.06h-2.45v26.57h7v-13l13.34,13Zm46-13.19c0-18.29-27.14-18.29-27.14,0s27.14,18.33,27.14,0Zm-20.18,0c0-9.53,13.26-9.53,13.26,0s-13.26,9.6-13.26,0Zm43.37-13.27h-6.8v26.46H349V330h-9.6V309.63Zm51.08,13.27c0-18.29-27.13-18.29-27.13,0s27.13,18.33,27.13,0Zm-20.18,0c0-9.53,13.26-9.53,13.26,0s-13.26,9.6-13.26,0Zm35,0c0,9,6.84,13.53,13.57,13.53,4.87,0,9.9-2.12,11.79-7.64a19.19,19.19,0,0,0,.76-7.74H418.87v5.85h5.63c-1.21,2.54-2.95,3.25-5.67,3.25-4,0-6.58-2.87-6.58-7.25,0-4,2.31-7.37,6.58-7.37,2.68,0,4.42.91,5.52,3.17H431c-1.29-6.57-6.84-9.33-12.17-9.37-6.73,0-13.53,4.54-13.57,13.57ZM460.05,325,469,310.65v-1h-7.34l-4.8,8.81h-.26l-4.8-8.81h-7.29v1L453.36,325v11.11h6.69Z" transform="translate(-99.22 -140.89)"/><path class="cls-2" d="M430.43,228.92c-24.15-4.63-57.47-4.36-61.66,24.89l-.34,5.25c.72,24.44,23.77,33.83,44.25,31.18l5.39-1.13,1.73-.06c2.93-1.55,4.58-1.27,11.34-5.91,4.17,5-3.07,5,15.58,5.05h.09c20.56,0,25.81,2.58,25.85-7.21.09-22.37,1.33-18.83-13.36-19.44l-.14-8.51v-.88c.28-24.77,2.84-48.4-15.12-59.62-8.26-5.16-19.07-7.17-30.69-6.8-4.1.13-40.66,5.57-38.39,16.65.67,3.29,5.42,11.38,7.39,14.28a11.47,11.47,0,0,0,3.39-.06c14.44-5.23,50.27-12.86,44.7,12.32Zm1.47,30.14c-.74,2-1.4,2.16-3.45,3.39a33.61,33.61,0,0,1-13.6,4.91c-23,3.19-22.92-18.88-7-19.92,4.08-.27,21.11-.64,23.92.34l0,5.22Z" transform="translate(-99.22 -140.89)"/><path class="cls-2" d="M101.08,188a9.61,9.61,0,0,0-1.86,3.21v35c1,2.13,3.55,2.56,10,2.54,11.61-.06,14.34.79,14.87-4.39V213.65l21.35,0-37.54,50.7c-1.27,1.69-5.41,6.67-5.78,8.73-.73,4.14-.26,11.11.82,14.13,3.58,1.29,6,.94,10.48.94l.33.05c6.22-.15,72.76.69,75-.71a4.58,4.58,0,0,0,1.76-3.46V270.31a23,23,0,0,1,0-3.48V247.29c-.24-2.9-1.28-4.39-5.7-4.39-15.25,0-19.58-1.87-19.63,6.17,0,4.33,0,8.78.08,13.11a10.63,10.63,0,0,1-1.3-.52,1.3,1.3,0,0,1-1,.46l-21.76.06a47.92,47.92,0,0,1,4.7-6.22L177,217.39c1.68-2.07,8-8.49,9-10.39l.79-10.93c-.38-10.15-2.73-8.14-12.56-8.14C76.38,188,132.44,187.72,101.08,188Z" transform="translate(-99.22 -140.89)"/><path class="cls-2" d="M300.64,145.54c-3.78,9.2-7.34,19.55-10.85,29L250.72,278.73c-4.87,12.54,2.84,9.3,23.48,9.47,9.45.08,7.42-1.71,14.65-21.11,4.3-11.57,8.47-23.25,12.92-34.84.84-2.18,33.28-82.07,31-89.6C329.24,140.86,303.42,138.8,300.64,145.54Z" transform="translate(-99.22 -140.89)"/><path class="cls-2" d="M303,287.25c3.9,1.49,21.84,1.41,27.55.95,4.38-.36,4.87-3.84,6.25-7.61l46.85-126.3c1.66-4.45,3.48-6.78,2.09-11.58-4.06-2-21.32-1.89-27.4-1.24-5.21.56-7.12,10.55-10.32,19L308.63,265.65C306.37,271.63,301,281.56,303,287.25Z" transform="translate(-99.22 -140.89)"/><path class="cls-2" d="M226.32,288.12l.51.12c7.23-.05,12.5,1.85,12.63-6.58.09-6.37,0-12.89,0-19.28,0-7,1.78-12.54-6-12.8-6.23-.2-13,0-19.29,0-14.53,0-12.38-2.74-12.39,25.36,0,6.7-1.79,12.92,5.05,13.24C212.74,288.49,220.35,288.32,226.32,288.12Z" transform="translate(-99.22 -140.89)"/><path class="cls-2" d="M204.11,188.49c-3.69,2.19-2.33,11.46-2.33,16.17,0,24.71-2.75,21.8,16.37,21.8,24.14,0,21.28,2.67,21.28-16.49,0-25.1,2.65-22-16.64-22C219.4,187.93,206.06,187.33,204.11,188.49Z" transform="translate(-99.22 -140.89)"/></svg>