<?xml version="1.0" standalone="no"?>
<!DOCTYPE svg PUBLIC "-//W3C//DTD SVG 1.1//EN" "http://www.w3.org/Graphics/SVG/1.1/DTD/svg11.dtd" >
<svg>
<metadata>
Created by FontForge 20090914 at Wed Sep 19 11:25:06 2012
 By www-data
 
</metadata>
<defs>
<font id="Academy" horiz-adv-x="467" >
  <font-face 
    font-family="Academy"
    font-weight="400"
    font-stretch="normal"
    units-per-em="1000"
    panose-1="0 0 0 0 0 0 0 0 0 0"
    ascent="800"
    descent="-200"
    x-height="385"
    cap-height="700"
    bbox="-37.998 -259.001 1270 970.002"
    underline-thickness="50"
    underline-position="-55"
    unicode-range="U+0020-U+2219"
  />
<missing-glyph 
d="M26 385l161.995 -0.00195312v-29c-19.333 -4.66699 -31.5 -12.5 -36.5 -23.5s-7.5 -27.5 -7.5 -49.5v-252h179v252c0 22.667 -2.5 39.334 -7.5 50.001s-17.5 18.334 -37.5 23.001v29h163v-29c-20 -3.33301 -32.5 -11 -37.5 -23s-7.5 -28.667 -7.5 -50v-182
c0 -20.667 2.83301 -37.5 8.5 -50.5s17.834 -20.167 36.501 -21.5v-29h-68c-51.333 -0 -84.666 -13.667 -99.999 -41s-23.666 -64.333 -24.999 -111l-29 -1c0 53.333 -8.83301 92.166 -26.5 116.499s-50.5 36.5 -98.5 36.5h-68v29c20.667 2 33.334 9.83301 38.001 23.5
s7 29.834 7 48.501v182c0 20.667 -2.16699 37 -6.5 49s-17.166 20 -38.499 24v29v0z" />
    <glyph glyph-name=".notdef" 
d="M26 385l161.995 -0.00195312v-29c-19.333 -4.66699 -31.5 -12.5 -36.5 -23.5s-7.5 -27.5 -7.5 -49.5v-252h179v252c0 22.667 -2.5 39.334 -7.5 50.001s-17.5 18.334 -37.5 23.001v29h163v-29c-20 -3.33301 -32.5 -11 -37.5 -23s-7.5 -28.667 -7.5 -50v-182
c0 -20.667 2.83301 -37.5 8.5 -50.5s17.834 -20.167 36.501 -21.5v-29h-68c-51.333 -0 -84.666 -13.667 -99.999 -41s-23.666 -64.333 -24.999 -111l-29 -1c0 53.333 -8.83301 92.166 -26.5 116.499s-50.5 36.5 -98.5 36.5h-68v29c20.667 2 33.334 9.83301 38.001 23.5
s7 29.834 7 48.501v182c0 20.667 -2.16699 37 -6.5 49s-17.166 20 -38.499 24v29v0z" />
    <glyph glyph-name="space" unicode=" " horiz-adv-x="351" 
 />
    <glyph glyph-name="exclam" unicode="!" horiz-adv-x="253" 
d="M70 45c0 16 5.50098 28.666 16.501 37.999s22.833 14 35.5 14h1.5h1.5c12.667 -0.666992 24.167 -5.66699 34.5 -15s15.5 -21.666 15.5 -36.999c0 -14.667 -4.33301 -26.167 -13 -34.5s-18.334 -13.833 -29.001 -16.5c-2 0 -3.83301 -0.166992 -5.5 -0.5
s-3.5 -0.5 -5.5 -0.5h-2.5h-2.5c-12 1.33301 -22.833 6.5 -32.5 15.5s-14.5 21.167 -14.5 36.5v0zM102.001 148.999l-32 551h113l-41 -551h-40v0z" />
    <glyph glyph-name="quotedbl" unicode="&#x22;" horiz-adv-x="387" 
d="M156 700l-27 -204h-36l-27 204h90v0zM321 700l-27 -204h-36l-26 204h89v0z" />
    <glyph glyph-name="numbersign" unicode="#" horiz-adv-x="825" 
d="M504 0h-62l35 194h-188l-35 -194h-62l34 194h-160l9 48h160l40 225h-160l9 48h160l33 185h62l-33 -185h188l33 185h62l-33 -185h163l-9 -48h-163l-40 -225h163l-9 -48h-163l-34 -194v0zM485 242l41 225h-189l-40 -224l188 -1v0z" />
    <glyph glyph-name="dollar" unicode="$" horiz-adv-x="599" 
d="M323 776l-0.00488281 -68.002c2 0 3.83301 -0.166992 5.5 -0.5s3.5 -0.5 5.5 -0.5c40 -4.66699 76.5 -18.5 109.5 -41.5s49.5 -50.833 49.5 -83.5c0 -18.667 -3.33301 -32.667 -10 -42s-14.334 -16 -23.001 -20c-4.66699 -2 -9.16699 -3.33301 -13.5 -4
s-8.16602 -1 -11.499 -1c-17.333 0 -30.833 5.5 -40.5 16.5s-14.5 23.833 -14.5 38.5c0 2.66699 0.166992 5.33398 0.5 8.00098s0.833008 5.33398 1.5 8.00098l2 8l2 8c1.33301 3.33301 2.16602 6.5 2.49902 9.5s0.5 5.83301 0.5 8.5v3.5c0 1 -0.333008 2.16699 -1 3.5
c-2 8.66699 -8.33301 16.5 -19 23.5s-26 10.833 -46 11.5v-228c6.66699 -3.33301 12.334 -6 17.001 -8s9 -4 13 -6l1 -0.5c0.666992 -0.333008 1.33398 -0.5 2.00098 -0.5c2 -0.666992 4.33301 -1.5 7 -2.5s5.33398 -2.16699 8.00098 -3.5
c8 -3.33301 18.667 -8.16602 32 -14.499s27 -14.5 41 -24.5c21.333 -15.333 40.833 -35.833 58.5 -61.5s26.5 -57.5 26.5 -95.5c0 -10.667 -0.833008 -21.667 -2.5 -33s-4.5 -22.666 -8.5 -33.999c-11.333 -33.333 -32.333 -64.666 -63 -93.999s-74.667 -48 -132 -56v-76
h-45v76c-57.333 6 -100.666 17.833 -129.999 35.5s-50 36.167 -62 55.5c-6 10 -10.167 20 -12.5 30s-3.5 19 -3.5 27c0 22.667 6.83301 39.667 20.5 51s28.834 17.333 45.501 18h1.5h1.5c16 0 28.333 -4.66699 37 -14s14.334 -19.333 17.001 -30
c0.666992 -3.33301 1.16699 -6.33301 1.5 -9s0.5 -5.33398 0.5 -8.00098c0 -3.33301 -0.833008 -7.5 -2.5 -12.5s-3.5 -10.167 -5.5 -15.5v-0.5v-0.5c-2 -5.33301 -3.83301 -10.5 -5.5 -15.5s-2.5 -9.16699 -2.5 -12.5v-2.5c0 -1 0.333008 -2.16699 1 -3.5
c2 -10.667 11.5 -20.834 28.5 -30.501s40.167 -14.834 69.5 -15.501v299c-52.667 21.333 -97 45.833 -133 73.5s-54 67.167 -54 118.5c0 50.667 19.167 91.5 57.5 122.5s81.5 46.833 129.5 47.5v68h45v0zM322.995 327.998l0.000976562 -281c34 3.33301 62 16 84 38
s36.667 46 44 72c1.33301 5.33301 2.33301 10.666 3 15.999s1 10.666 1 15.999c0 6.66699 -0.5 13.334 -1.5 20.001s-2.83301 13.334 -5.5 20.001c-6.66699 19.333 -19.834 37.833 -39.501 55.5s-48.167 32.167 -85.5 43.5v0zM277.996 451.998v210.001
c-34.667 -2.66699 -61.167 -13.834 -79.5 -33.501s-27.5 -42.167 -27.5 -67.5c0 -28 9.83301 -49.833 29.5 -65.5s41.167 -28.5 64.5 -38.5c2.66699 -0.666992 5 -1.5 7 -2.5s4 -1.83301 6 -2.5v0z" />
    <glyph glyph-name="percent" unicode="%" horiz-adv-x="949" 
d="M283 18l328 778l38 -16l-328 -780l-38 18v0zM719 402c46 0 80.667 -13.666 104 -40.999s39 -57 47 -89c3.33301 -12.667 5.66602 -25 6.99902 -37s2 -23.333 2 -34c0 -57.333 -10.667 -100.5 -32 -129.5s-44.666 -48.833 -69.999 -59.5
c-10 -4.66699 -20 -7.83398 -30 -9.50098s-19.333 -2.5 -28 -2.5c-8 0 -18.667 1.16699 -32 3.5s-27.333 7.5 -42 15.5c-22 12 -41.833 31.833 -59.5 59.5s-26.5 68.5 -26.5 122.5c0 10.667 0.666992 21.834 2 33.501s3.33301 23.5 6 35.5c8 33.333 23.5 63.666 46.5 90.999
s58.167 41 105.5 41v0zM719 359.001c-18.667 0 -35.834 -7.00293 -51.501 -21.0029s-23.5 -45 -23.5 -93v-88c0 -32 5.33301 -59.167 16 -81.5s30.334 -33.166 59.001 -32.499c22 0 40 8.33301 54 25s21 46.334 21 89.001v88c0 37.333 -5.16699 63.833 -15.5 79.5
s-21.5 25.834 -33.5 30.501c-4.66699 1.33301 -9.16699 2.33301 -13.5 3s-8.5 1 -12.5 1v0zM231 794.998c43.333 0 76.1719 -11.833 98.5049 -35.5s38.166 -49.834 47.499 -78.501c5.33301 -16 9 -31.833 11 -47.5s3 -28.834 3 -39.501c0 -58 -10.833 -101.5 -32.5 -130.5
s-45.167 -48.833 -70.5 -59.5c-10 -4 -19.833 -6.83301 -29.5 -8.5s-18.834 -2.5 -27.501 -2.5s-17.834 0.833008 -27.501 2.5s-19.5 4.5 -29.5 8.5c-25.333 10.667 -48.833 30.5 -70.5 59.5s-32.5 72.5 -32.5 130.5c0 10.667 1 23.834 3 39.501s5.66699 31.5 11 47.5
c9.33301 28.667 25.166 54.834 47.499 78.501s55.166 35.5 98.499 35.5v0zM231.006 751.998c-4 0 -8.5 -0.333008 -13.5 -1s-10.167 -1.66699 -15.5 -3c-11.333 -4.66699 -21.833 -14.834 -31.5 -30.501s-14.5 -42.167 -14.5 -79.5v-88c0 -32 5.33301 -59.167 16 -81.5
s30.334 -33.166 59.001 -32.499h7.5c2.33301 0 4.83301 0.333008 7.5 1c15.333 2.66699 29.166 12 41.499 28s18.5 44.333 18.5 85v88c0 36.667 -5.16699 63 -15.5 79s-21.5 26.333 -33.5 31c-4.66699 1.33301 -9.16699 2.33301 -13.5 3s-8.5 1 -12.5 1v0z" />
    <glyph glyph-name="ampersand" unicode="&#x26;" horiz-adv-x="845" 
d="M529 446l200.999 -0.000976562v-39c-29.333 -6 -52.166 -18 -68.499 -36s-31.833 -39.333 -46.5 -64c-1.33301 -2 -2.5 -4.16699 -3.5 -6.5s-2.16699 -4.5 -3.5 -6.5c-20.667 -37.333 -39.167 -67 -55.5 -89s-27.5 -36.667 -33.5 -44l13.5 -16c5 -6 10.5 -12 16.5 -18
c14.667 -14.667 32 -28 52 -40s41.333 -18 64 -18c20 0 37.667 7 53 21s25 30.667 29 50h28c-1.33301 -7.33301 -4 -17.333 -8 -30s-9.33301 -25.667 -16 -39c-10.667 -20 -25.5 -38 -44.5 -54s-44.167 -24 -75.5 -24c-12 0 -33.667 4.83301 -65 14.5
s-66.666 38.167 -105.999 85.5c-41.333 -42.667 -81 -70 -119 -82s-71 -18 -99 -18c-56.667 0 -99.5 16 -128.5 48s-43.5 70.667 -43.5 116c0 28 8 58.667 24 92s47.333 67.333 94 102c12 8.66699 25 17.167 39 25.5s29 16.833 45 25.5l-8.5 20.5
c-3 7 -5.5 13.833 -7.5 20.5c-6 17.333 -10.667 34.666 -14 51.999s-5 34 -5 50c0 49.333 14 88.833 42 118.5s64.333 44.5 109 44.5c43.333 0 76.666 -12.5 99.999 -37.5s35 -52.833 35 -83.5c0 -42.667 -15.167 -78.167 -45.5 -106.5s-63.5 -51.5 -99.5 -69.5
c-2 -0.666992 -3.83301 -1.5 -5.5 -2.5s-3.5 -1.83301 -5.5 -2.5c9.33301 -20.667 24 -49.667 44 -87s48 -79.666 84 -126.999c4.66699 6 9.5 12.833 14.5 20.5s9.83301 15.834 14.5 24.501c4.66699 7.33301 9.16699 15 13.5 23l12.5 24
c7.33301 16.667 13.666 32.667 18.999 48s8 28.333 8 39c0 12 -4.16699 20.5 -12.5 25.5s-20.166 8.5 -35.499 10.5v39v0zM434.999 123.999l-39.001 51c-11.333 15.333 -21.666 30.333 -30.999 45c-6 8.66699 -11.667 17.334 -17 26.001l-16 27l-21 41
c-7.33301 14.667 -15 31 -23 49l-18 -10.5c-6 -3.66699 -12.333 -7.83398 -19 -12.501c-19.333 -14 -37.333 -32.167 -54 -54.5s-25 -49.5 -25 -81.5c0 -5.33301 0.166992 -10.833 0.5 -16.5s1.16602 -11.167 2.49902 -16.5c4.66699 -28.667 16.167 -55 34.5 -79
s45.833 -36 82.5 -36c19.333 0 41.333 4.66699 66 14s50.334 27.333 77.001 54v0zM351.998 441.999c0.666992 0.666992 1.5 1.16504 2.5 1.49805s2.16699 0.5 3.5 0.5c26 11.333 49.833 28.833 71.5 52.5s32.5 53.834 32.5 90.501c0 26.667 -6.5 47 -19.5 61
s-28.833 21 -47.5 21c-3.33301 0 -6.83301 -0.166992 -10.5 -0.5s-7.5 -1.16602 -11.5 -2.49902c-14 -3.33301 -26.833 -11.333 -38.5 -24s-17.5 -32.334 -17.5 -59.001c0 -16 2.33301 -34.667 7 -56s14 -49.666 28 -84.999v0z" />
    <glyph glyph-name="quotesingle" unicode="'" horiz-adv-x="221" 
d="M155 700l-27 -204h-36l-26 204h89v0z" />
    <glyph glyph-name="parenleft" unicode="(" horiz-adv-x="399" 
d="M329 691c0 -2.66699 -1.33301 -5.50293 -4 -8.50293s-6 -7.16699 -10 -12.5c-8 -8.66699 -17.5 -20.334 -28.5 -35.001s-22.5 -32 -34.5 -52c-20.667 -35.333 -39.5 -79.5 -56.5 -132.5s-25.5 -115.833 -25.5 -188.5c0 -78.667 9.33301 -145.167 28 -199.5
s39.334 -99.166 62.001 -134.499c8.66699 -13.333 17.167 -25.5 25.5 -36.5s16.166 -20.833 23.499 -29.5c7.33301 -9.33301 12.5 -15.666 15.5 -18.999s4.5 -6.33301 4.5 -9c0 -0.666992 -0.166992 -1.5 -0.5 -2.5s-0.5 -1.83301 -0.5 -2.5
c-1.33301 -3.33301 -3.33301 -6.16602 -6 -8.49902s-5.66699 -3.5 -9 -3.5c-7.33301 0 -17.5 5.16699 -30.5 15.5s-26.833 22.5 -41.5 36.5l-10 10.5c-3.33301 3.66699 -6.33301 7.16699 -9 10.5l-39.5 43c-11.667 13.333 -18.834 22.333 -21.501 27
c-4.66699 6.66699 -9.5 14.334 -14.5 23.001l-15.5 27c-15.333 29.333 -29.333 65.166 -42 107.499s-19 90.5 -19 144.5c0 72.667 13.833 140.667 41.5 204s57.834 115.333 90.501 156c21.333 26.667 42 47.667 62 63s36.333 23 49 23c3.33301 0 6.33301 -1.16699 9 -3.5
s4.66699 -5.16602 6 -8.49902c0 -0.666992 0.166992 -1.5 0.5 -2.5s0.5 -1.83301 0.5 -2.5v0z" />
    <glyph glyph-name="parenright" unicode=")" horiz-adv-x="399" 
d="M70 691c0 0.666992 0.166992 1.50293 0.5 2.50293s0.5 1.83301 0.5 2.5c1.33301 3.33301 3.33301 6.16602 6 8.49902s5.66699 3.5 9 3.5c12.667 0 29 -7.66699 49 -23s40.667 -36.333 62 -63c32.667 -40.667 62.834 -92.667 90.501 -156s41.5 -131.333 41.5 -204
c0 -54 -6.33301 -102.167 -19 -144.5s-26.667 -78.166 -42 -107.499l-15.5 -27c-5 -8.66699 -9.83301 -16.334 -14.5 -23.001c-2.66699 -4.66699 -9.83398 -13.667 -21.501 -27l-39.5 -43c-2.66699 -3.33301 -5.66699 -6.83301 -9 -10.5l-10 -10.5
c-14.667 -14 -28.5 -26.167 -41.5 -36.5s-23.167 -15.5 -30.5 -15.5c-3.33301 0 -6.33301 1.16699 -9 3.5s-4.66699 5.16602 -6 8.49902c0 0.666992 -0.166992 1.5 -0.5 2.5s-0.5 1.83301 -0.5 2.5c0 2.66699 1.5 5.66699 4.5 9s8.16699 9.66602 15.5 18.999
c7.33301 8.66699 15.166 18.5 23.499 29.5s16.833 23.167 25.5 36.5c22.667 35.333 43.334 80.166 62.001 134.499s28 120.833 28 199.5c0 72.667 -8.5 135.5 -25.5 188.5s-35.833 97.167 -56.5 132.5c-12 20 -23.5 37.333 -34.5 52s-20.5 26.334 -28.5 35.001
c-4 5.33301 -7.33301 9.5 -10 12.5s-4 5.83301 -4 8.5v0z" />
    <glyph glyph-name="asterisk" unicode="*" horiz-adv-x="455" 
d="M251 509c1.33301 -0.666992 2.83496 -1.50879 4.50195 -2.50879s2.83398 -2.16699 3.50098 -3.5c7.33301 0.666992 15.333 2.83398 24 6.50098s17.667 8.16699 27 13.5c7.33301 4.66699 15 9.83398 23 15.501s15 11.5 21 17.5c6.66699 6 12.334 11.667 17.001 17
s8.33398 10.333 11.001 15c17.333 1.33301 32.666 -3.33398 45.999 -14.001s20 -23.667 20 -39c0 -3.33301 -0.333008 -6.66602 -1 -9.99902s-1.33398 -7 -2.00098 -11c-2 -6 -5.33301 -12.167 -10 -18.5s-10.667 -11.5 -18 -15.5
c-3.33301 1.33301 -6.66602 2.5 -9.99902 3.5s-6.66602 2.16699 -9.99902 3.5c-8 2 -16.333 3.16699 -25 3.5s-18.334 0.5 -29.001 0.5c-4.66699 0 -10.167 -0.333008 -16.5 -1s-12.833 -1.66699 -19.5 -3c-8 -1.33301 -15.5 -2.83301 -22.5 -4.5
s-12.833 -3.83398 -17.5 -6.50098c-0.666992 -1.33301 -1.16699 -2.83301 -1.5 -4.5s-1.16602 -3.16699 -2.49902 -4.5c5.33301 -9.33301 13.166 -19.166 23.499 -29.499s25.166 -22.5 44.499 -36.5l11 -7.5c3.33301 -2.33301 6.66602 -4.5 9.99902 -6.5
c4.66699 -2.66699 9.33398 -4.83398 14.001 -6.50098s10.334 -3.16699 17.001 -4.5c2 -4.66699 3.33301 -9.16699 4 -13.5s1 -8.5 1 -12.5c0 -16 -5.83301 -29.167 -17.5 -39.5s-24.5 -15.833 -38.5 -16.5h-1.5h-1.5c-2.66699 0 -5.33398 0.333008 -8.00098 1
s-5.66699 1.33398 -9 2.00098c-3.33301 1.33301 -6.83301 3 -10.5 5s-7.16699 4.33301 -10.5 7c0.666992 7.33301 0.5 14.666 -0.5 21.999s-2.16699 14.666 -3.5 21.999c-4 18.667 -10.333 36.667 -19 54s-17.667 32 -27 44h-2.5h-2.5c-0.666992 0 -1.5 0.166992 -2.5 0.5
s-1.83301 0.5 -2.5 0.5c-2.66699 -3.33301 -5.16699 -6.66602 -7.5 -9.99902s-4.5 -6.66602 -6.5 -9.99902c-8 -12 -14 -23.667 -18 -35s-7.33301 -21.333 -10 -30c-1.33301 -5.33301 -2.66602 -10.333 -3.99902 -15s-2.33301 -9 -3 -13
c-0.666992 -2.66699 -1.16699 -5.5 -1.5 -8.5s-0.5 -6.16699 -0.5 -9.5v-2.5c0 -1 0.333008 -1.83301 1 -2.5v-3v-3c-1.33301 -1.33301 -2.83301 -2.66602 -4.5 -3.99902s-3.5 -2.66602 -5.5 -3.99902c-5.33301 -3.33301 -10.333 -5.5 -15 -6.5s-8.66699 -1.5 -12 -1.5
c-2 0 -3.83301 0.166992 -5.5 0.5s-3.5 0.5 -5.5 0.5c-12.667 2.66699 -24.167 9 -34.5 19s-15.5 22.333 -15.5 37c0 4 0.666992 8.16699 2 12.5s3 8.83301 5 13.5c6 1.33301 12.5 3.5 19.5 6.5s13.833 6.5 20.5 10.5c10.667 6 21 13 31 21s19 16 27 24
c4.66699 5.33301 8.83398 10.333 12.501 15s6.5 9.33398 8.5 14.001c-0.666992 0.666992 -1.16699 1.5 -1.5 2.5s-0.5 1.83301 -0.5 2.5v2.5v2.5c-5.33301 2 -11.5 4 -18.5 6s-13.833 3.33301 -20.5 4c-7.33301 1.33301 -14.5 2.33301 -21.5 3s-13.167 1 -18.5 1
c-12.667 0 -23.334 -0.333008 -32.001 -1s-17.334 -2.33398 -26.001 -5.00098c-2 -0.666992 -4.16699 -1.33398 -6.5 -2.00098s-4.83301 -1.66699 -7.5 -3c-7.33301 5.33301 -13.333 11.333 -18 18s-8 13.667 -10 21c-0.666992 2.66699 -1.16699 5.33398 -1.5 8.00098
s-0.5 5.33398 -0.5 8.00098s0.166992 5.33398 0.5 8.00098s1.16602 5.33398 2.49902 8.00098c3.33301 10 10.166 19 20.499 27s24.166 11.333 41.499 10c9.33301 -13.333 21.333 -26 36 -38s29.667 -22.333 45 -31c7.33301 -3.33301 14.666 -6.5 21.999 -9.5
s14.333 -5.16699 21 -6.5c0.666992 0.666992 1.33398 1.16699 2.00098 1.5l3 1.5c0.666992 0 1.33398 0.166992 2.00098 0.5s1.33398 0.833008 2.00098 1.5c0.666992 14 0.333984 26 -0.999023 36s-3.33301 19.333 -6 28l-4 14c-1.33301 4.66699 -3 9.66699 -5 15
c-1.33301 3.33301 -2.33301 6.33301 -3 9s-1.66699 5 -3 7c-1.33301 4.66699 -2.83301 8.83398 -4.5 12.501s-3.83398 7.16699 -6.50098 10.5c-1.33301 2 -2.83301 4 -4.5 6s-3.5 4 -5.5 6c2.66699 12 7.5 21.5 14.5 28.5s14.5 12.167 22.5 15.5l10 2
c3.33301 0.666992 6.33301 1 9 1c3.33301 0 7.16602 -0.5 11.499 -1.5s9.16602 -2.5 14.499 -4.5c6.66699 -3.33301 13 -8.16602 19 -14.499s10 -15.166 12 -26.499c-8.66699 -8.66699 -16.5 -21.334 -23.5 -38.001s-13.167 -41.667 -18.5 -75
c-0.666992 -3.33301 -1.16699 -6.5 -1.5 -9.5s-0.5 -6.16699 -0.5 -9.5v-6c0 -2 0.333008 -4 1 -6v0z" />
    <glyph glyph-name="plus" unicode="+" horiz-adv-x="702" 
d="M376 35h-50v256h-256v50h256v256h50v-256h256v-50h-256v-256v0z" />
    <glyph glyph-name="comma" unicode="," horiz-adv-x="259" 
d="M90 -123l-19.998 20.998c26.667 22.667 44 41.334 52 56.001s13 26.667 15 36l-2 2c-0.666992 0.666992 -1.33398 1 -2.00098 1s-1.33398 -0.333008 -2.00098 -1h-3h-2c-16.667 0.666992 -30.167 5.5 -40.5 14.5s-15.5 22.167 -15.5 39.5v4.5
c0 1.66699 0.333008 3.16699 1 4.5c2 10.667 7.33301 20.5 16 29.5s21.667 13.5 39 13.5h5.5c1.66699 0 3.5 -0.333008 5.5 -1c13.333 -2 25.333 -8.16699 36 -18.5s16 -27.166 16 -50.499c0 -27.333 -9 -53.833 -27 -79.5s-38 -46.5 -60 -62.5l-6 -4l-6 -4v-1z" />
    <glyph glyph-name="hyphen" unicode="-" horiz-adv-x="368" 
d="M70 117l20.999 93.001h132h1.5h0.5h10c4 0 8.33301 0.666992 13 2c5.33301 1.33301 10.333 4 15 8s8.33398 9.66699 11.001 17h24l-18 -93h-135h-5h-4h-13.5c-3.66699 0 -7.16699 -1 -10.5 -3c-2.66699 -2 -5.66699 -4.83301 -9 -8.5s-7.33301 -8.83398 -12 -15.501h-21
v0z" />
    <glyph glyph-name="period" unicode="." horiz-adv-x="245" 
d="M123 97c2.66699 0 5.50098 -0.332031 8.50098 -0.999023s6.16699 -1.33398 9.5 -2.00098c8.66699 -3.33301 16.5 -8.83301 23.5 -16.5s10.5 -18.5 10.5 -32.5c0 -16.667 -5.33301 -29.5 -16 -38.5s-22.667 -13.5 -36 -13.5c-14 0 -25 3.5 -33 10.5
s-13.667 14.833 -17 23.5c-0.666992 3.33301 -1.33398 6.5 -2.00098 9.5s-1 5.83301 -1 8.5s0.333008 5.5 1 8.5s1.66699 6.16699 3 9.5c3.33301 8.66699 9 16.5 17 23.5s18.667 10.5 32 10.5v0z" />
    <glyph glyph-name="slash" unicode="/" horiz-adv-x="546" 
d="M127 -184h-57l347 884h59l-349 -884v0z" />
    <glyph glyph-name="zero" unicode="0" horiz-adv-x="504" 
d="M252 -8c-6.66699 0.666992 -13.5 1.5 -20.5 2.5s-14.167 2.5 -21.5 4.5c-42.667 12 -81.834 45.833 -117.501 101.5s-53.5 138.834 -53.5 249.501c0 99.333 18.833 183.833 56.5 253.5s89.834 104.5 156.501 104.5s118.834 -34.833 156.501 -104.5
s56.5 -154.167 56.5 -253.5c0 -110.667 -17.833 -193.834 -53.5 -249.501s-74.834 -89.5 -117.501 -101.5c-7.33301 -2 -14.5 -3.5 -21.5 -4.5s-13.833 -1.5 -20.5 -1.5v-1zM252 31c37.333 0 63.666 19.667 78.999 59s25.333 82.666 30 129.999
c2 23.333 3.16699 46.333 3.5 69s0.5 43 0.5 61s-0.166992 38.333 -0.5 61s-1.5 45.667 -3.5 69c-4.66699 47.333 -14.667 90.666 -30 129.999s-41.666 59 -78.999 59s-63.666 -19.667 -78.999 -59s-25.333 -82.666 -30 -129.999c-2 -23.333 -3.16699 -46.333 -3.5 -69
s-0.5 -43 -0.5 -61s0.166992 -38.333 0.5 -61s1.5 -45.667 3.5 -69c4.66699 -47.333 14.667 -90.666 30 -129.999s41.666 -59 78.999 -59v0z" />
    <glyph glyph-name="one" unicode="1" horiz-adv-x="379" 
d="M327 34l0.000976562 -34.002h-204v34c21.333 2 36.666 10 45.999 24s13.666 33 12.999 57v462h-6c-12 -13.333 -21.667 -23.666 -29 -30.999s-14.333 -13.666 -21 -18.999l-2 -2l-2 -2l-8 -6l-9 -7c-2.66699 -2 -5.16699 -4 -7.5 -6s-4.5 -3.66699 -6.5 -5
s-3.66699 -2.66602 -5 -3.99902s-3 -2.33301 -5 -3c-4 -3.33301 -8.33301 -6.5 -13 -9.5s-10 -6.16699 -16 -9.5v43c30 20 57.5 43.5 82.5 70.5s46.5 54.5 64.5 82.5l10 15.5c3.33301 5 6.33301 10.167 9 15.5h50v-585c-0.666992 -22 3.33301 -40.333 12 -55
s24.334 -23.334 47.001 -26.001v0z" />
    <glyph glyph-name="two" unicode="2" horiz-adv-x="498" 
d="M464 155l-37.998 -155h-392v38l59.5 68c23.667 27.333 48.167 57.333 73.5 90l46 62c15.333 21.333 29.666 43 42.999 65c22.667 37.333 41.667 74 57 110s23 68.667 23 98c0 35.333 -9.16699 63.166 -27.5 83.499s-43.166 30.5 -74.499 30.5
c-16 0 -36.5 -4.66699 -61.5 -14s-51.5 -33.666 -79.5 -72.999l-30 19c17.333 28.667 35.166 51.667 53.499 69s36.833 30.666 55.5 39.999c16 8.66699 32 14.5 48 17.5s31.667 4.5 47 4.5c54 0 94.167 -13.167 120.5 -39.5s41.833 -55.166 46.5 -86.499
c0.666992 -4 1.16699 -8 1.5 -12s0.5 -8 0.5 -12c0 -25.333 -14.833 -72.333 -44.5 -141s-117.834 -177.667 -264.501 -327v-4h181h2h2h10h10c18.667 0.666992 36.667 5 54 13s32 26.667 44 56h34v0z" />
    <glyph glyph-name="three" unicode="3" horiz-adv-x="475" 
d="M77 551l-30 18.999c4 7.33301 9 15.333 15 24s12.333 17.334 19 26.001c18.667 22 42.5 42.167 71.5 60.5s63.833 27.5 104.5 27.5c38 0 67 -8.5 87 -25.5s33 -35.5 39 -55.5c2 -6 3.5 -12 4.5 -18s1.5 -11.667 1.5 -17c0 -11.333 -3.16699 -27.333 -9.5 -48
s-20.5 -42.334 -42.5 -65.001c-7.33301 -8 -15.833 -15.833 -25.5 -23.5s-20.5 -15.167 -32.5 -22.5v-4c41.333 1.33301 76.5 -11 105.5 -37s43.5 -63.667 43.5 -113c0 -65.333 -28.667 -125.666 -86 -180.999s-139 -89 -245 -101
c-6.66699 -0.666992 -12.834 -1.33398 -18.501 -2.00098l-17.5 -2h-14.5h-16.5v32c91.333 6 162 29.833 212 71.5s79.667 86.834 89 135.501l2 16.5c0.666992 5.66699 1 11.167 1 16.5c0 33.333 -10 59.666 -30 78.999s-45.667 29 -77 29
c-7.33301 0 -15.166 -0.833008 -23.499 -2.5s-16.833 -4.16699 -25.5 -7.5c-5.33301 -1.33301 -10.5 -3.16602 -15.5 -5.49902s-9.83301 -4.83301 -14.5 -7.5l-17 29l27.5 17c9.66699 6 19.167 12.333 28.5 19c30.667 20.667 58.667 45 84 73s38 58 38 90
c0 22.667 -6 39.5 -18 50.5s-25 18.167 -39 21.5c-4.66699 1.33301 -9.16699 2.16602 -13.5 2.49902s-8.5 0.5 -12.5 0.5c-22.667 0 -43.667 -6.16699 -63 -18.5s-36.333 -26.166 -51 -41.499c-7.33301 -7.33301 -14 -14.833 -20 -22.5l-15 -19.5v0z" />
    <glyph glyph-name="four" unicode="4" horiz-adv-x="508" 
d="M340 700h40v-422c21.333 -0.666992 37 4.83301 47 16.5s17.333 27.5 22 47.5l28 -7l-35 -131h-62v-204h-86v204h-260v46l306 450v0zM294 278v285h-6l-185 -274v-11h191v0z" />
    <glyph glyph-name="five" unicode="5" horiz-adv-x="469" 
d="M368 708l-25.001 -94.998h-177l-44 -168l2 -2c21.333 12 41.166 19.5 59.499 22.5s32.5 4.5 42.5 4.5h6.5h7.5c42 -3.33301 80.667 -19.666 116 -48.999s53 -73.333 53 -132c0 -23.333 -4.33301 -51.833 -13 -85.5s-27.667 -68.167 -57 -103.5
c-11.333 -14 -23 -26.167 -35 -36.5s-24 -19.5 -36 -27.5c-30 -18.667 -58.833 -30.5 -86.5 -35.5s-49.834 -7.5 -66.501 -7.5c-13.333 0 -25.166 0.333008 -35.499 1s-20.166 2 -29.499 4c-3.33301 1.33301 -6.66602 2.16602 -9.99902 2.49902
s-6.66602 1.16602 -9.99902 2.49902v36c10.667 -2.66699 21.167 -4.83398 31.5 -6.50098s20.5 -2.5 30.5 -2.5c63.333 0.666992 115.333 25.834 156 75.501s61 107.5 61 173.5c0 43.333 -7.33301 75.666 -22 96.999s-31 35.333 -49 42c-6 2.66699 -12 4.5 -18 5.5
s-11.667 1.5 -17 1.5c-8.66699 0 -20.834 -1.33301 -36.501 -4s-37.834 -10.667 -66.501 -24l-18 15l73 288h146c4.66699 0 10.334 0.333008 17.001 1l21 2c5.33301 0.666992 10.5 1.5 15.5 2.5s9.5 1.83301 13.5 2.5v0z" />
    <glyph glyph-name="six" unicode="6" horiz-adv-x="523" 
d="M261 -8c-9.33301 0.666992 -19.002 1.49902 -29.002 2.49902s-20 2.83301 -30 5.5c-40.667 9.33301 -77.834 31.5 -111.501 66.5s-50.5 89.167 -50.5 162.5c0 46 4 89.833 12 131.5s23 82.834 45 123.501c4 8 8.33301 15.833 13 23.5s9.66699 15.167 15 22.5
c30 43.333 68.333 80.666 115 111.999s95.334 53.333 146.001 66v-39c-60.667 -30.667 -112.667 -68.5 -156 -113.5s-71.666 -106.167 -84.999 -183.5h3c13.333 14.667 27.666 26.334 42.999 35.001s31 15 47 19c6.66699 1.33301 13.334 2.33301 20.001 3s13.334 1 20.001 1
c56 0 104.167 -19 144.5 -57s60.5 -88.667 60.5 -152c0 -58 -18.5 -110.5 -55.5 -157.5s-92.5 -70.5 -166.5 -70.5v-1zM263.998 392.999c-6.66699 0 -14.1699 -0.668945 -22.5029 -2.00195s-16.833 -4 -25.5 -8c-19.333 -8.66699 -37 -26 -53 -52s-24 -66.667 -24 -122
c0 -54 8.33301 -94.167 25 -120.5s35 -44.166 55 -53.499c7.33301 -3.33301 14.833 -5.66602 22.5 -6.99902s14.834 -2 21.501 -2s13.834 0.666992 21.501 2s15.5 3.66602 23.5 6.99902c18.667 8 35.834 24.833 51.501 50.5s23.5 66.834 23.5 123.501
c0 65.333 -11 111.5 -33 138.5s-46.333 41.833 -73 44.5c-2 0.666992 -4.16699 1 -6.5 1h-6.5v0z" />
    <glyph glyph-name="seven" unicode="7" horiz-adv-x="492" 
d="M55 520l14.001 180.001h371v-39l-200 -661h-115l261 613h-230h-1.5h-0.5c-18.667 0 -33.834 -3.83301 -45.501 -11.5s-18.167 -34.834 -19.5 -81.501h-34v0z" />
    <glyph glyph-name="eight" unicode="8" horiz-adv-x="519" 
d="M258 -8c-66.667 0.666992 -117.501 19.6689 -152.501 57.002s-54.833 78.666 -59.5 123.999c0 3.33301 -0.166992 6.83301 -0.5 10.5s-0.5 7.16699 -0.5 10.5c0 13.333 1.33301 28.5 4 45.5s8 34.5 16 52.5c8 17.333 19.667 34.666 35 51.999s35.333 32.333 60 45v4
c-23.333 17.333 -41.666 38.5 -54.999 63.5s-20.666 50.833 -21.999 77.5v4v4c0 8.66699 0.833008 17.5 2.5 26.5s4.5 18.5 8.5 28.5c10 27.333 29.167 52.666 57.5 75.999s67.5 35 117.5 35c45.333 0 85.166 -13.5 119.499 -40.5s51.5 -62.167 51.5 -105.5
c0 -32 -7.5 -59.333 -22.5 -82s-31.167 -41 -48.5 -55l-8 -6c-2.66699 -2 -5.33398 -3.66699 -8.00098 -5v-4c36.667 -21.333 66.834 -47.666 90.501 -78.999s35.5 -70.333 35.5 -117c0 -58.667 -19.5 -110.167 -58.5 -154.5s-93.167 -66.5 -162.5 -66.5v-1z
M186.999 375.002l-4.00098 -4.00098l-4 -4c-13.333 -14.667 -25.833 -35.167 -37.5 -61.5s-17.5 -60.166 -17.5 -101.499c0 -54.667 11.5 -95 34.5 -121s48.5 -42 76.5 -48c5.33301 -1.33301 10.833 -2.33301 16.5 -3s11.167 -1 16.5 -1c38 0 67.667 13 89 39
s32 56.333 32 91c0 52 -15 92.333 -45 121s-71.333 54.667 -124 78c-5.33301 2.66699 -10.666 5.16699 -15.999 7.5l-17 7.5v0zM258.998 669.001c-27.333 0 -49.167 -7.16895 -65.5 -21.502s-27.5 -30.166 -33.5 -47.499c-1.33301 -5.33301 -2.5 -10.5 -3.5 -15.5
s-1.5 -9.83301 -1.5 -14.5c0 -29.333 11.5 -55.666 34.5 -78.999s59.833 -42.666 110.5 -57.999c12 7.33301 22 15.5 30 24.5s14.333 18.167 19 27.5c8.66699 16 14 31.167 16 45.5s3 24.5 3 30.5c0 29.333 -9.33301 54.666 -28 75.999s-45.667 32 -81 32v0z" />
    <glyph glyph-name="nine" unicode="9" horiz-adv-x="522" 
d="M261 708c66 0 119.33 -21.3359 159.997 -64.0029s61 -100.667 61 -174c0 -54 -6 -105.667 -18 -155s-34.667 -97.666 -68 -144.999c-29.333 -41.333 -67.166 -78.166 -113.499 -110.499s-94.833 -54.5 -145.5 -66.5v38c62 32 114 70.167 156 114.5
s70.333 104.833 85 181.5h-4c-10 -12 -21.833 -22.167 -35.5 -30.5s-27.5 -14.833 -41.5 -19.5c-8.66699 -2.66699 -17.5 -4.66699 -26.5 -6s-17.5 -2 -25.5 -2c-9.33301 0 -19 0.666992 -29 2s-20 3.66602 -30 6.99902c-36.667 10.667 -70.167 32.167 -100.5 64.5
s-45.5 77.833 -45.5 136.5c0 12.667 1.33301 27.334 4 44.001s7.33398 33.334 14.001 50.001c12.667 34 34.834 65 66.501 93s77.167 42 136.5 42v0zM258.997 305.997c6 0 12 0.498047 18 1.49805s12.333 2.5 19 4.5c21.333 7.33301 41 24.166 59 50.499s27 68.833 27 127.5
c0 62.667 -10.333 107.334 -31 134.001s-43.334 42.667 -68.001 48c-4 0.666992 -8 1.16699 -12 1.5s-8 0.5 -12 0.5c-37.333 0 -64.333 -12.167 -81 -36.5s-27.667 -51.166 -33 -80.499c-2 -12 -3.33301 -23.667 -4 -35s-1 -22 -1 -32c0 -56.667 7.83301 -98 23.5 -124
s32.834 -43 51.501 -51c8 -3.33301 15.667 -5.66602 23 -6.99902s14.333 -2 21 -2v0z" />
    <glyph glyph-name="colon" unicode=":" horiz-adv-x="245" 
d="M70 45c0 15.333 5.5 27.833 16.5 37.5s23.167 14.5 36.5 14.5c16 0 28.667 -5.33301 38 -16s14 -22.667 14 -36s-4.83301 -25.333 -14.5 -36s-22.167 -16 -37.5 -16c-13.333 0 -25.5 4.5 -36.5 13.5s-16.5 21.833 -16.5 38.5v0zM70 340
c0 2 0.164062 3.83203 0.49707 5.49902s0.5 3.5 0.5 5.5c2.66699 10.667 8.33398 20.334 17.001 29.001s20.334 13 35.001 13c15.333 0 27.666 -5.16699 36.999 -15.5s14.333 -21.833 15 -34.5v-1.5v-1.5c0 -12.667 -4.66699 -24.5 -14 -35.5s-22 -16.5 -38 -16.5
c-15.333 0 -27.666 4.83301 -36.999 14.5s-14.666 20.5 -15.999 32.5v2.5v2.5v0z" />
    <glyph glyph-name="semicolon" unicode=";" horiz-adv-x="259" 
d="M90 -123l-19.998 20.998c26.667 22.667 44 41.334 52 56.001s13 26.667 15 36l-2 2c-0.666992 0.666992 -1.33398 1 -2.00098 1s-1.33398 -0.333008 -2.00098 -1h-3h-2c-16.667 0.666992 -30.167 5.5 -40.5 14.5s-15.5 22.167 -15.5 39.5v4.5
c0 1.66699 0.333008 3.16699 1 4.5c2 10.667 7.33301 20.5 16 29.5s21.667 13.5 39 13.5h5.5c1.66699 0 3.5 -0.333008 5.5 -1c13.333 -2 25.333 -8.16699 36 -18.5s16 -27.166 16 -50.499c0 -27.333 -9 -53.833 -27 -79.5s-38 -46.5 -60 -62.5l-6 -4l-6 -4v-1z
M77.002 340.998c0 13.333 4.83398 25.334 14.501 36.001s21.834 16 36.501 16c13.333 0 25.5 -4.83301 36.5 -14.5s16.5 -22.167 16.5 -37.5c0 -2 -0.166992 -3.83301 -0.5 -5.5s-0.5 -3.5 -0.5 -5.5c-2.66699 -10.667 -8.33398 -20.334 -17.001 -29.001
s-20.334 -13 -35.001 -13s-26.667 5.16699 -36 15.5s-14.333 21.833 -15 34.5v1.5v1.5v0z" />
    <glyph glyph-name="less" unicode="&#x3c;" horiz-adv-x="727" 
d="M70 326l570 244l17 -46l-462 -198l462 -199l-17 -46l-570 245v0z" />
    <glyph glyph-name="equal" unicode="=" horiz-adv-x="551" 
d="M0 216v42h551v-42h-551v0zM0 376v42h551v-42h-551v0z" />
    <glyph glyph-name="greater" unicode="&#x3e;" horiz-adv-x="727" 
d="M657 326l-570 -245l-17 46l462 199l-462 198l17 46l570 -244v0z" />
    <glyph glyph-name="question" unicode="?" horiz-adv-x="428" 
d="M70 49c0 14 4.00195 24.498 12.002 31.498s17 11.833 27 14.5c2.66699 0.666992 5.5 1.16699 8.5 1.5s5.83301 0.5 8.5 0.5s5.5 -0.333008 8.5 -1s5.83301 -1.66699 8.5 -3c8 -4 15.167 -10.333 21.5 -19s9.5 -20 9.5 -34s-4.16699 -24.5 -12.5 -31.5
s-17.833 -11.5 -28.5 -13.5c-2.66699 -0.666992 -5.33398 -1.16699 -8.00098 -1.5s-5.33398 -0.5 -8.00098 -0.5c-2 0 -3.83301 0.166992 -5.5 0.5s-3.16699 0.5 -4.5 0.5c-9.33301 2.66699 -17.833 8.33398 -25.5 17.001s-11.5 21.334 -11.5 38.001v0zM103.002 157.998
l-16.998 169.998l33 6c1.33301 -1.33301 2.5 -2.66602 3.5 -3.99902s2.16699 -2.66602 3.5 -3.99902c4.66699 -4 10.667 -7.83301 18 -11.5s16.666 -5.5 27.999 -5.5c29.333 0 51.666 11.5 66.999 34.5s23 54.167 23 93.5c0 37.333 -5 72.166 -15 104.499
s-21 58.833 -33 79.5c-8 14 -15.5 24.833 -22.5 32.5s-12.833 11.5 -17.5 11.5c-0.666992 0 -1.83398 -0.166992 -3.50098 -0.5s-3.5 -1.16602 -5.5 -2.49902c-1.33301 -0.666992 -2.83301 -2.16699 -4.5 -4.5s-2.83398 -5.5 -3.50098 -9.5
c-2.66699 -10.667 -7.66699 -17.834 -15 -21.501s-15.333 -5.5 -24 -5.5c-12.667 0 -21.667 3.5 -27 10.5s-8.33301 14.5 -9 22.5c-0.666992 2 -1 3.66699 -1 5v4c0 2.66699 0.333008 5.5 1 8.5s2 6.16699 4 9.5c3.33301 6.66699 9.5 12.834 18.5 18.501s22.5 8.5 40.5 8.5
c26 0 50.333 -8.83301 73 -26.5s42.667 -37.5 60 -59.5c4 -4.66699 7.83301 -9.66699 11.5 -15l10.5 -15c10.667 -16 19.834 -33 27.501 -51s13.834 -36.333 18.501 -55c4 -16.667 7 -33.5 9 -50.5s3 -33.167 3 -48.5c0 -48 -12.667 -84.5 -38 -109.5s-53 -38.833 -83 -41.5
h-5.5h-5.5c-13.333 0 -25.5 1.66699 -36.5 5s-21.833 9 -32.5 17c-3.33301 2 -6.83301 4.5 -10.5 7.5s-7.16699 6.16699 -10.5 9.5h-7l10 -117h-36v0z" />
    <glyph glyph-name="at" unicode="@" horiz-adv-x="995" 
d="M742 531l-78 -256.996l-3.5 -10.5c-1.66699 -5 -3.16699 -10.833 -4.5 -17.5c-0.666992 -3.33301 -1.5 -6.5 -2.5 -9.5s-1.83301 -6.16699 -2.5 -9.5c-1.33301 -6 -2.33301 -11.667 -3 -17s-1 -10.333 -1 -15c0 -15.333 2.5 -27 7.5 -35s10.5 -14 16.5 -18
c4 -2 8 -3.5 12 -4.5s7 -1.5 9 -1.5c9.33301 0 21.166 2.16699 35.499 6.5s28.833 11.5 43.5 21.5c24.667 17.333 47.334 43.666 68.001 78.999s31 83.666 31 144.999c0 92.667 -33.667 171.334 -101 236.001s-157 97 -269 97c-108.667 0 -198 -38.333 -268 -115
s-105 -168.667 -105 -276c0 -108.667 36.5 -201.667 109.5 -279s162.167 -116 267.5 -116c14.667 0 29.834 0.833008 45.501 2.5s31.167 4.16699 46.5 7.5c29.333 6 57.833 15.167 85.5 27.5s52.5 28.5 74.5 48.5l29 -49l-40.5 -26.5
c-13 -8.33301 -26.167 -15.833 -39.5 -22.5c-28 -14.667 -57 -25.167 -87 -31.5s-64.667 -9.5 -104 -9.5c-138.667 0 -248 44.667 -328 134s-120 189.666 -120 300.999c0 121.333 39.167 226.833 117.5 316.5s183.5 134.5 315.5 134.5c130 0 234.167 -37.333 312.5 -112
s117.5 -164 117.5 -268c0 -78 -16.333 -139.333 -49 -184s-68.667 -76.334 -108 -95.001c-16 -7.33301 -31.667 -12.666 -47 -15.999s-29.666 -5 -42.999 -5c-6 0 -12.5 0.666992 -19.5 2s-14.167 3.33301 -21.5 6c-13.333 5.33301 -26.166 13.333 -38.499 24
s-22.5 24.667 -30.5 42c-6 -4 -11.667 -8 -17 -12s-11 -7.66699 -17 -11c-15.333 -8.66699 -30.833 -15.334 -46.5 -20.001s-32.834 -7 -51.501 -7c-5.33301 0 -11 0.333008 -17 1s-12 1.66699 -18 3c-28.667 7.33301 -55.167 24.833 -79.5 52.5s-36.5 68.167 -36.5 121.5
c0 6 0.166992 12 0.5 18s1.16602 12 2.49902 18c8 56 33.667 107.167 77 153.5s100 69.5 170 69.5c8.66699 0 19 -1.16699 31 -3.5s24.333 -7.5 37 -15.5c7.33301 -4.66699 14.666 -10.334 21.999 -17.001s14.333 -15 21 -25l15 43h77v0zM628 429.004
c-4.66699 28 -15.498 49.6689 -32.498 65.002s-35.167 23.666 -54.5 24.999h-2h-2c-4.66699 0 -9.33398 -0.333008 -14.001 -1s-9.33398 -2 -14.001 -4c-29.333 -10 -56.833 -35 -82.5 -75s-41.167 -92.333 -46.5 -157c0 -2 -0.166992 -4.16699 -0.5 -6.5
s-0.5 -4.83301 -0.5 -7.5v-7.5v-6.5v-6.5v-6.5c0 -2 0.166992 -4.16699 0.5 -6.5s0.5 -4.5 0.5 -6.5c3.33301 -26 11.833 -46.167 25.5 -60.5s31.5 -21.5 53.5 -21.5c20 0 37.333 4 52 12s27 17 37 27c3.33301 3.33301 6.33301 6.66602 9 9.99902l7 9l64 225v0z" />
    <glyph glyph-name="A" unicode="A" horiz-adv-x="724" 
d="M379 708l269.999 -600.002c10 -22.667 20.833 -40.334 32.5 -53.001s25.834 -19.667 42.501 -21v-34h-196v34c17.333 2.66699 27.666 7.16699 30.999 13.5s5 14.833 5 25.5c0 4 -0.5 7.66699 -1.5 11s-2.16699 6.33301 -3.5 9c-0.666992 2 -1.33398 3.66699 -2.00098 5
l-2 4l-40 90h-348l-39 -85c-5.33301 -11.333 -8.66602 -19.5 -9.99902 -24.5s-2 -8.5 -2 -10.5s0.166992 -3.83301 0.5 -5.5s0.5 -3.5 0.5 -5.5c2 -5.33301 5.66699 -10.666 11 -15.999s14.333 -9 27 -11v-34h-155v34c12.667 0.666992 23.834 4.83398 33.501 12.501
s18.167 15.834 25.5 24.501l12.5 20c3.66699 6 6.16699 10.667 7.5 14l225 486l7 17c1.33301 3.33301 2 6 2 8c0 6 -2.5 10 -7.5 12s-10.5 3 -16.5 3v34c4.66699 1.33301 9.5 3 14.5 5s10.167 4.66699 15.5 8c6 3.33301 12 7 18 11s11.333 8.33301 16 13
c0.666992 0.666992 1.66699 1.5 3 2.5s2.33301 2.16699 3 3.5h20v0zM496.999 230.998l-148 329h-11l-153 -329h312v0z" />
    <glyph glyph-name="B" unicode="B" horiz-adv-x="640" 
d="M52 700l272.002 -0.000976562c11.333 0 27.5 -0.666992 48.5 -2s43.167 -5.33301 66.5 -12c32 -8.66699 61.5 -25.167 88.5 -49.5s40.5 -61.5 40.5 -111.5c0 -9.33301 -1 -19.166 -3 -29.499s-5.33301 -21.166 -10 -32.499c-8.66699 -20 -22.667 -39.167 -42 -57.5
s-46 -31.833 -80 -40.5v-6c6 -0.666992 12.167 -1.66699 18.5 -3s12.5 -3 18.5 -5c32.667 -9.33301 62.667 -27 90 -53s41 -63.667 41 -113c0 -48 -12.667 -84.833 -38 -110.5s-53 -44.167 -83 -55.5c-21.333 -7.33301 -41.5 -12.333 -60.5 -15s-34.167 -4 -45.5 -4h-322v34
c25.333 1.33301 41.666 9.66602 48.999 24.999s11 34 11 56v470c0 25.333 -4.33301 45 -13 59s-24.334 21.333 -47.001 22v34v0zM198.002 38.999h133.998c8 0 19.333 0.666992 34 2s29.667 5 45 11c22.667 8 43.334 22 62.001 42s28 50.333 28 91
c0 54 -17.667 92.667 -53 116s-76.666 35 -123.999 35h-126v-297v0zM198 374.999h113c60.667 0 102 15.333 124 46s33 64.667 33 102c0 42 -10 72.667 -30 92s-42 32 -66 38c-14 4 -27.5 6.33301 -40.5 7s-24.167 1 -33.5 1h-100v-286v0z" />
    <glyph glyph-name="C" unicode="C" horiz-adv-x="686" 
d="M620 530l-34.0029 -0.00195312c-14 34.667 -32.667 62 -56 82s-48 34.333 -74 43c-13.333 5.33301 -26.666 9 -39.999 11s-26 3 -38 3c-64.667 0 -120.667 -28.667 -168 -86s-71 -136.666 -71 -237.999c0 -92.667 22.333 -168.167 67 -226.5s108.334 -87.5 191.001 -87.5
c10.667 0 21.667 0.833008 33 2.5s22.333 3.83398 33 6.50098c30 8 59.333 20.5 88 37.5s53.667 37.833 75 62.5l21 -23l-1.5 -1.5l-1.5 -1.5c-27.333 -30.667 -63.166 -58.5 -107.499 -83.5s-97.166 -37.5 -158.499 -37.5c-106 0 -189 33.667 -249 101s-90 151.333 -90 252
c0 114 33.333 202.833 100 266.5s143.667 95.5 231 95.5c26 0 50.333 -2.16699 73 -6.5s45 -9.5 67 -15.5c21.333 -6 36.833 -9.83301 46.5 -11.5s17.834 -2.5 24.501 -2.5c1.33301 0 2.66602 0.166992 3.99902 0.5s2.66602 0.833008 3.99902 1.5
c2.66699 0.666992 5.5 2 8.5 4s5.5 4 7.5 6h15v-154v0z" />
    <glyph glyph-name="D" unicode="D" horiz-adv-x="765" 
d="M52 700l292.999 -0.000976562c18.667 0 38.5 -1.33301 59.5 -4s42.167 -6.66699 63.5 -12c64.667 -17.333 123.834 -52.166 177.501 -104.499s80.5 -130.833 80.5 -235.5c0 -93.333 -20.833 -163.833 -62.5 -211.5s-87.5 -81.167 -137.5 -100.5
c-36.667 -14 -71.5 -22.833 -104.5 -26.5s-58.167 -5.5 -75.5 -5.5h-294v34c23.333 2 39.166 10 47.499 24s12.5 33 12.5 57v470c0 24 -4.16699 43 -12.5 57s-24.166 22 -47.499 24v34v0zM197.999 38.999l126 0.000976562c16 0 36 1.5 60 4.5s49 9.5 75 19.5
c42 16 80.333 45.5 115 88.5s52 108.167 52 195.5c0 83.333 -16 146.5 -48 189.5s-67.333 73.5 -106 91.5c-32 15.333 -62.167 24.666 -90.5 27.999s-47.5 5 -57.5 5h-126v-622v0z" />
    <glyph glyph-name="E" unicode="E" horiz-adv-x="655" 
d="M52 700l394 0.000976562h22c10.667 0 22 0.666992 34 2c4.66699 0 9.16699 0.333008 13.5 1l12.5 2c1.33301 0 2.83301 0.166992 4.5 0.5s3.16699 0.5 4.5 0.5l14.5 2c5 0.666992 11.5 0.666992 19.5 0v-133h-34c-9.33301 36 -27.333 59.333 -54 70s-60.667 16 -102 16
h-183v-287h125h12c4 0 8 0.333008 12 1c12.667 1.33301 24.5 5.5 35.5 12.5s18.5 21.167 22.5 42.5h33v-151h-33c-8 28 -17.667 44.333 -29 49s-29 7 -53 7h-125v-296h205c46.667 0 89.5 6.66699 128.5 20s60.167 43.666 63.5 90.999h34l-11 -150h-566v34
c21.333 2 36.666 10 45.999 24s14 33 14 57v470c0 25.333 -4.16699 45 -12.5 59s-24.166 21.333 -47.499 22v34v0z" />
    <glyph glyph-name="F" unicode="F" horiz-adv-x="603" 
d="M58 700l413 0.00292969c10.667 0 20.667 0.166992 30 0.5s17.333 0.833008 24 1.5c4.66699 0.666992 8.66699 1.16699 12 1.5s6 0.5 8 0.5c1.33301 0 2.66602 0.166992 3.99902 0.5s2.66602 0.5 3.99902 0.5c6.66699 0.666992 13.5 1.16699 20.5 1.5
s14.5 0.833008 22.5 1.5v-133h-34c-9.33301 35.333 -27.333 58.5 -54 69.5s-60.667 16.5 -102 16.5h-202v-272h145h0.5h0.5c4.66699 0 9.83398 0.166992 15.501 0.5s11.5 1.16602 17.5 2.49902c10.667 2 20.5 6.83301 29.5 14.5s15.167 20.5 18.5 38.5h34v-151h-34
c-4.66699 26.667 -13.667 42.667 -27 48s-29.666 8 -48.999 8h-151v-235c0 -24.667 4.33301 -43.667 13 -57s24 -21.333 46 -24v-34h-205v34c23.333 2 39.166 10.667 47.499 26s12.5 33.666 12.5 54.999v470c0 4.66699 -0.166992 9.66699 -0.5 15
s-1.16602 10.666 -2.49902 15.999c-2.66699 12 -8.16699 23 -16.5 33s-21.833 15.667 -40.5 17v34v0z" />
    <glyph glyph-name="G" unicode="G" horiz-adv-x="719" 
d="M635 681l0.00390625 -154.003h-34c-14 36.667 -33 64.834 -57 84.501s-48.667 33.834 -74 42.501c-16 6 -31.833 10 -47.5 12s-30.167 3 -43.5 3c-10 0 -20.5 -0.666992 -31.5 -2s-21.833 -3.66602 -32.5 -6.99902c-44 -13.333 -84.333 -42.833 -121 -88.5
s-55 -114.834 -55 -207.501c0 -18.667 1.16699 -39.834 3.5 -63.501s7.16602 -48.167 14.499 -73.5c13.333 -48.667 39.5 -93.5 78.5 -134.5s99.167 -61.5 180.5 -61.5c45.333 0 86.333 11.833 123 35.5s55 58.834 55 105.501c0 24.667 -3.83301 42.834 -11.5 54.501
s-15.834 19.5 -24.501 23.5c-4 2 -8 3.33301 -12 4s-7.66699 1 -11 1v34h145v-243c-42.667 -14.667 -79.334 -26 -110.001 -34s-60.334 -13 -89.001 -15c-10.667 -1.33301 -21.667 -2.33301 -33 -3s-23 -1 -35 -1c-54.667 0 -100.167 5.33301 -136.5 16
s-65.833 22.334 -88.5 35.001c-12.667 8 -23.334 15.5 -32.001 22.5s-15.334 13.167 -20.001 18.5c-34.667 35.333 -59.5 76.5 -74.5 123.5s-22.5 99.5 -22.5 157.5c0 33.333 4.16699 63.666 12.5 90.999s17.5 51 27.5 71c8.66699 16.667 16.834 30.167 24.501 40.5
l14.5 19.5c31.333 38.667 69.333 68 114 88s90.334 30.667 137.001 32h5h4c34.667 0 61.667 -2.16699 81 -6.5s35.666 -8.83301 48.999 -13.5c4 -2 7.66699 -3.66699 11 -5l10 -4c6 -2 11.833 -3.83301 17.5 -5.5s12.167 -3.16699 19.5 -4.5
c1.33301 -0.666992 2.83301 -1 4.5 -1h5.5h2c0.666992 0 1.33398 0.333008 2.00098 1h2h2c4.66699 1.33301 8.5 2.83301 11.5 4.5s5.5 4.16699 7.5 7.5h32v0z" />
    <glyph glyph-name="H" unicode="H" horiz-adv-x="798" 
d="M256 700l-0.000976562 -33.9971c-23.333 -2 -39 -10.333 -47 -25s-12 -33.334 -12 -56.001v-209h403v209c0 23.333 -4 42 -12 56s-23.667 22.333 -47 25v34h205v-34c-18 -1.33301 -31.167 -6.83301 -39.5 -16.5s-13.833 -19.834 -16.5 -30.501
c-2 -6 -3.16699 -12 -3.5 -18s-0.5 -11.333 -0.5 -16v-470c0 -22.667 4.33301 -41.334 13 -56.001s24.334 -23 47.001 -25v-34h-205v34c23.333 3.33301 39 11.833 47 25.5s12 32.167 12 55.5v222h-403v-222c0 -24 4.16699 -43 12.5 -57s23.833 -22 46.5 -24v-34h-204v34
c22.667 2 38.167 10 46.5 24s12.5 33 12.5 57v470c0 24 -4.16699 43 -12.5 57s-23.833 22 -46.5 24v34h204v0z" />
    <glyph glyph-name="I" unicode="I" horiz-adv-x="308" 
d="M256 700v-34.001c-23.333 -1.33301 -39 -10.166 -47 -26.499s-12 -34.5 -12 -54.5v-470c0 -22 4.16699 -40.333 12.5 -55s23.833 -23.334 46.5 -26.001v-34h-204v34c23.333 2.66699 39 11.334 47 26.001s12 33 12 55v470c0 24 -4.5 43 -13.5 57s-24.167 22 -45.5 24v34
h204v0z" />
    <glyph glyph-name="J" unicode="J" horiz-adv-x="350" 
d="M93 700l204.999 0.00195312v-34c-18 -2 -31 -7.66699 -39 -17s-13.333 -19.333 -16 -30c-2 -6.66699 -3.16699 -12.834 -3.5 -18.501s-0.5 -10.834 -0.5 -15.501v-490c-0.666992 -70 -13 -123.5 -37 -160.5s-50.333 -62.167 -79 -75.5
c-10.667 -5.33301 -21.334 -9.16602 -32.001 -11.499s-20.667 -3.5 -30 -3.5c-23.333 0 -41.666 4.83301 -54.999 14.5s-22.333 20.167 -27 31.5c-1.33301 3.33301 -2.33301 6.5 -3 9.5s-1 6.16699 -1 9.5c0 12 3.66699 23 11 33s17.333 15 30 15h1.5h1.5
c9.33301 -0.666992 18 -3.83398 26 -9.50098s12 -14.5 12 -26.5c0 -3.33301 -0.166992 -5.83301 -0.5 -7.5s-0.5 -2.83398 -0.5 -3.50098v-1.5v-0.5c-0.666992 -0.666992 -1 -1.5 -1 -2.5v-2.5c0 -1.33301 0.166992 -2.66602 0.5 -3.99902s0.833008 -2.66602 1.5 -3.99902
c2 -2.66699 4.83301 -5.16699 8.5 -7.5s9.16699 -3.5 16.5 -3.5c24 0 40.833 12.5 50.5 37.5s15.834 52.167 18.501 81.5c0.666992 9.33301 1.16699 18.5 1.5 27.5s0.5 17.833 0.5 26.5v528c0 4.66699 -0.166992 10 -0.5 16s-1.5 12.333 -3.5 19
c-2.66699 10.667 -8.16699 20.667 -16.5 30s-21.5 14.666 -39.5 15.999v34v0z" />
    <glyph glyph-name="K" unicode="K" horiz-adv-x="742" 
d="M52 700l205.998 0.00292969v-34c-23.333 -2 -39 -10.5 -47 -25.5s-12 -33.5 -12 -55.5v-214h6l271 221l1.5 1.5c0.333008 0.333008 0.833008 0.5 1.5 0.5c5.33301 4.66699 10.5 10 15.5 16s8.83301 12 11.5 18c0.666992 2 1.33398 4.16699 2.00098 6.5s1 4.5 1 6.5
c0 9.33301 -3.5 15.833 -10.5 19.5s-14.5 5.5 -22.5 5.5h-2.5h-2.5v34h210v-34c-25.333 -6 -47.166 -13.833 -65.499 -23.5s-34.5 -19.834 -48.5 -30.501l-15 -11.5l-14 -11.5l-207 -169l294 -313l19 -19c6 -6 12.333 -11.667 19 -17c12 -10 24.5 -18.167 37.5 -24.5
s26.833 -10.5 41.5 -12.5v-34h-257v34c17.333 -0.666992 29 2 35 8s9 13.333 9 22c0 6 -1.33301 11.667 -4 17s-6 10.666 -10 15.999l-4.5 4.5c-1.66699 1.66699 -3.16699 3.5 -4.5 5.5l-242 258l-65 -53v-197c0 -22.667 4.33301 -41.167 13 -55.5s24 -22.833 46 -25.5v-34
h-206v34c23.333 2.66699 39.166 11.167 47.499 25.5s12.5 32.833 12.5 55.5v470c0 21.333 -4.16699 39.666 -12.5 54.999s-24.166 24 -47.499 26v34v0z" />
    <glyph glyph-name="L" unicode="L" horiz-adv-x="616" 
d="M256 700v-34.001c-22.667 -2 -38.167 -10.167 -46.5 -24.5s-12.5 -33.166 -12.5 -56.499v-546h214c40 0 72.5 12.333 97.5 37s40.833 54.334 47.5 89.001h34v-165h-538v34c21.333 2 36.5 10 45.5 24s13.5 33 13.5 57v470c0 23.333 -4.16699 42.166 -12.5 56.499
s-23.833 22.5 -46.5 24.5v34h204v0z" />
    <glyph glyph-name="M" unicode="M" horiz-adv-x="926" 
d="M233 700l224 -568.997h4l234 569h179v-34c-22 -2.66699 -37.333 -10.834 -46 -24.501s-13 -32.5 -13 -56.5v-470c0 -28 5.33301 -47.833 16 -59.5s22.667 -18.5 36 -20.5c0.666992 0 1.66699 -0.166992 3 -0.5s2.66602 -0.5 3.99902 -0.5v-34h-204v34
c2.66699 0 5.66699 0.333008 9 1s6.33301 1.66699 9 3c10.667 4 20.167 11.667 28.5 23s12.5 29.333 12.5 54v547h-3l-277 -670h-33l-263 669h-3v-548c0 -24.667 4.33301 -42.5 13 -53.5s18.334 -18.5 29.001 -22.5c3.33301 -0.666992 6.5 -1.33398 9.5 -2.00098
s5.83301 -1 8.5 -1v-34h-158v34c21.333 2.66699 36 9.66699 44 21s12.667 24 14 38c0.666992 3.33301 1 6.66602 1 9.99902v10v493c0 19.333 -5.5 34 -16.5 44s-25.167 15.333 -42.5 16v34h181v0z" />
    <glyph glyph-name="N" unicode="N" horiz-adv-x="772" 
d="M52 0v33.999h2h2h1h2c17.333 0 30.5 7.5 39.5 22.5s13.5 31.833 13.5 50.5v475c0 22 -4.66699 41.333 -14 58s-24.666 25.334 -45.999 26.001v34h143l424 -537h3v424c0 4 -0.166992 8.5 -0.5 13.5s-0.833008 9.83301 -1.5 14.5c-2 11.333 -7 22 -15 32s-22 16.333 -42 19
v34h157v-34c-26.667 -6 -43.167 -15.667 -49.5 -29s-9.5 -30 -9.5 -50v-587h-30l-476 604h-4v-497c0 -4 0.333008 -8.83301 1 -14.5s2 -11.5 4 -17.5c4 -10 10.167 -19.333 18.5 -28s20.166 -13 35.499 -13v-34h-158v0z" />
    <glyph glyph-name="O" unicode="O" horiz-adv-x="788" 
d="M394 708c105.333 0 190.833 -35.833 256.5 -107.5s98.5 -155.167 98.5 -250.5c0 -94.667 -32.833 -177.834 -98.5 -249.501s-151.167 -107.5 -256.5 -107.5s-190.833 35.833 -256.5 107.5s-98.5 154.834 -98.5 249.501c0 95.333 32.833 178.833 98.5 250.5
s151.167 107.5 256.5 107.5v0zM394 669h-9.5c-3 0 -6.16699 -0.333008 -9.5 -1c-58.667 -4.66699 -112.667 -32.667 -162 -84s-74 -129.333 -74 -234s24.667 -182.667 74 -234s103.333 -79.333 162 -84c3.33301 -0.666992 6.5 -1 9.5 -1h9.5h9.5c3 0 6.16699 0.333008 9.5 1
c58.667 4.66699 112.667 32.667 162 84s74 129.333 74 234s-24.667 182.667 -74 234s-103.333 79.333 -162 84c-3.33301 0.666992 -6.5 1 -9.5 1h-9.5v0z" />
    <glyph glyph-name="P" unicode="P" horiz-adv-x="654" 
d="M52 0l-0.000976562 34.0029c23.333 1.33301 39.166 9.66602 47.499 24.999s12.5 36.333 12.5 63v353c0 67.333 14.5 117.166 43.5 149.499s61.167 54.5 96.5 66.5c22 7.33301 43.5 12 64.5 14s38.167 3 51.5 3c11.333 0 23.333 -0.833008 36 -2.5
s25.334 -4.5 38.001 -8.5c43.333 -12.667 83 -37.834 119 -75.501s54 -91.167 54 -160.5c0 -66 -23.333 -123.333 -70 -172s-111.667 -73 -195 -73c-12 0 -27.5 1.33301 -46.5 4s-38.167 8.66699 -57.5 18c-8 3.33301 -15.667 7.33301 -23 12s-14.666 10 -21.999 16h-3v-141
c0 -26 3.5 -47.667 10.5 -65s24.5 -26 52.5 -26v-34h-209v0zM197.999 534.003l-0.000976562 -201.998c9.33301 -14 19.5 -25.667 30.5 -35s21.833 -17 32.5 -23c16 -8 31.5 -13.167 46.5 -15.5s28.5 -3.5 40.5 -3.5c56.667 0 96.167 13.333 118.5 40
s36.5 56.334 42.5 89.001c2.66699 13.333 4.33398 26.666 5.00098 39.999s1 25.666 1 36.999s-0.333008 25 -1 41s-3 32.667 -7 50c-7.33301 29.333 -22.333 56.166 -45 80.499s-60 36.5 -112 36.5c-40.667 0 -76.167 -12 -106.5 -36s-45.5 -57 -45.5 -99v0z" />
    <glyph glyph-name="Q" unicode="Q" horiz-adv-x="788" 
d="M707 -37c-8.66699 -38 -20.999 -71.0039 -36.999 -99.0039s-42 -42 -78 -42c-42.667 0 -76 18 -100 54s-42.667 76 -56 120c-8.66699 -1.33301 -17.167 -2.16602 -25.5 -2.49902s-16.5 -0.5 -24.5 -0.5c-47.333 0 -88.833 7.66699 -124.5 23s-66.167 33 -91.5 53
c-36.667 30 -67.667 68.833 -93 116.5s-38 102.5 -38 164.5c0 95.333 32.833 178.833 98.5 250.5s151.167 107.5 256.5 107.5s190.833 -35.833 256.5 -107.5s98.5 -155.167 98.5 -250.5c0 -9.33301 -0.333008 -18.666 -1 -27.999s-2 -18.666 -4 -27.999
c-9.33301 -59.333 -33 -115.5 -71 -168.5s-89.333 -90.5 -154 -112.5l9 -19.5c3.33301 -7 7.33301 -14.5 12 -22.5c9.33301 -16.667 20.333 -32 33 -46s26.667 -21 42 -21c4 0 8.66699 0.833008 14 2.5s10.666 5.16699 15.999 10.5c5.33301 4.66699 10.5 11.334 15.5 20.001
s9.5 19.667 13.5 33l33 -7v0zM422.001 30.9961c-8.66699 23.333 -20.002 41.5 -34.002 54.5s-31.667 19.5 -53 19.5c-2 0 -4.16699 -0.166992 -6.5 -0.5s-4.5 -0.5 -6.5 -0.5c-12 -2.66699 -23.167 -7.5 -33.5 -14.5s-17.5 -15.167 -21.5 -24.5
c0.666992 -0.666992 1.33398 -1.16699 2.00098 -1.5s1.33398 -0.5 2.00098 -0.5c15.333 -8.66699 34.833 -16.5 58.5 -23.5s54.5 -9.83301 92.5 -8.5v0zM238.999 86.9961c10 14.667 21.6631 26.666 34.9961 35.999s27.333 16.333 42 21c7.33301 2.66699 14.833 4.5 22.5 5.5
s15.167 1.5 22.5 1.5c10 0 20.667 -1.16699 32 -3.5s23 -6.83301 35 -13.5c12 -7.33301 24.167 -17.5 36.5 -30.5s23.5 -29.833 33.5 -50.5c36 16.667 64.167 39 84.5 67s35.5 57 45.5 87c8.66699 26.667 14.334 52.5 17.001 77.5s4 46.167 4 63.5
c0 46.667 -4.66699 86.334 -14 119.001s-20.333 59.334 -33 80.001c-20.667 35.333 -49.167 64.5 -85.5 87.5s-77.166 34.5 -122.499 34.5s-86.166 -11.5 -122.499 -34.5s-64.833 -52.167 -85.5 -87.5c-12.667 -20.667 -23.667 -47.334 -33 -80.001
s-14 -72.334 -14 -119.001c0 -60.667 7.66699 -109.5 23 -146.5s32 -66.167 50 -87.5c4.66699 -5.33301 9.33398 -10.166 14.001 -14.499l13 -12.5v0z" />
    <glyph glyph-name="R" unicode="R" horiz-adv-x="690" 
d="M52 700l263.998 0.000976562c78.667 0 143.834 -12.5 195.501 -37.5s77.5 -71.5 77.5 -139.5c0 -49.333 -12.5 -87.833 -37.5 -115.5s-52.833 -47.167 -83.5 -58.5l-11.5 -4c-3.66699 -1.33301 -7.5 -2.33301 -11.5 -3l144 -238l6.5 -11c2.33301 -4 4.83301 -8 7.5 -12
c8 -11.333 17.667 -21.833 29 -31.5s26.333 -14.834 45 -15.501v-34h-127l-198 327h-155v-212c0 -22.667 4.16699 -41.167 12.5 -55.5s23.833 -22.833 46.5 -25.5v-34h-204v34c24.667 3.33301 40.667 12.166 48 26.499s11 32.5 11 54.5v470v9
c0 2.66699 -0.333008 5.33398 -1 8.00098c0 4.66699 -0.5 9.16699 -1.5 13.5s-2.16699 8.83301 -3.5 13.5c-0.666992 2 -1.5 3.83301 -2.5 5.5s-1.83301 3.5 -2.5 5.5c-4 6 -9.66699 11.5 -17 16.5s-17.666 8.16699 -30.999 9.5v34v0zM196.998 366.001l103.001 0.000976562
c9.33301 0 22 0.5 38 1.5s32.667 3.83301 50 8.5c25.333 8 48.5 22.333 69.5 43s31.5 53 31.5 97c0 47.333 -11.333 81 -34 101s-48 32.667 -76 38c-14 3.33301 -27.833 5.16602 -41.5 5.49902s-25.834 0.5 -36.501 0.5h-0.5h-0.5h-103v-295v0z" />
    <glyph glyph-name="S" unicode="S" horiz-adv-x="541" 
d="M471 675l0.00292969 -157.999h-39c-10 26.667 -21 49 -33 67s-24 32.667 -36 44c-21.333 19.333 -41.666 31 -60.999 35s-33.333 6 -42 6c-40.667 0 -71.834 -11.333 -93.501 -34s-32.5 -49 -32.5 -79c0 -32 10.333 -57 31 -75s43.667 -31.667 69 -41
c10.667 -4 21.167 -7.5 31.5 -10.5l28.5 -8.5c12 -3.33301 25.667 -7.5 41 -12.5s31 -11.167 47 -18.5c32 -15.333 61.167 -37.333 87.5 -66s39.5 -68.334 39.5 -119.001v-6.5v-7.5c-4 -49.333 -25 -94.666 -63 -135.999s-87 -62 -147 -62c-12 0 -28.667 1.16699 -50 3.5
s-45.333 7.83301 -72 16.5c-4.66699 1.33301 -9.33398 2.83301 -14.001 4.5s-9 2.83398 -13 3.50098c-4.66699 1.33301 -9.33398 2.33301 -14.001 3s-9.33398 1 -14.001 1h-4h-3c-7.33301 -1.33301 -14.333 -3.83301 -21 -7.5s-11.667 -9.5 -15 -17.5h-33v216h34
c15.333 -52 43.833 -95.333 85.5 -130s86.167 -53 133.5 -55h4h4c38 0 68.833 13.333 92.5 40s36.5 56.334 38.5 89.001v4v4c0 36 -11 64.667 -33 86s-46.333 37.666 -73 48.999c-12 5.33301 -23.833 9.83301 -35.5 13.5s-22.167 6.83398 -31.5 9.50098
c-10.667 2.66699 -22.334 6 -35.001 10s-25.667 9 -39 15c-31.333 14 -60 34.5 -86 61.5s-39 65.5 -39 115.5c0 47.333 17.833 89.166 53.5 125.499s85.5 54.5 149.5 54.5c5.33301 0 10.666 -0.166992 15.999 -0.5s10.333 -0.833008 15 -1.5
c14.667 -2 29.334 -5.66699 44.001 -11s30.667 -13 48 -23c1.33301 -0.666992 2.5 -1.33398 3.5 -2.00098s2.16699 -1.33398 3.5 -2.00098c3.33301 -2 7 -3.66699 11 -5s8 -2 12 -2s7.33301 0.666992 10 2s5 3 7 5c1.33301 0.666992 2.33301 1.5 3 2.5
s1.33398 1.83301 2.00098 2.5l1.5 1.5l0.5 0.5h25v0z" />
    <glyph glyph-name="T" unicode="T" horiz-adv-x="680" 
d="M13 573l0.000976562 135.001l242 -9h200l212 9v-135h-34c0 4 -0.333008 7.83301 -1 11.5s-1.66699 7.5 -3 11.5c-4.66699 16 -15.167 30.833 -31.5 44.5s-40.833 20.5 -73.5 20.5h-141v-546c0 -24 4.16699 -42.833 12.5 -56.5s23.833 -21.834 46.5 -24.501v-34h-205v34
c23.333 2.66699 39.166 10.667 47.499 24s12.5 32.333 12.5 57v546h-142c-38.667 0 -65.167 -9.16699 -79.5 -27.5s-23.833 -38.5 -28.5 -60.5h-34v0z" />
    <glyph glyph-name="U" unicode="U" horiz-adv-x="799" 
d="M52 700l201.999 -0.000976562v-34c-22.667 -2.66699 -38 -11 -46 -25s-12 -32.667 -12 -56v-274c0 -14 0.833008 -31.333 2.5 -52s5.83398 -42 12.501 -64c10.667 -36.667 31.834 -70.167 63.501 -100.5s81.167 -45.5 148.5 -45.5c83.333 0 140 22 170 66s48 92 54 144
c1.33301 12.667 2.16602 25.334 2.49902 38.001s0.5 25 0.5 37v259c0 21.333 -4.16699 38.5 -12.5 51.5s-23.5 20.167 -45.5 21.5v34h155v-34c-17.333 -1.33301 -30 -5.83301 -38 -13.5s-13.333 -16.167 -16 -25.5c-2 -6.66699 -3.16699 -13 -3.5 -19s-0.5 -10.667 -0.5 -14
v-0.5v-0.5v-306c0 -13.333 -0.5 -27.166 -1.5 -41.499s-3.16699 -28.833 -6.5 -43.5c-10 -52 -34.833 -99.833 -74.5 -143.5s-106.5 -65.5 -200.5 -65.5c-102.667 0 -177.667 26 -225 78s-71 133.333 -71 244v270c0 23.333 -3.66699 42.166 -11 56.499s-23 22.5 -47 24.5v34
v0z" />
    <glyph glyph-name="V" unicode="V" horiz-adv-x="754" 
d="M0 700h215.998v-34c-2.66699 0 -6.16699 -0.166992 -10.5 -0.5s-8.83301 -1.16602 -13.5 -2.49902c-6.66699 -2.66699 -12.834 -6.5 -18.501 -11.5s-8.5 -12.833 -8.5 -23.5c0 -2.66699 0.666992 -6.33398 2 -11.001s3 -9.33398 5 -14.001
c0 -1.33301 0.333008 -2.66602 1 -3.99902l2 -4c1.33301 -3.33301 2.66602 -6.5 3.99902 -9.5s2.33301 -5.5 3 -7.5l215 -461h6l219 458c0.666992 1.33301 1.66699 3.5 3 6.5s2.66602 6.5 3.99902 10.5c0.666992 2 1.5 4.16699 2.5 6.5s1.83301 4.5 2.5 6.5
c0.666992 3.33301 1.33398 6.5 2.00098 9.5s1 5.83301 1 8.5c0 12.667 -3.66699 22.167 -11 28.5s-15.666 10.5 -24.999 12.5c-3.33301 0.666992 -6.66602 1.16699 -9.99902 1.5s-6.66602 0.5 -9.99902 0.5v34h173v-34c-20.667 -2.66699 -37 -10.667 -49 -24
s-23 -30.333 -33 -51c-1.33301 -2 -2.5 -4.16699 -3.5 -6.5s-2.16699 -4.83301 -3.5 -7.5l-284 -585h-25l-283 617l-6 11.5c-2.66699 5 -6 10.167 -10 15.5c-6 6.66699 -13.667 13 -23 19s-20.666 9.66699 -33.999 11v34v0z" />
    <glyph glyph-name="W" unicode="W" horiz-adv-x="996" 
d="M996 700l0.00292969 -34c-6.66699 0 -17.167 -4.33301 -31.5 -13s-30.5 -33.667 -48.5 -75l-255 -586h-27l-130 319h-3l-135 -319h-31l-248 603c-0.666992 1.33301 -1.33398 2.83301 -2.00098 4.5s-1.33398 3.5 -2.00098 5.5
c-7.33301 15.333 -16.833 29.166 -28.5 41.499s-29.834 18.833 -54.501 19.5v34h222v-34c-2.66699 0 -5.33398 -0.166992 -8.00098 -0.5s-5.33398 -0.833008 -8.00098 -1.5c-8 -2 -15.333 -6 -22 -12s-10 -14.667 -10 -26c0 -5.33301 1.16699 -11.5 3.5 -18.5
s5.83301 -16.5 10.5 -28.5l189 -450h3l101 238l-100 240c-7.33301 18 -16.5 32 -27.5 42s-25.167 15.667 -42.5 17v34h386v-34c-15.333 -2 -29 -8.66699 -41 -20s-23.667 -29 -35 -53c-1.33301 -2.66699 -2.5 -5.16699 -3.5 -7.5s-2.16699 -4.83301 -3.5 -7.5l-64 -152
l128 -299h2l185 438c0.666992 2 1.5 4.33301 2.5 7s2.16699 5.33398 3.5 8.00098c0.666992 2 1.33398 4.16699 2.00098 6.5s1.33398 4.5 2.00098 6.5c2 5.33301 3.5 10.333 4.5 15s1.5 9 1.5 13c0 12 -4 22.5 -12 31.5s-19.667 13.5 -35 13.5h-2h-3v34h167v0zM531.003 486
l50 118.001c3.33301 7.33301 5.66602 13.833 6.99902 19.5s2 10.5 2 14.5c0 9.33301 -2.66699 16 -8 20s-11.333 6.33301 -18 7c-2 0.666992 -4.33301 1 -7 1h-7h-22c-16 0 -30.167 -1.5 -42.5 -4.5s-18.5 -12.167 -18.5 -27.5c0 -6 0.833008 -11.333 2.5 -16
s3.5 -9.33398 5.5 -14.001c1.33301 -1.33301 2.33301 -2.83301 3 -4.5s1.33398 -3.16699 2.00098 -4.5l46 -109h5v0z" />
    <glyph glyph-name="X" unicode="X" horiz-adv-x="790" 
d="M753 700l0.00195312 -34.001c-20.667 -1.33301 -38.167 -5.66602 -52.5 -12.999s-28.166 -17.333 -41.499 -30l-10.5 -11l-11.5 -12l-197 -219l201 -259c3.33301 -4.66699 8.16602 -10.667 14.499 -18s14.166 -15 23.499 -23c12 -10.667 26.333 -20.5 43 -29.5
s35 -14.833 55 -17.5v-34h-243v34c10 -0.666992 18 0.666016 24 3.99902s9 9.33301 9 18c0 3.33301 -1 8.33301 -3 15s-7.66699 15.667 -17 27l-170 218l-197 -223c-7.33301 -8.66699 -12 -15.834 -14 -21.501s-3 -10.167 -3 -13.5c0 -6.66699 2.16699 -12.167 6.5 -16.5
s9.16602 -6.83301 14.499 -7.5h2.5h2.5h2.5h2.5h2h2h1h2v-34h-188v34c21.333 1.33301 41.5 7.83301 60.5 19.5s34.833 24.834 47.5 39.501l231 256l-170 218c-12.667 16 -24.667 30.333 -36 43s-22.666 23.334 -33.999 32.001s-22.666 15.167 -33.999 19.5
s-23.333 5.83301 -36 4.5v34h235v-34c-6.66699 0.666992 -12.834 -0.666016 -18.501 -3.99902s-8.5 -7.33301 -8.5 -12c0 -8.66699 1 -16.334 3 -23.001s4.33301 -11.667 7 -15l155 -200l166 191c1.33301 1.33301 2.66602 3 3.99902 5s3 4 5 6
c0.666992 2 1.5 3.83301 2.5 5.5s2.16699 3.16699 3.5 4.5l3.5 9c1 2.66699 1.5 5 1.5 7c0 7.33301 -3 13.5 -9 18.5s-13.667 7.5 -23 7.5v34h184v0z" />
    <glyph glyph-name="Y" unicode="Y" horiz-adv-x="677" 
d="M0 700l229.999 -0.00292969v-34c-10.667 -2 -19.334 -5.16699 -26.001 -9.5s-10 -11.166 -10 -20.499c0 -5.33301 0.833008 -10.166 2.5 -14.499s3.5 -8.16602 5.5 -11.499c0.666992 -0.666992 1.33398 -1.5 2.00098 -2.5s1.33398 -1.83301 2.00098 -2.5l169 -229h6
l142 220c7.33301 10.667 12.666 19.5 15.999 26.5s5 12.833 5 17.5c0 8.66699 -4 15.167 -12 19.5s-16.667 6.5 -26 6.5v34h171v-34c-26 0.666992 -48.167 -7 -66.5 -23s-35.833 -37 -52.5 -63l-166 -260v-205c0 -23.333 4.5 -42 13.5 -56s24.167 -22.333 45.5 -25v-34h-204
v34c23.333 3.33301 39 12.166 47 26.499s12 32.5 12 54.5v210l-189 258c-27.333 37.333 -51.666 60.333 -72.999 69s-36 13.334 -44 14.001v34v0z" />
    <glyph glyph-name="Z" unicode="Z" horiz-adv-x="743" 
d="M89 572l-0.000976562 128h572v-31l-493 -630h370c6.66699 0 13.834 0.166992 21.501 0.5s15.5 1.5 23.5 3.5c16 4 31 12 45 24s23.667 31.667 29 59h34v-126h-639v37l492 624h-290c-34 0 -62.667 -6 -86 -18s-38.333 -35.667 -45 -71h-34v0z" />
    <glyph glyph-name="bracketleft" unicode="[" horiz-adv-x="354" 
d="M284 700v-37h-128v-810h128v-37h-214v884h214v0z" />
    <glyph glyph-name="backslash" unicode="\" horiz-adv-x="546" 
d="M419 -184l-349 884h59l347 -884h-57v0z" />
    <glyph glyph-name="bracketright" unicode="]" horiz-adv-x="355" 
d="M70 700h215v-884h-215v37h129v810h-129v37v0z" />
    <glyph glyph-name="asciicircum" unicode="^" horiz-adv-x="529" 
d="M264 621l-116 -116h-78l194 195l195 -195h-79l-116 116v0z" />
    <glyph glyph-name="underscore" unicode="_" horiz-adv-x="543" 
d="M0 -233v49h543v-49h-543v0z" />
    <glyph glyph-name="grave" unicode="`" horiz-adv-x="314" 
d="M238 489c-8.66699 2.66699 -20.167 8 -34.5 16s-28.833 17.333 -43.5 28c-9.33301 6 -18.5 12.667 -27.5 20s-17.5 14.666 -25.5 21.999c-12 10.667 -21.833 21.334 -29.5 32.001s-11.5 20 -11.5 28c0 5.33301 1 8.33301 3 9s4.66699 1 8 1h87
c0 -0.666992 0.166992 -1.16699 0.5 -1.5s0.5 -0.833008 0.5 -1.5s0.166992 -1.33398 0.5 -2.00098s0.833008 -2 1.5 -4c4.66699 -14 11.5 -31.167 20.5 -51.5s23.167 -41.166 42.5 -62.499c2.66699 -3.33301 5.5 -6.5 8.5 -9.5l9.5 -9.5l-10 -14v0z" />
    <glyph glyph-name="a" unicode="a" horiz-adv-x="399" 
d="M385 39l7.00293 -10.999c-7.33301 -10.667 -16.166 -19.167 -26.499 -25.5s-22.833 -9.5 -37.5 -9.5c-17.333 0 -31.5 5.33301 -42.5 16s-18.5 23.334 -22.5 38.001h-2l-8 -8c-2.66699 -2.66699 -5.33398 -5 -8.00098 -7c-20 -17.333 -39.167 -28.166 -57.5 -32.499
s-33.166 -6.5 -44.499 -6.5c-41.333 0 -71.166 10.833 -89.499 32.5s-27.5 45.834 -27.5 72.501c0 54 23.333 90 70 108s98 29 154 33h1.5h1.5c0 32 -3.66699 60.5 -11 85.5s-28.333 37.5 -63 37.5c-13.333 0 -23.5 -2.83301 -30.5 -8.5s-12.167 -11.834 -15.5 -18.501
c-2 -3.33301 -3.33301 -6.5 -4 -9.5s-1.33398 -5.83301 -2.00098 -8.5c-0.666992 -1.33301 -1.33398 -3.33301 -2.00098 -6s-1.66699 -5.33398 -3 -8.00098c-2.66699 -4 -6.33398 -7.66699 -11.001 -11s-11 -5 -19 -5c-1.33301 0 -2.83301 0.166992 -4.5 0.5
s-3.5 0.5 -5.5 0.5c-5.33301 1.33301 -10.333 4.16602 -15 8.49902s-7 11.166 -7 20.499v2.5v2.5c2.66699 18 15.667 34.333 39 49s53 22 89 22c47.333 0 80.166 -10.667 98.499 -32s30.166 -44.666 35.499 -69.999c2 -12 3.16699 -23.833 3.5 -35.5s0.5 -22.167 0.5 -31.5
v-0.5v-1.5v-126c0 -24.667 4 -41.334 12 -50.001s16.667 -12.667 26 -12h3.5c1 0 2.16699 0.333008 3.5 1c2.66699 0 5.16699 0.5 7.5 1.5s4.5 1.83301 6.5 2.5v0zM253.003 206.001c-53.333 -2.66699 -90.832 -13.668 -112.499 -33.001s-33.834 -40.666 -36.501 -63.999
v-4.5v-4.5c0 -20 6.5 -36 19.5 -48s29.833 -18 50.5 -18c35.333 0 57.333 13.667 66 41s13 59.333 13 96v35v0z" />
    <glyph glyph-name="b" unicode="b" horiz-adv-x="499" 
d="M151 700v-345.001c14.667 10.667 31.5 19.667 50.5 27s43.5 11 73.5 11c61.333 0 108 -19.167 140 -57.5s48 -83.166 48 -134.499c0 -56 -18.167 -104.5 -54.5 -145.5s-86.833 -61.5 -151.5 -61.5c-18 0 -34.333 2.16699 -49 6.5s-27.334 9.5 -38.001 15.5
c-8 4 -14.667 7.83301 -20 11.5s-9.66602 6.5 -12.999 8.5l-46 -43h-13v627c0 13.333 -4 24.833 -12 34.5s-18.667 15.167 -32 16.5v29h117v0zM151 319.999l0.00390625 -171.999c0 -2.66699 0.166992 -5.5 0.5 -8.5s0.833008 -6.5 1.5 -10.5c0 -2 0.166992 -4 0.5 -6
s0.5 -4 0.5 -6c2 -28.667 12.167 -50.834 30.5 -66.501s38.166 -24.167 59.499 -25.5h3h3c49.333 0 83.166 16.667 101.499 50s27.5 75.333 27.5 126c0 6.66699 -0.166992 13.5 -0.5 20.5s-0.833008 14.167 -1.5 21.5c-4 29.333 -14.5 56.333 -31.5 81s-47.167 37 -90.5 37
c-18.667 0 -34.834 -2.5 -48.501 -7.5s-25.167 -10.5 -34.5 -16.5c-4.66699 -3.33301 -8.83398 -6.5 -12.501 -9.5s-6.5 -5.5 -8.5 -7.5v0z" />
    <glyph glyph-name="c" unicode="c" horiz-adv-x="392" 
d="M355 89l16.9951 -18.0029c-2.66699 -2.66699 -5.33398 -5.66699 -8.00098 -9s-5.66699 -6.33301 -9 -9c-16 -15.333 -35.833 -29.166 -59.5 -41.499s-51.5 -18.5 -83.5 -18.5c-53.333 0 -97.666 17.5 -132.999 52.5s-53 81.5 -53 139.5c0 52.667 16.667 100.5 50 143.5
s80.333 64.5 141 64.5c38 0 68.333 -7.33301 91 -22s34 -32 34 -52c0 -9.33301 -3.33301 -17.5 -10 -24.5s-15.667 -10.5 -27 -10.5c-2 0 -4.33301 0.166992 -7 0.5s-5.33398 0.833008 -8.00098 1.5c-6 2 -11.5 5.66699 -16.5 11s-7.83301 14 -8.5 26v0.5v1.5
c0 2 -0.166992 4.33301 -0.5 7s-1.16602 5.33398 -2.49902 8.00098c-1.33301 5.33301 -5.16602 10.333 -11.499 15s-16.833 7 -31.5 7c-4.66699 0 -9.66699 -0.5 -15 -1.5s-10.666 -2.5 -15.999 -4.5c-19.333 -6.66699 -37.166 -23 -53.499 -49s-24.5 -66.667 -24.5 -122
c0 -39.333 6.83301 -69.166 20.5 -89.499s28.5 -34.833 44.5 -43.5c12 -6 23.5 -9.83301 34.5 -11.5s19.167 -2.5 24.5 -2.5c6 0 12 0.333008 18 1s12 2 18 4c16.667 4 32.834 10.167 48.501 18.5s27.834 17.5 36.501 27.5v0z" />
    <glyph glyph-name="d" unicode="d" horiz-adv-x="484" 
d="M414 708l0.000976562 -626.999c0 -15.333 4.16699 -27.5 12.5 -36.5s18.833 -14.167 31.5 -15.5l-1 -29h-116v33h-6c-17.333 -14 -34 -23.833 -50 -29.5s-31.667 -8.83398 -47 -9.50098c-2 -0.666992 -4.33301 -1 -7 -1h-8c-50.667 0 -96.167 15.667 -136.5 47
s-60.5 80.333 -60.5 147c0 64 15.833 111.167 47.5 141.5s66.167 49.833 103.5 58.5c10 2 20 3.5 30 4.5s19.667 1.5 29 1.5c14 0 27 -1.83301 39 -5.5s22.333 -7.83398 31 -12.501c6 -3.33301 11.167 -6.5 15.5 -9.5s7.83301 -5.16699 10.5 -6.5h9v266
c0 12.667 -2.5 22.834 -7.5 30.501s-10.5 13.167 -16.5 16.5c-2.66699 2 -5.33398 3.5 -8.00098 4.5s-5 1.83301 -7 2.5v29h112v0zM341.001 304.001c-6 14 -14 24.999 -24 32.999s-20.667 14 -32 18c-8 2.66699 -15.667 4.5 -23 5.5s-14 1.5 -20 1.5
c-5.33301 0 -14 -0.666992 -26 -2s-24.667 -6 -38 -14c-16.667 -9.33301 -32.167 -25.666 -46.5 -48.999s-21.5 -58.333 -21.5 -105c0 -60 11.667 -103.167 35 -129.5s50.666 -39.5 81.999 -39.5c4.66699 0 9.16699 0.333008 13.5 1l13.5 2c20 4.66699 38.333 13.667 55 27
s27.334 29.333 32.001 48v203v0z" />
    <glyph glyph-name="e" unicode="e" horiz-adv-x="386" 
d="M360 77c-19.333 -24.667 -42.6699 -44.834 -70.0029 -60.501s-55.666 -23.5 -84.999 -23.5c-6.66699 0 -13.667 0.333008 -21 1s-14.333 1.66699 -21 3c-34.667 6.66699 -66.167 23.834 -94.5 51.501s-42.5 71.167 -42.5 130.5c0 70 17.833 123.167 53.5 159.5
s76.5 54.5 122.5 54.5c48.667 0 85.834 -17.333 111.501 -52s37.834 -74 36.501 -118h-239c0 -2 -0.166992 -3.83301 -0.5 -5.5s-0.5 -3.5 -0.5 -5.5c-2 -44.667 3.5 -85.667 16.5 -123s43.5 -56 91.5 -56c23.333 0 46 6.16699 68 18.5s40.667 26.5 56 42.5l18 -17v0z
M270.996 254c0 6 -0.167969 13.167 -0.500977 21.5s-1.83301 17.166 -4.5 26.499c-3.33301 14.667 -10.333 28.334 -21 41.001s-26.667 19 -48 19c-3.33301 0 -6.66602 -0.166992 -9.99902 -0.5s-7 -1.16602 -11 -2.49902c-15.333 -4 -29.5 -13.833 -42.5 -29.5
s-19.833 -40.834 -20.5 -75.501h158v0z" />
    <glyph glyph-name="f" unicode="f" horiz-adv-x="252" 
d="M27 385l47.999 -0.00195312v101c0 60.667 12.833 109.5 38.5 146.5s53.5 58.833 83.5 65.5c3.33301 0.666992 6.66602 1.16699 9.99902 1.5s6.66602 0.5 9.99902 0.5c2 0 4.16699 -0.166992 6.5 -0.5s4.83301 -0.5 7.5 -0.5c10 -2 19.333 -6.33301 28 -13s13 -16 13 -28
v-4c0 -1.33301 -0.333008 -2.66602 -1 -3.99902c-1.33301 -6.66699 -4.33301 -12.667 -9 -18s-12 -8 -22 -8c-7.33301 0 -13.166 1.33301 -17.499 4s-8.16602 5.66699 -11.499 9l-0.5 0.5l-1.5 1.5l-1.5 1.5l-1.5 1.5c-2.66699 2.66699 -5.66699 4.83398 -9 6.50098
s-7.66602 2.5 -12.999 2.5c-11.333 0 -20.166 -5.16699 -26.499 -15.5s-9.5 -26.833 -9.5 -49.5v-201h107v-31h-107v-252c0 -20.667 3.16699 -38 9.5 -52s18.166 -21 35.499 -21h3.5h2.5v-29h-173v29c21.333 3.33301 34.833 10.833 40.5 22.5s8.5 28.5 8.5 50.5v251h-48v32
v0z" />
    <glyph glyph-name="g" unicode="g" horiz-adv-x="435" 
d="M41 -8l-14.998 34.0059l78 128c-16.667 9.33301 -31.167 22.666 -43.5 39.999s-18.5 38.666 -18.5 63.999c0 44.667 15.5 78 46.5 100s64.833 33.667 101.5 35h3.5h2.5c4 0 7.83301 -0.166992 11.5 -0.5s7.5 -0.5 11.5 -0.5c19.333 -2 38.166 -6.66699 56.499 -14
s33.833 -17 46.5 -29c0.666992 2 1.33398 3.83301 2.00098 5.5s1.66699 3.5 3 5.5c4 8 9.66699 15.167 17 21.5s17 9.5 29 9.5c14 0 25.667 -4.16699 35 -12.5s14 -19.833 14 -34.5c0 -12 -3.16699 -20.667 -9.5 -26s-13.5 -8 -21.5 -8
c-6.66699 0 -12.334 2.16699 -17.001 6.5s-7 9.83301 -7 16.5c0 2 0.166992 3.83301 0.5 5.5s0.833008 3.16699 1.5 4.5c0.666992 0.666992 1.16699 1.33398 1.5 2.00098s0.5 1.33398 0.5 2.00098c1.33301 1.33301 2.33301 2.83301 3 4.5s1 3.16699 1 4.5
c0 2 -0.5 3.83301 -1.5 5.5s-3.5 2.5 -7.5 2.5c-5.33301 0 -10 -2.33301 -14 -7s-6.66699 -9.66699 -8 -15c-0.666992 -0.666992 -1 -1.16699 -1 -1.5v-1.5c0 -0.666992 -0.166992 -1.33398 -0.5 -2.00098l-0.5 -1v-2v-2v-1.5c0 -0.333008 0.333008 -0.5 1 -0.5v-1.5v-1.5
c0.666992 -3.33301 1.5 -6.33301 2.5 -9s1.83301 -5.33398 2.5 -8.00098l0.5 -1c0.333008 -0.666992 0.5 -1.33398 0.5 -2.00098c2 -4.66699 3.83301 -10.334 5.5 -17.001s2.5 -16.334 2.5 -29.001c0 -42.667 -15.5 -75.334 -46.5 -98.001s-67.167 -34 -108.5 -34
c-12.667 0 -24 1 -34 3s-18.667 4 -26 6c-0.666992 0 -1.66699 0.166992 -3 0.5s-2.33301 0.833008 -3 1.5l-46 -73l3 -4l6 2c2 0.666992 3.66699 1.33398 5 2.00098h1h1c2 0.666992 4.33301 1.66699 7 3s6 2.66602 10 3.99902c2.66699 1.33301 6.33398 2.83301 11.001 4.5
l16 5.5c10 2.66699 21.5 5.33398 34.5 8.00098s26.833 4 41.5 4c9.33301 0 19.166 -0.666992 29.499 -2s21.166 -3.66602 32.499 -6.99902c28 -8 53.833 -22 77.5 -42s35.5 -47.667 35.5 -83c0 -33.333 -15 -62.833 -45 -88.5s-73.333 -38.5 -130 -38.5h-6.5h-6.5
c-37.333 2 -71.666 11 -102.999 27s-47 39 -47 69c0 14.667 4.33301 26 13 34s19 12 31 12s21 -3 27 -9s9.66699 -12.667 11 -20v-2.5v-2.5c0 -3.33301 -0.5 -6.33301 -1.5 -9s-2.16699 -5.33398 -3.5 -8.00098c-0.666992 -1.33301 -1.5 -2.83301 -2.5 -4.5
s-2.16699 -3.16699 -3.5 -4.5c-2 -2.66699 -3.83301 -5.33398 -5.5 -8.00098s-2.5 -5.66699 -2.5 -9v-1.5v-1.5c2 -7.33301 10.167 -14.166 24.5 -20.499s35.166 -9.5 62.499 -9.5c47.333 0 81 7.33301 101 22s31.667 31 35 49c0 2 0.166992 4 0.5 6s0.5 4 0.5 6
c0 32 -14 52.667 -42 62s-59 14 -93 14c-12.667 0 -34.5 -1.83301 -65.5 -5.5s-67.167 -12.834 -108.5 -27.501v-1zM200.002 362.006c-28 0 -47.333 -8.49902 -58 -25.499s-16 -42.167 -16 -75.5c0 -34.667 5 -58.834 15 -72.501s21 -22.167 33 -25.5
c4.66699 -1.33301 9.16699 -2.16602 13.5 -2.49902s8.5 -0.5 12.5 -0.5c19.333 0 36.333 6.16699 51 18.5s22 40.166 22 83.499c0 32 -5.33301 56.667 -16 74s-29.667 26 -57 26v0z" />
    <glyph glyph-name="h" unicode="h" horiz-adv-x="450" 
d="M27 700l117.001 0.00195312v-358h7c17.333 15.333 36.666 27.666 57.999 36.999s43.333 14 66 14c41.333 0 69 -11.833 83 -35.5s21.333 -53.834 22 -90.501v-167v-7.5v-7.5c0.666992 -12.667 3.66699 -24.667 9 -36s17 -18 35 -20v-29h-161v29
c18.667 2.66699 30.5 9.33398 35.5 20.001s7.83301 22 8.5 34v6.5v6.5v2v2v170c0 25.333 -4.16699 45.166 -12.5 59.499s-24.166 21.5 -47.499 21.5c-22 0 -42.333 -7.33301 -61 -22s-32.667 -31.334 -42 -50.001v-178c0 -20.667 2.83301 -37.5 8.5 -50.5
s17.834 -20.167 36.501 -21.5v-29h-163v29c19.333 2.66699 31.666 10 36.999 22s8 28.667 8 50v518c0 14.667 -3.33301 25.834 -10 33.501s-14.334 13.167 -23.001 16.5c-1.33301 0 -3 0.333008 -5 1s-4 1 -6 1v29v0z" />
    <glyph glyph-name="i" unicode="i" horiz-adv-x="214" 
d="M26 385h116.999v-284c0 -20.667 2.83301 -37.5 8.5 -50.5s17.834 -20.167 36.501 -21.5v-29h-162v29c19.333 2.66699 31.5 10.5 36.5 23.5s7.5 29.167 7.5 48.5v182c0 22 -2.5 38.5 -7.5 49.5s-17.167 18.833 -36.5 23.5v29v0zM46.999 565c0 12 4.66699 22.998 14 32.998
s21 15 35 15c12 0 23 -4.16699 33 -12.5s15 -20.166 15 -35.499c0 -14.667 -5 -26.5 -15 -35.5s-21 -13.5 -33 -13.5c-12.667 0 -23.5 4.33301 -32.5 13s-14.167 18.334 -15.5 29.001c-0.666992 1.33301 -1 2.5 -1 3.5v3.5v0z" />
    <glyph glyph-name="j" unicode="j" horiz-adv-x="210" 
d="M11 385l144.004 -0.00390625v-361v-2.5v-3.5c-1.33301 -24 -3.33301 -47.833 -6 -71.5s-10.334 -46.5 -23.001 -68.5c-6.66699 -11.333 -14 -20.666 -22 -27.999s-16 -13.333 -24 -18c-11.333 -6 -22.333 -10 -33 -12s-19.334 -3 -26.001 -3
c-16.667 0 -29.667 3.66699 -39 11s-15.333 15.333 -18 24c-0.666992 1.33301 -1.16699 2.83301 -1.5 4.5s-0.5 3.5 -0.5 5.5c0 10 2.66699 17.333 8 22s11.333 7.33398 18 8.00098c1.33301 0.666992 2.66602 1 3.99902 1h4c5.33301 0 10.166 -1.16699 14.499 -3.5
s7.83301 -5.16602 10.5 -8.49902l3.5 -3.5l3.5 -3.5c0.666992 -0.666992 1.33398 -1.5 2.00098 -2.5s1.66699 -2.16699 3 -3.5c2 -2.66699 5 -5 9 -7s9.33301 -3 16 -3s11.667 1.66699 15 5s5.66602 7 6.99902 11c0.666992 2.66699 1.16699 5.33398 1.5 8.00098
s0.5 4.66699 0.5 6v395c0 28 -5.33301 47.667 -16 59s-29 16 -55 14v29v0zM58.0039 583.996l-0.000976562 3.49902c0 1 0.333008 2.16699 1 3.5c1.33301 10.667 6.5 20.334 15.5 29.001s19.833 13 32.5 13c12 0 23 -4.66699 33 -14s15 -21 15 -35
c0 -12 -4.16699 -23 -12.5 -33s-20.166 -15 -35.499 -15c-14.667 0 -26.5 5 -35.5 15s-13.5 21 -13.5 33v0z" />
    <glyph glyph-name="k" unicode="k" horiz-adv-x="423" 
d="M143 700l-0.000976562 -471.999l97 83c8.66699 7.33301 14.667 13.166 18 17.499s5 7.83301 5 10.5v1.5v0.5c-1.33301 4 -4.33301 7.5 -9 10.5s-11 4.5 -19 4.5v29h155v-29c-17.333 -1.33301 -32.666 -5.5 -45.999 -12.5s-26.333 -15.5 -39 -25.5
c-3.33301 -2 -6.33301 -4.16699 -9 -6.5l-9 -7.5l-57 -49l133 -171l21.5 -26c6.33301 -7.33301 12.5 -13.333 18.5 -18c4 -3.33301 8.16699 -6 12.5 -8s9.16602 -3 14.499 -3v-29h-181v29h4h3c8.66699 0 15.834 1.66699 21.501 5s8.5 8.33301 8.5 15c0 4 -1 8 -3 12
s-4.66699 7.66699 -8 11l-102 131l-30 -26v-76c0 -19.333 2.5 -35.5 7.5 -48.5s17.167 -20.833 36.5 -23.5v-29h-161v29c19.333 2.66699 31.5 10.5 36.5 23.5s7.5 29.167 7.5 48.5v498c0 19.333 -2.5 35.5 -7.5 48.5s-17.167 20.833 -36.5 23.5v29h117v0z" />
    <glyph glyph-name="l" unicode="l" horiz-adv-x="215" 
d="M27 700h117v-599c0 -20.667 2.83301 -37.5 8.5 -50.5s17.834 -20.167 36.501 -21.5v-29h-163v29c19.333 2.66699 31.666 10 36.999 22s8 28.667 8 50v498c0 21.333 -2 38 -6 50s-16.667 19.333 -38 22v29v0z" />
    <glyph glyph-name="m" unicode="m" horiz-adv-x="689" 
d="M26 29c19.333 2.66699 31.6699 10.001 37.0029 22.001s8 28.667 8 50v203c0 2.66699 -0.166992 5.5 -0.5 8.5s-0.833008 6.16699 -1.5 9.5c-2 6.66699 -6 13.167 -12 19.5s-16 11.166 -30 14.499v29h117v-49h3c7.33301 7.33301 14.666 13.833 21.999 19.5
s14.666 10.5 21.999 14.5c16 9.33301 31.667 15.5 47 18.5s28.666 4.5 39.999 4.5h2h3c18.667 -0.666992 36.334 -5.66699 53.001 -15s28.667 -23.333 36 -42h2c25.333 24 49.333 39.5 72 46.5s43 10.5 61 10.5c36.667 0 62.5 -7.5 77.5 -22.5s24.833 -31.167 29.5 -48.5
c2 -9.33301 3.16699 -18.333 3.5 -27s0.5 -16.334 0.5 -23.001v-0.5v-1.5v-169c0 -20.667 2.83301 -37.5 8.5 -50.5s17.834 -20.167 36.501 -21.5v-29h-163v29c19.333 2.66699 31.666 10 36.999 22s8 28.667 8 50v169c0 24 -4 43.5 -12 58.5s-23.667 22.5 -47 22.5
c-7.33301 0 -17.166 -1.33301 -29.499 -4s-24.833 -8.66699 -37.5 -18c-6.66699 -5.33301 -13.167 -11.5 -19.5 -18.5s-12.5 -15.5 -18.5 -25.5v-184c0.666992 -20.667 3.5 -37.5 8.5 -50.5s17.167 -20.167 36.5 -21.5v-29h-163v29c19.333 2.66699 31.666 10 36.999 22
s8 28.667 8 50v169v9.5c0 3 -0.333008 6.16699 -1 9.5c-0.666992 15.333 -4.83398 29.5 -12.501 42.5s-22.834 19.5 -45.501 19.5c-4 0 -13.667 -1.66699 -29 -5s-31.666 -13.333 -48.999 -30c-4.66699 -4 -9.33398 -8.66699 -14.001 -14s-9 -11.333 -13 -18v-183
c0 -19.333 2.83301 -35.666 8.5 -48.999s17.834 -21 36.501 -23v-29h-163v29v0z" />
    <glyph glyph-name="n" unicode="n" horiz-adv-x="452" 
d="M26 29c19.333 2.66699 31.6689 10.002 37.002 22.002s8 28.667 8 50v203c0 2.66699 -0.166992 5.5 -0.5 8.5s-0.833008 6.16699 -1.5 9.5c-2 6.66699 -6 13.167 -12 19.5s-16 11.166 -30 14.499v29h117v-49h3c7.33301 8 15.166 15 23.499 21s16.833 11 25.5 15
c14.667 8 29.334 13.5 44.001 16.5s27.334 4.5 38.001 4.5c34.667 0 59 -7.5 73 -22.5s23 -31.5 27 -49.5c1.33301 -8.66699 2.16602 -17.334 2.49902 -26.001s0.5 -16.334 0.5 -23.001v-2.5v-2.5v-166c0.666992 -20.667 3.5 -37.5 8.5 -50.5s17.167 -20.167 36.5 -21.5v-29
h-163v29c19.333 2.66699 31.666 10 36.999 22s8 28.667 8 50v169v9.5c0 3 -0.333008 6.16699 -1 9.5c-0.666992 15.333 -4.83398 29.5 -12.501 42.5s-22.834 19.5 -45.501 19.5c-4 0 -13.667 -1.66699 -29 -5s-31.666 -13.333 -48.999 -30
c-4.66699 -4 -9.33398 -8.66699 -14.001 -14s-9 -11.333 -13 -18v-183c0 -19.333 2.83301 -35.666 8.5 -48.999s17.834 -21 36.501 -23v-29h-163v29v0z" />
    <glyph glyph-name="o" unicode="o" horiz-adv-x="432" 
d="M216 393c54.667 0 96.498 -15 125.498 -45s48.167 -63.333 57.5 -100c2.66699 -9.33301 4.5 -18.666 5.5 -27.999s1.5 -18.333 1.5 -27c0 -54 -12.833 -96 -38.5 -126s-54.167 -50.667 -85.5 -62c-11.333 -4 -22.666 -7 -33.999 -9s-22 -3 -32 -3s-20.667 1 -32 3
s-22.666 5 -33.999 9c-31.333 11.333 -59.833 32 -85.5 62s-38.5 72 -38.5 126c0 8.66699 0.5 17.667 1.5 27s2.83301 18.666 5.5 27.999c9.33301 36.667 28.5 70 57.5 100s70.833 45 125.5 45v0zM215.998 362c-34.667 0 -59.3291 -10.334 -73.9961 -31.001
s-24 -43.334 -28 -68.001c-2 -13.333 -3.16699 -26.166 -3.5 -38.499s-0.5 -23.166 -0.5 -32.499c0 -8.66699 0.166992 -18.167 0.5 -28.5s1.16602 -20.5 2.49902 -30.5c3.33301 -27.333 12.166 -52.5 26.499 -75.5s39.833 -34.5 76.5 -34.5s62.167 11.5 76.5 34.5
s23.166 48.167 26.499 75.5c1.33301 10 2.16602 20.167 2.49902 30.5s0.5 19.833 0.5 28.5c0 9.33301 -0.166992 20.333 -0.5 33s-1.83301 25.667 -4.5 39c-4 24.667 -13.333 47.167 -28 67.5s-39 30.5 -73 30.5v0z" />
    <glyph glyph-name="p" unicode="p" horiz-adv-x="455" 
d="M13 -184l0.000976562 29c19.333 2 31.5 10.167 36.5 24.5s7.5 30.5 7.5 48.5v286c0 8 0.833008 20.333 2.5 37s5.83398 34.334 12.501 53.001c10 24.667 27.5 47.334 52.5 68.001s62.833 31 113.5 31c49.333 0 93.5 -16.833 132.5 -50.5s58.5 -83.5 58.5 -149.5
c0 -7.33301 -0.333008 -14.833 -1 -22.5s-2 -15.5 -4 -23.5c-4 -20 -11 -39.833 -21 -59.5s-23 -36.834 -39 -51.501c-12.667 -11.333 -27.834 -20.666 -45.501 -27.999s-36.167 -12 -55.5 -14c-3.33301 0 -6.5 -0.166992 -9.5 -0.5s-6.16699 -0.5 -9.5 -0.5
c-20.667 0 -38.167 2.16699 -52.5 6.5s-25.833 9.16602 -34.5 14.499c-6.66699 4 -11.834 7.66699 -15.501 11s-6.5 6 -8.5 8h-3v-115c0 -22.667 3.5 -40.334 10.5 -53.001s20.5 -19 40.5 -19v-30h-168v0zM130.001 252v-116c0 -6 0.5 -13.5 1.5 -22.5
s3.16699 -18.167 6.5 -27.5c6 -15.333 16.5 -29.666 31.5 -42.999s37.5 -20 67.5 -20c28 0 53 10.5 75 31.5s33 66.833 33 137.5c0 48 -7.33301 88.333 -22 121s-43 49 -85 49c-28 0 -50.167 -7.33301 -66.5 -22s-27.833 -31 -34.5 -49
c-2 -6.66699 -3.66699 -13.334 -5 -20.001s-2 -13 -2 -19v0z" />
    <glyph glyph-name="q" unicode="q" horiz-adv-x="490" 
d="M295 -184l0.00195312 29c20.667 4 34.334 11.833 41.001 23.5s10 28.167 10 49.5v125h-4c-14 -13.333 -31 -25 -51 -35s-43.333 -15 -70 -15c-56 0 -98.5 13.5 -127.5 40.5s-48.167 57.167 -57.5 90.5c-3.33301 10.667 -5.83301 21.334 -7.5 32.001s-2.5 21 -2.5 31
c0 9.33301 0.666992 19.166 2 29.499s3.33301 20.5 6 30.5c10 36.667 30.667 70.167 62 100.5s77.666 45.5 138.999 45.5c13.333 0 30.166 -1.66699 50.499 -5s42.5 -12.666 66.5 -27.999h5l39 33h23v-475c0 -20 2.66699 -36.833 8 -50.5s17.666 -20.834 36.999 -21.501v-30
h-169v0zM346.002 304c-6.66699 10.667 -13.834 19.5 -21.501 26.5s-15.5 12.5 -23.5 16.5c-11.333 6 -22.333 10 -33 12s-19.334 3 -26.001 3c-7.33301 0 -15.333 -0.666992 -24 -2s-17.667 -4 -27 -8c-20 -8 -38.5 -24 -55.5 -48s-25.5 -61.333 -25.5 -112
c0 -60 11.667 -103.167 35 -129.5s50.666 -39.5 81.999 -39.5c4.66699 0 9.33398 0.333008 14.001 1l14 2c18.667 4.66699 36.334 13.5 53.001 26.5s29.334 29.167 38.001 48.5v203v0z" />
    <glyph glyph-name="r" unicode="r" horiz-adv-x="295" 
d="M27 385h117.005v-62h4c11.333 18 24.666 34.167 39.999 48.5s34.666 21.5 57.999 21.5c16.667 0 29 -4.16699 37 -12.5s12 -18.833 12 -31.5v-2.5v-2.5c-1.33301 -8 -4.83301 -15.167 -10.5 -21.5s-13.834 -9.5 -24.501 -9.5c-6.66699 0 -12.167 1 -16.5 3
s-7.83301 4 -10.5 6c-1.33301 1.33301 -2.5 2.66602 -3.5 3.99902s-1.83301 2.33301 -2.5 3c-2.66699 3.33301 -5.33398 6 -8.00098 8s-6.66699 3 -12 3c-2.66699 0 -5.66699 -0.666992 -9 -2s-6.66602 -3 -9.99902 -5c-11.333 -8 -21.5 -22.5 -30.5 -43.5
s-13.5 -47.5 -13.5 -79.5v-109c0 -20 2.66699 -36.667 8 -50s17.666 -20.666 36.999 -21.999v-29h-163v29c19.333 2.66699 31.666 10.167 36.999 22.5s8 28.833 8 49.5v203c0 15.333 -3.5 27 -10.5 35s-18.167 13.667 -33.5 17v29v0z" />
    <glyph glyph-name="s" unicode="s" horiz-adv-x="341" 
d="M172 393c31.333 0 55.6729 -5 73.0059 -15s29.333 -21 36 -33c2.66699 -4.66699 4.66699 -9.33398 6 -14.001s2 -9 2 -13c0 -8.66699 -2.33301 -15.334 -7 -20.001s-9.66699 -7.66699 -15 -9c-1.33301 0 -2.83301 -0.166992 -4.5 -0.5s-3.16699 -0.5 -4.5 -0.5
c-8.66699 0 -15.5 2 -20.5 6s-9.16699 8.66699 -12.5 14c-2 4 -3.5 8 -4.5 12s-1.5 6.33301 -1.5 7c0 1.33301 -0.5 3.66602 -1.5 6.99902s-2.5 6.66602 -4.5 9.99902c-3.33301 4.66699 -8.33301 8.83398 -15 12.501s-16.667 5.5 -30 5.5
c-22.667 0 -40.834 -5.5 -54.501 -16.5s-20.5 -25.5 -20.5 -43.5c0 -21.333 6.83301 -36.166 20.5 -44.499s31.167 -15.5 52.5 -21.5c2 -0.666992 3.83301 -1.16699 5.5 -1.5s3.5 -0.833008 5.5 -1.5l27.5 -7.5c11 -3 22.167 -6.83301 33.5 -11.5
c19.333 -8 37 -19.833 53 -35.5s24 -37.5 24 -65.5c0 -39.333 -15.5 -68.833 -46.5 -88.5s-64.833 -30.167 -101.5 -31.5h-3.5h-2.5c-40.667 0 -72.5 8.33301 -95.5 25s-35.833 35 -38.5 55c-0.666992 1.33301 -1 2.66602 -1 3.99902v4c0 2 0.166992 3.83301 0.5 5.5
s0.5 3.5 0.5 5.5c2 8 6.16699 15.167 12.5 21.5s15.166 9.5 26.499 9.5c12.667 0 22.167 -3.33301 28.5 -10s9.5 -14 9.5 -22c0 -4 -0.166992 -7.33301 -0.5 -10s-0.833008 -5 -1.5 -7l-0.5 -1l-0.5 -1c0 -1.33301 -0.166992 -2.83301 -0.5 -4.5s-0.5 -3.5 -0.5 -5.5
c0 -1.33301 0.166992 -2.83301 0.5 -4.5s0.833008 -3.5 1.5 -5.5c3.33301 -7.33301 10 -14 20 -20s24 -9 42 -9c24.667 0 43.167 5.16699 55.5 15.5s20.166 21.833 23.499 34.5c0.666992 2.66699 1.16699 5.33398 1.5 8.00098s0.5 5.33398 0.5 8.00098
c0 20 -7.33301 34.5 -22 43.5s-33.334 17.167 -56.001 24.5c-2.66699 0.666992 -5.33398 1.5 -8.00098 2.5s-5.33398 1.83301 -8.00098 2.5c-46.667 15.333 -77 32.5 -91 51.5s-21 39.833 -21 62.5c0 40.667 13.667 70.334 41 89.001s58 28 92 28v0z" />
    <glyph glyph-name="t" unicode="t" horiz-adv-x="270" 
d="M20 385l44 0.000976562v87l73 40v-127h83v-31h-83v-257c0 -2.66699 0.166992 -5.83398 0.5 -9.50098s0.833008 -7.16699 1.5 -10.5c1.33301 -9.33301 5.33301 -17.666 12 -24.999s18 -11 34 -11c10.667 0 20.5 2.16699 29.5 6.5s17.5 9.16602 25.5 14.499l17 -20l-8 -8
l-7 -7c-18.667 -16.667 -36.5 -26.5 -53.5 -29.5s-29.167 -4.5 -36.5 -4.5c-28.667 0 -50.5 7.5 -65.5 22.5s-22.5 41.167 -22.5 78.5v260h-44v31v0z" />
    <glyph glyph-name="u" unicode="u" horiz-adv-x="450" 
d="M379 385v-282.997c0 -22.667 2.5 -39.334 7.5 -50.001s17.5 -18.334 37.5 -23.001v-29h-118v49h-3c-7.33301 -8 -15 -15 -23 -21s-16 -11 -24 -15c-15.333 -8 -30.333 -13.333 -45 -16s-27.334 -4 -38.001 -4c-33.333 0 -57 7.16699 -71 21.5s-23.333 30.166 -28 47.499
c-2 9.33301 -3.16699 18.5 -3.5 27.5s-0.5 16.833 -0.5 23.5v3v2v185c0 14.667 -3 27.167 -9 37.5s-17.667 15.5 -35 15.5v29h117v-270v-9c0 -3.33301 0.333008 -6.33301 1 -9c0.666992 -16 4.83398 -30.5 12.501 -43.5s22.834 -19.5 45.501 -19.5
c3.33301 0 12.666 1.66699 27.999 5s32 13.333 50 30c4.66699 4.66699 9.16699 9.5 13.5 14.5s8.5 10.833 12.5 17.5v203v3.5v2.5c-0.666992 10.667 -4 20.5 -10 29.5s-17.333 14.5 -34 16.5v29h117v0z" />
    <glyph glyph-name="v" unicode="v" horiz-adv-x="413" 
d="M406 385l-0.00195312 -29.002c-16.667 -2 -29.5 -6.66699 -38.5 -14s-17.167 -19.666 -24.5 -36.999l-127 -313h-19l-130 301c-1.33301 3.33301 -3.16602 7.66602 -5.49902 12.999s-5.5 11 -9.5 17c-4.66699 6.66699 -11.167 13.167 -19.5 19.5
s-19.166 10.833 -32.499 13.5v29h167v-29c-9.33301 -0.666992 -16.333 -2.5 -21 -5.5s-8 -6.5 -10 -10.5c-0.666992 -1.33301 -1.16699 -2.83301 -1.5 -4.5s-0.5 -3.16699 -0.5 -4.5c0 -3.33301 0.666992 -7.16602 2 -11.499s3.33301 -9.16602 6 -14.499l81 -184h4l72 184
c0.666992 0.666992 1.16699 1.83398 1.5 3.50098s0.833008 3.5 1.5 5.5c0.666992 1.33301 1 2.33301 1 3s0.333008 1.66699 1 3c0.666992 2.66699 1.16699 5.16699 1.5 7.5s0.5 4.16602 0.5 5.49902c0 9.33301 -3.83301 15.5 -11.5 18.5s-16.167 4.83301 -25.5 5.5v28h137v0
z" />
    <glyph glyph-name="w" unicode="w" horiz-adv-x="584" 
d="M577 385l0.000976562 -28.9971c-12.667 -0.666992 -22.5 -5.33398 -29.5 -14.001s-13.167 -19 -18.5 -31l-140 -319h-29l-69 164h-4l-77 -164h-26l-136 330c-4.66699 12 -10.5 21 -17.5 27s-17.167 8.33301 -30.5 7v29h139v-29
c-6.66699 0.666992 -11.5 0.166992 -14.5 -1.5s-4.83301 -3.5 -5.5 -5.5c-0.666992 -1.33301 -1.16699 -2.5 -1.5 -3.5s-0.5 -1.83301 -0.5 -2.5v-3c0 -1.33301 0.333008 -2.66602 1 -3.99902c0 -0.666992 0.166992 -1.5 0.5 -2.5s0.5 -1.83301 0.5 -2.5
c0.666992 -1.33301 1.16699 -2.5 1.5 -3.5s0.5 -1.83301 0.5 -2.5l96 -237h4l51 109l-53 124c-0.666992 1.33301 -1.33398 2.83301 -2.00098 4.5s-1.33398 3.16699 -2.00098 4.5c-4 8.66699 -8.5 15.167 -13.5 19.5s-11.833 6.5 -20.5 6.5v29h227v-29
c-11.333 -0.666992 -20.166 -4.33398 -26.499 -11.001s-11.833 -14 -16.5 -22c-1.33301 -2.66699 -2.5 -5.33398 -3.5 -8.00098s-2.16699 -5.33398 -3.5 -8.00098l-34 -73l63 -150h3l98 224l2 4l2 4c0.666992 1.33301 1.16699 2.83301 1.5 4.5s0.833008 3.16699 1.5 4.5
c0.666992 2 1.16699 4 1.5 6s0.5 4 0.5 6c0 5.33301 -2.16699 9.83301 -6.5 13.5s-10.833 5.5 -19.5 5.5h-2h-3v29h111v0zM309.001 275.003l27.999 60l6 12c1.33301 2.66699 2 5 2 7v1.5v0.5c0 3.33301 -0.833008 5.33301 -2.5 6s-4.16699 1 -7.5 1h-0.5h-1.5h-1.5h-0.5h-4
h-4h-31h-2.5h-3.5h-2.5c-1 0 -2.16699 -0.333008 -3.5 -1c-1.33301 0 -2.66602 -0.666992 -3.99902 -2s-2 -3.33301 -2 -6c0 -2 0.5 -4.33301 1.5 -7s2.83301 -6.66699 5.5 -12l26 -60h2v0z" />
    <glyph glyph-name="x" unicode="x" horiz-adv-x="416" 
d="M392 385v-29.0029c-9.33301 0 -17.666 -1.5 -24.999 -4.5s-14.666 -7.5 -21.999 -13.5c-5.33301 -4.66699 -10.833 -10.5 -16.5 -17.5l-18.5 -23.5l-59 -78l97 -135c7.33301 -10.667 14 -19.667 20 -27s11.667 -13 17 -17c4.66699 -4 9.5 -6.83301 14.5 -8.5
s10.5 -2.5 16.5 -2.5v-29h-175v29h2h2h1h2c9.33301 0 16.166 2 20.499 6s7.16602 8.66699 8.49902 14v2v2c0 2 -0.333008 4 -1 6l-2 6c-0.666992 1.33301 -1.5 2.83301 -2.5 4.5s-1.83301 3.16699 -2.5 4.5l-4 6c-1.33301 2 -2.33301 3.33301 -3 4l-57 74h-1l-52 -68
c-8.66699 -10.667 -14.167 -19 -16.5 -25s-3.5 -10.667 -3.5 -14c0 -9.33301 3.66699 -15.333 11 -18s15.333 -4 24 -4h2.5h2.5v-29h-152v29c12 -0.666992 23 1.5 33 6.5s19.667 12.167 29 21.5c6 6 12 12.667 18 20l19 24l65 87l-72 99c-10 14 -18.833 25.667 -26.5 35
s-15.167 16.666 -22.5 21.999c-5.33301 4 -10.666 6.83301 -15.999 8.5s-11 2.83398 -17 3.50098v29h170v-29c-8.66699 -0.666992 -16.167 -1.66699 -22.5 -3s-9.5 -4.66602 -9.5 -9.99902c0 -1.33301 1.33301 -5.16602 4 -11.499s10.334 -18.166 23.001 -35.499l35 -48
l40 57c0.666992 1.33301 1.66699 2.66602 3 3.99902s2.33301 2.66602 3 3.99902c2 2.66699 3.83301 5.33398 5.5 8.00098s3.16699 5.33398 4.5 8.00098c0.666992 2 1.16699 3.83301 1.5 5.5s0.5 3.5 0.5 5.5v1.5v0.5c-0.666992 4 -2.83398 7.5 -6.50098 10.5
s-9.83398 4.16699 -18.501 3.5v29h129v0z" />
    <glyph glyph-name="y" unicode="y" horiz-adv-x="429" 
d="M429 385l-0.00585938 -28.998c-12.667 -2.66699 -22.834 -7.33398 -30.501 -14.001s-13.5 -13.667 -17.5 -21c-2.66699 -4.66699 -5 -9.16699 -7 -13.5s-3.66699 -8.16602 -5 -11.499l-157 -348l-4 -8c-1.33301 -2.66699 -2.66602 -5.66699 -3.99902 -9
c-15.333 -32 -32 -59 -50 -81s-43.667 -33 -77 -33c-19.333 0 -35.666 4.66699 -48.999 14s-20 22.333 -20 39c0 13.333 3.83301 23.833 11.5 31.5s16.167 11.5 25.5 11.5c6.66699 0 12.334 -1 17.001 -3s9 -4.33301 13 -7c0.666992 -0.666992 1.5 -1.33398 2.5 -2.00098
s1.83301 -1.33398 2.5 -2.00098l1.5 -1.5c0.333008 -0.333008 0.833008 -0.5 1.5 -0.5c2.66699 -2 6 -4 10 -6s9.33301 -3 16 -3c14 0 25.333 5 34 15s15.667 21 21 33l30 65l-118 294c-8 20.667 -17.167 36.167 -27.5 46.5s-23.166 15.166 -38.499 14.499h-2h-3v29h184v-29
h-10c-8.66699 0 -15.667 -2.16699 -21 -6.5s-8 -10.5 -8 -18.5c0 -2 0.333008 -4.33301 1 -7l2 -8c0 -0.666992 0.166992 -1.5 0.5 -2.5s0.833008 -1.83301 1.5 -2.5c0.666992 -2.66699 1.33398 -5 2.00098 -7s1.33398 -3.66699 2.00098 -5l77 -193h4l80 177
c0.666992 1.33301 1.33398 2.83301 2.00098 4.5s1.66699 3.5 3 5.5c0.666992 2.66699 1.66699 5.5 3 8.5s2.33301 5.83301 3 8.5s1.16699 5.33398 1.5 8.00098s0.5 5 0.5 7v1.5v0.5c-0.666992 8 -4 15 -10 21s-15.667 8.66699 -29 8v29h135v0z" />
    <glyph glyph-name="z" unicode="z" horiz-adv-x="385" 
d="M45 303l0.000976562 82h307v-19l-227 -331v-4h121h16.5c5.66699 0 11.167 0.666992 16.5 2c14 1.33301 27 5.83301 39 13.5s20.333 21.5 25 41.5h29v-88h-346v27l222 327h-91c-4.66699 0 -10.334 -0.166992 -17.001 -0.5s-13.667 -1.5 -21 -3.5
c-10 -2 -19.5 -6.66699 -28.5 -14s-14.5 -18.333 -16.5 -33h-29v0z" />
    <glyph glyph-name="braceleft" unicode="{" horiz-adv-x="347" 
d="M276 726l5 -31.999c-18 -2.66699 -34.5 -11.167 -49.5 -25.5s-22.5 -35.5 -22.5 -63.5c0 -8.66699 0.166992 -17.334 0.5 -26.001s0.833008 -17.667 1.5 -27c0.666992 -6.66699 1.16699 -13.167 1.5 -19.5s0.5 -12.833 0.5 -19.5c0 -4 0.166992 -8.16699 0.5 -12.5
s0.5 -8.83301 0.5 -13.5s-0.166992 -9.16699 -0.5 -13.5s-0.5 -8.5 -0.5 -12.5c-0.666992 -12 -2.33398 -26.333 -5.00098 -43s-9 -33.667 -19 -51c-8.66699 -14 -20 -27.833 -34 -41.5s-32.667 -26.167 -56 -37.5c23.333 -10.667 42.166 -23 56.499 -37
s25.5 -28.667 33.5 -44c10 -18 16.333 -35.333 19 -52s4.33398 -30 5.00098 -40c0.666992 -8.66699 1 -17.167 1 -25.5s-0.333008 -16.833 -1 -25.5c-0.666992 -18 -1.33398 -32.833 -2.00098 -44.5s-1.33398 -22.167 -2.00098 -31.5v-8v-8c0 -5.33301 0.5 -11.333 1.5 -18
s2.83301 -13.334 5.5 -20.001c4.66699 -10.667 12 -20.834 22 -30.501s24.333 -16.5 43 -20.5l-5 -33c-46 9.33301 -78.5 24.833 -97.5 46.5s-31.167 44.834 -36.5 69.501c-2.66699 12 -4.16699 23.833 -4.5 35.5s-0.5 22.5 -0.5 32.5v1.5v1.5v11.5
c0 3.66699 0.333008 7.5 1 11.5v6v6c0 6 0.166992 11.833 0.5 17.5s0.5 11.167 0.5 16.5c0 9.33301 -0.333008 20 -1 32s-2 24.333 -4 37c-4 21.333 -12 41.5 -24 60.5s-31.333 30.5 -58 34.5v37c16.667 2.66699 28.334 6.16699 35.001 10.5s12.334 9.83301 17.001 16.5
c0.666992 1.33301 1.5 2.5 2.5 3.5s1.83301 2.16699 2.5 3.5c2 2.66699 3.83301 5.33398 5.5 8.00098s3.5 5.33398 5.5 8.00098c6.66699 11.333 11.5 24.666 14.5 39.999s4.5 40 4.5 74c0 5.33301 -0.166992 10.833 -0.5 16.5s-0.5 11.5 -0.5 17.5v2v3
c-0.666992 4.66699 -1 9.5 -1 14.5v14.5v1.5v1.5c0 9.33301 0.166992 19.5 0.5 30.5s1.5 22.167 3.5 33.5c4.66699 25.333 16.334 49.333 35.001 72s52 38.667 100 48v0z" />
    <glyph glyph-name="bar" unicode="|" horiz-adv-x="190" 
d="M70 -224v1053h50v-1053h-50v0z" />
    <glyph glyph-name="braceright" unicode="}" horiz-adv-x="347" 
d="M71 -150l-5.00195 32.0068c2 1.33301 4.16699 2.16602 6.5 2.49902s4.5 0.833008 6.5 1.5c14 4.66699 26.833 13.5 38.5 26.5s18.5 32.833 20.5 59.5c0 4 0.166992 8 0.5 12s0.5 7.66699 0.5 11s-0.166992 7 -0.5 11s-0.5 8 -0.5 12
c-0.666992 8 -1.16699 14.167 -1.5 18.5s-0.833008 7.83301 -1.5 10.5c0 2.66699 -0.166992 5.16699 -0.5 7.5s-0.5 5.5 -0.5 9.5c-0.666992 8.66699 -1 17.167 -1 25.5s0.333008 16.833 1 25.5l2 24.5c0.666992 8.33301 2 16.5 4 24.5c5.33301 22.667 15.833 45 31.5 67
s40.834 41 75.501 57c-46.667 24 -76.667 50.833 -90 80.5s-21 60.5 -23 92.5c0 4 -0.166992 8.16699 -0.5 12.5s-0.5 8.83301 -0.5 13.5s0.166992 9.16699 0.5 13.5s0.5 8.5 0.5 12.5s0.166992 8 0.5 12s0.833008 7.66699 1.5 11c0 2 0.166992 4 0.5 6s0.5 4 0.5 6
c0.666992 1.33301 1 3 1 5v6c0 4 0.166992 7.83301 0.5 11.5s0.5 7.5 0.5 11.5s-0.166992 7.83301 -0.5 11.5s-0.5 7.5 -0.5 11.5c-1.33301 21.333 -7.83301 40.666 -19.5 57.999s-29.167 27.666 -52.5 30.999l5 32c44.667 -8.66699 76.5 -23.834 95.5 -45.501
s31.5 -44.834 37.5 -69.501c3.33301 -12.667 5.33301 -25.167 6 -37.5s1 -23.833 1 -34.5c0 -8 -0.166992 -14.833 -0.5 -20.5s-0.5 -11.167 -0.5 -16.5c-0.666992 -0.666992 -1 -1.66699 -1 -3v-4c0 -3.33301 -0.166992 -7 -0.5 -11s-0.5 -8.33301 -0.5 -13v-2v-2
c0 -8.66699 0.166992 -19.334 0.5 -32.001s2.16602 -26 5.49902 -40c4 -20 12 -38.5 24 -55.5s31 -27.833 57 -32.5v-37c-25.333 -4 -44 -14.5 -56 -31.5s-20.333 -35.5 -25 -55.5c-3.33301 -14 -5.16602 -27.667 -5.49902 -41s-0.5 -24 -0.5 -32v-2v-2
c0 -4 0.166992 -8.5 0.5 -13.5s0.5 -9.83301 0.5 -14.5v-4v-4c0.666992 -6 1.16699 -11.833 1.5 -17.5s0.5 -10.834 0.5 -15.501c0 -10.667 -0.333008 -22.5 -1 -35.5s-3 -26.167 -7 -39.5c-6 -24 -18.667 -46.5 -38 -67.5s-50.666 -35.5 -93.999 -43.5v-1z" />
    <glyph glyph-name="asciitilde" unicode="~" horiz-adv-x="725" 
d="M70 253c3.33301 7.33301 7.00098 14.8311 11.001 22.498s8.66699 15.5 14 23.5c16 24.667 37.833 47.167 65.5 67.5s62.167 30.5 103.5 30.5c14.667 0 29.167 -1.5 43.5 -4.5s28.166 -6.5 41.499 -10.5c8 -2 15.5 -4.33301 22.5 -7s13.5 -5.33398 19.5 -8.00098
c22.667 -8.66699 42.5 -16.667 59.5 -24s33.5 -11.666 49.5 -12.999h4h4h6c2 0 4 0.333008 6 1c18.667 2.66699 36.334 10.834 53.001 24.501s28.667 31.5 36 53.5h46c-10.667 -44 -33.334 -81 -68.001 -111s-76 -45 -124 -45c-24 0 -48.333 4.33301 -73 13
s-50.667 18.334 -78 29.001c-15.333 6.66699 -30.833 12.667 -46.5 18s-31.834 8 -48.501 8c-24 0 -43.667 -5.5 -59 -16.5s-29.666 -28.167 -42.999 -51.5h-45v0z" />
    <glyph glyph-name="space" 
 />
    <glyph glyph-name="F" horiz-adv-x="764" 
d="M629 708l-0.00195312 -136.003h-34c-4.66699 25.333 -14.5 46.5 -29.5 63.5s-41.5 25.5 -79.5 25.5h-142v-283c29.333 14 56 23.667 80 29s45.667 8 65 8c61.333 0 116 -15.833 164 -47.5s72 -83.167 72 -154.5c0 -57.333 -17 -108.333 -51 -153s-82.667 -67 -146 -67
c-44 0 -75.833 6.33301 -95.5 19s-30.834 26.667 -33.501 42c-0.666992 2 -1 3.83301 -1 5.5v4.5v2.5v2.5c0.666992 12.667 4.83398 24.334 12.501 35.001s19.834 16 36.501 16c14.667 0 25.5 -2.83301 32.5 -8.5s11.5 -12.167 13.5 -19.5
c0 -1.33301 0.166992 -2.66602 0.5 -3.99902s0.5 -2.66602 0.5 -3.99902c0 -2.66699 -0.166992 -5.5 -0.5 -8.5s-0.5 -5.5 -0.5 -7.5c-0.666992 -2.66699 -1.16699 -5 -1.5 -7s-0.5 -3.66699 -0.5 -5c0 -8.66699 2.66699 -14.667 8 -18s11 -5.33301 17 -6
c2.66699 -0.666992 5 -1 7 -1h6c25.333 0 47.666 11.167 66.999 33.5s29 69.833 29 142.5c0 58 -12.833 99.667 -38.5 125s-59.167 38 -100.5 38c-7.33301 0 -15.166 -0.5 -23.499 -1.5s-16.833 -2.16699 -25.5 -3.5c-10 -2 -20 -4.33301 -30 -7s-19.333 -5.66699 -28 -9
c-6.66699 -2 -13 -4 -19 -6s-11.333 -4 -16 -6v-337h-145v34c21.333 2.66699 36.5 10.667 45.5 24s13.5 32.333 13.5 57v546h-102c-28.667 0 -52.667 -6.66699 -72 -20s-31.666 -36.333 -36.999 -69h-34v136l165 -7h301l150 7v0z" />
    <glyph glyph-name="asciitilde" horiz-adv-x="543" 
d="M52 700l372.999 0.00195312c8.66699 0 15.834 0.166992 21.501 0.5s10.834 0.5 15.501 0.5c4 0.666992 7.66699 1.16699 11 1.5s7.33301 0.833008 12 1.5c3.33301 0.666992 6.66602 1.16699 9.99902 1.5s6.66602 0.5 9.99902 0.5c4 0.666992 8 1.16699 12 1.5
s8.33301 0.5 13 0.5v-170h-34l-4 14.5c-1.33301 5 -3 9.83301 -5 14.5c-4 9.33301 -8.5 18.166 -13.5 26.499s-10.833 16.166 -17.5 23.499c-19.333 21.333 -41.166 34.833 -65.499 40.5s-49.833 8.5 -76.5 8.5h-117v-551c0 -29.333 5.5 -50 16.5 -62
s25.167 -18.333 42.5 -19v-34h-204v34c22 2.66699 37.333 10.667 46 24s13 32.333 13 57v470c0 22 -4 41 -12 57s-23.667 24 -47 24v34v0z" />
    <glyph glyph-name="D" horiz-adv-x="704" 
d="M52 700h204v-34c-18 -2 -31.167 -7.83301 -39.5 -17.5s-13.833 -20.167 -16.5 -31.5c-1.33301 -6 -2.16602 -11.667 -2.49902 -17s-0.5 -10.333 -0.5 -15v-151c56.667 -4.66699 98.334 4.16602 125.001 26.499s46.667 47.166 60 74.499l6 11.5
c2 3.66699 3.66699 7.16699 5 10.5c3.33301 8 7.16602 16.667 11.499 26s9.16602 18.666 14.499 27.999c12.667 24.667 29.5 47 50.5 67s48.5 30 82.5 30c8 0 17.333 -0.5 28 -1.5s21.667 -4.16699 33 -9.5v-155h-34c-2.66699 21.333 -8 36 -16 44s-16.667 12.667 -26 14
c-1.33301 0.666992 -2.83301 1 -4.5 1h-4.5c-14.667 0 -27.334 -5 -38.001 -15s-20.667 -21.667 -30 -35l-4 -6l-4 -6l-17.5 -23.5c-8.33301 -11 -18.5 -22.5 -30.5 -34.5s-25.667 -23.5 -41 -34.5s-31.333 -18.833 -48 -23.5v-6c66.667 -8.66699 114.667 -31.5 144 -68.5
s52.333 -76.5 69 -118.5c0.666992 -3.33301 1.66699 -6.66602 3 -9.99902l4 -10l11 -28.5c4 -10.333 8.33301 -20.5 13 -30.5c12 -27.333 28 -52.5 48 -75.5s46.667 -34.5 80 -34.5h8.5c3 0 5.83301 0.333008 8.5 1v-45c-2.66699 0 -5 -0.166992 -7 -0.5
s-4.33301 -0.833008 -7 -1.5c-6.66699 -0.666992 -13.667 -1.16699 -21 -1.5s-15.666 -0.5 -24.999 -0.5c-52 0 -91.833 11.667 -119.5 35s-52.5 60.333 -74.5 111c-5.33301 11.333 -10.333 23.166 -15 35.499l-15 38.5c-1.33301 4 -2.83301 8 -4.5 12s-3.16699 8 -4.5 12
c-17.333 46.667 -39.333 84.834 -66 114.501s-76 44.167 -148 43.5v-280c0 -26 4.33301 -45.667 13 -59s24 -20.666 46 -21.999v-34h-204v34c22 2.66699 37.333 11.167 46 25.5s13 32.833 13 55.5v470c0 22 -4 40.333 -12 55s-23.667 23.334 -47 26.001v34v0z" />
    <glyph glyph-name="N" horiz-adv-x="781" 
d="M629 708l-0.00292969 -136.001h-34c-0.666992 3.33301 -1.16699 5.5 -1.5 6.5s-0.5 1.83301 -0.5 2.5v0.5v0.5l-0.5 1c-0.333008 0.666992 -0.5 1.66699 -0.5 3c0 2 -1 6.5 -3 13.5s-5.66699 14.5 -11 22.5c-7.33301 9.33301 -18 18 -32 26s-34 12 -60 12h-142v-262h4
c10.667 10.667 21.834 19.834 33.501 27.501s23.167 14.167 34.5 19.5c17.333 8 34.333 13.667 51 17s32 5 46 5c50.667 0 87.834 -8.66699 111.501 -26s39.834 -36.333 48.501 -57c6 -14 9.5 -27.667 10.5 -41s1.5 -23.666 1.5 -30.999v-197c0 -20.667 2.16699 -38 6.5 -52
s16.833 -23.667 37.5 -29v-34h-174v34c21.333 1.33301 34 10 38 26s6 34.333 6 55v209c0 37.333 -7.66699 63.333 -23 78s-40.666 22 -75.999 22c-10.667 0 -25.334 -2.16699 -44.001 -6.5s-38 -12.833 -58 -25.5c-9.33301 -6 -18.5 -13.167 -27.5 -21.5
s-17.833 -17.833 -26.5 -28.5v-227c0 -24 4.16699 -42.833 12.5 -56.5s23.833 -21.834 46.5 -24.501v-34h-204v34c22 3.33301 37.333 11.5 46 24.5s13 31.833 13 56.5v545h-102c-31.333 0 -56 -7.33301 -74 -22s-29.667 -36.667 -35 -66h-34v136l212 -9h211l193 9v0z" />
    <glyph glyph-name="bullet" horiz-adv-x="797" 
d="M52 700l204.001 -0.00292969v-34c-21.333 -2 -36.5 -9.66699 -45.5 -23s-13.5 -32.666 -13.5 -57.999v-546h403v546c0 22 -4 40.333 -12 55s-23.667 23.334 -47 26.001v34h204v-34c-22.667 -2 -38.167 -10.167 -46.5 -24.5s-12.5 -33.166 -12.5 -56.499v-470
c0 -22.667 4.16699 -41.334 12.5 -56.001s23.833 -23 46.5 -25v-34h-178c-52.667 0 -89.834 -25.5 -111.501 -76.5s-35.167 -111.5 -40.5 -181.5l-33 -1c-0.666992 5.33301 -1.16699 10.333 -1.5 15s-0.833008 9.33398 -1.5 14.001c-6 58 -19.333 110.833 -40 158.5
s-56.667 71.5 -108 71.5h-179v34c23.333 2 39 10.333 47 25s12 33.334 12 56.001v470c0 25.333 -4.5 44.666 -13.5 57.999s-24.167 21 -45.5 23v34v0z" />
    <glyph glyph-name="guilsinglleft" horiz-adv-x="447" 
d="M26 700h117.997v-184h154v-31h-154v-135h6c4 3.33301 7.83301 6.16602 11.5 8.49902l11.5 7.5c18.667 10.667 36.667 17.834 54 21.501s32 5.5 44 5.5c60.667 0 100.834 -21.667 120.501 -65s29.5 -101.666 29.5 -174.999c0 -94 -9.83301 -164 -29.5 -210
s-41.5 -78.333 -65.5 -97c-18 -14 -35.333 -22.333 -52 -25s-28.667 -4 -36 -4c-23.333 0 -41.166 3.66699 -53.499 11s-21.166 15.333 -26.499 24c-3.33301 5.33301 -5.5 10.5 -6.5 15.5s-1.5 9.16699 -1.5 12.5c0 2 0.166992 4.33301 0.5 7s0.833008 5 1.5 7
c2 7.33301 5.83301 14 11.5 20s13.834 9 24.501 9c14 0 24.667 -4 32 -12s11 -17.333 11 -28v-2v-2l-0.5 -1c-0.333008 -0.666992 -0.5 -1.33398 -0.5 -2.00098v-1.5v-1.5c-0.666992 -0.666992 -1 -1.33398 -1 -2.00098v-2v-2.5c0 -1 0.333008 -2.16699 1 -3.5
c0.666992 -3.33301 2.66699 -6.66602 6 -9.99902s9.33301 -5 18 -5c28 0 47.333 12.667 58 38s17.667 53 21 83c1.33301 13.333 2.16602 26.333 2.49902 39s0.5 24.334 0.5 35.001v2.5v2.5v21.5c0 5 0.333008 9.5 1 13.5v2v2v9v13v12.5v12.5v12.5v12.5
c-0.666992 53.333 -7.33398 98 -20.001 134s-39.667 54 -81 54c-6 0 -12.667 -0.666992 -20 -2s-14.666 -3 -21.999 -5c-9.33301 -2.66699 -18.5 -6.33398 -27.5 -11.001s-16.5 -10 -22.5 -16v-212c0 -19.333 2.5 -35.5 7.5 -48.5s17.167 -20.833 36.5 -23.5v-29h-162v29
c19.333 1.33301 31.666 8.5 36.999 21.5s8 29.833 8 50.5v384h-59v31h59v83c0 20.667 -2.66699 37.5 -8 50.5s-17.666 20.167 -36.999 21.5v29v0z" />
    <glyph glyph-name="O" horiz-adv-x="445" 
d="M143 225c31.333 -1.33301 53.3301 2.99902 65.9971 12.999s23.334 23.667 32.001 41c1.33301 2 2.5 4 3.5 6s1.83301 4 2.5 6c1.33301 3.33301 2.83301 6.5 4.5 9.5s3.16699 6.16699 4.5 9.5c12 23.333 25.5 43.166 40.5 59.499s38.833 24.5 71.5 24.5h9.5
c3 0 5.83301 -0.333008 8.5 -1v-106h-29c-0.666992 2 -1.5 3.66699 -2.5 5s-1.83301 2.66602 -2.5 3.99902c-3.33301 6.66699 -7 11.834 -11 15.501s-10 5.5 -18 5.5c-3.33301 0 -6.5 -0.666992 -9.5 -2s-5.83301 -3.33301 -8.5 -6
c-4 -3.33301 -7.83301 -7.83301 -11.5 -13.5l-13.5 -20.5l-6 -10.5c-2 -3.66699 -4.33301 -7.5 -7 -11.5c-4 -5.33301 -8.83301 -10.666 -14.5 -15.999s-12.5 -10.333 -20.5 -15v-3c16.667 -2.66699 31 -7.5 43 -14.5s22 -14.167 30 -21.5l5.5 -5.5l4.5 -4.5
c18.667 -20 31.334 -38 38.001 -54s12 -30.333 16 -43c4 -13.333 9.83301 -24.666 17.5 -33.999s22.834 -17.333 45.501 -24v-20c-8.66699 -2 -17.834 -3.33301 -27.501 -4s-20.167 -1 -31.5 -1c-26 0 -45.5 6.16699 -58.5 18.5s-24.833 29.833 -35.5 52.5l-10 22
c-3.33301 7.33301 -6.66602 15.333 -9.99902 24c0 0.666992 -0.166992 1.16699 -0.5 1.5s-0.5 0.833008 -0.5 1.5c-0.666992 1.33301 -1.16699 2.5 -1.5 3.5s-0.833008 2.16699 -1.5 3.5c-8 18.667 -17.667 35.667 -29 51s-30 23 -56 23h-27v-93
c0 -19.333 2.5 -35.5 7.5 -48.5s17.167 -20.833 36.5 -23.5v-29h-161v29c19.333 2.66699 31.5 10.5 36.5 23.5s7.5 29.167 7.5 48.5v182c0 22 -2.5 38.5 -7.5 49.5s-17.167 18.833 -36.5 23.5v29h161v-29c-19.333 -4.66699 -31.5 -12.5 -36.5 -23.5s-7.5 -27.5 -7.5 -49.5
v-58v0z" />
    <glyph glyph-name="tilde" horiz-adv-x="449" 
d="M26 700l117.001 -0.00292969v-184h154v-31h-154v-143h9c24 22.667 46.5 36.834 67.5 42.501s40.5 8.5 58.5 8.5c5.33301 0 12 -0.333008 20 -1s16 -3 24 -7c14 -6 27 -17.667 39 -35s18 -45 18 -83v-167v-7.5v-7.5c0.666992 -12.667 3.66699 -24.667 9 -36s17 -18 35 -20
v-29h-161v29c18.667 2.66699 30.5 9.33398 35.5 20.001s7.83301 22 8.5 34v6.5v6.5v2v2v170c0 22.667 -3.83301 41.834 -11.5 57.501s-24.167 23.5 -49.5 23.5c-21.333 0 -41.333 -7.33301 -60 -22s-32.667 -31.334 -42 -50.001v-178c0 -20.667 2.83301 -37.5 8.5 -50.5
s17.834 -20.167 36.501 -21.5v-29h-163v29c19.333 2.66699 31.666 10 36.999 22s8 28.667 8 50v384h-58v31h58v103c0 14.667 -3.33301 25.834 -10 33.501s-14.334 13.167 -23.001 16.5c-1.33301 0 -3 0.333008 -5 1s-4 1 -6 1v29v0z" />
    <glyph glyph-name="greater" unicode="&#xa0;" 
 />
    <glyph glyph-name="Z" unicode="&#xa1;" horiz-adv-x="630" 
d="M630 700l-0.00195312 -34.0039c-24 -4 -43.333 -13.167 -58 -27.5s-27.334 -34.166 -38.001 -59.499l-143 -331c-1.33301 -3.33301 -2.83301 -6.83301 -4.5 -10.5s-3.16699 -7.16699 -4.5 -10.5c-2 -5.33301 -4.16699 -10.666 -6.5 -15.999s-4.5 -10.666 -6.5 -15.999
c-22.667 -52.667 -48 -99.5 -76 -140.5s-71 -61.5 -129 -61.5c-41.333 0 -72.833 8.5 -94.5 25.5s-32.5 36.833 -32.5 59.5c0 13.333 3.16699 23.833 9.5 31.5s13.5 13.167 21.5 16.5c3.33301 1.33301 6.5 2.33301 9.5 3s5.83301 1 8.5 1h4.5
c1.66699 0 3.16699 -0.333008 4.5 -1c10.667 -2 20.5 -7.33301 29.5 -16s13.5 -19.667 13.5 -33v-2.5v-2.5v-2.5v-2.5v-8c0 -2.66699 0.333008 -5.66699 1 -9c1.33301 -6.66699 5 -12.667 11 -18s16.333 -8 31 -8c27.333 0 50.5 11 69.5 33s34.833 46.333 47.5 73
c2.66699 6.66699 5.33398 13 8.00098 19l8 18l-237 419l-9.5 17.5c-3 5.66699 -6.16699 11.167 -9.5 16.5c-7.33301 12 -15.333 21.833 -24 29.5s-20 12.167 -34 13.5v34h204v-34c-13.333 -0.666992 -22.833 -3.33398 -28.5 -8.00098s-9.5 -9.66699 -11.5 -15
c0 -2 -0.166992 -3.66699 -0.5 -5s-0.5 -2.66602 -0.5 -3.99902c0 -3.33301 0.5 -7.16602 1.5 -11.499s2.5 -8.5 4.5 -12.5c0.666992 -2.66699 1.66699 -5.33398 3 -8.00098l4 -8l5.5 -9.5c1.66699 -3 3.16699 -5.83301 4.5 -8.5l170 -301h4l132 304l2 4
c0.666992 1.33301 1.33398 3 2.00098 5s1.33398 4.33301 2.00098 7s1.66699 5 3 7l2 10.5c0.666992 3.66699 1 6.83398 1 9.50098c0 12 -4.16699 22.333 -12.5 31s-19.5 13 -33.5 13h-2.5h-3.5v34h178v0zM327.998 795.996c37.333 0 64.832 2.33398 82.499 7.00098
s29.5 9.66699 35.5 15c2.66699 2.66699 4.5 5 5.5 7s1.5 4 1.5 6c0 3.33301 -1.16699 6 -3.5 8s-5.16602 3.33301 -8.49902 4h-4.5h-4.5h-2h-2h-1.5h-0.5h-3.5h-3.5c-8 1.33301 -14.5 4.5 -19.5 9.5s-7.5 10.833 -7.5 17.5c0 1.33301 0.166992 3 0.5 5
s0.833008 3.66699 1.5 5c2 6 6.16699 11.5 12.5 16.5s15.5 7.5 27.5 7.5c18 0 32.167 -5 42.5 -15s17.166 -20.667 20.499 -32c0 -2 0.166992 -4.16699 0.5 -6.5s0.5 -4.5 0.5 -6.5c0 -4.66699 -0.5 -9.66699 -1.5 -15s-2.83301 -10.666 -5.5 -15.999
c-8 -18.667 -24.5 -35.5 -49.5 -50.5s-62.833 -22.5 -113.5 -22.5c-50 0 -87.667 7.5 -113 22.5s-42.333 31.833 -51 50.5c-2.66699 5.33301 -4.5 10.666 -5.5 15.999s-1.5 10.333 -1.5 15c0 2 0.166992 4.16699 0.5 6.5s0.833008 4.5 1.5 6.5
c2.66699 11.333 9.33398 22 20.001 32s25 15 43 15c12 0 21.167 -2.5 27.5 -7.5s10.5 -10.5 12.5 -16.5c0.666992 -1.33301 1.16699 -3 1.5 -5s0.5 -3.66699 0.5 -5c0 -6.66699 -2.5 -12.5 -7.5 -17.5s-11.5 -8.16699 -19.5 -9.5h-3h-3h-1.5h-1.5h-2h-2h-4.5h-4.5
c-2.66699 -0.666992 -5.16699 -1.83398 -7.5 -3.50098s-3.83301 -3.5 -4.5 -5.5v-1.5v-1.5c0 -2 0.5 -4 1.5 -6s2.83301 -4.33301 5.5 -7c6 -5.33301 17.833 -10.333 35.5 -15s45.167 -7 82.5 -7v0z" />
    <glyph glyph-name="slash" unicode="&#xa2;" horiz-adv-x="415" 
d="M424 385l-0.00292969 -30.0029l-15 -4c-9.33301 -4 -16.833 -9.16699 -22.5 -15.5s-11.167 -14.5 -16.5 -24.5c-1.33301 -2 -2.5 -4.33301 -3.5 -7s-2.16699 -5.33398 -3.5 -8.00098l-156 -348c-14.667 -32.667 -32 -62.667 -52 -90s-49 -41 -87 -41
c-3.33301 0 -7.16602 0.333008 -11.499 1s-8.83301 1.66699 -13.5 3c-10 2.66699 -19.167 7.83398 -27.5 15.501s-12.5 18.834 -12.5 33.501c0 12 3.16699 22 9.5 30s15.5 12 27.5 12c7.33301 0 13.166 -0.833008 17.499 -2.5s8.5 -4.16699 12.5 -7.5
c0.666992 0 1.33398 -0.333008 2.00098 -1l2 -2l1.5 -1.5c0.333008 -0.333008 0.833008 -0.5 1.5 -0.5c3.33301 -2 7 -4 11 -6s9.33301 -3 16 -3c14 0 24.833 4 32.5 12s14.5 18.667 20.5 32c0 0.666992 0.166992 1.33398 0.5 2.00098s0.833008 1.33398 1.5 2.00098l30 65
l-119 294c-8 19.333 -17 34.333 -27 45s-22.667 15.667 -38 15h-2h-3v30h184v-30h-10h-3.5h-2.5c-6 -1.33301 -11.333 -3.83301 -16 -7.5s-7 -9.83398 -7 -18.501c0 -2.66699 0.333008 -5.16699 1 -7.5s1.33398 -4.83301 2.00098 -7.5
c0.666992 -1.33301 1.33398 -2.83301 2.00098 -4.5s1.33398 -3.5 2.00098 -5.5c0 -0.666992 0.333008 -1.5 1 -2.5s1 -1.83301 1 -2.5l79 -198l88 195c0 0.666992 0.166992 1.33398 0.5 2.00098l1.5 3c0.666992 1.33301 1.16699 3 1.5 5s0.833008 4 1.5 6
s1.16699 4.16699 1.5 6.5s0.5 4.5 0.5 6.5c0 9.33301 -3.33301 17 -10 23s-16.334 8.33301 -29.001 7v30h135v0zM229.997 483.997c-42.667 0 -76.4951 9.66699 -101.495 29s-37.5 40.666 -37.5 63.999c0 2.66699 0.166992 5.5 0.5 8.5s1.16602 5.83301 2.49902 8.5
c4 11.333 11.667 21.833 23 31.5s26.666 14.5 45.999 14.5c10.667 0 20.167 -2.83301 28.5 -8.5s12.5 -14.167 12.5 -25.5c0 -8.66699 -3.16699 -15.167 -9.5 -19.5s-13.166 -6.5 -20.499 -6.5h-5c-1.33301 0 -2.66602 0.333008 -3.99902 1c-2 0 -3.66699 0.333008 -5 1
s-3 1.33398 -5 2.00098c-0.666992 0 -1.33398 0.166992 -2.00098 0.5s-1.33398 0.833008 -2.00098 1.5c-2 1.33301 -4.33301 2.33301 -7 3s-5.66699 1 -9 1c-6 0 -10.333 -1.5 -13 -4.5s-4 -6.16699 -4 -9.5c0 -2.66699 0.5 -5.16699 1.5 -7.5s2.5 -4.83301 4.5 -7.5
c6 -8.66699 17.667 -16.5 35 -23.5s41.666 -10.5 72.999 -10.5c33.333 0 60.833 5 82.5 15s32.5 21.333 32.5 34c0 3.33301 -1.16699 6.33301 -3.5 9s-6.83301 4 -13.5 4c-2.66699 0 -5.16699 -0.166992 -7.5 -0.5s-4.5 -0.833008 -6.5 -1.5
c-1.33301 -0.666992 -2.5 -1.16699 -3.5 -1.5s-2.16699 -0.833008 -3.5 -1.5c-0.666992 -0.666992 -1.5 -1.16699 -2.5 -1.5s-1.83301 -0.5 -2.5 -0.5c-1.33301 -0.666992 -2.83301 -1.16699 -4.5 -1.5s-4.5 -0.5 -8.5 -0.5c-8 0 -14.5 2 -19.5 6s-8.5 8.33301 -10.5 13
c0 1.33301 -0.166992 2.5 -0.5 3.5s-0.5 2.16699 -0.5 3.5s0.166992 3 0.5 5s0.833008 3.66699 1.5 5c2 6 6.33301 11.5 13 16.5s15.667 7.5 27 7.5c19.333 0 34.666 -4.83301 45.999 -14.5s19 -20.167 23 -31.5c1.33301 -2.66699 2.16602 -5.5 2.49902 -8.5
s0.5 -5.83301 0.5 -8.5c0 -4 -0.5 -8 -1.5 -12s-2.16699 -8.33301 -3.5 -13c-7.33301 -16.667 -22.333 -32.167 -45 -46.5s-54 -21.5 -94 -21.5v0z" />
    <glyph glyph-name="endash" unicode="&#xa3;" horiz-adv-x="350" 
d="M93 700l204.999 0.00195312v-34c-18 -2 -31 -7.66699 -39 -17s-13.333 -19.333 -16 -30c-2 -6.66699 -3.16699 -12.834 -3.5 -18.501s-0.5 -10.834 -0.5 -15.501v-490c-0.666992 -70 -13 -123.5 -37 -160.5s-50.333 -62.167 -79 -75.5
c-10.667 -5.33301 -21.334 -9.16602 -32.001 -11.499s-20.667 -3.5 -30 -3.5c-23.333 0 -41.666 4.83301 -54.999 14.5s-22.333 20.167 -27 31.5c-1.33301 3.33301 -2.33301 6.5 -3 9.5s-1 6.16699 -1 9.5c0 12 3.66699 23 11 33s17.333 15 30 15h1.5h1.5
c9.33301 -0.666992 18 -3.83398 26 -9.50098s12 -14.5 12 -26.5c0 -3.33301 -0.166992 -5.83301 -0.5 -7.5s-0.5 -2.83398 -0.5 -3.50098v-1.5v-0.5c-0.666992 -0.666992 -1 -1.5 -1 -2.5v-2.5c0 -1.33301 0.166992 -2.66602 0.5 -3.99902s0.833008 -2.66602 1.5 -3.99902
c2 -2.66699 4.83301 -5.16699 8.5 -7.5s9.16699 -3.5 16.5 -3.5c24 0 40.833 12.5 50.5 37.5s15.834 52.167 18.501 81.5c0.666992 9.33301 1.16699 18.5 1.5 27.5s0.5 17.833 0.5 26.5v528c0 4.66699 -0.166992 10 -0.5 16s-1.5 12.333 -3.5 19
c-2.66699 10.667 -8.16699 20.667 -16.5 30s-21.5 14.666 -39.5 15.999v34v0z" />
    <glyph glyph-name="quotedblleft" unicode="&#xa4;" horiz-adv-x="593" 
d="M555 620l37.999 -38.002l-95 -93c5.33301 -6 10.166 -12.167 14.499 -18.5s8.16602 -12.5 11.499 -18.5c14 -24 23.167 -47.333 27.5 -70s6.5 -42.334 6.5 -59.001s-2.16699 -36.334 -6.5 -59.001s-13.5 -46 -27.5 -70c-3.33301 -6 -7.16602 -12.167 -11.499 -18.5
s-9.16602 -12.5 -14.499 -18.5l95 -93l-38 -38l-93 95c-6 -5.33301 -12.167 -10.166 -18.5 -14.499s-12.5 -8.16602 -18.5 -11.499c-24 -14 -47.333 -23.167 -70 -27.5s-42.334 -6.5 -59.001 -6.5c-16 0 -34.333 1.83301 -55 5.5s-41.667 11.167 -63 22.5
c-8 4 -16 8.66699 -24 14s-15.667 11.333 -23 18l-94 -95l-37 38l94 93c-13.333 16.667 -24.333 33.834 -33 51.501s-15.334 35.834 -20.001 54.501c-2 10 -3.66699 20 -5 30s-2 20 -2 30s0.666992 20 2 30s3 20 5 30c4.66699 18 11.334 36.167 20.001 54.5
s19.667 35.5 33 51.5l-94 93l37 38l94 -95c16.667 14 34.334 25.333 53.001 34s37.334 15.334 56.001 20.001c9.33301 2 18.666 3.5 27.999 4.5s18.666 1.5 27.999 1.5c10 0 20 -0.666992 30 -2s20 -3 30 -5c18.667 -4.66699 36.834 -11.334 54.501 -20.001
s34.834 -19.667 51.501 -33l93 95v0zM86.999 322.998c0 -64 20.834 -115.165 62.501 -153.498s87.5 -58.833 137.5 -61.5h5h4h5.5h5.5c50 3.33301 95.667 24.166 137 62.499s62 89.166 62 152.499c0 64 -21.333 115.5 -64 154.5s-89.334 59.167 -140.001 60.5h-3.5h-2.5
h-1.5h-1.5c-51.333 -0.666992 -98.5 -20.667 -141.5 -60s-64.5 -91 -64.5 -155v0z" />
    <glyph glyph-name="emdash" unicode="&#xa5;" horiz-adv-x="543" 
d="M52 700l261.998 -0.000976562c24.667 0 45.834 1.83301 63.501 5.5s33.834 9.83398 48.501 18.501c16 10 29.167 22.333 39.5 37s18.5 30 24.5 46c1.33301 3.33301 2.5 6.83301 3.5 10.5s1.83301 7.16699 2.5 10.5h34v-162h-333v-551c0 -29.333 5.5 -50 16.5 -62
s25.167 -18.333 42.5 -19v-34h-204v34c22 2.66699 37.333 10.667 46 24s13 32.333 13 57v470c0 22 -4 41 -12 57s-23.667 24 -47 24v34v0z" />
    <glyph glyph-name="circumflex" unicode="&#xa6;" horiz-adv-x="245" 
d="M70 45c0 15.333 5.5 27.833 16.5 37.5s23.167 14.5 36.5 14.5c16 0 28.667 -5.33301 38 -16s14 -22.667 14 -36s-4.83301 -25.333 -14.5 -36s-22.167 -16 -37.5 -16c-13.333 0 -25.5 4.5 -36.5 13.5s-16.5 21.833 -16.5 38.5v0zM70 340
c0 2 0.164062 3.83203 0.49707 5.49902s0.5 3.5 0.5 5.5c2.66699 10.667 8.33398 20.334 17.001 29.001s20.334 13 35.001 13c15.333 0 27.666 -5.16699 36.999 -15.5s14.333 -21.833 15 -34.5v-1.5v-1.5c0 -12.667 -4.66699 -24.5 -14 -35.5s-22 -16.5 -38 -16.5
c-15.333 0 -27.666 4.83301 -36.999 14.5s-14.666 20.5 -15.999 32.5v2.5v2.5v0z" />
    <glyph glyph-name="scaron" unicode="&#xa7;" horiz-adv-x="558" 
d="M284 708c42.667 0 79.8301 -11.334 111.497 -34.001s47.5 -52 47.5 -88c0 -16 -4.16699 -29.333 -12.5 -40s-20.166 -16 -35.499 -16c-14 0 -25.667 4 -35 12s-14 19 -14 33c0 10 0.5 17.333 1.5 22s1.83301 8 2.5 10l0.5 1
c0.333008 0.666992 0.833008 1.33398 1.5 2.00098s1.16699 1.83398 1.5 3.50098s0.5 4.16699 0.5 7.5c0 1.33301 -0.166992 2.83301 -0.5 4.5s-0.833008 3.16699 -1.5 4.5c-3.33301 10 -11.5 19 -24.5 27s-29.833 12 -50.5 12h-4h-4c-19.333 -2 -37 -8.83301 -53 -20.5
s-24 -27.167 -24 -46.5c0 -20.667 6.83301 -39.834 20.5 -57.501s28.834 -33.167 45.501 -46.5c0.666992 0 1.16699 -0.166992 1.5 -0.5l1.5 -1.5l109 -88l9.5 -7.5l9.5 -7.5c24.667 -20.667 47.334 -43.5 68.001 -68.5s31 -55.167 31 -90.5
c0 -14.667 -3.16699 -31.334 -9.5 -50.001s-18.166 -37.667 -35.499 -57c-8 -8 -17.333 -16.333 -28 -25s-23 -17 -37 -25c12.667 -12.667 23.5 -28.167 32.5 -46.5s13.5 -39.5 13.5 -63.5c0 -44 -16.167 -80 -48.5 -108s-69.166 -42 -110.499 -42
c-3.33301 0 -6.83301 0.166992 -10.5 0.5s-7.5 0.5 -11.5 0.5c-34 3.33301 -65 14.833 -93 34.5s-42 47.834 -42 84.501v6.5c0 2.33301 0.333008 4.5 1 6.5c2 14.667 7.16699 27.667 15.5 39s20.833 17 37.5 17h2.5h2.5c12 -1.33301 22.833 -5.66602 32.5 -12.999
s14.5 -19 14.5 -35c0 -8 -0.666992 -14.333 -2 -19s-2.66602 -8.66699 -3.99902 -12c-0.666992 -0.666992 -1.16699 -1.5 -1.5 -2.5s-0.833008 -1.83301 -1.5 -2.5c-0.666992 -2.66699 -1.5 -5.5 -2.5 -8.5s-1.5 -6.5 -1.5 -10.5v-3.5c0 -1 0.333008 -2.16699 1 -3.5
c2 -10 8.66699 -19.167 20 -27.5s28 -12.5 50 -12.5c3.33301 0 6.66602 0.166992 9.99902 0.5s6.66602 0.833008 9.99902 1.5c17.333 3.33301 33 11.333 47 24s21 31 21 55s-7.66699 44.167 -23 60.5s-32 32.166 -50 47.499l-0.5 0.5l-0.5 0.5
c-2 1.33301 -3.83301 2.83301 -5.5 4.5s-3.5 3.16699 -5.5 4.5l-130 110c-24.667 21.333 -43.334 43 -56.001 65s-19 47.333 -19 76c0 26 7 51.667 21 77s42 49.666 84 72.999c-7.33301 8.66699 -13.833 17.5 -19.5 26.5s-10.5 18.5 -14.5 28.5s-7 20.167 -9 30.5
s-3 19.833 -3 28.5c0 34.667 12.667 66.334 38 95.001s64.333 43 117 43v0zM202.996 429.999c-0.666992 -0.666992 -1.5 -1.16602 -2.5 -1.49902s-1.83301 -0.833008 -2.5 -1.5c-16.667 -9.33301 -31.667 -20.833 -45 -34.5s-20 -29.834 -20 -48.501
c0 -19.333 5.16699 -36.5 15.5 -51.5s21.5 -28.167 33.5 -39.5c4 -4 8 -7.66699 12 -11l12 -10l148 -127c19.333 12.667 35.666 26.5 48.999 41.5s20 32.833 20 53.5c0 12.667 -2.66699 24.5 -8 35.5s-12.666 21.833 -21.999 32.5c-7.33301 8 -15.5 16 -24.5 24l-29.5 25
l-136 113v0z" />
    <glyph glyph-name="H" unicode="&#xa8;" horiz-adv-x="655" 
d="M52 700l394 0.000976562h22c10.667 0 22 0.666992 34 2c4.66699 0 9.16699 0.333008 13.5 1l12.5 2c1.33301 0 2.83301 0.166992 4.5 0.5s3.16699 0.5 4.5 0.5l14.5 2c5 0.666992 11.5 0.666992 19.5 0v-133h-34c-9.33301 36 -27.333 59.333 -54 70s-60.667 16 -102 16
h-183v-287h125h12c4 0 8 0.333008 12 1c12.667 1.33301 24.5 5.5 35.5 12.5s18.5 21.167 22.5 42.5h33v-151h-33c-8 28 -17.667 44.333 -29 49s-29 7 -53 7h-125v-296h205c46.667 0 89.5 6.66699 128.5 20s60.167 43.666 63.5 90.999h34l-11 -150h-566v34
c21.333 2 36.666 10 45.999 24s14 33 14 57v470c0 25.333 -4.16699 45 -12.5 59s-24.166 21.333 -47.499 22v34v0zM145 824.001c0 16.667 6.16699 31.833 18.5 45.5s27.833 20.5 46.5 20.5h2.5h2.5c15.333 -1.33301 29.333 -8 42 -20s19 -27.333 19 -46
s-6.33301 -34 -19 -46s-26.667 -18.667 -42 -20h-2.5h-2.5c-18 0 -33 6.33301 -45 19s-18.667 26.667 -20 42v2.5v2.5v0zM391 824c0 18.667 6.33301 34 19 46s26.667 18.667 42 20h2.5h2.5c17.333 0 32.5 -6 45.5 -18s19.5 -28 19.5 -48s-6.5 -36 -19.5 -48
s-28.167 -18 -45.5 -18h-2.5h-2.5c-15.333 1.33301 -29.333 8 -42 20s-19 27.333 -19 46v0z" />
    <glyph glyph-name="I" unicode="&#xa9;" horiz-adv-x="795" 
d="M70 314l0.000976562 8.5v8.5c4.66699 77.333 36.334 148.5 95.001 213.5s136 97.5 232 97.5s173.5 -32.5 232.5 -97.5s90.833 -136.167 95.5 -213.5v-8.5v-8.5v-9.5c0 -3 -0.333008 -6.16699 -1 -9.5c-4.66699 -77.333 -36.334 -147.833 -95.001 -211.5
s-136 -95.5 -232 -95.5c-95.333 0 -172.333 31.833 -231 95.5s-90.334 134.167 -95.001 211.5c-0.666992 3.33301 -1 6.5 -1 9.5v9.5v0zM109.001 314c0 -86 29.333 -155.167 88 -207.5s123.334 -79.166 194.001 -80.499h3.5h2.5h2.5h3.5
c70.667 1.33301 135.334 28.166 194.001 80.499s88 121.5 88 207.5c0 86.667 -29.333 156.167 -88 208.5s-123.334 79.166 -194.001 80.499h-3.5h-2.5h-2.5h-3.5c-70.667 -1.33301 -135.334 -28.166 -194.001 -80.499s-88 -121.833 -88 -208.5v0zM524.001 218
l13.999 -15.001c-2.66699 -2 -4.66699 -3.66699 -6 -5l-4 -4v0v0l-3.5 -3.5l-3.5 -3.5l-9.5 -9.5c-3.66699 -3.66699 -8.16699 -7.16699 -13.5 -10.5c-9.33301 -7.33301 -21.833 -13.833 -37.5 -19.5s-35.5 -8.5 -59.5 -8.5c-44.667 0 -79.167 10 -103.5 30
s-42.166 42 -53.499 66c-6.66699 15.333 -11.334 30 -14.001 44s-4 25.667 -4 35c0 10 1.16699 21.5 3.5 34.5s6.5 26.5 12.5 40.5c10.667 26.667 28.167 51.167 52.5 73.5s58.166 33.5 101.499 33.5c5.33301 0 12 -0.333008 20 -1s16.333 -1.66699 25 -3l17.5 -4
c5.66699 -1.33301 10.834 -3 15.501 -5c6 -2 11 -3.33301 15 -4s7.66699 -1 11 -1c2 0 4 0.666992 6 2s3.66699 2.66602 5 3.99902h11v-77h-22c-5.33301 14 -12.666 25.167 -21.999 33.5s-19 14.833 -29 19.5c-10 4 -19.5 6.66699 -28.5 8s-16.167 2 -21.5 2
c-6 0 -13.333 -1.16699 -22 -3.5s-17.667 -6.5 -27 -12.5c-15.333 -9.33301 -29.333 -24.833 -42 -46.5s-19 -52.5 -19 -92.5c0 -6.66699 0.5 -16.5 1.5 -29.5s3.83301 -26.833 8.5 -41.5c6 -19.333 16.667 -37 32 -53s38.666 -24 69.999 -24
c20.667 0 37.5 2.16699 50.5 6.5s25.167 9.83301 36.5 16.5c2 1.33301 3.83301 2.5 5.5 3.5s3.5 2.16699 5.5 3.5s3.83301 2.5 5.5 3.5s3.16699 1.83301 4.5 2.5c2.66699 2 4.83398 3.83301 6.50098 5.5l5.5 5.5c0.666992 0.666992 1.16699 1.33398 1.5 2.00098
s0.833008 1.33398 1.5 2.00098v0z" />
    <glyph glyph-name="J" unicode="&#xaa;" horiz-adv-x="689" 
d="M625 140l25.0078 -18c-30.667 -36.667 -69.5 -67.334 -116.5 -92.001s-99.5 -37 -157.5 -37c-106.667 0 -189.5 33.667 -248.5 101s-88.5 151.333 -88.5 252c0 93.333 28.667 177 86 251s138.666 111 243.999 111c20.667 0 40 -1.33301 58 -4s35.667 -6.33398 53 -11.001
c4.66699 -0.666992 9.5 -1.66699 14.5 -3l14.5 -4c22 -6 37.833 -9.83301 47.5 -11.5s17.5 -2.5 23.5 -2.5c3.33301 0 6.66602 0.833008 9.99902 2.5s6.66602 3.5 9.99902 5.5l2 2l2 2h15v-154h-30c-12.667 32.667 -28.834 58.167 -48.501 76.5s-39.834 32.5 -60.501 42.5
c-19.333 8 -38 13.333 -56 16s-33.333 4 -46 4c-6 0 -11.833 -0.333008 -17.5 -1l-17.5 -2c-50 -9.33301 -96 -38.166 -138 -86.499s-64.333 -118.166 -67 -209.499h5c10.667 13.333 20.834 24.166 30.501 32.499s19.5 14.833 29.5 19.5
c12.667 6.66699 25.667 10.834 39 12.501s27.333 2.5 42 2.5c16 0 29.667 -2.33301 41 -7s22 -10 32 -16l7.5 -5.5c2.33301 -1.66699 5.16602 -3.16699 8.49902 -4.5c2 -2 4.16699 -3.66699 6.5 -5s4.83301 -2.66602 7.5 -3.99902c21.333 -12 37.666 -19.667 48.999 -23
s18.666 -5 21.999 -5c14 0 25 2.83301 33 8.5s15 12.5 21 20.5c1.33301 2 2.33301 3.33301 3 4l2 2v1v0c0.666992 0 1.16699 0.333008 1.5 1s0.833008 1.33398 1.5 2.00098l27 -18c-18.667 -30.667 -38.834 -53.667 -60.501 -69s-48.167 -23 -79.5 -23
c-8.66699 0 -17 1.16699 -25 3.5s-16 4.83301 -24 7.5c-6 2 -11.667 4.16699 -17 6.5s-10.666 4.83301 -15.999 7.5l-32.5 16c-10.333 5.33301 -20.166 10 -29.499 14c-8.66699 3.33301 -17.334 6 -26.001 8s-18 3 -28 3c-18.667 0 -34.5 -6.83301 -47.5 -20.5
s-19.5 -31.167 -19.5 -52.5c0 -14 2 -31 6 -51s10.667 -40.667 20 -62c16 -36.667 40.833 -70 74.5 -100s78.834 -45 135.501 -45c11.333 0 22.666 0.666992 33.999 2s22.666 3.33301 33.999 6c34.667 7.33301 68.167 19.666 100.5 36.999s58.5 38.666 78.5 63.999v0z" />
    <glyph glyph-name="ampersand" unicode="&#xab;" horiz-adv-x="481" 
d="M222 19l-152 164l152 164l25 -20l-114 -144l114 -143l-25 -21v0zM385 19l-151 164l151 164l26 -20l-114 -144l114 -143l-26 -21v0z" />
    <glyph glyph-name="quotesingle" unicode="&#xac;" horiz-adv-x="691" 
d="M70 301v49h551v-26v-23v-104h-49v104h-502v0z" />
    <glyph glyph-name="daggerdbl" unicode="&#xad;" horiz-adv-x="368" 
d="M70 117l20.999 93.001h132h1.5h0.5h10c4 0 8.33301 0.666992 13 2c5.33301 1.33301 10.333 4 15 8s8.33398 9.66699 11.001 17h24l-18 -93h-135h-5h-4h-13.5c-3.66699 0 -7.16699 -1 -10.5 -3c-2.66699 -2 -5.66699 -4.83301 -9 -8.5s-7.33301 -8.83398 -12 -15.501h-21
v0z" />
    <glyph glyph-name="dagger" unicode="&#xae;" horiz-adv-x="795" 
d="M70 314l0.000976562 8.5v8.5c4.66699 77.333 36.334 148.5 95.001 213.5s136 97.5 232 97.5s173.5 -32.5 232.5 -97.5s90.833 -136.167 95.5 -213.5v-8.5v-8.5v-9.5c0 -3 -0.333008 -6.16699 -1 -9.5c-4.66699 -77.333 -36.334 -147.833 -95.001 -211.5
s-136 -95.5 -232 -95.5c-95.333 0 -172.333 31.833 -231 95.5s-90.334 134.167 -95.001 211.5c-0.666992 3.33301 -1 6.5 -1 9.5v9.5v0zM109.001 314c0 -86 29.333 -155.167 88 -207.5s123.334 -79.166 194.001 -80.499h3.5h2.5h2.5h3.5
c70.667 1.33301 135.334 28.166 194.001 80.499s88 121.5 88 207.5c0 86.667 -29.333 156.167 -88 208.5s-123.334 79.166 -194.001 80.499h-3.5h-2.5h-2.5h-3.5c-70.667 -1.33301 -135.334 -28.166 -194.001 -80.499s-88 -121.833 -88 -208.5v0zM273.001 484
l158.999 0.000976562c3.33301 0 9.83301 -0.5 19.5 -1.5s19.834 -3.5 30.501 -7.5c13.333 -4.66699 25.5 -12.667 36.5 -24s16.5 -28 16.5 -50c0 -3.33301 -0.166992 -6.66602 -0.5 -9.99902s-0.5 -7 -0.5 -11c-2.66699 -12.667 -8.5 -24.667 -17.5 -36
s-25.5 -20.666 -49.5 -27.999l68 -106l8 -13c2 -3.33301 4 -6 6 -8s4 -3.66699 6 -5s4.66699 -2.33301 8 -3c2 -0.666992 4.16699 -1.33398 6.5 -2.00098s4.83301 -1.33398 7.5 -2.00098v-21h-66l-90 149h-74v-99c0 -1.33301 0.166992 -3.33301 0.5 -6s1.5 -5.66699 3.5 -9
c1.33301 -2.66699 3.83301 -5.33398 7.5 -8.00098s8.5 -4.66699 14.5 -6v-21h-100v21c11.333 2 18.833 6.16699 22.5 12.5s5.5 14.833 5.5 25.5v215c0 12.667 -2 21.667 -6 27s-11.333 9 -22 11v16v0zM347 328.001h46.998c4 0 9.83301 0.333008 17.5 1
s15.834 2.33398 24.501 5.00098c12 3.33301 22.833 9.83301 32.5 19.5s14.5 24.5 14.5 44.5s-5.16699 34.333 -15.5 43s-21.833 14 -34.5 16c-6.66699 1.33301 -13.167 2.16602 -19.5 2.49902s-12.166 0.5 -17.499 0.5h-0.5h-1.5h-47v-132v0z" />
    <glyph glyph-name="macron" unicode="&#xaf;" horiz-adv-x="309" 
d="M256 700l0.000976562 -34c-14.667 -0.666992 -28.167 -6.66699 -40.5 -18s-18.5 -32.333 -18.5 -63v-470c0 -21.333 4.16699 -39.666 12.5 -54.999s24.166 -24 47.499 -26v-34h-206v34c23.333 2 39.166 10.667 47.499 26s12.5 33.666 12.5 54.999v470
c0 4.66699 -0.166992 9.5 -0.5 14.5s-1.16602 9.83301 -2.49902 14.5c-2.66699 12 -8.16699 23.167 -16.5 33.5s-21.833 16.5 -40.5 18.5v34h205v0zM69.001 854c15.333 0 29.001 -5.50098 41.001 -16.501s18 -25.167 18 -42.5v-2.5v-2.5
c-1.33301 -14 -7.33301 -26.667 -18 -38s-24.334 -17 -41.001 -17c-17.333 0 -31.5 6.33301 -42.5 19s-16.5 26.334 -16.5 41.001v1.5v1.5c0.666992 14 6.5 26.833 17.5 38.5s24.833 17.5 41.5 17.5v0zM240.002 853.999c16.667 0 30.501 -5.83203 41.501 -17.499
s16.833 -24.5 17.5 -38.5v-1.5v-1.5c0 -14.667 -5.5 -28.334 -16.5 -41.001s-25.167 -19 -42.5 -19c-16.667 0 -30.334 5.66699 -41.001 17s-16.667 24 -18 38v2.5v2.5c0 17.333 6 31.5 18 42.5s25.667 16.5 41 16.5v0z" />
    <glyph glyph-name="zero" unicode="&#xb0;" horiz-adv-x="340" 
d="M70 608l0.00195312 2.5v3.5c1.33301 23.333 11.166 44.833 29.499 64.5s41.833 29.5 70.5 29.5s52.167 -9.83301 70.5 -29.5s28.166 -41.167 29.499 -64.5v-3.5v-2.5c0 -24.667 -9.16699 -47.334 -27.5 -68.001s-42.5 -31 -72.5 -31s-54.167 10.333 -72.5 31
s-27.5 43.334 -27.5 68.001v0zM107.002 608c0 -17.333 6.5 -32.166 19.5 -44.499s27.5 -18.5 43.5 -18.5c16.667 0 30.834 5.83301 42.501 17.5s18.167 24.167 19.5 37.5c0.666992 1.33301 1 2.66602 1 3.99902v4c0 16.667 -5.83301 31.334 -17.5 44.001
s-26.834 19 -45.501 19s-33.667 -6.33301 -45 -19s-17.333 -26.334 -18 -41.001v-1.5v-1.5v0z" />
    <glyph glyph-name="at" unicode="&#xb1;" horiz-adv-x="497" 
d="M0 52v43h497v-43h-497v0zM270 164h-42v140h-228v42h228v181h42v-181h227v-42h-227v-140v0z" />
    <glyph glyph-name="P" unicode="&#xb2;" horiz-adv-x="308" 
d="M256 700v-34.001c-23.333 -1.33301 -39 -10.166 -47 -26.499s-12 -34.5 -12 -54.5v-470c0 -22 4.16699 -40.333 12.5 -55s23.833 -23.334 46.5 -26.001v-34h-204v34c23.333 2.66699 39 11.334 47 26.001s12 33 12 55v470c0 24 -4.5 43 -13.5 57s-24.167 22 -45.5 24v34
h204v0z" />
    <glyph glyph-name="S" unicode="&#xb3;" horiz-adv-x="214" 
d="M26 385h116.999v-284c0 -20.667 2.83301 -37.5 8.5 -50.5s17.834 -20.167 36.501 -21.5v-29h-162v29c19.333 2.66699 31.5 10.5 36.5 23.5s7.5 29.167 7.5 48.5v182c0 22 -2.5 38.5 -7.5 49.5s-17.167 18.833 -36.5 23.5v29v0zM46.999 565c0 12 4.66699 22.998 14 32.998
s21 15 35 15c12 0 23 -4.16699 33 -12.5s15 -20.166 15 -35.499c0 -14.667 -5 -26.5 -15 -35.5s-21 -13.5 -33 -13.5c-12.667 0 -23.5 4.33301 -32.5 13s-14.167 18.334 -15.5 29.001c-0.666992 1.33301 -1 2.5 -1 3.5v3.5v0z" />
    <glyph glyph-name="T" unicode="&#xb4;" horiz-adv-x="340" 
d="M26 385h158c15.333 0 29.5 1.16699 42.5 3.5s25.5 8.5 37.5 18.5c6.66699 5.33301 12.167 12 16.5 20s8.83301 19.333 13.5 34c0.666992 2 1.33398 4.33301 2.00098 7l2 8h29v-122h-183v-253c0 -18.667 3 -35.5 9 -50.5s19.333 -22.167 40 -21.5v-29h-167v29
c19.333 1.33301 31.666 8.5 36.999 21.5s8 29.833 8 50.5v182c0 21.333 -2.5 38 -7.5 50s-17.5 19.667 -37.5 23v29v0z" />
    <glyph glyph-name="U" unicode="&#xb5;" horiz-adv-x="407" 
d="M341 386l-0.00585938 -275v-14.5c0 -5.66699 0.666992 -11.5 2 -17.5c1.33301 -11.333 4.5 -21.833 9.5 -31.5s13.5 -14.5 25.5 -14.5c3.33301 0 6.83301 0.333008 10.5 1s7.5 2 11.5 4l7 -11c-1.33301 -2 -2.83301 -4 -4.5 -6s-3.5 -3.66699 -5.5 -5
c-6.66699 -7.33301 -14 -12.833 -22 -16.5s-18.667 -5.5 -32 -5.5c-18.667 0 -32.667 5 -42 15s-15.666 21 -18.999 33c-3.33301 10 -5.16602 19.167 -5.49902 27.5s-0.5 14.5 -0.5 18.5c-10.667 -25.333 -24.334 -47.5 -41.001 -66.5s-38.667 -28.5 -66 -28.5
c-5.33301 0 -13 0.666992 -23 2s-20.333 4.33301 -31 9c-9.33301 4.66699 -18.166 11.334 -26.499 20.001s-15.5 20 -21.5 34c0 -10 0.5 -20.833 1.5 -32.5s2.83301 -23.834 5.5 -36.501c1.33301 -6.66699 3.16602 -13.667 5.49902 -21s4.5 -15 6.5 -23
c1.33301 -3.33301 2.5 -7 3.5 -11s2.16699 -7.66699 3.5 -11c2.66699 -9.33301 4.83398 -18.5 6.50098 -27.5s2.5 -17.833 2.5 -26.5c0 -19.333 -3.16699 -33.333 -9.5 -42s-13.166 -14.334 -20.499 -17.001c-4.66699 -1.33301 -9.16699 -2.16602 -13.5 -2.49902
s-7.83301 -0.5 -10.5 -0.5h-0.5h-0.5c-2.66699 0 -5.66699 0.166992 -9 0.5s-6.66602 1.16602 -9.99902 2.49902c-6.66699 2.66699 -13 8.16699 -19 16.5s-9 21.833 -9 40.5c0 11.333 0.5 21 1.5 29s2.16699 15.667 3.5 23c0.666992 4 1.5 8.16699 2.5 12.5
s2.16699 8.83301 3.5 13.5c3.33301 10.667 6.16602 22.834 8.49902 36.501s4.83301 33.167 7.5 58.5c1.33301 16 2.5 32 3.5 48s1.5 32 1.5 48v250h73v-210c0 -40 5.33301 -68.833 16 -86.5s22.334 -29.167 35.001 -34.5c4.66699 -2 9.33398 -3.33301 14.001 -4s9 -1 13 -1
c3.33301 0 6.5 0.333008 9.5 1s6.16699 2 9.5 4c16.667 8 31.834 26.5 45.501 55.5s20.5 66.833 20.5 113.5v162h73v0z" />
    <glyph glyph-name="V" unicode="&#xb6;" horiz-adv-x="605" 
d="M244 -197v626h-17.5c-5.66699 0 -11.5 0.333008 -17.5 1c-34.667 4 -66.5 16.5 -95.5 37.5s-43.5 57.5 -43.5 109.5c0 44.667 16 75.5 48 92.5s69 25.5 111 25.5h306v-39h-55v-853h-60v853h-116v-853h-60v0z" />
    <glyph glyph-name="quoteleft" unicode="&#xb8;" horiz-adv-x="386" 
d="M360 77c-19.333 -24.667 -42.6699 -44.834 -70.0029 -60.501s-55.666 -23.5 -84.999 -23.5c-6.66699 0 -13.667 0.333008 -21 1s-14.333 1.66699 -21 3c-34.667 6.66699 -66.167 23.834 -94.5 51.501s-42.5 71.167 -42.5 130.5c0 70 17.833 123.167 53.5 159.5
s76.5 54.5 122.5 54.5c48.667 0 85.834 -17.333 111.501 -52s37.834 -74 36.501 -118h-239c0 -2 -0.166992 -3.83301 -0.5 -5.5s-0.5 -3.5 -0.5 -5.5c-2 -44.667 3.5 -85.667 16.5 -123s43.5 -56 91.5 -56c23.333 0 46 6.16699 68 18.5s40.667 26.5 56 42.5l18 -17v0z
M270.996 254c0 6 -0.167969 13.167 -0.500977 21.5s-1.83301 17.166 -4.5 26.499c-3.33301 14.667 -10.333 28.334 -21 41.001s-26.667 19 -48 19c-3.33301 0 -6.66602 -0.166992 -9.99902 -0.5s-7 -1.16602 -11 -2.49902c-15.333 -4 -29.5 -13.833 -42.5 -29.5
s-19.833 -40.834 -20.5 -75.501h158v0zM66.9951 572c0 13.333 4.33203 24.833 12.999 34.5s20.667 14.5 36 14.5c12.667 0 22.834 -3.5 30.501 -10.5s12.834 -14.833 15.501 -23.5c1.33301 -2.66699 2.16602 -5.16699 2.49902 -7.5s0.5 -4.83301 0.5 -7.5v-3.5
c0 -1 -0.333008 -2.16699 -1 -3.5c-1.33301 -10.667 -6.33301 -20.334 -15 -29.001s-19.667 -13 -33 -13c-2.66699 0 -5.16699 0.166992 -7.5 0.5s-4.83301 1.16602 -7.5 2.49902c-8.66699 2.66699 -16.5 7.83398 -23.5 15.501s-10.5 17.834 -10.5 30.501v0zM219.994 572
c0 2.66699 0.166016 5.16699 0.499023 7.5s1.16602 4.83301 2.49902 7.5c2.66699 8.66699 7.83398 16.5 15.501 23.5s17.834 10.5 30.501 10.5c15.333 0 27.333 -4.83301 36 -14.5s13 -21.167 13 -34.5c0 -12.667 -3.5 -22.834 -10.5 -30.501s-14.833 -12.834 -23.5 -15.501
c-2.66699 -1.33301 -5.16699 -2.16602 -7.5 -2.49902s-4.83301 -0.5 -7.5 -0.5c-12.667 0 -23.5 4.33301 -32.5 13s-14.167 18.334 -15.5 29.001c-0.666992 1.33301 -1 2.5 -1 3.5v3.5v0z" />
    <glyph glyph-name="one" unicode="&#xb9;" horiz-adv-x="1118" 
d="M138 700l167.002 -0.000976562l303 -511h6v391c0 32 7.83301 61.333 23.5 88s45.5 40 89.5 40c29.333 0 51.666 -6.16699 66.999 -18.5s23 -26.166 23 -41.499v-3.5c0 -1 -0.333008 -2.16699 -1 -3.5c-1.33301 -9.33301 -6 -18 -14 -26s-19 -12 -33 -12
c-14.667 0 -24.5 2.16699 -29.5 6.5s-8.83301 9.5 -11.5 15.5v0v1c-2.66699 4.66699 -6.16699 9.16699 -10.5 13.5s-12.833 6.5 -25.5 6.5c-2 0 -4.33301 -0.166992 -7 -0.5s-5.33398 -1.16602 -8.00098 -2.49902c-6 -2.66699 -11.5 -9 -16.5 -19s-7.5 -26.667 -7.5 -50
v-582h-21l-361 608h-6v-464c0 -29.333 -1.66699 -50.833 -5 -64.5s-8.66602 -25.834 -15.999 -36.501c0 -0.666992 -0.166992 -1.16699 -0.5 -1.5l-1.5 -1.5c-5.33301 -7.33301 -11 -13.333 -17 -18s-12 -8.33398 -18 -11.001c-12 -4.66699 -23.167 -7.5 -33.5 -8.5
s-17.833 -1.5 -22.5 -1.5h-0.5h-0.5c-22 0 -40.833 6 -56.5 18s-23.5 27.333 -23.5 46c0 12 4.16699 22.5 12.5 31.5s18.833 13.5 31.5 13.5c13.333 0 23.666 -2.16699 30.999 -6.5s13 -9.16602 17 -14.499l1.5 -3c0.333008 -0.666992 0.833008 -1.33398 1.5 -2.00098
c0.666992 -1.33301 1.66699 -2.83301 3 -4.5s2.66602 -3.16699 3.99902 -4.5c2.66699 -3.33301 5.83398 -6.33301 9.50098 -9s7.83398 -4 12.501 -4c10 0 17.167 4.33301 21.5 13s7.16602 18 8.49902 28c1.33301 6.66699 2 12.834 2 18.501v14.5v1.5v0.5v472
c0 27.333 -8.33301 44.333 -25 51s-37.667 11 -63 13v34v0zM795.002 53.999v68h220v-68h-220v0zM899.002 188.999c-26.667 0 -48.668 4.33301 -66.001 13s-31.666 19 -42.999 31c-2 2.66699 -4.5 5.66699 -7.5 9s-6.16699 7.33301 -9.5 12
c-5.33301 9.33301 -10.5 20.666 -15.5 33.999s-7.5 29 -7.5 47c0 38.667 13.5 72.834 40.5 102.501s63.167 44.5 108.5 44.5s81.5 -14.833 108.5 -44.5s40.5 -63.834 40.5 -102.501c0 -18 -2.5 -33.667 -7.5 -47s-10.167 -24.666 -15.5 -33.999
c-3.33301 -4.66699 -6.5 -8.66699 -9.5 -12s-5.5 -6.33301 -7.5 -9c-11.333 -12 -25.5 -22.333 -42.5 -31s-39.167 -13 -66.5 -13v0zM899.001 457.999c-29.333 0 -48.5 -8.83301 -57.5 -26.5s-13.5 -49.834 -13.5 -96.501s5.16699 -78.667 15.5 -96s28.833 -26 55.5 -26
c27.333 0 46 8.66699 56 26s15 49.333 15 96s-4.5 78.834 -13.5 96.501s-28.167 26.5 -57.5 26.5v0z" />
    <glyph glyph-name="G" unicode="&#xba;" horiz-adv-x="423" 
d="M362 389l-0.00488281 -109.005h-24c-10.667 27.333 -25.167 47.833 -43.5 61.5s-42.5 20.5 -72.5 20.5c-38 0 -66.667 -13.333 -86 -40s-28.333 -66 -27 -118h3c6.66699 7.33301 14.5 13.833 23.5 19.5s18.5 10.5 28.5 14.5c6.66699 2.66699 13.334 4.66699 20.001 6
s13 2 19 2c2 0 3.83301 -0.166992 5.5 -0.5s3.5 -0.5 5.5 -0.5c6.66699 -1.33301 13.834 -3.66602 21.501 -6.99902s16.167 -6.66602 25.5 -9.99902l27.5 -10c5.66699 -2 10.167 -3 13.5 -3c2 0 3.83301 0.166992 5.5 0.5s3.5 0.5 5.5 0.5l13.5 4
c4.33301 1.33301 7.83301 3 10.5 5l8 -16l-16.5 -14.5c-5 -4.33301 -10.167 -8.5 -15.5 -12.5c-7.33301 -5.33301 -14.833 -9.5 -22.5 -12.5s-16.167 -4.5 -25.5 -4.5c-5.33301 0 -10.666 0.833008 -15.999 2.5s-10.666 3.5 -15.999 5.5
c-2 0.666992 -3.83301 1.33398 -5.5 2.00098s-3.16699 1.33398 -4.5 2.00098l-13 5.5c-4 1.66699 -8 3.5 -12 5.5c-4.66699 1.33301 -9.33398 2.5 -14.001 3.5s-9.33398 1.5 -14.001 1.5c-3.33301 0 -7 -0.166992 -11 -0.5s-8.33301 -0.833008 -13 -1.5
c-8.66699 -2 -16.667 -5.66699 -24 -11s-11 -14 -11 -26c0 -33.333 11.5 -62 34.5 -86s49.833 -36 80.5 -36c10.667 0 22.834 1.16699 36.501 3.5s27.5 6.83301 41.5 13.5c10 4 19.667 9.33301 29 16s18.333 14.667 27 24l16 -18c-4 -4.66699 -8.16699 -9.16699 -12.5 -13.5
s-8.83301 -8.5 -13.5 -12.5c-26 -22.667 -51.167 -37 -75.5 -43s-45.166 -9 -62.499 -9c-50 0 -93.5 18.333 -130.5 55s-55.5 84.334 -55.5 143.001c0 10.667 0.833008 22 2.5 34s4.5 24 8.5 36c10 33.333 28.833 63.666 56.5 90.999s67.834 41 120.501 41
c10.667 0 20 -0.333008 28 -1s15.667 -1.66699 23 -3c4.66699 -0.666992 9.66699 -1.5 15 -2.5s11 -2.16699 17 -3.5l10.5 -2c3.66699 -0.666992 7.16699 -1 10.5 -1c6 0 11.167 0.833008 15.5 2.5s8.5 3.83398 12.5 6.50098h16v0z" />
    <glyph glyph-name="bracketleft" unicode="&#xbb;" horiz-adv-x="481" 
d="M96 19l-26 21l114 143l-114 144l26 20l151 -164l-151 -164v0zM259 19l-25 21l114 143l-114 144l25 20l152 -164l-152 -164v0z" />
    <glyph glyph-name="w" unicode="&#xbc;" horiz-adv-x="210" 
d="M11 385l144.004 -0.00390625v-361v-2.5v-3.5c-1.33301 -24 -3.33301 -47.833 -6 -71.5s-10.334 -46.5 -23.001 -68.5c-6.66699 -11.333 -14 -20.666 -22 -27.999s-16 -13.333 -24 -18c-11.333 -6 -22.333 -10 -33 -12s-19.334 -3 -26.001 -3
c-16.667 0 -29.667 3.66699 -39 11s-15.333 15.333 -18 24c-0.666992 1.33301 -1.16699 2.83301 -1.5 4.5s-0.5 3.5 -0.5 5.5c0 10 2.66699 17.333 8 22s11.333 7.33398 18 8.00098c1.33301 0.666992 2.66602 1 3.99902 1h4c5.33301 0 10.166 -1.16699 14.499 -3.5
s7.83301 -5.16602 10.5 -8.49902l3.5 -3.5l3.5 -3.5c0.666992 -0.666992 1.33398 -1.5 2.00098 -2.5s1.66699 -2.16699 3 -3.5c2 -2.66699 5 -5 9 -7s9.33301 -3 16 -3s11.667 1.66699 15 5s5.66602 7 6.99902 11c0.666992 2.66699 1.16699 5.33398 1.5 8.00098
s0.5 4.66699 0.5 6v395c0 28 -5.33301 47.667 -16 59s-29 16 -55 14v29v0zM58.0039 583.996l-0.000976562 3.49902c0 1 0.333008 2.16699 1 3.5c1.33301 10.667 6.5 20.334 15.5 29.001s19.833 13 32.5 13c12 0 23 -4.66699 33 -14s15 -21 15 -35
c0 -12 -4.16699 -23 -12.5 -33s-20.166 -15 -35.499 -15c-14.667 0 -26.5 5 -35.5 15s-13.5 21 -13.5 33v0z" />
    <glyph glyph-name="bracketright" unicode="&#xbd;" horiz-adv-x="541" 
d="M471 675l0.00292969 -157.999h-39c-10 26.667 -21 49 -33 67s-24 32.667 -36 44c-21.333 19.333 -41.666 31 -60.999 35s-33.333 6 -42 6c-40.667 0 -71.834 -11.333 -93.501 -34s-32.5 -49 -32.5 -79c0 -32 10.333 -57 31 -75s43.667 -31.667 69 -41
c10.667 -4 21.167 -7.5 31.5 -10.5l28.5 -8.5c12 -3.33301 25.667 -7.5 41 -12.5s31 -11.167 47 -18.5c32 -15.333 61.167 -37.333 87.5 -66s39.5 -68.334 39.5 -119.001v-6.5v-7.5c-4 -49.333 -25 -94.666 -63 -135.999s-87 -62 -147 -62c-12 0 -28.667 1.16699 -50 3.5
s-45.333 7.83301 -72 16.5c-4.66699 1.33301 -9.33398 2.83301 -14.001 4.5s-9 2.83398 -13 3.50098c-4.66699 1.33301 -9.33398 2.33301 -14.001 3s-9.33398 1 -14.001 1h-4h-3c-7.33301 -1.33301 -14.333 -3.83301 -21 -7.5s-11.667 -9.5 -15 -17.5h-33v216h34
c15.333 -52 43.833 -95.333 85.5 -130s86.167 -53 133.5 -55h4h4c38 0 68.833 13.333 92.5 40s36.5 56.334 38.5 89.001v4v4c0 36 -11 64.667 -33 86s-46.333 37.666 -73 48.999c-12 5.33301 -23.833 9.83301 -35.5 13.5s-22.167 6.83398 -31.5 9.50098
c-10.667 2.66699 -22.334 6 -35.001 10s-25.667 9 -39 15c-31.333 14 -60 34.5 -86 61.5s-39 65.5 -39 115.5c0 47.333 17.833 89.166 53.5 125.499s85.5 54.5 149.5 54.5c5.33301 0 10.666 -0.166992 15.999 -0.5s10.333 -0.833008 15 -1.5
c14.667 -2 29.334 -5.66699 44.001 -11s30.667 -13 48 -23c1.33301 -0.666992 2.5 -1.33398 3.5 -2.00098s2.16699 -1.33398 3.5 -2.00098c3.33301 -2 7 -3.66699 11 -5s8 -2 12 -2s7.33301 0.666992 10 2s5 3 7 5c1.33301 0.666992 2.33301 1.5 3 2.5
s1.33398 1.83301 2.00098 2.5l1.5 1.5l0.5 0.5h25v0z" />
    <glyph glyph-name="R" unicode="&#xbe;" horiz-adv-x="341" 
d="M172 393c31.333 0 55.6729 -5 73.0059 -15s29.333 -21 36 -33c2.66699 -4.66699 4.66699 -9.33398 6 -14.001s2 -9 2 -13c0 -8.66699 -2.33301 -15.334 -7 -20.001s-9.66699 -7.66699 -15 -9c-1.33301 0 -2.83301 -0.166992 -4.5 -0.5s-3.16699 -0.5 -4.5 -0.5
c-8.66699 0 -15.5 2 -20.5 6s-9.16699 8.66699 -12.5 14c-2 4 -3.5 8 -4.5 12s-1.5 6.33301 -1.5 7c0 1.33301 -0.5 3.66602 -1.5 6.99902s-2.5 6.66602 -4.5 9.99902c-3.33301 4.66699 -8.33301 8.83398 -15 12.501s-16.667 5.5 -30 5.5
c-22.667 0 -40.834 -5.5 -54.501 -16.5s-20.5 -25.5 -20.5 -43.5c0 -21.333 6.83301 -36.166 20.5 -44.499s31.167 -15.5 52.5 -21.5c2 -0.666992 3.83301 -1.16699 5.5 -1.5s3.5 -0.833008 5.5 -1.5l27.5 -7.5c11 -3 22.167 -6.83301 33.5 -11.5
c19.333 -8 37 -19.833 53 -35.5s24 -37.5 24 -65.5c0 -39.333 -15.5 -68.833 -46.5 -88.5s-64.833 -30.167 -101.5 -31.5h-3.5h-2.5c-40.667 0 -72.5 8.33301 -95.5 25s-35.833 35 -38.5 55c-0.666992 1.33301 -1 2.66602 -1 3.99902v4c0 2 0.166992 3.83301 0.5 5.5
s0.5 3.5 0.5 5.5c2 8 6.16699 15.167 12.5 21.5s15.166 9.5 26.499 9.5c12.667 0 22.167 -3.33301 28.5 -10s9.5 -14 9.5 -22c0 -4 -0.166992 -7.33301 -0.5 -10s-0.833008 -5 -1.5 -7l-0.5 -1l-0.5 -1c0 -1.33301 -0.166992 -2.83301 -0.5 -4.5s-0.5 -3.5 -0.5 -5.5
c0 -1.33301 0.166992 -2.83301 0.5 -4.5s0.833008 -3.5 1.5 -5.5c3.33301 -7.33301 10 -14 20 -20s24 -9 42 -9c24.667 0 43.167 5.16699 55.5 15.5s20.166 21.833 23.499 34.5c0.666992 2.66699 1.16699 5.33398 1.5 8.00098s0.5 5.33398 0.5 8.00098
c0 20 -7.33301 34.5 -22 43.5s-33.334 17.167 -56.001 24.5c-2.66699 0.666992 -5.33398 1.5 -8.00098 2.5s-5.33398 1.83301 -8.00098 2.5c-46.667 15.333 -77 32.5 -91 51.5s-21 39.833 -21 62.5c0 40.667 13.667 70.334 41 89.001s58 28 92 28v0z" />
    <glyph glyph-name="underscore" unicode="&#xbf;" horiz-adv-x="224" 
d="M36 385h116.999v-284c0 -20.667 2.83301 -37.5 8.5 -50.5s17.834 -20.167 36.501 -21.5v-29h-162v29c19.333 2.66699 31.5 10.5 36.5 23.5s7.5 29.167 7.5 48.5v182c0 22 -2.33301 38.5 -7 49.5s-17 18.833 -37 23.5v29v0zM-13.001 573
c0.666992 12.667 5.16797 23.832 13.501 33.499s19.833 14.5 34.5 14.5s26.167 -4.5 34.5 -13.5s13.166 -18.833 14.499 -29.5v-2.5v-2.5c0 -2 -0.166992 -4.16699 -0.5 -6.5s-0.833008 -4.5 -1.5 -6.5c-2.66699 -9.33301 -8 -17.666 -16 -24.999s-18.333 -11 -31 -11
c-12 0 -22.833 4.5 -32.5 13.5s-14.5 20.833 -14.5 35.5h-1zM123 572.998l0.00195312 2.50195v2.5c1.33301 10.667 6.16602 20.5 14.499 29.5s19.833 13.5 34.5 13.5c15.333 0 27.166 -4.83301 35.499 -14.5s12.5 -20.834 12.5 -33.501c0 -14.667 -5 -26.5 -15 -35.5
s-21 -13.5 -33 -13.5c-12.667 0 -23 3.66699 -31 11s-13.333 15.666 -16 24.999c-0.666992 2 -1.16699 4.16699 -1.5 6.5s-0.5 4.5 -0.5 6.5v0z" />
    <glyph glyph-name="grave" unicode="&#xc0;" horiz-adv-x="724" 
d="M379 708l269.999 -600.002c10 -22.667 20.833 -40.334 32.5 -53.001s25.834 -19.667 42.501 -21v-34h-196v34c17.333 2.66699 27.666 7.16699 30.999 13.5s5 14.833 5 25.5c0 4 -0.5 7.66699 -1.5 11s-2.16699 6.33301 -3.5 9c-0.666992 2 -1.33398 3.66699 -2.00098 5
l-2 4l-40 90h-348l-39 -85c-5.33301 -11.333 -8.66602 -19.5 -9.99902 -24.5s-2 -8.5 -2 -10.5s0.166992 -3.83301 0.5 -5.5s0.5 -3.5 0.5 -5.5c2 -5.33301 5.66699 -10.666 11 -15.999s14.333 -9 27 -11v-34h-155v34c12.667 0.666992 23.834 4.83398 33.501 12.501
s18.167 15.834 25.5 24.501l12.5 20c3.66699 6 6.16699 10.667 7.5 14l225 486l7 17c1.33301 3.33301 2 6 2 8c0 6 -2.5 10 -7.5 12s-10.5 3 -16.5 3v34c4.66699 1.33301 9.5 3 14.5 5s10.167 4.66699 15.5 8c6 3.33301 12 7 18 11s11.333 8.33301 16 13
c0.666992 0.666992 1.66699 1.5 3 2.5s2.33301 2.16699 3 3.5h20v0zM496.999 230.998l-148 329h-11l-153 -329h312v0z" />
    <glyph glyph-name="grave" unicode="&#x410;" horiz-adv-x="724" 
d="M379 708l269.999 -600.002c10 -22.667 20.833 -40.334 32.5 -53.001s25.834 -19.667 42.501 -21v-34h-196v34c17.333 2.66699 27.666 7.16699 30.999 13.5s5 14.833 5 25.5c0 4 -0.5 7.66699 -1.5 11s-2.16699 6.33301 -3.5 9c-0.666992 2 -1.33398 3.66699 -2.00098 5
l-2 4l-40 90h-348l-39 -85c-5.33301 -11.333 -8.66602 -19.5 -9.99902 -24.5s-2 -8.5 -2 -10.5s0.166992 -3.83301 0.5 -5.5s0.5 -3.5 0.5 -5.5c2 -5.33301 5.66699 -10.666 11 -15.999s14.333 -9 27 -11v-34h-155v34c12.667 0.666992 23.834 4.83398 33.501 12.501
s18.167 15.834 25.5 24.501l12.5 20c3.66699 6 6.16699 10.667 7.5 14l225 486l7 17c1.33301 3.33301 2 6 2 8c0 6 -2.5 10 -7.5 12s-10.5 3 -16.5 3v34c4.66699 1.33301 9.5 3 14.5 5s10.167 4.66699 15.5 8c6 3.33301 12 7 18 11s11.333 8.33301 16 13
c0.666992 0.666992 1.66699 1.5 3 2.5s2.33301 2.16699 3 3.5h20v0zM496.999 230.998l-148 329h-11l-153 -329h312v0z" />
    <glyph glyph-name="a" unicode="&#xc1;" horiz-adv-x="641" 
d="M52 700l360.003 0.00195312c11.333 0 20.833 0.333008 28.5 1l22.5 2c2.66699 0 5 0.166992 7 0.5s4.33301 0.5 7 0.5c3.33301 0 6.66602 0.166992 9.99902 0.5s7 0.833008 11 1.5c3.33301 0.666992 7.16602 1.16699 11.499 1.5s9.16602 0.5 14.499 0.5v-154h-34
c-10 35.333 -24.833 60.166 -44.5 74.499s-40.167 23.833 -61.5 28.5c-11.333 2 -22.333 3.16699 -33 3.5s-20.667 0.5 -30 0.5h-124v-248h138c75.333 0 131 -12.667 167 -38s60.667 -53 74 -83c5.33301 -14 9.16602 -27.833 11.499 -41.5s3.5 -25.834 3.5 -36.501
s-0.833008 -21.667 -2.5 -33s-4.5 -22.666 -8.5 -33.999c-11.333 -36.667 -33.666 -70.334 -66.999 -101.001s-80.333 -46 -141 -46h-320v34c23.333 2.66699 39.166 10.667 47.499 24s12.5 32.333 12.5 57v470c0 24.667 -4.16699 43.667 -12.5 57s-24.166 21.333 -47.499 24
v34v0zM197.003 39.002h106.002c10 0 22.167 0.5 36.5 1.5s29.166 3.5 44.499 7.5c26.667 8 51.167 23.833 73.5 47.5s33.5 62.5 33.5 116.5c0 46 -9.16699 80.333 -27.5 103s-38.5 38 -60.5 46c-14.667 6 -28.834 9.66699 -42.501 11s-24.5 2 -32.5 2h-131v-335v0z" />
    <glyph glyph-name="a" unicode="&#x411;" horiz-adv-x="641" 
d="M52 700l360.003 0.00195312c11.333 0 20.833 0.333008 28.5 1l22.5 2c2.66699 0 5 0.166992 7 0.5s4.33301 0.5 7 0.5c3.33301 0 6.66602 0.166992 9.99902 0.5s7 0.833008 11 1.5c3.33301 0.666992 7.16602 1.16699 11.499 1.5s9.16602 0.5 14.499 0.5v-154h-34
c-10 35.333 -24.833 60.166 -44.5 74.499s-40.167 23.833 -61.5 28.5c-11.333 2 -22.333 3.16699 -33 3.5s-20.667 0.5 -30 0.5h-124v-248h138c75.333 0 131 -12.667 167 -38s60.667 -53 74 -83c5.33301 -14 9.16602 -27.833 11.499 -41.5s3.5 -25.834 3.5 -36.501
s-0.833008 -21.667 -2.5 -33s-4.5 -22.666 -8.5 -33.999c-11.333 -36.667 -33.666 -70.334 -66.999 -101.001s-80.333 -46 -141 -46h-320v34c23.333 2.66699 39.166 10.667 47.499 24s12.5 32.333 12.5 57v470c0 24.667 -4.16699 43.667 -12.5 57s-24.166 21.333 -47.499 24
v34v0zM197.003 39.002h106.002c10 0 22.167 0.5 36.5 1.5s29.166 3.5 44.499 7.5c26.667 8 51.167 23.833 73.5 47.5s33.5 62.5 33.5 116.5c0 46 -9.16699 80.333 -27.5 103s-38.5 38 -60.5 46c-14.667 6 -28.834 9.66699 -42.501 11s-24.5 2 -32.5 2h-131v-335v0z" />
    <glyph glyph-name="b" unicode="&#xc2;" horiz-adv-x="640" 
d="M52 700l272.002 -0.000976562c11.333 0 27.5 -0.666992 48.5 -2s43.167 -5.33301 66.5 -12c32 -8.66699 61.5 -25.167 88.5 -49.5s40.5 -61.5 40.5 -111.5c0 -9.33301 -1 -19.166 -3 -29.499s-5.33301 -21.166 -10 -32.499c-8.66699 -20 -22.667 -39.167 -42 -57.5
s-46 -31.833 -80 -40.5v-6c6 -0.666992 12.167 -1.66699 18.5 -3s12.5 -3 18.5 -5c32.667 -9.33301 62.667 -27 90 -53s41 -63.667 41 -113c0 -48 -12.667 -84.833 -38 -110.5s-53 -44.167 -83 -55.5c-21.333 -7.33301 -41.5 -12.333 -60.5 -15s-34.167 -4 -45.5 -4h-322v34
c25.333 1.33301 41.666 9.66602 48.999 24.999s11 34 11 56v470c0 25.333 -4.33301 45 -13 59s-24.334 21.333 -47.001 22v34v0zM198.002 38.999h133.998c8 0 19.333 0.666992 34 2s29.667 5 45 11c22.667 8 43.334 22 62.001 42s28 50.333 28 91
c0 54 -17.667 92.667 -53 116s-76.666 35 -123.999 35h-126v-297v0zM198 374.999h113c60.667 0 102 15.333 124 46s33 64.667 33 102c0 42 -10 72.667 -30 92s-42 32 -66 38c-14 4 -27.5 6.33301 -40.5 7s-24.167 1 -33.5 1h-100v-286v0z" />
    <glyph glyph-name="b" unicode="&#x412;" horiz-adv-x="640" 
d="M52 700l272.002 -0.000976562c11.333 0 27.5 -0.666992 48.5 -2s43.167 -5.33301 66.5 -12c32 -8.66699 61.5 -25.167 88.5 -49.5s40.5 -61.5 40.5 -111.5c0 -9.33301 -1 -19.166 -3 -29.499s-5.33301 -21.166 -10 -32.499c-8.66699 -20 -22.667 -39.167 -42 -57.5
s-46 -31.833 -80 -40.5v-6c6 -0.666992 12.167 -1.66699 18.5 -3s12.5 -3 18.5 -5c32.667 -9.33301 62.667 -27 90 -53s41 -63.667 41 -113c0 -48 -12.667 -84.833 -38 -110.5s-53 -44.167 -83 -55.5c-21.333 -7.33301 -41.5 -12.333 -60.5 -15s-34.167 -4 -45.5 -4h-322v34
c25.333 1.33301 41.666 9.66602 48.999 24.999s11 34 11 56v470c0 25.333 -4.33301 45 -13 59s-24.334 21.333 -47.001 22v34v0zM198.002 38.999h133.998c8 0 19.333 0.666992 34 2s29.667 5 45 11c22.667 8 43.334 22 62.001 42s28 50.333 28 91
c0 54 -17.667 92.667 -53 116s-76.666 35 -123.999 35h-126v-297v0zM198 374.999h113c60.667 0 102 15.333 124 46s33 64.667 33 102c0 42 -10 72.667 -30 92s-42 32 -66 38c-14 4 -27.5 6.33301 -40.5 7s-24.167 1 -33.5 1h-100v-286v0z" />
    <glyph glyph-name="c" unicode="&#xc3;" horiz-adv-x="543" 
d="M52 700l372.999 0.00195312c8.66699 0 15.834 0.166992 21.501 0.5s10.834 0.5 15.501 0.5c4 0.666992 7.66699 1.16699 11 1.5s7.33301 0.833008 12 1.5c3.33301 0.666992 6.66602 1.16699 9.99902 1.5s6.66602 0.5 9.99902 0.5c4 0.666992 8 1.16699 12 1.5
s8.33301 0.5 13 0.5v-170h-34l-4 14.5c-1.33301 5 -3 9.83301 -5 14.5c-4 9.33301 -8.5 18.166 -13.5 26.499s-10.833 16.166 -17.5 23.499c-19.333 21.333 -41.166 34.833 -65.499 40.5s-49.833 8.5 -76.5 8.5h-117v-551c0 -29.333 5.5 -50 16.5 -62
s25.167 -18.333 42.5 -19v-34h-204v34c22 2.66699 37.333 10.667 46 24s13 32.333 13 57v470c0 22 -4 41 -12 57s-23.667 24 -47 24v34v0z" />
    <glyph glyph-name="c" unicode="&#x413;" horiz-adv-x="543" 
d="M52 700l372.999 0.00195312c8.66699 0 15.834 0.166992 21.501 0.5s10.834 0.5 15.501 0.5c4 0.666992 7.66699 1.16699 11 1.5s7.33301 0.833008 12 1.5c3.33301 0.666992 6.66602 1.16699 9.99902 1.5s6.66602 0.5 9.99902 0.5c4 0.666992 8 1.16699 12 1.5
s8.33301 0.5 13 0.5v-170h-34l-4 14.5c-1.33301 5 -3 9.83301 -5 14.5c-4 9.33301 -8.5 18.166 -13.5 26.499s-10.833 16.166 -17.5 23.499c-19.333 21.333 -41.166 34.833 -65.499 40.5s-49.833 8.5 -76.5 8.5h-117v-551c0 -29.333 5.5 -50 16.5 -62
s25.167 -18.333 42.5 -19v-34h-204v34c22 2.66699 37.333 10.667 46 24s13 32.333 13 57v470c0 22 -4 41 -12 57s-23.667 24 -47 24v34v0z" />
    <glyph glyph-name="d" unicode="&#xc4;" horiz-adv-x="697" 
d="M275 700l356.999 0.00488281v-34c-22 -4.66699 -36 -13.5 -42 -26.5s-9 -31.5 -9 -55.5v-490v-6.5c0 -2.33301 0.333008 -4.5 1 -6.5c0.666992 -9.33301 4 -18 10 -26s18 -12 36 -12c2 0 4.5 0.166992 7.5 0.5s6.16699 0.5 9.5 0.5h2h2c2 0.666992 4.33301 1 7 1h7
c11.333 0 19.833 -2.83301 25.5 -8.5s8.5 -13.5 8.5 -23.5c0 -8.66699 -3.33301 -20.334 -10 -35.001s-15 -30 -25 -46c-6 -10 -12.667 -19.667 -20 -29l-22 -27c-10.667 -12 -21 -21.833 -31 -29.5s-18.667 -11.5 -26 -11.5c-8 0 -13.667 1.16699 -17 3.5
s-5 5.16602 -5 8.49902c0 21.333 2.5 35.333 7.5 42s10.5 11.667 16.5 15c5.33301 3.33301 10.5 8.16602 15.5 14.499s7.5 20.166 7.5 41.499c0 14.667 -4.5 24.667 -13.5 30s-19.167 8.66602 -30.5 9.99902h-13.5h-12.5h-1.5h-1.5h-345h-2.5h-2.5h-8h-9
c-11.333 0 -22 -3.5 -32 -10.5s-15 -22.167 -15 -45.5c0 -10.667 1.66699 -18.334 5 -23.001s7 -9 11 -13c0.666992 0 1.33398 -0.166992 2.00098 -0.5s1.33398 -0.833008 2.00098 -1.5c4.66699 -4 9 -9.5 13 -16.5s6 -18.5 6 -34.5c0 -7.33301 -1 -12.333 -3 -15
s-5.66699 -4 -11 -4c-4 0 -9 1.83301 -15 5.5s-12 8.5 -18 14.5c-2.66699 2 -5.16699 4.33301 -7.5 7s-4.83301 5.33398 -7.5 8.00098c-6 6 -11.5 12 -16.5 18s-8.5 10.333 -10.5 13c-18.667 24.667 -31.834 45 -39.501 61s-11.5 29.667 -11.5 41
c-0 20.667 4.33301 33 13 37s20 6.33301 34 7c7.33301 0 14.166 0.5 20.499 1.5s12.5 2.83301 18.5 5.5c15.333 6.66699 32 23.167 50 49.5s44 73.166 78 140.499l28 57.5l36 75.5l10 22.5c3.33301 7.66699 6.33301 15.167 9 22.5c16 37.333 29.833 72.833 41.5 106.5
s17.5 59.5 17.5 77.5c0 2.66699 -0.166992 5.66699 -0.5 9s-0.833008 6.66602 -1.5 9.99902c-3.33301 10.667 -10.666 20.334 -21.999 29.001s-30.333 12.334 -57 11.001v34v0zM494.999 652.005c-2.66699 0.666992 -5.16602 0.99707 -7.49902 0.99707h-7.5
c-20 0 -35.5 -5.5 -46.5 -16.5s-19.5 -23.5 -25.5 -37.5c-2.66699 -5.33301 -5 -11 -7 -17s-3.66699 -11.333 -5 -16c-4.66699 -16 -9.66699 -31.5 -15 -46.5l-16 -43.5c-12 -32.667 -23.833 -62.834 -35.5 -90.501l-30.5 -70.5l-23.5 -52l-17.5 -36
c-0.666992 -1.33301 -1.5 -2.66602 -2.5 -3.99902s-1.83301 -2.66602 -2.5 -3.99902c-4 -8 -8.5 -16.5 -13.5 -25.5l-17.5 -31.5c-16.667 -30 -28.834 -51.167 -36.501 -63.5s-11.5 -23.166 -11.5 -32.499c0 -11.333 4.66699 -18.666 14 -21.999s24.333 -5 45 -5h262v613v0z
" />
    <glyph glyph-name="d" unicode="&#x414;" horiz-adv-x="697" 
d="M275 700l356.999 0.00488281v-34c-22 -4.66699 -36 -13.5 -42 -26.5s-9 -31.5 -9 -55.5v-490v-6.5c0 -2.33301 0.333008 -4.5 1 -6.5c0.666992 -9.33301 4 -18 10 -26s18 -12 36 -12c2 0 4.5 0.166992 7.5 0.5s6.16699 0.5 9.5 0.5h2h2c2 0.666992 4.33301 1 7 1h7
c11.333 0 19.833 -2.83301 25.5 -8.5s8.5 -13.5 8.5 -23.5c0 -8.66699 -3.33301 -20.334 -10 -35.001s-15 -30 -25 -46c-6 -10 -12.667 -19.667 -20 -29l-22 -27c-10.667 -12 -21 -21.833 -31 -29.5s-18.667 -11.5 -26 -11.5c-8 0 -13.667 1.16699 -17 3.5
s-5 5.16602 -5 8.49902c0 21.333 2.5 35.333 7.5 42s10.5 11.667 16.5 15c5.33301 3.33301 10.5 8.16602 15.5 14.499s7.5 20.166 7.5 41.499c0 14.667 -4.5 24.667 -13.5 30s-19.167 8.66602 -30.5 9.99902h-13.5h-12.5h-1.5h-1.5h-345h-2.5h-2.5h-8h-9
c-11.333 0 -22 -3.5 -32 -10.5s-15 -22.167 -15 -45.5c0 -10.667 1.66699 -18.334 5 -23.001s7 -9 11 -13c0.666992 0 1.33398 -0.166992 2.00098 -0.5s1.33398 -0.833008 2.00098 -1.5c4.66699 -4 9 -9.5 13 -16.5s6 -18.5 6 -34.5c0 -7.33301 -1 -12.333 -3 -15
s-5.66699 -4 -11 -4c-4 0 -9 1.83301 -15 5.5s-12 8.5 -18 14.5c-2.66699 2 -5.16699 4.33301 -7.5 7s-4.83301 5.33398 -7.5 8.00098c-6 6 -11.5 12 -16.5 18s-8.5 10.333 -10.5 13c-18.667 24.667 -31.834 45 -39.501 61s-11.5 29.667 -11.5 41
c-0 20.667 4.33301 33 13 37s20 6.33301 34 7c7.33301 0 14.166 0.5 20.499 1.5s12.5 2.83301 18.5 5.5c15.333 6.66699 32 23.167 50 49.5s44 73.166 78 140.499l28 57.5l36 75.5l10 22.5c3.33301 7.66699 6.33301 15.167 9 22.5c16 37.333 29.833 72.833 41.5 106.5
s17.5 59.5 17.5 77.5c0 2.66699 -0.166992 5.66699 -0.5 9s-0.833008 6.66602 -1.5 9.99902c-3.33301 10.667 -10.666 20.334 -21.999 29.001s-30.333 12.334 -57 11.001v34v0zM494.999 652.005c-2.66699 0.666992 -5.16602 0.99707 -7.49902 0.99707h-7.5
c-20 0 -35.5 -5.5 -46.5 -16.5s-19.5 -23.5 -25.5 -37.5c-2.66699 -5.33301 -5 -11 -7 -17s-3.66699 -11.333 -5 -16c-4.66699 -16 -9.66699 -31.5 -15 -46.5l-16 -43.5c-12 -32.667 -23.833 -62.834 -35.5 -90.501l-30.5 -70.5l-23.5 -52l-17.5 -36
c-0.666992 -1.33301 -1.5 -2.66602 -2.5 -3.99902s-1.83301 -2.66602 -2.5 -3.99902c-4 -8 -8.5 -16.5 -13.5 -25.5l-17.5 -31.5c-16.667 -30 -28.834 -51.167 -36.501 -63.5s-11.5 -23.166 -11.5 -32.499c0 -11.333 4.66699 -18.666 14 -21.999s24.333 -5 45 -5h262v613v0z
" />
    <glyph glyph-name="e" unicode="&#xc5;" horiz-adv-x="655" 
d="M52 700l394 0.000976562h22c10.667 0 22 0.666992 34 2c4.66699 0 9.16699 0.333008 13.5 1l12.5 2c1.33301 0 2.83301 0.166992 4.5 0.5s3.16699 0.5 4.5 0.5l14.5 2c5 0.666992 11.5 0.666992 19.5 0v-133h-34c-9.33301 36 -27.333 59.333 -54 70s-60.667 16 -102 16
h-183v-287h125h12c4 0 8 0.333008 12 1c12.667 1.33301 24.5 5.5 35.5 12.5s18.5 21.167 22.5 42.5h33v-151h-33c-8 28 -17.667 44.333 -29 49s-29 7 -53 7h-125v-296h205c46.667 0 89.5 6.66699 128.5 20s60.167 43.666 63.5 90.999h34l-11 -150h-566v34
c21.333 2 36.666 10 45.999 24s14 33 14 57v470c0 25.333 -4.16699 45 -12.5 59s-24.166 21.333 -47.499 22v34v0z" />
    <glyph glyph-name="e" unicode="&#x415;" horiz-adv-x="655" 
d="M52 700l394 0.000976562h22c10.667 0 22 0.666992 34 2c4.66699 0 9.16699 0.333008 13.5 1l12.5 2c1.33301 0 2.83301 0.166992 4.5 0.5s3.16699 0.5 4.5 0.5l14.5 2c5 0.666992 11.5 0.666992 19.5 0v-133h-34c-9.33301 36 -27.333 59.333 -54 70s-60.667 16 -102 16
h-183v-287h125h12c4 0 8 0.333008 12 1c12.667 1.33301 24.5 5.5 35.5 12.5s18.5 21.167 22.5 42.5h33v-151h-33c-8 28 -17.667 44.333 -29 49s-29 7 -53 7h-125v-296h205c46.667 0 89.5 6.66699 128.5 20s60.167 43.666 63.5 90.999h34l-11 -150h-566v34
c21.333 2 36.666 10 45.999 24s14 33 14 57v470c0 25.333 -4.16699 45 -12.5 59s-24.166 21.333 -47.499 22v34v0z" />
    <glyph glyph-name="f" unicode="&#xc6;" horiz-adv-x="945" 
d="M370 700l205.997 -0.000976562v-34c-17.333 -0.666992 -31.666 -7 -42.999 -19s-17 -32.667 -17 -62v-104c4.66699 -0.666992 9.16699 -1.16699 13.5 -1.5s8.5 -0.5 12.5 -0.5c32.667 0.666992 58.667 9.83398 78 27.501s37.333 43.167 54 76.5
c1.33301 4 2.83301 7.66699 4.5 11l5.5 11l6.5 14.5l7.5 15.5c9.33301 18 21.166 34.667 35.499 50s34.5 23 60.5 23c11.333 0 21.166 -1.33301 29.499 -4s15.166 -5.66699 20.499 -9v-140h-33c-0.666992 2 -1.16699 4 -1.5 6s-0.5 4 -0.5 6
c-0.666992 0.666992 -1 1.33398 -1 2.00098v2c-1.33301 9.33301 -3.66602 17.833 -6.99902 25.5s-9.33301 11.5 -18 11.5c-12.667 0 -23.667 -4.16699 -33 -12.5s-17.666 -17.5 -24.999 -27.5l-18.5 -26.5l-16.5 -23.5c-9.33301 -12 -19 -22.5 -29 -31.5
s-22 -16.833 -36 -23.5v-6c40 -12 74.5 -30.667 103.5 -56s54.833 -58 77.5 -98c20.667 -35.333 34.5 -69.166 41.5 -101.499s11.833 -57.5 14.5 -75.5c0 -2 0.166992 -4.16699 0.5 -6.5s0.833008 -4.5 1.5 -6.5c2 -20.667 6 -38.334 12 -53.001s20.333 -23.334 43 -26.001
v-34h-214v34c20 0.666992 33.667 8.83398 41 24.501s11 35.834 11 60.501c0 16 -1.66699 37.5 -5 64.5s-10 55.167 -20 84.5c-4.66699 13.333 -10 26.5 -16 39.5s-13 25.5 -21 37.5c-22 33.333 -45.667 57.5 -71 72.5s-52 22.5 -80 22.5h-6.5h-7.5
c-2.66699 0 -5.16699 -0.166992 -7.5 -0.5s-4.5 -0.833008 -6.5 -1.5v-323c0 -24.667 3.83301 -43.5 11.5 -56.5s23.834 -21.167 48.501 -24.5v-34h-206v34c25.333 3.33301 41.666 11.5 48.999 24.5s11 31.833 11 56.5v323c-4.66699 1.33301 -9.5 2.16602 -14.5 2.49902
s-10.167 0.5 -15.5 0.5c-28 -0.666992 -54.667 -8.66699 -80 -24s-48.666 -39.333 -69.999 -72c-8 -12 -15 -24.5 -21 -37.5s-11.333 -26.167 -16 -39.5c-10 -29.333 -16.667 -57.5 -20 -84.5s-5 -48.5 -5 -64.5c0 -24.667 3.66699 -44.834 11 -60.501
s21 -23.834 41 -24.501v-34h-214v34c22.667 2.66699 37 11.334 43 26.001s10 32.334 12 53.001c0.666992 2 1.16699 4.16699 1.5 6.5s0.5 4.5 0.5 6.5c2.66699 18 7.5 43.167 14.5 75.5s20.833 66.166 41.5 101.499c23.333 40 49.333 72.667 78 98s63 44 103 56v6
c-14 6.66699 -26 14.5 -36 23.5s-19.667 19.5 -29 31.5l-16.5 23.5l-18.5 26.5c-6.66699 10 -14.667 19.167 -24 27.5s-20.666 12.5 -33.999 12.5c-8.66699 0 -14.667 -3.83301 -18 -11.5s-5.66602 -16.167 -6.99902 -25.5v-2c0 -0.666992 -0.333008 -1.33398 -1 -2.00098
c0 -2 -0.166992 -4 -0.5 -6s-0.833008 -4 -1.5 -6h-33v140c5.33301 3.33301 12.333 6.33301 21 9s18.334 4 29.001 4c26 0 46.167 -7.66699 60.5 -23s26.166 -32 35.499 -50l7.5 -15.5l6.5 -14.5c2 -3.33301 3.83301 -6.83301 5.5 -10.5s3.16699 -7.16699 4.5 -10.5
c16.667 -33.333 34.667 -59.166 54 -77.499s45.666 -27.5 78.999 -27.5c4 0 8.16699 0.166992 12.5 0.5s8.83301 0.833008 13.5 1.5v104c0 29.333 -5.66699 50 -17 62s-25.666 18.333 -42.999 19v34v0z" />
    <glyph glyph-name="f" unicode="&#x416;" horiz-adv-x="945" 
d="M370 700l205.997 -0.000976562v-34c-17.333 -0.666992 -31.666 -7 -42.999 -19s-17 -32.667 -17 -62v-104c4.66699 -0.666992 9.16699 -1.16699 13.5 -1.5s8.5 -0.5 12.5 -0.5c32.667 0.666992 58.667 9.83398 78 27.501s37.333 43.167 54 76.5
c1.33301 4 2.83301 7.66699 4.5 11l5.5 11l6.5 14.5l7.5 15.5c9.33301 18 21.166 34.667 35.499 50s34.5 23 60.5 23c11.333 0 21.166 -1.33301 29.499 -4s15.166 -5.66699 20.499 -9v-140h-33c-0.666992 2 -1.16699 4 -1.5 6s-0.5 4 -0.5 6
c-0.666992 0.666992 -1 1.33398 -1 2.00098v2c-1.33301 9.33301 -3.66602 17.833 -6.99902 25.5s-9.33301 11.5 -18 11.5c-12.667 0 -23.667 -4.16699 -33 -12.5s-17.666 -17.5 -24.999 -27.5l-18.5 -26.5l-16.5 -23.5c-9.33301 -12 -19 -22.5 -29 -31.5
s-22 -16.833 -36 -23.5v-6c40 -12 74.5 -30.667 103.5 -56s54.833 -58 77.5 -98c20.667 -35.333 34.5 -69.166 41.5 -101.499s11.833 -57.5 14.5 -75.5c0 -2 0.166992 -4.16699 0.5 -6.5s0.833008 -4.5 1.5 -6.5c2 -20.667 6 -38.334 12 -53.001s20.333 -23.334 43 -26.001
v-34h-214v34c20 0.666992 33.667 8.83398 41 24.501s11 35.834 11 60.501c0 16 -1.66699 37.5 -5 64.5s-10 55.167 -20 84.5c-4.66699 13.333 -10 26.5 -16 39.5s-13 25.5 -21 37.5c-22 33.333 -45.667 57.5 -71 72.5s-52 22.5 -80 22.5h-6.5h-7.5
c-2.66699 0 -5.16699 -0.166992 -7.5 -0.5s-4.5 -0.833008 -6.5 -1.5v-323c0 -24.667 3.83301 -43.5 11.5 -56.5s23.834 -21.167 48.501 -24.5v-34h-206v34c25.333 3.33301 41.666 11.5 48.999 24.5s11 31.833 11 56.5v323c-4.66699 1.33301 -9.5 2.16602 -14.5 2.49902
s-10.167 0.5 -15.5 0.5c-28 -0.666992 -54.667 -8.66699 -80 -24s-48.666 -39.333 -69.999 -72c-8 -12 -15 -24.5 -21 -37.5s-11.333 -26.167 -16 -39.5c-10 -29.333 -16.667 -57.5 -20 -84.5s-5 -48.5 -5 -64.5c0 -24.667 3.66699 -44.834 11 -60.501
s21 -23.834 41 -24.501v-34h-214v34c22.667 2.66699 37 11.334 43 26.001s10 32.334 12 53.001c0.666992 2 1.16699 4.16699 1.5 6.5s0.5 4.5 0.5 6.5c2.66699 18 7.5 43.167 14.5 75.5s20.833 66.166 41.5 101.499c23.333 40 49.333 72.667 78 98s63 44 103 56v6
c-14 6.66699 -26 14.5 -36 23.5s-19.667 19.5 -29 31.5l-16.5 23.5l-18.5 26.5c-6.66699 10 -14.667 19.167 -24 27.5s-20.666 12.5 -33.999 12.5c-8.66699 0 -14.667 -3.83301 -18 -11.5s-5.66602 -16.167 -6.99902 -25.5v-2c0 -0.666992 -0.333008 -1.33398 -1 -2.00098
c0 -2 -0.166992 -4 -0.5 -6s-0.833008 -4 -1.5 -6h-33v140c5.33301 3.33301 12.333 6.33301 21 9s18.334 4 29.001 4c26 0 46.167 -7.66699 60.5 -23s26.166 -32 35.499 -50l7.5 -15.5l6.5 -14.5c2 -3.33301 3.83301 -6.83301 5.5 -10.5s3.16699 -7.16699 4.5 -10.5
c16.667 -33.333 34.667 -59.166 54 -77.499s45.666 -27.5 78.999 -27.5c4 0 8.16699 0.166992 12.5 0.5s8.83301 0.833008 13.5 1.5v104c0 29.333 -5.66699 50 -17 62s-25.666 18.333 -42.999 19v34v0z" />
    <glyph glyph-name="g" unicode="&#xc7;" horiz-adv-x="679" 
d="M128 526l0.000976562 163.004h33c6 -9.33301 13.167 -15 21.5 -17s21.166 -3 38.499 -3c10 0 20.667 2 32 6l38 14c14 4.66699 29.5 9 46.5 13s35.833 6 56.5 6c75.333 0 131.166 -15.833 167.499 -47.5s57.833 -66.834 64.5 -105.501
c1.33301 -4.66699 2.16602 -9.66699 2.49902 -15s0.5 -10.333 0.5 -15c0 -26.667 -5.33301 -49.667 -16 -69s-26 -38 -46 -56c-2 -2 -4 -3.83301 -6 -5.5s-4 -3.5 -6 -5.5v-6l33 -23l13.5 -12c4.33301 -4 8.16602 -8 11.499 -12c23.333 -26.667 37 -52 41 -76s6 -42 6 -54
v-0.5v-0.5c0 -60 -21.833 -107.167 -65.5 -141.5s-91.5 -55.833 -143.5 -64.5c-10 -2 -20 -3.5 -30 -4.5s-20 -1.5 -30 -1.5c-46.667 0 -88.167 5.5 -124.5 16.5s-70.166 26.167 -101.499 45.5l-6 4c-2 1.33301 -4.33301 2.66602 -7 3.99902c-3.33301 2.66699 -7 5 -11 7
l-12 6c-7.33301 4 -14.333 7.16699 -21 9.5s-13 3.5 -19 3.5c-1.33301 0 -2.66602 -0.166992 -3.99902 -0.5s-3 -0.833008 -5 -1.5c-5.33301 -1.33301 -10.5 -4.33301 -15.5 -9l-14.5 -14l-7 -9l-6 -8l-21 25c16.667 24 34.334 46 53.001 66s41.334 30 68.001 30
c18 0 36.833 -5.83301 56.5 -17.5s39.834 -25.834 60.501 -42.501l16.5 -12.5l17.5 -13.5c17.333 -12.667 36.666 -24.334 57.999 -35.001s44 -16 68 -16c39.333 0 73.5 16.667 102.5 50s43.5 73.333 43.5 120c0 28 -5.16699 53.833 -15.5 77.5s-26.166 44.167 -47.499 61.5
c-23.333 -14 -50.333 -26.167 -81 -36.5s-62.334 -15.5 -95.001 -15.5c-26.667 0 -47.334 4 -62.001 12s-25 17 -31 27c-2.66699 4.66699 -4.66699 9.33398 -6 14.001s-2 8.66699 -2 12c0 2 0.166992 4.16699 0.5 6.5s0.833008 4.83301 1.5 7.5
c4.66699 16 18.834 30.667 42.501 44s61.167 20 112.5 20c15.333 0 30.333 -1.16699 45 -3.5s29 -5.83301 43 -10.5c4 -0.666992 7.83301 -1.66699 11.5 -3l10.5 -4c12.667 12 23.167 25.5 31.5 40.5s13.833 30.5 16.5 46.5c1.33301 4.66699 2.16602 9.16699 2.49902 13.5
s0.5 8.83301 0.5 13.5c0 38 -12.5 71.667 -37.5 101s-60.833 44 -107.5 44h-0.5h-0.5c-10.667 0 -28.167 -1.16699 -52.5 -3.5s-49.833 -9.83301 -76.5 -22.5c-20 -10 -39.5 -24.333 -58.5 -43s-35.167 -43.334 -48.5 -74.001h-28v0zM450.001 369.004
c-18.667 10.667 -37.167 17.666 -55.5 20.999s-35.833 5 -52.5 5c-26.667 0 -46.334 -3.83301 -59.001 -11.5s-20 -16.167 -22 -25.5v-2.5v-2.5c0 -2 0.333008 -4 1 -6s1.66699 -4 3 -6c2.66699 -5.33301 8.33398 -10.166 17.001 -14.499s22 -6.5 40 -6.5
c9.33301 0 20.5 1 33.5 3s26.167 6 39.5 12c10 3.33301 19.667 7.83301 29 13.5s18 12.5 26 20.5v0z" />
    <glyph glyph-name="g" unicode="&#x417;" horiz-adv-x="679" 
d="M128 526l0.000976562 163.004h33c6 -9.33301 13.167 -15 21.5 -17s21.166 -3 38.499 -3c10 0 20.667 2 32 6l38 14c14 4.66699 29.5 9 46.5 13s35.833 6 56.5 6c75.333 0 131.166 -15.833 167.499 -47.5s57.833 -66.834 64.5 -105.501
c1.33301 -4.66699 2.16602 -9.66699 2.49902 -15s0.5 -10.333 0.5 -15c0 -26.667 -5.33301 -49.667 -16 -69s-26 -38 -46 -56c-2 -2 -4 -3.83301 -6 -5.5s-4 -3.5 -6 -5.5v-6l33 -23l13.5 -12c4.33301 -4 8.16602 -8 11.499 -12c23.333 -26.667 37 -52 41 -76s6 -42 6 -54
v-0.5v-0.5c0 -60 -21.833 -107.167 -65.5 -141.5s-91.5 -55.833 -143.5 -64.5c-10 -2 -20 -3.5 -30 -4.5s-20 -1.5 -30 -1.5c-46.667 0 -88.167 5.5 -124.5 16.5s-70.166 26.167 -101.499 45.5l-6 4c-2 1.33301 -4.33301 2.66602 -7 3.99902c-3.33301 2.66699 -7 5 -11 7
l-12 6c-7.33301 4 -14.333 7.16699 -21 9.5s-13 3.5 -19 3.5c-1.33301 0 -2.66602 -0.166992 -3.99902 -0.5s-3 -0.833008 -5 -1.5c-5.33301 -1.33301 -10.5 -4.33301 -15.5 -9l-14.5 -14l-7 -9l-6 -8l-21 25c16.667 24 34.334 46 53.001 66s41.334 30 68.001 30
c18 0 36.833 -5.83301 56.5 -17.5s39.834 -25.834 60.501 -42.501l16.5 -12.5l17.5 -13.5c17.333 -12.667 36.666 -24.334 57.999 -35.001s44 -16 68 -16c39.333 0 73.5 16.667 102.5 50s43.5 73.333 43.5 120c0 28 -5.16699 53.833 -15.5 77.5s-26.166 44.167 -47.499 61.5
c-23.333 -14 -50.333 -26.167 -81 -36.5s-62.334 -15.5 -95.001 -15.5c-26.667 0 -47.334 4 -62.001 12s-25 17 -31 27c-2.66699 4.66699 -4.66699 9.33398 -6 14.001s-2 8.66699 -2 12c0 2 0.166992 4.16699 0.5 6.5s0.833008 4.83301 1.5 7.5
c4.66699 16 18.834 30.667 42.501 44s61.167 20 112.5 20c15.333 0 30.333 -1.16699 45 -3.5s29 -5.83301 43 -10.5c4 -0.666992 7.83301 -1.66699 11.5 -3l10.5 -4c12.667 12 23.167 25.5 31.5 40.5s13.833 30.5 16.5 46.5c1.33301 4.66699 2.16602 9.16699 2.49902 13.5
s0.5 8.83301 0.5 13.5c0 38 -12.5 71.667 -37.5 101s-60.833 44 -107.5 44h-0.5h-0.5c-10.667 0 -28.167 -1.16699 -52.5 -3.5s-49.833 -9.83301 -76.5 -22.5c-20 -10 -39.5 -24.333 -58.5 -43s-35.167 -43.334 -48.5 -74.001h-28v0zM450.001 369.004
c-18.667 10.667 -37.167 17.666 -55.5 20.999s-35.833 5 -52.5 5c-26.667 0 -46.334 -3.83301 -59.001 -11.5s-20 -16.167 -22 -25.5v-2.5v-2.5c0 -2 0.333008 -4 1 -6s1.66699 -4 3 -6c2.66699 -5.33301 8.33398 -10.166 17.001 -14.499s22 -6.5 40 -6.5
c9.33301 0 20.5 1 33.5 3s26.167 6 39.5 12c10 3.33301 19.667 7.83301 29 13.5s18 12.5 26 20.5v0z" />
    <glyph glyph-name="h" unicode="&#xc8;" horiz-adv-x="799" 
d="M52 700l205 0.000976562v-34c-22.667 -2.66699 -38.167 -10.834 -46.5 -24.501s-12.5 -32.5 -12.5 -56.5v-381h3l401 369v32c0 18 -6.16699 32.5 -18.5 43.5s-26.166 16.833 -41.499 17.5v34h205v-34c-22.667 -2.66699 -38.167 -10.834 -46.5 -24.501
s-12.5 -32.5 -12.5 -56.5v-470c0 -24.667 4 -43.5 12 -56.5s23.667 -21.167 47 -24.5v-34h-205v34c23.333 2 39.166 10.167 47.499 24.5s12.5 33.166 12.5 56.499v396h-3l-401 -370v-26c0 -24.667 4.33301 -43.667 13 -57s24 -21.333 46 -24v-34h-205v34
c22 2.66699 37.5 10.834 46.5 24.501s13.5 32.5 13.5 56.5v470c0 24 -4.5 42.833 -13.5 56.5s-24.5 21.834 -46.5 24.501v34v0z" />
    <glyph glyph-name="h" unicode="&#x418;" horiz-adv-x="799" 
d="M52 700l205 0.000976562v-34c-22.667 -2.66699 -38.167 -10.834 -46.5 -24.501s-12.5 -32.5 -12.5 -56.5v-381h3l401 369v32c0 18 -6.16699 32.5 -18.5 43.5s-26.166 16.833 -41.499 17.5v34h205v-34c-22.667 -2.66699 -38.167 -10.834 -46.5 -24.501
s-12.5 -32.5 -12.5 -56.5v-470c0 -24.667 4 -43.5 12 -56.5s23.667 -21.167 47 -24.5v-34h-205v34c23.333 2 39.166 10.167 47.499 24.5s12.5 33.166 12.5 56.499v396h-3l-401 -370v-26c0 -24.667 4.33301 -43.667 13 -57s24 -21.333 46 -24v-34h-205v34
c22 2.66699 37.5 10.834 46.5 24.501s13.5 32.5 13.5 56.5v470c0 24 -4.5 42.833 -13.5 56.5s-24.5 21.834 -46.5 24.501v34v0z" />
    <glyph glyph-name="i" unicode="&#xc9;" horiz-adv-x="799" 
d="M52 700h205.001v-34c-22.667 -2.66699 -38.167 -10.834 -46.5 -24.501s-12.5 -32.5 -12.5 -56.5v-381h3l401 369v12c0 24 -4.5 42.833 -13.5 56.5s-24.5 21.834 -46.5 24.501v34h205v-34c-22.667 -2.66699 -38.167 -10.834 -46.5 -24.501s-12.5 -32.5 -12.5 -56.5v-470
c0 -24.667 4 -43.5 12 -56.5s23.667 -21.167 47 -24.5v-34h-205v34c23.333 2 39.166 10.167 47.499 24.5s12.5 33.166 12.5 56.499v396h-3l-401 -370v-26c0 -24.667 4.33301 -43.667 13 -57s24 -21.333 46 -24v-34h-205v34c22 2.66699 37.5 10.834 46.5 24.501
s13.5 32.5 13.5 56.5v470c0 24 -4.5 42.833 -13.5 56.5s-24.5 21.834 -46.5 24.501v34v0zM397.001 747c-52 0 -97.8262 12.333 -137.493 37s-59.5 55.334 -59.5 92.001c0 25.333 9.33301 47.333 28 66s44 28 76 28c17.333 0 31.5 -4 42.5 -12s16.5 -19.667 16.5 -35
c0 -11.333 -3.83301 -20.833 -11.5 -28.5s-18.167 -11.5 -31.5 -11.5c-4.66699 0 -9.33398 0.666992 -14.001 2s-9 3 -13 5c-1.33301 0 -2.33301 0.333008 -3 1s-1.33398 1 -2.00098 1s-1.33398 0.166992 -2.00098 0.5s-1.33398 0.833008 -2.00098 1.5
c-2.66699 1.33301 -5.83398 2.5 -9.50098 3.5s-7.5 1.5 -11.5 1.5c-6.66699 0 -12.167 -2 -16.5 -6s-6.5 -9.66699 -6.5 -17c0 -1.33301 0.166992 -2.83301 0.5 -4.5s0.833008 -3.5 1.5 -5.5c4.66699 -14 20.5 -26.833 47.5 -38.5s63.5 -17.5 109.5 -17.5
c50 0 89.333 6.83301 118 20.5s43 28.834 43 45.501c0 7.33301 -2 13 -6 17s-9.66699 6 -17 6c-4 0 -7.83301 -0.5 -11.5 -1.5s-6.83398 -2.16699 -9.50098 -3.5c-0.666992 -0.666992 -1.33398 -1.16699 -2.00098 -1.5s-1.33398 -0.5 -2.00098 -0.5
s-1.33398 -0.333008 -2.00098 -1s-1.66699 -1 -3 -1c-4 -2 -8.16699 -3.66699 -12.5 -5s-9.16602 -2 -14.499 -2c-12.667 0 -23 3.83301 -31 11.5s-12 17.167 -12 28.5c0 15.333 5.66699 27 17 35s25.333 12 42 12c32 0 57.333 -9.33301 76 -28s28 -40.667 28 -66
c0 -34.667 -15.167 -62.334 -45.5 -83.001s-63.833 -34.334 -100.5 -41.001c-10 -2 -19.667 -3.33301 -29 -4s-18.666 -1 -27.999 -1v0z" />
    <glyph glyph-name="i" unicode="&#x419;" horiz-adv-x="799" 
d="M52 700h205.001v-34c-22.667 -2.66699 -38.167 -10.834 -46.5 -24.501s-12.5 -32.5 -12.5 -56.5v-381h3l401 369v12c0 24 -4.5 42.833 -13.5 56.5s-24.5 21.834 -46.5 24.501v34h205v-34c-22.667 -2.66699 -38.167 -10.834 -46.5 -24.501s-12.5 -32.5 -12.5 -56.5v-470
c0 -24.667 4 -43.5 12 -56.5s23.667 -21.167 47 -24.5v-34h-205v34c23.333 2 39.166 10.167 47.499 24.5s12.5 33.166 12.5 56.499v396h-3l-401 -370v-26c0 -24.667 4.33301 -43.667 13 -57s24 -21.333 46 -24v-34h-205v34c22 2.66699 37.5 10.834 46.5 24.501
s13.5 32.5 13.5 56.5v470c0 24 -4.5 42.833 -13.5 56.5s-24.5 21.834 -46.5 24.501v34v0zM397.001 747c-52 0 -97.8262 12.333 -137.493 37s-59.5 55.334 -59.5 92.001c0 25.333 9.33301 47.333 28 66s44 28 76 28c17.333 0 31.5 -4 42.5 -12s16.5 -19.667 16.5 -35
c0 -11.333 -3.83301 -20.833 -11.5 -28.5s-18.167 -11.5 -31.5 -11.5c-4.66699 0 -9.33398 0.666992 -14.001 2s-9 3 -13 5c-1.33301 0 -2.33301 0.333008 -3 1s-1.33398 1 -2.00098 1s-1.33398 0.166992 -2.00098 0.5s-1.33398 0.833008 -2.00098 1.5
c-2.66699 1.33301 -5.83398 2.5 -9.50098 3.5s-7.5 1.5 -11.5 1.5c-6.66699 0 -12.167 -2 -16.5 -6s-6.5 -9.66699 -6.5 -17c0 -1.33301 0.166992 -2.83301 0.5 -4.5s0.833008 -3.5 1.5 -5.5c4.66699 -14 20.5 -26.833 47.5 -38.5s63.5 -17.5 109.5 -17.5
c50 0 89.333 6.83301 118 20.5s43 28.834 43 45.501c0 7.33301 -2 13 -6 17s-9.66699 6 -17 6c-4 0 -7.83301 -0.5 -11.5 -1.5s-6.83398 -2.16699 -9.50098 -3.5c-0.666992 -0.666992 -1.33398 -1.16699 -2.00098 -1.5s-1.33398 -0.5 -2.00098 -0.5
s-1.33398 -0.333008 -2.00098 -1s-1.66699 -1 -3 -1c-4 -2 -8.16699 -3.66699 -12.5 -5s-9.16602 -2 -14.499 -2c-12.667 0 -23 3.83301 -31 11.5s-12 17.167 -12 28.5c0 15.333 5.66699 27 17 35s25.333 12 42 12c32 0 57.333 -9.33301 76 -28s28 -40.667 28 -66
c0 -34.667 -15.167 -62.334 -45.5 -83.001s-63.833 -34.334 -100.5 -41.001c-10 -2 -19.667 -3.33301 -29 -4s-18.666 -1 -27.999 -1v0z" />
    <glyph glyph-name="j" unicode="&#xca;" horiz-adv-x="704" 
d="M52 700h204v-34c-18 -2 -31.167 -7.83301 -39.5 -17.5s-13.833 -20.167 -16.5 -31.5c-1.33301 -6 -2.16602 -11.667 -2.49902 -17s-0.5 -10.333 -0.5 -15v-151c56.667 -4.66699 98.334 4.16602 125.001 26.499s46.667 47.166 60 74.499l6 11.5
c2 3.66699 3.66699 7.16699 5 10.5c3.33301 8 7.16602 16.667 11.499 26s9.16602 18.666 14.499 27.999c12.667 24.667 29.5 47 50.5 67s48.5 30 82.5 30c8 0 17.333 -0.5 28 -1.5s21.667 -4.16699 33 -9.5v-155h-34c-2.66699 21.333 -8 36 -16 44s-16.667 12.667 -26 14
c-1.33301 0.666992 -2.83301 1 -4.5 1h-4.5c-14.667 0 -27.334 -5 -38.001 -15s-20.667 -21.667 -30 -35l-4 -6l-4 -6l-17.5 -23.5c-8.33301 -11 -18.5 -22.5 -30.5 -34.5s-25.667 -23.5 -41 -34.5s-31.333 -18.833 -48 -23.5v-6c66.667 -8.66699 114.667 -31.5 144 -68.5
s52.333 -76.5 69 -118.5c0.666992 -3.33301 1.66699 -6.66602 3 -9.99902l4 -10l11 -28.5c4 -10.333 8.33301 -20.5 13 -30.5c12 -27.333 28 -52.5 48 -75.5s46.667 -34.5 80 -34.5h8.5c3 0 5.83301 0.333008 8.5 1v-45c-2.66699 0 -5 -0.166992 -7 -0.5
s-4.33301 -0.833008 -7 -1.5c-6.66699 -0.666992 -13.667 -1.16699 -21 -1.5s-15.666 -0.5 -24.999 -0.5c-52 0 -91.833 11.667 -119.5 35s-52.5 60.333 -74.5 111c-5.33301 11.333 -10.333 23.166 -15 35.499l-15 38.5c-1.33301 4 -2.83301 8 -4.5 12s-3.16699 8 -4.5 12
c-17.333 46.667 -39.333 84.834 -66 114.501s-76 44.167 -148 43.5v-280c0 -26 4.33301 -45.667 13 -59s24 -20.666 46 -21.999v-34h-204v34c22 2.66699 37.333 11.167 46 25.5s13 32.833 13 55.5v470c0 22 -4 40.333 -12 55s-23.667 23.334 -47 26.001v34v0z" />
    <glyph glyph-name="j" unicode="&#x41a;" horiz-adv-x="704" 
d="M52 700h204v-34c-18 -2 -31.167 -7.83301 -39.5 -17.5s-13.833 -20.167 -16.5 -31.5c-1.33301 -6 -2.16602 -11.667 -2.49902 -17s-0.5 -10.333 -0.5 -15v-151c56.667 -4.66699 98.334 4.16602 125.001 26.499s46.667 47.166 60 74.499l6 11.5
c2 3.66699 3.66699 7.16699 5 10.5c3.33301 8 7.16602 16.667 11.499 26s9.16602 18.666 14.499 27.999c12.667 24.667 29.5 47 50.5 67s48.5 30 82.5 30c8 0 17.333 -0.5 28 -1.5s21.667 -4.16699 33 -9.5v-155h-34c-2.66699 21.333 -8 36 -16 44s-16.667 12.667 -26 14
c-1.33301 0.666992 -2.83301 1 -4.5 1h-4.5c-14.667 0 -27.334 -5 -38.001 -15s-20.667 -21.667 -30 -35l-4 -6l-4 -6l-17.5 -23.5c-8.33301 -11 -18.5 -22.5 -30.5 -34.5s-25.667 -23.5 -41 -34.5s-31.333 -18.833 -48 -23.5v-6c66.667 -8.66699 114.667 -31.5 144 -68.5
s52.333 -76.5 69 -118.5c0.666992 -3.33301 1.66699 -6.66602 3 -9.99902l4 -10l11 -28.5c4 -10.333 8.33301 -20.5 13 -30.5c12 -27.333 28 -52.5 48 -75.5s46.667 -34.5 80 -34.5h8.5c3 0 5.83301 0.333008 8.5 1v-45c-2.66699 0 -5 -0.166992 -7 -0.5
s-4.33301 -0.833008 -7 -1.5c-6.66699 -0.666992 -13.667 -1.16699 -21 -1.5s-15.666 -0.5 -24.999 -0.5c-52 0 -91.833 11.667 -119.5 35s-52.5 60.333 -74.5 111c-5.33301 11.333 -10.333 23.166 -15 35.499l-15 38.5c-1.33301 4 -2.83301 8 -4.5 12s-3.16699 8 -4.5 12
c-17.333 46.667 -39.333 84.834 -66 114.501s-76 44.167 -148 43.5v-280c0 -26 4.33301 -45.667 13 -59s24 -20.666 46 -21.999v-34h-204v34c22 2.66699 37.333 11.167 46 25.5s13 32.833 13 55.5v470c0 22 -4 40.333 -12 55s-23.667 23.334 -47 26.001v34v0z" />
    <glyph glyph-name="k" unicode="&#xcb;" horiz-adv-x="732" 
d="M276 708l174 -0.00292969l194 -596c7.33301 -23.333 16.333 -42.666 27 -57.999s28.334 -22 53.001 -20v-34h-138l-198 613h-3c-2 -6.66699 -3.66699 -12.5 -5 -17.5s-2.33301 -9.5 -3 -13.5c0 -1.33301 -0.166992 -2.33301 -0.5 -3s-0.5 -1.66699 -0.5 -3
c-0.666992 -1.33301 -1.16699 -2.66602 -1.5 -3.99902s-0.5 -2.66602 -0.5 -3.99902c-2.66699 -12.667 -10 -44.334 -22 -95.001s-30.667 -115.334 -56 -194.001l-8 -24l-8 -24c-22.667 -69.333 -47.834 -126.333 -75.501 -171s-67.5 -67 -119.5 -67h-2.5h-2.5
c-16.667 0.666992 -32 5.33398 -46 14.001s-21 22 -21 40c0 19.333 5.66699 33.333 17 42s24.333 13 39 13c6.66699 0 13.167 -1 19.5 -3s12.5 -4.33301 18.5 -7c0.666992 0 1.5 -0.166992 2.5 -0.5s1.83301 -0.833008 2.5 -1.5c3.33301 -1.33301 6.5 -2.5 9.5 -3.5
s6.16699 -1.5 9.5 -1.5c24 0 45.5 19.333 64.5 58s35.833 81.334 50.5 128.001c6.66699 19.333 12.667 38.333 18 57l15 52l11.5 39l16.5 57c0.666992 4.66699 1.66699 9.16699 3 13.5l4 13.5c6 24 11.333 47 16 69s7 38.667 7 50c0 16 -4.33301 28.333 -13 37
s-24.667 13.667 -48 15v34v0z" />
    <glyph glyph-name="k" unicode="&#x41b;" horiz-adv-x="732" 
d="M276 708l174 -0.00292969l194 -596c7.33301 -23.333 16.333 -42.666 27 -57.999s28.334 -22 53.001 -20v-34h-138l-198 613h-3c-2 -6.66699 -3.66699 -12.5 -5 -17.5s-2.33301 -9.5 -3 -13.5c0 -1.33301 -0.166992 -2.33301 -0.5 -3s-0.5 -1.66699 -0.5 -3
c-0.666992 -1.33301 -1.16699 -2.66602 -1.5 -3.99902s-0.5 -2.66602 -0.5 -3.99902c-2.66699 -12.667 -10 -44.334 -22 -95.001s-30.667 -115.334 -56 -194.001l-8 -24l-8 -24c-22.667 -69.333 -47.834 -126.333 -75.501 -171s-67.5 -67 -119.5 -67h-2.5h-2.5
c-16.667 0.666992 -32 5.33398 -46 14.001s-21 22 -21 40c0 19.333 5.66699 33.333 17 42s24.333 13 39 13c6.66699 0 13.167 -1 19.5 -3s12.5 -4.33301 18.5 -7c0.666992 0 1.5 -0.166992 2.5 -0.5s1.83301 -0.833008 2.5 -1.5c3.33301 -1.33301 6.5 -2.5 9.5 -3.5
s6.16699 -1.5 9.5 -1.5c24 0 45.5 19.333 64.5 58s35.833 81.334 50.5 128.001c6.66699 19.333 12.667 38.333 18 57l15 52l11.5 39l16.5 57c0.666992 4.66699 1.66699 9.16699 3 13.5l4 13.5c6 24 11.333 47 16 69s7 38.667 7 50c0 16 -4.33301 28.333 -13 37
s-24.667 13.667 -48 15v34v0z" />
    <glyph glyph-name="l" unicode="&#xcc;" horiz-adv-x="926" 
d="M233 700l224 -568.997h4l234 569h179v-34c-22 -2.66699 -37.333 -10.834 -46 -24.501s-13 -32.5 -13 -56.5v-470c0 -28 5.33301 -47.833 16 -59.5s22.667 -18.5 36 -20.5c0.666992 0 1.66699 -0.166992 3 -0.5s2.66602 -0.5 3.99902 -0.5v-34h-204v34
c2.66699 0 5.66699 0.333008 9 1s6.33301 1.66699 9 3c10.667 4 20.167 11.667 28.5 23s12.5 29.333 12.5 54v547h-3l-277 -670h-33l-263 669h-3v-548c0 -24.667 4.33301 -42.5 13 -53.5s18.334 -18.5 29.001 -22.5c3.33301 -0.666992 6.5 -1.33398 9.5 -2.00098
s5.83301 -1 8.5 -1v-34h-158v34c21.333 2.66699 36 9.66699 44 21s12.667 24 14 38c0.666992 3.33301 1 6.66602 1 9.99902v10v493c0 19.333 -5.5 34 -16.5 44s-25.167 15.333 -42.5 16v34h181v0z" />
    <glyph glyph-name="l" unicode="&#x41c;" horiz-adv-x="926" 
d="M233 700l224 -568.997h4l234 569h179v-34c-22 -2.66699 -37.333 -10.834 -46 -24.501s-13 -32.5 -13 -56.5v-470c0 -28 5.33301 -47.833 16 -59.5s22.667 -18.5 36 -20.5c0.666992 0 1.66699 -0.166992 3 -0.5s2.66602 -0.5 3.99902 -0.5v-34h-204v34
c2.66699 0 5.66699 0.333008 9 1s6.33301 1.66699 9 3c10.667 4 20.167 11.667 28.5 23s12.5 29.333 12.5 54v547h-3l-277 -670h-33l-263 669h-3v-548c0 -24.667 4.33301 -42.5 13 -53.5s18.334 -18.5 29.001 -22.5c3.33301 -0.666992 6.5 -1.33398 9.5 -2.00098
s5.83301 -1 8.5 -1v-34h-158v34c21.333 2.66699 36 9.66699 44 21s12.667 24 14 38c0.666992 3.33301 1 6.66602 1 9.99902v10v493c0 19.333 -5.5 34 -16.5 44s-25.167 15.333 -42.5 16v34h181v0z" />
    <glyph glyph-name="m" unicode="&#xcd;" horiz-adv-x="798" 
d="M256 700l-0.000976562 -33.9971c-23.333 -2 -39 -10.333 -47 -25s-12 -33.334 -12 -56.001v-209h403v209c0 23.333 -4 42 -12 56s-23.667 22.333 -47 25v34h205v-34c-18 -1.33301 -31.167 -6.83301 -39.5 -16.5s-13.833 -19.834 -16.5 -30.501
c-2 -6 -3.16699 -12 -3.5 -18s-0.5 -11.333 -0.5 -16v-470c0 -22.667 4.33301 -41.334 13 -56.001s24.334 -23 47.001 -25v-34h-205v34c23.333 3.33301 39 11.833 47 25.5s12 32.167 12 55.5v222h-403v-222c0 -24 4.16699 -43 12.5 -57s23.833 -22 46.5 -24v-34h-204v34
c22.667 2 38.167 10 46.5 24s12.5 33 12.5 57v470c0 24 -4.16699 43 -12.5 57s-23.833 22 -46.5 24v34h204v0z" />
    <glyph glyph-name="m" unicode="&#x41d;" horiz-adv-x="798" 
d="M256 700l-0.000976562 -33.9971c-23.333 -2 -39 -10.333 -47 -25s-12 -33.334 -12 -56.001v-209h403v209c0 23.333 -4 42 -12 56s-23.667 22.333 -47 25v34h205v-34c-18 -1.33301 -31.167 -6.83301 -39.5 -16.5s-13.833 -19.834 -16.5 -30.501
c-2 -6 -3.16699 -12 -3.5 -18s-0.5 -11.333 -0.5 -16v-470c0 -22.667 4.33301 -41.334 13 -56.001s24.334 -23 47.001 -25v-34h-205v34c23.333 3.33301 39 11.833 47 25.5s12 32.167 12 55.5v222h-403v-222c0 -24 4.16699 -43 12.5 -57s23.833 -22 46.5 -24v-34h-204v34
c22.667 2 38.167 10 46.5 24s12.5 33 12.5 57v470c0 24 -4.16699 43 -12.5 57s-23.833 22 -46.5 24v34h204v0z" />
    <glyph glyph-name="n" unicode="&#xce;" horiz-adv-x="788" 
d="M394 708c105.333 0 190.833 -35.833 256.5 -107.5s98.5 -155.167 98.5 -250.5c0 -94.667 -32.833 -177.834 -98.5 -249.501s-151.167 -107.5 -256.5 -107.5s-190.833 35.833 -256.5 107.5s-98.5 154.834 -98.5 249.501c0 95.333 32.833 178.833 98.5 250.5
s151.167 107.5 256.5 107.5v0zM394 669h-9.5c-3 0 -6.16699 -0.333008 -9.5 -1c-58.667 -4.66699 -112.667 -32.667 -162 -84s-74 -129.333 -74 -234s24.667 -182.667 74 -234s103.333 -79.333 162 -84c3.33301 -0.666992 6.5 -1 9.5 -1h9.5h9.5c3 0 6.16699 0.333008 9.5 1
c58.667 4.66699 112.667 32.667 162 84s74 129.333 74 234s-24.667 182.667 -74 234s-103.333 79.333 -162 84c-3.33301 0.666992 -6.5 1 -9.5 1h-9.5v0z" />
    <glyph glyph-name="n" unicode="&#x41e;" horiz-adv-x="788" 
d="M394 708c105.333 0 190.833 -35.833 256.5 -107.5s98.5 -155.167 98.5 -250.5c0 -94.667 -32.833 -177.834 -98.5 -249.501s-151.167 -107.5 -256.5 -107.5s-190.833 35.833 -256.5 107.5s-98.5 154.834 -98.5 249.501c0 95.333 32.833 178.833 98.5 250.5
s151.167 107.5 256.5 107.5v0zM394 669h-9.5c-3 0 -6.16699 -0.333008 -9.5 -1c-58.667 -4.66699 -112.667 -32.667 -162 -84s-74 -129.333 -74 -234s24.667 -182.667 74 -234s103.333 -79.333 162 -84c3.33301 -0.666992 6.5 -1 9.5 -1h9.5h9.5c3 0 6.16699 0.333008 9.5 1
c58.667 4.66699 112.667 32.667 162 84s74 129.333 74 234s-24.667 182.667 -74 234s-103.333 79.333 -162 84c-3.33301 0.666992 -6.5 1 -9.5 1h-9.5v0z" />
    <glyph glyph-name="o" unicode="&#xcf;" horiz-adv-x="797" 
d="M52 700h693.001v-34c-22.667 -2 -38.167 -10.167 -46.5 -24.5s-12.5 -33.166 -12.5 -56.499v-470c0 -24.667 4.16699 -43.834 12.5 -57.501s23.833 -21.5 46.5 -23.5v-34h-205v34c23.333 2 39.166 10.667 47.499 26s12.5 33.666 12.5 54.999v546h-403v-546
c0 -24.667 4.5 -43.834 13.5 -57.501s24.167 -21.5 45.5 -23.5v-34h-204v34c21.333 2 36.5 9.83301 45.5 23.5s13.5 32.834 13.5 57.501v470c0 22.667 -4 41.334 -12 56.001s-23.667 23 -47 25v34v0z" />
    <glyph glyph-name="o" unicode="&#x41f;" horiz-adv-x="797" 
d="M52 700h693.001v-34c-22.667 -2 -38.167 -10.167 -46.5 -24.5s-12.5 -33.166 -12.5 -56.499v-470c0 -24.667 4.16699 -43.834 12.5 -57.501s23.833 -21.5 46.5 -23.5v-34h-205v34c23.333 2 39.166 10.667 47.499 26s12.5 33.666 12.5 54.999v546h-403v-546
c0 -24.667 4.5 -43.834 13.5 -57.501s24.167 -21.5 45.5 -23.5v-34h-204v34c21.333 2 36.5 9.83301 45.5 23.5s13.5 32.834 13.5 57.501v470c0 22.667 -4 41.334 -12 56.001s-23.667 23 -47 25v34v0z" />
    <glyph glyph-name="p" unicode="&#xd0;" horiz-adv-x="654" 
d="M52 0l-0.000976562 34.0029c23.333 1.33301 39.166 9.66602 47.499 24.999s12.5 36.333 12.5 63v353c0 67.333 14.5 117.166 43.5 149.499s61.167 54.5 96.5 66.5c22 7.33301 43.5 12 64.5 14s38.167 3 51.5 3c11.333 0 23.333 -0.833008 36 -2.5
s25.334 -4.5 38.001 -8.5c43.333 -12.667 83 -37.834 119 -75.501s54 -91.167 54 -160.5c0 -66 -23.333 -123.333 -70 -172s-111.667 -73 -195 -73c-12 0 -27.5 1.33301 -46.5 4s-38.167 8.66699 -57.5 18c-8 3.33301 -15.667 7.33301 -23 12s-14.666 10 -21.999 16h-3v-141
c0 -26 3.5 -47.667 10.5 -65s24.5 -26 52.5 -26v-34h-209v0zM197.999 534.003l-0.000976562 -201.998c9.33301 -14 19.5 -25.667 30.5 -35s21.833 -17 32.5 -23c16 -8 31.5 -13.167 46.5 -15.5s28.5 -3.5 40.5 -3.5c56.667 0 96.167 13.333 118.5 40
s36.5 56.334 42.5 89.001c2.66699 13.333 4.33398 26.666 5.00098 39.999s1 25.666 1 36.999s-0.333008 25 -1 41s-3 32.667 -7 50c-7.33301 29.333 -22.333 56.166 -45 80.499s-60 36.5 -112 36.5c-40.667 0 -76.167 -12 -106.5 -36s-45.5 -57 -45.5 -99v0z" />
    <glyph glyph-name="p" unicode="&#x420;" horiz-adv-x="654" 
d="M52 0l-0.000976562 34.0029c23.333 1.33301 39.166 9.66602 47.499 24.999s12.5 36.333 12.5 63v353c0 67.333 14.5 117.166 43.5 149.499s61.167 54.5 96.5 66.5c22 7.33301 43.5 12 64.5 14s38.167 3 51.5 3c11.333 0 23.333 -0.833008 36 -2.5
s25.334 -4.5 38.001 -8.5c43.333 -12.667 83 -37.834 119 -75.501s54 -91.167 54 -160.5c0 -66 -23.333 -123.333 -70 -172s-111.667 -73 -195 -73c-12 0 -27.5 1.33301 -46.5 4s-38.167 8.66699 -57.5 18c-8 3.33301 -15.667 7.33301 -23 12s-14.666 10 -21.999 16h-3v-141
c0 -26 3.5 -47.667 10.5 -65s24.5 -26 52.5 -26v-34h-209v0zM197.999 534.003l-0.000976562 -201.998c9.33301 -14 19.5 -25.667 30.5 -35s21.833 -17 32.5 -23c16 -8 31.5 -13.167 46.5 -15.5s28.5 -3.5 40.5 -3.5c56.667 0 96.167 13.333 118.5 40
s36.5 56.334 42.5 89.001c2.66699 13.333 4.33398 26.666 5.00098 39.999s1 25.666 1 36.999s-0.333008 25 -1 41s-3 32.667 -7 50c-7.33301 29.333 -22.333 56.166 -45 80.499s-60 36.5 -112 36.5c-40.667 0 -76.167 -12 -106.5 -36s-45.5 -57 -45.5 -99v0z" />
    <glyph glyph-name="q" unicode="&#xd1;" horiz-adv-x="686" 
d="M620 530l-34.0029 -0.00195312c-14 34.667 -32.667 62 -56 82s-48 34.333 -74 43c-13.333 5.33301 -26.666 9 -39.999 11s-26 3 -38 3c-64.667 0 -120.667 -28.667 -168 -86s-71 -136.666 -71 -237.999c0 -92.667 22.333 -168.167 67 -226.5s108.334 -87.5 191.001 -87.5
c10.667 0 21.667 0.833008 33 2.5s22.333 3.83398 33 6.50098c30 8 59.333 20.5 88 37.5s53.667 37.833 75 62.5l21 -23l-1.5 -1.5l-1.5 -1.5c-27.333 -30.667 -63.166 -58.5 -107.499 -83.5s-97.166 -37.5 -158.499 -37.5c-106 0 -189 33.667 -249 101s-90 151.333 -90 252
c0 114 33.333 202.833 100 266.5s143.667 95.5 231 95.5c26 0 50.333 -2.16699 73 -6.5s45 -9.5 67 -15.5c21.333 -6 36.833 -9.83301 46.5 -11.5s17.834 -2.5 24.501 -2.5c1.33301 0 2.66602 0.166992 3.99902 0.5s2.66602 0.833008 3.99902 1.5
c2.66699 0.666992 5.5 2 8.5 4s5.5 4 7.5 6h15v-154v0z" />
    <glyph glyph-name="q" unicode="&#x421;" horiz-adv-x="686" 
d="M620 530l-34.0029 -0.00195312c-14 34.667 -32.667 62 -56 82s-48 34.333 -74 43c-13.333 5.33301 -26.666 9 -39.999 11s-26 3 -38 3c-64.667 0 -120.667 -28.667 -168 -86s-71 -136.666 -71 -237.999c0 -92.667 22.333 -168.167 67 -226.5s108.334 -87.5 191.001 -87.5
c10.667 0 21.667 0.833008 33 2.5s22.333 3.83398 33 6.50098c30 8 59.333 20.5 88 37.5s53.667 37.833 75 62.5l21 -23l-1.5 -1.5l-1.5 -1.5c-27.333 -30.667 -63.166 -58.5 -107.499 -83.5s-97.166 -37.5 -158.499 -37.5c-106 0 -189 33.667 -249 101s-90 151.333 -90 252
c0 114 33.333 202.833 100 266.5s143.667 95.5 231 95.5c26 0 50.333 -2.16699 73 -6.5s45 -9.5 67 -15.5c21.333 -6 36.833 -9.83301 46.5 -11.5s17.834 -2.5 24.501 -2.5c1.33301 0 2.66602 0.166992 3.99902 0.5s2.66602 0.833008 3.99902 1.5
c2.66699 0.666992 5.5 2 8.5 4s5.5 4 7.5 6h15v-154v0z" />
    <glyph glyph-name="Scaron" unicode="&#xd2;" horiz-adv-x="680" 
d="M13 573l0.000976562 135.001l242 -9h200l212 9v-135h-34c0 4 -0.333008 7.83301 -1 11.5s-1.66699 7.5 -3 11.5c-4.66699 16 -15.167 30.833 -31.5 44.5s-40.833 20.5 -73.5 20.5h-141v-546c0 -24 4.16699 -42.833 12.5 -56.5s23.833 -21.834 46.5 -24.501v-34h-205v34
c23.333 2.66699 39.166 10.667 47.499 24s12.5 32.333 12.5 57v546h-142c-38.667 0 -65.167 -9.16699 -79.5 -27.5s-23.833 -38.5 -28.5 -60.5h-34v0z" />
    <glyph glyph-name="Scaron" unicode="&#x422;" horiz-adv-x="680" 
d="M13 573l0.000976562 135.001l242 -9h200l212 9v-135h-34c0 4 -0.333008 7.83301 -1 11.5s-1.66699 7.5 -3 11.5c-4.66699 16 -15.167 30.833 -31.5 44.5s-40.833 20.5 -73.5 20.5h-141v-546c0 -24 4.16699 -42.833 12.5 -56.5s23.833 -21.834 46.5 -24.501v-34h-205v34
c23.333 2.66699 39.166 10.667 47.499 24s12.5 32.333 12.5 57v546h-142c-38.667 0 -65.167 -9.16699 -79.5 -27.5s-23.833 -38.5 -28.5 -60.5h-34v0z" />
    <glyph glyph-name="r" unicode="&#xd3;" horiz-adv-x="630" 
d="M630 700l0.000976562 -34.0029c-28 -5.33301 -48.5 -15.833 -61.5 -31.5s-24.167 -34.167 -33.5 -55.5l-143 -331c-1.33301 -3.33301 -2.83301 -6.83301 -4.5 -10.5s-3.16699 -7.16699 -4.5 -10.5l-6 -14c-2 -4.66699 -4 -9 -6 -13
c-22.667 -54 -48.334 -102 -77.001 -144s-72 -63 -130 -63c-5.33301 0 -10.5 0.166992 -15.5 0.5s-10.167 0.833008 -15.5 1.5c-24 3.33301 -45.833 11.5 -65.5 24.5s-29.5 32.5 -29.5 58.5c0 15.333 3.5 26.833 10.5 34.5s14.833 12.834 23.5 15.501
c2.66699 0.666992 5.16699 1.16699 7.5 1.5s4.5 0.5 6.5 0.5c15.333 0 28 -5.16699 38 -15.5s15 -21.833 15 -34.5v-6v-6c-0.666992 0 -1 -0.166992 -1 -0.5v-1.5v-4.5v-4.5c0 -1.33301 0.166992 -2.83301 0.5 -4.5s0.5 -3.16699 0.5 -4.5
c2 -5.33301 6.16699 -10.333 12.5 -15s16.166 -7 29.499 -7c10.667 0 22.667 3 36 9s27.333 17 42 33c9.33301 11.333 18.666 25.333 27.999 42s18.333 36.667 27 60l-236 419l-7.5 13.5c-2.33301 4.33301 -4.83301 8.5 -7.5 12.5c-8 14 -16.833 25.833 -26.5 35.5
s-21.834 14.834 -36.501 15.501v34h205v-34c-12 -0.666992 -21 -3 -27 -7s-10 -8.66699 -12 -14c-0.666992 -2 -1.16699 -3.83301 -1.5 -5.5s-0.5 -3.5 -0.5 -5.5c0 -3.33301 0.5 -7.16602 1.5 -11.499s2.5 -8.5 4.5 -12.5c0.666992 -2.66699 1.66699 -5.33398 3 -8.00098
l4 -8l5.5 -9.5c1.66699 -3 3.16699 -5.83301 4.5 -8.5l169 -301h4l133 304c0.666992 1.33301 1.33398 3 2.00098 5l2 6c0.666992 2 1.33398 3.83301 2.00098 5.5s1 3.5 1 5.5c1.33301 4 2.33301 7.83301 3 11.5s1 6.83398 1 9.50098c0 12 -4.16699 22.333 -12.5 31
s-19.166 13 -32.499 13h-2.5h-3.5v34h177v0z" />
    <glyph glyph-name="r" unicode="&#x423;" horiz-adv-x="630" 
d="M630 700l0.000976562 -34.0029c-28 -5.33301 -48.5 -15.833 -61.5 -31.5s-24.167 -34.167 -33.5 -55.5l-143 -331c-1.33301 -3.33301 -2.83301 -6.83301 -4.5 -10.5s-3.16699 -7.16699 -4.5 -10.5l-6 -14c-2 -4.66699 -4 -9 -6 -13
c-22.667 -54 -48.334 -102 -77.001 -144s-72 -63 -130 -63c-5.33301 0 -10.5 0.166992 -15.5 0.5s-10.167 0.833008 -15.5 1.5c-24 3.33301 -45.833 11.5 -65.5 24.5s-29.5 32.5 -29.5 58.5c0 15.333 3.5 26.833 10.5 34.5s14.833 12.834 23.5 15.501
c2.66699 0.666992 5.16699 1.16699 7.5 1.5s4.5 0.5 6.5 0.5c15.333 0 28 -5.16699 38 -15.5s15 -21.833 15 -34.5v-6v-6c-0.666992 0 -1 -0.166992 -1 -0.5v-1.5v-4.5v-4.5c0 -1.33301 0.166992 -2.83301 0.5 -4.5s0.5 -3.16699 0.5 -4.5
c2 -5.33301 6.16699 -10.333 12.5 -15s16.166 -7 29.499 -7c10.667 0 22.667 3 36 9s27.333 17 42 33c9.33301 11.333 18.666 25.333 27.999 42s18.333 36.667 27 60l-236 419l-7.5 13.5c-2.33301 4.33301 -4.83301 8.5 -7.5 12.5c-8 14 -16.833 25.833 -26.5 35.5
s-21.834 14.834 -36.501 15.501v34h205v-34c-12 -0.666992 -21 -3 -27 -7s-10 -8.66699 -12 -14c-0.666992 -2 -1.16699 -3.83301 -1.5 -5.5s-0.5 -3.5 -0.5 -5.5c0 -3.33301 0.5 -7.16602 1.5 -11.499s2.5 -8.5 4.5 -12.5c0.666992 -2.66699 1.66699 -5.33398 3 -8.00098
l4 -8l5.5 -9.5c1.66699 -3 3.16699 -5.83301 4.5 -8.5l169 -301h4l133 304c0.666992 1.33301 1.33398 3 2.00098 5l2 6c0.666992 2 1.33398 3.83301 2.00098 5.5s1 3.5 1 5.5c1.33301 4 2.33301 7.83301 3 11.5s1 6.83398 1 9.50098c0 12 -4.16699 22.333 -12.5 31
s-19.166 13 -32.499 13h-2.5h-3.5v34h177v0z" />
    <glyph glyph-name="t" unicode="&#xd4;" horiz-adv-x="918" 
d="M355 700h208.002v-34c-22.667 -2 -38.5 -10.167 -47.5 -24.5s-13.5 -33.166 -13.5 -56.499v-46h4c14 23.333 32 42.333 54 57s45 24.334 69 29.001c6 1.33301 12 2.33301 18 3s12 1 18 1c65.333 0 116.166 -27.5 152.499 -82.5s56.5 -115.5 60.5 -181.5
c0.666992 -4 1 -8.16699 1 -12.5v-13.5c0 -76 -16.5 -134.667 -49.5 -176s-69.167 -68.666 -108.5 -81.999c-10.667 -3.33301 -21.167 -5.83301 -31.5 -7.5s-20.166 -2.5 -29.499 -2.5c-34.667 0 -64.334 8.5 -89.001 25.5s-46.667 41.167 -66 72.5h-3v-54
c0 -23.333 4.5 -42.166 13.5 -56.499s24.833 -22.5 47.5 -24.5v-34h-208v34c22.667 2 38.5 10.167 47.5 24.5s13.5 33.166 13.5 56.499v54h-3c-19.333 -31.333 -41.333 -55.5 -66 -72.5s-54.334 -25.5 -89.001 -25.5c-9.33301 0 -19.166 0.833008 -29.499 2.5
s-20.833 4.16699 -31.5 7.5c-39.333 13.333 -75.5 40.666 -108.5 81.999s-49.5 100 -49.5 176v13.5c0 4.33301 0.333008 8.5 1 12.5c4 66 24.167 126.5 60.5 181.5s87.166 82.5 152.499 82.5c6 0 12 -0.333008 18 -1s12 -1.66699 18 -3c24 -4.66699 47 -14.334 69 -29.001
s40 -33.667 54 -57h4v46c0 23.333 -4.5 42.166 -13.5 56.499s-24.833 22.5 -47.5 24.5v34v0zM416.002 335l0.000976562 59.0029c0 54.667 -9.33301 95.667 -28 123s-39.334 45.666 -62.001 54.999c-8 3.33301 -16 5.83301 -24 7.5s-15.667 2.5 -23 2.5
s-15.666 -0.833008 -24.999 -2.5s-18.666 -4.5 -27.999 -8.5c-21.333 -10.667 -41.166 -32.834 -59.499 -66.501s-27.5 -87.5 -27.5 -161.5c0 -64.667 8.16699 -112.667 24.5 -144s34.166 -53 53.499 -65c11.333 -6.66699 22.166 -11 32.499 -13s19.166 -3 26.499 -3
s14.833 0.666992 22.5 2s15.5 3.66602 23.5 6.99902c23.333 10 44.833 30.5 64.5 61.5s29.5 79.833 29.5 146.5v0zM502.003 335.003c0 -66 9.16992 -114.332 27.5029 -144.999s38.166 -51 59.499 -61c9.33301 -4 18.666 -6.83301 27.999 -8.5s17.666 -2.5 24.999 -2.5
s16 1 26 3s20.333 6 31 12c20 11.333 38.333 32.833 55 64.5s25 80.167 25 145.5c0 95.333 -14.167 159 -42.5 191s-60.833 48 -97.5 48c-7.33301 0 -15.5 -1 -24.5 -3s-18.167 -5 -27.5 -9c-21.333 -10.667 -40.833 -29.334 -58.5 -56.001s-26.5 -66.667 -26.5 -120v-59v0z
" />
    <glyph glyph-name="t" unicode="&#x424;" horiz-adv-x="918" 
d="M355 700h208.002v-34c-22.667 -2 -38.5 -10.167 -47.5 -24.5s-13.5 -33.166 -13.5 -56.499v-46h4c14 23.333 32 42.333 54 57s45 24.334 69 29.001c6 1.33301 12 2.33301 18 3s12 1 18 1c65.333 0 116.166 -27.5 152.499 -82.5s56.5 -115.5 60.5 -181.5
c0.666992 -4 1 -8.16699 1 -12.5v-13.5c0 -76 -16.5 -134.667 -49.5 -176s-69.167 -68.666 -108.5 -81.999c-10.667 -3.33301 -21.167 -5.83301 -31.5 -7.5s-20.166 -2.5 -29.499 -2.5c-34.667 0 -64.334 8.5 -89.001 25.5s-46.667 41.167 -66 72.5h-3v-54
c0 -23.333 4.5 -42.166 13.5 -56.499s24.833 -22.5 47.5 -24.5v-34h-208v34c22.667 2 38.5 10.167 47.5 24.5s13.5 33.166 13.5 56.499v54h-3c-19.333 -31.333 -41.333 -55.5 -66 -72.5s-54.334 -25.5 -89.001 -25.5c-9.33301 0 -19.166 0.833008 -29.499 2.5
s-20.833 4.16699 -31.5 7.5c-39.333 13.333 -75.5 40.666 -108.5 81.999s-49.5 100 -49.5 176v13.5c0 4.33301 0.333008 8.5 1 12.5c4 66 24.167 126.5 60.5 181.5s87.166 82.5 152.499 82.5c6 0 12 -0.333008 18 -1s12 -1.66699 18 -3c24 -4.66699 47 -14.334 69 -29.001
s40 -33.667 54 -57h4v46c0 23.333 -4.5 42.166 -13.5 56.499s-24.833 22.5 -47.5 24.5v34v0zM416.002 335l0.000976562 59.0029c0 54.667 -9.33301 95.667 -28 123s-39.334 45.666 -62.001 54.999c-8 3.33301 -16 5.83301 -24 7.5s-15.667 2.5 -23 2.5
s-15.666 -0.833008 -24.999 -2.5s-18.666 -4.5 -27.999 -8.5c-21.333 -10.667 -41.166 -32.834 -59.499 -66.501s-27.5 -87.5 -27.5 -161.5c0 -64.667 8.16699 -112.667 24.5 -144s34.166 -53 53.499 -65c11.333 -6.66699 22.166 -11 32.499 -13s19.166 -3 26.499 -3
s14.833 0.666992 22.5 2s15.5 3.66602 23.5 6.99902c23.333 10 44.833 30.5 64.5 61.5s29.5 79.833 29.5 146.5v0zM502.003 335.003c0 -66 9.16992 -114.332 27.5029 -144.999s38.166 -51 59.499 -61c9.33301 -4 18.666 -6.83301 27.999 -8.5s17.666 -2.5 24.999 -2.5
s16 1 26 3s20.333 6 31 12c20 11.333 38.333 32.833 55 64.5s25 80.167 25 145.5c0 95.333 -14.167 159 -42.5 191s-60.833 48 -97.5 48c-7.33301 0 -15.5 -1 -24.5 -3s-18.167 -5 -27.5 -9c-21.333 -10.667 -40.833 -29.334 -58.5 -56.001s-26.5 -66.667 -26.5 -120v-59v0z
" />
    <glyph glyph-name="u" unicode="&#xd5;" horiz-adv-x="790" 
d="M753 700l0.00195312 -34.001c-20.667 -1.33301 -38.167 -5.66602 -52.5 -12.999s-28.166 -17.333 -41.499 -30l-10.5 -11l-11.5 -12l-197 -219l201 -259c3.33301 -4.66699 8.16602 -10.667 14.499 -18s14.166 -15 23.499 -23c12 -10.667 26.333 -20.5 43 -29.5
s35 -14.833 55 -17.5v-34h-243v34c10 -0.666992 18 0.666016 24 3.99902s9 9.33301 9 18c0 3.33301 -1 8.33301 -3 15s-7.66699 15.667 -17 27l-170 218l-197 -223c-7.33301 -8.66699 -12 -15.834 -14 -21.501s-3 -10.167 -3 -13.5c0 -6.66699 2.16699 -12.167 6.5 -16.5
s9.16602 -6.83301 14.499 -7.5h2.5h2.5h2.5h2.5h2h2h1h2v-34h-188v34c21.333 1.33301 41.5 7.83301 60.5 19.5s34.833 24.834 47.5 39.501l231 256l-170 218c-12.667 16 -24.667 30.333 -36 43s-22.666 23.334 -33.999 32.001s-22.666 15.167 -33.999 19.5
s-23.333 5.83301 -36 4.5v34h235v-34c-6.66699 0.666992 -12.834 -0.666016 -18.501 -3.99902s-8.5 -7.33301 -8.5 -12c0 -8.66699 1 -16.334 3 -23.001s4.33301 -11.667 7 -15l155 -200l166 191c1.33301 1.33301 2.66602 3 3.99902 5s3 4 5 6
c0.666992 2 1.5 3.83301 2.5 5.5s2.16699 3.16699 3.5 4.5l3.5 9c1 2.66699 1.5 5 1.5 7c0 7.33301 -3 13.5 -9 18.5s-13.667 7.5 -23 7.5v34h184v0z" />
    <glyph glyph-name="u" unicode="&#x425;" horiz-adv-x="790" 
d="M753 700l0.00195312 -34.001c-20.667 -1.33301 -38.167 -5.66602 -52.5 -12.999s-28.166 -17.333 -41.499 -30l-10.5 -11l-11.5 -12l-197 -219l201 -259c3.33301 -4.66699 8.16602 -10.667 14.499 -18s14.166 -15 23.499 -23c12 -10.667 26.333 -20.5 43 -29.5
s35 -14.833 55 -17.5v-34h-243v34c10 -0.666992 18 0.666016 24 3.99902s9 9.33301 9 18c0 3.33301 -1 8.33301 -3 15s-7.66699 15.667 -17 27l-170 218l-197 -223c-7.33301 -8.66699 -12 -15.834 -14 -21.501s-3 -10.167 -3 -13.5c0 -6.66699 2.16699 -12.167 6.5 -16.5
s9.16602 -6.83301 14.499 -7.5h2.5h2.5h2.5h2.5h2h2h1h2v-34h-188v34c21.333 1.33301 41.5 7.83301 60.5 19.5s34.833 24.834 47.5 39.501l231 256l-170 218c-12.667 16 -24.667 30.333 -36 43s-22.666 23.334 -33.999 32.001s-22.666 15.167 -33.999 19.5
s-23.333 5.83301 -36 4.5v34h235v-34c-6.66699 0.666992 -12.834 -0.666016 -18.501 -3.99902s-8.5 -7.33301 -8.5 -12c0 -8.66699 1 -16.334 3 -23.001s4.33301 -11.667 7 -15l155 -200l166 191c1.33301 1.33301 2.66602 3 3.99902 5s3 4 5 6
c0.666992 2 1.5 3.83301 2.5 5.5s2.16699 3.16699 3.5 4.5l3.5 9c1 2.66699 1.5 5 1.5 7c0 7.33301 -3 13.5 -9 18.5s-13.667 7.5 -23 7.5v34h184v0z" />
    <glyph glyph-name="zero" unicode="&#xd6;" horiz-adv-x="804" 
d="M52 700l204.995 -0.00195312v-34c-19.333 -2.66699 -33 -9.33398 -41 -20.001s-13.333 -22.334 -16 -35.001c-0.666992 -4.66699 -1.16699 -9.16699 -1.5 -13.5s-0.5 -8.5 -0.5 -12.5v-546h404v546c0 24 -4.33301 42.5 -13 55.5s-24 21.5 -46 25.5v34h204v-34
c-22 -2.66699 -37.333 -10.834 -46 -24.501s-13 -32.5 -13 -56.5v-475v-6v-6c0 -3.33301 -0.166992 -6.66602 -0.5 -9.99902s-0.166016 -6.66602 0.500977 -9.99902c0.666992 -9.33301 3 -18.666 7 -27.999s12 -19.666 24 -30.999l8 -8l8 -8
c8.66699 -8.66699 16.5 -19.667 23.5 -33s10.5 -30 10.5 -50v-6.5c0 -2.33301 -0.333008 -4.5 -1 -6.5c-3.33301 -28 -17.666 -53.667 -42.999 -77s-64 -35 -116 -35c-4.66699 0 -9.5 0.166992 -14.5 0.5s-9.83301 0.5 -14.5 0.5c-30 2.66699 -59.5 7.83398 -88.5 15.501
s-56.5 15.834 -82.5 24.501l-23.5 8l-22.5 8l-41.5 14.5c-13.667 5 -27.167 9.16699 -40.5 12.5c-13.333 4 -26.833 7.16699 -40.5 9.5s-27.5 3.5 -41.5 3.5c-21.333 0 -36.166 -3 -44.499 -9s-13.5 -12.333 -15.5 -19c-0.666992 -0.666992 -1 -1.16699 -1 -1.5v-1.5
c1.33301 0.666992 2.83301 1 4.5 1h4.5c10 0 17.833 -3.33301 23.5 -10s8.83398 -14 9.50098 -22v-1.5v-1.5c0 -9.33301 -3 -17.5 -9 -24.5s-14.667 -10.5 -26 -10.5h-1.5h-1.5c-9.33301 0.666992 -18 5.16699 -26 13.5s-12 21.5 -12 39.5v4v4
c2.66699 22.667 16.5 43.5 41.5 62.5s62.833 28.5 113.5 28.5c14 0 27.833 -0.833008 41.5 -2.5s27.5 -3.83398 41.5 -6.50098c23.333 -4.66699 46.5 -10.5 69.5 -17.5s45.167 -14.5 66.5 -22.5c4.66699 -1.33301 9.16699 -2.83301 13.5 -4.5s8.83301 -3.16699 13.5 -4.5
l19.5 -6.5l22.5 -7.5c6.66699 -2.66699 13.834 -5 21.501 -7l22.5 -6c12 -3.33301 23.833 -6 35.5 -8s22.5 -3 32.5 -3c24 0 42.167 6.66699 54.5 20s19.5 27.666 21.5 42.999v4v4c0 34.667 -9.5 56.834 -28.5 66.501s-45.5 14.5 -79.5 14.5h-575v34
c23.333 2 39.166 10 47.499 24s12.5 33 12.5 57v470c0 24 -4.16699 43 -12.5 57s-24.166 22 -47.499 24v34v0z" />
    <glyph glyph-name="zero" unicode="&#x426;" horiz-adv-x="804" 
d="M52 700l204.995 -0.00195312v-34c-19.333 -2.66699 -33 -9.33398 -41 -20.001s-13.333 -22.334 -16 -35.001c-0.666992 -4.66699 -1.16699 -9.16699 -1.5 -13.5s-0.5 -8.5 -0.5 -12.5v-546h404v546c0 24 -4.33301 42.5 -13 55.5s-24 21.5 -46 25.5v34h204v-34
c-22 -2.66699 -37.333 -10.834 -46 -24.501s-13 -32.5 -13 -56.5v-475v-6v-6c0 -3.33301 -0.166992 -6.66602 -0.5 -9.99902s-0.166016 -6.66602 0.500977 -9.99902c0.666992 -9.33301 3 -18.666 7 -27.999s12 -19.666 24 -30.999l8 -8l8 -8
c8.66699 -8.66699 16.5 -19.667 23.5 -33s10.5 -30 10.5 -50v-6.5c0 -2.33301 -0.333008 -4.5 -1 -6.5c-3.33301 -28 -17.666 -53.667 -42.999 -77s-64 -35 -116 -35c-4.66699 0 -9.5 0.166992 -14.5 0.5s-9.83301 0.5 -14.5 0.5c-30 2.66699 -59.5 7.83398 -88.5 15.501
s-56.5 15.834 -82.5 24.501l-23.5 8l-22.5 8l-41.5 14.5c-13.667 5 -27.167 9.16699 -40.5 12.5c-13.333 4 -26.833 7.16699 -40.5 9.5s-27.5 3.5 -41.5 3.5c-21.333 0 -36.166 -3 -44.499 -9s-13.5 -12.333 -15.5 -19c-0.666992 -0.666992 -1 -1.16699 -1 -1.5v-1.5
c1.33301 0.666992 2.83301 1 4.5 1h4.5c10 0 17.833 -3.33301 23.5 -10s8.83398 -14 9.50098 -22v-1.5v-1.5c0 -9.33301 -3 -17.5 -9 -24.5s-14.667 -10.5 -26 -10.5h-1.5h-1.5c-9.33301 0.666992 -18 5.16699 -26 13.5s-12 21.5 -12 39.5v4v4
c2.66699 22.667 16.5 43.5 41.5 62.5s62.833 28.5 113.5 28.5c14 0 27.833 -0.833008 41.5 -2.5s27.5 -3.83398 41.5 -6.50098c23.333 -4.66699 46.5 -10.5 69.5 -17.5s45.167 -14.5 66.5 -22.5c4.66699 -1.33301 9.16699 -2.83301 13.5 -4.5s8.83301 -3.16699 13.5 -4.5
l19.5 -6.5l22.5 -7.5c6.66699 -2.66699 13.834 -5 21.501 -7l22.5 -6c12 -3.33301 23.833 -6 35.5 -8s22.5 -3 32.5 -3c24 0 42.167 6.66699 54.5 20s19.5 27.666 21.5 42.999v4v4c0 34.667 -9.5 56.834 -28.5 66.501s-45.5 14.5 -79.5 14.5h-575v34
c23.333 2 39.166 10 47.499 24s12.5 33 12.5 57v470c0 24 -4.16699 43 -12.5 57s-24.166 22 -47.499 24v34v0z" />
    <glyph glyph-name="parenright" unicode="&#xd7;" horiz-adv-x="695" 
d="M13 700l203.997 -0.00292969v-34c-22 -2.66699 -37.333 -10.834 -46 -24.501s-13 -32.5 -13 -56.5v-135c0 -7.33301 0.333008 -15.166 1 -23.499s2.33398 -17.166 5.00098 -26.499c6 -20.667 19.333 -39.5 40 -56.5s56 -25.5 106 -25.5c14.667 0 30.834 1.5 48.501 4.5
s35.5 6.83301 53.5 11.5c14.667 4.66699 29.334 9.66699 44.001 15s28.334 11 41.001 17v219c0 23.333 -4 42 -12 56s-23.667 22.333 -47 25v34h205v-34c-18.667 -1.33301 -32.167 -7 -40.5 -17s-13.833 -20.667 -16.5 -32c-1.33301 -6 -2.16602 -11.667 -2.49902 -17
s-0.5 -10.333 -0.5 -15v-470c0 -21.333 4.16699 -39.666 12.5 -54.999s24.166 -24 47.499 -26v-34h-205v34c24 2.66699 39.833 11.667 47.5 27s11.5 33.333 11.5 54v204c-46.667 -18.667 -88.167 -30.667 -124.5 -36s-63.5 -8 -81.5 -8c-76.667 0 -129.667 12.5 -159 37.5
s-47.333 52.5 -54 82.5c-2.66699 11.333 -4.33398 22.333 -5.00098 33s-1 20.667 -1 30v127c0 24 -4 42.833 -12 56.5s-23.667 21.834 -47 24.501v34v0z" />
    <glyph glyph-name="parenright" unicode="&#x427;" horiz-adv-x="695" 
d="M13 700l203.997 -0.00292969v-34c-22 -2.66699 -37.333 -10.834 -46 -24.501s-13 -32.5 -13 -56.5v-135c0 -7.33301 0.333008 -15.166 1 -23.499s2.33398 -17.166 5.00098 -26.499c6 -20.667 19.333 -39.5 40 -56.5s56 -25.5 106 -25.5c14.667 0 30.834 1.5 48.501 4.5
s35.5 6.83301 53.5 11.5c14.667 4.66699 29.334 9.66699 44.001 15s28.334 11 41.001 17v219c0 23.333 -4 42 -12 56s-23.667 22.333 -47 25v34h205v-34c-18.667 -1.33301 -32.167 -7 -40.5 -17s-13.833 -20.667 -16.5 -32c-1.33301 -6 -2.16602 -11.667 -2.49902 -17
s-0.5 -10.333 -0.5 -15v-470c0 -21.333 4.16699 -39.666 12.5 -54.999s24.166 -24 47.499 -26v-34h-205v34c24 2.66699 39.833 11.667 47.5 27s11.5 33.333 11.5 54v204c-46.667 -18.667 -88.167 -30.667 -124.5 -36s-63.5 -8 -81.5 -8c-76.667 0 -129.667 12.5 -159 37.5
s-47.333 52.5 -54 82.5c-2.66699 11.333 -4.33398 22.333 -5.00098 33s-1 20.667 -1 30v127c0 24 -4 42.833 -12 56.5s-23.667 21.834 -47 24.501v34v0z" />
    <glyph glyph-name="x" unicode="&#xd8;" horiz-adv-x="1110" 
d="M52 0l-0.00195312 33.999c22 2.66699 37.333 10.834 46 24.501s13 32.5 13 56.5v470c0 24 -4.33301 42.833 -13 56.5s-24 21.834 -46 24.501v34h204v-34c-22 -2.66699 -37.333 -10.834 -46 -24.501s-13 -32.5 -13 -56.5v-546h315v546c0 24 -4.16699 43 -12.5 57
s-24.166 22 -47.499 24v34h205v-34c-23.333 -2.66699 -39 -10.667 -47 -24s-12 -32.333 -12 -57v-546h315v546c0 24.667 -4.66699 43.834 -14 57.501s-24.666 21.5 -45.999 23.5v34h205v-34c-22 -2.66699 -37.333 -10.667 -46 -24s-13 -32.333 -13 -57v-470
c0 -24 4.16699 -42.833 12.5 -56.5s23.833 -21.834 46.5 -24.501v-34h-1006v0z" />
    <glyph glyph-name="x" unicode="&#x428;" horiz-adv-x="1110" 
d="M52 0l-0.00195312 33.999c22 2.66699 37.333 10.834 46 24.501s13 32.5 13 56.5v470c0 24 -4.33301 42.833 -13 56.5s-24 21.834 -46 24.501v34h204v-34c-22 -2.66699 -37.333 -10.834 -46 -24.501s-13 -32.5 -13 -56.5v-546h315v546c0 24 -4.16699 43 -12.5 57
s-24.166 22 -47.499 24v34h205v-34c-23.333 -2.66699 -39 -10.667 -47 -24s-12 -32.333 -12 -57v-546h315v546c0 24.667 -4.66699 43.834 -14 57.501s-24.666 21.5 -45.999 23.5v34h205v-34c-22 -2.66699 -37.333 -10.667 -46 -24s-13 -32.333 -13 -57v-470
c0 -24 4.16699 -42.833 12.5 -56.5s23.833 -21.834 46.5 -24.501v-34h-1006v0z" />
    <glyph glyph-name="y" unicode="&#xd9;" horiz-adv-x="1128" 
d="M1058 700l0.000976562 -34.0059c-22 -2.66699 -37.333 -10.667 -46 -24s-13 -32.333 -13 -57v-475c0 -28 2.83301 -47.5 8.5 -58.5s12.834 -19.833 21.501 -26.5l3.5 -3.5c1 -1 2.16699 -1.83301 3.5 -2.5c2.66699 -2 5.5 -4.33301 8.5 -7s6.16699 -5.66699 9.5 -9
c10 -8.66699 19 -19.667 27 -33s12 -29.333 12 -48c0 -3.33301 -0.166992 -6.83301 -0.5 -10.5s-0.833008 -7.16699 -1.5 -10.5c-5.33301 -26.667 -23.833 -51 -55.5 -73s-85.167 -33 -160.5 -33c-6.66699 0 -13.167 0.166992 -19.5 0.5s-12.833 0.5 -19.5 0.5
c-37.333 2.66699 -74 7.5 -110 14.5s-69.333 14.833 -100 23.5l-35 10l-31 9c-4 1.33301 -7.83301 2.5 -11.5 3.5s-7.16699 2.16699 -10.5 3.5l-34 10c-11.333 3.33301 -22.666 6.33301 -33.999 9c-15.333 4 -30.666 7.16699 -45.999 9.5s-30.333 3.5 -45 3.5h-0.5h-0.5
c-3.33301 0 -7.5 -0.166992 -12.5 -0.5s-10.167 -0.833008 -15.5 -1.5c-8 -1.33301 -15.167 -4.16602 -21.5 -8.49902s-10.5 -11.166 -12.5 -20.499c1.33301 0.666992 2.83301 1 4.5 1h4.5c9.33301 0 17.166 -3.66699 23.499 -11s9.5 -15.333 9.5 -24
c0 -9.33301 -3 -17.5 -9 -24.5s-14.667 -10.5 -26 -10.5c-2 0 -4.5 0.333008 -7.5 1s-6.16699 1.66699 -9.5 3c-6 2.66699 -11.5 7.83398 -16.5 15.501s-7.5 18.5 -7.5 32.5c0 30.667 11.667 53.334 35 68.001s48.666 24.334 75.999 29.001
c9.33301 1.33301 18.666 2.33301 27.999 3s18 1 26 1c22.667 0 53.667 -2.83301 93 -8.5s94.333 -18.834 165 -39.501c55.333 -16 102.666 -28.333 141.999 -37s73.333 -13 102 -13c5.33301 0 12.666 0.5 21.999 1.5s19 2.83301 29 5.5c15.333 4 29.166 11 41.499 21
s18.5 24.667 18.5 44v5c0 2 -0.333008 3.66699 -1 5c-2 18 -12 34.333 -30 49s-51.333 22 -100 22h-877v34c22 2.66699 37.333 10.834 46 24.501s13 32.5 13 56.5v470c0 24 -4.33301 42.833 -13 56.5s-24 21.834 -46 24.501v34h204v-34
c-22 -2.66699 -37.333 -10.834 -46 -24.501s-13 -32.5 -13 -56.5v-546h315v546c0 24 -4.16699 43 -12.5 57s-24.166 22 -47.499 24v34h205v-34c-23.333 -2.66699 -39 -10.667 -47 -24s-12 -32.333 -12 -57v-546h315v546c0 24.667 -4.66699 43.834 -14 57.501
s-24.666 21.5 -45.999 23.5v34h205v0z" />
    <glyph glyph-name="y" unicode="&#x429;" horiz-adv-x="1128" 
d="M1058 700l0.000976562 -34.0059c-22 -2.66699 -37.333 -10.667 -46 -24s-13 -32.333 -13 -57v-475c0 -28 2.83301 -47.5 8.5 -58.5s12.834 -19.833 21.501 -26.5l3.5 -3.5c1 -1 2.16699 -1.83301 3.5 -2.5c2.66699 -2 5.5 -4.33301 8.5 -7s6.16699 -5.66699 9.5 -9
c10 -8.66699 19 -19.667 27 -33s12 -29.333 12 -48c0 -3.33301 -0.166992 -6.83301 -0.5 -10.5s-0.833008 -7.16699 -1.5 -10.5c-5.33301 -26.667 -23.833 -51 -55.5 -73s-85.167 -33 -160.5 -33c-6.66699 0 -13.167 0.166992 -19.5 0.5s-12.833 0.5 -19.5 0.5
c-37.333 2.66699 -74 7.5 -110 14.5s-69.333 14.833 -100 23.5l-35 10l-31 9c-4 1.33301 -7.83301 2.5 -11.5 3.5s-7.16699 2.16699 -10.5 3.5l-34 10c-11.333 3.33301 -22.666 6.33301 -33.999 9c-15.333 4 -30.666 7.16699 -45.999 9.5s-30.333 3.5 -45 3.5h-0.5h-0.5
c-3.33301 0 -7.5 -0.166992 -12.5 -0.5s-10.167 -0.833008 -15.5 -1.5c-8 -1.33301 -15.167 -4.16602 -21.5 -8.49902s-10.5 -11.166 -12.5 -20.499c1.33301 0.666992 2.83301 1 4.5 1h4.5c9.33301 0 17.166 -3.66699 23.499 -11s9.5 -15.333 9.5 -24
c0 -9.33301 -3 -17.5 -9 -24.5s-14.667 -10.5 -26 -10.5c-2 0 -4.5 0.333008 -7.5 1s-6.16699 1.66699 -9.5 3c-6 2.66699 -11.5 7.83398 -16.5 15.501s-7.5 18.5 -7.5 32.5c0 30.667 11.667 53.334 35 68.001s48.666 24.334 75.999 29.001
c9.33301 1.33301 18.666 2.33301 27.999 3s18 1 26 1c22.667 0 53.667 -2.83301 93 -8.5s94.333 -18.834 165 -39.501c55.333 -16 102.666 -28.333 141.999 -37s73.333 -13 102 -13c5.33301 0 12.666 0.5 21.999 1.5s19 2.83301 29 5.5c15.333 4 29.166 11 41.499 21
s18.5 24.667 18.5 44v5c0 2 -0.333008 3.66699 -1 5c-2 18 -12 34.333 -30 49s-51.333 22 -100 22h-877v34c22 2.66699 37.333 10.834 46 24.501s13 32.5 13 56.5v470c0 24 -4.33301 42.833 -13 56.5s-24 21.834 -46 24.501v34h204v-34
c-22 -2.66699 -37.333 -10.834 -46 -24.501s-13 -32.5 -13 -56.5v-546h315v546c0 24 -4.16699 43 -12.5 57s-24.166 22 -47.499 24v34h205v-34c-23.333 -2.66699 -39 -10.667 -47 -24s-12 -32.333 -12 -57v-546h315v546c0 24.667 -4.66699 43.834 -14 57.501
s-24.666 21.5 -45.999 23.5v34h205v0z" />
    <glyph glyph-name="z" unicode="&#xda;" horiz-adv-x="760" 
d="M13 700h379.998v-34c-2.66699 0 -5.66699 -0.333008 -9 -1s-6.33301 -1.66699 -9 -3c-10.667 -4 -20.167 -11.667 -28.5 -23s-12.5 -29.333 -12.5 -54v-179h128c12.667 0 29.834 -0.666992 51.501 -2s44.167 -5.33301 67.5 -12c35.333 -10 67.5 -28.833 96.5 -56.5
s43.5 -71.167 43.5 -130.5c0 -63.333 -14.5 -109 -43.5 -137s-60.833 -46.667 -95.5 -56c-22 -6 -43.167 -9.5 -63.5 -10.5s-37.166 -1.5 -50.499 -1.5h-0.5h-0.5h-278v34c23.333 2.66699 39 11 47 25s12 32.667 12 56v546h-73c-35.333 0 -62 -12.167 -80 -36.5
s-33.333 -54.5 -46 -90.5h-36v166v0zM333.998 39l112 -0.000976562c79.333 0 128.333 16.667 147 50s28 70.666 28 111.999v14c0 4.66699 -0.333008 9.33398 -1 14.001c-2.66699 34.667 -15.5 66.334 -38.5 95.001s-71.167 43 -144.5 43h-103v-328v0z" />
    <glyph glyph-name="z" unicode="&#x42a;" horiz-adv-x="760" 
d="M13 700h379.998v-34c-2.66699 0 -5.66699 -0.333008 -9 -1s-6.33301 -1.66699 -9 -3c-10.667 -4 -20.167 -11.667 -28.5 -23s-12.5 -29.333 -12.5 -54v-179h128c12.667 0 29.834 -0.666992 51.501 -2s44.167 -5.33301 67.5 -12c35.333 -10 67.5 -28.833 96.5 -56.5
s43.5 -71.167 43.5 -130.5c0 -63.333 -14.5 -109 -43.5 -137s-60.833 -46.667 -95.5 -56c-22 -6 -43.167 -9.5 -63.5 -10.5s-37.166 -1.5 -50.499 -1.5h-0.5h-0.5h-278v34c23.333 2.66699 39 11 47 25s12 32.667 12 56v546h-73c-35.333 0 -62 -12.167 -80 -36.5
s-33.333 -54.5 -46 -90.5h-36v166v0zM333.998 39l112 -0.000976562c79.333 0 128.333 16.667 147 50s28 70.666 28 111.999v14c0 4.66699 -0.333008 9.33398 -1 14.001c-2.66699 34.667 -15.5 66.334 -38.5 95.001s-71.167 43 -144.5 43h-103v-328v0z" />
    <glyph glyph-name="braceleft" unicode="&#xdb;" horiz-adv-x="851" 
d="M52 700l206.001 0.000976562v-34c-22.667 -2 -38.334 -10.167 -47.001 -24.5s-13 -33.166 -13 -56.499v-179h128c14.667 0 31 -0.5 49 -1.5s36.333 -3.83301 55 -8.5c38.667 -8.66699 74.167 -26.834 106.5 -54.501s48.5 -73.167 48.5 -136.5
c0 -66.667 -15.167 -114 -45.5 -142s-63.5 -46 -99.5 -54c-19.333 -4.66699 -38.333 -7.33398 -57 -8.00098s-35 -1 -49 -1h-1.5h-1.5h-279v34c23.333 2.66699 39.166 10.667 47.499 24s12.5 32.333 12.5 57v470c0 24.667 -4.16699 43.667 -12.5 57
s-24.166 21.333 -47.499 24v34v0zM198.001 39.001h112c8 0 16.667 0.166992 26 0.5s18.333 0.833008 27 1.5c30.667 4 58.667 16.333 84 37s38 61.667 38 123v12c0 4 -0.333008 8 -1 12c-2 35.333 -14.5 67.833 -37.5 97.5s-71.5 44.5 -145.5 44.5h-103v-328v0z
M818.001 700.001l-0.00195312 -33.9971c-20.667 -2.66699 -35 -9.33398 -43 -20.001s-12.667 -22 -14 -34c-0.666992 -4.66699 -1.16699 -9.33398 -1.5 -14.001s-0.5 -9 -0.5 -13v-470c0 -23.333 4 -42.166 12 -56.499s23.667 -22.5 47 -24.5v-34h-205v34
c22.667 2 38.334 10.167 47.001 24.5s13 33.166 13 56.499v470c0 21.333 -4.16699 39.666 -12.5 54.999s-24.166 24 -47.499 26v34h205v0z" />
    <glyph glyph-name="braceleft" unicode="&#x42b;" horiz-adv-x="851" 
d="M52 700l206.001 0.000976562v-34c-22.667 -2 -38.334 -10.167 -47.001 -24.5s-13 -33.166 -13 -56.499v-179h128c14.667 0 31 -0.5 49 -1.5s36.333 -3.83301 55 -8.5c38.667 -8.66699 74.167 -26.834 106.5 -54.501s48.5 -73.167 48.5 -136.5
c0 -66.667 -15.167 -114 -45.5 -142s-63.5 -46 -99.5 -54c-19.333 -4.66699 -38.333 -7.33398 -57 -8.00098s-35 -1 -49 -1h-1.5h-1.5h-279v34c23.333 2.66699 39.166 10.667 47.499 24s12.5 32.333 12.5 57v470c0 24.667 -4.16699 43.667 -12.5 57
s-24.166 21.333 -47.499 24v34v0zM198.001 39.001h112c8 0 16.667 0.166992 26 0.5s18.333 0.833008 27 1.5c30.667 4 58.667 16.333 84 37s38 61.667 38 123v12c0 4 -0.333008 8 -1 12c-2 35.333 -14.5 67.833 -37.5 97.5s-71.5 44.5 -145.5 44.5h-103v-328v0z
M818.001 700.001l-0.00195312 -33.9971c-20.667 -2.66699 -35 -9.33398 -43 -20.001s-12.667 -22 -14 -34c-0.666992 -4.66699 -1.16699 -9.33398 -1.5 -14.001s-0.5 -9 -0.5 -13v-470c0 -23.333 4 -42.166 12 -56.499s23.667 -22.5 47 -24.5v-34h-205v34
c22.667 2 38.334 10.167 47.001 24.5s13 33.166 13 56.499v470c0 21.333 -4.16699 39.666 -12.5 54.999s-24.166 24 -47.499 26v34h205v0z" />
    <glyph glyph-name="bar" unicode="&#xdc;" horiz-adv-x="618" 
d="M52 700l206.001 0.000976562v-34c-22.667 -2 -38.334 -10.167 -47.001 -24.5s-13 -33.166 -13 -56.499v-179h128c14.667 0 31 -0.5 49 -1.5s36.333 -3.83301 55 -8.5c38.667 -8.66699 74.167 -26.834 106.5 -54.501s48.5 -73.167 48.5 -136.5
c0 -66.667 -15.167 -114 -45.5 -142s-63.5 -46 -99.5 -54c-19.333 -4.66699 -38.333 -7.33398 -57 -8.00098s-35 -1 -49 -1h-1.5h-1.5h-279v34c23.333 2.66699 39.166 10.667 47.499 24s12.5 32.333 12.5 57v470c0 24.667 -4.16699 43.667 -12.5 57
s-24.166 21.333 -47.499 24v34v0zM198.001 39.001l112.001 -0.000976562c8 0 16.667 0.166992 26 0.5s18.333 0.833008 27 1.5c30.667 4 58.667 16.333 84 37s38 61.334 38 122.001v11c0 4 -0.333008 7.66699 -1 11c-2 36 -14.333 69.167 -37 99.5
s-71.334 45.5 -146.001 45.5h-103v-328v0z" />
    <glyph glyph-name="bar" unicode="&#x42c;" horiz-adv-x="618" 
d="M52 700l206.001 0.000976562v-34c-22.667 -2 -38.334 -10.167 -47.001 -24.5s-13 -33.166 -13 -56.499v-179h128c14.667 0 31 -0.5 49 -1.5s36.333 -3.83301 55 -8.5c38.667 -8.66699 74.167 -26.834 106.5 -54.501s48.5 -73.167 48.5 -136.5
c0 -66.667 -15.167 -114 -45.5 -142s-63.5 -46 -99.5 -54c-19.333 -4.66699 -38.333 -7.33398 -57 -8.00098s-35 -1 -49 -1h-1.5h-1.5h-279v34c23.333 2.66699 39.166 10.667 47.499 24s12.5 32.333 12.5 57v470c0 24.667 -4.16699 43.667 -12.5 57
s-24.166 21.333 -47.499 24v34v0zM198.001 39.001l112.001 -0.000976562c8 0 16.667 0.166992 26 0.5s18.333 0.833008 27 1.5c30.667 4 58.667 16.333 84 37s38 61.334 38 122.001v11c0 4 -0.333008 7.66699 -1 11c-2 36 -14.333 69.167 -37 99.5
s-71.334 45.5 -146.001 45.5h-103v-328v0z" />
    </font>
</defs>
</svg>
