<svg viewBox="0 0 100 100" xmlns="http://www.w3.org/2000/svg"><symbol viewBox="0 0 164.6 32.6" id="icon-logo"><title>logo</title> <style>.logo-left{fill:#231F20;} .logo-right {fill:#EE673E;}</style><g id="logo-XMLID_5_"> <path id="logo-XMLID_22_" class="logo-left" d="M19.3 0H8.1C6.9 0 6.3.7 6.2 2l-.4 4.5c-.2 2.7-.4 5.1-.5 7-.1 1.9-.3 3.5-.7 4.8-.3 1.3-.8 2.3-1.5 3.1-.6.8-1.6 1.4-2.8 1.9-.1 0-.2.1-.3.2v.5l.3 1.3c.1.2.2.4.3.4H1c1.6-.5 2.9-1.2 3.8-2.2.9-1 1.6-2.2 2.1-3.8.5-1.5.8-3.4 1-5.5.2-2.1.4-4.6.6-7.3l.3-4.4h9.6v22.3c0 .2 0 .3.1.4.1.1.2.1.4.1h1.8c.2 0 .3 0 .4-.1.1-.1.1-.2.1-.4V2c.1-1.3-.6-2-1.9-2z"/> <path id="logo-XMLID_24_" class="logo-left" d="M40.8 16c.5-.3.7-1 .7-2 0-1.2-.2-2.3-.5-3.2-.3-1-.8-1.8-1.4-2.6-.6-.7-1.4-1.3-2.4-1.7-1-.4-2.2-.6-3.5-.6-1.2 0-2.3.2-3.3.6-1 .4-1.9 1.1-2.6 1.9-.7.8-1.3 1.9-1.7 3.1-.4 1.2-.6 2.7-.6 4.3 0 3.4.8 5.9 2.3 7.4 1.5 1.5 3.6 2.3 6.2 2.3.9 0 1.8-.1 2.8-.3 1-.2 1.9-.5 2.7-1 .3-.1.3-.3.2-.6l-.7-1.2c-.1-.2-.3-.3-.6-.1-.5.3-1.2.5-1.9.7-.8.2-1.5.3-2.3.3-.8 0-1.6-.1-2.4-.4-.7-.2-1.4-.6-1.9-1.2-.5-.5-1-1.2-1.3-2.1-.3-.9-.5-1.9-.5-3.2h11c.7.1 1.3-.1 1.7-.4zm-12.6-1.7c0-.9.2-1.7.5-2.4s.6-1.4 1.1-1.9c.5-.6 1-1 1.7-1.3.7-.3 1.4-.5 2.3-.5 1 0 1.9.2 2.6.5.6.3 1.1.8 1.5 1.3.4.6.7 1.2.8 2 .2.7.3 1.5.3 2.3H28.2z"/> <path id="logo-XMLID_18_" class="logo-left" d="M60.2 6.3h-1.5c-.2 0-.3 0-.4.1-.1.1-.1.2-.1.4V14h-10V6.9c0-.2 0-.4-.1-.4-.1-.1-.2-.1-.4-.1h-1.5c-.2 0-.3 0-.4.1-.1.1-.2.2-.2.4v17.8c0 .2.1.4.2.4.1.1.3.1.4.1h1.5c.2 0 .3 0 .4-.1.1-.1.1-.2.1-.4v-8.5h10v8.5c0 .2 0 .4.1.4.1.1.2.1.4.1h1.5c.2 0 .4 0 .4-.1.1-.1.1-.2.1-.4V6.9c0-.2 0-.4-.1-.4 0-.1-.1-.2-.4-.2z"/></g> <g id="logo-XMLID_1_"> <path id="logo-XMLID_21_" class="logo-right" d="M85.3 21.7c-.2-.3-.5-.4-1-.5l-1.2-.1V8.5c0-.7-.1-1.3-.4-1.6-.3-.4-.9-.6-1.8-.6h-9.5c-1 0-1.6.2-1.9.6-.3.4-.5.9-.6 1.5l-1 6.8c-.1 1.3-.3 2.4-.6 3.4s-.8 1.8-1.4 2.5l-1.2.1c-.5 0-.8.2-1 .5-.2.3-.3.6-.3 1l.4 7.5c0 .4.2.5.5.5h3.1c.2 0 .4 0 .5-.1.1-.1.1-.2.1-.5 0-.8.1-1.7.1-2.5s.1-1.6.1-2.5h12.1l.2 5c0 .2.1.3.1.4.1.1.2.1.4.1h3.2c.4 0 .6-.2.6-.5l.4-7.6c.3-.2.2-.5.1-.8zm-7.4-.5h-6.6c.4-.7.8-1.9 1.1-3.6.3-1.7.7-4 1-7h4.5v10.6z"/> <path id="logo-XMLID_17_" class="logo-right" d="M104.3 16.8c-.4-.8-1.2-1.5-2.3-1.9v-.2c.7-.4 1.2-.9 1.6-1.6.4-.7.5-1.3.5-2 0-.9-.2-1.6-.5-2.2-.3-.6-.8-1.1-1.3-1.5-.6-.4-1.2-.7-2-.8-.7-.2-1.5-.3-2.4-.3h-8.4c-.8 0-1.4.2-1.6.5-.3.4-.4.9-.4 1.5v15c0 .6.1 1.1.5 1.4.3.3.9.5 1.7.5H98c1 0 1.9-.1 2.8-.4.9-.3 1.6-.7 2.2-1.2.6-.5 1.1-1.1 1.4-1.9.3-.7.5-1.5.5-2.4.1-.8-.1-1.6-.6-2.5zm-11.6-6.4h4.5c.5 0 .9.2 1.1.5.3.3.4.7.4 1.1 0 .6-.2 1-.5 1.2-.3.2-.7.4-1.1.4h-4.4v-3.2zm6.8 9.3c-.1.3-.2.5-.4.7-.2.2-.4.4-.7.5-.3.1-.7.2-1.1.2h-4.5v-4.2h4.6c.8 0 1.3.2 1.7.6.4.4.6.9.6 1.5-.1.2-.1.5-.2.7z"/> <path id="logo-XMLID_13_" class="logo-right" d="M123.4 16.6c.5-.5.7-1.3.7-2.6 0-2.6-.7-4.6-2.1-6-1.4-1.4-3.5-2.1-6.3-2.1-1.4 0-2.6.2-3.7.7-1.1.4-2 1.1-2.8 2-.8.9-1.4 1.9-1.8 3.1-.4 1.2-.6 2.6-.6 4.2 0 3.4.8 5.9 2.3 7.4 1.5 1.6 3.8 2.3 7 2.3 1 0 2.1-.1 3.3-.4 1.2-.3 2.2-.7 3.1-1.2.2-.1.3-.2.4-.4.1-.1 0-.3-.1-.5l-1.2-2.6c-.1-.2-.2-.3-.3-.3-.1 0-.3 0-.6.1-.6.3-1.3.5-2 .6-.7.2-1.4.3-2.1.3-.6 0-1.2-.1-1.7-.2s-1-.3-1.4-.6c-.4-.3-.7-.7-.9-1.2-.2-.5-.4-1.1-.4-1.9h9.2c.9-.1 1.5-.3 2-.7zm-11.1-2.7c.1-1.1.5-2 1.1-2.7.6-.7 1.4-1 2.4-1 .6 0 1.2.1 1.6.3.4.2.7.5 1 .8.2.3.4.7.5 1.2.1.5.2.9.2 1.5h-6.8z"/> <path id="logo-XMLID_10_" class="logo-right" d="M143.8 11.9c-.3-1.2-.8-2.2-1.5-3.1-.7-.9-1.6-1.6-2.8-2.1-1.2-.5-2.6-.8-4.3-.8-1.3 0-2.7.1-4.1.3-1.4.2-2.7.6-3.9 1.1-.3.2-.5.3-.6.5-.1.2-.1.4-.1.6V32c0 .3.1.4.2.5.1.1.3.1.6.1h3.7c.3 0 .5 0 .6-.1.1-.1.1-.2.1-.5v-6.8c.8.2 1.5.3 2.1.3.6.1 1.3.1 2 .1 1.4 0 2.7-.3 3.8-.8 1.1-.5 2-1.2 2.7-2.1.7-.9 1.2-1.9 1.6-3.1.3-1.2.5-2.5.5-3.8-.1-1.4-.3-2.7-.6-3.9zm-6.1 7.9c-.8.8-1.7 1.2-2.9 1.2-.4 0-.8 0-1.3-.1-.5 0-1.1-.2-1.7-.3v-9.8c.4-.1.9-.2 1.4-.3.5-.1 1-.1 1.3-.1.7 0 1.3.1 1.8.3.5.2 1 .5 1.4.9.4.4.7.9.9 1.6.2.7.3 1.5.3 2.5-.1 1.9-.5 3.3-1.2 4.1z"/> <path id="logo-XMLID_4_" class="logo-right" d="M164.1 6.8c-.3-.3-.8-.4-1.5-.4h-1.8c-.3 0-.6 0-.8.1-.2 0-.4.1-.5.2-.2.1-.3.2-.4.4-.1.2-.3.4-.5.6-.8 1.3-1.5 2.4-2 3.3s-1.1 1.8-1.5 2.4c-.1.2-.3.5-.4.7-.1.2-.3.5-.5.8-.2.3-.4.7-.7 1.2-.3.5-.7 1.1-1.1 1.9h-.4V7c0-.2 0-.4-.1-.5-.1-.1-.3-.1-.6-.1h-3.9c-.4 0-.7.2-.7.6v16.3c0 .7.1 1.2.4 1.5.3.3.8.5 1.6.5h1.7c.6 0 1-.1 1.3-.2.3-.1.6-.5.9-1 .6-.9 1.1-1.7 1.7-2.6.6-.9 1.1-1.7 1.7-2.6.5-.8 1-1.6 1.5-2.5.5-.8 1-1.7 1.6-2.5h.2v10.8c0 .3 0 .4.1.5.1.1.3.1.5.1h3.9c.2 0 .4 0 .5-.1.1-.1.1-.2.1-.5V8.4c.2-.8 0-1.4-.3-1.6z"/></g></symbol><symbol viewBox="0 0 14 20" id="icon-pin"><title>pin</title> <path id="pin-XMLID_5_" d="M7 0C3.1 0 0 3 0 6.8V7c0 .7.2 1.4.4 2C1.9 13.8 7 20 7 20s5.1-6.2 6.6-10.9c.2-.7.4-1.4.4-2.1v-.2C14 3 10.9 0 7 0zm0 10.1c-1.9 0-3.4-1.5-3.4-3.3C3.6 5 5.1 3.5 7 3.5s3.4 1.5 3.4 3.3c0 1.8-1.5 3.3-3.4 3.3z"/></symbol><symbol viewBox="0 0 16 18" id="icon-search"><title>search</title> <path class="st0" d="M15.8 16l-4.5-5.8H11l-.3.3-.5-.6c1.1-1 1.7-2.5 1.7-4.1C11.9 2.6 9.3 0 6 0 2.7 0 0 2.6 0 5.8c0 3.2 2.7 5.8 6 5.8 1 0 1.9-.2 2.7-.6l.6.7-.4.3v.2s4.4 5.4 4.7 5.7c.3.3.9.2.9.2s.9-.5 1.3-.9c.5-.6 0-1.2 0-1.2zM2.1 5.8C2.1 3.7 3.8 2 6 2c2.1 0 3.9 1.7 3.9 3.8 0 2.1-1.7 3.8-3.9 3.8S2.1 7.9 2.1 5.8z"/></symbol><symbol viewBox="0 0 33 32.5" id="icon-vk"><title>vk</title> <g id="vk-XMLID_96_"> <g id="vk-XMLID_66_"> <path id="vk-XMLID_67_" class="st0" d="M19 17.6c-.3-.1-.7-.2-1.2-.2h-2.9v4.7h2.9c.5 0 1-.1 1.5-.3.4-.2.8-.5 1-.8.2-.4.3-.8.3-1.2 0-.6-.1-1-.4-1.4-.4-.4-.8-.6-1.2-.8zm-1.8-3.4c.3 0 .7-.1 1-.3.4-.2.6-.4.8-.7.1-.3.2-.7.2-1.1 0-.3-.1-.6-.2-.9-.2-.3-.4-.6-.7-.7-.3-.1-.7-.2-1.1-.2H15v4h.6c.7-.1 1.2-.1 1.6-.1zM26.5 0h-20C2.9 0 0 2.9 0 6.4v19.7c0 3.5 2.9 6.4 6.5 6.4h20c3.6 0 6.5-2.9 6.5-6.4V6.4C33 2.9 30.1 0 26.5 0zm-1.7 22.3c-.4.7-.8 1.3-1.4 1.8-.7.6-1.5 1-2.4 1.2-.9.2-1.9.4-3.3.4h-7.6V6.8h6.7c1.4 0 2.5.1 3.2.2.7.1 1.4.3 2 .7.7.4 1.2.8 1.5 1.5.3.6.5 1.3.5 2.1 0 .9-.2 1.7-.7 2.5-.5.7-1.1 1.2-1.9 1.6v.1c1.2.2 2.1.7 2.8 1.5.7.8 1.1 1.8 1.1 3.1 0 .7-.2 1.5-.5 2.2z"/> </g> </g> </symbol></svg>