<?xml version="1.0" standalone="no"?>
<!DOCTYPE svg PUBLIC "-//W3C//DTD SVG 1.1//EN" "http://www.w3.org/Graphics/SVG/1.1/DTD/svg11.dtd" >
<svg xmlns="http://www.w3.org/2000/svg">
<metadata></metadata>
<defs>
<font id="pf_monumenta_pro_metallicaRg" horiz-adv-x="1751" >
<font-face units-per-em="2048" ascent="1638" descent="-410" />
<missing-glyph horiz-adv-x="624" />
<glyph horiz-adv-x="2048" />
<glyph horiz-adv-x="2048" />
<glyph unicode="&#xd;" horiz-adv-x="2048" />
<glyph unicode=" "  horiz-adv-x="624" />
<glyph unicode="&#x09;" horiz-adv-x="624" />
<glyph unicode="&#xa0;" horiz-adv-x="624" />
<glyph unicode="!" horiz-adv-x="686" d="M225 1411l195 129l76 -67l-127 -1108h-31zM227 109q0 18 7.5 40.5t22.5 41t38.5 30.5t56.5 12q53 0 89 -32.5t36 -85.5t-33.5 -92t-93.5 -39q-66 0 -94.5 41t-28.5 84zM360 457l109 979q0 6 -2 12t-4 10q-2 6 -4 8l-8 9q-4 4 -10.5 9t-12.5 9q-16 -8 -31 -23 q-8 -8 -12 -16q-12 -16 -17.5 -38.5t-5.5 -45.5v-78q0 -23 -1 -78t-1 -114v-148v-495zM373 19.5q-4 -7.5 6 -7.5q6 0 14 2q16 4 29 17q25 27 32 53t3 55q-2 14 -11 27q-6 10 -17 21.5t-30 19.5q-23 8 -26 0q-2 -4 0 -8q2 -6 7 -10.5t12 -12.5t12.5 -21.5t7.5 -35.5 q2 -25 -7.5 -45.5t-18.5 -33.5t-13 -20.5z" />
<glyph unicode="&#x22;" horiz-adv-x="686" d="M106 1421l146 97l55 -52l-84 -573h-24zM213 938l76 516q-6 10 -11.5 14.5t-9.5 8.5q-6 4 -8 6h-6q-8 0 -10 -4q-6 -18 -10.5 -32.5t-8.5 -25.5q-4 -12 -4 -20q-2 -16 -4 -70q-2 -47 -3 -139t-1 -254zM391 1421l146 97l55 -52l-84 -573h-25zM496 938l75 516 q-6 10 -10 14.5t-8 8.5t-8 6h-6q-10 0 -13 -4q-6 -18 -10 -32.5t-8 -25.5q-4 -12 -4 -20q-2 -16 -4 -70q-2 -47 -3 -139t-1 -254z" />
<glyph unicode="#" horiz-adv-x="1529" d="M143 426l19 106h266l117 433h-326l19 104h335l101 348h112l-102 -348h381l100 348h111l-100 -348h247l-18 -104h-258l-115 -433h316l-21 -106h-326l-118 -428h-113l121 428h-381l-117 -428h-114l120 428h-256zM539 532h381l116 433h-381z" />
<glyph unicode="$" horiz-adv-x="1214" d="M147 129l21 297h37q10 -131 71.5 -221t167.5 -125q27 152 51.5 300t49.5 298q-63 43 -124 88t-108 99.5t-75.5 120t-28.5 151.5q0 80 33.5 149.5t94 119.5t145.5 80t188 30h14l18 108q4 12 13 16l35 5q4 0 13 2t19 2q12 0 13 -9l-23 -131q63 -8 127 -25.5t111 -45.5 l14 -271l-43 -8q-23 123 -86.5 182.5t-138.5 77.5l-88 -510q70 -49 142.5 -99t131.5 -108.5t97 -130t38 -161.5q0 -111 -44 -193t-116.5 -137t-167 -82t-194.5 -27q-12 0 -24.5 1t-24.5 1l-21 -129q-4 -14 -14 -16l-29 -6q-4 0 -11 -2t-17 -2q-12 0 -13 8l27 160 q-156 37 -281 143zM190 285q2 -12 5.5 -29.5t13.5 -52.5t53 -70t107 -57q10 -4 20 -6q19 -7 39 -7q-23 8 -41 16.5t-31 16.5q-14 8 -26 19q-45 35 -63.5 60.5t-22.5 35.5t-14.5 29.5t-20.5 50.5q-10 29 -14.5 17.5t-4.5 -23.5zM307.5 1206q-2.5 -45 7 -87t25.5 -80t39 -62 q25 -31 64.5 -62.5t81.5 -61.5t80 -55.5t63 -41.5t62.5 -46t76.5 -66t73.5 -74t51.5 -70q31 -59 37 -105.5t-2 -107.5q-8 -55 -21.5 -80t-36.5 -62q-18 -29 -2 -28q12 4 30.5 14t51.5 57q27 41 46 110t9 155q-6 45 -17 78.5t-27.5 60t-37 50.5t-44.5 48q-18 18 -51 44 t-71 53.5t-77 55t-68 48.5l88 518q-10 -6 -17 -12t-11 -11q-6 -6 -9 -10q-2 -6 -14 -69.5t-25.5 -143.5t-25.5 -152.5t-16 -97.5l-17 -94q-10 49 -18 72q-6 14 -11 27q-10 23 -29.5 45t-27.5 28q-35 29 -63.5 58.5t-38.5 52.5q-18 43 -20.5 88t3.5 74q6 27 29 68.5t74 70.5 q43 23 65.5 28t44.5 9q12 2 10.5 4t-12 3t-27 1t-32.5 -2q-29 -4 -61.5 -14.5t-64.5 -29t-58.5 -46t-40.5 -64.5q-16 -41 -18.5 -86zM422 1208q0 -74 44 -128t128 -117l76 464q-104 0 -176 -57t-72 -162zM485 88q0 -4 4 -8t8.5 -7t14.5 -5l59 348q-16 -20 -26 -43 q-6 -12 -10 -25q-6 -16 -12.5 -39.5t-10.5 -48t-7 -44t-5 -26.5q0 -6 -3 -21t-5.5 -31.5t-4.5 -30t-2 -19.5zM522 63q12 -2 25.5 -2h27.5q61 0 112.5 19.5t88.5 52.5t56.5 78t19.5 96q0 49 -13.5 86t-40 72t-69.5 71.5t-100 84.5l-11 8q-25 -141 -49 -282.5t-47 -283.5z M731 1511q-2 -10 8 -14q4 -2 11 -4q8 0 25.5 -4t35.5 -9t34.5 -10.5t22.5 -9.5l21 -10q8 -4 17 -8t16 -8q8 -8 20 -13q6 -2 8 -2q10 -2 21.5 1.5t15.5 9.5q4 4 1 7l-7 7q-10 8 -28.5 16t-39.5 13q-25 6 -47 12q-20 4 -44.5 9t-49.5 9h-8q-2 0 -2 2t-1 2t-1 4l20 119h-6 q-2 0 -4 -2l-18 -16q0 -4 -4 -17q-4 -10 -8.5 -29.5t-8.5 -54.5zM948 1397q4 -8 10.5 -13.5t16.5 -27.5q6 -16 9 -38t7 -26q2 -4 4 -2t4 7.5t2 21.5l-2 106q-4 -6 -8 -9t-8 -5q-6 -2 -8 -4q-10 -2 -21.5 -1t-5.5 -9z" />
<glyph unicode="%" horiz-adv-x="1597" d="M117 1128q0 63 22.5 121t62.5 101t95 68.5t121 25.5q125 0 207 -86q43 -45 62.5 -101.5t18.5 -115t-22.5 -114.5t-60.5 -101q-41 -47 -95.5 -73t-121.5 -26q-66 0 -119.5 23.5t-91 64.5t-58 95.5t-20.5 117.5zM166 1118q4 -66 29.5 -119t52.5 -77q27 -25 65.5 -42.5 t73.5 -19.5q27 0 28 3t-3 5q-18 4 -37 8.5t-41 16.5q-35 20 -49.5 41.5t-24.5 36.5q-12 16 -27.5 59t-19.5 103q-6 106 35 184q14 27 33.5 43t38 25.5t33 13.5t18.5 6t-12.5 1t-34.5 -9q-18 -6 -51 -26.5t-60 -55.5q-18 -25 -35.5 -78t-11.5 -119zM240 1178q0 -43 11 -93.5 t33.5 -95.5t59.5 -74.5t90 -29.5q27 0 56.5 12t52.5 47q25 35 33 82t3.5 97.5t-18.5 97.5t-35 82q-53 86 -133 86q-43 0 -71.5 -19.5t-47 -50.5t-26.5 -69t-8 -72zM264 4q14 18 29.5 41t30.5 43q16 23 30 47q29 43 83.5 122t122 179.5t144 214t152.5 226t145.5 217 t125 186.5t88 133t36.5 57q6 10 10.5 11.5t8.5 -0.5l51 -37q4 -4 9 -9.5t1 -9.5q-141 -209 -254.5 -377.5t-204 -302t-159 -235.5t-117.5 -176q-117 -174 -174 -258q-33 -49 -53.5 -80t-24.5 -35q-10 -16 -18 -10l-52 37q-4 2 -9 7t-1 9zM330 29l2 -45l979 1448 q-27 -16 -45 -31q-8 -8 -15 -12q-6 -6 -14 -19q-8 -10 -19.5 -27.5t-27.5 -39.5zM510 1390.5q-18 -1.5 8 -12.5q27 -10 63.5 -54t53.5 -126q16 -82 3 -134t-24 -75q-14 -31 -34.5 -55.5t-18.5 -24.5q39 27 60.5 49.5t40.5 63.5q14 29 23 80t-5 110q-10 43 -26.5 72t-35 48.5 t-35 30.5t-24.5 15q-31 14 -49 12.5zM911 285q0 63 22.5 121.5t62.5 101.5t96.5 68.5t121.5 25.5q51 0 107.5 -22.5t97.5 -65.5q43 -45 62.5 -101.5t18.5 -114.5t-22.5 -115.5t-60.5 -102.5q-41 -45 -95 -70.5t-122 -25.5q-66 0 -119 23.5t-91 64.5t-58.5 95t-20.5 118z M961 276q4 -66 29.5 -119t51.5 -77q27 -25 66 -42.5t74 -19.5q27 0 27.5 3.5t-1.5 5.5q-20 4 -38.5 8t-41.5 16q-35 20 -49 42t-24 36q-12 16 -27.5 59t-19.5 103q-6 106 34 184q14 27 34 43.5t38.5 25.5t32.5 13t18 6t-12 1t-35 -9q-18 -6 -51 -26.5t-59 -55.5 q-18 -25 -36 -78t-11 -119zM1034 332q0 -59 15.5 -110.5t42.5 -92.5q57 -86 139 -86q27 0 56 11t52 46q25 35 33 83t4 98.5t-18.5 97.5t-34.5 82q-51 84 -133 84q-43 0 -73 -19.5t-48 -50.5t-26.5 -68.5t-8.5 -74.5zM1304.5 549q-18.5 -2 8.5 -12t63.5 -54.5t53.5 -126.5 q16 -84 2.5 -135t-23.5 -74q-14 -31 -34.5 -56t-18.5 -23q39 27 60.5 49t39.5 63q14 29 23.5 80.5t-4.5 110.5q-10 43 -26.5 71.5t-35 48t-35 30.5t-24.5 16q-31 14 -49.5 12z" />
<glyph unicode="&#x26;" horiz-adv-x="1638" d="M113 424q0 90 35.5 166t84 133t98.5 95t79 54q-29 66 -47.5 127.5t-18.5 147.5q0 145 80 244.5t213 117.5q66 8 135.5 0t125.5 -36.5t92 -81t36 -129.5q0 -72 -35 -128.5t-88 -100.5t-116.5 -75.5t-118.5 -52.5q29 -63 61.5 -125.5t91.5 -150.5q51 -78 103.5 -150.5 t109.5 -138.5q18 27 38 62.5t37 73.5t29.5 75t16.5 70q4 29 -5 47t-27.5 29.5t-43 17.5t-51.5 8v37h504v-37q-37 -6 -65.5 -10t-52 -12.5t-45 -25t-42.5 -48.5q-61 -94 -112.5 -178t-127.5 -170q117 -111 239 -190t237 -93v-43q-125 2 -220.5 12t-169 27.5t-129 43 t-100.5 62.5q-18 -12 -42.5 -29.5t-63.5 -35t-94.5 -30.5t-133.5 -15q-92 -4 -181 20.5t-159.5 78.5t-113.5 138t-43 199zM255 461q-5 -80 21 -154q12 -37 40 -75.5t68 -70.5t90 -54.5t108 -28.5q90 -8 129 3t10 11q-53 0 -89 10.5t-71 26.5q-47 20 -94 66.5t-82 123.5 q-35 80 -38 153t5 120q2 18 6 37q4 16 9.5 34.5t15.5 34.5q-23 -12 -40 -29.5t-30 -33.5q-14 -20 -26 -41q-27 -53 -32 -133zM367 510q2 -74 25.5 -145.5t68.5 -126.5t99 -85t110.5 -38.5t111 3t99.5 38.5q-66 61 -127.5 136t-116.5 156.5t-101.5 166.5t-82.5 165 q-45 -55 -66.5 -125.5t-19.5 -144.5zM487 1176q8 -41 23 -76q12 -29 34.5 -56.5t57.5 -35.5q-6 14 -14 39.5t-16.5 58.5t-14.5 69.5t-6 73.5q-2 29 2 54q2 23 7 45t15 34q-16 -4 -27 -14l-22 -20q-10 -12 -20 -27q-8 -12 -18.5 -48t-0.5 -97zM575.5 1269.5 q-2.5 -63.5 13 -139t42.5 -141.5q53 33 82.5 72t44.5 74q16 38 18 77q0 86 -23.5 145.5t-93.5 59.5q-43 0 -62 -42t-21.5 -105.5zM608 848q-4 -18 9.5 -56t34 -81t43 -83t38.5 -65q31 -45 69 -91t71.5 -85t60.5 -64.5t35 -31.5q4 -2 3 13t-5 38t-11.5 44.5t-15.5 31.5 q-16 18 -42 55t-83 121q-29 41 -57 90q-25 41 -53.5 95.5t-53.5 113.5q-14 -6 -22 -14.5t-13 -14.5q-6 -8 -8 -16zM762 999q8 0 47 8.5t80 39.5q41 29 65.5 62.5t34.5 57.5q12 37 17 74t-7 84q-8 33 -24.5 56.5t-33.5 39t-32.5 24.5t-23.5 13t-23.5 9.5t-29 7.5t-18.5 -2.5 t9 -18.5q12 -12 28.5 -29.5t30 -43t21.5 -61.5t4 -87q-6 -61 -30.5 -105.5t-51 -73t-47 -42t-16.5 -13.5zM1001 229l5 -4q0 -2 12 -13t30.5 -26.5l37 -31t30.5 -23.5q39 -29 79 -49.5t77 -34.5t66.5 -22.5t47.5 -10.5q4 0 16.5 -2t22 -1t7.5 4t-27 12q-25 8 -52.5 22 t-54 31.5t-49 34t-37.5 28.5q2 -4 -13 9.5t-38.5 34t-51.5 44t-46 41.5q25 31 45 57.5t35 47.5q16 23 31 43q12 14 26 36.5t27.5 46t25 43t17.5 29.5q12 18 34.5 54.5t43.5 56.5l18 12q10 4 23.5 10.5t31.5 10.5q-23 4 -45 0t-39 -12q-20 -8 -39 -21q-25 -18 -51 -55 t-55 -96q-25 -47 -53 -99q-25 -45 -61 -99t-77 -108z" />
<glyph unicode="'" horiz-adv-x="432" d="M104 1419l146 97l55 -52l-84 -573h-24zM217 1298q0 -31 1 -97t3 -189q20 152 32.5 232.5t16.5 121.5q6 45 6 55q2 6 0 18.5t-6 16.5t-13 7t-17 -1t-10.5 -10t-6.5 -20q-2 -6 -3 -20.5t-2 -30t-1 -27v-13.5v-43z" />
<glyph unicode="(" horiz-adv-x="741" d="M117 719q0 160 49 294t121.5 241.5t156.5 185.5t152 127q16 12 25 14q4 0 19 -20.5t15 -24.5q-4 -4 -8 -9t-10 -9q-59 -49 -120.5 -124t-112 -173.5t-83 -221t-32.5 -268.5q0 -145 27.5 -264t74.5 -216t109.5 -176t132.5 -143l12 -12t10 -12q0 -2 -5 -9.5t-11 -15.5 t-11 -14t-7 -6q-8 2 -21 12q-74 51 -159 128t-156.5 181.5t-119.5 237.5t-48 297zM199 646.5q4 -60.5 13 -101.5t13 -58q16 -63 38 -112t46.5 -89t50 -75t54.5 -68q8 -10 -2.5 12.5t-27.5 61.5t-36.5 85t-30.5 83q-18 68 -29.5 118t-17.5 91t-7 81t-1 89q0 82 16.5 156.5 t35 133t35 95.5t20.5 43q6 14 16 33q10 16 22.5 38.5t30.5 53.5q-53 -53 -92 -117.5t-65 -122.5q-31 -68 -52 -133q-25 -86 -29.5 -161.5t-0.5 -136z" />
<glyph unicode=")" horiz-adv-x="741" d="M84 -94q2 4 7 9l9 9q57 45 119 120t113 174t85 223t34 270q0 145 -27 263t-73 214t-109.5 175t-135.5 146q-6 4 -12 10.5t-10 14.5q0 4 16.5 23.5t20.5 19.5q6 -2 18 -10q76 -53 161 -132t156.5 -183.5t119 -236.5t47.5 -292q0 -164 -50.5 -299t-123 -242.5 t-156.5 -185.5t-152 -123q-6 -4 -12 -7l-10 -5q-4 0 -19.5 20.5t-15.5 24.5zM356 1335q37 -66 54 -94q10 -18 16 -31q2 -6 19.5 -43t36 -95t33.5 -133t15 -157q0 -49 -1 -89t-6 -81t-16 -91t-30 -118q-10 -39 -29.5 -85t-37 -83.5t-27.5 -60t-2 -12.5q55 66 105 141.5 t83 202.5q4 16 13.5 57t13.5 101.5t-1 136.5t-30 162q-20 66 -51 133q-27 57 -65.5 121.5t-92.5 117.5z" />
<glyph unicode="*" horiz-adv-x="786" d="M55 1196q10 35 18.5 66.5t18.5 66.5l33 10q63 -39 120.5 -72.5t116.5 -66.5l-28 289h74.5t66.5 2l17 -31q-35 -119 -64 -264l242 119l18 -4q23 -57 57 -117l-18 -25q-51 -4 -120.5 -12t-162.5 -20l191 -189l6 -18l-94 -94l-37 -2l-117 258l-139 -236l-37 -6 q-23 29 -44 52.5t-46 49.5l6 15q45 35 96.5 74.5t114.5 93.5l-285 47zM104 1315q6 -14 11.5 -22.5t9.5 -12.5q4 -6 6 -8q4 -2 21 -6q14 -4 41.5 -10.5t76.5 -16.5l-131 80q-6 2 -12 2h-4zM236 899q0 -12 4 -20q4 -6 9 -5.5t15 21.5l55 98q-23 -18 -36 -30.5t-21 -18.5 q-8 -8 -12 -10q-8 -10 -11 -16.5t-3 -18.5zM418 1249q23 76 34 117t17 61l8 27q-2 0 -2 4q-2 2 -2 6t-4 11q-10 -4 -16.5 -5.5t-10.5 -5.5q-6 -4 -8 -6q-4 -6 -9 -20.5t-5 -36.5v-43v-47t-2 -62zM449 1118q0 -14 4 -22q2 -4 2 -6q2 -4 12 -18.5t24.5 -33t26.5 -34t17 -19.5 q8 -10 18 -20.5t29 -14.5h10q12 0 22 4zM598 1217q16 4 26.5 7t16.5 5q8 2 10 2q6 2 15.5 3t13.5 -3l37 -33q2 -2 4 -2q6 0 10 2q-35 74 -41 88q-6 10 -8 12q-4 2 -6 -2t-7 -22.5t-16 -26.5q-4 -4 -12 -8q-6 -4 -16.5 -9t-26.5 -13z" />
<glyph unicode="+" horiz-adv-x="1439" d="M283 625v139h354v381h139v-381h348v-139h-348v-377h-139v377h-354zM297 754q14 -12 22.5 -18.5t16.5 -11.5t17 -8t26 -9q20 -2 43 -2h92q-14 12 -29.5 20t-27.5 14q-14 6 -29 11q-14 0 -33 2q-16 0 -39.5 1t-58.5 1zM711 289q6 -4 12 -7t10 -8q6 -4 10 -6q2 -2 7 -4 q4 -2 6 -4t6 -2l2 379q0 2 -2 13.5t-12 23.5q-2 4 -9 10q-8 8 -20 16q33 0 52.5 -1t39.5 -1l213 4q23 0 44.5 17.5t29.5 28.5l-336 2v374q-8 0 -21 -4q-6 -2 -8 -4q-23 -10 -22.5 -25.5t0.5 -19.5v-84v-91v-140t-1 -199t-1 -268zM1061 698q6 -4 11 -5t9 -5t9 -6q4 -2 8 -8 t12 -23v80l-20 -16q-4 -4 -9 -6q-4 -4 -9 -5.5t-11 -5.5z" />
<glyph unicode="," horiz-adv-x="559" d="M94 -240q76 68 107 144q4 10 7 30.5t1 44t-10.5 47t-24.5 42.5q-23 25 -25 69.5t27 85.5q16 20 50 34.5t63 8.5q59 -10 82.5 -51t23.5 -92t-28.5 -110.5t-69.5 -115t-88 -100.5t-86 -69zM252 193.5q-2 -17.5 4 -43.5q4 -16 12 -32t15 -26q4 -12 12 -27.5t4 -37.5 q-2 -8 -2 -17q-2 -8 -2 -16t-2 -17q-8 -33 4 -24q6 2 12 12q16 20 29.5 45t23.5 76q6 35 4.5 64.5t-16.5 52.5q-14 20 -29.5 27.5t-27.5 7.5q-6 0 -15.5 -4.5t-16.5 -13.5t-9 -26.5z" />
<glyph unicode="-" horiz-adv-x="1024" d="M211 641v152l600 2v-154h-600zM233 782q12 -23 25 -32q8 -6 14 -9q6 -4 15 -6q14 -6 41 -6h385q23 0 35 6q8 4 14 8q4 2 8 9q6 6 16 22zM748 727q6 -4 11 -7t9 -5q4 -4 8 -4q2 -2 6 -9q4 -6 13 -22v80q-4 -4 -7.5 -7t-7.5 -5q-4 -4 -6 -5q-4 -4 -8 -6q-2 -2 -18 -10z" />
<glyph unicode="." horiz-adv-x="518" d="M129 109q0 18 7 40.5t22.5 41t39 30.5t56.5 12q53 0 89 -32.5t36 -85.5t-34 -92t-93 -39q-66 0 -94.5 41t-28.5 84zM244 203q-2 -4 2 -10q6 -8 24.5 -15.5t32.5 -50.5q8 -25 4 -46.5t-9 -36.5t-8 -24.5t7 -5.5q6 2 14 6q16 8 25 23q18 33 18 59.5t-12 55.5q-6 12 -16 22 t-23.5 17.5t-32.5 11.5q-23 2 -26 -6z" />
<glyph unicode="/" horiz-adv-x="907" d="M-31 -37q10 20 24.5 44t24.5 46l25 49q25 45 69 130t98 192.5t116.5 229.5t124 244t119 234.5t100.5 200.5t70.5 143.5t29.5 61.5q8 14 16 12l70 -34q4 -2 10 -7.5t2 -9.5q-115 -225 -207 -406.5t-165.5 -325.5t-129 -254t-96.5 -189q-96 -188 -141 -277q-27 -53 -43 -85 t-18 -38q-8 -18 -17 -12l-69 35q-4 2 -10.5 7t-2.5 9zM41 -12l8 -45l795 1558q-29 -23 -41 -35q-8 -8 -12 -14q-16 -29 -101 -192q-37 -70 -91 -176.5t-132 -260t-183.5 -359.5t-242.5 -476z" />
<glyph unicode="0" horiz-adv-x="1638" d="M152 719q0 172 48 318.5t137 254t216 168t285 60.5q160 0 283.5 -62.5t207.5 -167t127 -240t43 -278.5q0 -176 -49 -323.5t-140 -254t-218 -167t-281 -60.5q-156 0 -277.5 63.5t-206.5 168t-130 239.5t-45 281zM291 705q6 -88 22.5 -168t41 -149t52 -122t56.5 -86 q53 -66 128 -107.5t157 -49.5q55 -6 63 1t2 9q-41 10 -82 22.5t-88 46.5q-37 27 -62.5 55.5t-43 56.5t-28.5 52.5t-22 42.5q-25 45 -58.5 157t-37.5 271q-4 150 16.5 262.5t67.5 225.5q31 70 73 111.5t82 66t71.5 34t37.5 13.5t-27.5 1t-72.5 -19q-41 -16 -110.5 -67.5 t-127.5 -145.5q-20 -33 -41.5 -84.5t-39 -118t-26.5 -146t-3 -165.5zM416 768q0 -145 28.5 -274t84 -227.5t135 -156t182.5 -57.5q94 0 166.5 48.5t122 137.5t75 211.5t25.5 274.5q0 133 -27.5 261t-82 227.5t-135.5 160t-189 60.5q-94 0 -166 -50.5t-121 -139.5t-73.5 -211 t-24.5 -265zM1139 1398q2 -9 26 -32q23 -20 55.5 -64.5t64.5 -111t56.5 -156.5t32.5 -200q6 -111 -3 -199t-26.5 -155.5t-37 -115t-33.5 -73.5q-18 -37 -43 -69t-45.5 -55.5t-33.5 -36.5t-11 -13q51 27 88 53.5t64.5 55t50 62.5t42.5 74q18 37 38 90.5t33 118t19.5 137 t0.5 152.5q-10 109 -41 194t-67 146.5t-71.5 99t-54.5 52.5q-31 25 -56.5 38t-37.5 15t-10 -7z" />
<glyph unicode="1" horiz-adv-x="956" d="M131 1452v35h698v-35q-63 -6 -104 -17.5t-65.5 -33t-37 -54t-14.5 -81.5q-2 -33 -3 -82t-1 -115l-2 -346l2 -301v-122t4 -91q4 -43 14.5 -73t37 -50t71.5 -32.5t119 -18.5v-35h-715v35q57 8 99 18t69 29.5t41 52.5t16 88q2 41 3.5 127t1.5 183.5v186.5v138q0 98 -1.5 210 t-5.5 196q-2 55 -16 87.5t-42 52t-70 30t-99 18.5zM477 156q0 -53 18.5 -71.5t36.5 -27.5q14 -4 28.5 -8t35.5 0q23 4 33 14.5t-6 28.5q-23 29 -29 61.5t-6 71.5q-2 27 -2 142v121.5v177v244v321.5q0 33 2 55.5t6 38.5q4 18 10 31q20 47 47 67l11 11q2 4 -0.5 6t-14.5 2 q-10 -2 -20.5 -3t-20.5 -3l-20 -4q-57 -16 -81 -54.5t-24 -66.5q-2 -25 -2 -154q0 -55 -1 -139t-1 -205v-283.5v-373.5z" />
<glyph unicode="2" horiz-adv-x="1462" d="M166 29q131 109 232.5 195.5t179 162.5t134 144.5t99.5 140.5q59 98 77.5 184t18.5 178q0 80 -27.5 138.5t-75.5 98.5t-109.5 59.5t-129.5 19.5q-59 0 -113.5 -14.5t-100.5 -37t-84 -50t-64 -56.5l-27 20q43 61 97.5 117.5t122 97.5t149.5 66t180 25q80 0 161 -22.5 t145.5 -74t105.5 -133.5t41 -198q0 -78 -25 -152t-64.5 -143.5t-92 -132t-107.5 -117.5q-37 -37 -85 -80t-101.5 -90t-107.5 -95.5t-103 -93.5l4 -4h512q82 0 132 15.5t83.5 48.5t58.5 84t53 125l33 -15l-106 -379q-10 -33 -24.5 -47t-51.5 -14h-1012zM477 139h649 q35 0 58 19q10 8 20 20q4 6 8 15q8 14 2 22q-10 -10 -24 -17.5t-29 -11.5q-16 -6 -33 -10q-25 -4 -86 -6q-53 -2 -149 -4t-260 0q-16 0 -27.5 -1t-19.5 -1q-8 -2 -15 -2q-10 -4 -24 -8q-12 -4 -29.5 -7.5t-40.5 -7.5zM647 373q78 43 147.5 105.5t123.5 119.5q61 68 114 139 q68 94 99.5 196.5t29.5 180.5q-2 80 -40 161t-93 128q-27 25 -59.5 41t-63.5 26.5t-56.5 16.5t-39.5 10q-14 2 -34.5 4t-38 1t-27 -5t1.5 -16q4 -6 56 -24.5t113.5 -63.5t110.5 -122t49 -198q0 -100 -31.5 -190t-72.5 -164t-83 -127t-67 -78q-4 -6 -26.5 -28.5t-46.5 -47.5z M1171 135q-4 -2 11.5 -5t27.5 -15q2 -2 4 -6t11 -13q0 -4 2 -3t4 5l4 8q4 6 8 17q4 8 7 21.5t7 29.5l17 72q-10 -18 -18.5 -31.5t-14.5 -24.5q-8 -10 -14 -18q-10 -10 -25.5 -21.5t-30.5 -15.5z" />
<glyph unicode="3" horiz-adv-x="1288" d="M164 -180q102 16 209.5 55t194.5 103.5t143.5 156.5t56.5 217q0 98 -53 178t-133 130.5t-174.5 67.5t-176.5 -9l-16 49q70 27 156 64.5t160.5 89t125 117t50.5 149.5q0 92 -48.5 138t-119 59.5t-148.5 2t-137 -33.5l-16 45q37 25 84 46t98 37.5t101 26t93 9.5 q61 0 122 -13.5t110 -44t79.5 -80t30.5 -120.5q0 -68 -27.5 -129.5t-72.5 -114.5t-104.5 -96t-122.5 -72q74 -14 148.5 -54t135 -100.5t98.5 -135.5t38 -159q0 -135 -59.5 -237.5t-153 -175t-207 -118.5t-219.5 -69q-29 -6 -66 -11t-71.5 -10t-63.5 -7t-39 -2zM526 797 q47 -10 89 -24.5t71 -31.5q35 -18 62 -36q20 -16 50.5 -44t57.5 -72t44.5 -105.5t10.5 -145.5q-10 -82 -47 -162q-33 -68 -96 -144.5t-178 -135.5q27 2 62.5 16t70.5 31q39 20 80 45q25 14 56.5 42.5t62 66.5t56.5 82t38 87q18 70 18 125t-11 99.5t-31.5 80t-43.5 64.5 q-47 57 -94 92t-88 53.5t-71.5 24.5t-45.5 8q-25 2 -47 2q-20 0 -40.5 -4t-35.5 -14zM569.5 1481q-8.5 -4 8.5 -6q14 -4 59 -12.5t90 -35.5q6 -4 24.5 -17t37 -37.5t33 -59.5t14.5 -84q-2 -51 -19 -101q-14 -43 -41.5 -90t-81.5 -84q-23 -16 -18.5 -18t20.5 2t47 16 q20 6 60.5 32t77.5 79q23 31 41 81t22 95t-10 91t-47 81q-63 72 -195 82q-23 2 -49.5 0t-45.5 -6t-27.5 -8z" />
<glyph unicode="4" horiz-adv-x="1529" d="M84 438l938 1090l51 -23l-2 -604l4 -356h86q49 0 84 6t61.5 22.5t45 46t30.5 76.5l27 -4l-41 -305h-293v-182q0 -66 2 -107t2 -75q2 -104 51.5 -146.5t169.5 -54.5v-35h-682v35q57 8 99.5 18t69 29.5t41 52.5t16.5 88q4 84 3 181.5t-1 195.5l-740 -2zM208 476q-1 -5 13 9 q6 4 17 9q10 4 22 7t33 3q104 -2 167.5 -1t98.5 1h57q35 0 72 4t60 10q10 2 18 4q20 4 37 13h-488q-10 0 -20 -3.5t-21 -7.5l-20 -8q-16 -8 -26.5 -17.5t-14.5 -13.5t-5 -9zM240 532q8 2 16 4.5t14 4.5q8 2 13 4l12 8q12 8 20 18l492 574q-8 -2 -14.5 -4t-10.5 -4 q-6 -2 -10 -4q-10 -6 -18 -15q-20 -14 -41 -37zM307 545h2h80q53 0 160.5 -1t296.5 1l4 340l-4 286v3zM967 -43q0 -57 15 -74.5t30 -27.5q14 -10 40.5 -17.5t55.5 2.5q12 4 2 17.5t-23 31.5q-18 29 -22 65t-6 77v401q0 12 -23 31q-16 14 -36.5 17t-20.5 7h29q20 0 58 -1 t108 1h34q6 0 11 2q29 6 48 16.5t29.5 22t13.5 19.5t1 10q-4 4 -19.5 -4t-29.5 -12q-6 -2 -15 -4q-20 -4 -51 -5h-139q-2 80 -2 170v175.5t2 201.5q2 152 2 233v120q0 45 -2 51q-6 2 -14.5 -15.5t-17.5 -42t-17.5 -51t-12.5 -41.5q-10 -37 -18 -84t-8 -88q-2 -25 -2 -160 v-1044z" />
<glyph unicode="5" horiz-adv-x="1163" d="M123 -186q125 41 242.5 86t208 113.5t145.5 170t55 254.5q0 94 -56 166t-141 117t-186.5 61.5t-191.5 -2.5l-45 41l206 654l29 14h479q51 0 81 8t50.5 25.5t34 42t31.5 57.5l41 -10l-66 -234q-10 -39 -26.5 -55t-55.5 -16h-542q-18 -59 -36 -111.5t-30 -93.5 q-16 -47 -28 -86q152 6 281.5 -19.5t225 -88t149.5 -164t54 -248.5q0 -113 -40 -209.5t-106.5 -173t-156.5 -137t-189.5 -104.5t-204 -70.5t-202.5 -39.5zM268 999l37 13l94 293q-29 -25 -37 -37q-8 -8 -10 -15q-8 -14 -18 -47q-10 -29 -26.5 -78t-39.5 -129zM389 932 q104 2 185 -29t141 -67q68 -43 119 -99q18 -20 35.5 -54t29.5 -78t15.5 -98t-9.5 -118q-25 -94 -71 -182q-41 -76 -112 -156t-181 -131q55 16 100 38t78 42q37 23 69 47q80 66 138.5 152t74.5 174q8 39 13.5 84t1.5 96t-21.5 108.5t-56.5 118.5q-29 45 -75 81t-100 60.5 t-108.5 38t-97.5 13.5q-39 0 -72 -4q-29 -4 -56.5 -12.5t-39.5 -24.5zM401 1470q10 -10 29 -14q8 -4 21 -4l28 -4q12 -2 27.5 -2h32.5q117 -4 186.5 -5t108.5 -1h63q23 0 43 8q8 4 16 10l13 12q4 4 9 10.5t5 12.5q-8 -6 -27 -12q-16 -4 -40.5 -8.5t-61.5 -4.5zM930 1432 q18 -4 27.5 -6.5t19.5 -10.5q10 -10 13 -19.5t5 -13.5q2 -6 6 -10q8 -8 13 2q8 31 9 45.5t7 36.5q6 23 16.5 43.5t2.5 22.5q-6 0 -14.5 -15.5t-26.5 -33.5q-6 -6 -15 -13q-14 -10 -35 -16q-10 -2 -27.5 -5t-0.5 -7z" />
<glyph unicode="6" horiz-adv-x="1452" d="M174 596q0 170 67.5 318.5t178 268.5t254 208t295.5 137q29 10 59.5 18t63.5 17l10 -37q-326 -129 -498 -370t-172 -593q0 -98 24.5 -190t70.5 -164t112 -116t147 -44q123 0 201 91t78 270q0 139 -54.5 231t-133.5 131q-72 35 -141.5 25.5t-137.5 -49.5l-16 30 q35 35 80 57.5t94 38.5q104 31 204.5 17t178.5 -66.5t126 -140.5t48 -205q0 -106 -40 -199.5t-111.5 -163t-172 -110.5t-219.5 -41q-135 0 -244.5 45t-188.5 128t-121 200t-42 258zM303 664q-8 -123 11.5 -220.5t66.5 -189.5q18 -37 50 -73t69 -64.5t74.5 -46t68.5 -17.5 q23 0 7.5 10.5t-34.5 26.5q-20 14 -39.5 34.5t-58.5 68.5q-20 27 -38.5 68.5t-33 91.5t-22.5 104.5t-8 103.5t2 98.5t11 104.5t29.5 120.5t57.5 149.5q31 68 80 135q41 57 104.5 122t149.5 116q-47 -16 -102.5 -52t-102.5 -77q-55 -47 -110 -100q-37 -37 -76 -93.5t-72 -124 t-56.5 -143.5t-27.5 -153zM883 856l6 -4q61 -16 106 -47t76 -62q35 -37 59 -75q27 -47 44.5 -119t-5.5 -203q-14 -78 -40.5 -130t-55.5 -85t-51.5 -48t-26.5 -17q-14 -10 -31.5 -16.5t-17.5 -10.5t18.5 -1t46 11t59.5 23.5t63 40.5q14 10 41.5 40.5t55 79t48 114t20.5 145.5 q0 76 -22.5 135t-58 103t-79.5 74t-89 46q-29 8 -58 12q-25 4 -53.5 4t-54.5 -10z" />
<glyph unicode="7" horiz-adv-x="1286" d="M106 1106l62 418l33 12q20 -23 50 -35t62.5 -16t65.5 -4h59h750l29 -37q-51 -82 -120 -209t-143.5 -279.5t-151.5 -317.5t-145.5 -322.5t-123 -295t-84.5 -233.5h-189l-31 35q90 174 187.5 361.5t197 376t196.5 374.5t187 358q-74 -2 -132 -2h-99h-82l-244 2 q-76 0 -122 -8t-77.5 -30.5t-53 -61.5t-48.5 -96zM248 1477q10 -12 22 -23q8 -6 15 -8q8 -4 18 -6t23.5 -3t35.5 -1h627q23 0 41.5 1t30.5 3q14 2 26 4t25 6q10 4 24.5 7t30.5 7h-53h-135h-179.5t-184.5 -1t-153.5 -1h-84.5q-25 0 -47 2q-20 2 -43 5.5t-39 7.5zM393 -98 q0 -16 4 -33q4 -14 12.5 -29.5t26.5 -25.5q29 82 59.5 162.5t59.5 146.5q33 76 63 147q18 45 59.5 138.5t89.5 198t94 200.5t75 149q23 45 57 113q29 57 76 146t117 212q-16 -8 -26.5 -16t-18.5 -14l-15 -15q-6 -10 -14 -18q-6 -10 -13 -20.5t-14 -24.5q-106 -211 -188 -373 t-142.5 -282.5t-103.5 -205.5t-69 -141q-66 -131 -78 -157q-6 -10 -23.5 -46t-37 -77t-35 -80t-15.5 -55z" />
<glyph unicode="8" horiz-adv-x="1314" d="M131 356q0 82 31 149.5t83 123t120.5 97.5t142.5 71q-63 31 -119.5 67.5t-97.5 80.5t-65.5 96.5t-24.5 115.5q0 57 28.5 120.5t88 117t153.5 88.5t223 35q94 0 173 -24t136.5 -66t89 -100t31.5 -130q0 -78 -32.5 -136t-80.5 -101t-101.5 -71t-96.5 -42 q55 -23 119.5 -58.5t121 -87t94.5 -121t38 -161.5q0 -80 -37 -161t-105.5 -145.5t-170 -105.5t-230.5 -41q-113 0 -207 30t-161.5 82t-105.5 122.5t-38 154.5zM259 350q1 -41 15.5 -83t44.5 -79q20 -25 46 -43q20 -16 46.5 -29.5t55.5 -9.5q12 0 4 13q-4 6 -12 10 q-25 16 -51.5 55t-38.5 80q-10 35 -13.5 73t0.5 75q6 80 31 129t53 92q8 14 5 17t-12 2t-18 -6t-14 -7q-27 -16 -62.5 -56t-57.5 -98q-10 -23 -16.5 -58.5t-5.5 -76.5zM322 1174q2 -61 29.5 -107.5t47.5 -65.5q23 -23 62 -45t88 -36q12 -2 26 -7q12 -4 30.5 -6t43.5 -4 q-47 27 -78.5 46.5t-50.5 33.5q-23 16 -33 27q-18 16 -41.5 41.5t-37.5 66.5q-20 53 -14.5 97.5t16.5 68.5q16 41 43 74q23 29 59.5 52.5t89.5 27.5h-20q-35 0 -67 -12.5t-56 -28.5q-29 -18 -56 -39q-12 -10 -27.5 -28.5t-27.5 -43t-19 -53.5t-7 -59zM371 367 q0 -59 22.5 -116.5t60.5 -102t91 -71t114 -26.5q49 0 98.5 22.5t89.5 62.5t64.5 96t24.5 124q0 74 -26.5 133.5t-72.5 106.5t-105.5 84t-127.5 70q-41 -23 -83 -58t-75.5 -82t-54 -107.5t-20.5 -135.5zM414 1196q0 -92 71.5 -159.5t210.5 -143.5q23 10 59 30.5t69.5 55.5 t58 88t24.5 127q0 55 -19.5 100t-52 76t-75.5 47.5t-88 16.5q-66 0 -114 -21.5t-81 -55.5t-48 -77t-15 -84zM727 807q37 -14 69.5 -30.5t59.5 -33.5q29 -18 55 -38q20 -14 48 -41t52.5 -67t40 -92t9.5 -116q-10 -82 -43 -153q-29 -61 -80 -121t-141 -82q29 2 55.5 8t48.5 14 q25 8 49 21q47 23 101.5 77t91.5 148q18 51 20 99.5t-7 91.5t-26.5 79.5t-37.5 63.5q-43 55 -88.5 88t-84 51.5t-68.5 25.5t-42 9l-41 4q-16 2 -28.5 0t-12.5 -6zM819 889q2 -2 26.5 6t53.5 18t71 36t79 79q23 33 37 62.5t18 74.5q12 131 -70 213q-29 31 -64.5 48.5 t-64.5 21.5q-23 4 -30 3t-4 -7t13.5 -13.5t22.5 -15.5q12 -10 34 -28.5t40 -47t31.5 -67.5t11.5 -88q-4 -61 -22.5 -105.5t-41 -75t-45 -48t-30.5 -25.5q-6 -4 -17.5 -10.5t-22.5 -13.5t-19 -12z" />
<glyph unicode="9" horiz-adv-x="1409" d="M154 1001q0 104 39.5 198.5t111.5 164.5t171 111t220 41q135 0 245 -46.5t188.5 -129.5t120.5 -198.5t42 -256.5q0 -170 -67.5 -318.5t-178 -269.5t-253 -209t-293.5 -137q-31 -10 -61.5 -17.5t-63.5 -15.5l-8 37q324 129 496.5 369.5t172.5 590.5q0 98 -24.5 190.5 t-70.5 165t-112.5 116t-148.5 43.5q-121 0 -199 -90.5t-78 -268.5q0 -139 53.5 -230t133.5 -132q72 -35 141.5 -26t136.5 48l17 -29q-35 -35 -79 -57t-95 -39q-104 -31 -204.5 -16.5t-178.5 67t-126 140.5t-48 204zM310 1109q-15 -79 14 -187q18 -76 54 -125t73.5 -77 t72.5 -39t54 -13q18 -2 28 0q10 0 14 3t-6 11q-14 4 -24 9t-19 9q-8 4 -16 9q-20 10 -45 31.5t-55 60.5q-33 41 -49.5 102.5t-20.5 116.5q-4 53 2 115.5t29 124.5q8 16 16 34q8 16 20.5 35t28.5 37q-29 -10 -53.5 -31.5t-40.5 -44.5q-20 -25 -37 -55q-25 -47 -40 -126z M750.5 107.5q-7.5 -7.5 7.5 -1.5q68 27 128 68t110.5 91t90 103.5t68.5 104.5q27 49 50.5 103.5t39 118t20.5 139.5t-3 170q-12 121 -70.5 218t-126.5 156q-20 16 -43 33q-20 14 -47 27.5t-55 21.5q-10 0 -9.5 -5t9.5 -11q8 -8 22 -19q23 -16 59.5 -51t72.5 -92t63.5 -138 t31.5 -190q4 -66 -5 -173t-64 -255q-25 -61 -57.5 -113.5t-66.5 -93t-64.5 -70.5t-47.5 -46q-20 -20 -44.5 -40t-43 -34t-26 -21.5z" />
<glyph unicode=":" horiz-adv-x="559" d="M145 936q0 18 7.5 40.5t22.5 41t39 31t56 12.5q53 0 89 -33t36 -86t-33.5 -92t-93.5 -39q-66 0 -94.5 41t-28.5 84zM158 106q0 18 7 41t22.5 41.5t40 30.5t57.5 12q53 0 89 -32.5t36 -85.5t-34 -92t-93 -39q-66 0 -95.5 40.5t-29.5 83.5zM256 203q-2 -4 2 -8q2 -4 9 -7.5 t15.5 -9.5t17.5 -17t15 -32q8 -25 4 -46.5t-9 -36.5t-8 -24.5t7 -5.5q6 2 15 7q16 8 24 22q18 31 18 58.5t-12 54.5q-6 14 -16 24t-23.5 17.5t-31.5 9.5q-23 2 -27 -6zM256 1032q-2 -4 2 -10q6 -8 24.5 -15.5t32.5 -50.5q8 -25 4 -46t-9 -36.5t-8 -24.5t7 -5q6 2 15 6 q16 8 24 22q18 33 18 59.5t-12 55.5q-6 14 -16 25q-10 10 -23.5 17t-31.5 9q-23 2 -27 -6z" />
<glyph unicode=";" horiz-adv-x="559" d="M96 -240q74 63 109 146q4 10 6 29.5t0 43t-10 47t-25 42.5q-23 25 -24.5 69.5t26.5 85.5q16 23 50 36t63 7q59 -12 82.5 -52t23.5 -91t-28.5 -110.5t-69.5 -115t-88 -100.5t-86 -69zM143 942q0 18 7.5 41t22.5 41t39 30.5t58 12.5q53 0 89 -33t36 -86q0 -55 -33.5 -94 t-93.5 -39q-66 0 -95.5 42t-29.5 85zM260 193.5q-2 -17.5 4 -43.5q4 -16 12.5 -32t12.5 -26q6 -10 14 -25.5t4 -39.5v-17q0 -8 -2 -16t-4 -17q-4 -18 -2 -22t6 0q6 4 12 12q16 18 30 43t24 76q16 76 -13 119q-14 20 -30.5 26.5t-26.5 6.5q-6 0 -15.5 -4.5t-16.5 -13.5 t-9 -26.5zM262 1042q-2 -4 2 -8q2 -4 9.5 -7t15.5 -9t17 -18.5t16 -32.5q8 -25 4 -46.5t-9.5 -37t-7.5 -23.5t8 -4q6 2 15 6q14 8 22 21q18 33 18 60t-12 54q-6 14 -16 25q-10 10 -23.5 17.5t-31.5 9.5q-23 2 -27 -7z" />
<glyph unicode="&#x3c;" horiz-adv-x="1024" d="M152 594v57l614 432l68 -57l-490 -399l483 -400l-61 -61zM221 612q0 -10 14.5 -18t24.5 -16q80 -55 171 -121t168 -119t124 -88t41 -29h10q4 0 10.5 1t14.5 5l-480 385h-98zM221 637h37h32.5t31.5 2l477 383q-10 4 -20.5 4t-18.5 -2q-10 -4 -19 -8l-477 -350 q-18 -12 -29.5 -18.5t-13.5 -10.5z" />
<glyph unicode="=" horiz-adv-x="1439" d="M248 336l20 123h922l-21 -123h-921zM248 672l20 123h922l-21 -123h-921zM293 782q12 -23 35 -34q10 -6 20 -9q8 -4 21 -8q10 -4 25.5 -6t37.5 -2l602 4q16 0 31.5 2t26.5 6q12 4 24 10q4 2 12 9q12 8 31 24zM299 451q6 -12 18.5 -20.5t24.5 -12.5q14 -6 31 -6 q23 -4 47 -11q20 -4 44.5 -8t47.5 -2q80 2 148.5 3t134 2t132 4t142.5 14q29 2 41 0q8 -2 10 -6q10 2 19 8q18 12 35 24zM1090 725q10 -4 16 -6t12 -6t12 -6q4 -4 11 -9q8 -8 14 -22l14 86q-6 -4 -12 -7l-10 -5q-6 -4 -12 -5l-13 -6q-6 -4 -14 -7t-18 -7zM1112 381 q10 -4 14 -6t9 -4q4 -2 4 -4l8 -5l7 -7t7 -11l15 86q-10 -4 -19 -18q-4 -6 -6 -11q-4 -2 -10 -6q-4 -4 -11.5 -7z" />
<glyph unicode="&#x3e;" horiz-adv-x="1024" d="M154 1026l67 57l615 -432v-57l-615 -428l-61 61l483 400zM227 227q8 -4 14.5 -5t10.5 -3q6 -2 10 -2q68 49 148 105q68 47 153.5 110.5t181.5 132.5q6 4 23.5 9.5t28.5 13.5q4 4 5 8t3 8t2 8h-84zM248 1006l471 -363q14 -2 28.5 -1t26.5 1q14 0 27 2q-20 18 -41 33 q-16 12 -32.5 24.5t-27.5 20.5q-131 88 -210.5 142.5t-124.5 84.5q-53 37 -76 51q-4 6 -10 11q-12 8 -31 -6z" />
<glyph unicode="?" horiz-adv-x="985" d="M139 1377.5q0 17.5 11 27.5q57 59 120.5 81.5t116.5 22.5q109 0 209 -44t178 -132q45 -51 68.5 -114.5t26.5 -130t-16 -132t-60 -120.5q-45 -59 -116 -108.5t-142 -104.5q-70 -55 -95.5 -125t0.5 -156l-28 -20q-18 23 -39 52t-37.5 64t-26.5 71t-8 71q2 33 24.5 65.5 t59.5 61.5q55 39 109.5 81.5t98.5 93t71.5 111t27.5 135.5q0 51 -14 98.5t-43 84.5t-70 58.5t-96 21.5q-72 0 -129 -49.5t-92 -108.5q-8 -23 -23 -23q-18 0 -34.5 21.5t-20.5 32.5q-6 14 -14.5 35.5t-12.5 41t-4 37zM182 1389q10 -14 27.5 -13.5t34.5 4.5q10 2 17 8.5 t16.5 14.5t23.5 18.5t43 20.5t59.5 14t56 4t43 -1t19.5 -1q14 4 -6 15.5t-41 15.5q-18 4 -48 7t-71 -1q-39 -4 -75.5 -20.5t-57.5 -28.5q-20 -12 -34.5 -29.5t-6.5 -27.5zM291 104q0 18 7 41t22.5 41.5t39 30.5t56.5 12q53 0 89 -32.5t36 -85.5t-34 -92t-93 -39 q-66 0 -94.5 40.5t-28.5 83.5zM414 205q-2 -4 2 -8q2 -4 9 -7.5t15.5 -9.5t17.5 -18t15 -33q8 -25 4 -46.5t-9 -36.5t-8 -23.5t7 -4.5q6 2 14 7q14 8 23 20q35 60 8 115q-6 14 -16 24t-23.5 17.5t-32.5 9.5q-23 2 -26 -6zM518 635q86 55 139.5 97t81.5 71q35 33 52 57 q35 57 49 112.5t14 133.5q0 31 -8 63q-6 29 -20.5 61t-39.5 62q-23 23 -34 32t-15 9q-6 0 -6 -8q2 -16 18.5 -38.5t26.5 -63.5q16 -76 17.5 -129.5t-17.5 -104.5q-16 -45 -45 -92t-59 -78l-92 -90q-12 -12 -23 -27q-10 -12 -20.5 -28.5t-18.5 -38.5z" />
<glyph unicode="@" horiz-adv-x="1609" d="M37 678q0 147 65.5 273t174 218.5t247 143.5t283.5 51q147 0 284.5 -53.5t245 -145.5t172 -218t64.5 -269q0 -90 -25.5 -159.5t-69.5 -118t-103.5 -74t-127.5 -25.5q-55 0 -108.5 16.5t-96.5 51t-69.5 89t-26.5 132.5v438h-129q-33 0 -53.5 -4t-35.5 -14.5t-26.5 -25.5 t-23.5 -40l-8 6q2 4 9 35t15 68q8 43 21 96l6 4q8 -16 22.5 -24.5t32 -12.5t34.5 -4h30l174 -6l196 6h26.5t23.5 2q-92 78 -210 122t-243 44q-129 0 -252 -46t-218 -128t-153.5 -191.5t-58.5 -236.5q0 -84 24.5 -158t67.5 -137q16 16 29.5 43t29.5 61q6 14 21.5 48t37 80.5 t46.5 100.5t49 109q57 127 127 283h25l288 -625q20 -47 57.5 -91t96.5 -48l2 -8l-170 8q-29 0 -59.5 -1t-59.5 -3q-23 -2 -48 -3t-38 -1v8q53 8 72.5 35t5.5 67q-10 23 -21.5 51.5t-21.5 53.5q-12 29 -24 59q-31 0 -60 1t-59 1l-117 2q-6 -14 -17.5 -42.5t-23.5 -59.5 t-21.5 -58.5t-9.5 -41.5q0 -23 26 -44.5t54 -23.5v-8q-4 0 -30.5 1t-49.5 3t-45 3t-30 1h-9q-4 0 -9 -1t-9 -1h-2q49 -59 111.5 -105.5t134 -79t150.5 -50t159 -17.5q205 0 375 105l45 -74q-94 -55 -202 -86t-218 -31q-147 0 -285.5 51t-246 141.5t-172 213t-64.5 268.5z M88 676q0 -86 20.5 -155.5t59.5 -131.5l13 -19.5t-5 -17.5l31 21q-47 63 -71.5 138t-24.5 167q0 100 33.5 187t91 158t131 124t151.5 86q18 8 13 9t-19 -3q-66 -16 -140.5 -63.5t-137 -120t-104.5 -168.5t-42 -211zM172 332q2 -4 26.5 -9.5t26.5 -9.5q59 -70 126 -106.5 t114 -48.5q-66 35 -124 81t-105 99zM299 412q-10 -29 10.5 -36t44.5 -9q10 0 9 1t-6 4t-11 9t-8 16t1 22.5t5 18.5q4 16 19.5 59.5t29.5 77.5l10 29q0 2 -2 6q-4 6 -12 19zM397 643h87t53 2q23 0 30 2q6 0 15 2l24 6h-178l107 263q2 14 2 22v14v11q-4 -4 -21 -39 q-14 -31 -43 -95.5t-76 -187.5zM451 670q23 0 44 -1t44 -1l102 2l-100 223zM569 1063q0 -8 2 -19q0 -6 4 -16q2 -16 19 -57l233 -543q8 -23 21.5 -35t25.5 -18q14 -8 31 -10q10 -4 19 -7q8 -2 18.5 -3t22.5 3q-10 4 -19.5 9.5t-15.5 9.5q-8 6 -15 12l-14 14q-14 18 -24 41 l-304 656q-4 -10 -4 -19.5v-17.5zM731 1108q14 -12 39 -18q10 -4 25 -7q25 -2 67 -4q35 -2 94.5 -2h147.5l98 2q29 0 37 2t12 4q2 2 9 7q4 4 8 7t8 7q-12 -4 -27.5 -5t-27.5 -3q-14 -2 -29 -2h-363h-41q-8 0 -14 2q-4 0 -10 2q-4 2 -13.5 3t-19.5 5zM786 78q35 -6 79 -5 t93.5 7t99.5 19.5t95 35.5q10 4 27.5 -5t25.5 -5q-14 10 -23 26.5t-14 16.5q-53 -29 -142 -58.5t-241 -31.5zM1014 588q0 -47 16.5 -83t42 -61.5t55 -39t54.5 -11.5q-39 10 -64.5 31.5t-40 49.5t-20.5 57.5t-6 58.5v41v108.5t2 218.5q0 20 -8.5 41t-30.5 35v-446zM1067 621 q0 -68 15.5 -110t42 -66.5t59.5 -34t69 -9.5q43 0 82 18.5t69 53.5t47 88t17 123q0 104 -36.5 195.5t-100.5 164.5l-18 -110h-8q0 57 -26 75.5t-87 18.5l-125 2v-409zM1085 1281q-2 -1 17 -9q51 -23 101 -54.5t97 -78.5q27 -29 13 -43q-20 -18 -33.5 -21.5t-22.5 -5.5 q-8 0 -8 -4t14.5 -9t28.5 -24q4 -6 8 -14q8 -18 11 -37l12 92q4 18 13.5 17t15.5 -9q74 -84 122 -186t48 -215q0 -43 -9.5 -101.5t-41 -113.5t-93 -97t-164.5 -49q113 0 180.5 39t104.5 95.5t49.5 118t12.5 108.5q0 92 -31 177t-82 156.5t-114.5 130t-127.5 95.5 q-27 16 -53 27q-8 2 -24.5 7t-29 7t-14.5 1z" />
<glyph unicode="A" horiz-adv-x="1671" d="M6 0v33q68 12 113 27.5t76.5 41t57.5 67.5t52 107q25 61 88 220q27 68 65 162t90 221t119.5 291.5t151.5 373.5h39q14 -37 51 -124t85 -203.5t103.5 -251t110 -263.5t100.5 -243.5t76 -190.5q41 -104 112 -164.5t181 -70.5v-33h-639v33q33 6 60.5 13t45 21.5t24 35 t-6.5 51.5q-10 35 -31 88q-16 47 -43.5 121.5t-68.5 185.5h-469q-39 -100 -60.5 -159.5t-33.5 -92.5q-14 -37 -19 -53q-10 -31 -19 -62.5t-9 -50.5q0 -31 14 -49.5t36.5 -28.5t49.5 -14t53 -6v-33h-555zM307 115.5q0 -11.5 4 -21.5t11 -20q16 -25 98 -29q18 0 17 1t-11 7 t-22.5 19.5t-16.5 36.5t2 49t12 41q2 6 13.5 36.5t26 72.5t30.5 88t31 83q4 12 9 25.5t9 36.5q0 6 -2 14q-2 6 -6 16.5t-14 20.5l-185 -451q-6 -14 -6 -25.5zM506 627q106 -2 170.5 -2t99.5 2q41 0 58 2q12 0 24 4q10 2 21.5 5t21.5 7l-61 -2h-279l209 553q4 31 4 50.5v29.5 q0 12 -2 20q-6 -6 -37 -77q-12 -31 -32.5 -79t-48 -119t-64.5 -168t-84 -226zM584 653h401l-190 512q0 4 -3.5 11.5t-5.5 7.5q-4 0 -8 -8zM840 1440q0 -23 4 -41q0 -14 6 -37q4 -18 13 -47t26 -70l393 -1042q4 -35 27.5 -60.5t52.5 -44.5q31 -23 70 -37q14 -4 34 -8 q16 -4 38 -5h8q18 0 38 3q-23 10 -41 20.5t-30 20.5q-14 10 -27 23q-14 14 -27 32q-12 16 -25.5 39t-25.5 54l-526 1280q-6 -20 -7 -41t-1 -39z" />
<glyph unicode="B" horiz-adv-x="1409" d="M68 1456v33h228t161.5 1t109.5 1h70q12 0 24 1q61 0 129 -9q82 -10 154 -39q90 -37 149.5 -107.5t59.5 -185.5q0 -78 -30.5 -135.5t-72.5 -96t-83 -60t-62 -30.5v-10q74 -10 143.5 -35.5t125 -69.5t88 -108.5t32.5 -152.5q0 -90 -37.5 -172t-109.5 -144.5t-173.5 -99.5 t-228.5 -37h-673v35q57 8 100 17t70.5 29.5t42 53.5t16.5 88q2 27 2 76t1 109.5t1 126t-1 127t-1 113.5v85v210t-4 198q-2 55 -16.5 88t-43 52t-71.5 29.5t-100 18.5zM295 1425q39 -16 70.5 -34.5t31.5 -67.5q2 -16 4 -143q0 -53 1 -136t1 -205t1.5 -286t1.5 -381 q0 -43 18 -69.5t47 -42t63.5 -20.5t69.5 -7q5 -1 13 -1q12 0 33 2q34 3 69 9l9 3t-7 3q-68 4 -108 20.5t-61.5 42t-28.5 56t-7 63.5v47.5t-1 108t-2 140t-1 145v123v73.5v414q0 49 5 79t26 48q14 13 47 27q26 11 76 11q14 0 30 -1q4 0 5 4t-1 4q-39 7 -69 7q-12 0 -23 -1 q-37 -4 -66.5 -13t-56 -20.5t-61.5 -15.5q-37 -4 -60.5 7.5t-52.5 15.5q-10 0 -15 -4q-3 -2 -3 -3t2 -2zM535 1325l2 -233q2 -164 3 -326v-108q0 -109 -1 -220q0 -66 1 -121t3 -67q2 -43 11 -77t33.5 -56.5t66.5 -34.5t108 -12q45 0 96 19.5t95 60t73 106.5t29 158 q0 80 -34 146.5t-89 115.5t-127 75.5t-148 26.5h-32v39h32q123 0 196 80t73 207q0 74 -24.5 131t-66.5 97t-96.5 60.5t-115.5 20.5q-31 0 -48.5 -10t-26.5 -23.5t-11 -29t-2 -25.5zM854 795q100 -25 159.5 -73t92.5 -95q37 -55 51 -121q7 -44 7 -82q0 -32 -5 -62 q-10 -64 -31.5 -109.5t-47 -76.5t-42.5 -48q-18 -18 -21 -22q-1 -2 1 -1q4 0 20 6q68 20 117 64t84 112q23 43 31 92q6 36 6 70q0 13 -1 25q-3 46 -14.5 86t-27.5 65q-35 53 -91.5 92t-121.5 61q-31 8 -59 15q-25 4 -54.5 6t-52.5 -4zM883 1417l6 -6q6 -6 14 -10 q33 -23 53.5 -52.5t34.5 -58.5q14 -33 25 -67q12 -57 12 -105q0 -31 -5 -58q-13 -69 -42 -116q-20 -35 -27.5 -43t-1.5 -12q4 -3 10 -3t14 3q16 6 34 18.5t34.5 26.5t26.5 27q6 6 17.5 20t21.5 35.5t19.5 52.5t11.5 72v20q-1 31 -5 57q-6 32 -17 55t-23.5 39.5t-20.5 26.5 q-16 23 -49 47.5t-55 34.5q-23 9 -45 15q-13 3 -25 4q-8 0 -16 -2q-8 -3 -8 -8q0 -7 6 -13z" />
<glyph unicode="C" horiz-adv-x="1601" d="M119 750q0 186 72.5 329.5t193.5 240.5t277.5 147.5t326.5 50.5q135 0 224.5 -19.5t134.5 -23.5q36 -3 63 -3h13q32 1 61 13l28 -12l-26 -367h-39q-16 92 -55 153.5t-99.5 98.5t-141.5 52t-177 15q-133 0 -238.5 -48t-179.5 -132t-112.5 -198.5t-38.5 -247.5 q0 -180 57 -316.5t147 -228.5t204 -138t228 -46q115 0 197 22.5t145 85.5q41 41 65 90t40 92l37 -16l-99 -313q-49 -23 -113.5 -35t-125 -18.5t-105.5 -8.5t-57 -2q-182 0 -347 48t-289 145.5t-197.5 245t-73.5 344.5zM254 784v-20q0 -72 12 -142q14 -78 39 -146 t55.5 -122.5t63.5 -89.5q31 -35 75 -67.5t92 -58t98 -44t97 -24.5q35 -4 52.5 -3t22.5 4t3 7t-6 6q-25 6 -43 12t-35.5 14.5t-38 19.5t-51.5 30q-43 25 -76.5 57.5t-59.5 65t-44 61.5t-31 47q-12 18 -30.5 58t-34 97.5t-26.5 127.5q-8 51 -8 105q0 20 1 40q6 152 46 252 t105 186q29 33 66 64q33 27 82 54.5t115 47.5q61 12 86 19q14 4 22 6q4 2 -6 3t-28.5 1t-44 -2t-52.5 -8t-64.5 -18.5t-82.5 -34t-91.5 -52t-87.5 -71.5q-29 -29 -61.5 -76t-61 -108.5t-48 -137.5t-21.5 -160zM1249 51q0 -4 9.5 -1t27 6t39 5t43.5 -2l16 -4q14 -4 25 -10 q33 90 49.5 139t22.5 72q8 27 6 31q-4 0 -14.5 -17.5t-24.5 -44t-30.5 -54.5t-31.5 -46q-20 -25 -34.5 -34t-34.5 -17t-43 -11.5t-25 -11.5zM1386 1378q6 -14 18.5 -42.5t25.5 -55.5q6 -12 11 -30.5t8 -35t6 -27.5t7 -11q2 0 4 2q6 6 7 14l16 270l-12 -15t-9 -9q-4 -4 -8 -6 q-6 -8 -20.5 -15.5t-30.5 -11.5q-13 -4 -21 -8q-4 -2 -5 -8q0 -4 3 -11z" />
<glyph unicode="D" horiz-adv-x="1873" d="M125 1452v37h352q70 0 157 1t179 1q96 0 199.5 -9t203 -37t190.5 -76t165 -126q78 -82 132 -201.5t54 -283.5q0 -188 -69.5 -332.5t-189.5 -244t-278.5 -150.5t-334.5 -51q-98 0 -209 10t-201 10l-346 -2v35q57 8 99 18t70 29.5t42 52.5t16 88q2 27 2 76t1 109.5t1 126 t-1 127t-1 113.5v85v211t-4 197q-2 49 -16 81.5t-42 53t-71 32t-100 19.5zM336 1448q0 -6 20 -16q18 -10 30.5 -17.5t23.5 -13.5q10 -8 18 -15q20 -23 24.5 -51t4.5 -49v-54v-129t-1 -177.5t-1 -201.5v-201.5t1 -177.5t1 -129t2 -56q6 -35 26.5 -54.5t49.5 -33.5 q76 -33 202 -39q36 -1 68 -1q71 0 121 6q72 9 108 17q12 4 23 8q22 9 24 15q-12 -4 -25.5 -5t-23.5 -3q-12 -2 -24 -2q-30 -4 -92 -12q-18 -2 -40 -3q-54 0 -133 15q-78 16 -120.5 72.5t-42.5 121.5v49v85t-1 102.5t-1 101.5v83v48v54v102.5v126v126t1 101.5t1 53 q4 33 6 55.5t18 39.5q14 16 40 28.5t48 16.5q85 14 148 14q29 0 53 -3q78 -9 113 -13q14 0 -31 12t-144 18q-23 2 -50 2q-20 0 -43 -1q-52 -3 -85 -7q-29 -4 -62.5 -12t-60.5 -21q-29 -12 -55 -8t-45 10q-18 6 -51 16.5t-39 10.5q-4 -2 -4 -4zM600 629q0 -133 1 -231.5 t3 -149.5q10 -57 35 -92t60.5 -54.5t82.5 -26.5t103 -7q156 0 268.5 45t186 128t108.5 202.5t35 269.5q0 162 -61.5 289.5t-165 217t-240.5 136.5t-291 47q-49 0 -83 -13.5t-38 -70.5q-4 -86 -4 -199.5v-253.5v-237zM1302 1352q-1 -2 -1 -3q0 -9 26 -26q31 -20 75 -72.5 t86 -125t72.5 -162t34.5 -185.5q2 -34 2 -65q0 -73 -10 -133q-14 -84 -37.5 -145.5t-50 -103.5t-47.5 -67q-12 -16 -28.5 -31.5t-31 -29t-23.5 -22.5t-9 -11t4 -2q6 0 22 5q26 9 63.5 28.5t78.5 49.5t69 62q29 33 55.5 83t47 113.5t30.5 137.5q8 54 8 111q0 22 -1 45 q-6 117 -38 203t-72 145t-80 95t-62 52q-37 27 -78 42.5t-69 18.5q-7 1 -13 1q-18 -1 -23 -8z" />
<glyph unicode="E" horiz-adv-x="1345" d="M125 1454v35h809q109 0 152.5 7t62.5 36l27 -10l-23 -326h-37q-4 41 -12 68.5t-19 44.5q-10 20 -24 30q-35 29 -91.5 35t-109.5 6l-258 2v-555h344q33 0 55.5 7.5t38 22.5t26.5 35.5t21 49.5q0 -2 5 -2q4 -2 8 -2t12 -4l-18 -375l-31 2q0 8 -2 26.5t-8 41.5 q-8 31 -31 64.5t-72 33.5h-348v-164v-66.5t1 -77.5t1 -77v-59q0 -105 48 -151q40 -38 140 -38q22 0 46 2q29 2 41 3t20 1t18.5 1t36.5 5q45 6 83 16.5t70 35t60.5 69.5t55.5 119l37 -8l-66 -264q-4 -14 -9 -27.5t-15.5 -24t-28 -16.5t-47.5 -6l-965 -2v35q57 8 99 18 t70 29.5t42 52.5t16 88q2 43 2 129v183.5v186.5v138v211t-4 197q-2 55 -16 87.5t-43 52t-71 30t-99 18.5zM398 1426l-2 -4q0 -4 7 -7q25 -18 39.5 -36.5t14.5 -59.5q0 -25 2 -154q0 -55 1 -139t1 -204t1 -280.5t3 -371.5q4 -47 26.5 -66.5t55.5 -31.5q31 -10 97 -16 q26 -3 53 -3q42 0 87 6q25 2 45 7q16 4 33 9t21 11q-41 -10 -77 -10t-65 4q-33 4 -61 12q-27 10 -48.5 28.5t-31.5 41.5q-8 23 -14 49.5t-6 54.5v70.5t-1 121t-3.5 123t-4.5 74.5q-4 12 -12 27q-8 12 -20.5 25.5t-34.5 29.5l-31 21q0 8 6 14q2 2 6 4t46 3t97.5 3t110 3 t84.5 6q74 8 95.5 17t3.5 9h-60q-38 0 -104 -1h-49q-54 0 -127 1l-4 520q0 16 -14.5 30.5t-29 27t-20.5 19.5t10 11q25 4 72 6.5t101.5 2.5h106.5h85q25 0 61 -1h17q27 0 53 2q35 3 65.5 12.5t44.5 29.5q4 7 -46 -3q-36 -8 -101 -7q-25 0 -53 1q-66 2 -121 2q-42 0 -78 -1 q-84 -3 -178 -5q-23 0 -54.5 -5t-58.5 -13q-18 -4 -28 -10q-10 -4 -14 -10zM1049 784q-2 -2 -2 -6q0 -10 10 -28q14 -26 20 -66q0 -4 1 7t2 28.5t3 37t2 34.5v24q0 10 -2 15.5t-6 0.5q-10 -25 -18 -34q-6 -8 -10 -13zM1075 1432q-1 -1 -1 -2q0 -4 12 -8q14 -6 22 -17 q2 -2 6 -8q8 -12 19 -23q4 -2 8 8q2 4 4 11l4 16t2 18.5t2 26.5l2 27q-6 -10 -13 -15.5t-14 -9.5q-8 -6 -14 -8q-23 -8 -29 -10t-10 -6zM1098 82q-1 0 -1 -1q0 -2 12 -4q15 -3 28 -18q2 -2 4 -6q4 -6 10 -10q0 -3 1 -3h1q2 1 4 5l4 8q4 8 8 17q4 10 15 51l16 72 q-10 -18 -18 -32t-15 -24q-8 -10 -14 -18q-10 -10 -25.5 -21.5t-29.5 -15.5z" />
<glyph unicode="F" horiz-adv-x="1345" d="M125 1456v34h809q109 0 152.5 6.5t62.5 35.5l27 -10l-23 -324h-37q-4 41 -12 67.5t-19 43.5q-10 20 -24 32q-35 27 -91.5 34t-109.5 7l-258 2l-2 -557h66h105.5t174.5 2q29 0 56.5 8.5t44.5 26.5q16 20 24 40l16 40q4 0 14.5 -2t10.5 -6q0 -2 -1 -22.5t-3 -47t-4 -55.5 t-4 -49q-4 -51 -4 -105.5t-2 -95.5l-31 2q0 8 -2 25.5t-8 40.5q-8 31 -31 65.5t-72 34.5h-350v-305v-124t4 -91q4 -43 14.5 -73t37 -50t71.5 -32.5t119 -18.5v-35h-717v35q57 8 99 17t70 29.5t42 53.5t16 88q2 41 2 120v166v168v130v110.5v126t-1 123t-3 101.5q-2 55 -16 88 t-43 52t-71 29.5t-99 18.5zM396 1430l-2 -4q0 -4 7 -7q25 -18 39.5 -30.5t14.5 -51.5v-155v-140.5t1 -207t2 -285.5t3 -379q6 -45 29.5 -71.5t52.5 -37.5q46 -16 65 -16h4q18 2 16.5 15.5t-13 32t-17.5 30.5q-10 23 -16.5 70t-6.5 75v70.5t-1 121t-2 123t-3 74.5 q-4 12 -12 25q-8 10 -21.5 24.5t-33.5 30.5l-33 23q2 8 8 14q2 2 6 4t46 3t96.5 2t110 2t83.5 6q74 8 96.5 18t4.5 10q-16 -2 -60 -2h-280l-7 520q0 16 -14 31.5t-28.5 28t-19.5 20.5t11 13q25 4 72 6t101.5 2h106.5h85q25 0 61 -1h17q27 0 53 2q35 3 65.5 12t44.5 30 q4 7 -46 -3q-34 -7 -93 -7q-28 0 -61 2q-61 2 -114 2q-46 1 -85 -1q-84 -4 -178 -6q-23 0 -54.5 -5t-58.5 -13q-18 -4 -28 -10q-10 -4 -14 -10zM1042 786q-3 -3 -3 -8q1 -10 11 -26q16 -24 19 -66v-1l1 9q1 12 2 27.5t3 35t2 34.5v24q0 10 -2 15.5t-6 0.5q-4 -10 -9 -18 t-9 -14q-6 -8 -9 -13zM1067 1423q-2 -4 11.5 -13t19.5 -24l6 -12q4 -6 7 -13t7 -18l4 17q0 8 2 14q0 10 2 21q2 10 2 22.5t5 28.5l6 41q-8 -20 -23 -31q-8 -6 -14 -10q-18 -12 -24.5 -15.5t-10.5 -7.5z" />
<glyph unicode="G" horiz-adv-x="1734" d="M76 739q0 188 72.5 334t196.5 244t288 148.5t346 50.5q135 0 225 -19.5t133 -23.5q31 -3 55 -3q12 0 22 1q30 2 63 8l26 -15l-26 -385l-37 2q-6 27 -12.5 47.5t-10.5 36.5q-6 18 -10 33q-29 70 -76 114t-105.5 68.5t-126 33.5t-136.5 9q-147 0 -260 -45t-189 -128 t-115 -200.5t-39 -261.5q0 -131 42 -261t129 -233.5t218.5 -168t309.5 -64.5q27 0 57.5 3.5t60 7.5t52 8t33.5 8q0 31 1 61.5t1 53.5v51v141q0 76 -7.5 127t-27 83t-58 47.5t-102.5 19.5v33h590l2 -33q-66 -6 -112 -31t-50 -100q-1 -25 -1 -54v-31q1 -48 1 -110v-45v-59.5 t2 -85.5q8 -4 15.5 -18.5t9.5 -31t-4 -32t-23 -23.5q-14 -8 -48 -17t-75 -18.5t-82 -16.5t-67 -11q-51 -8 -114.5 -15.5t-141.5 -7.5q-166 0 -327 46t-287 141.5t-203.5 241t-77.5 345.5zM207 786v-22q0 -72 11 -140q13 -79 38 -147.5t55.5 -123t63.5 -89.5q31 -35 75 -67.5 t92 -58t98 -44t97 -24.5q30 -3 46 -3h7q17 1 23 4t3 7t-7 6q-25 6 -43 12t-35.5 14.5t-38 19.5t-51.5 30q-43 25 -77 57.5t-59.5 65t-44 61.5t-30.5 47t-30.5 58t-34 97.5t-26.5 127.5q-8 50 -8 106q0 20 1 41q6 152 46 251t105 185q33 43 79 75t90 53.5t81 34t51 16.5 q29 8 58.5 13t66.5 11q8 2 -7 2t-43 -1t-63.5 -6t-72.5 -13q-25 -6 -63.5 -18.5t-83 -34t-91.5 -52t-88 -71.5q-29 -29 -61.5 -76t-60 -108.5t-47 -136.5t-21.5 -159zM1300 645q0 -10 23 -20q35 -14 41 -29.5t6 -52.5t1 -91.5t3 -106.5t4 -93t2 -49q2 -25 11.5 -38 t18.5 -20.5t18.5 -8.5t13.5 -1q23 0 31 14.5t8 88.5v67.5t-1 73.5t-1 70.5v58.5q0 72 17 107.5t79 58.5l2 2q0 2 -4 2q-35 0 -58.5 -7t-43 -15.5t-40 -15.5t-47.5 -7q-10 0 -36.5 8t-38.5 8q-8 0 -9 -4zM1378 1382q6 -12 19.5 -26.5t23.5 -36.5q10 -23 15.5 -44.5t9.5 -33.5 q0 -1 0.5 -1t1.5 1l6 14l14 168q-12 -8 -22 -11t-16 -7q-8 -4 -13 -4q-12 -4 -29 -6q-12 -1 -12 -8q0 -2 2 -5z" />
<glyph unicode="H" horiz-adv-x="1992" d="M127 1456v33h700v-33q-127 -12 -172 -56t-49 -130q-2 -35 -3 -84t-1 -115v-235h791v235v116t-4 85q-4 43 -15.5 74.5t-36 54t-65.5 36t-105 19.5v33h703v-33q-59 -8 -101.5 -18.5t-70 -29.5t-42 -52t-16.5 -88q-2 -43 -3 -98.5t-1 -115t1 -117.5t1 -108v-134t1 -176 t2 -173t4 -125q2 -53 16 -86t42 -53.5t70 -29.5t99 -17v-35h-701v35q63 6 104.5 22.5t66 41t36 58t15.5 76.5q4 35 4 77v108v305h-795v-299v-124t4 -91q4 -43 15.5 -73t36 -50t65.5 -32.5t104 -18.5v-35h-696v35q57 8 99 17t70 29.5t42 53.5t16 88q2 27 2 76t1 109.5t1 126 t-1 127t-1 113.5v85v210t-4 198q-2 55 -16 88t-43 52t-71 29.5t-99 18.5zM410 1413q0 -8 20 -20q33 -20 39 -52t6 -61v-117t-1 -205.5t-1 -248.5t-1 -246t-1 -199v-106q0 -45 18.5 -67.5t44 -32t56.5 -9.5h55q10 0 10 4q0 6 -15 18.5t-28 26.5q-20 25 -26 58.5t-6 62.5v94 q0 47 -1 126t-1 204q-6 23 -17 37q-6 8 -10 14q-8 6 -16 15q-8 6 -19.5 14t-28.5 18q0 4 -1 5.5t-1 5.5q0 10 9 14l8 4q8 2 64.5 4t123 3t124.5 1h71q84 0 170 2t178 39h-653v406q0 78 17 129t60 73q16 10 38 14.5t22 10.5l-2 2q-2 0 -5 1t-8 1q-18 0 -44.5 -7t-50 -15.5 t-39.5 -16.5l-17 -8q-18 -6 -37 -6q-29 0 -50.5 9t-33.5 11q-20 0 -20 -10zM1423 1423q-6 -2 -6 -4q-1 -3 7 -6q14 -6 36 -20q35 -27 44 -64t9 -119v-121.5t-1 -200.5t-1 -301v-423q0 -39 16.5 -60.5t42 -33t56.5 -13.5t60 -2q10 0 9 4t-8.5 11.5t-16.5 15.5t-17 18 q-20 25 -26.5 59t-6.5 62q-2 23 -2 137v122v178.5v247t2 323.5q0 80 14.5 122t57.5 68q31 18 67.5 26.5t36.5 12.5q0 2 -8 4q-4 1 -10 1t-14 -1q-16 -2 -52 -8q-47 -10 -91 -29.5t-77 -23.5q-17 -2 -31 -2q-31 0 -51 9q-28 13 -39 11z" />
<glyph unicode="I" horiz-adv-x="956" d="M129 1456v33h702v-33q-59 -8 -101 -18.5t-69.5 -29.5t-42 -52t-16.5 -88q-2 -43 -3 -98.5t-1 -115t1 -117.5t1 -108v-134t1 -176t2 -173t3 -125q2 -53 16.5 -86t42 -53.5t69.5 -29.5t100 -17v-35h-701v35q63 6 104.5 22.5t66 41t35.5 58t15 76.5q4 35 4 77v108l-4 653 q-1 44 -1 81v35v19q0 38 -3 66q-4 43 -15 74.5t-36 54t-65.5 36t-104.5 19.5zM385 1423q-6 -2 -6 -4.5t7 -5.5q13 -6 36 -20q35 -27 44 -64t9 -119v-121.5t-1 -200.5t-1 -301v-423q0 -39 16.5 -60.5t42 -33t56 -13.5t59.5 -2q10 0 9 4t-8 11.5t-16 15.5t-18 18 q-20 25 -26 59t-6 62q-2 23 -2 137v122v178.5v247t2 323.5q0 80 14 122t57 68q31 18 68 26.5t37 12.5q0 2 -8 4q-4 1 -10 1t-14 -1q-16 -2 -52 -8q-47 -10 -91 -29.5t-77 -23.5q-17 -2 -31 -2q-31 0 -51 9q-29 13 -39 11z" />
<glyph unicode="J" horiz-adv-x="876" d="M20 -418q96 45 160 124t103 173t54 197.5t15 199.5l-2 795q-1 44 -1 81v35v19q0 38 -3 66q-4 43 -15.5 74.5t-36 54t-65.5 36t-104 19.5v33h702v-33q-59 -8 -101 -18.5t-69.5 -29.5t-42 -52t-16.5 -88q-2 -43 -2 -102.5t1 -146.5t2 -205t1 -273v-303q0 -131 -44 -243 t-121 -199t-181 -148.5t-225 -93.5zM276 -295q111 68 172.5 151t91 160.5t36 138t6.5 78.5v319.5t-1 235t-2 167t-1 117.5v87v74q0 80 14 122t57 68q31 18 68 26.5t37 12.5q0 2 -9 4q-4 1 -10 1t-14 -1q-16 -2 -51 -8q-47 -10 -91 -29.5t-77 -23.5q-17 -2 -31 -2 q-31 0 -51 9q-29 13 -39 11q-12 -4 1 -10t36 -20q35 -27 44 -64t9 -119v-1048q0 -111 -34 -198t-71.5 -146.5t-67.5 -89.5q-24 -23 -24 -24z" />
<glyph unicode="K" d="M109 1456v33h702v-33q-59 -8 -101 -18.5t-70 -29.5t-42 -52t-16 -88q-2 -43 -3 -98.5t-1 -115t1 -117.5t1 -108v-134t1 -176t2 -173t3 -125q2 -53 16 -86t42 -53.5t70 -29.5t99 -17v-35h-700v35q63 6 104 22.5t65.5 41t36 58t15.5 76.5q4 35 4 77v108l-4 653q-1 44 -1 81 v35v19q0 38 -3 66q-4 43 -15.5 74.5t-36 54t-65.5 36t-104 19.5zM365 1423q-6 -2 -6 -4.5t7 -5.5q13 -6 35 -20q35 -27 44.5 -64t9.5 -119v-121.5t-1 -200.5t-1 -301v-423q0 -39 16 -60.5t42 -33t56.5 -13.5t59.5 -2q10 0 9 4t-8 11.5t-16.5 15.5t-17.5 18q-20 25 -26.5 59 t-6.5 62q-2 23 -2 137v122v178.5v247t2 323.5q0 80 14.5 122t57.5 68q31 18 67.5 26.5t36.5 12.5q0 2 -8 4t-24.5 0t-51.5 -8q-47 -10 -91 -29.5t-77 -23.5q-17 -2 -31 -2q-30 0 -50 9q-28 13 -39 11zM629 799q16 18 52 55t81 83t94 97t94 96.5t80 81t51 52.5q14 14 41 42.5 t44.5 58.5t12.5 55.5t-53 31.5v39h504v-39q-10 0 -30.5 -2t-43 -6t-44 -9t-35.5 -10q-49 -16 -94.5 -47.5t-110.5 -95.5q-16 -14 -49 -45t-74 -71t-87 -83t-88 -82.5t-77 -72.5t-51 -51q37 -49 94 -119t120.5 -144.5t124 -145.5t103.5 -118q57 -63 123 -126.5t135.5 -114 t139 -81t137.5 -30.5l4 -37q-49 -5 -96 -5q-75 0 -143 12q-110 20 -205 60t-172.5 97t-141.5 123q-37 39 -95.5 109.5t-120.5 150.5t-122.5 157.5t-101.5 133.5zM778 872l62 19q182 174 289.5 275.5t162.5 152.5q66 59 84 76q16 12 37 22q37 21 84 35q-31 0 -57.5 -5 t-44.5 -9q-23 -8 -41 -15q-31 -18 -103 -84q-61 -55 -173.5 -164.5t-299.5 -302.5zM822 818v-12q0 -12 1 -22q2 -16 4 -26t30 -47t63.5 -82t69.5 -89t50 -65q16 -23 63.5 -79t105 -118.5t116.5 -117t100 -70.5t77 -26.5t56 -13.5q7 -1 13 -1q9 0 9 4q0 6 -26 21 q-53 31 -112.5 85t-112.5 109.5t-94 102.5t-55 65q-16 18 -60 72q-37 45 -104.5 129t-184.5 227q-8 -27 -9 -46z" />
<glyph unicode="L" horiz-adv-x="1366" d="M127 0v35q55 8 98 18t72 29.5t44 52.5t17 88q2 43 3 129t1 183.5t-1 186.5t-1 138v103.5v108.5t-1 104.5t-3 93.5q-2 55 -12 89t-31.5 53.5t-56.5 29.5t-86 18v33h633v-35q-102 -10 -147.5 -49t-51.5 -137q-2 -35 -3 -83t-1 -116l-2 -391q0 -27 1 -74t1 -103t1 -113.5 t1 -104.5q0 -43 8 -80t31 -63q23 -28 63 -42q31 -11 75 -11q12 0 26 1q63 4 92 5t45 2t31.5 2t54.5 5q53 4 90 14.5t65.5 37t52.5 71.5t50 121l37 -8l-55 -266q-6 -31 -23.5 -53.5t-77.5 -22.5h-1040zM410 1413q0 -8 20 -20q33 -20 39 -52t6 -61v-274q-2 -201 -4 -367 q0 -72 -1 -141.5t-1 -128t1 -100.5t3 -56q4 -55 25.5 -87t58.5 -48.5t88 -21.5t115 -5q16 0 37.5 1t39 4t27.5 7.5t4 10.5q-35 -1 -64 -1h-28q-39 1 -66.5 6t-47 17.5t-35.5 30.5q-10 10 -17.5 22.5t-13.5 33t-10 50t-4 76.5q0 18 -1 53t-1 76t-1 82t-1 72l2 631 q0 78 17 134t60 79q16 10 38 14t22 10l-2 2q-2 0 -5 1t-8 1q-18 0 -44.5 -8t-50 -18.5t-39.5 -19.5l-17 -9q-18 -6 -37 -6q-29 0 -50.5 9t-33.5 11q-20 0 -20 -10zM1107 66h31.5t38 1t31.5 3q33 4 38 19t9 28q10 43 15.5 68.5t9.5 41.5q4 17 4 25h-1q-7 0 -13 -18 q-6 -20 -23 -50q-20 -41 -48 -72.5t-75 -31.5q-30 -4 -30 -11q0 -3 13 -3z" />
<glyph unicode="M" horiz-adv-x="2084" d="M14 0v33q53 8 92 24.5t67 47t45.5 78.5t27.5 120l139 928l-41 86q-37 76 -95.5 103.5t-133.5 37.5v33h413q10 -25 40 -88.5t69 -145t83 -174t85 -177.5t72.5 -152.5t46.5 -100.5q8 -18 24 -55q14 -31 38 -83t65 -136q63 125 103 204t63 122q27 51 38 73l66 131 q39 76 106.5 216.5t176.5 365.5h360v-33q-59 -6 -100 -16t-68 -31q-33 -25 -46 -77q-9 -36 -9 -72q0 -17 2 -33q12 -98 26.5 -211t27.5 -218.5t24.5 -194.5t17.5 -138q8 -82 14.5 -132t10.5 -79q4 -35 6 -49q4 -43 16 -73t39 -49t73 -31.5t120 -18.5v-35h-719v33q57 8 99 18 t67.5 29.5t39 52.5t15.5 88v15q0 31 -5 92q-7 78 -17.5 172t-21.5 187t-17 153q-2 27 -6.5 61.5t-8.5 68.5t-7 60.5t-3 38.5l-8 2q-53 -111 -87 -184.5t-57 -116.5l-39 -78l-346 -694h-34q-10 23 -22.5 50.5t-22.5 51.5q-12 29 -27 58q-127 285 -207 459t-125 270 q-53 113 -76 162h-6q-16 -129 -28.5 -235.5t-22.5 -184.5q-10 -92 -18 -168q-10 -74 -16.5 -146.5t-8.5 -107.5q0 -37 3 -65.5t21.5 -50t59.5 -36t115 -20.5v-35h-568zM295 186q-2 -15 -2 -28q-1 -46 21 -70q28 -32 75 -35q14 -2 37 -2t12 4q-39 10 -58.5 43t-17.5 58 q-2 12 0 32q0 16 3.5 44t7.5 67l90 750q-6 0 -15.5 -26t-19.5 -67t-20.5 -90t-18.5 -94t-15 -83t-9 -54q-8 -47 -20.5 -123t-22.5 -147q-13 -85 -27 -179zM328 1425q0 -4 19.5 -12t41.5 -22q8 -6 18.5 -14.5t22.5 -26t28.5 -46t39.5 -77.5l274 -535q45 -88 90 -155 q39 -59 85 -110.5t87 -55.5q-61 129 -119.5 248.5t-116 237.5t-116.5 235.5t-125 244.5q-10 20 -16 42t-11.5 39.5t-11.5 28.5t-12 11q-12 0 -21.5 -7t-19.5 -16.5t-22.5 -16.5t-26.5 -7q-35 0 -52.5 9.5t-27.5 9.5q-2 0 -3 -1.5t-3 -1.5h-2q-1 -1 -1 -1.5t1 -0.5zM998 116 q-1 -8 0 -16q0 -27 8 -55l499 1022q-10 -2 -28.5 -27.5t-37 -57.5t-34.5 -62.5t-23 -42.5q-104 -201 -169.5 -323t-104.5 -194.5t-59.5 -109.5t-34.5 -70q-12 -30 -16 -64zM1628 1452q2 -6 15.5 -17.5t27.5 -11.5q20 0 42 10.5t61 22.5q4 2 6 5q1 2 -5 2q-4 0 -10 -1 q-8 0 -24.5 -1t-33.5 -1t-34.5 1t-27.5 1h-4q-12 0 -13 -10zM1649 1166q0 -36 4 -66q8 -63 17 -154.5t19.5 -193t20.5 -202.5t18.5 -184t13.5 -138.5t7 -63.5q6 -47 34.5 -69.5t61.5 -33.5q6 -2 19.5 -4t27 -3t24.5 -1t17 2q4 2 4 4q0 3 -7 9q-13 8 -29 20q-23 16 -36.5 53 t-19.5 99q-4 39 -12 107.5t-22.5 183t-35 282.5t-49.5 408q-2 21 -2 39q0 26 4 49q6 39 17 63q3 6 0 6q-2 0 -8 -4q-33 -27 -51.5 -61.5t-27.5 -72.5t-9 -74z" />
<glyph unicode="N" horiz-adv-x="1935" d="M104 1456v33h418q188 -207 332.5 -364.5t252 -274.5t181.5 -198t123 -134q113 -125 135 -145h4q2 0 2 2v2v57t-1 124t-2 155t-1 147q-2 98 -6 210t-8 198q-2 55 -16.5 88t-42 52t-70.5 29.5t-100 18.5v33h593v-33q-63 -6 -104 -17.5t-65.5 -33t-37 -54t-14.5 -81.5 q-2 -35 -2 -84t-2 -115l-4 -344l-6 -637v-31q0 -16 -1 -35.5t-1 -48.5l-35 -8q-180 188 -326.5 341t-262 273.5t-204 213t-151.5 159.5q-152 158 -223 232q0 -25 -1 -57.5t-1 -65.5l-2 -340l2 -299v-124t4 -91q4 -43 14 -73t37 -50t72 -32.5t118 -18.5v-35h-593v35 q57 8 99 18t69.5 29.5t42 52.5t16.5 88q0 27 1 76t1 109.5v126v127v113.5v85v210t-4 198q-2 55 -16.5 88t-43 52t-70.5 29.5t-100 18.5zM326 1425q33 -12 61.5 -24t59 -32.5t64.5 -51.5t77 -80q41 -47 99 -110.5t121.5 -133t129.5 -139.5t122 -129t100 -104.5t65 -63.5 q53 -45 104 -82q43 -31 88 -55q39 -21 69 -22q5 0 9 1l-864 940q-16 18 -37 40t-39 41.5t-31.5 31.5t-19.5 12q-12 0 -20.5 -7t-17.5 -16t-20.5 -16.5t-25.5 -7.5q-35 0 -60.5 11.5t-35.5 11.5t-10 -3q0 -5 12 -12zM395 131q2 -27 11 -41l6 -12q4 -6 16 -15.5t43 -15.5 q12 -2 27 -4q12 -2 27 -2t32 2q-10 4 -22 12l-9 6q-8 4 -27.5 16.5t-29.5 31.5q-10 16 -17.5 44.5t-7.5 57.5v62.5t-1 130t-1 162.5t-1 163t-1 129v62v55q0 31 1 82t5 129q-18 -16 -28 -41t-15.5 -49.5t-6.5 -46t-1 -33.5v-885zM1602 170q0 -53 8 -71.5t18 -26.5h1q3 0 6 14 q3 16 6.5 41t5.5 52.5t2 45.5q-1 14 -1 49.5t1 92.5q0 49 1 122.5t3 178t3 244t5 321.5q0 29 1 48t3 34q2 16 6 26q6 27 23.5 50.5t54.5 42.5q10 5 10 10q0 2 -3 3q-2 0 -5 -1q-63 -8 -106 -56.5t-43 -152.5v-1067z" />
<glyph unicode="O" d="M70 741q0 147 54 287.5t158.5 250.5t257 176.5t351.5 66.5q174 0 320.5 -53.5t254 -151.5t168 -237.5t60.5 -311.5t-61.5 -318.5t-172 -254t-261 -168t-329.5 -60.5q-184 0 -331.5 63.5t-252 170t-160.5 247t-56 293.5zM203 709q6 -86 27.5 -165t51 -146.5t65.5 -121 t71 -86.5t80 -62.5t94 -52t100 -36.5t96 -16q14 -1 25 -1q17 0 27 2q18 3 23 7t2 8t-7 4q-53 10 -103 22.5t-110 47.5q-47 27 -77.5 54.5t-53 55t-37 52t-26.5 42.5q-16 23 -36 63t-37.5 94t-31.5 122t-16 145q-1 20 -1 39q1 123 23 222q26 114 86 225q37 68 90.5 109.5 t103.5 66t89 34t47 13.5q5 2 -7 2q-9 0 -27 -1q-42 -3 -93 -19q-25 -8 -60.5 -24.5t-76.5 -43.5t-83 -62.5t-79 -80.5q-25 -33 -52.5 -84.5t-49 -118t-32.5 -144.5q-7 -51 -7 -105q0 -30 2 -60zM354 784q0 -158 41 -291t117 -229t181.5 -150.5t234.5 -54.5q88 0 175 36 t154.5 116t109.5 206t42 306q0 154 -41 283t-114.5 223t-178 147.5t-229.5 53.5q-106 0 -196.5 -42t-156 -124t-102.5 -203t-37 -277zM1290 1356q33 -18 74 -59.5t78 -106t65.5 -151.5t38.5 -199q3 -47 3 -90q0 -59 -6 -111q-11 -90 -31.5 -157.5t-45 -115t-41.5 -73.5 q-23 -37 -53.5 -73t-56 -62.5t-43 -42t-15.5 -15.5q55 27 97.5 52.5t78 55.5t66.5 66.5t64 90.5q23 37 46 90t39 117q17 66 24 140q3 35 3 70q0 41 -4 84q-12 117 -48 200t-77 139.5t-81 89t-64 48.5q-37 25 -72 37.5t-55 13.5h-3q-15 0 -15 -9q0 -10 34 -29z" />
<glyph unicode="P" horiz-adv-x="1386" d="M127 1456v35l397 -2q92 0 172 -3t172 -7q127 -8 192.5 -41t100.5 -62q59 -45 98 -118.5t39 -167.5q0 -115 -50 -210.5t-132 -161.5q-82 -68 -186 -100q-84 -26 -172 -26q-22 0 -43 2v41q74 8 136 35.5t108.5 74t72 108.5t25.5 142q0 84 -25.5 156t-73 125t-115 86 t-149.5 43q-23 4 -42 4t-34 -4q-2 0 -6 -4q-8 -8 -8 -23q-2 -111 -2 -168v-80v-26l-2 -379l2 -301v-124t4 -91q4 -43 14.5 -73t37 -50t71.5 -32.5t119 -18.5v-35h-717v35q57 8 99 18t70 29.5t42 52.5t16 88q2 27 2 76t1 109.5t1 126t-1 127t-1 113.5v85q0 98 1 211v44 q0 86 -3 153q-2 55 -16 88t-43 52t-72 29.5t-100 18.5zM418 1409q2 -6 10 -12t17.5 -16.5t18.5 -29t11 -48.5v-69v-95v-93.5v-58.5v-117q0 -80 1 -242.5t1 -449.5q0 -18 5 -33.5t12 -25.5q8 -12 18 -23q29 -29 71 -41t109 -16l41 2q-23 2 -41 9t-41 22q-25 16 -41 48t-20 52 q-2 12 -4 53q-2 35 -4 105q-1 35 -1 83.5t1 110.5l2 563v179v35.5v42t2 37t6 22.5q18 25 86 38q32 6 70 6q41 0 90 -7q8 -2 12 0t-6 4q-23 4 -73 8q-20 2 -41 2q-32 0 -68 -4q-31 -4 -71 -15.5t-63 -21.5q-25 -10 -49 -6t-43 10q-20 6 -18 -8zM952 664q2 -10 14 -10 q7 0 19 4q29 10 53 24q27 14 53.5 35.5t49 43t41 42t28.5 35.5q14 20 33 61t30 93t11 109.5t-20 112.5q-23 55 -47.5 89t-50 53.5t-49 30t-40.5 18.5q-16 6 -38.5 12t-43.5 10q-5 1 -7 1q-9 0 -13 -5q-4 -4 2 -14t39 -31q53 -35 83.5 -83t47.5 -93q18 -53 22 -108 q1 -19 1 -36q0 -96 -28 -165q-32 -82 -74 -132t-79 -73z" />
<glyph unicode="Q" horiz-adv-x="1869" d="M154 743q0 145 55 284.5t160.5 248t259 175.5t352.5 67q174 0 320.5 -55.5t253 -155t166 -237.5t59.5 -302q0 -115 -33 -215t-85 -183t-118.5 -148.5t-136.5 -110.5q268 -166 400 -240l121 -68q0 -1 -1 0q109 -53 199 -86.5t164.5 -54t139 -28t120.5 -7.5 q76 0 139.5 10.5t117.5 32t102 51t97 66.5l25 -20q-49 -51 -112.5 -99.5t-145.5 -86.5t-185.5 -61.5t-230.5 -23.5q-98 0 -186 15.5t-175 44t-175 72.5t-183 104q-33 20 -89 56t-117.5 75t-116.5 76.5t-86 60.5q-31 -10 -105.5 -19.5t-154.5 -9.5q-158 0 -304.5 54.5 t-260 155t-182 243.5t-68.5 319zM285 727q4 -88 24.5 -168t50 -148.5t65.5 -123t71 -86.5q35 -35 82 -65t97 -53.5t102 -37.5t100 -16q37 -2 50 0t13 6t-7 8t-13 6q-47 12 -73 21.5t-67 31.5q-47 25 -86 59t-69.5 66.5t-52 61t-31.5 45.5q-12 18 -34 59t-42.5 99.5 t-37.5 129t-19 150.5q-2 32 -2 61q0 120 26 205q33 107 92 201q23 37 60 74q31 31 77 63.5t111 55.5q31 10 51.5 17t32.5 11q14 4 23 6q7 3 -11 3q-8 0 -23 -1q-44 -2 -95 -18q-27 -8 -65 -24.5t-81 -42t-87 -61.5t-81 -81q-27 -33 -55.5 -84t-52 -117.5t-36.5 -145.5 q-9 -54 -9 -112q0 -27 2 -55zM438 797q0 -102 27 -205t76 -194t117.5 -164.5t152.5 -118.5t183 -57q25 -4 52 -4q74 0 152 26q45 14 96.5 58t96.5 122t74.5 189t29.5 256q0 166 -44 299t-121 228t-180 146.5t-220 51.5q-96 0 -185.5 -38t-157 -116t-108.5 -198t-41 -281z M1362 1343q33 -18 78 -62t88 -108.5t74.5 -146.5t37.5 -178q2 -39 2 -75q0 -67 -7 -124q-11 -88 -31.5 -154.5t-45 -112.5t-40.5 -73q-25 -37 -58 -74.5t-61.5 -67.5t-48 -48.5t-17.5 -18.5q111 57 182.5 126t122.5 151q23 37 46.5 89t40 114.5t23.5 135.5q3 33 3 69 q0 40 -4 83q-12 117 -49 199t-81 138.5t-86 88t-67 47.5q-39 25 -72 35q-29 9 -47 9h-3q-16 -1 -16 -9q0 -12 36 -33zM1402 32q13 -32 54 -61q57 -41 107.5 -73.5t87.5 -55.5q43 -27 80 -49q49 -31 111.5 -64.5t136 -63.5t158.5 -54.5t177 -36.5q91 -11 170 -11q34 0 66 2 q106 7 213 48q16 6 28 14q10 6 20.5 11.5t10.5 7.5l-12 -2q-82 -23 -144.5 -34t-122 -11t-124 10t-150.5 31q-86 20 -168 52t-151.5 66.5t-125 67.5t-89.5 55q-29 18 -76 49q-41 25 -103.5 65t-152.5 97q-7 -15 -7 -31q0 -14 6 -29z" />
<glyph unicode="R" horiz-adv-x="1570" d="M106 1458v35q115 -2 213 -2h256q104 0 226.5 -9t227 -46t174 -113t69.5 -209q0 -125 -77 -213t-194 -158q20 -70 62.5 -153.5t98 -169.5t122 -168t138 -147.5t144 -107.5t140.5 -50v-37q-207 6 -353.5 71.5t-250 170t-176 235.5t-131.5 268q-35 -10 -99 -16 q-48 -5 -90 -5q-14 0 -28 1l2 -211v-123t4 -92q4 -43 15 -73t38 -49t72 -31.5t118 -20.5v-35h-716v35q57 8 99 18t69.5 29.5t42 52.5t16.5 88q2 43 2 129v183.5v187.5v139q0 98 1 210v44q0 85 -3 154q-2 55 -17.5 88t-43 52.5t-70.5 29.5t-101 18zM446 872q0 -80 1.5 -242.5 t1.5 -449.5q0 -18 5 -33.5t11 -25.5q8 -12 18 -23q29 -29 71 -41t110 -16l41 2q-23 2 -41.5 9t-40.5 22q-25 16 -41.5 48t-20.5 52q-2 12 -4 53q-2 35 -4 105q-1 35 -1 83.5t1 110.5l2 566v188v35.5v44t2 41t6 24.5q16 20 51 27q12 6 -2 6h-12q-29 -2 -46 -14t-40 -27 q-16 -10 -28.5 -15t-20.5 -12.5t-13.5 -23.5t-5.5 -51v-326v-117zM575 688q88 2 170 28.5t145.5 72t101.5 106.5t38 133q0 104 -37 176t-96 116t-135 64.5t-154 22.5h-10t-10 -4l-4 -4q-6 -6 -6 -13v-313l-3 -301v-84zM924 745q4 -14 32.5 -3.5t53.5 22.5q53 27 102 70 t70 69q14 18 32.5 55t29.5 83t11 98.5t-20 101.5q-23 49 -47.5 80t-50 48t-49 26.5t-39.5 15.5t-39 11t-43 8q-14 0 -21 -5q-4 -4 2 -12t39 -27q53 -31 84 -73.5t47 -83.5q18 -47 23 -96q1 -16 1 -32q0 -86 -28 -148q-33 -74 -75 -119.5t-78.5 -65.5t-36.5 -23zM956 637 q0 -16 10.5 -45t26 -62.5t33.5 -70.5t37 -70q18 -33 55 -80t80 -94t88 -88t78 -61q29 -18 57 -33q25 -14 52.5 -26.5t52.5 -16.5q10 -3 14.5 -3t3.5 3q-2 2 -6 8q-47 31 -90 66.5t-78 70.5t-63.5 66.5t-46.5 56.5q-53 66 -95.5 131.5t-66.5 104.5q-14 23 -33 57 q-16 29 -35.5 73t-42.5 107q-14 -14 -19 -29.5t-10 -29.5q-3 -11 -3 -23q0 -6 1 -12z" />
<glyph unicode="S" horiz-adv-x="1224" d="M145 131l19 297h37q14 -168 109.5 -266.5t260.5 -98.5q61 0 111.5 19.5t87.5 52.5t56.5 78t19.5 96q0 49 -12.5 87t-39 74t-69.5 72t-102 79q-72 51 -146 101t-134 108.5t-98 132t-38 172.5q0 80 32.5 149.5t93 119.5t144.5 79.5t189 29.5q37 0 82 -4t91 -13t89 -24.5 t76 -37.5l12 -269l-41 -8q-14 80 -47 131t-75 82t-91 43t-94 12q-106 0 -179 -57t-73 -162q0 -41 14 -75.5t43 -67.5t69 -65.5t93 -69.5q72 -53 148.5 -104.5t140 -112t104.5 -133t41 -166.5q0 -111 -44 -193t-115.5 -136t-166 -81t-192.5 -27q-111 0 -215.5 42t-190.5 114z M199 287q2 -12 5 -29.5t13 -52.5t54 -69t110 -54l18 -6q23 -8 58 -10q-23 4 -43.5 12t-36.5 18q-20 10 -37 25q-45 33 -64.5 57.5t-23.5 34.5t-14.5 30.5t-20.5 49.5q-10 27 -14 16.5t-4 -22.5zM318 1206v-13q0 -38 8 -74q8 -42 24.5 -80t38.5 -62q25 -29 64 -60.5 t80.5 -61.5t79.5 -55.5t63 -41.5t61.5 -46t76.5 -65t74 -72.5t52 -72.5q29 -58 35 -104q3 -20 3 -42q0 -29 -5 -63q-4 -29 -9.5 -47.5t-11.5 -33.5t-15 -29.5t-22 -32.5q-10 -12 -8 -20q2 -7 6 -7h2q10 2 29 13t51 59q27 39 47 107q14 46 14 100q0 26 -3 55 q-6 45 -17.5 77.5t-28 59.5t-37 50.5t-44.5 47.5q-23 20 -66 54t-90 68t-89 63.5t-60 44.5q-18 14 -48 36.5t-60 48t-55.5 51t-33.5 46.5q-16 41 -20 87q-1 15 -1 29q0 26 5 44q8 27 30.5 68.5t73.5 70.5q53 29 90 32t64 3t58.5 -5.5t43.5 -11.5q6 -2 -3 4.5t-31.5 13.5 t-57.5 14q-27 5 -59 5h-19q-76 -4 -152.5 -43t-109.5 -123q-16 -41 -18 -86zM922 1389q6 -10 15 -17.5t21 -36.5q10 -23 13.5 -51.5t7.5 -32.5q1 -3 4 -3q1 0 2 1q4 2 6 9.5t2 25.5v141q-4 -8 -10 -11t-10 -7q-6 -4 -12 -6q-12 -4 -30 -3q-12 1 -12 -4q0 -2 3 -5z" />
<glyph unicode="T" horiz-adv-x="1378" d="M-37 1212q0 8 8 45q6 31 21.5 94.5t44.5 176.5l33 14q20 -25 51 -36t65 -15q27 -3 53 -3h13q33 1 57 1h838q57 0 97 2t66.5 6t43 13.5t26.5 21.5l37 -8l-53 -344l-37 4q1 12 1 23q0 45 -14 76q-16 38 -46.5 59.5t-71.5 28.5t-84 7l-303 2q-2 -215 -3 -344t-1 -198v-113 l2 -301v-124t4 -91q4 -43 15.5 -73t37 -50t71.5 -32.5t120 -18.5v-35h-719v35q57 8 99 18t69.5 29.5t42 52.5t16.5 88q2 41 3 99.5t1 121t-1 124t-1 110.5v50t1 85t1 107.5v121.5v103q0 47 -1 107.5t-1 127.5l-321 -4q-68 -2 -107 -15t-65 -40q-25 -25 -41.5 -57.5 t-34.5 -61.5zM111 1499q29 -23 67 -33q20 -8 39 -10q23 -2 76 -4q47 -2 132 -4q42 -1 100.5 -1t131.5 1l562 2q23 0 37 1t24 3t20 6q6 2 15 8q6 4 13 9.5t11 13.5q-20 -6 -42.5 -9t-43.5 -5q-23 -2 -49 0h-930h-39t-28 2q-14 0 -25 2q-6 2 -16 4t-23.5 5t-31.5 9zM682 176 q0 -18 5 -33.5t13 -25.5q8 -12 19 -23q29 -27 69.5 -39t108.5 -16l41 2q-41 2 -82 29q-37 27 -47 53.5t-14 46.5q-2 12 -4 53q-3 35 -5 103q-1 38 -1 93q0 44 1 99l2 555q0 80 -4 136.5t-15 93t-31.5 58t-53.5 36.5v-166v-148.5v-216.5t-1 -298t-1 -392zM1274 1430 q-2 -6 20.5 -20.5t40.5 -37.5q6 -12 13 -24q8 -20 18 -60l29 197q2 11 -7 11q-2 0 -6 -1q-8 -2 -14 -8q-23 -23 -41 -32t-30.5 -14t-18.5 -6q-4 -1 -4 -3v-2z" />
<glyph unicode="U" horiz-adv-x="1839" d="M63 1456v33h707v-35q-63 -6 -104 -19.5t-66 -36t-36 -54t-15 -74.5q-4 -35 -4 -84v-115l4 -426q2 -174 39 -298t149 -195q61 -41 128 -55.5t139 -14.5q82 0 157.5 31.5t126.5 85.5q37 39 59.5 88t34 105.5t14.5 122t3 136.5l-6 420q-1 44 -1 81v35v19q0 38 -3 66 q-4 43 -15.5 73.5t-36 53t-65.5 36t-105 19.5v35h611v-33q-59 -8 -101.5 -18.5t-70 -29.5t-42 -52t-16.5 -88q-2 -43 -3 -118t-1 -157t-1 -159.5t-1 -126.5v-56q0 -82 -9 -161.5t-32.5 -152.5t-64.5 -136.5t-103 -112.5q-90 -72 -191.5 -98.5t-211.5 -26.5q-125 0 -248 28.5 t-217 112.5q-70 61 -111 149.5t-49 209.5q-4 39 -5 90t-2 104.5t-1 106.5v94v211t-4 199q-2 55 -16.5 88t-43 52t-70.5 29.5t-100 18.5zM336 1423q-6 -2 -6 -4.5t7 -5.5q13 -6 36 -20q33 -27 41 -65t8 -120v-80q0 -18 1 -67t1 -112.5t1 -133.5t2 -131t1 -106.5t2 -59.5 q2 -20 5 -53t11.5 -71t21.5 -78t36 -74q37 -57 93 -97.5t103 -60.5q53 -23 121 -37q53 -11 114 -11q18 0 36 1q33 0 69 6q31 4 68 15.5t72 29.5q31 16 30 18q2 2 0 5q-8 2 -37.5 -7.5t-60.5 -19.5q-27 -8 -86 -14q-22 -2 -45 -3q-40 0 -84 7q-72 10 -128 36.5t-110 79.5 q-35 33 -56 72t-33.5 79t-18.5 77t-8 65q-2 18 -4 61.5t-4.5 95.5t-3.5 108.5t-2 104.5t-1 83v43v35.5v64.5t1 78t3 76q0 80 14.5 122t57.5 68q31 18 68 26.5t37 12.5q0 2 -9 4q-4 1 -10 1t-14 -1q-16 -2 -51 -8q-47 -10 -91.5 -29.5t-76.5 -23.5q-17 -2 -31 -2q-31 0 -51 9 q-29 13 -39 11zM1419 234q1 -2 3 -2t6 2q6 4 12 11t10 13q14 29 30.5 64.5t26.5 89.5q8 43 13.5 95t8.5 105.5t3 105.5v99v80t1 115.5t1 115v74.5q0 12 1 32.5t3 43t5 44t7 34.5q10 31 28.5 48t27.5 21q8 3 16 9q5 4 5 7q0 2 -1 3q-4 3 -12 3q-4 0 -10 -1q-16 -2 -33 -8 q-16 -6 -32 -16.5t-32 -16.5q-14 -4 -24 -5t-17 -1q-10 2 -19 5t-13 5q-10 4 -12.5 0t14.5 -16q37 -25 37 -185v-48v-103.5v-133v-136v-111.5v-60q0 -18 -1.5 -47.5t-2.5 -61.5t-4 -61.5t-5 -46.5q-10 -59 -19 -94t-20 -57q-3 -7 -3 -10t1 -4z" />
<glyph unicode="V" horiz-adv-x="1773" d="M10 1452v37h688v-35q-25 -6 -50 -10t-46.5 -13.5t-36 -25.5t-15.5 -47q0 -45 44 -150q25 -66 74 -180q41 -100 109.5 -265t174.5 -417h4l2 2q14 39 48 117t77 180.5t93.5 221t99.5 241.5q29 72 50.5 131t27.5 94q6 39 -4.5 61.5t-32 35t-50 15.5t-59.5 7v37h555v-33 q-47 -4 -101 -22.5t-89 -51.5q-25 -25 -52.5 -68.5t-68.5 -133.5l-553 -1200h-41q-82 188 -145.5 335.5t-111.5 259t-83 192.5t-59 136q-55 129 -72 168q-8 18 -28.5 60.5t-45 87.5t-47 82.5t-30.5 48.5q-27 31 -50.5 49t-50 28.5t-56.5 15.5t-69 9zM285 1397 q43 -29 73.5 -50.5t54 -49t44 -65.5t45.5 -99q72 -178 133 -320.5t100 -220.5q33 -61 70 -113q29 -43 64.5 -82t66.5 -45l-361 862l-15 40t-16 48.5t-9.5 49t6.5 45.5q4 10 5 13t-9 5t-24.5 -4t-30 -15.5t-33 -17.5t-31.5 -8q-12 0 -31.5 6t-40 13.5t-38 13.5t-21.5 8 q-9 4 -9 -2q0 -7 7 -12zM893 28.5q0 -12.5 6 -22.5q109 236 192 418t144 317.5t105 229.5t73 155q68 145 82 174q16 35 36.5 63t45.5 44q23 14 46.5 23.5t23.5 15.5q0 1 -7 1h-8q-16 -1 -38.5 -6t-49 -12.5t-47.5 -15.5q-4 -2 -16.5 -7t-24.5 -11t-21.5 -13.5t-7.5 -11.5 q4 -20 0 -45q-4 -23 -12 -54.5t-26 -74.5q-90 -203 -159 -358.5t-120 -272t-87 -197.5t-58 -135q-53 -127 -64 -151q-4 -14 -6 -29q-2 -12 -2 -24.5z" />
<glyph unicode="W" horiz-adv-x="2428" d="M10 1450v37h639v-37q-25 -4 -49.5 -7t-44.5 -11.5t-33.5 -25.5t-13.5 -48q0 -23 10 -59.5t27 -92.5l260 -864q2 0 2 1t2 1l2 2q10 23 34.5 89.5t56.5 154.5t69 186t68.5 188.5t56 159t34.5 97.5q-18 45 -41.5 85t-55.5 69.5t-75 49t-104 25.5v37h688v-35 q-80 -6 -119 -28.5t-49 -56.5q-5 -18 -5 -38q0 -18 4 -38q9 -42 26 -85l319 -864h4q2 0 2 2v2q10 27 31 90.5t46.5 144.5t53 170t51 164.5t40 128t20.5 62.5h2q23 76 38 133t22 92q6 39 -3.5 61.5t-31 35t-51 15.5t-60.5 7v37h535l2 -33q-61 -6 -107.5 -29.5t-81.5 -60.5 t-60.5 -85t-43.5 -101q-55 -145 -123 -332q-59 -160 -139 -380t-178 -491h-48q-41 92 -80.5 188.5t-78.5 188.5t-74 179t-66 165l-139 348q-53 -121 -121 -282q-59 -139 -142 -337t-187 -450h-45q-14 37 -24.5 65t-16.5 46q-8 23 -13 35l-313 948q-18 57 -48 120.5t-70 119 t-92 94.5t-118 47zM250 1391q0 -8 6 -11q49 -33 84 -70.5t57.5 -77.5t35.5 -80t24 -73q53 -184 94 -304t72 -202q27 -66 57 -118q25 -47 56.5 -88t60.5 -52l-271 895q-6 25 -19 67t-13 77q0 18 3 28.5t7 22.5q0 8 -15 8q-20 0 -47.5 -22.5t-60.5 -26.5h-14q-12 2 -30 7 t-34 10t-29.5 9.5t-17.5 4.5q-6 0 -6 -4zM744 34q-1 -6 -1 -12q0 -10 2 -20q80 190 140.5 336.5t106.5 256.5t78 186.5t54 127.5q52 119 62 144q-12 -2 -29 -15q-8 -6 -12 -10q-6 -4 -12 -12q-10 -14 -21 -37q-66 -160 -117 -283t-88 -215t-63.5 -156.5t-42.5 -107.5 q-39 -100 -47 -123q-4 -14 -6 -31q-2 -13 -4 -29zM1100 1391q0 -8 6 -11q49 -33 85 -75.5t61.5 -88t43 -88.5t29.5 -75q68 -170 113 -279.5t84 -195.5q29 -61 61 -115q27 -45 59.5 -85t61.5 -50l-328 882q-6 25 -19.5 67t-13.5 77q0 18 3.5 28.5l7.5 22.5q0 8 -15 8 q-20 0 -47.5 -22.5t-60.5 -26.5h-14q-12 2 -30 7t-34 10t-29.5 9.5t-17.5 4.5q-6 0 -6 -4zM1679 61q-2 -13 -2 -26q0 -19 4 -35q125 346 211 584.5t140 384.5q63 172 102 272q18 49 39.5 81t40 49.5t32 24.5t13.5 9q-51 -8 -86 -37q-18 -14 -33 -31q-4 -8 -10 -16 q-4 -8 -11.5 -21.5t-13.5 -31.5q-78 -215 -137 -379t-103 -287t-74 -208t-50 -142q-47 -133 -55 -160q-4 -14 -7 -31z" />
<glyph unicode="X" horiz-adv-x="1523" d="M18 2v35q63 2 107.5 18.5t78.5 43t62.5 63.5t59.5 80q16 23 59 82q35 51 102.5 145t178.5 254q-113 184 -179.5 291.5t-99.5 165.5q-39 66 -53 88q-29 45 -55.5 78.5t-60.5 55t-76 34t-101 18.5v39h606v-39q-43 -4 -64.5 -17.5t-27.5 -32t0 -42t18 -43.5 q25 -45 60 -105.5t69.5 -121t64.5 -111.5t44 -78q8 12 32.5 48t55.5 83t64.5 99.5t58.5 95.5q51 90 59 123q4 16 4 29q1 33 -25 49q-36 22 -89 26v37h504v-37q-49 -8 -83 -16t-65 -27.5t-64.5 -56.5t-82.5 -105q-27 -35 -70 -94q-37 -51 -95.5 -134t-144.5 -206 q8 -12 35 -56t64 -104.5t80 -130t82.5 -134t72.5 -117t49 -76.5q31 -43 52.5 -72t49 -46.5t69.5 -27.5t110 -16v-35q-86 -2 -136 -2h-79h-45h-395v37q45 6 68.5 26.5t31.5 47t2 56.5t-20 56q-25 45 -60 105.5t-69.5 120t-64.5 109.5t-44 73q-86 -135 -136 -215t-79 -127 q-33 -53 -47 -78q-18 -31 -25.5 -61.5t0.5 -55t33 -41t72 -20.5v-31h-283q-60 0 -120 -1h-40q-40 0 -80 1zM352 125v-6q0 -23 14 -35q16 -14 31 -23q6 -2 15 -2q16 0 22 7q-6 10 -8 20t-4 18t-2 17q0 43 22 82q0 2 27 45q23 35 74 116.5t149 237.5q-18 -4 -37 -20 q-8 -8 -18 -17q-4 -6 -12.5 -13t-31 -40t-67.5 -98.5t-125 -188.5q-16 -27 -26 -45t-15 -30q-6 -14 -8 -25zM357 1388q0 -2 10 -6q31 -14 55 -39l20 -24t24.5 -33.5t31 -47.5t33 -54.5t30.5 -53.5q188 -317 309 -516.5t191 -310.5q82 -131 121 -190q20 -20 47.5 -40 t68.5 -26q8 0 21.5 -1t28 -1h24.5t10 2v4l-4 4l-6 6q-12 4 -22.5 11.5t-18.5 11.5q-8 6 -14 10q-8 6 -27 29q-16 20 -41.5 58t-66.5 106l-332 534q123 174 203 282.5t127 168.5q53 70 82 102q10 12 22 23q10 10 24.5 18.5t34.5 16.5h-9q-36 0 -66 -15q-18 -8 -33 -20 q-20 -14 -57 -59.5t-64 -84.5q-8 -10 -29.5 -41.5t-49 -73.5t-58.5 -89.5t-59.5 -90.5t-52 -76.5t-34.5 -50.5l-47 -67l-2 6q10 20 14.5 35.5t6.5 25.5q2 12 3 33t-3 31l-19 31q-14 23 -42.5 73t-57.5 101q-35 59 -72 127q-25 43 -39 67.5t-21 40t-9 24.5t-2 23q0 10 2 19 q4 20 16 35q-23 0 -43 -10.5t-43 -26.5q-12 -10 -21.5 -16.5t-21.5 -8.5q-10 -2 -33.5 5t-31.5 10t-8 -1z" />
<glyph unicode="Y" horiz-adv-x="1540" d="M10 1454v39h584v-39q-43 -4 -67.5 -17.5t-34 -32t-6.5 -42t16 -43.5q16 -31 42.5 -80t59.5 -106.5t67 -119t64.5 -114.5t54 -94t33.5 -57q6 8 36 66t70 134t79 154t63 127q20 45 35 84q13 33 13 59v10q-3 29 -30.5 48.5t-91.5 25.5v37h533v-37q-49 -8 -86 -14t-71 -24.5 t-67.5 -57.5t-74.5 -111q-27 -45 -74 -127q-41 -70 -106.5 -183.5t-163.5 -283.5l2 -231v-124t4 -91q4 -43 14.5 -73t37 -50t71.5 -32.5t119 -18.5v-35h-717v35q57 8 99 18t69.5 29.5t42 52.5t16.5 88q4 86 4 175v188q-133 236 -210 371t-115 204q-47 82 -62 105 q-27 47 -47 80.5t-46 55t-62.5 34t-96.5 18.5zM319 1380q43 -27 74 -65q14 -20 29.5 -44t34.5 -57q35 -61 78 -138t90 -147.5t95 -123.5t95 -66q-106 184 -165.5 287.5t-88.5 157.5q-35 61 -45 78q-14 23 -30.5 55.5t-12.5 56.5q0 6 2 15q2 6 4 14t10 18q4 8 -2 9 q-23 -2 -39 -14.5t-36 -22.5q-23 -10 -43 -15q-16 -4 -29.5 -2t-20.5 4zM782 168q0 -16 9.5 -46t31.5 -50q12 -10 31.5 -16.5t41.5 -9.5t38 -3t22 2q4 0 7 2q4 4 0 12q-6 4 -13.5 9.5t-13.5 9.5q-8 6 -12 10q-16 16 -23.5 35.5t-13.5 42.5q-2 10 -4 24q-2 12 -3 32t-1 48 l-2 396l120 210t91.5 159.5t68.5 116.5t47 81q45 76 56 94q39 66 92 96q23 12 47 18.5t24 12.5q0 4 -14 4t-37.5 -2t-50.5 -7t-47 -11q-6 -2 -18.5 -6.5t-25.5 -9.5t-22.5 -10t-9.5 -11q2 -18 -4 -43q-4 -23 -15.5 -54.5t-33.5 -72.5q-78 -135 -124 -220t-75 -134 q-43 -78 -69.5 -125t-42.5 -72q-18 -31 -25 -41q-8 -12 -14 -27q-4 -12 -8.5 -28.5t-4.5 -32.5v-383z" />
<glyph unicode="Z" horiz-adv-x="1425" d="M70 18q14 16 116 164q43 63 109.5 160.5t164 242t227.5 341t302 454.5h-508q-76 0 -125 -8t-83.5 -31.5t-60.5 -63.5t-54 -103l-33 10q2 10 10 49q8 35 23.5 103.5t44.5 191.5l33 14q20 -23 49.5 -34t63.5 -15t67 -4h59h846l10 -14l-925 -1364h210q92 0 202 -1t212 -1 q76 0 125 8t84 30.5t60.5 62.5t54.5 105l35 -10q-2 -10 -11 -49q-8 -35 -23.5 -103.5t-43.5 -191.5l-33 -14q-23 23 -52.5 34t-63.5 15t-66.5 4h-59.5h-956zM217 59q29 6 67 11.5t54 7.5l149 2l330 2q51 0 97.5 1t79 3t49 4t12.5 2q-203 0 -333 1t-206 2t-106 2l-31 1 l917 1362q-29 -10 -47 -17t-30 -13q-14 -8 -23 -13q-10 -6 -20 -14q-18 -14 -48 -57q-135 -203 -239.5 -360t-181 -273.5t-131 -197.5t-89.5 -136q-82 -127 -98 -154q-14 -23 -37.5 -52.5t-34.5 -39.5q-20 -20 -46.5 -40.5t-53.5 -33.5zM256 1493q4 -8 11 -13l14 -10 q8 -6 14 -8q6 -4 18 -6q10 -2 25.5 -3t38.5 -1l563 -2q45 0 89 2t82 6t65.5 8.5t37.5 8.5q-209 0 -348 1t-226 1t-131 1t-65.5 1h-29.5h-21q-25 -2 -49 0q-23 2 -46.5 5t-41.5 9zM1173 65q0 -2 11 -4q25 -4 37 -7t26 -13q16 -12 20.5 -24.5t6.5 -16.5q4 -10 10 -14 q4 -4 7 -4q5 0 9 10l43 194q-18 -33 -36 -53q-8 -12 -19 -20q-8 -6 -18 -15q-23 -14 -47 -20q-6 -2 -18.5 -4t-20.5 -4q-11 -2 -11 -5z" />
<glyph unicode="[" horiz-adv-x="692" d="M197 -121v1684h399v-60h-248v-1566h248v-58h-399zM260 -96h268q14 0 19 2l8 4q2 2 6 4t10 10h-247v1538q0 8 -3.5 16.5t-7.5 12.5q-4 6 -8 10q-6 4 -14 10q-14 10 -31 17v-1624z" />
<glyph unicode="\" horiz-adv-x="956" d="M25 1526q-2 6 3 10t9 6l69 37q8 2 19 -14q2 -6 28.5 -61.5t70.5 -143.5t100.5 -200.5t117 -233.5t123 -243t117.5 -229.5t99 -192.5t69 -130q14 -25 27 -49q10 -23 23.5 -46.5t25.5 -43.5q4 -6 -2 -10.5t-11 -6.5l-69 -34q-8 -6 -19 12q-2 6 -18 38t-43 85 q-45 88 -141 276q-41 80 -96.5 189.5t-129 253t-166 324.5t-206.5 407zM106 1556q0 -16 1.5 -29.5t3.5 -23.5t6 -18q4 -10 10 -23q4 -10 12 -28.5t23 -42.5l698 -1371l41 -20z" />
<glyph unicode="]" horiz-adv-x="692" d="M125 -63h248v1566h-248v60h399v-1684h-399v58zM139 1552l35 -20h275v-1575q2 -6 5 -11t7 -9t8 -7q2 -4 10 -8q4 -4 13.5 -8t19.5 -10v1648h-373z" />
<glyph unicode="^" horiz-adv-x="1024" d="M53 901l432 615h58l428 -615l-62 -61l-399 483l-399 -489zM109 884q0 -7 4 -12l342 422q18 27 27.5 46.5t13.5 31.5q4 14 4 25q-57 -74 -121 -153t-119 -147.5t-95 -118.5t-48 -65q-4 -8 -6 -16q-2 -6 -2 -13zM518 1479q-2 -14 6 -35q6 -18 18.5 -45t37.5 -64l329 -428 q4 8 5 14.5t4 10.5q2 6 2 10q-49 68 -105 145q-47 66 -110.5 152t-133.5 182q-6 10 -22.5 29t-30.5 29z" />
<glyph unicode="_" horiz-adv-x="1024" d="M0 -172h1024v-102h-1024v102z" />
<glyph unicode="`" horiz-adv-x="1548" d="M340 1858l25 102l104 35l313 -338l-28 -37zM449 1944q-2 -27 16 -50q20 -20 57 -51q31 -27 83 -65.5t134 -91.5l-274 292q-10 -10 -14 -24q-2 -6 -2 -10z" />
<glyph unicode="a" horiz-adv-x="1691" d="M10 0v33q68 12 113 27.5t76.5 41t57.5 67.5t52 107q25 61 88 220q27 68 65 162t90 221t119.5 291.5t151.5 373.5h39q14 -37 51 -124t85.5 -203.5t103.5 -251t109.5 -263.5t100.5 -243.5t77 -190.5q41 -104 111.5 -164.5t180.5 -70.5v-33h-639v33q33 6 60.5 13t45 21.5 t24 35t-6.5 51.5q-10 35 -30 88q-16 47 -44 121.5t-69 185.5h-469q-39 -100 -60.5 -159.5t-33.5 -92.5q-14 -37 -19 -53q-10 -31 -19 -62.5t-9 -50.5q0 -31 14 -49.5t36.5 -28.5t49.5 -14t53 -6v-33h-555zM311 115.5q0 -11.5 4 -21.5t11 -20q16 -25 98 -29q18 0 17 1t-11 7 t-22.5 19.5t-16.5 36.5t2 49t13 41q2 6 13 36.5t25.5 72.5t31 88t30.5 83q4 12 9 25.5t9 36.5q0 6 -2 14q-2 6 -6 16.5t-14 20.5l-185 -451q-6 -14 -6 -25.5zM510 627q106 -2 170.5 -2t99.5 2q41 0 58 2q12 0 24 4q10 2 21.5 5t21.5 7l-61 -2h-279l209 553q4 31 4 50.5v29.5 q0 12 -2 20q-6 -6 -37 -77q-12 -31 -32.5 -79t-48 -119t-64.5 -168t-84 -226zM588 653h401l-190 512q0 4 -3 11.5t-5 7.5q-4 0 -9 -8zM844 1440q0 -23 4 -41q0 -14 6 -37q4 -18 13.5 -47t25.5 -70l393 -1042q12 -33 37 -58.5t49 -44.5q29 -23 64 -39q14 -4 34 -8 q16 -4 38 -5h8q18 0 38 3q-23 10 -41 20.5t-30 20.5q-14 10 -27 23q-14 14 -26 32q-12 16 -25.5 39t-26.5 54l-526 1280q-6 -20 -7 -41t-1 -39z" />
<glyph unicode="b" horiz-adv-x="1386" d="M57 -14v30q76 16 124 38t75 55.5t37 81t10 114.5v547v105.5t-1 113.5t-2 110.5t-3 94.5q-4 49 -18.5 79.5t-43 50t-71.5 30t-101 18.5v35q47 -2 127 -4q45 -1 109 -1h69q110 1 271 5h20q75 -1 155 -13q91 -14 168 -52t126 -106.5t49 -174.5q0 -78 -31.5 -134.5 t-72.5 -95.5t-82 -61.5t-62 -28.5v-10q74 -10 143.5 -36.5t125 -70.5t88 -109t32.5 -151q0 -90 -38.5 -173t-109.5 -145t-173.5 -99t-226.5 -37q-29 0 -67 4t-82 16.5t-89 35t-86 58.5q-57 -68 -148.5 -91t-220.5 -29zM302 1441q-1 -1 0 -1q0 -3 20 -6q47 -4 65.5 -31 t20.5 -55q2 -20 4 -127q0 -45 1 -114t1 -167v-230v-304q0 -45 5 -82t11 -64q8 -33 16 -57q14 -39 40 -74t71 -55q12 -4 27 -11q12 -4 29.5 -8t39.5 -6q-16 2 -29.5 9.5t-23.5 13.5q-12 8 -20 16q-35 35 -41.5 61.5t-10.5 51.5q-2 6 -3 53t-2 113.5t-1 144.5v148.5v125v74.5 q0 29 -1 90.5t-1 128v125v80.5q0 35 1 55.5t5 36.5q8 31 35 45q14 8 33.5 11.5t36.5 3.5q21 0 41 -2q-36 14 -75 14h-10q-44 -2 -114 -33q-12 -4 -28.5 0t-37 10.5t-42 12.5t-43.5 6q-14 0 -20 -3zM537 1346l2 -254q2 -166 3 -332v-111q0 -111 -1 -223q0 -66 1 -122t3 -68 q2 -43 12 -78t34.5 -58.5t67.5 -36t111 -12.5q45 0 96.5 19.5t94.5 61.5t70.5 108.5t27.5 160.5q0 82 -33 149.5t-88 117t-127 77t-149 27.5h-33v41h33q63 0 113 22.5t84 61.5t52.5 93t18.5 118q0 76 -23.5 133t-65.5 97t-97.5 60.5t-116.5 20.5q-53 0 -71.5 -25.5 t-18.5 -47.5zM856 791q100 -25 159.5 -73t92.5 -95q37 -55 51 -121q7 -44 7 -82q0 -32 -5 -62q-10 -64 -30.5 -109.5t-46 -76.5t-42 -48.5t-19.5 -21.5q-1 -1 1 -1q4 0 20 5q68 20 117 64.5t84 112.5q23 43 30 92q5 34 5 67q0 14 -1 28q-3 46 -15.5 86t-28.5 65 q-35 53 -91.5 92t-121.5 61q-31 8 -59 14q-25 4 -54.5 6.5t-52.5 -3.5zM883 1415l6 -6q6 -6 14 -10q33 -23 54.5 -53.5t35.5 -59.5q16 -35 25 -67q12 -56 12 -104q0 -33 -6 -62q-14 -70 -43 -117q-20 -35 -27.5 -43t-1.5 -12q4 -3 10 -3t14 3q16 6 35 18t35.5 26.5 t26.5 26.5q12 14 39 56.5t31 126.5v18q1 33 -5 59q-8 32 -18 56t-22.5 40.5t-20.5 26.5q-18 23 -50 48.5t-54 35.5q-23 9 -47 15q-14 3 -25 4q-9 0 -16 -2q-8 -3 -8 -8q0 -7 6 -13z" />
<glyph unicode="c" horiz-adv-x="1601" d="M119 750q0 186 72.5 329.5t193.5 240.5t277.5 147.5t326.5 50.5q135 0 224.5 -19.5t134.5 -23.5q36 -3 63 -3h13q32 1 61 13l28 -12l-26 -367h-39q-16 92 -55 153.5t-99.5 98.5t-141.5 52t-177 15q-133 0 -238.5 -48t-179.5 -132t-112.5 -198.5t-38.5 -247.5 q0 -180 57 -316.5t147 -228.5t204 -138t228 -46q115 0 197 22.5t145 85.5q41 41 65 90t40 92l37 -16l-99 -313q-49 -23 -113.5 -35t-125 -18.5t-105.5 -8.5t-57 -2q-182 0 -347 48t-289 145.5t-197.5 245t-73.5 344.5zM254 784v-20q0 -72 12 -142q14 -78 39 -146 t55.5 -122.5t63.5 -89.5q31 -35 75 -67.5t92 -58t98 -44t97 -24.5q35 -4 52.5 -3t22.5 4t3 7t-6 6q-25 6 -43 12t-35.5 14.5t-38 19.5t-51.5 30q-43 25 -76.5 57.5t-59.5 65t-44 61.5t-31 47q-12 18 -30.5 58t-34 97.5t-26.5 127.5q-8 51 -8 105q0 20 1 40q6 152 46 252 t105 186q29 33 66 64q33 27 82 54.5t115 47.5q61 12 86 19q14 4 22 6q4 2 -6 3t-28.5 1t-44 -2t-52.5 -8t-64.5 -18.5t-82.5 -34t-91.5 -52t-87.5 -71.5q-29 -29 -61.5 -76t-61 -108.5t-48 -137.5t-21.5 -160zM1249 51q0 -4 9.5 -1t27 6t39 5t43.5 -2l16 -4q14 -4 25 -10 q33 90 49.5 139t22.5 72q8 27 6 31q-4 0 -14.5 -17.5t-24.5 -44t-30.5 -54.5t-31.5 -46q-20 -25 -34.5 -34t-34.5 -17t-43 -11.5t-25 -11.5zM1386 1378q6 -14 18.5 -42.5t25.5 -55.5q6 -12 11 -30.5t8 -35t6 -27.5t7 -11q2 0 4 2q6 6 7 14l16 270l-12 -15t-9 -9q-4 -4 -8 -6 q-6 -8 -20.5 -15.5t-30.5 -11.5q-13 -4 -21 -8q-4 -2 -5 -8q0 -4 3 -11z" />
<glyph unicode="d" horiz-adv-x="1873" d="M125 1452v37h352q70 0 157 1t179 1q96 0 199.5 -9t203 -37t190.5 -76t165 -126q78 -82 132 -201.5t54 -283.5q0 -188 -69.5 -332.5t-189.5 -244t-278.5 -150.5t-334.5 -51q-98 0 -209 10t-201 10l-346 -2v35q57 8 99 18t70 29.5t42 52.5t16 88q2 27 2 76t1 109.5t1 126 t-1 127t-1 113.5v85v211t-4 197q-2 49 -16 81.5t-42 53t-71 32t-100 19.5zM336 1448q0 -6 20 -16q18 -10 30.5 -17.5t23.5 -13.5q10 -8 18 -15q20 -23 24.5 -51t4.5 -49v-54v-129t-1 -177.5t-1 -201.5v-201.5t1 -177.5t1 -129t2 -56q6 -35 26.5 -54.5t49.5 -33.5 q76 -33 202 -39q36 -1 68 -1q71 0 121 6q72 9 108 17q12 4 23 8q22 9 24 15q-12 -4 -25.5 -5t-23.5 -3q-12 -2 -24 -2q-30 -4 -92 -12q-18 -2 -40 -3q-54 0 -133 15q-78 16 -120.5 72.5t-42.5 121.5v49v85t-1 102.5t-1 101.5v83v48v54v102.5v126v126t1 101.5t1 53 q4 33 6 55.5t18 39.5q14 16 40 28.5t48 16.5q85 14 148 14q29 0 53 -3q78 -9 113 -13q14 0 -31 12t-144 18q-23 2 -50 2q-20 0 -43 -1q-52 -3 -85 -7q-29 -4 -62.5 -12t-60.5 -21q-29 -12 -55 -8t-45 10q-18 6 -51 16.5t-39 10.5q-4 -2 -4 -4zM600 629q0 -133 1 -231.5 t3 -149.5q10 -57 35 -92t60.5 -54.5t82.5 -26.5t103 -7q156 0 268.5 45t186 128t108.5 202.5t35 269.5q0 162 -61.5 289.5t-165 217t-240.5 136.5t-291 47q-49 0 -83 -13.5t-38 -70.5q-4 -86 -4 -199.5v-253.5v-237zM1302 1352q-1 -2 -1 -3q0 -9 26 -26q31 -20 75 -72.5 t86 -125t72.5 -162t34.5 -185.5q2 -34 2 -65q0 -73 -10 -133q-14 -84 -37.5 -145.5t-50 -103.5t-47.5 -67q-12 -16 -28.5 -31.5t-31 -29t-23.5 -22.5t-9 -11t4 -2q6 0 22 5q26 9 63.5 28.5t78.5 49.5t69 62q29 33 55.5 83t47 113.5t30.5 137.5q8 54 8 111q0 22 -1 45 q-6 117 -38 203t-72 145t-80 95t-62 52q-37 27 -78 42.5t-69 18.5q-7 1 -13 1q-18 -1 -23 -8z" />
<glyph unicode="e" horiz-adv-x="1345" d="M125 1454v35h809q109 0 152.5 7t62.5 36l27 -10l-23 -326h-37q-4 41 -12 68.5t-19 44.5q-10 20 -24 30q-35 29 -91.5 35t-109.5 6l-258 2v-555h344q33 0 55.5 7.5t38 22.5t26.5 35.5t21 49.5q0 -2 5 -2q4 -2 8 -2t12 -4l-18 -375l-31 2q0 8 -2 26.5t-8 41.5 q-8 31 -31 64.5t-72 33.5h-348v-164v-66.5t1 -77.5t1 -77v-59q0 -105 48 -151q40 -38 140 -38q22 0 46 2q29 2 41 3t20 1t18.5 1t36.5 5q45 6 83 16.5t70 35t60.5 69.5t55.5 119l37 -8l-66 -264q-4 -14 -9 -27.5t-15.5 -24t-28 -16.5t-47.5 -6l-965 -2v35q57 8 99 18 t70 29.5t42 52.5t16 88q2 43 2 129v183.5v186.5v138v211t-4 197q-2 55 -16 87.5t-43 52t-71 30t-99 18.5zM398 1426l-2 -4q0 -4 7 -7q25 -18 39.5 -36.5t14.5 -59.5q0 -25 2 -154q0 -55 1 -139t1 -204t1 -280.5t3 -371.5q4 -47 26.5 -66.5t55.5 -31.5q31 -10 97 -16 q26 -3 53 -3q42 0 87 6q25 2 45 7q16 4 33 9t21 11q-41 -10 -77 -10t-65 4q-33 4 -61 12q-27 10 -48.5 28.5t-31.5 41.5q-8 23 -14 49.5t-6 54.5v70.5t-1 121t-3.5 123t-4.5 74.5q-4 12 -12 27q-8 12 -20.5 25.5t-34.5 29.5l-31 21q0 8 6 14q2 2 6 4t46 3t97.5 3t110 3 t84.5 6q74 8 95.5 17t3.5 9h-60q-38 0 -104 -1h-49q-54 0 -127 1l-4 520q0 16 -14.5 30.5t-29 27t-20.5 19.5t10 11q25 4 72 6.5t101.5 2.5h106.5h85q25 0 61 -1h17q27 0 53 2q35 3 65.5 12.5t44.5 29.5q4 7 -46 -3q-36 -8 -101 -7q-25 0 -53 1q-66 2 -121 2q-42 0 -78 -1 q-84 -3 -178 -5q-23 0 -54.5 -5t-58.5 -13q-18 -4 -28 -10q-10 -4 -14 -10zM1049 784q-2 -2 -2 -6q0 -10 10 -28q14 -26 20 -66q0 -4 1 7t2 28.5t3 37t2 34.5v24q0 10 -2 15.5t-6 0.5q-10 -25 -18 -34q-6 -8 -10 -13zM1075 1432q-1 -1 -1 -2q0 -4 12 -8q14 -6 22 -17 q2 -2 6 -8q8 -12 19 -23q4 -2 8 8q2 4 4 11l4 16t2 18.5t2 26.5l2 27q-6 -10 -13 -15.5t-14 -9.5q-8 -6 -14 -8q-23 -8 -29 -10t-10 -6zM1098 82q-1 0 -1 -1q0 -2 12 -4q15 -3 28 -18q2 -2 4 -6q4 -6 10 -10q0 -3 1 -3h1q2 1 4 5l4 8q4 8 8 17q4 10 15 51l16 72 q-10 -18 -18 -32t-15 -24q-8 -10 -14 -18q-10 -10 -25.5 -21.5t-29.5 -15.5z" />
<glyph unicode="f" horiz-adv-x="1345" d="M125 1456v33h809q109 0 152.5 7t62.5 36l27 -10l-23 -324h-37q-4 41 -12 67.5t-19 43.5q-10 20 -24 32q-35 27 -91.5 34t-109.5 7l-258 2l-2 -557h66h105.5t174.5 2q29 0 56.5 8.5t44.5 26.5q16 20 24 40l16 40q4 0 14.5 -2t10.5 -6q0 -2 -1 -22.5t-3 -47t-4 -55.5 t-4 -49q-4 -51 -4 -105.5t-2 -95.5l-31 2q0 8 -2 25.5t-8 40.5q-8 31 -31 65.5t-72 34.5h-350v-305v-124t4 -91q4 -43 14.5 -73t37 -50t71.5 -32.5t119 -18.5v-35h-717v35q57 8 99 17t70 29.5t42 53.5t16 88q2 41 2 120v166v168v130v110.5v126t-1 123t-3 101.5q-2 55 -16 88 t-43 52t-71 29.5t-99 18.5zM396 1430q-2 -3 -2 -4q0 -4 7 -7q25 -18 39.5 -30.5t14.5 -51.5v-155v-140.5t1 -207t2 -285.5t3 -379q6 -45 29.5 -71.5t52.5 -37.5q46 -16 65 -16h4q17 2 16 15.5t-12.5 32t-17.5 30.5q-10 23 -16.5 70t-6.5 75v70.5t-1 121t-2 123t-3 74.5 q-4 12 -12 25q-8 10 -21.5 24.5t-33.5 30.5l-33 23q2 8 8 14q2 2 6 4t46 3t96.5 2t110 2t83.5 6q74 8 96.5 18t4.5 10q-16 -2 -60 -2h-280l-7 520q0 16 -14 31.5t-28.5 28t-19.5 20.5t11 13q25 4 72 6t101.5 2h106.5h85q25 0 61 -1h17q27 0 53 2q35 3 65.5 12t44.5 30 q4 8 -46 -3q-34 -7 -93 -7q-27 0 -61 2q-61 2 -114 2q-46 0 -85 -1q-84 -4 -178 -6q-23 0 -54.5 -5t-58.5 -13q-18 -4 -28 -10q-10 -4 -14 -10zM1042 786q-3 -3 -3 -8q0 -10 11 -26q15 -25 19 -66v-1l1 9q1 11 2 27t3 35.5t2 34.5v24q0 10 -2 15.5t-6 0.5q-4 -10 -9 -18 t-9 -14q-6 -8 -9 -13zM1067 1423q-2 -4 11.5 -13t19.5 -24l6 -12q4 -6 7 -13t7 -18l4 17q0 8 2 14q0 10 2 21q2 10 2 22.5t5 28.5l6 41q-8 -20 -23 -31q-8 -6 -14 -10q-18 -12 -24.5 -15.5t-10.5 -7.5z" />
<glyph unicode="g" horiz-adv-x="1734" d="M76 739q0 188 72.5 334t196.5 244t288 148.5t346 50.5q135 0 225 -19.5t133 -23.5q31 -3 55 -3q12 0 22 1q30 2 63 8l26 -15l-26 -385l-37 2q-6 27 -12.5 47.5t-10.5 36.5q-6 18 -10 33q-29 70 -76 114t-105.5 68.5t-126 33.5t-136.5 9q-147 0 -260 -45t-189 -128 t-115 -200.5t-39 -261.5q0 -131 42 -261t129 -233.5t218.5 -168t309.5 -64.5q27 0 57.5 3.5t60 7.5t52 8t33.5 8q0 31 1 61.5t1 53.5v51v141q0 76 -7.5 127t-27 83t-58 47.5t-102.5 19.5v33h590l2 -33q-66 -6 -112 -31t-50 -100q-1 -25 -1 -54v-31q1 -48 1 -110v-45v-59.5 t2 -85.5q8 -4 15.5 -18.5t9.5 -31t-4 -32t-23 -23.5q-14 -8 -48 -17t-75 -18.5t-82 -16.5t-67 -11q-51 -8 -114.5 -15.5t-141.5 -7.5q-166 0 -327 46t-287 141.5t-203.5 241t-77.5 345.5zM207 786v-22q0 -72 11 -140q13 -79 38 -147.5t55.5 -123t63.5 -89.5q31 -35 75 -67.5 t92 -58t98 -44t97 -24.5q30 -3 46 -3h7q17 1 23 4t3 7t-7 6q-25 6 -43 12t-35.5 14.5t-38 19.5t-51.5 30q-43 25 -77 57.5t-59.5 65t-44 61.5t-30.5 47t-30.5 58t-34 97.5t-26.5 127.5q-8 50 -8 106q0 20 1 41q6 152 46 251t105 185q33 43 79 75t90 53.5t81 34t51 16.5 q29 8 58.5 13t66.5 11q8 2 -7 2t-43 -1t-63.5 -6t-72.5 -13q-25 -6 -63.5 -18.5t-83 -34t-91.5 -52t-88 -71.5q-29 -29 -61.5 -76t-60 -108.5t-47 -136.5t-21.5 -159zM1300 645q0 -10 23 -20q35 -14 41 -29.5t6 -52.5t1 -91.5t3 -106.5t4 -93t2 -49q2 -25 11.5 -38 t18.5 -20.5t18.5 -8.5t13.5 -1q23 0 31 14.5t8 88.5v67.5t-1 73.5t-1 70.5v58.5q0 72 17 107.5t79 58.5l2 2q0 2 -4 2q-35 0 -58.5 -7t-43 -15.5t-40 -15.5t-47.5 -7q-10 0 -36.5 8t-38.5 8q-8 0 -9 -4zM1378 1382q6 -12 19.5 -26.5t23.5 -36.5q10 -23 15.5 -44.5t9.5 -33.5 q0 -1 0.5 -1t1.5 1l6 14l14 168q-12 -8 -22 -11t-16 -7q-8 -4 -13 -4q-12 -4 -29 -6q-12 -1 -12 -8q0 -2 2 -5z" />
<glyph unicode="h" horiz-adv-x="1992" d="M127 1456v33h700v-33q-127 -12 -172 -56t-49 -130q-2 -35 -3 -84t-1 -115v-235h791v235v116t-4 85q-4 43 -15.5 74.5t-36 54t-65.5 36t-105 19.5v33h703v-33q-59 -8 -101.5 -18.5t-70 -29.5t-42 -52t-16.5 -88q-2 -43 -3 -98.5t-1 -115t1 -117.5t1 -108v-134t1 -176 t2 -173t4 -125q2 -53 16 -86t42 -53.5t70 -29.5t99 -17v-35h-701v35q63 6 104.5 22.5t66 41t36 58t15.5 76.5q4 35 4 77v108v305h-795v-299v-124t4 -91q4 -43 15.5 -73t36 -50t65.5 -32.5t104 -18.5v-35h-696v35q57 8 99 17t70 29.5t42 53.5t16 88q2 27 2 76t1 109.5t1 126 t-1 127t-1 113.5v85v210t-4 198q-2 55 -16 88t-43 52t-71 29.5t-99 18.5zM410 1413q0 -8 20 -20q33 -20 39 -52t6 -61v-117t-1 -205.5t-1 -248.5t-1 -246t-1 -199v-106q0 -45 18.5 -67.5t44 -32t56.5 -9.5h55q10 0 10 4q0 6 -15 18.5t-28 26.5q-20 25 -26 58.5t-6 62.5v94 q0 47 -1 126t-1 204q-6 23 -17 37q-6 8 -10 14q-8 6 -16 15q-8 6 -19.5 14t-28.5 18q0 4 -1 5.5t-1 5.5q0 10 9 14l8 4q8 2 64.5 4t123 3t124.5 1h71q84 0 170 2t178 39h-653v406q0 78 17 129t60 73q16 10 38 14.5t22 10.5l-2 2q-2 0 -5 1t-8 1q-18 0 -44.5 -7t-50 -15.5 t-39.5 -16.5l-17 -8q-18 -6 -37 -6q-29 0 -50.5 9t-33.5 11q-20 0 -20 -10zM1423 1423q-6 -2 -6 -4q-1 -3 7 -6q14 -6 36 -20q35 -27 44 -64t9 -119v-121.5t-1 -200.5t-1 -301v-423q0 -39 16.5 -60.5t42 -33t56.5 -13.5t60 -2q10 0 9 4t-8.5 11.5t-16.5 15.5t-17 18 q-20 25 -26.5 59t-6.5 62q-2 23 -2 137v122v178.5v247t2 323.5q0 80 14.5 122t57.5 68q31 18 67.5 26.5t36.5 12.5q0 2 -8 4q-4 1 -10 1t-14 -1q-16 -2 -52 -8q-47 -10 -91 -29.5t-77 -23.5q-17 -2 -31 -2q-31 0 -51 9q-28 13 -39 11z" />
<glyph unicode="i" horiz-adv-x="956" d="M129 1456v33h702v-33q-59 -8 -101 -18.5t-69.5 -29.5t-42 -52t-16.5 -88q-2 -43 -3 -98.5t-1 -115t1 -117.5t1 -108v-134t1 -176t2 -173t3 -125q2 -53 16.5 -86t42 -53.5t69.5 -29.5t100 -17v-35h-701v35q63 6 104.5 22.5t66 41t35.5 58t15 76.5q4 35 4 77v108l-4 653 q-1 44 -1 81v35v19q0 38 -3 66q-4 43 -15 74.5t-36 54t-65.5 36t-104.5 19.5zM385 1423q-6 -2 -6 -4.5t7 -5.5q13 -6 36 -20q35 -27 44 -64t9 -119v-121.5t-1 -200.5t-1 -301v-423q0 -39 16.5 -60.5t42 -33t56 -13.5t59.5 -2q10 0 9 4t-8 11.5t-16 15.5t-18 18 q-20 25 -26 59t-6 62q-2 23 -2 137v122v178.5v247t2 323.5q0 80 14 122t57 68q31 18 68 26.5t37 12.5q0 2 -8 4q-4 1 -10 1t-14 -1q-16 -2 -52 -8q-47 -10 -91 -29.5t-77 -23.5q-17 -2 -31 -2q-31 0 -51 9q-29 13 -39 11z" />
<glyph unicode="j" horiz-adv-x="876" d="M20 -418q96 45 160 124t103 173t54 197.5t15 199.5l-2 795q-1 44 -1 81v35v19q0 38 -3 66q-4 43 -15.5 74.5t-36 54t-65.5 36t-104 19.5v33h702v-33q-59 -8 -101 -18.5t-69.5 -29.5t-42 -52t-16.5 -88q-2 -43 -2 -102.5t1 -146.5t2 -205t1 -273v-303q0 -131 -44 -243 t-121 -199t-181 -148.5t-225 -93.5zM276 -295q111 68 172.5 151t91 160.5t36 138t6.5 78.5v319.5t-1 235t-2 167t-1 117.5v87v74q0 80 14 122t57 68q31 18 68 26.5t37 12.5q0 2 -9 4q-4 1 -10 1t-14 -1q-16 -2 -51 -8q-47 -10 -91 -29.5t-77 -23.5q-17 -2 -31 -2 q-31 0 -51 9q-29 13 -39 11q-12 -4 1 -10t36 -20q35 -27 44 -64t9 -119v-1048q0 -111 -34 -198t-71.5 -146.5t-67.5 -89.5q-24 -23 -24 -24z" />
<glyph unicode="k" d="M104 1456v35h701v-35q-63 -6 -104.5 -17.5t-66 -33t-36.5 -54t-14 -81.5q-2 -35 -3 -83t-1 -116l-2 -348l2 -301v-123t4 -92q4 -43 14 -73t37 -49t72 -31.5t118 -20.5v-33h-716v33q57 8 99 18t69.5 29.5t42 52.5t16.5 88q0 29 1 78t1 109.5v126v127v113.5v85v210t-4 198 q-2 55 -16.5 88t-43 52t-70.5 29.5t-100 18.5zM360 1434q-6 -2 -6 -4t8 -6q14 -6 35 -21q35 -27 44.5 -63.5t9.5 -118.5v-122t-1 -201t-1 -301v-423q0 -39 16 -60.5t41.5 -32.5t56.5 -13t60 -2q10 0 9 4t-8.5 11t-16.5 15t-17 19q-20 25 -26.5 58.5t-6.5 62.5q-2 23 -2 137 v121.5v178v247t2 323.5q0 80 14.5 122t57.5 69q31 18 67.5 26.5t36.5 12.5q0 2 -8 4t-24.5 0t-51.5 -9q-47 -10 -91 -29.5t-77 -23.5q-16 -2 -30 -2q-31 -1 -51 9q-28 14 -40 12zM629 797q16 18 52 55t81 83t94 97t94 96.5t80 81t51 52.5q14 14 41 42.5t44.5 58.5t12.5 55.5 t-53 31.5v39h504v-39q-10 0 -28.5 -1t-39 -4t-41 -7t-34.5 -11q-47 -16 -98.5 -50t-116.5 -97q-16 -14 -49 -46t-74 -71t-86 -83t-86 -84t-75 -72.5t-50 -51.5q53 -70 132 -174t174 -223t201.5 -240.5t218.5 -225t222.5 -180.5t212.5 -103q43 -12 121 -20q33 -3 67 -3l89 6 q63 8 116.5 23.5t116.5 44.5l17 -27q-35 -31 -84.5 -54.5t-94.5 -39.5q-61 -23 -136 -39q-75 -17 -155 -21q-26 -1 -51 -1q-55 1 -113 7q-85 10 -169 38q-158 55 -308.5 176t-291 279.5t-268.5 340.5t-240 361zM772 868l62 19q182 174 289.5 274.5t162.5 151.5q66 59 84 76 q14 12 35 22q16 10 38.5 19.5t47.5 17.5q-33 0 -58.5 -5t-46.5 -11q-23 -8 -40 -15q-29 -16 -101 -82q-61 -55 -174 -164.5t-299 -302.5zM834 844q0 -27 3 -50.5t7 -41.5q4 -23 8 -39q12 -29 39 -72t60.5 -92t72.5 -100.5t74 -97.5t64.5 -82t45.5 -54q33 -37 91.5 -96.5 t123 -120.5t128 -115.5t108.5 -81.5q119 -74 207 -106.5t170 -42.5q16 -2 34 -2q26 0 55 4q48 6 88 14q41 8 63 16q17 6 16 6q0 1 -2 1q-23 -2 -52.5 -5t-65.5 -3t-78 5t-91 19q-63 18 -122.5 47t-109 58.5t-82 55.5t-44.5 36q-123 111 -230.5 223.5t-205 229t-189.5 237.5 t-186 250z" />
<glyph unicode="l" horiz-adv-x="1366" d="M127 0v35q55 8 98 18t72 29.5t44 52.5t17 88q2 43 3 129t1 183.5t-1 186.5t-1 138v103.5v108.5t-1 104.5t-3 93.5q-2 55 -12 89t-31.5 53.5t-56.5 29.5t-86 18v33h633v-35q-102 -10 -147.5 -49t-51.5 -137q-2 -35 -3 -83t-1 -116l-2 -391q0 -27 1 -74t1 -103t1 -113.5 t1 -104.5q0 -43 8 -80t31 -63q23 -28 63 -42q31 -11 75 -11q12 0 26 1q63 4 92 5t45 2t31.5 2t54.5 5q53 4 90 14.5t65.5 37t52.5 71.5t50 121l37 -8l-55 -266q-6 -31 -23.5 -53.5t-77.5 -22.5h-1040zM410 1413q0 -8 20 -20q33 -20 39 -52t6 -61v-274q-2 -201 -4 -367 q0 -72 -1 -141.5t-1 -128t1 -100.5t3 -56q4 -55 25.5 -87t58.5 -48.5t88 -21.5t115 -5q16 0 37.5 1t39 4t27.5 7.5t4 10.5q-35 -1 -64 -1h-28q-39 1 -66.5 6t-47 17.5t-35.5 30.5q-10 10 -17.5 22.5t-13.5 33t-10 50t-4 76.5q0 18 -1 53t-1 76t-1 82t-1 72l2 631 q0 78 17 134t60 79q16 10 38 14t22 10l-2 2q-2 0 -5 1t-8 1q-18 0 -44.5 -8t-50 -18.5t-39.5 -19.5l-17 -9q-18 -6 -37 -6q-29 0 -50.5 9t-33.5 11q-20 0 -20 -10zM1107 66h31.5t38 1t31.5 3q33 4 38 19t9 28q10 43 15.5 68.5t9.5 41.5q4 17 4 25h-1q-7 0 -13 -18 q-6 -20 -23 -50q-20 -41 -48 -72.5t-75 -31.5q-30 -4 -30 -11q0 -3 13 -3z" />
<glyph unicode="m" horiz-adv-x="2084" d="M14 0v33q53 8 92 24.5t67 47t45.5 78.5t27.5 120l139 928l-41 86q-37 76 -95.5 103.5t-133.5 37.5v33h413q10 -25 40 -88.5t69 -145t83 -174t85 -177.5t72.5 -152.5t46.5 -100.5q8 -18 24 -55q14 -31 38 -83t65 -136q63 125 103 204t63 122q27 51 38 73l66 131 q39 76 106.5 216.5t176.5 365.5h360v-33q-59 -6 -100 -16t-68 -31q-33 -25 -46 -77q-9 -36 -9 -72q0 -17 2 -33q12 -98 26.5 -211t27.5 -218.5t24.5 -194.5t17.5 -138q8 -82 14.5 -132t10.5 -79q4 -35 6 -49q4 -43 16 -73t39 -49t73 -31.5t120 -18.5v-35h-719v33q57 8 99 18 t67.5 29.5t39 52.5t15.5 88v15q0 31 -5 92q-7 78 -17.5 172t-21.5 187t-17 153q-2 27 -6.5 61.5t-8.5 68.5t-7 60.5t-3 38.5l-8 2q-53 -111 -87 -184.5t-57 -116.5l-39 -78l-346 -694h-34q-10 23 -22.5 50.5t-22.5 51.5q-12 29 -27 58q-127 285 -207 459t-125 270 q-53 113 -76 162h-6q-16 -129 -28.5 -235.5t-22.5 -184.5q-10 -92 -18 -168q-10 -74 -16.5 -146.5t-8.5 -107.5q0 -37 3 -65.5t21.5 -50t59.5 -36t115 -20.5v-35h-568zM295 186q-2 -15 -2 -28q-1 -46 21 -70q28 -32 75 -35q14 -2 37 -2t12 4q-39 10 -58.5 43t-17.5 58 q-2 12 0 32q0 16 3.5 44t7.5 67l90 750q-6 0 -15.5 -26t-19.5 -67t-20.5 -90t-18.5 -94t-15 -83t-9 -54q-8 -47 -20.5 -123t-22.5 -147q-13 -85 -27 -179zM328 1425q0 -4 19.5 -12t41.5 -22q8 -6 18.5 -14.5t22.5 -26t28.5 -46t39.5 -77.5l274 -535q45 -88 90 -155 q39 -59 85 -110.5t87 -55.5q-61 129 -119.5 248.5t-116 237.5t-116.5 235.5t-125 244.5q-10 20 -16 42t-11.5 39.5t-11.5 28.5t-12 11q-12 0 -21.5 -7t-19.5 -16.5t-22.5 -16.5t-26.5 -7q-35 0 -52.5 9.5t-27.5 9.5q-2 0 -3 -1.5t-3 -1.5h-2q-1 -1 -1 -1.5t1 -0.5zM998 116 q-1 -8 0 -16q0 -27 8 -55l499 1022q-10 -2 -28.5 -27.5t-37 -57.5t-34.5 -62.5t-23 -42.5q-104 -201 -169.5 -323t-104.5 -194.5t-59.5 -109.5t-34.5 -70q-12 -30 -16 -64zM1628 1452q2 -6 15.5 -17.5t27.5 -11.5q20 0 42 10.5t61 22.5q4 2 6 5q1 2 -5 2q-4 0 -10 -1 q-8 0 -24.5 -1t-33.5 -1t-34.5 1t-27.5 1h-4q-12 0 -13 -10zM1649 1166q0 -36 4 -66q8 -63 17 -154.5t19.5 -193t20.5 -202.5t18.5 -184t13.5 -138.5t7 -63.5q6 -47 34.5 -69.5t61.5 -33.5q6 -2 19.5 -4t27 -3t24.5 -1t17 2q4 2 4 4q0 3 -7 9q-13 8 -29 20q-23 16 -36.5 53 t-19.5 99q-4 39 -12 107.5t-22.5 183t-35 282.5t-49.5 408q-2 21 -2 39q0 26 4 49q6 39 17 63q3 6 0 6q-2 0 -8 -4q-33 -27 -51.5 -61.5t-27.5 -72.5t-9 -74z" />
<glyph unicode="n" horiz-adv-x="1935" d="M-702 1581q125 121 281.5 195.5t330.5 74.5q166 0 300 -62.5t251 -163.5t224.5 -231t217.5 -266q59 -74 143 -177t173.5 -212.5t174.5 -214t150 -178.5h2q4 0 4 4v61.5t-1 133.5t-2 164t-1 151q-1 65 -1 137v74v44q0 86 -3 155q-2 55 -17.5 88t-45 51t-73.5 27.5 t-101 17.5v35h596v-35q-63 -6 -105.5 -17.5t-68 -33t-38 -54t-14.5 -81.5q-2 -35 -3 -74t-1 -104l-2 -367q0 -96 -2 -198.5t-3 -194.5t-2 -166t-1 -115q0 -16 -1 -36.5t-1 -39.5v-43l-25 -6q-147 158 -296.5 335t-297 359.5t-294 361.5t-287.5 341q-2 -27 -2 -68v-98 l-2 -432l2 -301v-132.5t4 -101.5q4 -37 16 -63.5t40 -45t74 -28.5t116 -16v-35h-601v35q55 6 95.5 15t67 27.5t42 48.5t19.5 77q2 29 2 84t1 124.5t1 145.5t-1 146.5t-1 129v91.5v111.5v142v142.5t-2 114q-147 147 -285.5 207.5t-296.5 60.5q-55 0 -108.5 -6t-112.5 -23 q-61 -16 -111.5 -39.5t-107.5 -60.5zM-35 1817q10 -6 34 -9.5t62.5 -16.5t93 -44t126.5 -90q86 -72 162.5 -155t148.5 -169q6 -6 49 -61t106.5 -137t138.5 -178.5t144.5 -184.5t124.5 -155.5t80 -92.5q43 -41 82 -71q35 -27 71 -47q31 -17 55 -18q5 0 9 1l-530 672l-199 246 q-129 160 -254 268t-225 166q-66 37 -116 54t-87 22q-22 3 -41 3t-35 -3zM387 137q0 -29 8 -45t20.5 -25.5t26 -13.5t25.5 -6t25 -4q11 -2 25.5 -2t31.5 2q0 4 -17 12q-8 4 -14 6q-8 4 -27.5 16.5t-29.5 31.5q-10 16 -16.5 44.5t-6.5 57.5v975q-18 -16 -28.5 -41 t-15.5 -49.5t-6 -46t-1 -33.5v-879zM1595 170q1 -54 11 -78q14 -34 20 -33q2 1 5 17q3 18 6 44.5t4 56.5t1 48q-1 14 -1 49.5t1 92.5q0 49 1.5 122.5t3.5 178t3 244t5 321.5q0 29 1 48t3 34q2 16 6 26q6 27 23.5 50.5t54.5 42.5q10 5 10 10q0 2 -3 3q-2 0 -5 -1 q-63 -8 -106.5 -56.5t-43.5 -152.5v-1067z" />
<glyph unicode="o" d="M70 741q0 147 54 287.5t158.5 250.5t257 176.5t351.5 66.5q174 0 320.5 -53.5t254 -151.5t168 -237.5t60.5 -311.5t-61.5 -318.5t-172 -254t-261 -168t-329.5 -60.5q-184 0 -331.5 63.5t-252 170t-160.5 247t-56 293.5zM203 709q6 -86 27.5 -165t51 -146.5t65.5 -121 t71 -86.5t80 -62.5t94 -52t100 -36.5t96 -16q14 -1 25 -1q17 0 27 2q18 3 23 7t2 8t-7 4q-53 10 -103 22.5t-110 47.5q-47 27 -77.5 54.5t-53 55t-37 52t-26.5 42.5q-16 23 -36 63t-37.5 94t-31.5 122t-16 145q-1 20 -1 39q1 123 23 222q26 114 86 225q37 68 90.5 109.5 t103.5 66t89 34t47 13.5q5 2 -7 2q-9 0 -27 -1q-42 -3 -93 -19q-25 -8 -60.5 -24.5t-76.5 -43.5t-83 -62.5t-79 -80.5q-25 -33 -52.5 -84.5t-49 -118t-32.5 -144.5q-7 -51 -7 -105q0 -30 2 -60zM354 784q0 -158 41 -291t117 -229t181.5 -150.5t234.5 -54.5q88 0 175 36 t154.5 116t109.5 206t42 306q0 154 -41 283t-114.5 223t-178 147.5t-229.5 53.5q-106 0 -196.5 -42t-156 -124t-102.5 -203t-37 -277zM1290 1356q33 -18 74 -59.5t78 -106t65.5 -151.5t38.5 -199q3 -47 3 -90q0 -59 -6 -111q-11 -90 -31.5 -157.5t-45 -115t-41.5 -73.5 q-23 -37 -53.5 -73t-56 -62.5t-43 -42t-15.5 -15.5q55 27 97.5 52.5t78 55.5t66.5 66.5t64 90.5q23 37 46 90t39 117q17 66 24 140q3 35 3 70q0 41 -4 84q-12 117 -48 200t-77 139.5t-81 89t-64 48.5q-37 25 -72 37.5t-55 13.5h-3q-15 0 -15 -9q0 -10 34 -29z" />
<glyph unicode="p" horiz-adv-x="1386" d="M127 1456v35l397 -2q92 0 172 -3t172 -7q127 -8 192.5 -41t100.5 -62q59 -45 98 -118.5t39 -167.5q0 -115 -50 -210.5t-132 -162t-186 -99.5q-84 -26 -172 -26q-21 0 -43 2v41q74 8 136 35.5t108.5 74t72 108.5t25.5 142q0 84 -25.5 156t-73 125t-115 86t-149.5 43 q-23 4 -42 4t-34 -4q-2 0 -6 -4q-8 -8 -8 -23q-2 -111 -2 -168v-80v-26l-2 -379l2 -301v-124t4 -91q4 -43 14.5 -73t37 -50t71.5 -32.5t119 -18.5v-35h-717v35q57 8 99 18t70 29.5t42 52.5t16 88q2 27 2 76t1 109.5t1 126t-1 127t-1 113.5v85q0 98 1 211v44q0 86 -3 153 q-2 55 -16 88t-43 52t-72 29.5t-100 18.5zM418 1409q2 -6 10 -12t17.5 -16.5t18.5 -29t11 -48.5v-69v-95v-93.5v-58.5v-117q0 -80 1 -242.5t1 -449.5q0 -18 5 -33.5t12 -25.5q8 -12 18 -23q29 -29 71 -41t109 -16l41 2q-23 2 -41 9t-41 22q-25 16 -41 48t-20 52q-2 12 -4 53 q-2 35 -4 105q-1 36 -1 84t1 110l2 563v179v35.5v42t2 37t6 22.5q18 25 86 38q32 6 70 6q42 0 90 -7q8 -2 12 0t-6 4q-23 4 -73 8q-20 2 -41 2q-33 0 -68 -4q-31 -4 -71 -15.5t-63 -21.5q-25 -10 -49 -6t-43 10q-20 6 -18 -8zM952 664q2 -10 14 -10q8 0 19 4q29 10 53 24 q27 14 53.5 35.5t49 43t41 42t28.5 35.5q14 20 33 61t30 93t11 109.5t-20 112.5q-23 55 -47.5 89t-50 53.5t-49 30t-40.5 18.5q-16 6 -38.5 12t-43.5 10q-3 1 -7 1q-8 0 -13 -5q-4 -4 2 -14t39 -31q53 -35 83.5 -83t47.5 -93q18 -53 22 -108q1 -19 1 -36q0 -96 -28 -165 q-32 -82 -74 -132t-79 -73z" />
<glyph unicode="q" horiz-adv-x="1869" d="M154 743q0 145 55 284.5t160.5 248t259 175.5t352.5 67q174 0 320.5 -55.5t253 -155t166 -237.5t59.5 -302q0 -115 -33 -215t-85 -183t-118.5 -148.5t-136.5 -110.5q268 -166 400 -240l121 -68q0 -1 -1 0q109 -53 199 -86.5t165.5 -54t139 -28t119.5 -7.5h14 q132 0 226 36q100 38 188 104q10 6 16 11t12 9q4 0 14.5 -8t10.5 -12q-4 -12 -25 -29q-47 -43 -108.5 -86t-142 -78t-180 -56.5t-218.5 -21.5q-98 0 -186 15.5t-175 44t-175 72.5t-183 104q-33 20 -89 56t-117.5 75t-116.5 76.5t-86 60.5q-31 -10 -105.5 -19.5t-154.5 -9.5 q-158 0 -304.5 54.5t-260 155t-182 243.5t-68.5 319zM285 727q4 -88 24.5 -168t50 -148.5t65.5 -123t71 -86.5q35 -35 82 -65t97 -53.5t102 -37.5t100 -16q37 -2 50 0t13 6t-7 8t-13 6q-47 12 -73 21.5t-67 31.5q-47 25 -86 59t-69.5 66.5t-52 61t-31.5 45.5q-12 18 -34 59 t-42.5 99.5t-37.5 129t-19 150.5q-2 32 -2 61q0 120 26 205q33 107 92 201q23 37 60 74q31 31 77 63.5t111 55.5q31 10 51.5 17t32.5 11q14 4 23 6q7 3 -11 3q-8 0 -23 -1q-44 -2 -95 -18q-27 -8 -65 -24.5t-81 -42t-87 -61.5t-81 -81q-27 -33 -55.5 -84t-52 -117.5 t-36.5 -145.5q-9 -54 -9 -112q0 -27 2 -55zM438 797q0 -102 27 -205t76 -194t117.5 -164.5t152.5 -118.5t183 -57q25 -4 52 -4q74 0 152 26q45 14 96.5 58t96.5 122t74.5 189t29.5 256q0 166 -44 299t-121 228t-180 146.5t-220 51.5q-96 0 -185.5 -38t-157 -116t-108.5 -198 t-41 -281zM1362 1343q33 -18 78 -62t88 -108.5t74.5 -146.5t37.5 -178q2 -39 2 -75q0 -67 -7 -124q-11 -88 -31.5 -154.5t-45 -112.5t-40.5 -73q-25 -37 -58 -74.5t-61.5 -67.5t-48 -48.5t-17.5 -18.5q111 57 182.5 126t122.5 151q23 37 46.5 89t40 114.5t23.5 135.5 q3 33 3 69q0 40 -4 83q-12 117 -49 199t-81 138.5t-86 88t-67 47.5q-39 25 -72 35q-29 9 -47 9h-3q-16 -1 -16 -9q0 -12 36 -33zM1389 31q2 -2 6 -8q8 -12 20 -25q92 -59 152.5 -99t97.5 -63q43 -27 68 -41q49 -31 110.5 -64.5t135 -64.5t158.5 -55.5t177 -36.5 q95 -12 177 -12q30 0 59 2q104 6 209 55q27 8 43 16q14 6 19 9q1 1 1 2t-12 -2q-23 -6 -53.5 -12.5t-59.5 -10.5q-33 -6 -67 -10q-52 -10 -106 -10q-23 0 -47 2q-79 6 -208 37q-86 20 -168 52t-151.5 66.5t-125 67.5t-89.5 55q-29 18 -76 49q-41 25 -103.5 65t-152.5 97 q-8 -18 -10 -29.5t-4 -19.5q-1 -4 -1 -7t1 -5z" />
<glyph unicode="r" horiz-adv-x="1400" d="M117 1456v35h471q104 0 225 -9t225.5 -47t174 -114t69.5 -209q0 -125 -77 -214t-191 -157q-8 -4 -14.5 -7t-12.5 -7l8 -14q68 -121 154 -261.5t193.5 -274.5t240.5 -249.5t297 -185.5q41 -16 119 -26q56 -8 112 -8q21 0 43 1q66 4 119.5 15.5t118.5 33.5l14 -28 q-37 -29 -87 -47.5t-97 -32.5q-63 -18 -138 -30q-69 -11 -142 -10h-13q-80 1 -164 16.5t-163 49.5q-145 61 -261 172t-214.5 244t-182.5 278.5t-164 276.5q-45 -10 -92 -14q-24 -2 -48 -2t-50 2l2 -211v-124t4 -91q4 -43 15.5 -73t37 -50.5t71.5 -32.5t120 -18v-35h-719v35 q57 8 99 18t69.5 29.5t42 52.5t16.5 88q2 27 2 76t1 109.5t1 126t-1 127t-1 113.5v85q0 98 1 212v44q0 87 -3 156q-2 55 -16.5 88t-43 52.5t-71.5 28.5t-100 17zM461 860q0 -80 1 -242.5t1 -449.5q0 -18 5 -33.5t11 -25.5q8 -12 19 -23q29 -29 70.5 -41t109.5 -16l41 2 q-25 2 -42.5 9t-39.5 21q-25 16 -41 48t-21 53q-2 12 -4 53q-2 35 -4 105q-1 35 -1 83.5t1 110.5l2 565v189v35.5v44t2 41t7 24.5q18 23 51 25q6 4 4 6t-6 2h-13q-29 -2 -46 -14.5t-40 -26.5q-16 -12 -28.5 -16.5t-20.5 -12.5t-13 -23.5t-5 -49.5v-326v-117zM588 686 q88 2 170 28.5t145.5 70.5t101 105.5t37.5 133.5q0 109 -38.5 182.5t-101 117.5t-140.5 63.5t-158 19.5l-14 -21v-317l-2 -299v-84zM926 745q4 -14 32.5 -4.5t53.5 21.5q27 14 53.5 32.5t49 38t41 38t28.5 30.5q14 18 32.5 55t29.5 83t11 98.5t-20 101.5q-23 49 -47.5 80 t-50 49t-49 27.5t-39.5 15.5t-39 11t-43 8q-14 0 -21 -5q-4 -4 2 -12t39 -27q53 -31 84 -74.5t47 -84.5q18 -47 23 -97q1 -16 1 -32q0 -84 -28 -146q-33 -72 -75 -119t-79 -67zM972 668q1 -22 5 -39q4 -20 8 -37q31 -92 68 -155.5t77 -129.5q25 -37 72 -99.5t104.5 -128 t116 -125.5t103.5 -93q111 -86 195.5 -126t164.5 -57q35 -7 77 -7h11q49 1 90 5q40 5 64 10q16 4 17 5h-3q-43 2 -117.5 3t-166.5 40q-59 25 -112.5 56.5t-94.5 62t-70 55t-41 35.5q-37 31 -82 77t-90 98t-87 106.5t-69 99.5q-23 35 -57 90q-29 47 -74 120.5t-106 182.5 q-3 -22 -3 -40v-9z" />
<glyph unicode="s" horiz-adv-x="1224" d="M145 131l19 297h37q14 -168 109.5 -266.5t260.5 -98.5q61 0 111.5 19.5t87.5 52.5t56.5 78t19.5 96q0 49 -12.5 87t-39 74t-69.5 72t-102 79q-72 51 -146 101t-134 108.5t-98 132t-38 172.5q0 80 32.5 149.5t93 119.5t144.5 79.5t189 29.5q37 0 82 -4t91 -13t89 -24.5 t76 -37.5l12 -269l-41 -8q-14 80 -47 131t-75 82t-91 43t-94 12q-106 0 -179 -57t-73 -162q0 -41 14 -75.5t43 -67.5t69 -65.5t93 -69.5q72 -53 148.5 -104.5t140 -112t104.5 -133t41 -166.5q0 -111 -44 -193t-115.5 -136t-166 -81t-192.5 -27q-111 0 -215.5 42t-190.5 114z M199 287q2 -12 5 -29.5t13 -52.5t54 -69t110 -54l18 -6q23 -8 58 -10q-23 4 -43.5 12t-36.5 18q-20 10 -37 25q-45 33 -64.5 57.5t-23.5 34.5t-14.5 30.5t-20.5 49.5q-10 27 -14 16.5t-4 -22.5zM318 1206v-13q0 -38 8 -74q8 -42 24.5 -80t38.5 -62q25 -29 64 -60.5 t80.5 -61.5t79.5 -55.5t63 -41.5t61.5 -46t76.5 -65t74 -72.5t52 -72.5q29 -58 35 -104q3 -20 3 -42q0 -29 -5 -63q-4 -29 -9.5 -47.5t-11.5 -33.5t-15 -29.5t-22 -32.5q-10 -12 -8 -20q2 -7 6 -7h2q10 2 29 13t51 59q27 39 47 107q14 46 14 100q0 26 -3 55 q-6 45 -17.5 77.5t-28 59.5t-37 50.5t-44.5 47.5q-23 20 -66 54t-90 68t-89 63.5t-60 44.5q-18 14 -48 36.5t-60 48t-55.5 51t-33.5 46.5q-16 41 -20 87q-1 15 -1 29q0 26 5 44q8 27 30.5 68.5t73.5 70.5q53 29 90 32t64 3t58.5 -5.5t43.5 -11.5q6 -2 -3 4.5t-31.5 13.5 t-57.5 14q-27 5 -59 5h-19q-76 -4 -152.5 -43t-109.5 -123q-16 -41 -18 -86zM922 1389q6 -10 15 -17.5t21 -36.5q10 -23 13.5 -51.5t7.5 -32.5q1 -3 4 -3q1 0 2 1q4 2 6 9.5t2 25.5v141q-4 -8 -10 -11t-10 -7q-6 -4 -12 -6q-12 -4 -30 -3q-12 1 -12 -4q0 -2 3 -5z" />
<glyph unicode="t" horiz-adv-x="1378" d="M-37 1212q0 8 8 45q6 31 21.5 94.5t44.5 176.5l33 14q20 -25 51 -36t65 -15q27 -3 53 -3h13q33 1 57 1h838q57 0 97 2t66.5 6t43 13.5t26.5 21.5l37 -8l-53 -344l-37 4q1 12 1 23q0 45 -14 76q-16 38 -46.5 59.5t-71.5 28.5t-84 7l-303 2q-2 -215 -3 -344t-1 -198v-113 l2 -301v-124t4 -91q4 -43 15.5 -73t37 -50t71.5 -32.5t120 -18.5v-35h-719v35q57 8 99 18t69.5 29.5t42 52.5t16.5 88q2 41 3 99.5t1 121t-1 124t-1 110.5v50t1 85t1 107.5v121.5v103q0 47 -1 107.5t-1 127.5l-321 -4q-68 -2 -107 -15t-65 -40q-25 -25 -41.5 -57.5 t-34.5 -61.5zM111 1499q29 -23 67 -33q20 -8 39 -10q23 -2 76 -4q47 -2 132 -4q42 -1 100.5 -1t131.5 1l562 2q23 0 37 1t24 3t20 6q6 2 15 8q6 4 13 9.5t11 13.5q-20 -6 -42.5 -9t-43.5 -5q-23 -2 -49 0h-930h-39t-28 2q-14 0 -25 2q-6 2 -16 4t-23.5 5t-31.5 9zM682 176 q0 -18 5 -33.5t13 -25.5q8 -12 19 -23q29 -27 69.5 -39t108.5 -16l41 2q-41 2 -82 29q-37 27 -47 53.5t-14 46.5q-2 12 -4 53q-3 35 -5 103q-1 38 -1 93q0 44 1 99l2 555q0 80 -4 136.5t-15 93t-31.5 58t-53.5 36.5v-166v-148.5v-216.5t-1 -298t-1 -392zM1274 1430 q-2 -6 20.5 -20.5t40.5 -37.5q6 -12 13 -24q8 -20 18 -60l29 197q2 11 -7 11q-2 0 -6 -1q-8 -2 -14 -8q-23 -23 -41 -32t-30.5 -14t-18.5 -6q-4 -1 -4 -3v-2z" />
<glyph unicode="u" horiz-adv-x="1839" d="M63 1456v33h707v-35q-63 -6 -104 -19.5t-66 -36t-36 -54t-15 -74.5q-4 -35 -4 -84v-115l4 -426q2 -174 39 -298t149 -195q61 -41 128 -55.5t139 -14.5q82 0 157.5 31.5t126.5 85.5q37 39 58.5 88t33 105.5t13.5 122t2 136.5l-2 420q-1 44 -1 81v35v19q0 38 -3 66 q-4 43 -15.5 73.5t-36 53t-65.5 36t-105 19.5v35h611v-33q-59 -8 -101.5 -19.5t-70 -32t-42 -54t-16.5 -88.5q-2 -43 -3 -117t-1 -155t-1 -157.5t-1 -125.5v-56q0 -82 -9 -161.5t-32.5 -152.5t-64.5 -136.5t-103 -112.5q-90 -72 -191.5 -98.5t-211.5 -26.5q-125 0 -248 28.5 t-217 112.5q-70 61 -111 149.5t-49 209.5q-4 39 -5 90t-2 104.5t-1 106.5v94v211t-4 199q-2 55 -16.5 88t-43 52t-70.5 29.5t-100 18.5zM336 1423q-6 -2 -6 -4.5t7 -5.5q13 -6 36 -20q33 -27 41 -65t8 -120v-80q0 -18 1 -67t1 -112.5t1 -133.5t2 -131t1 -106.5t2 -59.5 q2 -20 5 -53t11.5 -71t21.5 -78t36 -74q37 -57 93 -97.5t103 -60.5q53 -23 121 -37q53 -11 114 -11q18 0 36 1q33 0 69 6q31 4 68 15.5t72 29.5q31 16 30 18q2 2 0 5q-8 2 -37.5 -7.5t-60.5 -19.5q-27 -8 -86 -14q-22 -2 -45 -3q-40 0 -84 7q-72 10 -128 36.5t-110 79.5 q-35 33 -56 72t-33.5 79t-18.5 77t-8 65q-2 18 -4 61.5t-4.5 95.5t-3.5 108.5t-2 104.5t-1 83v43v35.5v64.5t1 78t3 76q0 80 14.5 122t57.5 68q31 18 68 26.5t37 12.5q0 2 -9 4q-4 1 -10 1t-14 -1q-16 -2 -51 -8q-47 -10 -91.5 -29.5t-76.5 -23.5q-17 -2 -31 -2q-31 0 -51 9 q-29 13 -39 11zM1419 234q1 -2 3 -2t6 2q6 4 12 11t10 13q14 29 30.5 64.5t26.5 89.5q8 43 13.5 95t8.5 105.5t3 105.5v99v80t1 115.5t1 115v74.5q0 12 1 32.5t3 43t5 44t7 34.5q10 31 28.5 48t27.5 21q8 3 16 9q5 4 5 7q0 2 -1 3q-4 3 -12 3q-4 0 -10 -1q-16 -2 -33 -8 q-16 -6 -32 -16.5t-32 -16.5q-14 -4 -24 -5t-17 -1q-10 2 -19 5t-13 5q-10 4 -12.5 0t14.5 -16q37 -25 37 -185v-48v-103.5v-133v-136v-111.5v-60q0 -18 -1.5 -47.5t-2.5 -61.5t-4 -61.5t-5 -46.5q-10 -59 -19 -94t-20 -57q-3 -7 -3 -10t1 -4z" />
<glyph unicode="v" horiz-adv-x="1773" d="M10 1452v37h688v-35q-25 -6 -50 -10t-46.5 -13.5t-36 -25.5t-15.5 -47q0 -45 44 -150q25 -66 74 -180q41 -100 109.5 -265t174.5 -417h4l2 2q14 39 48 117t77 180.5t93.5 221t99.5 241.5q29 72 50.5 131t27.5 94q6 39 -4.5 61.5t-32 35t-50 15.5t-59.5 7v37h555v-33 q-47 -4 -101 -22.5t-89 -51.5q-25 -25 -52.5 -68.5t-68.5 -133.5l-553 -1200h-41q-82 188 -145.5 335.5t-111.5 259t-83 192.5t-59 136q-55 129 -72 168q-8 18 -28.5 60.5t-45 87.5t-47 82.5t-30.5 48.5q-27 31 -50.5 49t-50 28.5t-56.5 15.5t-69 9zM285 1397 q43 -29 73.5 -50.5t54 -49t44 -65.5t45.5 -99q72 -178 133 -320.5t100 -220.5q33 -61 70 -113q29 -43 64.5 -82t66.5 -45l-361 862l-15 40t-16 48.5t-9.5 49t6.5 45.5q4 10 5 13t-9 5t-24.5 -4t-30 -15.5t-33 -17.5t-31.5 -8q-12 0 -31.5 6t-40 13.5t-38 13.5t-21.5 8 q-9 4 -9 -2q0 -7 7 -12zM893 28.5q0 -12.5 6 -22.5q109 236 192 418t144 317.5t105 229.5t73 155q68 145 82 174q16 35 36.5 63t45.5 44q23 14 46.5 23.5t23.5 15.5q0 1 -7 1h-8q-16 -1 -38.5 -6t-49 -12.5t-47.5 -15.5q-4 -2 -16.5 -7t-24.5 -11t-21.5 -13.5t-7.5 -11.5 q4 -20 0 -45q-4 -23 -12 -54.5t-26 -74.5q-90 -203 -159 -358.5t-120 -272t-87 -197.5t-58 -135q-53 -127 -64 -151q-4 -14 -6 -29q-2 -12 -2 -24.5z" />
<glyph unicode="w" horiz-adv-x="2428" d="M10 1450v37h639v-37q-25 -4 -49.5 -7t-44.5 -11.5t-33.5 -25.5t-13.5 -48q0 -23 10 -59.5t27 -92.5l260 -864q2 0 2 1t2 1l2 2q10 23 34.5 89.5t56.5 154.5t69 186t68.5 188.5t56 159t34.5 97.5q-18 45 -41.5 85t-55.5 69.5t-75 49t-104 25.5v37h688v-35 q-80 -6 -119 -28.5t-49 -56.5q-5 -18 -5 -38q0 -18 4 -38q9 -42 26 -85l319 -864h4q2 0 2 2v2q10 27 31 90.5t46.5 144.5t53 170t51 164.5t40 128t20.5 62.5h2q23 76 38 133t22 92q6 39 -3.5 61.5t-31 35t-51 15.5t-60.5 7v37h535l2 -33q-61 -6 -107.5 -29.5t-81.5 -60.5 t-60.5 -85t-43.5 -101q-55 -145 -123 -332q-59 -160 -139 -380t-178 -491h-48q-41 92 -80.5 188.5t-78.5 188.5t-74 179t-66 165l-139 348q-53 -121 -121 -282q-59 -139 -142 -337t-187 -450h-45q-14 37 -24.5 65t-16.5 46q-8 23 -13 35l-313 948q-18 57 -48 120.5t-70 119 t-92 94.5t-118 47zM250 1391q0 -8 6 -11q49 -33 84 -70.5t57.5 -77.5t35.5 -80t24 -73q53 -184 94 -304t72 -202q27 -66 57 -118q25 -47 56.5 -88t60.5 -52l-271 895q-6 25 -19 67t-13 77q0 18 3 28.5t7 22.5q0 8 -15 8q-20 0 -47.5 -22.5t-60.5 -26.5h-14q-12 2 -30 7 t-34 10t-29.5 9.5t-17.5 4.5q-6 0 -6 -4zM744 34q-1 -6 -1 -12q0 -10 2 -20q80 190 140.5 336.5t106.5 256.5t78 186.5t54 127.5q52 119 62 144q-12 -2 -29 -15q-8 -6 -12 -10q-6 -4 -12 -12q-10 -14 -21 -37q-66 -160 -117 -283t-88 -215t-63.5 -156.5t-42.5 -107.5 q-39 -100 -47 -123q-4 -14 -6 -31q-2 -13 -4 -29zM1100 1391q0 -8 6 -11q49 -33 85 -75.5t61.5 -88t43 -88.5t29.5 -75q68 -170 113 -279.5t84 -195.5q29 -61 61 -115q27 -45 59.5 -85t61.5 -50l-328 882q-6 25 -19.5 67t-13.5 77q0 18 3.5 28.5l7.5 22.5q0 8 -15 8 q-20 0 -47.5 -22.5t-60.5 -26.5h-14q-12 2 -30 7t-34 10t-29.5 9.5t-17.5 4.5q-6 0 -6 -4zM1679 61q-2 -13 -2 -26q0 -19 4 -35q125 346 211 584.5t140 384.5q63 172 102 272q18 49 39.5 81t40 49.5t32 24.5t13.5 9q-51 -8 -86 -37q-18 -14 -33 -31q-4 -8 -10 -16 q-4 -8 -11.5 -21.5t-13.5 -31.5q-78 -215 -137 -379t-103 -287t-74 -208t-50 -142q-47 -133 -55 -160q-4 -14 -7 -31z" />
<glyph unicode="x" horiz-adv-x="1480" d="M18 2v35q63 2 107.5 18.5t78.5 43t62.5 63.5t59.5 80q16 23 59 82q35 51 102.5 145t178.5 254q-113 184 -179.5 291.5t-99.5 165.5q-39 66 -53 88q-29 45 -55.5 78.5t-60.5 55t-76 34t-101 18.5v39h606v-39q-43 -4 -64.5 -17.5t-27.5 -32t0 -42t18 -43.5 q25 -45 60 -105.5t69.5 -121t64.5 -111.5t44 -78q8 12 32.5 48t55.5 83t64.5 99.5t58.5 95.5q51 90 59 123q4 16 4 29q1 33 -25 49q-36 22 -89 26v37h504v-37q-49 -8 -83 -16t-65 -27.5t-64.5 -56.5t-82.5 -105q-27 -35 -70 -94q-37 -51 -95.5 -134t-144.5 -206 q8 -12 35 -56t64 -104.5t80 -130t82.5 -134t72.5 -117t49 -76.5q31 -43 52.5 -72t49 -46.5t69.5 -27.5t110 -16v-35q-86 -2 -136 -2h-79h-45h-395v37q45 6 68.5 26.5t31.5 47t2 56.5t-20 56q-25 45 -60 105.5t-69.5 120t-64.5 109.5t-44 73q-86 -135 -136 -215t-79 -127 q-33 -53 -47 -78q-18 -31 -25.5 -61.5t0.5 -55t33 -41t72 -20.5v-31h-283q-60 0 -120 -1h-40q-40 0 -80 1zM352 125v-6q0 -23 14 -35q16 -14 31 -23q6 -2 15 -2q16 0 22 7q-6 10 -8 20t-4 18t-2 17q0 43 22 82q0 2 27 45q23 35 74 116.5t149 237.5q-18 -4 -37 -20 q-8 -8 -18 -17q-4 -6 -12.5 -13t-31 -40t-67.5 -98.5t-125 -188.5q-16 -27 -26 -45t-15 -30q-6 -14 -8 -25zM357 1388q0 -2 10 -6q31 -14 55 -39l20 -24t24.5 -33.5t31 -47.5t33 -54.5t30.5 -53.5q188 -317 309 -516.5t191 -310.5q82 -131 121 -190q20 -20 47.5 -40 t68.5 -26q8 0 21.5 -1t28 -1h24.5t10 2v4l-4 4l-6 6q-12 4 -22.5 11.5t-18.5 11.5q-8 6 -14 10q-8 6 -27 29q-16 20 -41.5 58t-66.5 106l-332 534q123 174 203 282.5t127 168.5q53 70 82 102q10 12 22 23q10 10 24.5 18.5t34.5 16.5h-9q-36 0 -66 -15q-18 -8 -33 -20 q-20 -14 -57 -59.5t-64 -84.5q-8 -10 -29.5 -41.5t-49 -73.5t-58.5 -89.5t-59.5 -90.5t-52 -76.5t-34.5 -50.5l-47 -67l-2 6q10 20 14.5 35.5t6.5 25.5q2 12 3 33t-3 31l-19 31q-14 23 -42.5 73t-57.5 101q-35 59 -72 127q-25 43 -39 67.5t-21 40t-9 24.5t-2 23q0 10 2 19 q4 20 16 35q-23 0 -43 -10.5t-43 -26.5q-12 -10 -21.5 -16.5t-21.5 -8.5q-10 -2 -33.5 5t-31.5 10t-8 -1z" />
<glyph unicode="y" horiz-adv-x="1708" d="M10 1481v26q79 11 150 11q104 0 192 -23q148 -39 256.5 -128t181 -219t113.5 -284q31 115 89.5 238t151.5 220t229 152q99 41 225 41q48 0 100 -6v-26q-29 3 -57 3q-97 0 -179 -33q-106 -42 -185 -121t-135.5 -186.5t-92 -227t-52 -241.5t-16.5 -228v-46q0 -68 -1 -113 v-18q0 -35 3 -63q4 -43 14.5 -73t37 -49t71.5 -31.5t119 -20.5v-35h-717v35q57 8 99 18t70 29.5t42 52.5t16 88q2 41 3 55.5t1 25.5t-1 28.5t-1 66.5v62q0 90 -17.5 201.5t-55 227.5t-95 224.5t-138.5 191.5t-185 132q-94 44 -208 44q-14 0 -28 -1zM315 1493q47 -23 81 -43 t57 -37q27 -18 47 -35q27 -23 45 -40t33.5 -33.5t30 -34t30.5 -37.5q27 -35 45 -63.5t34.5 -56.5t31 -55.5t32.5 -60.5q10 -18 27 -41q14 -18 33.5 -42.5t48.5 -51.5q2 -4 -3 14.5t-14 41.5l-20 61q-57 184 -217 344q-39 37 -90 72q-43 29 -101.5 56.5t-130.5 41.5zM903 236 q0 -23 4 -48.5t12.5 -50t20.5 -43t31 -24.5q14 -4 30 -9q14 -4 31 -6q8 -1 16.5 -1t16.5 1q-25 8 -37 19q-8 6 -14 10q-29 27 -39 86q-2 14 -3 35.5t-1 44v42v32.5v40.5v61.5t1 60.5t1 39.5q2 23 8 86.5t16 132.5q10 68 37 161t66 177q14 31 28.5 58.5t31 54.5t35.5 54.5 t46 60.5q20 25 51 49q27 23 65 49t91 51q-59 -18 -109.5 -51t-89.5 -66q-45 -37 -84 -79q-63 -74 -106 -161t-72 -179q-33 -100 -54.5 -212t-25.5 -208q-4 -80 -4 -154v-114z" />
<glyph unicode="z" horiz-adv-x="1425" d="M70 18q14 16 116 164q43 63 109.5 160.5t164 242t227.5 341t302 454.5h-508q-76 0 -125 -8t-83.5 -31.5t-60.5 -63.5t-54 -103l-33 10q2 10 10 49q8 35 23.5 103.5t44.5 191.5l33 14q20 -23 49.5 -34t63.5 -15t67 -4h59h846l10 -14l-925 -1364h210q92 0 202 -1t212 -1 q76 0 125 8t84 30.5t60.5 62.5t54.5 105l35 -10q-2 -10 -11 -49q-8 -35 -23.5 -103.5t-43.5 -191.5l-33 -14q-23 23 -52.5 34t-63.5 15t-66.5 4h-59.5h-956zM217 59q29 6 67 11.5t54 7.5l149 2l330 2q51 0 97.5 1t79 3t49 4t12.5 2q-203 0 -333 1t-206 2t-106 2l-31 1 l917 1362q-29 -10 -47 -17t-30 -13q-14 -8 -23 -13q-10 -6 -20 -14q-18 -14 -48 -57q-135 -203 -239.5 -360t-181 -273.5t-131 -197.5t-89.5 -136q-82 -127 -98 -154q-14 -23 -37.5 -52.5t-34.5 -39.5q-20 -20 -46.5 -40.5t-53.5 -33.5zM256 1493q4 -8 11 -13l14 -10 q8 -6 14 -8q6 -4 18 -6q10 -2 25.5 -3t38.5 -1l563 -2q45 0 89 2t82 6t65.5 8.5t37.5 8.5q-209 0 -348 1t-226 1t-131 1t-65.5 1h-29.5h-21q-25 -2 -49 0q-23 2 -46.5 5t-41.5 9zM1173 65q0 -2 11 -4q25 -4 37 -7t26 -13q16 -12 20.5 -24.5t6.5 -16.5q4 -10 10 -14 q4 -4 7 -4q5 0 9 10l43 194q-18 -33 -36 -53q-8 -12 -19 -20q-8 -6 -18 -15q-23 -14 -47 -20q-6 -2 -18.5 -4t-20.5 -4q-11 -2 -11 -5z" />
<glyph unicode="{" horiz-adv-x="741" d="M92 729v47q137 16 183.5 94t35.5 201q0 10 -2 40t-4 60.5t-3 56t-1 29.5q0 156 84 240q41 39 103.5 62.5t150.5 27.5l2 -41q-66 -14 -113 -47t-63 -82q-14 -43 -13 -96t6 -107.5t9 -106.5t-4 -95t-25.5 -84t-44 -76t-62.5 -60.5t-79 -37.5q2 0 2 -2q57 -16 96 -47 t63.5 -71t37 -88t16.5 -102q8 -76 -3 -158.5t-11 -158.5q0 -59 9 -100t36 -66q25 -25 59.5 -39t87.5 -20v-39q-72 10 -139.5 25.5t-122.5 68.5q-82 82 -82 238q0 6 3 52t7 100t7.5 101.5t3.5 55.5q0 117 -60.5 166t-169.5 59zM307 817q0 -10 23 2q8 6 22 15q35 25 63.5 82 t33.5 124q2 66 -4.5 132.5t-8.5 97.5q-4 31 -3 60.5t11 70.5q2 16 11 33q6 14 17 31.5t30 33.5q-25 -8 -42.5 -19.5t-27.5 -21.5q-12 -12 -20 -26q-23 -39 -29 -81t-6 -83q0 -18 2 -54t5 -74t6 -72t3 -48q0 -31 -9 -75t-28 -73l-16 -20q-8 -10 -15.5 -18.5t-17.5 -16.5z M381 616q12 -35 16 -79q2 -23 4 -48q4 -96 -4 -165.5t-8 -116.5q0 -43 4 -87t21 -81q14 -33 34.5 -52.5t26.5 -17.5q4 0 -14.5 22.5t-26.5 88.5t0 125t12 106q8 109 0 176q-4 25 -10 46.5t-10 27.5q-6 14 -14 27q-6 10 -14.5 18t-16.5 10z" />
<glyph unicode="|" horiz-adv-x="907" d="M387 -152v1766q0 10 10 10l84 -2q10 4 11 -10v-1772q0 -4 -11 -8q-4 -2 -8 -2h-78q-8 0 -8 18zM432 -119l37 -28v1751l-35 -21z" />
<glyph unicode="}" horiz-adv-x="741" d="M111 -98q53 4 86.5 19.5t60.5 37.5q27 25 36 66t9 100q0 76 -11 159t-3 160q4 53 16 101.5t37 88.5t62.5 69.5t97.5 48.5v2q-86 23 -139.5 96.5t-69.5 159.5q-8 43 -4 96t9 107.5t6 106.5t-13 97q-16 47 -64.5 81t-111.5 46v43q172 -12 256 -92q41 -41 62.5 -102.5 t21.5 -135.5q0 -4 -1 -29.5t-3 -57t-4.5 -60.5t-2.5 -41q-10 -121 36 -199.5t184 -95.5v-45q-111 -10 -170.5 -60.5t-59.5 -166.5q0 -8 3 -54.5t7.5 -100.5t7.5 -100t3 -54q0 -152 -84 -236q-55 -55 -122 -70.5t-138 -23.5v39zM317 1503q35 -41 48 -71q8 -18 10 -33 q8 -41 9 -70t-3 -59q0 -16 -3 -43t-6 -59.5t-4 -69.5t1 -70q4 -66 35.5 -122t62.5 -75q12 -8 22 -12q23 -12 23 -2q-20 14 -35 35q-8 10 -14 20q-23 25 -31 71t-8 77q0 14 2 48t5 71t6 72.5t3 54.5q0 41 -8 79.5t-31 86.5q-18 35 -35.5 50t-29.5 23q-6 2 -10 4q-8 4 -9 -6z M342 -29q6 -2 28.5 16.5t39.5 49.5q18 33 24 71.5t6 79.5q0 27 -2 66t-6 86q-4 53 -7 87t-3 48v14q0 6 -1 14.5t1 14.5q0 12 -6 6q-4 -4 -6 -10q-10 -14 -21 -61q-4 -23 -4 -57t2 -64q2 -16 4 -46t2 -65t-1 -71.5t-7 -67.5q-10 -59 -28.5 -84t-14.5 -27z" />
<glyph unicode="~" horiz-adv-x="1439" d="M248 639q8 31 28.5 67.5t61.5 68.5t103.5 54.5t154.5 22.5q45 0 98.5 -12.5t104.5 -26.5t94 -26.5t70 -12.5q47 0 94 17.5t63 66.5h90q-8 -66 -45 -106.5t-86 -64t-100 -33t-88 -9.5q-84 0 -137.5 12.5t-95.5 27.5t-85 27.5t-104 12.5q-59 0 -88 -25.5t-39 -60.5h-94z M365 780l8 -4q49 18 92 28.5t85 11.5t86 -8t97 -28q55 -20 93 -29.5t68 -9.5t54.5 7.5t55.5 19.5l-29 -2q-18 0 -28.5 -2t-28 0t-53.5 12t-105 33q-96 31 -197.5 31t-197.5 -60zM1042 694h17q12 0 28 6q20 4 47 29t37 43q2 8 9 16q10 19 22 48q-10 -6 -16 -12.5t-10 -10.5 q-6 -6 -9 -12q-20 -31 -44.5 -53.5t-47.5 -32.5q-16 -6 -31.5 -13.5t-1.5 -7.5z" />
<glyph unicode="&#xa1;" horiz-adv-x="686" d="M225 113l113 1046h31l127 -1108l-76 -67zM227 1415q0 43 29 84t94 41q59 0 93 -39t34 -92t-35.5 -86t-89.5 -33q-33 0 -56.5 12.5t-38.5 31t-22.5 41t-7.5 40.5zM360 424q0 -59 1 -114.5t1 -78.5v-77q0 -23 5.5 -45.5t17.5 -38.5q4 -8 12 -17q6 -6 13.5 -12t17.5 -10 q16 12 23 18q6 4 8 8q2 2 4 9q2 4 4 9t2 13l-109 979v-496v-147zM373 1317q4 -8 26 0q18 6 29.5 18.5t17.5 22.5q9 12 11 26q4 29 -3.5 55.5t-31.5 53.5q-6 6 -14.5 9t-14.5 5q-8 2 -14 4q-10 0 -6 -7t13 -20.5t18.5 -33.5t7.5 -45q-2 -23 -7.5 -36t-12.5 -21.5t-12 -12.5 t-7 -10q-2 -4 0 -8z" />
<glyph unicode="&#xa2;" horiz-adv-x="1601" d="M119 750q0 186 72.5 329.5t193.5 240.5t277.5 147.5t326.5 50.5h29.5t28.5 -2q10 61 16 100t10 62.5t5 35.5t3 21q4 18 9 14l55 -8q4 0 8 -4t4 -8l-41 -218q82 -10 139.5 -21t92.5 -15q45 -4 76.5 -3t60.5 13l28 -12l-26 -367h-39q-27 154 -117 224.5t-233 86.5 l-244 -1317q92 -31 188 -30q115 0 197 22.5t145 85.5q41 41 65 90t40 92l37 -16l-99 -313q-49 -23 -113.5 -35t-125 -18.5t-105.5 -8.5t-57 -2q-51 0 -100 4t-97 11l-24 -136q-6 -41 -11.5 -66.5t-5.5 -27.5q-2 -16 -8 -16l-57 10q-4 2 -8 5t-4 7q2 12 6 29q4 14 8 34.5 t8 47.5l25 127q-135 31 -252 92.5t-203 154.5t-135 220t-49 287zM254 784q-2 -84 12.5 -162.5t39 -146t55 -122t63.5 -89.5q35 -39 83 -72.5t101.5 -61.5t108.5 -46t104 -27q78 -6 78 2q0 4 -16.5 9.5t-32.5 15.5q-8 4 -16.5 -6t-8.5 -8l262 1345q-18 -23 -27 -39t-11 -20 q0 2 -3.5 -6.5t-7.5 -57.5l-231 -1194q-41 18 -84 41t-85 56.5t-82 81t-77 114.5q-10 18 -27.5 59.5t-35 97.5t-28.5 125.5t-7 145.5q6 152 46 252t105 186q29 33 66 64q33 27 82 54.5t115 47.5q61 12 86 19q14 4 22 6q4 2 -6 3t-28.5 1t-44 -2t-52.5 -8t-64.5 -18.5 t-82.5 -34t-91.5 -52t-87.5 -71.5q-29 -29 -61.5 -76t-61 -108.5t-48 -137.5t-21.5 -160zM406 799q0 -129 29.5 -235.5t80.5 -190.5t121 -145.5t147 -98.5q29 141 61 305t64.5 333t63.5 337t57 319q-14 2 -27.5 2h-27.5q-133 0 -238.5 -48t-179.5 -132t-112.5 -198.5 t-38.5 -247.5zM758 -213l18 -35l39 234l-35 -35zM1087 1544l17 -33l41 213l-31 -32zM1249 51q0 -4 9.5 -1t27 6t39 5t43.5 -2l16 -4q14 -4 25 -10q33 90 49.5 139t22.5 72q8 27 6 31q-4 0 -14.5 -17.5t-24.5 -44t-30.5 -54.5t-31.5 -46q-20 -25 -34.5 -34t-34.5 -17 t-43 -11.5t-25 -11.5zM1386 1378q6 -14 18.5 -42.5t25.5 -55.5q6 -12 11 -30.5t8 -35t6 -27.5t7 -11q2 0 4 2q6 6 7 14l16 270l-12 -15t-9 -9q-4 -4 -8 -6q-6 -8 -20.5 -15.5t-30.5 -11.5q-14 -4 -21.5 -8t-1.5 -19z" />
<glyph unicode="&#xa3;" horiz-adv-x="1329" d="M117 -12q0 2 5 13t21 28q61 70 101.5 129t64 127.5t32.5 152.5t9 203v59h-211l13 84h198q-2 18 -1 34t1 24q0 285 131 471q37 51 85 88t99.5 58.5t103.5 31.5t101 10q53 0 123 -21.5t127 -80.5q8 -10 8 -27.5t-4 -37t-11 -40t-13 -34.5q-6 -12 -21.5 -33t-34.5 -21 q-18 0 -24 21q-16 31 -44 60.5t-61.5 54t-70.5 40t-74 15.5q-55 0 -90 -27t-55.5 -68.5t-29.5 -96t-11 -110t0 -107.5t2 -89q0 -18 1 -49t-1 -66h463l-13 -84h-450v-45q0 -82 -18.5 -162.5t-51.5 -151.5t-79 -127t-99 -93q59 23 99 33t85 10q43 0 92.5 -3t126.5 -11 q78 -6 144.5 -9.5t101.5 -3.5q39 0 57.5 19.5t47.5 54.5t45 64.5t26 52.5l41 -6q-29 -59 -61.5 -134t-57.5 -133q-16 -39 -34.5 -50t-59.5 -11q-16 0 -75.5 2t-143.5 12q-82 8 -153.5 12.5t-137.5 4.5q-104 0 -193 -14.5t-130 -43.5q-6 -6 -15 -6q-27 0 -26 27zM166 776 q0 -8 4 -12q2 -4 4 -4q2 -4 8 -6q8 -6 29 -6h84l-7 7l-7 7l-9 4q-6 2 -14 4q-16 4 -33 4zM303 115q14 10 23.5 17t17.5 11q8 6 14 11q20 14 43 37.5t58 72.5q35 47 61.5 117t40.5 139q4 23 8 49q4 23 5 55.5t-1 73.5q-6 2 -13 5.5l-11 5.5q-6 2 -10 4t-13 4q-6 2 -15.5 3 t-25.5 5q0 -29 -1 -50.5t-1 -33.5v-25q0 -25 -3 -76t-25 -143q-14 -53 -37 -106q-18 -45 -47 -93t-68 -83zM463 135h29q109 -18 161 -24q33 -4 56 -5q113 -16 211 -10q16 2 32 6q14 4 30.5 9.5t31.5 15.5q-25 -2 -44.5 -1t-31.5 1h-25q-14 0 -45.5 2t-68.5 4t-71 5t-50 5 q-31 4 -70 6.5t-57 2.5q-12 0 -27 -2q-12 -2 -28.5 -5.5t-32.5 -9.5zM481 791l2 -35q88 -2 148.5 -1t99.5 1h72q25 0 49 2q45 4 94 16l-375 2l-2 10q-2 72 -1 114t1 65v36q0 18 -1 68.5t7 108.5q8 59 21.5 98t34.5 72q16 23 40.5 36t35.5 17q-10 -4 -38 -14.5t-44 -24.5 q-31 -25 -60.5 -69t-46.5 -85q-8 -23 -14 -49t-10.5 -54t-7.5 -53.5t-3 -41.5q-2 -27 -2 -62v-65v-92zM975 1395q16 -10 24.5 -17.5t12.5 -11.5q6 -6 8 -6q10 -12 13 -33.5t3 -30.5q2 -29 11 -30q4 0 15 4t21 20q18 27 26.5 54.5t8.5 31.5q2 4 0 6q-4 4 -12 4 q-37 -16 -51 -20q-8 -2 -13 -2q-14 0 -28 10q-4 0 -10 4q-8 2 -29 17z" />
<glyph unicode="&#xa4;" horiz-adv-x="1548" d="M422 348l113 113q-51 72 -52 168q0 88 49 159l-96 99l76 76l96 -99q76 55 170 56q47 0 88 -14.5t76 -37.5l109 109l75 -76l-108 -108q23 -35 37 -76t14 -88q0 -49 -14.5 -93t-36.5 -79l92 -92l-76 -76l-92 90q-72 -51 -164 -51q-47 0 -91 14t-79 41l-110 -111zM532 616 q0 -61 39 -112t103 -64q-20 8 -39 27.5t-33 44.5t-22.5 51.5t-8.5 52.5q0 14 2 37t9.5 47.5t20.5 47t36 38.5q-53 -14 -80 -65t-27 -105zM596 623q4 -86 54 -135.5t128 -49.5q43 0 76 17.5t56.5 44t35.5 60.5t12 69q0 78 -50 131t-130 53q-86 -4 -135 -54t-47 -136zM930 813 q33 -23 49 -55.5t27 -61.5q4 -16 8 -33.5t6 -33.5q2 -25 -4 -60q-4 -27 -14.5 -59.5t-32.5 -63.5q29 18 45 45t26 52q4 14 8.5 28.5t6.5 30.5q4 43 -5.5 79t-23.5 60q-6 10 -11 19.5t-16 17.5q-4 2 -9 0t-9 2q8 6 19.5 18.5t17.5 18.5l90 88q-23 -6 -35 5.5t-18 4.5 q0 -6 2 -12t-6 -29q-6 -16 -23.5 -31.5t-36.5 -33.5q-12 -12 -29.5 -3t-31.5 7zM956 393q0 -4 15 -18l63 -64q-2 14 4 27q4 6 14.5 14t0.5 10q-6 0 -14.5 -3t-30.5 8q-16 8 -29.5 17t-17.5 11q-4 0 -5 -2z" />
<glyph unicode="&#xa5;" horiz-adv-x="1542" d="M10 1452v37h584v-37q-43 -4 -66.5 -17.5t-33 -33t-6 -42t13.5 -42.5q16 -31 43.5 -80t60.5 -106.5t67 -119t64.5 -114.5t53 -94t32.5 -58q6 8 37 65.5t70 133.5t79 154t62 127q20 45 35.5 84t12.5 68.5t-30.5 49t-91.5 25.5v37h535v-37q-49 -8 -86 -14t-71 -24.5 t-67.5 -56.5t-76.5 -110l-240 -413h316l-13 -70h-342l-63 -111v-86h418l-13 -69h-405l2 -76q2 -68 1 -124t3 -91q4 -43 14.5 -73t37 -50.5t71.5 -32.5t119 -18v-35h-719v35q57 8 99 17t69.5 29.5t42 53.5t16.5 88q4 66 4 134.5v142.5h-442l12 69h430v17l-102 180h-340l12 70 h289q-39 68 -79 139t-75 131.5t-60.5 103.5t-31.5 56q-29 45 -50.5 78.5t-46 55t-60 35t-95.5 19.5zM242 821q0 -8 4 -12q2 -4 4 -4q2 -4 8 -6q8 -6 27 -6h100q-4 4 -8 7t-8 7q-6 2 -9 4q-4 2 -12 4q-6 2 -14 4t-19 2h-73zM244 555q0 -8 8 -12q4 -4 6 -4q4 -4 12 -7 q12 -6 39 -6h170q-8 6 -24 15q-8 2 -13 4q-8 2 -18 4t-22.5 3t-26.5 1zM297 1397q43 -27 74 -66q14 -20 29.5 -43.5t33.5 -56.5q35 -61 78 -138t90 -148t95 -124t96 -65q-106 184 -166 287.5t-88 156.5q-35 61 -45 78q-14 23 -31 55.5t-12 57.5q0 6 2 14q2 6 4 14t10 19 q4 8 -2 8q-23 -2 -39.5 -14.5t-36.5 -22.5q-23 -10 -43 -14q-16 -4 -29.5 -2t-19.5 4zM778 158q2 -16 11.5 -46t31.5 -53q12 -10 31.5 -15t40 -8t37 -3h22.5q4 2 6 4q4 4 3 12q-8 4 -14.5 9t-12.5 10q-8 6 -12 10q-16 16 -23.5 35.5t-15.5 42.5q-2 10 -4 24q-2 12 -3.5 31.5 t-1.5 48.5v203q0 14 -12 31q-6 8 -12 14q-2 2 -8 6q-10 6 -31 12h424q14 0 27 4q6 2 10 7l6 6q8 8 10 12h-416v102l60 101q0 2 1 8t-5 16q-4 6 -9.5 9.5t-7.5 5.5h336q8 0 21 4l8 4q4 2 6 6q4 8 6 14h-319l286 496q23 31 44.5 56.5t50.5 39.5q23 12 47 19.5t24 13.5 q0 4 -15 4t-37.5 -3t-49 -8t-49.5 -11q-4 0 -16.5 -4.5t-26 -9.5t-22.5 -11t-9 -10q4 -20 -2 -45q-4 -23 -16.5 -54.5t-34.5 -72.5q-41 -72 -75 -131.5t-56 -102.5q-29 -51 -49 -90q-18 -35 -43 -77t-47.5 -80.5t-41 -69.5t-26.5 -43q-6 -12 -12 -27q-4 -12 -8.5 -28.5 t-4.5 -32.5q-2 -137 -2 -214v-116v-55z" />
<glyph unicode="&#xa6;" horiz-adv-x="907" d="M389 -150v816h103v-824q0 -6 -6.5 -7t-10.5 -3h-78q-10 0 -8 18zM389 768v846q0 4 6 6t11 2h79q6 0 7 -18v-836h-103z" />
<glyph unicode="&#xa7;" horiz-adv-x="1026" d="M150 848q0 41 14 84t36.5 83t51.5 75.5t57 62.5q-18 39 -28.5 66.5t-14.5 58.5q-12 86 15.5 156.5t91.5 128.5q131 115 299 77q29 -6 54.5 -15t35.5 -32q2 -4 -5 -24.5t-18.5 -42t-26 -39t-26.5 -17.5q-10 0 -20.5 4.5l-38.5 16.5q-35 16 -74 28.5t-70 12.5 q-37 0 -59.5 -17.5t-31.5 -43t-7 -57.5t12 -60q18 -55 84 -126t152 -169l53 -60q47 -55 90 -116.5t69.5 -129t29 -139t-32.5 -145.5q-16 -35 -54 -75t-79 -70q31 -47 51 -101.5t20 -111.5q0 -68 -31.5 -132.5t-86.5 -117.5t-119 -83t-129 -30q-59 0 -125 20.5t-107 67.5 q-6 6 5.5 27.5t28.5 44t34.5 40t23.5 17.5q23 -4 46.5 -29.5t46.5 -37.5q57 -33 85.5 -35t55.5 -2q74 0 100.5 39t26.5 104q0 66 -42 149t-155 205q-8 8 -11 12.5t-4 6.5t-4 5t-11 9q-74 80 -123 143.5t-79 118t-43 101.5t-13 94zM248 889q-4 -25 1 -61.5t27 -82.5 q10 -23 30 -50t41.5 -56t45 -56.5t41.5 -50.5q16 -18 47 -50.5t66 -76t71.5 -94.5t65.5 -106q18 -37 31 -76q10 -35 14 -77t-6 -83q12 14 20.5 30.5t12.5 29.5q6 14 8 28q4 29 3 59.5t-13 78.5q-10 31 -25.5 61.5t-36.5 58.5q-2 2 -15 -3t-15 -3q0 2 10 7.5t27.5 17.5 t38 33.5t40.5 52.5q-6 -6 -21.5 -20.5t-32.5 -28t-32.5 -22.5t-19.5 -5q-14 20 -28.5 38.5t-29.5 35.5q-23 27 -50 59.5t-56 63t-54.5 58.5t-41.5 46q-35 41 -64 78t-53 78q-12 20 -20.5 40.5t-13.5 36t-8 19.5t-5 -8zM264 963q0 -80 75 -187.5t214 -263.5q55 -63 83 -94 t44 -53q12 12 23.5 26.5t21.5 32.5q14 35 14 76t-15 86t-52 104.5t-97.5 137t-150.5 184.5l-82 100q-35 -31 -56.5 -66.5t-21.5 -82.5zM268 -100q0 -10 8.5 -19.5t16.5 -13.5q10 -6 22.5 -9t38.5 -8q31 -4 53.5 0.5t16.5 8.5q-10 2 -24.5 7t-24.5 11q-33 16 -51 35 q-8 8 -18.5 16.5t-14.5 10.5q-18 8 -23 -39zM336 1411q-4 -25 1 -61.5t28 -81.5q23 -47 75 -102.5t90 -102.5q18 -23 52 -65t70 -91t69 -98t51 -82q18 -37 31 -76q10 -35 14 -77t-6 -82q12 14 20.5 30.5t12.5 28.5q6 15 8 29q4 29 3 59.5t-15 77.5q-16 59 -50 114.5 t-75 104.5q-23 27 -48.5 56.5t-51 57t-49 53t-40.5 44.5q-39 41 -77.5 88t-61.5 90q-16 35 -20.5 61.5t0.5 55.5q2 12 6 24q6 23 26 43q-8 -4 -13 -7t-9 -7q-6 -4 -8 -8q-12 -14 -20.5 -31.5t-12.5 -44.5zM569 1587q-2 -2 2 -2h24.5t25.5 -2q29 -4 41 -23.5t18 -62.5 q0 -12 8 -12q4 0 6 2q20 16 37 55q2 4 4 12q3 8 13 39q-4 2 -13 2q-4 0 -8 -2q-29 -4 -59.5 -1t-71.5 -1q-25 -2 -27 -4z" />
<glyph unicode="&#xa8;" horiz-adv-x="1548" d="M426 1720q0 43 31.5 74t74.5 31t75 -31t32 -74q0 -47 -30.5 -76.5t-76.5 -29.5q-45 0 -75.5 29.5t-30.5 76.5zM518 1800q29 -4 48.5 -23.5t23.5 -47.5q4 -35 -16.5 -61t-53.5 -30q10 -2 31 -2q35 4 57.5 31t18.5 62t-31 57t-61 18q-8 0 -17 -4zM778 1718q0 45 32 76 t75 31q45 0 74.5 -32t29.5 -75q0 -45 -29.5 -75.5t-74.5 -30.5q-43 0 -75 30.5t-32 75.5zM868 1800q29 -4 49.5 -23.5t24.5 -47.5q4 -35 -16.5 -61t-53.5 -30q10 -2 31 -2q35 4 57.5 31t18.5 62t-30.5 57t-61.5 18q-6 0 -19 -4z" />
<glyph unicode="&#xa9;" horiz-adv-x="1609" d="M98 678q0 147 56.5 277t152.5 225.5t225.5 150.5t274.5 55q147 0 276 -56t224.5 -152.5t150.5 -225.5t55 -274q0 -147 -56 -276.5t-152.5 -224.5t-225.5 -150.5t-274 -55.5q-147 0 -276.5 56.5t-224.5 152.5t-150.5 224t-55.5 274zM125 678q0 -111 32.5 -210t88 -176 t126 -127t144.5 -63q-76 39 -139.5 99.5t-110.5 134.5t-73.5 161t-26.5 181t26.5 182t74.5 164t112.5 135t142.5 98q-72 -10 -143.5 -59t-127.5 -127t-91 -179t-35 -214zM186 678q0 -129 49.5 -241.5t133.5 -197.5t196.5 -133.5t239.5 -48.5q129 0 242.5 49.5t197.5 134.5 t132 197.5t48 239.5q0 129 -49 243.5t-133 198.5t-196.5 133.5t-239.5 49.5q-129 0 -242.5 -50.5t-197.5 -135.5t-132.5 -198.5t-48.5 -240.5zM381 662q0 100 39 178t104.5 130t150.5 78.5t175 26.5q72 0 120 -10t70 -12q25 -2 41.5 -2t32.5 8l21 -10l-15 -203h-28 q-10 49 -34 83t-57.5 53t-74.5 27.5t-84 8.5q-70 0 -124 -31t-92 -80t-58.5 -107.5t-20.5 -113.5q0 -98 29.5 -170t76.5 -120t106.5 -70.5t119.5 -22.5q59 0 102 11.5t76 43.5q20 20 33.5 46t23.5 55l27 -13l-54 -174q-29 -12 -63.5 -18t-67 -10t-57.5 -5t-31 -1 q-98 0 -186 26.5t-154.5 78.5t-106.5 132t-40 187zM457 674q-4 -92 25.5 -167t64.5 -112q35 -39 90 -68.5t104 -35.5q39 -6 41 -1t-2 7q-29 8 -43 14t-47 27q-47 29 -73.5 66.5t-38.5 56.5q-6 10 -15.5 31.5t-18.5 52t-15.5 68.5t-4.5 79q4 82 25.5 135.5t56.5 100.5 q14 18 35 35q16 14 43 28.5t61 24.5q16 4 28.5 5t19.5 3q8 2 12 4t-18.5 3t-51.5 -5t-80 -28.5t-94 -65.5q-31 -31 -66.5 -100.5t-37.5 -157.5zM950 59q8 0 14.5 -1t14.5 -1q106 0 200.5 49.5t165 133.5t111.5 197.5t41 242.5q0 92 -21.5 177t-59.5 157.5t-92 130t-120 96.5 q-14 8 -25.5 13.5t-27.5 11.5q-8 2 -22.5 5t-25.5 4t-12 -2t17 -11q76 -33 139.5 -90.5t110.5 -133t73.5 -167t26.5 -191.5q0 -125 -41 -234.5t-110.5 -193.5t-161.5 -135t-195 -58zM987 291q-2 -4 18.5 2t45.5 2q4 0 8 -2t7 -3t7 -3q16 45 24.5 69.5t12.5 36.5l4 17 q-2 0 -7 -9.5t-13.5 -22.5t-16.5 -27.5t-16 -22.5q-10 -12 -19.5 -17.5t-19.5 -9.5t-22.5 -5t-12.5 -5zM1063 993q4 -8 10 -23.5t12 -29.5q8 -14 11.5 -35.5t7.5 -19.5q0 -2 2 0l4 8l8 145q-4 -4 -6 -7t-4 -5l-4 -4q-10 -10 -29 -14q-16 -6 -12 -15z" />
<glyph unicode="&#xaa;" horiz-adv-x="929" d="M-76 795v34q41 6 68.5 15.5t47 25t33 38t27.5 57.5q6 16 23.5 54t41 90t51.5 113.5t56 123.5q66 143 144 315h26l324 -700q23 -53 65.5 -90t108.5 -42l2 -34l-190 8q-33 0 -67 -1t-67 -3q-25 -2 -53 -3t-43 -1v34q59 10 83 26.5t7 62.5q-10 25 -23.5 56.5l-25.5 59.5 q-14 33 -31 68q-35 0 -66.5 1t-66.5 1l-131 2q-16 -41 -28 -76q-10 -29 -20.5 -56.5t-14.5 -35.5q-6 -16 -11.5 -33.5t-5.5 -25.5q0 -25 30 -35t61 -15v-34q-4 0 -34 1t-57 3t-51 3t-33 1h-10t-20 -2q-16 0 -39 -1t-44.5 -2t-40 -2t-26.5 -1zM137 885q-10 -33 10.5 -40 t49.5 -9q10 0 10 1t-6 4t-12.5 9t-8.5 18q-2 10 0 23.5t6 21.5q2 2 8.5 21.5t15.5 44.5t19.5 51.5t18.5 44.5l10 31q0 2 -2 6t-5 9t-7 12zM252 1149q59 -2 94 -1t55 3q23 2 33 2q6 0 15 2q6 2 14 3t14 3h-192l114 281q2 16 2 25.5v15.5v10q-4 -6 -22 -43q-16 -33 -45 -102.5 t-82 -198.5zM297 1169q27 0 50.5 -1t47.5 -1l115 2l-113 250q-27 -66 -49 -125t-51 -125zM436 1599q0 -10 2 -20q0 -8 4 -18t7.5 -24.5t13.5 -37.5l252 -581q6 -18 19.5 -31t27.5 -23q16 -10 35 -16q10 -4 20 -6t20.5 -3t24.5 3q-23 8 -39 20q-8 6 -14 12q-8 6 -16 15 q-6 8 -13.5 18.5t-13.5 26.5l-326 704q-4 -10 -4 -19v-20z" />
<glyph unicode="&#xab;" horiz-adv-x="1024" d="M119 383l393 375l55 -45l-219 -332l199 -318l-51 -55zM276.5 407.5q-0.5 -6.5 2.5 -10.5q2 -6 6 -8q2 -4 10 -4q8 -2 33 4l209 318q-20 2 -29 0q-6 -2 -10 -5q-6 -6 -31 -38q-23 -29 -65 -84.5t-119 -157.5q-6 -8 -6.5 -14.5zM289 352q-4 -14 2 -22q66 -98 104.5 -149.5 t59.5 -76.5q23 -29 28 -34q4 -2 11 -2h26l-192 307q-14 2 -23 -2q-6 -4 -10 -8q-4 -6 -6 -13zM469 383l391 375l58 -45l-222 -332l199 -318l-51 -55zM625 407.5q0 -6.5 2 -10.5q2 -6 8 -8q4 -4 10 -4q8 -2 31 4l209 318q-20 2 -29 0q-6 -2 -8 -5q-8 -6 -33 -38 q-23 -29 -64.5 -84.5t-119.5 -157.5q-6 -8 -6 -14.5zM637 352q-6 -10 2 -22q68 -98 105.5 -149.5t58.5 -76.5q23 -29 31 -34q4 -2 10 -2h24l-192 307q-14 4 -23 -2q-6 -4 -8 -8q-6 -6 -8 -13z" />
<glyph unicode="&#xac;" horiz-adv-x="1024" d="M0 631l20 123h1004l-4 -123l-2 -465h-117v465h-901zM35 741q20 -25 43 -34q10 -8 22 -11q10 -4 25 -8q25 -6 68 -6h647q16 0 30.5 2t24.5 6q12 4 25 8q4 2 12 9q16 12 29 26zM903 182h80q-4 4 -7 6t-5 7q-4 4 -4 8q-4 2 -6 6q-4 4 -5.5 9t-5.5 11q-4 -8 -7 -12t-5 -8 q-4 -4 -4 -8q-2 -2 -8 -6q-4 -4 -10.5 -7.5t-12.5 -5.5zM958 635l7 -365q0 -23 6 -34q4 -8 8 -15q2 -4 8 -8q6 -8 23 -16l2 532q-20 -10 -33 -27q-6 -8 -8 -12q-4 -6 -6 -14q-6 -16 -7 -41z" />
<glyph unicode="&#xad;" horiz-adv-x="772" d="M84 641v152l600 2v-154h-600zM106 782q12 -23 25 -32q8 -6 14 -9q6 -4 15 -6q14 -6 41 -6h385q23 0 35 6q8 4 14 8q4 2 8 9q6 6 16 22zM621 727q6 -4 11 -7t9 -5q4 -4 8 -4q2 -2 6 -9q4 -6 13 -22v80q-4 -4 -7.5 -7t-7.5 -5q-4 -4 -6 -5q-4 -4 -8 -6q-2 -2 -18 -10z" />
<glyph unicode="&#xae;" horiz-adv-x="1609" d="M98 678q0 147 56.5 276t152.5 224.5t225.5 150.5t274.5 55q147 0 276 -56t224.5 -152.5t150.5 -225.5t55 -272q0 -147 -56 -277.5t-152.5 -225.5t-225.5 -150.5t-274 -55.5q-147 0 -276.5 56.5t-224.5 152.5t-150.5 225t-55.5 275zM131 678q0 -111 33 -211t87 -178 t120.5 -127t134.5 -62q-72 39 -133.5 99.5t-106.5 134.5t-70.5 161t-25.5 181q0 96 27.5 184t73.5 164t108.5 135t132.5 96q-66 -12 -133.5 -61t-122.5 -127t-90 -177t-35 -212zM186 678q0 -129 49.5 -242.5t133.5 -198.5t196.5 -133.5t239.5 -48.5q129 0 242.5 49.5 t197.5 134.5t132 198.5t48 240.5q0 129 -49 242.5t-133 197.5t-196.5 133t-239.5 49q-129 0 -242.5 -50t-197.5 -135t-132.5 -197.5t-48.5 -239.5zM465 1053v30h242q49 0 110.5 -4t115.5 -23.5t90 -58.5t36 -108q0 -63 -38 -107.5t-95 -79.5q16 -53 54 -116.5t86 -121.5 t102.5 -99t105.5 -48v-32q-106 2 -181 34.5t-128.5 85t-89 117t-66.5 131.5q-16 -4 -43 -7t-51 -3l2 -96v-60.5t2 -44.5q2 -39 22.5 -55t98.5 -25v-32h-373v32q63 8 87 22.5t26 64.5q0 20 1 63t1 91v92v69v103.5t-2 97.5q-2 49 -27 63t-88 25zM641 430q0 -16 8 -29 q4 -6 10 -10q14 -14 34 -21.5t55 -7.5h18q-23 2 -39 17q-12 8 -19.5 23.5t-11.5 25.5q-2 6 -2 27v145v369v38.5t4 30.5q8 12 25 15q4 2 0 2h-6q-14 0 -23.5 -6.5t-19.5 -12.5q-16 -12 -24.5 -15t-8.5 -36v-555zM715 686q41 2 78.5 15.5t66.5 35t46.5 49t17.5 60.5 q0 49 -17.5 84t-47.5 55.5t-66.5 30.5t-73.5 10l-4 -4v-336zM881 713q2 -8 15 -3t24 11q27 12 49 33.5t32 33.5q6 8 15.5 27t14.5 41.5t5 46.5t-10 49q-20 47 -46 61.5t-42 20.5q-18 8 -39 10q-8 0 -10 -2q-6 -6 20 -18q25 -16 39.5 -36.5t22.5 -41.5q8 -23 12 -47 q2 -51 -13.5 -87t-36 -57.5t-36.5 -31.5zM893 649q0 -16 17.5 -53t33.5 -70q8 -16 27.5 -38.5t41 -46t43 -43t38.5 -29.5q12 -8 26 -17q12 -6 25.5 -12t25.5 -8q8 -2 9 2q0 2 -2 2q-47 31 -82 67.5t-56 59.5q-27 33 -46 64.5t-31 50.5q-8 10 -17 26q-14 27 -37 90 q-8 -6 -10 -14t-4 -14q-2 -8 -2 -17zM948 57h29q106 0 201.5 49.5t165 133.5t110.5 197.5t41 242.5q0 92 -21.5 177t-59.5 156.5t-92 130t-118 95.5q-27 16 -53 27q-8 2 -23.5 5t-25.5 4t-11 -2t17 -11q74 -35 138.5 -92.5t110.5 -133t72.5 -167t26.5 -189.5 q0 -125 -41 -234.5t-110.5 -193.5t-161.5 -136.5t-195 -58.5z" />
<glyph unicode="&#xaf;" horiz-adv-x="1548" d="M397 1628l21 123h614l-20 -123h-615zM434 1729q20 -25 43 -35q10 -8 23 -11q8 -4 18 -8q18 -6 64 -6l243 4q16 0 30.5 2t25.5 6q12 4 24 9q4 2 13 8q16 12 28 26zM907 1686q10 -4 19.5 -7.5t15.5 -5.5q8 -4 10 -4l11 -10q8 -8 14 -25l16 88q-10 -4 -26 -12l-13 -6l-12 -6 q-10 -6 -35 -12z" />
<glyph unicode="&#xb0;" horiz-adv-x="1013" d="M197 1360q0 61 22.5 114.5t62.5 93.5t94.5 63.5t115.5 23.5t115.5 -22.5t94 -61.5t63 -93.5t23.5 -117.5q0 -61 -23.5 -115.5t-63 -94.5t-94 -63.5t-115.5 -23.5t-115.5 23.5t-94.5 63.5t-62.5 94t-22.5 116zM236.5 1386.5q-7.5 -36.5 5.5 -77.5q10 -33 32 -58 q16 -23 46 -41t75 -22q-35 14 -55.5 34.5t-30.5 43.5q-12 23 -18 51q-4 43 4 82q6 35 25.5 70.5t64.5 60.5q-27 -2 -49.5 -14.5t-38.5 -26.5q-20 -18 -35 -39q-18 -27 -25.5 -63.5zM315 1352q2 -72 53.5 -120t123.5 -48q41 0 73.5 16.5t56 41t36 56t12.5 62.5 q0 74 -51.5 125t-124.5 51q-78 -2 -130.5 -53t-48.5 -131zM588 1577q43 -27 67.5 -59.5t36.5 -63.5q14 -37 17 -74q0 -37 -9 -73q-6 -33 -21 -70t-44 -70q39 18 63.5 50t36.5 61q14 35 21 72q6 47 -7.5 86t-33.5 63q-18 20 -39 37q-16 14 -39.5 25.5t-48.5 15.5z" />
<glyph unicode="&#xb1;" horiz-adv-x="1439" d="M297 35v135l870 2v-137h-870zM317 625v139h355v381h139v-381h348v-139h-348v-377h-139v377h-355zM319 160q12 -23 25 -33q8 -6 14 -8q6 -4 15 -6q14 -6 41 -7h655q23 0 35 7q8 4 14 8q4 2 8 8q6 6 17 23zM332 754q10 -10 17 -16.5t11 -10.5q6 -6 11 -6q25 -10 43 -14 q8 -2 35 -2h202q-14 12 -29.5 20t-27.5 12q-14 6 -29 11q-8 0 -35 2q-23 2 -69.5 2t-128.5 2zM743 1073q0 -6 2 -41q2 -29 2.5 -91t0.5 -175l-3 -477q6 -4 12.5 -7t10.5 -8q6 -4 10 -6q2 -2 6 -4t6.5 -4t6.5 -2l2 379q0 2 -2 13.5t-13 23.5q-2 4 -8 10q-8 8 -20 16l43 -2v2 q6 -2 14 -2h35l213 4q10 -2 19.5 0.5t15.5 6.5q8 4 14 8q4 2 8 6q6 6 17 22l-336 5v374q-8 0 -21 -4q-6 -2 -8 -4q-23 -10 -25 -24.5t-2 -18.5zM1096 698q6 -4 11 -5t9 -5t8 -6t9 -8q4 -6 12 -23v80l-21 -16q-4 -4 -8 -6q-4 -4 -9 -5.5t-11 -5.5zM1104 104q6 -4 11 -7t9 -5 q4 -4 9 -4q2 -2 6 -8t12 -23v80l-7 -7t-7 -5q-4 -4 -7 -4q-4 -4 -8 -6q-2 -2 -18 -11z" />
<glyph unicode="&#xb2;" horiz-adv-x="952" d="M164 637q78 66 138 118t106.5 97t81 86t59.5 84q35 57 45 97t10 93q0 92 -59.5 128t-138.5 36q-68 0 -124.5 -30.5t-91.5 -65.5l-22 18q53 78 133 133.5t199 55.5q49 0 97 -10.5t88 -38t64.5 -74.5t24.5 -119q0 -92 -53 -166.5t-119 -140.5q-41 -41 -106.5 -97.5 t-122.5 -109.5h295q49 0 77.5 8.5t49 28.5t34 51t31.5 78l29 -14l-60 -213q-10 -35 -22 -46.5t-41 -11.5h-596zM197 1296q10 10 17 16.5t11 10.5q6 6 11 8q12 8 28.5 17.5t28.5 13.5q2 2 10 4q4 2 12.5 5t18.5 7q-16 0 -19.5 1t-19.5 -3q-14 -2 -30.5 -10t-26.5 -16 q-4 -2 -11 -9l-11 -11l-17 -17zM371 723q4 -6 9 -9t9 -5t6 -2q4 -2 14.5 -6.5t24.5 -4.5h39h242q20 0 41 9q8 4 16 10q6 4 12 10q8 8 13 25q-10 -8 -20.5 -12.5t-18.5 -8.5t-19 -4q-14 -2 -57 -2q-37 0 -109.5 -1t-201.5 1zM461 1473q47 -4 82 -16.5t57 -26.5q27 -16 47 -37 q23 -27 40.5 -73t4.5 -118q-8 -39 -24 -80q-14 -35 -41 -82t-68 -94q31 14 54.5 32.5t39.5 35.5q20 20 35 41q20 31 33.5 55.5t22 46t11.5 44t5 48.5q4 53 -11.5 92t-48.5 70q-27 20 -63 37q-31 14 -75 22.5t-101 2.5z" />
<glyph unicode="&#xb3;" horiz-adv-x="819" d="M145 549q59 10 123 32.5t115 58.5t84 85t33 115q0 49 -29 89t-75 65.5t-101 34.5t-109 -3l-16 45q41 14 92 34.5t96 48.5t76 61.5t31 74.5q0 59 -46 82t-102 23q-31 0 -60.5 -5.5t-55.5 -15.5l-19 35q25 14 55.5 27.5t63.5 23.5t64.5 16.5t58.5 6.5q37 0 76 -8.5 t69.5 -25.5t50 -47t19.5 -73q0 -72 -47 -128t-119 -91q41 -12 81 -35.5t70.5 -56.5t49 -72t18.5 -82q0 -78 -35.5 -134t-92 -97t-125 -66.5t-134.5 -40.5h2q-16 -4 -40.5 -7t-48 -6t-44 -4t-27.5 -1zM403 1071q25 -4 45.5 -12t36.5 -17q18 -8 33 -18q12 -8 27.5 -23.5 t30 -38t22.5 -55.5t6 -76q-4 -45 -24 -86q-16 -35 -50 -74.5t-94 -70.5q14 0 32.5 7t37.5 18q20 10 43 24q25 14 61.5 56.5t48.5 89.5q20 72 4 116.5t-38 75.5q-49 61 -95.5 75.5t-62.5 16.5q-14 2 -25 2q-23 0 -39 -10zM428 1444q-4 -2 4 -4t31.5 -6t46.5 -19 q8 -4 32.5 -28.5t24.5 -75.5q-2 -29 -10 -54q-8 -23 -22.5 -47t-40.5 -43q-12 -8 -10.5 -9t10.5 1q8 2 24 8q10 4 31.5 17.5t40.5 42.5q12 16 22.5 41.5t12.5 50.5q4 49 -31 90q-31 37 -102 41q-12 2 -25.5 1t-24 -3t-14.5 -4z" />
<glyph unicode="&#xb4;" horiz-adv-x="1548" d="M651 1634l305 353l156 -48l-27 -90l-413 -237zM858 1735l213 127l19 65z" />
<glyph unicode="&#xb6;" horiz-adv-x="1386" d="M281 979q0 113 44 206t120.5 159.5t181 103.5t223.5 37l397 4v-35q-63 -6 -104 -17.5t-65.5 -33t-37 -54t-14.5 -81.5q-2 -35 -3 -83t-1 -116v-528q0 -41 1 -62.5t1 -37t1 -32t1 -49.5q0 -131 -44 -242.5t-121 -198.5t-181.5 -148.5t-224.5 -94.5l-9 29q96 45 160 124 t103 173t54 197.5t15 199.5q0 10 1 53.5t1 100.5q-94 0 -183 30.5t-159.5 86t-113.5 134.5t-43 175zM702 -172q109 66 170.5 148.5t91 159.5t37 137.5t7.5 80.5l-1 6q-1 5 -2 30.5t-1 80.5t-1.5 154.5t-1.5 249t3 366.5q0 55 10 86q4 16 10 27q10 27 27.5 46t31.5 30 q6 4 11 10q7 12 -7 18q-20 0 -37.5 -1t-31.5 -3q-16 -2 -29 -6q-16 -4 -47 -5t-65.5 -1t-67.5 -1t-53 -5q-6 -2 -13.5 -5.5t-7.5 -6.5t11.5 -5t41.5 -4q39 -2 61.5 -15.5t33 -36t13.5 -56t3 -74.5v-114.5v-185.5t-1 -272.5t-1 -375.5q-10 -111 -45 -198t-71 -146.5 t-61.5 -89t-17.5 -23.5z" />
<glyph unicode="&#xb7;" horiz-adv-x="559" d="M143 938q0 18 7.5 40.5t22.5 41t39 31t56 12.5q53 0 89 -33t36 -86t-33.5 -92t-93.5 -39q-66 0 -94.5 41t-28.5 84z" />
<glyph unicode="&#xb8;" horiz-adv-x="1601" d="M723 -352l22 41q41 -23 101.5 -33t107.5 -10q25 0 55.5 20.5t30.5 69.5q0 27 -17 43t-41 23.5t-46.5 8.5t-32.5 -1v202h64v-125q12 2 25.5 2h25.5q70 0 112 -43q23 -23 34.5 -53.5t10.5 -61t-14.5 -60t-40.5 -50.5q-53 -41 -141 -41q-66 0 -131.5 19.5t-124.5 48.5z M930 -35v-90l22 8v101zM1001 -133q37 -6 59.5 -22.5t35.5 -32.5q14 -20 20 -43q8 -39 0 -68t-20.5 -46t-20.5 -25.5t-2 -6.5q20 4 36.5 14.5t27.5 22.5q10 12 18 36.5t6 53.5t-19.5 59.5t-45.5 47.5q-12 4 -25 10q-10 4 -24.5 7t-28.5 -1z" />
<glyph unicode="&#xb9;" horiz-adv-x="694" d="M68 1421v43h440v-47q-76 -6 -102.5 -23.5t-28.5 -62.5q-2 -18 -2 -43.5v-62.5l-2 -187l2 -161v-65t2 -48q4 -41 30.5 -59.5t112.5 -24.5v-45h-450v45q68 8 99.5 22.5t33.5 67.5q2 18 2 50v73v217v114.5t-2 106.5q-4 47 -37 63.5t-98 26.5zM259 1406q-5 -5 9 -15 q6 -6 8.5 -15.5t2.5 -19.5v-619q0 -33 11 -43t23 -14q18 -6 43 -6q14 2 20.5 8t-3.5 16q-16 16 -19.5 36t-3.5 42q-2 2 -2 60v473q0 31 4 51q2 8 4 14q8 16 17.5 25.5t25.5 17.5q6 2 9 6q2 6 -7 11q-12 2 -22 1t-19 -3q-8 -2 -16 -7q-25 -10 -36 -13t-17 -2t-9 2t-10 1 q-8 -2 -13 -7z" />
<glyph unicode="&#xba;" horiz-adv-x="1058" d="M37 1235q0 82 32.5 161t95 140t156 98t214.5 37q104 0 194 -29.5t154.5 -85t101.5 -133.5t37 -174t-38 -178t-104.5 -141.5t-157.5 -93t-200 -33.5q-111 0 -201 34.5t-152.5 94t-97 138.5t-34.5 165zM133 1219q6 -92 42 -168t73 -111t93 -60.5t105 -29.5q39 -2 40 4t-3 6 q-27 6 -54.5 13.5t-57.5 25.5q-51 29 -71.5 58.5t-33.5 50.5q-16 25 -38.5 84t-26.5 143q-4 80 10 140.5t47 119.5q20 37 49 59.5t56.5 36t48 18.5t24.5 7t-18.5 1t-48.5 -11q-29 -10 -76 -37t-84 -76q-14 -18 -28.5 -46t-27 -62.5t-18.5 -77.5t-2 -88zM231 1260 q0 -82 24 -154t67 -124t102 -82t133 -30q49 0 97 20.5t86 63.5t61.5 111t23.5 160q0 80 -23.5 149.5t-64.5 119.5t-100 80t-129 30q-119 0 -198 -90.5t-79 -253.5zM770 1580q0 -5 18 -15t40 -32t42.5 -56.5t36 -81.5t19.5 -107q6 -59 0 -107t-17.5 -84t-25 -61.5 t-21.5 -40.5q-12 -20 -28.5 -38.5t-31 -33l-23.5 -23.5t-7 -9q57 31 93 58.5t71 84.5q25 41 46 112t11 157q-6 61 -25.5 106t-41 76t-44 48t-34.5 26q-20 12 -38.5 19t-29 7t-10.5 -5z" />
<glyph unicode="&#xbb;" horiz-adv-x="1024" d="M94 713l58 47l391 -375l-375 -375l-53 53l200 320zM133 707l207 -316q18 -8 33 -4q6 2 10 4t6 8q4 10 -4 23q-78 102 -120 158.5t-64 85.5q-25 33 -31 39q-2 2 -8 4q-12 4 -29 -2zM147 70q8 -2 15.5 -1t11.5 1q6 0 10 2q6 6 29 34q20 25 59 76t107 150q4 8 0 22 q-2 7 -6 13q-4 4 -11 6q-12 4 -22 2zM444 713l56 47l393 -375l-377 -375l-51 53l199 320zM481 707l209 -316q16 -8 31 -4q6 2 10 4q6 2 8 8q4 10 -4 23q-78 102 -121 158.5t-65 85.5q-25 33 -31 39q-2 2 -8 4q-12 4 -29 -2zM498 70q8 -2 14 -1t10 1q6 0 10 2q6 6 29 34 q20 25 59 76t107 150q6 8 2 22l-8 13q-4 4 -10 6q-12 4 -21 2z" />
<glyph unicode="&#xbc;" horiz-adv-x="1851" d="M74 1462v31h422v-31q-39 -4 -63.5 -10t-39 -18.5t-20.5 -32t-8 -45.5q-2 -20 -2.5 -48t-0.5 -69v-344v-74t3 -53q2 -25 8 -41t21.5 -27.5t42 -18.5t71.5 -11v-31h-432v31q35 4 59.5 10t41 17.5t23.5 29.5t9 49q0 25 1 70t1 95v97v76v125t-2 117q-2 31 -10.5 49 t-23.5 29.5t-40.5 17.5t-60.5 10zM255 1441q-5 -5 9 -16q6 -6 8 -15t2 -19v-660q0 -33 11.5 -43t23.5 -14q18 -6 43 -6q14 2 20.5 8t-3.5 16q-16 16 -19.5 36t-3.5 42q-2 12 -2 80v493q0 31 4 52q2 8 4 14q8 16 17.5 25.5t25.5 17.5q6 2 8 6q2 6 -6 10q-12 2 -22 1t-19 -3 q-8 -2 -16 -6q-25 -10 -36 -13t-17 -2t-9.5 2t-9.5 1q-8 -2 -13 -7zM348 -33q10 14 21 37q10 18 23.5 44t29.5 58q25 47 67.5 131.5t98 192t117 229t123 242.5t119 233.5t101.5 199.5t70.5 142.5t28.5 61.5q10 18 16 12l72 -34q2 -2 8 -7.5t2 -9.5q-172 -338 -319 -629 q-63 -123 -127 -248.5t-120 -236.5t-101.5 -199t-69.5 -135q-27 -53 -43 -85l-19 -38q-8 -20 -16 -12l-70 35q-4 2 -10 7t-2 9zM418 -14l8 -45l795 1556q-29 -23 -39 -35q-8 -8 -13 -16q-4 -8 -12 -21l-16.5 -27.5t-22.5 -43.5zM874 256l566 600l47 -20v-512h49 q35 0 76 21.5t57 82.5l19 -4l-29 -213h-170q0 -20 1 -40.5t1 -39.5v-66.5t2 -48.5q4 -39 30.5 -56t112.5 -28v-45h-444v45q68 10 99.5 24.5t33.5 66.5q2 33 2 71.5v77.5v39q-109 0 -216 -1t-214 -1zM977 267q0 -3 10 7q4 2 12 7q16 8 45 8h123q29 0 58.5 4t48.5 8q6 2 14 4 q16 4 29 10h-254q-10 0 -17.5 -2t-15.5 -6l-16 -8q-25 -12 -33 -25q-4 -4 -4 -7zM989 307q6 0 13.5 2t11.5 4q6 2 10 4t10 7q6 4 17 14l264 274q-16 -4 -21 -6q-6 -2 -8 -4q-6 -4 -14 -10q-6 -4 -15.5 -12.5t-17.5 -18.5zM1055 324h272q0 41 1 84t1 84l-2 120 q-72 -74 -136.5 -142.5t-135.5 -145.5zM1407 532l4 -538q0 -41 11.5 -54.5t21.5 -19.5q10 -8 29.5 -13t42.5 1q10 4 1.5 13t-18.5 24q-12 23 -15 48t-5 56v189q0 10 -17 22q-12 10 -27.5 12t-15.5 4h23h41.5t79.5 3q18 0 30 6q8 2 13 6q14 10 26.5 27.5t19.5 33t9 27.5t0 12 q-4 4 -14.5 -15.5t-26.5 -31.5q-35 -23 -69.5 -26t-75.5 -3v494q-4 0 -10.5 -12.5t-13.5 -30.5t-14 -37.5t-10 -30.5q-4 -14 -7 -35.5t-6 -46t-5 -47t-2 -37.5z" />
<glyph unicode="&#xbd;" horiz-adv-x="1851" d="M70 1462v31h422v-31q-39 -4 -64 -10t-39 -18.5t-20.5 -32t-8.5 -45.5q-2 -20 -2 -48v-69v-344v-74t2 -53q2 -25 8.5 -41t22 -27.5t42 -18.5t71.5 -11v-31h-432v31q35 4 59.5 10t40.5 17.5t23.5 29.5t9.5 49q0 25 1 70t1 95v97v76v125t-2 117q-2 31 -10.5 49t-23.5 29.5 t-41 17.5t-60 10zM251 1441q-5 -5 9 -16q6 -6 8 -15t2 -19v-660q0 -33 11.5 -43t23.5 -14q18 -6 43 -6q14 2 20.5 8t-3.5 16q-16 16 -19.5 36t-3.5 42q-2 12 -2 80v493q0 31 4 52q2 8 4 14q8 16 17.5 25.5t25.5 17.5q6 2 8 6q2 6 -6 10q-12 2 -22.5 1t-18.5 -3t-16 -6 q-25 -10 -36 -13t-17.5 -2t-9.5 2t-9 1q-8 -2 -13 -7zM348 -37q10 20 24.5 44t24.5 46q12 25 25 51q25 45 67.5 130t98 193t118 229.5t124 242.5t118 233.5t100.5 200.5t71.5 143.5t29.5 61.5q8 16 16 12l70 -34q4 -2 10 -7.5t2 -9.5q-115 -225 -207 -406.5t-165.5 -324.5 t-129 -252.5t-96.5 -189.5q-96 -188 -141 -279q-27 -53 -43 -85l-19 -38q-8 -14 -16 -12l-70 35q-4 2 -10 7t-2 9zM426 -14l8 -45l795 1556q-29 -23 -39 -35q-8 -8 -12 -16t-13 -21q-6 -10 -16 -27.5t-23 -43.5zM1038 20q78 66 138.5 118t106.5 97.5t81 86t59 84.5 q35 57 45.5 97t10.5 93q0 92 -59.5 128t-139.5 36q-68 0 -124 -31t-91 -65l-23 18q53 78 133 133t199 55q49 0 97.5 -10t88 -37.5t64.5 -75t25 -118.5q0 -92 -53.5 -167t-118.5 -140q-41 -41 -106.5 -97.5t-123.5 -109.5h295q49 0 78 8t49.5 28.5t33.5 51t32 78.5l28 -15 l-59 -213q-10 -35 -22.5 -46t-41.5 -11h-596zM1071 680q10 10 17.5 16t11.5 11q6 6 10 8q12 8 28.5 17t28.5 13q2 2 11 5q4 2 12 5t18 7q-16 0 -19 1t-20 -3q-14 -2 -30.5 -10.5t-26.5 -16.5q-4 -2 -10 -8q-4 -4 -11.5 -11t-17.5 -18zM1245 106q4 -6 9.5 -9t9.5 -5t6 -2 q4 -2 14 -6t25 -4h39h241q20 0 41 8q8 4 17 10q6 4 12 11q8 8 12 24q-10 -8 -20.5 -12t-18.5 -8t-18 -4q-14 -2 -58 -3q-37 0 -109.5 -1t-201.5 1zM1335 856q47 -4 82 -16.5t58 -26.5q27 -16 47 -37q23 -27 40 -73t5 -117q-8 -39 -25 -80q-14 -35 -40.5 -82t-67.5 -94 q31 14 54 32.5t40 34.5q20 20 35 41q20 31 33.5 55.5t21.5 46t11 44t5 49.5q4 53 -11 92t-48 70q-27 20 -64 36q-31 14 -75 22.5t-101 2.5z" />
<glyph unicode="&#xbe;" horiz-adv-x="1851" d="M33 555q59 10 122.5 32.5t115 58.5t84 85t32.5 115q0 49 -28.5 89t-74.5 65.5t-101.5 34.5t-108.5 -3l-17 45q41 14 92.5 35t96.5 48.5t75.5 61t30.5 74.5q0 59 -46 82t-101 23q-31 0 -60.5 -5t-56.5 -16l-18 35q25 14 55.5 27.5t63 24t64.5 16.5t58 6q37 0 76 -8 t69.5 -25.5t50 -47.5t19.5 -73q0 -72 -47 -128t-119 -91q41 -12 81 -35.5t71 -56.5t49.5 -72t18.5 -82q0 -78 -36 -134t-92.5 -97t-125 -66.5t-133.5 -40.5h2q-16 -4 -41 -7t-48.5 -6t-44 -4t-26.5 -1zM291 1077q25 -4 45 -12t37 -16q18 -8 33 -19q12 -8 27.5 -23.5 t29.5 -38t22.5 -55t6.5 -75.5q-4 -45 -25 -86q-16 -35 -50 -75t-93 -71q14 0 32.5 7.5t36.5 17.5q20 10 43 24q25 14 62 56.5t49 89.5q20 72 4 117t-39 75q-49 61 -95 75.5t-63 16.5q-14 2 -24 2q-23 0 -39 -10zM315 1450q-4 -2 4 -4t32 -6t46 -19q8 -4 33 -28.5t25 -75.5 q-2 -29 -11 -53q-8 -23 -22 -47.5t-41 -42.5q-12 -8 -10 -9.5t10 0.5t25 9q10 4 31.5 17t39.5 42q12 16 22.5 41.5t12.5 50.5q4 49 -31 90q-31 37 -102 41q-12 2 -25.5 1t-24 -3t-14.5 -4zM348 -33q10 14 21 37q10 18 23.5 44t29.5 58q25 47 67.5 131.5t98 192t117 229 t123 242.5t119 233.5t101.5 199.5t70.5 142.5t28.5 61.5q10 18 16 12l72 -34q2 -2 8 -7.5t2 -9.5q-172 -338 -319 -629q-63 -123 -127 -248.5t-120 -236.5t-101.5 -199t-69.5 -135q-27 -53 -43 -85l-19 -38q-8 -20 -16 -12l-70 35q-4 2 -10 7t-2 9zM418 -14l8 -45l795 1556 q-29 -23 -39 -35q-8 -8 -13 -16q-4 -8 -12 -21l-16.5 -27.5t-22.5 -43.5zM874 256l566 600l47 -20v-512h49q35 0 76 21.5t57 82.5l19 -4l-29 -213h-170q0 -20 1 -40.5t1 -39.5v-66.5t2 -48.5q4 -39 30.5 -56t112.5 -28v-45h-444v45q68 10 99.5 24.5t33.5 66.5q2 33 2 71.5 v77.5v39q-109 0 -216 -1t-214 -1zM977 267q0 -3 10 7q4 2 12 7q16 8 45 8h123q29 0 58.5 4t48.5 8q6 2 14 4q16 4 29 10h-254q-10 0 -17.5 -2t-15.5 -6l-16 -8q-25 -12 -33 -25q-4 -4 -4 -7zM989 307q6 0 13.5 2t11.5 4q6 2 10 4t10 7q6 4 17 14l264 274q-16 -4 -21 -6 q-6 -2 -8 -4q-6 -4 -14 -10q-6 -4 -15.5 -12.5t-17.5 -18.5zM1055 324h272q0 41 1 84t1 84l-2 120q-72 -74 -136.5 -142.5t-135.5 -145.5zM1407 532l4 -538q0 -41 11.5 -54.5t21.5 -19.5q10 -8 29.5 -13t42.5 1q10 4 1.5 13t-18.5 24q-12 23 -15 48t-5 56v189q0 10 -17 22 q-12 10 -27.5 12t-15.5 4h23h41.5t79.5 3q18 0 30 6q8 2 13 6q14 10 26.5 27.5t19.5 33t9 27.5t0 12q-4 4 -14.5 -15.5t-26.5 -31.5q-35 -23 -69.5 -26t-75.5 -3v494q-4 0 -10.5 -12.5t-13.5 -30.5t-14 -37.5t-10 -30.5q-4 -14 -7 -35.5t-6 -46t-5 -47t-2 -37.5z" />
<glyph unicode="&#xbf;" horiz-adv-x="985" d="M142 406.5q-3 66.5 16.5 132t60.5 120.5q45 59 116 108.5t142 104.5q70 55 95.5 125t-1.5 156l29 21q18 -23 38.5 -52.5t37 -64.5t27 -71t8.5 -71q-2 -33 -24.5 -65.5t-59.5 -61.5q-55 -41 -109.5 -82.5t-98.5 -92t-72 -111t-28 -135.5q0 -51 14.5 -98.5t43.5 -84.5 t69.5 -58.5t96.5 -21.5q72 0 129 49.5t92 108.5q8 23 22 23q18 0 35 -21.5t21 -32.5q6 -16 14 -36.5t12 -40t3 -38t-9 -26.5q-57 -59 -120.5 -81.5t-116.5 -22.5q-109 0 -209.5 44t-177.5 132q-45 51 -69 114.5t-27 130zM240 360q0 -31 8 -63q6 -29 19.5 -61.5t39.5 -61.5 q20 -25 32.5 -33t16.5 -8q6 0 6 8q-2 16 -18 39t-27 64q-16 76 -17 129t17 104q16 45 45 92t60 78l92 90q12 10 23 25q20 29 38 69q-86 -57 -139 -98t-82 -69q-35 -33 -51 -58q-35 -57 -49 -112.5t-14 -133.5zM459 86q-14 -4 6 -15.5t41 -15.5q18 -4 48 -7t71 1 q39 4 75.5 20.5t57.5 28.5q20 12 34.5 29.5t6.5 28.5q-10 14 -27.5 13t-34.5 -5q-10 -2 -17 -8t-16.5 -14.5t-24.5 -18.5t-42 -21q-29 -10 -59.5 -14t-56 -4t-43 1t-19.5 1zM471 1384q0 53 34 92.5t93 39.5q66 0 94.5 -41t28.5 -84q0 -18 -7 -41t-22.5 -41.5t-39 -30.5 t-56.5 -12q-53 0 -89 32.5t-36 85.5zM590 1296q4 -8 26 -6q18 2 32 9.5t24 17.5t16 24q27 55 -8 115q-10 14 -23 21q-8 4 -14 6q-10 2 -7 -5.5t8 -22.5t9 -36.5t-4 -46.5q-14 -43 -32.5 -51t-24.5 -16q-4 -4 -2 -9z" />
<glyph unicode="&#xc0;" horiz-adv-x="1671" d="M6 0v33q68 12 113 27.5t76.5 41t57.5 67.5t52 107q25 61 88 220q27 68 65 162t90 221t119.5 291.5t151.5 373.5h39q14 -37 51 -124t85 -203.5t103.5 -251t110 -263.5t100.5 -243.5t76 -190.5q41 -104 112 -164.5t181 -70.5v-33h-639v33q33 6 60.5 13t45 21.5t24 35 t-6.5 51.5q-10 35 -31 88q-16 47 -43.5 121.5t-68.5 185.5h-469q-39 -100 -60.5 -159.5t-33.5 -92.5q-14 -37 -19 -53q-10 -31 -19 -62.5t-9 -50.5q0 -31 14 -49.5t36.5 -28.5t49.5 -14t53 -6v-33h-555zM307 115.5q0 -11.5 4 -21.5t11 -20q16 -25 98 -29q18 0 17 1t-11 7 t-22.5 19.5t-16.5 36.5t2 49t12 41q2 6 13.5 36.5t26 72.5t30.5 88t31 83q4 12 9 25.5t9 36.5q0 6 -2 14q-2 6 -6 16.5t-14 20.5l-185 -451q-6 -14 -6 -25.5zM459 1858l24 102l105 35l313 -338l-29 -37zM506 627q106 -2 170.5 -2t99.5 2q41 0 58 2q12 0 24 4q10 2 21.5 5 t21.5 7l-61 -2h-279l209 553q4 31 4 50.5v29.5q0 12 -2 20q-6 -6 -37 -77q-12 -31 -32.5 -79t-48 -119t-64.5 -168t-84 -226zM567 1944q-2 -27 17 -50q20 -20 57 -51q31 -27 83 -65.5t134 -91.5l-274 292q-10 -10 -15 -24q-2 -6 -2 -10zM584 653h401l-190 512q0 4 -3.5 11.5 t-5.5 7.5q-4 0 -8 -8zM840 1440q0 -23 4 -41q0 -14 6 -37q4 -18 13 -47t26 -70l393 -1042q4 -35 27.5 -60.5t52.5 -44.5q31 -23 70 -37q14 -4 34 -8q16 -4 37.5 -5t46.5 3q-23 10 -41 20.5t-30 20.5q-14 10 -27 23q-14 14 -27 32q-12 16 -25.5 39t-25.5 54l-526 1280 q-6 -20 -7 -41t-1 -39z" />
<glyph unicode="&#xc1;" horiz-adv-x="1671" d="M6 0v33q68 12 113 27.5t76.5 41t57.5 67.5t52 107q25 61 88 220q27 68 65 162t90 221t119.5 291.5t151.5 373.5h39q14 -37 51 -124t85 -203.5t103.5 -251t110 -263.5t100.5 -243.5t76 -190.5q41 -104 112 -164.5t181 -70.5v-33h-639v33q33 6 60.5 13t45 21.5t24 35 t-6.5 51.5q-10 35 -31 88q-16 47 -43.5 121.5t-68.5 185.5h-469q-39 -100 -60.5 -159.5t-33.5 -92.5q-14 -37 -19 -53q-10 -31 -19 -62.5t-9 -50.5q0 -31 14 -49.5t36.5 -28.5t49.5 -14t53 -6v-33h-555zM307 115.5q0 -11.5 4 -21.5t11 -20q16 -25 98 -29q18 0 17 1t-11 7 t-22.5 19.5t-16.5 36.5t2 49t12 41q2 6 13.5 36.5t26 72.5t30.5 88t31 83q4 12 9 25.5t9 36.5q0 6 -2 14q-2 6 -6 16.5t-14 20.5l-185 -451q-6 -14 -6 -25.5zM506 627q106 -2 170.5 -2t99.5 2q41 0 58 2q12 0 24 4q10 2 21.5 5t21.5 7l-61 -2h-279l209 553q4 31 4 50.5v29.5 q0 12 -2 20q-6 -6 -37 -77q-12 -31 -32.5 -79t-48 -119t-64.5 -168t-84 -226zM584 653h401l-190 512q0 4 -3.5 11.5t-5.5 7.5q-4 0 -8 -8zM770 1634l305 353l156 -48l-27 -90l-413 -237zM840 1440q0 -23 4 -41q0 -14 6 -37q4 -18 13 -47t26 -70l393 -1042q4 -35 27.5 -60.5 t52.5 -44.5q31 -23 70 -37q14 -4 34 -8q16 -4 37.5 -5t46.5 3q-23 10 -41 20.5t-30 20.5q-14 10 -27 23q-14 14 -27 32q-12 16 -25.5 39t-25.5 54l-526 1280q-6 -20 -7 -41t-1 -39zM977 1735l213 127l18 65z" />
<glyph unicode="&#xc2;" horiz-adv-x="1671" d="M6 0v33q68 12 113 27.5t76.5 41t57.5 67.5t52 107q25 61 88 220q27 68 65 162t90 221t119.5 291.5t151.5 373.5h39q14 -37 51 -124t85 -203.5t103.5 -251t110 -263.5t100.5 -243.5t76 -190.5q41 -104 112 -164.5t181 -70.5v-33h-639v33q33 6 60.5 13t45 21.5t24 35 t-6.5 51.5q-10 35 -31 88q-16 47 -43.5 121.5t-68.5 185.5h-469q-39 -100 -60.5 -159.5t-33.5 -92.5q-14 -37 -19 -53q-10 -31 -19 -62.5t-9 -50.5q0 -31 14 -49.5t36.5 -28.5t49.5 -14t53 -6v-33h-555zM307 115.5q0 -11.5 4 -21.5t11 -20q16 -25 98 -29q18 0 17 1t-11 7 t-22.5 19.5t-16.5 36.5t2 49t12 41q2 6 13.5 36.5t26 72.5t30.5 88t31 83q4 12 9 25.5t9 36.5q0 6 -2 14q-2 6 -6 16.5t-14 20.5l-185 -451q-6 -14 -6 -25.5zM506 627q106 -2 170.5 -2t99.5 2q41 0 58 2q12 0 24 4q10 2 21.5 5t21.5 7l-61 -2h-279l209 553q4 31 4 50.5v29.5 q0 12 -2 20q-6 -6 -37 -77q-12 -31 -32.5 -79t-48 -119t-64.5 -168t-84 -226zM535 1626q66 92 130 178t126 172h79q63 -92 128 -178t128 -174l-24 -16q-72 51 -132.5 100t-138.5 100q-70 -43 -137 -97t-139 -107zM567 1634l234 178q-27 6 -37 5q-8 -2 -12 -5q-12 -8 -37 -30 q-23 -18 -58.5 -53t-89.5 -95zM584 653h401l-190 512q0 4 -3.5 11.5t-5.5 7.5q-4 0 -8 -8zM840 1440q0 -23 4 -41q0 -14 6 -37q4 -18 13 -47t26 -70l393 -1042q4 -35 27.5 -60.5t52.5 -44.5q31 -23 70 -37q14 -4 34 -8q16 -4 37.5 -5t46.5 3q-23 10 -41 20.5t-30 20.5 q-14 10 -27 23q-14 14 -27 32q-12 16 -25.5 39t-25.5 54l-526 1280q-6 -20 -7 -41t-1 -39zM840 1913q0 -6 1 -13.5t5 -15.5l241 -233l-223 305q-14 -14 -18 -21q-4 -6 -4 -10q-2 -4 -2 -12z" />
<glyph unicode="&#xc3;" horiz-adv-x="1671" d="M6 0v33q68 12 113 27.5t76.5 41t57.5 67.5t52 107q25 61 88 220q27 68 65 162t90 221t119.5 291.5t151.5 373.5h39q14 -37 51 -124t85 -203.5t103.5 -251t110 -263.5t100.5 -243.5t76 -190.5q41 -104 112 -164.5t181 -70.5v-33h-639v33q33 6 60.5 13t45 21.5t24 35 t-6.5 51.5q-10 35 -31 88q-16 47 -43.5 121.5t-68.5 185.5h-469q-39 -100 -60.5 -159.5t-33.5 -92.5q-14 -37 -19 -53q-10 -31 -19 -62.5t-9 -50.5q0 -31 14 -49.5t36.5 -28.5t49.5 -14t53 -6v-33h-555zM307 115.5q0 -11.5 4 -21.5t11 -20q16 -25 98 -29q18 0 17 1t-11 7 t-22.5 19.5t-16.5 36.5t2 49t12 41q2 6 13.5 36.5t26 72.5t30.5 88t31 83q4 12 9 25.5t9 36.5q0 6 -2 14q-2 6 -6 16.5t-14 20.5l-185 -451q-6 -14 -6 -25.5zM506 627q106 -2 170.5 -2t99.5 2q41 0 58 2q12 0 24 4q10 2 21.5 5t21.5 7l-61 -2h-279l209 553q4 31 4 50.5v29.5 q0 12 -2 20q-6 -6 -37 -77q-12 -31 -32.5 -79t-48 -119t-64.5 -168t-84 -226zM551 1614q4 35 18.5 80t48.5 80q47 47 115 44t127 -30q25 -12 53.5 -24.5t57 -19.5t55.5 -5t49 20q10 10 19.5 29.5t13.5 42.5h41q-4 -57 -22.5 -96t-43.5 -64q-47 -47 -102 -46t-100 15 q-25 6 -60 22.5t-70.5 30t-69.5 16.5t-56 -19q-12 -12 -19.5 -35t-11.5 -41h-43zM584 653h401l-190 512q0 4 -3.5 11.5t-5.5 7.5q-4 0 -8 -8zM659 1778q20 4 39 0t39 -13q20 -6 65.5 -21t96.5 -24q18 -4 37 -4q32 -4 55 6q-20 0 -51 11q-16 6 -33 12q-25 10 -53.5 22.5 t-46.5 18.5q-16 6 -34.5 10t-47.5 4q-29 -2 -52.5 -14t-13.5 -8zM840 1440q0 -23 4 -41q0 -14 6 -37q4 -18 13 -47t26 -70l393 -1042q4 -35 27.5 -60.5t52.5 -44.5q31 -23 70 -37q14 -4 34 -8q16 -4 37.5 -5t46.5 3q-23 10 -41 20.5t-30 20.5q-14 10 -27 23q-14 14 -27 32 q-12 16 -25.5 39t-25.5 54l-526 1280q-6 -20 -7 -41t-1 -39zM1007.5 1656q-14.5 -9 0.5 -7q6 2 14 4q6 2 14 4t15 6q18 10 40.5 38t28.5 48l6 18q7 19 13 50q-16 -12 -23 -27l-6 -12q-14 -35 -34.5 -61.5t-39.5 -41.5q-14 -10 -28.5 -19z" />
<glyph unicode="&#xc4;" horiz-adv-x="1671" d="M6 0v33q68 12 113 27.5t76.5 41t57.5 67.5t52 107q25 61 88 220q27 68 65 162t90 221t119.5 291.5t151.5 373.5h39q14 -37 51 -124t85 -203.5t103.5 -251t110 -263.5t100.5 -243.5t76 -190.5q41 -104 112 -164.5t181 -70.5v-33h-639v33q33 6 60.5 13t45 21.5t24 35 t-6.5 51.5q-10 35 -31 88q-16 47 -43.5 121.5t-68.5 185.5h-469q-39 -100 -60.5 -159.5t-33.5 -92.5q-14 -37 -19 -53q-10 -31 -19 -62.5t-9 -50.5q0 -31 14 -49.5t36.5 -28.5t49.5 -14t53 -6v-33h-555zM307 115.5q0 -11.5 4 -21.5t11 -20q16 -25 98 -29q18 0 17 1t-11 7 t-22.5 19.5t-16.5 36.5t2 49t12 41q2 6 13.5 36.5t26 72.5t30.5 88t31 83q4 12 9 25.5t9 36.5q0 6 -2 14q-2 6 -6 16.5t-14 20.5l-185 -451q-6 -14 -6 -25.5zM506 627q106 -2 170.5 -2t99.5 2q41 0 58 2q12 0 24 4q10 2 21.5 5t21.5 7l-61 -2h-279l209 553q4 31 4 50.5v29.5 q0 12 -2 20q-6 -6 -37 -77q-12 -31 -32.5 -79t-48 -119t-64.5 -168t-84 -226zM545 1720q0 43 31.5 74t74.5 31t75 -31t32 -74q0 -47 -31 -76.5t-76 -29.5t-75.5 29.5t-30.5 76.5zM584 653h401l-190 512q0 4 -3.5 11.5t-5.5 7.5q-4 0 -8 -8zM637 1800q29 -4 48.5 -23.5 t23.5 -47.5q4 -35 -16.5 -61t-53.5 -30q10 -2 31 -2q35 4 57 31t18 62t-30.5 57t-61.5 18q-8 0 -16 -4zM840 1440q0 -23 4 -41q0 -14 6 -37q4 -18 13 -47t26 -70l393 -1042q4 -35 27.5 -60.5t52.5 -44.5q31 -23 70 -37q14 -4 34 -8q16 -4 37.5 -5t46.5 3q-23 10 -41 20.5 t-30 20.5q-14 10 -27 23q-14 14 -27 32q-12 16 -25.5 39t-25.5 54l-526 1280q-6 -20 -7 -41t-1 -39zM897 1718q0 45 32 76t75 31q45 0 74.5 -32t29.5 -75q0 -45 -29.5 -75.5t-74.5 -30.5q-43 0 -75 30.5t-32 75.5zM987 1800q29 -4 49.5 -23.5t24.5 -47.5q4 -35 -16.5 -61 t-53.5 -30q10 -2 31 -2q35 4 57.5 31t18.5 62t-31 57t-61 18q-6 0 -19 -4z" />
<glyph unicode="&#xc5;" horiz-adv-x="1671" d="M6 0v33q68 12 113 27.5t76.5 41t57.5 67.5t52 107q25 61 88 220q27 68 65 162t90 221t119.5 291.5t151.5 373.5h39q14 -37 51 -124t85 -203.5t103.5 -251t110 -263.5t100.5 -243.5t76 -190.5q41 -104 112 -164.5t181 -70.5v-33h-639v33q33 6 60.5 13t45 21.5t24 35 t-6.5 51.5q-10 35 -31 88q-16 47 -43.5 121.5t-68.5 185.5h-469q-39 -100 -60.5 -159.5t-33.5 -92.5q-14 -37 -19 -53q-10 -31 -19 -62.5t-9 -50.5q0 -31 14 -49.5t36.5 -28.5t49.5 -14t53 -6v-33h-555zM307 115.5q0 -11.5 4 -21.5t11 -20q16 -25 98 -29q18 0 17 1t-11 7 t-22.5 19.5t-16.5 36.5t2 49t12 41q2 6 13.5 36.5t26 72.5t30.5 88t31 83q4 12 9 25.5t9 36.5q0 6 -2 14q-2 6 -6 16.5t-14 20.5l-185 -451q-6 -14 -6 -25.5zM506 627q106 -2 170.5 -2t99.5 2q41 0 58 2q12 0 24 4q10 2 21.5 5t21.5 7l-61 -2h-279l209 553q4 31 4 50.5v29.5 q0 12 -2 20q-6 -6 -37 -77q-12 -31 -32.5 -79t-48 -119t-64.5 -168t-84 -226zM584 653h401l-190 512q0 4 -3.5 11.5t-5.5 7.5q-4 0 -8 -8zM633 1823q0 86 57.5 143t143.5 57q43 0 78.5 -15t63.5 -42t43 -63.5t15 -79.5q0 -86 -57 -144.5t-143 -58.5t-143.5 58.5t-57.5 144.5 zM667 1843.5q-5 -24.5 3 -53.5q8 -23 22 -39q12 -16 31.5 -27.5t50.5 -15.5q-23 10 -37 24.5t-22 28.5q-8 16 -13 35q-4 31 3 57q4 23 18 47.5t45 41.5q-18 -2 -33.5 -10.5t-25.5 -18.5q-12 -12 -25 -27q-12 -18 -17 -42.5zM719 1817q2 -47 34.5 -78t80.5 -31q53 0 83.5 37 t30.5 78q0 47 -32.5 80.5t-79.5 33.5q-53 -2 -86 -34.5t-31 -85.5zM840 1440q0 -23 4 -41q0 -14 6 -37q4 -18 13 -47t26 -70l393 -1042q4 -35 27.5 -60.5t52.5 -44.5q31 -23 70 -37q14 -4 34 -8q16 -4 37.5 -5t46.5 3q-23 10 -41 20.5t-30 20.5q-14 10 -27 23q-14 14 -27 32 q-12 16 -25.5 39t-25.5 54l-526 1280q-6 -20 -7 -41t-1 -39zM905 1972q29 -16 46.5 -39.5t25.5 -44.5q8 -25 10 -49q2 -25 -4 -49q-4 -23 -14.5 -48.5t-30.5 -47.5q27 12 42 33.5t26 41.5q10 23 14 50q4 33 -5 58.5t-24 41.5q-10 14 -24 25q-12 10 -28.5 18t-33.5 10z" />
<glyph unicode="&#xc6;" horiz-adv-x="2195" d="M37 0v33q72 12 124 27.5t97 41t88 67.5t94 107q41 59 142 195q86 115 246.5 324t424.5 544q-8 39 -25.5 58.5t-45 31t-65.5 15.5t-89 12v35h809q109 0 153 7t62 36l27 -10l-23 -326h-37q-4 41 -12 68.5t-18 44.5q-10 20 -25 30q-35 29 -91 35t-110 6l-258 2v-555h344 q33 0 55.5 7.5t38 22.5t26.5 35.5t22 49.5q0 -2 4 -2q4 -2 8 -2t12 -4l-18 -375l-31 2q0 8 -2 26.5t-8 41.5q-8 31 -30.5 64.5t-72.5 33.5h-348v-164v-66.5t1 -77.5t1 -77v-59q0 -104 48.5 -150.5t185.5 -36.5q29 2 41 3t20 1t18.5 1t37.5 6q45 6 82.5 16t69.5 34.5 t60.5 69.5t55.5 119l37 -8l-66 -264q-4 -14 -9 -27.5t-15.5 -24t-27.5 -16.5t-48 -6l-965 -2v35q57 8 99.5 18t70 29.5t41.5 52.5t17 88q2 45 2 135.5v192.5h-476q-76 -100 -120.5 -159.5t-69.5 -92.5q-29 -37 -39 -55q-23 -31 -43 -62.5t-29 -50.5q-12 -31 -5 -49.5 t25.5 -28.5t45.5 -14t51 -6v-33h-565zM379 94q0 -10 2 -20q4 -14 26.5 -20.5t57.5 -8.5q23 0 22 2q0 2 -4 2t-8 4q-18 14 -17 36t11 48q20 39 53 85t72 97.5t81 106t81 111.5q4 10 6 18q4 18 -10 39l-355 -453q-18 -25 -18 -47zM772 627l391 2q12 2 25 6q10 4 23.5 6t25.5 6 l-63 -2h-340l419 576q10 18 11 45q0 10 -2 22q0 -4 -52 -74l-57.5 -77.5t-86.5 -117.5t-125 -167t-169 -225zM860 655h402v205v168t-2 172q-4 -4 -5 -6zM1300.5 1427.5q-4.5 -6.5 6.5 -10.5q25 -18 39 -36.5t14 -59.5q0 -25 2 -154q0 -55 1 -139t1 -203.5t1 -280.5t3 -372 q4 -47 26.5 -66.5t55.5 -31.5q31 -10 96.5 -16.5t141.5 3.5q25 2 45 7q16 4 32.5 9t20.5 11q-41 -10 -77 -10t-64 4q-33 4 -62 12q-27 10 -48.5 28.5t-31.5 41.5q-8 23 -14 49.5t-6 54.5v70.5t-1 121t-3 123t-4 74.5q-4 12 -13 27q-8 12 -20 25.5t-35 29.5l-31 21q0 8 6 14 q2 2 7 4q4 2 46 3t97 3t109.5 3t84.5 6q74 8 95.5 17t3.5 9h-60q-37 0 -103.5 -1t-176.5 1l-4 520q0 16 -14.5 30.5t-29 27t-20.5 19.5t10 11q25 4 72 6.5t101.5 2.5h106.5h85q25 0 60.5 -1t70.5 2t66 12.5t45 29.5q4 8 -46.5 -2.5t-154.5 -6.5q-115 4 -199 1t-178 -5 q-23 0 -54.5 -5t-58.5 -13q-18 -4 -28 -10q-10 -4 -14.5 -10.5zM1952 786q-6 -8 8 -33.5t20 -66.5q0 -4 1 7.5t2.5 28.5t3.5 36.5t2 34.5v24q0 10 -2 15.5t-7 1.5q-10 -25 -18 -35q-6 -8 -10 -13zM1978 1434q-4 -4 10.5 -10.5t22.5 -16.5q2 -2 6 -8q8 -12 19 -23q4 -2 8 8 q2 4 4 11l4 16t2 18.5t2 26.5l2 27q-6 -10 -13 -15.5t-13 -9.5q-8 -6 -15 -8q-23 -8 -29 -10t-10 -6zM2001 84q-4 -2 11.5 -5t27.5 -18q2 -2 4 -6q4 -6 10 -10q0 -4 2 -3t4 5l4 8q4 8 9 17q4 10 14 51l16 72q-10 -18 -18 -31.5t-14 -24.5q-8 -10 -15 -18 q-10 -10 -25.5 -21.5t-29.5 -15.5z" />
<glyph unicode="&#xc7;" horiz-adv-x="1601" d="M117 750q0 186 72.5 329.5t193.5 240.5t277.5 147.5t326.5 50.5q135 0 225.5 -19.5t133.5 -23.5q47 -4 77.5 -3t61.5 13l26 -12l-26 -369l-37 2q-16 92 -56 153.5t-100.5 98.5t-141.5 52t-177 15q-133 0 -238.5 -48t-179.5 -132t-113 -198.5t-39 -247.5 q0 -182 57.5 -318.5t147.5 -228.5t204 -138t228 -46q115 0 197 23.5t145 86.5q41 41 64.5 90t40.5 90l37 -14l-99 -315q-49 -23 -113.5 -35t-125 -18.5t-105.5 -8.5t-57 -2q-14 0 -28.5 1t-28.5 1v-80q12 2 25.5 2h25.5q70 0 112 -43q23 -23 34.5 -53.5t10.5 -61t-14.5 -60 t-40.5 -50.5q-53 -41 -141 -41q-66 0 -131.5 19.5t-124.5 48.5l22 41q41 -23 101.5 -33t107.5 -10q25 0 55.5 20.5t30.5 69.5q0 27 -17 43t-41 23.5t-46.5 8.5t-32.5 -1v161q-162 14 -305 69.5t-249.5 153t-169 235.5t-62.5 321zM250 784q-2 -84 12 -162.5t38 -146 t54.5 -122t61.5 -89.5q33 -35 76 -67.5t91 -59t97 -45t96 -24.5q35 -4 52.5 -3t22.5 4t2 7t-7 6q-25 6 -43.5 12t-35.5 14.5t-36.5 19.5t-50.5 30q-43 25 -77 57.5t-58.5 65t-43 61.5t-30.5 47t-29.5 59t-33 97.5t-26.5 127t-7 146.5q6 152 46 252t103 186q27 33 64 64 q33 27 80.5 54.5t113.5 47.5q33 6 53.5 9.5t32.5 7.5q14 4 23 6q4 2 -5 4t-28.5 2t-44.5 -2t-51 -8q-25 -6 -64 -19.5t-82 -35t-89 -51t-87 -70.5q-29 -29 -61.5 -76t-60 -109.5t-47 -137.5t-21.5 -159zM1001 -133q37 -6 59.5 -22.5t35.5 -32.5q14 -20 20 -43q8 -39 0 -68 t-20.5 -46t-20.5 -25.5t-2 -6.5q20 4 36.5 14.5t27.5 22.5q10 12 18 36.5t6 53.5t-19.5 59.5t-45.5 47.5q-12 4 -25 10q-10 4 -24.5 7t-28.5 -1zM1243 51q0 -4 9.5 -2t26.5 5t38.5 5t44.5 -2q6 -2 14 -4q14 -4 25 -10q25 68 38 104.5t17 53.5q6 20 4 24q-8 2 -24.5 -28.5 t-46.5 -67.5q-20 -25 -39 -37t-39 -20t-43 -11.5t-25 -9.5zM1386 1378q8 -14 19.5 -42.5t24.5 -55.5q6 -14 11 -32.5t9 -35t7 -27.5t7 -11q2 0 4 2q4 4 5 14l18 270l-29 -28q-6 -8 -21.5 -15.5t-29.5 -11.5q-16 -4 -23.5 -9t-1.5 -18z" />
<glyph unicode="&#xc8;" horiz-adv-x="1345" d="M125 1454v35h809q109 0 152.5 7t62.5 36l27 -10l-23 -326h-37q-4 41 -12 68.5t-19 44.5q-10 20 -24 30q-35 29 -91.5 35t-109.5 6l-258 2v-555h344q33 0 55.5 7.5t38 22.5t26.5 35.5t21 49.5q0 -2 5 -2q4 -2 8 -2t12 -4l-18 -375l-31 2q0 8 -2 26.5t-8 41.5 q-8 31 -31 64.5t-72 33.5h-348v-164v-66.5t1 -77.5t1 -77v-59q0 -104 48 -150.5t186 -36.5q29 2 41 3t20 1t18.5 1t36.5 5q45 6 83 16.5t70 35t60.5 69.5t55.5 119l37 -8l-66 -264q-4 -14 -9 -27.5t-15.5 -24t-28 -16.5t-47.5 -6l-965 -2v35q57 8 99 18t70 29.5t42 52.5 t16 88q2 43 2 129v183.5v186.5v138v211t-4 197q-2 55 -16 87.5t-43 52t-71 30t-99 18.5zM336 1858l24 102l105 35l313 -338l-28 -37zM397.5 1425.5q-4.5 -6.5 5.5 -10.5q25 -18 39.5 -36.5t14.5 -59.5q0 -25 2 -154q0 -55 1 -139t1 -204t1 -280.5t3 -371.5q4 -47 26.5 -66.5 t55.5 -31.5q31 -10 96.5 -16.5t140.5 3.5q25 2 45 7q16 4 33 9t21 11q-41 -10 -77 -10t-65 4q-33 4 -61 12q-27 10 -48.5 28.5t-31.5 41.5q-8 23 -14 49.5t-6 54.5v70.5t-1 121t-3.5 123t-4.5 74.5q-4 12 -12 27q-8 12 -20.5 25.5t-34.5 29.5l-31 21q0 8 6 14q2 2 6 4t46 3 t97.5 3t110 3t84.5 6q74 8 95.5 17t3.5 9h-60q-37 0 -103.5 -1t-176.5 1l-4 520q0 16 -14.5 30.5t-29 27t-20.5 19.5t10 11q25 4 72 6.5t101.5 2.5h106.5h85q25 0 60.5 -1t70.5 2t65.5 12.5t44.5 29.5q4 8 -46 -2.5t-154 -6.5q-115 4 -199 1t-178 -5q-23 0 -54.5 -5 t-58.5 -13q-18 -4 -28 -10q-10 -4 -14.5 -10.5zM444 1944q-2 -27 17 -50q20 -20 57 -51q31 -27 83 -65.5t134 -91.5l-274 292q-10 -10 -15 -24q-2 -6 -2 -10zM1049 784q-6 -8 8 -33.5t20 -66.5q0 -4 1 7t2 28.5t3 37t2 34.5v24q0 10 -2 15.5t-6 0.5q-10 -25 -18 -34 q-6 -8 -10 -13zM1075 1432q-4 -4 10.5 -10.5t22.5 -16.5q2 -2 6 -8q8 -12 19 -23q4 -2 8 8q2 4 4 11l4 16t2 18.5t2 26.5l2 27q-6 -10 -13 -15.5t-14 -9.5q-8 -6 -14 -8q-23 -8 -29 -10t-10 -6zM1098 82q-4 -2 11 -5t28 -18q2 -2 4 -6q4 -6 10 -10q0 -4 2 -3t4 5l4 8 q4 8 8 17q4 10 15 51l16 72q-10 -18 -18 -32t-15 -24q-8 -10 -14 -18q-10 -10 -25.5 -21.5t-29.5 -15.5z" />
<glyph unicode="&#xc9;" horiz-adv-x="1345" d="M125 1454v35h809q109 0 152.5 7t62.5 36l27 -10l-23 -326h-37q-4 41 -12 68.5t-19 44.5q-10 20 -24 30q-35 29 -91.5 35t-109.5 6l-258 2v-555h344q33 0 55.5 7.5t38 22.5t26.5 35.5t21 49.5q0 -2 5 -2q4 -2 8 -2t12 -4l-18 -375l-31 2q0 8 -2 26.5t-8 41.5 q-8 31 -31 64.5t-72 33.5h-348v-164v-66.5t1 -77.5t1 -77v-59q0 -104 48 -150.5t186 -36.5q29 2 41 3t20 1t18.5 1t36.5 5q45 6 83 16.5t70 35t60.5 69.5t55.5 119l37 -8l-66 -264q-4 -14 -9 -27.5t-15.5 -24t-28 -16.5t-47.5 -6l-965 -2v35q57 8 99 18t70 29.5t42 52.5 t16 88q2 43 2 129v183.5v186.5v138v211t-4 197q-2 55 -16 87.5t-43 52t-71 30t-99 18.5zM397.5 1425.5q-4.5 -6.5 5.5 -10.5q25 -18 39.5 -36.5t14.5 -59.5q0 -25 2 -154q0 -55 1 -139t1 -204t1 -280.5t3 -371.5q4 -47 26.5 -66.5t55.5 -31.5q31 -10 96.5 -16.5t140.5 3.5 q25 2 45 7q16 4 33 9t21 11q-41 -10 -77 -10t-65 4q-33 4 -61 12q-27 10 -48.5 28.5t-31.5 41.5q-8 23 -14 49.5t-6 54.5v70.5t-1 121t-3.5 123t-4.5 74.5q-4 12 -12 27q-8 12 -20.5 25.5t-34.5 29.5l-31 21q0 8 6 14q2 2 6 4t46 3t97.5 3t110 3t84.5 6q74 8 95.5 17t3.5 9 h-60q-37 0 -103.5 -1t-176.5 1l-4 520q0 16 -14.5 30.5t-29 27t-20.5 19.5t10 11q25 4 72 6.5t101.5 2.5h106.5h85q25 0 60.5 -1t70.5 2t65.5 12.5t44.5 29.5q4 8 -46 -2.5t-154 -6.5q-115 4 -199 1t-178 -5q-23 0 -54.5 -5t-58.5 -13q-18 -4 -28 -10q-10 -4 -14.5 -10.5z M647 1634l305 353l156 -48l-27 -90l-413 -237zM854 1735l213 127l18 65zM1049 784q-6 -8 8 -33.5t20 -66.5q0 -4 1 7t2 28.5t3 37t2 34.5v24q0 10 -2 15.5t-6 0.5q-10 -25 -18 -34q-6 -8 -10 -13zM1075 1432q-4 -4 10.5 -10.5t22.5 -16.5q2 -2 6 -8q8 -12 19 -23q4 -2 8 8 q2 4 4 11l4 16t2 18.5t2 26.5l2 27q-6 -10 -13 -15.5t-14 -9.5q-8 -6 -14 -8q-23 -8 -29 -10t-10 -6zM1098 82q-4 -2 11 -5t28 -18q2 -2 4 -6q4 -6 10 -10q0 -4 2 -3t4 5l4 8q4 8 8 17q4 10 15 51l16 72q-10 -18 -18 -32t-15 -24q-8 -10 -14 -18q-10 -10 -25.5 -21.5 t-29.5 -15.5z" />
<glyph unicode="&#xca;" horiz-adv-x="1345" d="M125 1454v35h809q109 0 152.5 7t62.5 36l27 -10l-23 -326h-37q-4 41 -12 68.5t-19 44.5q-10 20 -24 30q-35 29 -91.5 35t-109.5 6l-258 2v-555h344q33 0 55.5 7.5t38 22.5t26.5 35.5t21 49.5q0 -2 5 -2q4 -2 8 -2t12 -4l-18 -375l-31 2q0 8 -2 26.5t-8 41.5 q-8 31 -31 64.5t-72 33.5h-348v-164v-66.5t1 -77.5t1 -77v-59q0 -104 48 -150.5t186 -36.5q29 2 41 3t20 1t18.5 1t36.5 5q45 6 83 16.5t70 35t60.5 69.5t55.5 119l37 -8l-66 -264q-4 -14 -9 -27.5t-15.5 -24t-28 -16.5t-47.5 -6l-965 -2v35q57 8 99 18t70 29.5t42 52.5 t16 88q2 43 2 129v183.5v186.5v138v211t-4 197q-2 55 -16 87.5t-43 52t-71 30t-99 18.5zM397.5 1425.5q-4.5 -6.5 5.5 -10.5q25 -18 39.5 -36.5t14.5 -59.5q0 -25 2 -154q0 -55 1 -139t1 -204t1 -280.5t3 -371.5q4 -47 26.5 -66.5t55.5 -31.5q31 -10 96.5 -16.5t140.5 3.5 q25 2 45 7q16 4 33 9t21 11q-41 -10 -77 -10t-65 4q-33 4 -61 12q-27 10 -48.5 28.5t-31.5 41.5q-8 23 -14 49.5t-6 54.5v70.5t-1 121t-3.5 123t-4.5 74.5q-4 12 -12 27q-8 12 -20.5 25.5t-34.5 29.5l-31 21q0 8 6 14q2 2 6 4t46 3t97.5 3t110 3t84.5 6q74 8 95.5 17t3.5 9 h-60q-37 0 -103.5 -1t-176.5 1l-4 520q0 16 -14.5 30.5t-29 27t-20.5 19.5t10 11q25 4 72 6.5t101.5 2.5h106.5h85q25 0 60.5 -1t70.5 2t65.5 12.5t44.5 29.5q4 8 -46 -2.5t-154 -6.5q-115 4 -199 1t-178 -5q-23 0 -54.5 -5t-58.5 -13q-18 -4 -28 -10q-10 -4 -14.5 -10.5z M412 1626q66 92 130 178t126 172h80q63 -92 127.5 -178t128.5 -174l-25 -16q-72 51 -132.5 100t-137.5 100q-70 -43 -137.5 -97t-139.5 -107zM444 1634l234 178q-27 6 -37 5q-8 -2 -12 -5q-12 -8 -37 -30q-23 -18 -58.5 -53t-89.5 -95zM717 1913q0 -6 1 -13.5t5 -15.5 l242 -233l-224 305q-14 -14 -18 -21q-4 -6 -4 -10q-2 -4 -2 -12zM1049 784q-6 -8 8 -33.5t20 -66.5q0 -4 1 7t2 28.5t3 37t2 34.5v24q0 10 -2 15.5t-6 0.5q-10 -25 -18 -34q-6 -8 -10 -13zM1075 1432q-4 -4 10.5 -10.5t22.5 -16.5q2 -2 6 -8q8 -12 19 -23q4 -2 8 8q2 4 4 11 l4 16t2 18.5t2 26.5l2 27q-6 -10 -13 -15.5t-14 -9.5q-8 -6 -14 -8q-23 -8 -29 -10t-10 -6zM1098 82q-4 -2 11 -5t28 -18q2 -2 4 -6q4 -6 10 -10q0 -4 2 -3t4 5l4 8q4 8 8 17q4 10 15 51l16 72q-10 -18 -18 -32t-15 -24q-8 -10 -14 -18q-10 -10 -25.5 -21.5t-29.5 -15.5z " />
<glyph unicode="&#xcb;" horiz-adv-x="1345" d="M125 1454v35h809q109 0 152.5 7t62.5 36l27 -10l-23 -326h-37q-4 41 -12 68.5t-19 44.5q-10 20 -24 30q-35 29 -91.5 35t-109.5 6l-258 2v-555h344q33 0 55.5 7.5t38 22.5t26.5 35.5t21 49.5q0 -2 5 -2q4 -2 8 -2t12 -4l-18 -375l-31 2q0 8 -2 26.5t-8 41.5 q-8 31 -31 64.5t-72 33.5h-348v-164v-66.5t1 -77.5t1 -77v-59q0 -104 48 -150.5t186 -36.5q29 2 41 3t20 1t18.5 1t36.5 5q45 6 83 16.5t70 35t60.5 69.5t55.5 119l37 -8l-66 -264q-4 -14 -9 -27.5t-15.5 -24t-28 -16.5t-47.5 -6l-965 -2v35q57 8 99 18t70 29.5t42 52.5 t16 88q2 43 2 129v183.5v186.5v138v211t-4 197q-2 55 -16 87.5t-43 52t-71 30t-99 18.5zM397.5 1425.5q-4.5 -6.5 5.5 -10.5q25 -18 39.5 -36.5t14.5 -59.5q0 -25 2 -154q0 -55 1 -139t1 -204t1 -280.5t3 -371.5q4 -47 26.5 -66.5t55.5 -31.5q31 -10 96.5 -16.5t140.5 3.5 q25 2 45 7q16 4 33 9t21 11q-41 -10 -77 -10t-65 4q-33 4 -61 12q-27 10 -48.5 28.5t-31.5 41.5q-8 23 -14 49.5t-6 54.5v70.5t-1 121t-3.5 123t-4.5 74.5q-4 12 -12 27q-8 12 -20.5 25.5t-34.5 29.5l-31 21q0 8 6 14q2 2 6 4t46 3t97.5 3t110 3t84.5 6q74 8 95.5 17t3.5 9 h-60q-37 0 -103.5 -1t-176.5 1l-4 520q0 16 -14.5 30.5t-29 27t-20.5 19.5t10 11q25 4 72 6.5t101.5 2.5h106.5h85q25 0 60.5 -1t70.5 2t65.5 12.5t44.5 29.5q4 8 -46 -2.5t-154 -6.5q-115 4 -199 1t-178 -5q-23 0 -54.5 -5t-58.5 -13q-18 -4 -28 -10q-10 -4 -14.5 -10.5z M422 1720q0 43 31.5 74t74.5 31t75 -31t32 -74q0 -47 -31 -76.5t-76 -29.5t-75.5 29.5t-30.5 76.5zM514 1800q29 -4 48.5 -23.5t23.5 -47.5q4 -35 -16.5 -61t-53.5 -30q10 -2 31 -2q35 4 57.5 31t18.5 62t-31 57t-62 18q-8 0 -16 -4zM774 1718q0 45 32 76t75 31 q45 0 74.5 -32t29.5 -75q0 -45 -29.5 -75.5t-74.5 -30.5q-43 0 -75 30.5t-32 75.5zM864 1800q29 -4 49.5 -23.5t24.5 -47.5q4 -35 -16.5 -61t-53.5 -30q10 -2 31 -2q35 4 57.5 31t18.5 62t-30.5 57t-61.5 18q-6 0 -19 -4zM1049 784q-6 -8 8 -33.5t20 -66.5q0 -4 1 7t2 28.5 t3 37t2 34.5v24q0 10 -2 15.5t-6 0.5q-10 -25 -18 -34q-6 -8 -10 -13zM1075 1432q-4 -4 10.5 -10.5t22.5 -16.5q2 -2 6 -8q8 -12 19 -23q4 -2 8 8q2 4 4 11l4 16t2 18.5t2 26.5l2 27q-6 -10 -13 -15.5t-14 -9.5q-8 -6 -14 -8q-23 -8 -29 -10t-10 -6zM1098 82q-4 -2 11 -5 t28 -18q2 -2 4 -6q4 -6 10 -10q0 -4 2 -3t4 5l4 8q4 8 8 17q4 10 15 51l16 72q-10 -18 -18 -32t-15 -24q-8 -10 -14 -18q-10 -10 -25.5 -21.5t-29.5 -15.5z" />
<glyph unicode="&#xcc;" horiz-adv-x="956" d="M90 1858l25 102l104 35l313 -338l-28 -37zM129 1456v33h702v-33q-59 -8 -101 -18.5t-69.5 -29.5t-42 -52t-16.5 -88q-2 -43 -3 -98.5t-1 -115t1 -117.5t1 -108v-134t1 -176t2 -173t3 -125q2 -53 16.5 -86t42 -53.5t69.5 -29.5t100 -17v-35h-701v35q63 6 104.5 22.5t66 41 t35.5 58t15 76.5q4 35 4 77v108l-4 653q-2 66 -1 116t-3 85q-4 43 -15 74.5t-36 54t-65.5 36t-104.5 19.5zM199 1944q-2 -27 16 -50q20 -20 57 -51q31 -27 83.5 -65.5t133.5 -91.5l-274 292q-10 -10 -14 -24q-2 -6 -2 -10zM385 1423q-12 -4 1 -10t36 -20q35 -27 44 -64 t9 -119v-121.5t-1 -200.5t-1 -301v-423q0 -39 16.5 -60.5t42 -33t56 -13.5t59.5 -2q10 0 9 4t-8 11.5t-16 15.5t-18 18q-20 25 -26 59t-6 62q-2 23 -2 137v122v178.5v247t2 323.5q0 80 14 122t57 68q31 18 68 26.5t37 12.5q0 2 -8 4t-24.5 0t-51.5 -8q-47 -10 -91 -29.5 t-77 -23.5q-53 -6 -82 7t-39 11z" />
<glyph unicode="&#xcd;" horiz-adv-x="956" d="M129 1456v33h702v-33q-59 -8 -101 -18.5t-69.5 -29.5t-42 -52t-16.5 -88q-2 -43 -3 -98.5t-1 -115t1 -117.5t1 -108v-134t1 -176t2 -173t3 -125q2 -53 16.5 -86t42 -53.5t69.5 -29.5t100 -17v-35h-701v35q63 6 104.5 22.5t66 41t35.5 58t15 76.5q4 35 4 77v108l-4 653 q-2 66 -1 116t-3 85q-4 43 -15 74.5t-36 54t-65.5 36t-104.5 19.5zM385 1423q-12 -4 1 -10t36 -20q35 -27 44 -64t9 -119v-121.5t-1 -200.5t-1 -301v-423q0 -39 16.5 -60.5t42 -33t56 -13.5t59.5 -2q10 0 9 4t-8 11.5t-16 15.5t-18 18q-20 25 -26 59t-6 62q-2 23 -2 137v122 v178.5v247t2 323.5q0 80 14 122t57 68q31 18 68 26.5t37 12.5q0 2 -8 4t-24.5 0t-51.5 -8q-47 -10 -91 -29.5t-77 -23.5q-53 -6 -82 7t-39 11zM449 1634l305 353l155 -48l-26 -90l-414 -237zM655 1735l213 127l19 65z" />
<glyph unicode="&#xce;" horiz-adv-x="956" d="M129 1456v33h702v-33q-59 -8 -101 -18.5t-69.5 -29.5t-42 -52t-16.5 -88q-2 -43 -3 -98.5t-1 -115t1 -117.5t1 -108v-134t1 -176t2 -173t3 -125q2 -53 16.5 -86t42 -53.5t69.5 -29.5t100 -17v-35h-701v35q63 6 104.5 22.5t66 41t35.5 58t15 76.5q4 35 4 77v108l-4 653 q-2 66 -1 116t-3 85q-4 43 -15 74.5t-36 54t-65.5 36t-104.5 19.5zM184 1626q66 92 130.5 178t125.5 172h80q63 -92 128 -178t128 -174l-24 -16q-72 51 -132.5 100t-138.5 100q-70 -43 -137.5 -97t-138.5 -107zM217 1634l234 178q-27 6 -37 5q-8 -2 -13 -5q-12 -8 -36 -30 q-23 -18 -59 -53t-89 -95zM385 1423q-12 -4 1 -10t36 -20q35 -27 44 -64t9 -119v-121.5t-1 -200.5t-1 -301v-423q0 -39 16.5 -60.5t42 -33t56 -13.5t59.5 -2q10 0 9 4t-8 11.5t-16 15.5t-18 18q-20 25 -26 59t-6 62q-2 23 -2 137v122v178.5v247t2 323.5q0 80 14 122t57 68 q31 18 68 26.5t37 12.5q0 2 -8 4t-24.5 0t-51.5 -8q-47 -10 -91 -29.5t-77 -23.5q-53 -6 -82 7t-39 11zM489 1913q0 -6 1.5 -13.5t5.5 -15.5l241 -233l-223 305q-14 -14 -18 -21q-4 -6 -4 -10q-2 -4 -3 -12z" />
<glyph unicode="&#xcf;" horiz-adv-x="956" d="M129 1456v33h702v-33q-59 -8 -101 -18.5t-69.5 -29.5t-42 -52t-16.5 -88q-2 -43 -3 -98.5t-1 -115t1 -117.5t1 -108v-134t1 -176t2 -173t3 -125q2 -53 16.5 -86t42 -53.5t69.5 -29.5t100 -17v-35h-701v35q63 6 104.5 22.5t66 41t35.5 58t15 76.5q4 35 4 77v108l-4 653 q-2 66 -1 116t-3 85q-4 43 -15 74.5t-36 54t-65.5 36t-104.5 19.5zM186 1720q0 43 32 74t75 31t74.5 -31t31.5 -74q0 -47 -30.5 -76.5t-75.5 -29.5t-76 29.5t-31 76.5zM279 1800q29 -4 48 -23.5t23 -47.5q4 -35 -16.5 -61t-52.5 -30q10 -2 30 -2q35 4 57.5 31t18.5 62 t-30.5 57t-61.5 18q-8 0 -16 -4zM385 1423q-12 -4 1 -10t36 -20q35 -27 44 -64t9 -119v-121.5t-1 -200.5t-1 -301v-423q0 -39 16.5 -60.5t42 -33t56 -13.5t59.5 -2q10 0 9 4t-8 11.5t-16 15.5t-18 18q-20 25 -26 59t-6 62q-2 23 -2 137v122v178.5v247t2 323.5q0 80 14 122 t57 68q31 18 68 26.5t37 12.5q0 2 -8 4t-24.5 0t-51.5 -8q-47 -10 -91 -29.5t-77 -23.5q-53 -6 -82 7t-39 11zM539 1718q0 45 31.5 76t74.5 31q45 0 75 -32t30 -75q0 -45 -30 -75.5t-75 -30.5q-43 0 -74.5 30.5t-31.5 75.5zM629 1800q29 -4 49 -23.5t24 -47.5q4 -35 -16 -61 t-53 -30q10 -2 31 -2q35 4 57 31t18 62t-30.5 57t-61.5 18q-6 0 -18 -4z" />
<glyph unicode="&#xd0;" horiz-adv-x="1873" d="M125 1452v37h352q70 0 157 1t179 1q96 0 199.5 -9t203 -37t190.5 -76t165 -126q78 -82 132 -200.5t54 -284.5q0 -188 -69.5 -332.5t-189.5 -244t-278.5 -150.5t-334.5 -51q-98 0 -208 10t-202 10l-346 -2v35q57 8 99 17t70 29.5t42 53.5t16 88q2 31 3 85t1 121t-1 138.5 t-1 134.5q-98 -2 -145 -4t-70 -6v103q55 -6 108.5 -8.5t106.5 -2.5v76v103.5v107.5t-1 103.5t-3 93.5q-2 49 -16 81.5t-42 53t-71 32t-100 19.5zM336 1448q0 -8 20 -16q18 -8 31.5 -16.5t24.5 -14.5l16 -15q20 -23 24.5 -51t4.5 -49v-54t-1 -128t-1 -177.5t-1 -202.5 t-1 -201.5t1 -177.5t2 -129t3 -56q6 -35 26.5 -54.5t49.5 -33.5q74 -33 202 -39q117 -4 189.5 5t107.5 17l23 8q25 10 24 15l-49 -8q-8 -2 -24 -2q-29 -4 -91.5 -12.5t-173.5 12.5q-78 16 -120.5 72.5t-42.5 121.5v51t-1 91.5t-1 109.5v107q0 33 -17.5 56t-46.5 36l-31 16 q-4 4 -1 6t5 2h37t71 1t82 2t71 3q74 8 96 13.5t12 13.5q-10 -2 -23.5 -2t-31.5 -2q-31 -2 -83 -2t-138 2v528q2 33 5 55.5t19 39.5q14 16 40 28.5t48 16.5q125 20 201 11t113 -13q14 0 -31 12t-144 18q-41 4 -93 1t-85 -7q-29 -4 -62.5 -12t-60.5 -21q-29 -12 -55 -8 t-45 10q-18 6 -51 16.5t-39 10.5q-4 0 -4 -4zM600 629q0 -135 1 -232.5t3 -148.5q10 -57 35 -92t60.5 -54.5t82.5 -26.5t103 -7q156 0 268.5 45t186 128t108.5 202.5t35 269.5q0 162 -61.5 289.5t-165 217t-240.5 136.5t-291 47q-49 0 -83 -13.5t-38 -70.5q-4 -86 -4 -198.5 v-254.5v-84q86 2 169 3t169 10v-105q-78 8 -165 9t-173 1v-71zM1303.5 1355q-7.5 -9 23.5 -32q31 -20 75 -72.5t86 -125t72.5 -163t34.5 -184.5q6 -113 -8 -197.5t-37.5 -147t-50 -103.5t-47.5 -66q-12 -16 -28.5 -32.5t-30 -29t-23.5 -21.5t-10 -11q0 -6 26.5 3t63.5 29.5 t78 49.5t69 61q29 35 55.5 85.5t46 112.5t31 136t7.5 156q-6 117 -38 203t-72 145t-80 95t-62 52q-37 27 -78 43.5t-68.5 19.5t-35 -6z" />
<glyph unicode="&#xd1;" horiz-adv-x="1935" d="M104 1456v33h418q188 -207 332.5 -364.5t252 -274.5t181.5 -198t123 -134q113 -125 135 -145h4q2 0 2 2v2v57t-1 124t-2 155t-1 147q-2 98 -6 210t-8 198q-2 55 -16.5 88t-42 52t-70.5 29.5t-100 18.5v33h593v-33q-63 -6 -104 -17.5t-65.5 -33t-37 -54t-14.5 -81.5 q-2 -35 -2 -84t-2 -115l-4 -344l-6 -637v-31q0 -16 -1 -35.5t-1 -48.5l-35 -8q-180 188 -326.5 341t-262 273.5t-204 213t-151.5 159.5q-152 158 -223 232q0 -25 -1 -57.5t-1 -65.5l-2 -340l2 -299v-124t4 -91q4 -43 14 -73t37 -50t72 -32.5t118 -18.5v-35h-593v35 q57 8 99 18t69.5 29.5t42 52.5t16.5 88q0 27 1 76t1 109.5v126v127v113.5v85v210t-4 198q-2 55 -16.5 88t-43 52t-70.5 29.5t-100 18.5zM314.5 1435q2.5 -5 11.5 -10q33 -12 61.5 -24t59 -32.5t64.5 -51.5t77 -80q41 -47 99 -110.5t121.5 -133t129.5 -139.5t122 -129 t100 -104.5t65 -63.5q53 -45 104 -82q43 -31 88 -55.5t78 -20.5l-864 940q-16 18 -37 40t-39 41.5t-31.5 31.5t-19.5 12q-12 0 -20.5 -7t-17.5 -16t-20.5 -16.5t-25.5 -7.5q-35 0 -60.5 11.5t-35.5 11.5q-12 0 -9.5 -5zM395 131q2 -27 11 -41l6 -12q4 -6 16 -15.5t43 -15.5 q12 -2 27 -4q24 -4 59 0q-10 4 -22 12l-9 6q-8 4 -27.5 16.5t-29.5 31.5q-10 16 -17.5 44.5t-7.5 57.5v62.5t-1 130t-1 162.5t-1 163t-1 129v62v55q0 31 1 82t5 129q-18 -16 -28 -41t-15.5 -49.5t-6.5 -46t-1 -33.5v-885zM612 1614q4 35 18.5 80t49.5 80q47 47 114.5 44 t127.5 -30q25 -12 53.5 -24.5t57 -19.5t55 -5t49.5 20q10 10 19 29.5t13 42.5h41q-4 -57 -22.5 -96t-42.5 -64q-47 -47 -102.5 -46t-100.5 15q-25 6 -59.5 22.5t-70.5 30t-69.5 16.5t-56.5 -19q-12 -12 -19.5 -35t-11.5 -41h-43zM721 1778q20 4 38.5 0t39.5 -13 q20 -6 65 -21t97 -24q18 -4 36 -4q33 -4 56 6q-20 0 -52 11l-32 12q-25 10 -53.5 22.5t-47.5 18.5q-16 6 -34.5 10t-47.5 4q-29 -2 -52 -14t-13 -8zM1069 1649q6 2 14 4q6 2 14.5 4t14.5 6q18 10 41 38t29 48l6 18q6 19 12 50q-16 -12 -22 -27l-7 -12q-14 -35 -34.5 -61.5 t-38.5 -41.5q-14 -10 -28.5 -19t-0.5 -7zM1602 170q0 -53 8 -71.5t18 -26.5q4 -2 7 14t6.5 41t5.5 52.5t2 45.5q-2 27 0 142q0 49 1 122.5t3 178t3 244t5 321.5q0 29 1 48t3 34q2 16 6 26q6 27 23.5 50.5t54.5 42.5q8 4 10 9t-8 3q-63 -8 -106 -56.5t-43 -152.5v-1067z" />
<glyph unicode="&#xd2;" d="M70 741q0 147 54 287.5t158.5 250.5t257 176.5t351.5 66.5q174 0 320.5 -53.5t254 -151.5t168 -237.5t60.5 -311.5t-61.5 -318.5t-172 -254t-261 -168t-329.5 -60.5q-184 0 -331.5 63.5t-252 170t-160.5 247t-56 293.5zM203 709q6 -86 27.5 -165t51 -146.5t65.5 -121 t71 -86.5t80 -62.5t94 -52t100 -36.5t96 -16q35 -2 52.5 1t22.5 7t2 8t-7 4q-53 10 -103 22.5t-110 47.5q-47 27 -77.5 54.5t-53 55t-37 52t-26.5 42.5q-16 23 -36 63t-37.5 94t-31.5 122t-16 145q-4 147 21.5 261t86.5 225q37 68 90.5 109.5t103.5 66t89 34t47 13.5t-34 1 t-93 -19q-25 -8 -60.5 -24.5t-76.5 -43.5t-83 -62.5t-79 -80.5q-25 -33 -52.5 -84.5t-49 -118t-32.5 -145t-5 -164.5zM354 784q0 -158 41 -291t117 -229t181.5 -150.5t234.5 -54.5q88 0 175 36t154.5 116t109.5 206t42 306q0 154 -41 283t-114.5 223t-178 147.5t-229.5 53.5 q-106 0 -196.5 -42t-156 -124t-102.5 -203t-37 -277zM459 1858l24 102l105 35l313 -338l-29 -37zM567 1944q-2 -27 17 -50q20 -20 57 -51q31 -27 83 -65.5t134 -91.5l-274 292q-10 -10 -15 -24q-2 -6 -2 -10zM1256 1384.5q1 -10.5 34 -28.5t74 -59.5t78 -106t65.5 -151.5 t38.5 -199q8 -111 -3 -201t-31.5 -157.5t-45 -115t-41.5 -73.5q-23 -37 -53.5 -73t-56 -62.5t-43 -42t-15.5 -15.5q55 27 97.5 52.5t78 55.5t66.5 66.5t64 90.5q23 37 46 90t39.5 117.5t23.5 139t-1 154.5q-12 117 -48 200t-77 139.5t-81 89t-64 48.5q-37 25 -72 37.5 t-54.5 13.5t-18.5 -9.5z" />
<glyph unicode="&#xd3;" d="M70 741q0 147 54 287.5t158.5 250.5t257 176.5t351.5 66.5q174 0 320.5 -53.5t254 -151.5t168 -237.5t60.5 -311.5t-61.5 -318.5t-172 -254t-261 -168t-329.5 -60.5q-184 0 -331.5 63.5t-252 170t-160.5 247t-56 293.5zM203 709q6 -86 27.5 -165t51 -146.5t65.5 -121 t71 -86.5t80 -62.5t94 -52t100 -36.5t96 -16q35 -2 52.5 1t22.5 7t2 8t-7 4q-53 10 -103 22.5t-110 47.5q-47 27 -77.5 54.5t-53 55t-37 52t-26.5 42.5q-16 23 -36 63t-37.5 94t-31.5 122t-16 145q-4 147 21.5 261t86.5 225q37 68 90.5 109.5t103.5 66t89 34t47 13.5t-34 1 t-93 -19q-25 -8 -60.5 -24.5t-76.5 -43.5t-83 -62.5t-79 -80.5q-25 -33 -52.5 -84.5t-49 -118t-32.5 -145t-5 -164.5zM354 784q0 -158 41 -291t117 -229t181.5 -150.5t234.5 -54.5q88 0 175 36t154.5 116t109.5 206t42 306q0 154 -41 283t-114.5 223t-178 147.5t-229.5 53.5 q-106 0 -196.5 -42t-156 -124t-102.5 -203t-37 -277zM770 1634l305 353l156 -48l-27 -90l-413 -237zM977 1735l213 127l18 65zM1256 1384.5q1 -10.5 34 -28.5t74 -59.5t78 -106t65.5 -151.5t38.5 -199q8 -111 -3 -201t-31.5 -157.5t-45 -115t-41.5 -73.5q-23 -37 -53.5 -73 t-56 -62.5t-43 -42t-15.5 -15.5q55 27 97.5 52.5t78 55.5t66.5 66.5t64 90.5q23 37 46 90t39.5 117.5t23.5 139t-1 154.5q-12 117 -48 200t-77 139.5t-81 89t-64 48.5q-37 25 -72 37.5t-54.5 13.5t-18.5 -9.5z" />
<glyph unicode="&#xd4;" d="M70 741q0 147 54 287.5t158.5 250.5t257 176.5t351.5 66.5q174 0 320.5 -53.5t254 -151.5t168 -237.5t60.5 -311.5t-61.5 -318.5t-172 -254t-261 -168t-329.5 -60.5q-184 0 -331.5 63.5t-252 170t-160.5 247t-56 293.5zM203 709q6 -86 27.5 -165t51 -146.5t65.5 -121 t71 -86.5t80 -62.5t94 -52t100 -36.5t96 -16q35 -2 52.5 1t22.5 7t2 8t-7 4q-53 10 -103 22.5t-110 47.5q-47 27 -77.5 54.5t-53 55t-37 52t-26.5 42.5q-16 23 -36 63t-37.5 94t-31.5 122t-16 145q-4 147 21.5 261t86.5 225q37 68 90.5 109.5t103.5 66t89 34t47 13.5t-34 1 t-93 -19q-25 -8 -60.5 -24.5t-76.5 -43.5t-83 -62.5t-79 -80.5q-25 -33 -52.5 -84.5t-49 -118t-32.5 -145t-5 -164.5zM354 784q0 -158 41 -291t117 -229t181.5 -150.5t234.5 -54.5q88 0 175 36t154.5 116t109.5 206t42 306q0 154 -41 283t-114.5 223t-178 147.5t-229.5 53.5 q-106 0 -196.5 -42t-156 -124t-102.5 -203t-37 -277zM590 1626q66 92 130 178t126 172h80q63 -92 127.5 -178t128.5 -174l-25 -16q-72 51 -132 100t-138 100q-70 -43 -137.5 -97t-139.5 -107zM623 1634l233 178q-27 6 -37 5q-8 -2 -12 -5q-12 -8 -37 -30q-23 -18 -58.5 -53 t-88.5 -95zM895 1913q0 -6 1 -13.5t5 -15.5l242 -233l-223 305q-14 -14 -19 -21q-4 -6 -4 -10q-2 -4 -2 -12zM1256 1384.5q1 -10.5 34 -28.5t74 -59.5t78 -106t65.5 -151.5t38.5 -199q8 -111 -3 -201t-31.5 -157.5t-45 -115t-41.5 -73.5q-23 -37 -53.5 -73t-56 -62.5 t-43 -42t-15.5 -15.5q55 27 97.5 52.5t78 55.5t66.5 66.5t64 90.5q23 37 46 90t39.5 117.5t23.5 139t-1 154.5q-12 117 -48 200t-77 139.5t-81 89t-64 48.5q-37 25 -72 37.5t-54.5 13.5t-18.5 -9.5z" />
<glyph unicode="&#xd5;" d="M70 741q0 147 54 287.5t158.5 250.5t257 176.5t351.5 66.5q174 0 320.5 -53.5t254 -151.5t168 -237.5t60.5 -311.5t-61.5 -318.5t-172 -254t-261 -168t-329.5 -60.5q-184 0 -331.5 63.5t-252 170t-160.5 247t-56 293.5zM203 709q6 -86 27.5 -165t51 -146.5t65.5 -121 t71 -86.5t80 -62.5t94 -52t100 -36.5t96 -16q35 -2 52.5 1t22.5 7t2 8t-7 4q-53 10 -103 22.5t-110 47.5q-47 27 -77.5 54.5t-53 55t-37 52t-26.5 42.5q-16 23 -36 63t-37.5 94t-31.5 122t-16 145q-4 147 21.5 261t86.5 225q37 68 90.5 109.5t103.5 66t89 34t47 13.5t-34 1 t-93 -19q-25 -8 -60.5 -24.5t-76.5 -43.5t-83 -62.5t-79 -80.5q-25 -33 -52.5 -84.5t-49 -118t-32.5 -145t-5 -164.5zM354 784q0 -158 41 -291t117 -229t181.5 -150.5t234.5 -54.5q88 0 175 36t154.5 116t109.5 206t42 306q0 154 -41 283t-114.5 223t-178 147.5t-229.5 53.5 q-106 0 -196.5 -42t-156 -124t-102.5 -203t-37 -277zM582 1614q4 35 18 80t49 80q47 47 114.5 44t127.5 -30q25 -12 53.5 -24.5t57 -19.5t55 -5t49.5 20q10 10 19.5 29.5t13.5 42.5h41q-4 -57 -22.5 -96t-43.5 -64q-47 -47 -102.5 -46t-100.5 15q-25 6 -59.5 22.5t-70.5 30 t-69.5 16.5t-56.5 -19q-12 -12 -19 -35t-11 -41h-43zM690 1778q20 4 39 0t39 -13q20 -6 65.5 -21t96.5 -24q18 -4 37 -4q32 -4 55 6q-20 0 -51 11q-16 6 -33 12q-25 10 -53.5 22.5t-46.5 18.5q-16 6 -35 10t-47 4q-29 -2 -52.5 -14t-13.5 -8zM1038 1649q6 2 15 4q6 2 14 4 t14 6q18 10 41 38t29 48l6 18q6 19 12 50q-16 -12 -22 -27l-6 -12q-14 -35 -35 -61.5t-39 -41.5q-14 -10 -28.5 -19t-0.5 -7zM1256 1384.5q1 -10.5 34 -28.5t74 -59.5t78 -106t65.5 -151.5t38.5 -199q8 -111 -3 -201t-31.5 -157.5t-45 -115t-41.5 -73.5q-23 -37 -53.5 -73 t-56 -62.5t-43 -42t-15.5 -15.5q55 27 97.5 52.5t78 55.5t66.5 66.5t64 90.5q23 37 46 90t39.5 117.5t23.5 139t-1 154.5q-12 117 -48 200t-77 139.5t-81 89t-64 48.5q-37 25 -72 37.5t-54.5 13.5t-18.5 -9.5z" />
<glyph unicode="&#xd6;" d="M70 741q0 147 54 287.5t158.5 250.5t257 176.5t351.5 66.5q174 0 320.5 -53.5t254 -151.5t168 -237.5t60.5 -311.5t-61.5 -318.5t-172 -254t-261 -168t-329.5 -60.5q-184 0 -331.5 63.5t-252 170t-160.5 247t-56 293.5zM203 709q6 -86 27.5 -165t51 -146.5t65.5 -121 t71 -86.5t80 -62.5t94 -52t100 -36.5t96 -16q35 -2 52.5 1t22.5 7t2 8t-7 4q-53 10 -103 22.5t-110 47.5q-47 27 -77.5 54.5t-53 55t-37 52t-26.5 42.5q-16 23 -36 63t-37.5 94t-31.5 122t-16 145q-4 147 21.5 261t86.5 225q37 68 90.5 109.5t103.5 66t89 34t47 13.5t-34 1 t-93 -19q-25 -8 -60.5 -24.5t-76.5 -43.5t-83 -62.5t-79 -80.5q-25 -33 -52.5 -84.5t-49 -118t-32.5 -145t-5 -164.5zM354 784q0 -158 41 -291t117 -229t181.5 -150.5t234.5 -54.5q88 0 175 36t154.5 116t109.5 206t42 306q0 154 -41 283t-114.5 223t-178 147.5t-229.5 53.5 q-106 0 -196.5 -42t-156 -124t-102.5 -203t-37 -277zM637 1720q0 43 31.5 74t74.5 31t75 -31t32 -74q0 -47 -31 -76.5t-76 -29.5t-75.5 29.5t-30.5 76.5zM729 1800q29 -4 48.5 -23.5t23.5 -47.5q4 -35 -16.5 -61t-53.5 -30q10 -2 31 -2q35 4 57.5 31t18.5 62t-31 57t-62 18 q-8 0 -16 -4zM989 1718q0 45 32 76t75 31q45 0 74.5 -32t29.5 -75q0 -45 -29.5 -75.5t-74.5 -30.5q-43 0 -75 30.5t-32 75.5zM1079 1800q29 -4 49.5 -23.5t24.5 -47.5q4 -35 -16.5 -61t-53.5 -30q10 -2 31 -2q35 4 57.5 31t18.5 62t-30.5 57t-61.5 18q-6 0 -19 -4z M1256 1384.5q1 -10.5 34 -28.5t74 -59.5t78 -106t65.5 -151.5t38.5 -199q8 -111 -3 -201t-31.5 -157.5t-45 -115t-41.5 -73.5q-23 -37 -53.5 -73t-56 -62.5t-43 -42t-15.5 -15.5q55 27 97.5 52.5t78 55.5t66.5 66.5t64 90.5q23 37 46 90t39.5 117.5t23.5 139t-1 154.5 q-12 117 -48 200t-77 139.5t-81 89t-64 48.5q-37 25 -72 37.5t-54.5 13.5t-18.5 -9.5z" />
<glyph unicode="&#xd7;" horiz-adv-x="1439" d="M299 426l268 266l-250 252l99 98l250 -251l270 268l98 -98l-270 -269l246 -248l-101 -98l-243 248l-269 -266zM393 346l273 264q0 2 6 11.5t8 25.5q2 4 2 12v13.5t-2 13.5l27 -29l4 -2l10 -10q4 -4 9 -11t13 -16l152 -147q6 -10 13 -13t16 -7q8 -4 16 -5q4 -2 10 -2h11.5 t17.5 5l-234 241l267 264q-8 6 -35 -2q-12 -4 -27 -10q-74 -59 -130 -110.5t-99 -94.5l-293 -288q0 -12 -5 -25.5t-9 -26.5l-15 -28l-4 -9q-6 -10 -2 -14zM418 1024q0 -14 1 -22.5t1 -14.5q0 -8 2 -12q10 -27 20 -41l25 -25q16 -16 49 -51t92 -94q-2 18 -6 34.5t-8 28.5 q-6 14 -14 27q-6 6 -25 27q-16 16 -48 50t-89 93zM918 442q4 -6 4 -12t2 -10q0 -6 2 -8v-13q0 -12 -6 -24l55 57h-19q-6 0 -8 2q-4 0 -10 2q-12 4 -20 6z" />
<glyph unicode="&#xd8;" d="M58.5 32q-3.5 5 0.5 7q41 33 78 65q33 29 68 61t61 58q-92 104 -142 236.5t-50 277.5q0 147 54 287.5t158.5 250t258 177.5t352.5 68q166 0 306 -47.5t247 -137.5q78 72 127 120t53 52q4 8 9.5 9.5t7.5 -3.5l49 -47q2 -4 6 -10t0 -6q-23 -23 -51 -49q-25 -23 -61 -54.5 t-77 -72.5q90 -96 139.5 -224t49.5 -286q0 -172 -61.5 -319.5t-172 -255t-262 -168t-329.5 -60.5q-168 0 -306.5 52.5t-242.5 144.5q-23 -25 -56.5 -55.5t-64.5 -57.5t-52.5 -45t-23.5 -18q-12 -16 -16 -7l-49 50q-4 2 -7.5 7zM203 709q6 -86 27.5 -165t51 -146.5t65.5 -121 t71 -86.5t80 -62.5t94 -52t100 -36.5t96 -16q35 -2 52.5 1t22.5 7t2 8t-7 4q-53 10 -103 22.5t-110 47.5q-59 35 -94 69.5t-57 67.5q-18 18 -41 8q-8 -4 -16.5 -7t-14.5 -3q-4 -2 -3 2t7 8l43 39l700 655q-16 -4 -28.5 -9t-20.5 -9l-16 -8q2 2 -4 -2t-45 -43l-604 -564 q-16 23 -36 63t-37.5 94t-31.5 122t-16 145q-4 147 21.5 261t86.5 225q37 68 90.5 109.5t103.5 66t89 34t47 13.5t-34 1t-93 -19q-25 -8 -60.5 -24.5t-76.5 -43.5t-83 -62.5t-79 -80.5q-25 -33 -52.5 -84.5t-49 -118t-32.5 -145t-5 -164.5zM354 784q0 -119 23.5 -223 t66.5 -190q76 72 181.5 170t220.5 206.5t232.5 217t217.5 202.5q-74 123 -189.5 193t-260.5 70q-106 0 -196.5 -42t-156 -124t-102.5 -203t-37 -277zM489 295q76 -111 186.5 -173.5t252.5 -62.5q88 0 175 36t154.5 116t109.5 206t42 306q0 203 -72 362 q-100 -94 -215.5 -201.5t-230.5 -213t-219.5 -203.5t-182.5 -172zM1256 1384.5q1 -10.5 34 -28.5t74 -59.5t78 -106t65.5 -151.5t38.5 -199q8 -111 -3 -201t-31.5 -157.5t-45 -115t-41.5 -73.5q-23 -37 -53.5 -73t-56 -62.5t-43 -42t-15.5 -15.5q55 27 97.5 52.5t78 55.5 t66.5 66.5t64 90.5q23 37 46 90t39.5 117.5t23.5 139t-1 154.5q-12 117 -48 200t-77 139.5t-81 89t-64 48.5q-37 25 -72 37.5t-54.5 13.5t-18.5 -9.5zM1505 1286l178 164l-49 -8l-123 -117z" />
<glyph unicode="&#xd9;" horiz-adv-x="1839" d="M63 1456v33h707v-35q-63 -6 -104 -19.5t-66 -36t-36 -54t-15 -74.5q-4 -35 -4 -84v-115l4 -426q2 -174 39 -298t149 -195q61 -41 128 -55.5t139 -14.5q82 0 157.5 31.5t126.5 85.5q37 39 59.5 88t34 105.5t14.5 122t3 136.5l-6 420q-2 66 -1 116t-3 85q-4 43 -15.5 73.5 t-36 53t-65.5 36t-105 19.5v35h611v-33q-59 -8 -101.5 -18.5t-70 -29.5t-42 -52t-16.5 -88q-2 -43 -3 -118t-1 -157t-1 -159.5t-1 -126.5v-56q0 -82 -9 -161.5t-32.5 -152.5t-64.5 -136.5t-103 -112.5q-90 -72 -191.5 -98.5t-211.5 -26.5q-125 0 -248 28.5t-217 112.5 q-70 61 -111 149.5t-49 209.5q-4 39 -5 90t-2 104.5t-1 106.5v94v211t-4 199q-2 55 -16.5 88t-43 52t-70.5 29.5t-100 18.5zM336 1423q-12 -4 1 -10t36 -20q33 -27 41 -65t8 -120v-80q0 -18 1 -67t1 -112.5t1 -133.5t2 -131t1 -106.5t2 -59.5q2 -20 5 -53t11.5 -71t21.5 -78 t36 -74q37 -57 93 -97.5t103 -60.5q53 -23 121 -37t150 -10q33 0 69 6q31 4 68 15.5t72 29.5q31 16 30 18q2 2 0 5q-8 2 -37.5 -7.5t-60.5 -19.5q-27 -8 -86 -14.5t-129 4.5q-72 10 -128 36.5t-110 79.5q-35 33 -56 72t-33.5 79t-18.5 77t-8 65q-2 18 -4 61.5t-4.5 95.5 t-3.5 108.5t-2 104.5t-1 83v43v35.5v64.5t1 78t3 76q0 80 14.5 122t57.5 68q31 18 68 26.5t37 12.5q0 2 -9 4q-8 2 -24.5 0t-50.5 -8q-47 -10 -91.5 -29.5t-76.5 -23.5q-53 -6 -82 7t-39 11zM551 1858l24 102l105 35l313 -338l-28 -37zM659 1944q-2 -27 17 -50 q20 -20 57 -51q31 -27 83 -65.5t134 -91.5l-274 292q-10 -10 -14 -24q-2 -6 -3 -10zM1419 234.5q2 -3.5 8.5 0t12.5 10.5t10 13q14 29 30.5 64.5t26.5 89.5q8 43 13.5 95t8.5 105.5t3 105.5v99v80t1 115.5t1 115v74.5q0 12 1 32.5t3 43t5 44t7 34.5q10 31 28.5 48t27.5 21 q8 4 16 9.5t4 9.5q-6 4 -21.5 2t-33.5 -8q-16 -6 -32 -16.5t-32 -16.5q-14 -4 -24 -5t-17 -1q-10 2 -19 5t-13 5q-10 4 -12.5 0t14.5 -16q37 -25 37 -185v-48v-103.5v-133v-136v-111.5v-60q0 -18 -1.5 -47.5t-2.5 -61.5t-4 -61.5t-5 -46.5q-10 -59 -19 -94t-20 -57 q-4 -10 -2 -13.5z" />
<glyph unicode="&#xda;" horiz-adv-x="1839" d="M63 1456v33h707v-35q-63 -6 -104 -19.5t-66 -36t-36 -54t-15 -74.5q-4 -35 -4 -84v-115l4 -426q2 -174 39 -298t149 -195q61 -41 128 -55.5t139 -14.5q82 0 157.5 31.5t126.5 85.5q37 39 59.5 88t34 105.5t14.5 122t3 136.5l-6 420q-2 66 -1 116t-3 85q-4 43 -15.5 73.5 t-36 53t-65.5 36t-105 19.5v35h611v-33q-59 -8 -101.5 -18.5t-70 -29.5t-42 -52t-16.5 -88q-2 -43 -3 -118t-1 -157t-1 -159.5t-1 -126.5v-56q0 -82 -9 -161.5t-32.5 -152.5t-64.5 -136.5t-103 -112.5q-90 -72 -191.5 -98.5t-211.5 -26.5q-125 0 -248 28.5t-217 112.5 q-70 61 -111 149.5t-49 209.5q-4 39 -5 90t-2 104.5t-1 106.5v94v211t-4 199q-2 55 -16.5 88t-43 52t-70.5 29.5t-100 18.5zM336 1423q-12 -4 1 -10t36 -20q33 -27 41 -65t8 -120v-80q0 -18 1 -67t1 -112.5t1 -133.5t2 -131t1 -106.5t2 -59.5q2 -20 5 -53t11.5 -71t21.5 -78 t36 -74q37 -57 93 -97.5t103 -60.5q53 -23 121 -37t150 -10q33 0 69 6q31 4 68 15.5t72 29.5q31 16 30 18q2 2 0 5q-8 2 -37.5 -7.5t-60.5 -19.5q-27 -8 -86 -14.5t-129 4.5q-72 10 -128 36.5t-110 79.5q-35 33 -56 72t-33.5 79t-18.5 77t-8 65q-2 18 -4 61.5t-4.5 95.5 t-3.5 108.5t-2 104.5t-1 83v43v35.5v64.5t1 78t3 76q0 80 14.5 122t57.5 68q31 18 68 26.5t37 12.5q0 2 -9 4q-8 2 -24.5 0t-50.5 -8q-47 -10 -91.5 -29.5t-76.5 -23.5q-53 -6 -82 7t-39 11zM879 1634l305 353l155 -48l-26 -90l-414 -237zM1085 1735l213 127l19 65z M1419 234.5q2 -3.5 8.5 0t12.5 10.5t10 13q14 29 30.5 64.5t26.5 89.5q8 43 13.5 95t8.5 105.5t3 105.5v99v80t1 115.5t1 115v74.5q0 12 1 32.5t3 43t5 44t7 34.5q10 31 28.5 48t27.5 21q8 4 16 9.5t4 9.5q-6 4 -21.5 2t-33.5 -8q-16 -6 -32 -16.5t-32 -16.5q-14 -4 -24 -5 t-17 -1q-10 2 -19 5t-13 5q-10 4 -12.5 0t14.5 -16q37 -25 37 -185v-48v-103.5v-133v-136v-111.5v-60q0 -18 -1.5 -47.5t-2.5 -61.5t-4 -61.5t-5 -46.5q-10 -59 -19 -94t-20 -57q-4 -10 -2 -13.5z" />
<glyph unicode="&#xdb;" horiz-adv-x="1839" d="M63 1456v33h707v-35q-63 -6 -104 -19.5t-66 -36t-36 -54t-15 -74.5q-4 -35 -4 -84v-115l4 -426q2 -174 39 -298t149 -195q61 -41 128 -55.5t139 -14.5q82 0 157.5 31.5t126.5 85.5q37 39 59.5 88t34 105.5t14.5 122t3 136.5l-6 420q-2 66 -1 116t-3 85q-4 43 -15.5 73.5 t-36 53t-65.5 36t-105 19.5v35h611v-33q-59 -8 -101.5 -18.5t-70 -29.5t-42 -52t-16.5 -88q-2 -43 -3 -118t-1 -157t-1 -159.5t-1 -126.5v-56q0 -82 -9 -161.5t-32.5 -152.5t-64.5 -136.5t-103 -112.5q-90 -72 -191.5 -98.5t-211.5 -26.5q-125 0 -248 28.5t-217 112.5 q-70 61 -111 149.5t-49 209.5q-4 39 -5 90t-2 104.5t-1 106.5v94v211t-4 199q-2 55 -16.5 88t-43 52t-70.5 29.5t-100 18.5zM336 1423q-12 -4 1 -10t36 -20q33 -27 41 -65t8 -120v-80q0 -18 1 -67t1 -112.5t1 -133.5t2 -131t1 -106.5t2 -59.5q2 -20 5 -53t11.5 -71t21.5 -78 t36 -74q37 -57 93 -97.5t103 -60.5q53 -23 121 -37t150 -10q33 0 69 6q31 4 68 15.5t72 29.5q31 16 30 18q2 2 0 5q-8 2 -37.5 -7.5t-60.5 -19.5q-27 -8 -86 -14.5t-129 4.5q-72 10 -128 36.5t-110 79.5q-35 33 -56 72t-33.5 79t-18.5 77t-8 65q-2 18 -4 61.5t-4.5 95.5 t-3.5 108.5t-2 104.5t-1 83v43v35.5v64.5t1 78t3 76q0 80 14.5 122t57.5 68q31 18 68 26.5t37 12.5q0 2 -9 4q-8 2 -24.5 0t-50.5 -8q-47 -10 -91.5 -29.5t-76.5 -23.5q-53 -6 -82 7t-39 11zM670 1626q66 92 130 178t126 172h80q63 -92 127.5 -178t128.5 -174l-25 -16 q-72 51 -132.5 100t-137.5 100q-70 -43 -137.5 -97t-139.5 -107zM702 1634l234 178q-27 6 -37 5q-8 -2 -12 -5q-12 -8 -37 -30q-23 -18 -58.5 -53t-89.5 -95zM975 1913q0 -6 1 -13.5t5 -15.5l242 -233l-224 305q-14 -14 -18 -21q-4 -6 -4 -10q-2 -4 -2 -12zM1419 234.5 q2 -3.5 8.5 0t12.5 10.5t10 13q14 29 30.5 64.5t26.5 89.5q8 43 13.5 95t8.5 105.5t3 105.5v99v80t1 115.5t1 115v74.5q0 12 1 32.5t3 43t5 44t7 34.5q10 31 28.5 48t27.5 21q8 4 16 9.5t4 9.5q-6 4 -21.5 2t-33.5 -8q-16 -6 -32 -16.5t-32 -16.5q-14 -4 -24 -5t-17 -1 q-10 2 -19 5t-13 5q-10 4 -12.5 0t14.5 -16q37 -25 37 -185v-48v-103.5v-133v-136v-111.5v-60q0 -18 -1.5 -47.5t-2.5 -61.5t-4 -61.5t-5 -46.5q-10 -59 -19 -94t-20 -57q-4 -10 -2 -13.5z" />
<glyph unicode="&#xdc;" horiz-adv-x="1839" d="M63 1456v33h707v-35q-63 -6 -104 -19.5t-66 -36t-36 -54t-15 -74.5q-4 -35 -4 -84v-115l4 -426q2 -174 39 -298t149 -195q61 -41 128 -55.5t139 -14.5q82 0 157.5 31.5t126.5 85.5q37 39 59.5 88t34 105.5t14.5 122t3 136.5l-6 420q-2 66 -1 116t-3 85q-4 43 -15.5 73.5 t-36 53t-65.5 36t-105 19.5v35h611v-33q-59 -8 -101.5 -18.5t-70 -29.5t-42 -52t-16.5 -88q-2 -43 -3 -118t-1 -157t-1 -159.5t-1 -126.5v-56q0 -82 -9 -161.5t-32.5 -152.5t-64.5 -136.5t-103 -112.5q-90 -72 -191.5 -98.5t-211.5 -26.5q-125 0 -248 28.5t-217 112.5 q-70 61 -111 149.5t-49 209.5q-4 39 -5 90t-2 104.5t-1 106.5v94v211t-4 199q-2 55 -16.5 88t-43 52t-70.5 29.5t-100 18.5zM336 1423q-12 -4 1 -10t36 -20q33 -27 41 -65t8 -120v-80q0 -18 1 -67t1 -112.5t1 -133.5t2 -131t1 -106.5t2 -59.5q2 -20 5 -53t11.5 -71t21.5 -78 t36 -74q37 -57 93 -97.5t103 -60.5q53 -23 121 -37t150 -10q33 0 69 6q31 4 68 15.5t72 29.5q31 16 30 18q2 2 0 5q-8 2 -37.5 -7.5t-60.5 -19.5q-27 -8 -86 -14.5t-129 4.5q-72 10 -128 36.5t-110 79.5q-35 33 -56 72t-33.5 79t-18.5 77t-8 65q-2 18 -4 61.5t-4.5 95.5 t-3.5 108.5t-2 104.5t-1 83v43v35.5v64.5t1 78t3 76q0 80 14.5 122t57.5 68q31 18 68 26.5t37 12.5q0 2 -9 4q-8 2 -24.5 0t-50.5 -8q-47 -10 -91.5 -29.5t-76.5 -23.5q-53 -6 -82 7t-39 11zM657 1720q0 43 32 74t75 31t74.5 -31t31.5 -74q0 -47 -30.5 -76.5t-75.5 -29.5 t-76 29.5t-31 76.5zM750 1800q29 -4 48 -23.5t23 -47.5q4 -35 -16.5 -61t-52.5 -30q10 -2 30 -2q35 4 57.5 31t18.5 62t-30.5 57t-61.5 18q-8 0 -16 -4zM1010 1718q0 45 31.5 76t74.5 31q45 0 75 -32t30 -75q0 -45 -30 -75.5t-75 -30.5q-43 0 -74.5 30.5t-31.5 75.5z M1100 1800q29 -4 49 -23.5t25 -47.5q4 -35 -16.5 -61t-53.5 -30q10 -2 31 -2q35 4 57 31t18 62t-30.5 57t-61.5 18q-6 0 -18 -4zM1419 234.5q2 -3.5 8.5 0t12.5 10.5t10 13q14 29 30.5 64.5t26.5 89.5q8 43 13.5 95t8.5 105.5t3 105.5v99v80t1 115.5t1 115v74.5q0 12 1 32.5 t3 43t5 44t7 34.5q10 31 28.5 48t27.5 21q8 4 16 9.5t4 9.5q-6 4 -21.5 2t-33.5 -8q-16 -6 -32 -16.5t-32 -16.5q-14 -4 -24 -5t-17 -1q-10 2 -19 5t-13 5q-10 4 -12.5 0t14.5 -16q37 -25 37 -185v-48v-103.5v-133v-136v-111.5v-60q0 -18 -1.5 -47.5t-2.5 -61.5t-4 -61.5 t-5 -46.5q-10 -59 -19 -94t-20 -57q-4 -10 -2 -13.5z" />
<glyph unicode="&#xdd;" horiz-adv-x="1540" d="M10 1454v39h584v-39q-43 -4 -67.5 -17.5t-34 -32t-6.5 -42t16 -43.5q16 -31 42.5 -80t59.5 -106.5t67 -119t64.5 -114.5t54 -94t33.5 -57q6 8 36 66t70 134t79 154t63 127q20 45 35.5 84t12.5 68.5t-30.5 49t-91.5 25.5v37h533v-37q-49 -8 -86 -14t-71 -24.5t-67.5 -57.5 t-74.5 -111q-27 -45 -74 -127q-41 -70 -106.5 -183.5t-163.5 -283.5l2 -231v-124t4 -91q4 -43 14.5 -73t37 -50t71.5 -32.5t119 -18.5v-35h-717v35q57 8 99 18t69.5 29.5t42 52.5t16.5 88q4 86 4 175v188q-133 236 -210 371t-115 204q-47 82 -62 105q-27 47 -47 80.5t-46 55 t-62.5 34t-96.5 18.5zM319 1380q43 -27 74 -65q14 -20 29.5 -44t34.5 -57q35 -61 78 -138t90 -147.5t95 -123.5t95 -66q-106 184 -165.5 287.5t-88.5 157.5q-35 61 -45 78q-14 23 -30.5 55.5t-12.5 56.5q0 6 2 15q2 6 4 14t10 18q4 8 -2 9q-23 -2 -39 -14.5t-36 -22.5 q-23 -10 -43 -15q-16 -4 -29.5 -2t-20.5 4zM735 1634l305 353l156 -48l-27 -90l-413 -237zM782 168q0 -16 9.5 -46t31.5 -50q12 -10 31.5 -16.5t41.5 -9.5t38 -3t22 2q4 0 7 2q4 4 0 12q-6 4 -13.5 9.5t-13.5 9.5q-8 6 -12 10q-16 16 -23.5 35.5t-13.5 42.5q-2 10 -4 24 q-2 12 -3 32t-1 48l-2 396l120 210t91.5 159.5t68.5 116.5t47 81q45 76 56 94q39 66 92 96q23 12 47 18.5t24 12.5q0 4 -14 4t-37.5 -2t-50.5 -7t-47 -11q-6 -2 -18.5 -6.5t-25.5 -9.5t-22.5 -10t-9.5 -11q2 -18 -4 -43q-4 -23 -15.5 -54.5t-33.5 -72.5q-78 -135 -124 -220 t-75 -134q-43 -78 -69.5 -125t-42.5 -72q-18 -31 -25 -41q-8 -12 -14 -27q-4 -12 -8.5 -28.5t-4.5 -32.5v-383zM942 1735l213 127l19 65z" />
<glyph unicode="&#xde;" horiz-adv-x="1386" d="M127 -2v35q57 8 99 18t70 29.5t42 52.5t16 88q2 27 2 76t1 109.5t1 126t-1 127t-1 113.5v85q0 84 1 180.5t-1 175.5l-2 64q-2 55 -16 88t-42 52.5t-70 29.5t-99 18v35h717v-35q-74 -6 -119 -18t-71.5 -32.5t-37 -50.5t-14.5 -73v-96q27 0 61.5 -1t69.5 -1t70 -1t61 -3 q127 -8 192.5 -41t100.5 -62q59 -45 98 -118.5t39 -167.5q0 -115 -50 -210t-132 -162t-186.5 -99.5t-214.5 -24.5v41q74 8 136 36t108 74t72 108.5t26 142.5q0 84 -26 155.5t-73 124.5t-114.5 86t-149.5 43q-23 4 -42 4t-34 -4q-4 0 -8 -4q-6 -6 -6 -22q-2 -111 -2 -173.5 v-91.5v-43l-2 -346l2 -117v-50v-23t1 -15.5t3 -23.5q4 -43 14.5 -73t37 -50.5t71.5 -32.5t119 -18v-35h-717zM414 1413q2 -6 10 -9t17.5 -11.5t18.5 -26.5t11 -55v-70v-99v-97.5v-59.5v-117q0 -80 1 -242.5t1 -449.5q0 -18 5 -33.5t11 -25.5q8 -12 19 -23q29 -29 71 -41 t109 -16l41 2q-23 2 -41 9t-41 22q-25 16 -41 48t-20 52q-2 12 -4 53q-2 35 -4.5 105.5t0.5 193.5l2 494q-2 16 -9 33q-10 31 -45 57l-32 22q-4 2 0 11.5t8 11.5q18 6 37.5 9t42 6t54.5 3h75q53 -2 92 -2t35 4q-12 6 -60 11q-18 2 -33.5 2h-29.5h-135v90q0 53 8 88 t30.5 56.5t63.5 32.5t109 17q6 0 15 1t13 2.5t-1 2.5t-25 1q-23 0 -50.5 -2.5t-74.5 -8.5q-31 -4 -71 -15t-62 -22q-18 -6 -41 -5t-41.5 3t-29.5 1t-9 -13zM952 373q4 -16 33 -6t53 24q27 14 53.5 36t49 43.5t41 41.5t28.5 35q14 20 33 61t30 93.5t11 110t-20 112.5 q-23 55 -47.5 89t-50 53t-49 29.5t-40.5 18.5q-16 6 -38.5 12.5t-43.5 10.5q-14 2 -20 -4q-4 -4 2 -14.5t39 -31.5q53 -35 83.5 -83t47.5 -93q18 -53 22 -108q6 -119 -26.5 -201t-74.5 -132t-79 -74z" />
<glyph unicode="&#xdf;" horiz-adv-x="1857" d="M145 129l19 297h37q14 -168 109.5 -266.5t260.5 -98.5q135 0 206 72t71 176q0 49 -12.5 87t-39 73t-69.5 72t-102 80q-72 51 -147 101t-135 108.5t-98 132t-38 174.5q0 80 32.5 148.5t93 118.5t145.5 79.5t190 29.5q37 0 82 -4t91 -13t89 -24.5t76 -35.5q57 37 130.5 57 t159.5 20q37 0 82 -4t91.5 -13t89.5 -24.5t75 -37.5l13 -269l-41 -8q-14 80 -47 131t-75 82t-91.5 43t-94.5 12q-106 0 -178.5 -56t-72.5 -161q0 -43 14 -77.5t43 -67.5t68.5 -65.5t93.5 -69.5q72 -53 148.5 -104.5t141 -112t105.5 -133t41 -166.5q0 -111 -44 -194 t-117 -137t-167 -81t-194 -27q-80 0 -157 21.5t-146 62.5q-70 -43 -154 -63.5t-172 -20.5q-111 0 -215.5 42t-190.5 114zM199 285q2 -12 5 -29.5t13 -52.5t54 -69t110 -54l18 -6q23 -8 58 -11q-23 4 -43.5 12.5t-36.5 18.5q-20 10 -37 25q-45 33 -64.5 57.5t-23.5 34.5 t-14.5 30.5t-20.5 49.5q-10 27 -14 16.5t-4 -22.5zM320.5 1208q-1.5 -45 7 -87t25 -79.5t38.5 -62.5q25 -29 64 -60.5t81 -61.5t79.5 -55.5t62.5 -41.5t61.5 -46t76.5 -65t74 -72.5t52 -72.5q29 -59 35 -104.5t-2 -104.5q-4 -29 -9 -47.5t-11.5 -33.5t-15.5 -29.5t-21 -32.5 q-10 -12 -8.5 -20.5t8.5 -6.5q10 2 28.5 10t50.5 55q27 39 49.5 110t12.5 157q-6 45 -18.5 77.5t-29 60.5t-38 51.5t-45.5 47.5q-23 20 -66 54t-90 68t-89 63.5t-60 44.5q-18 14 -48 36.5t-60 48t-54.5 52t-32.5 47.5q-16 41 -18 81t4 75q4 27 26.5 69.5t73.5 71.5 q53 29 95 32t69 3t58.5 -8.5t43.5 -14.5q6 -2 -4 5.5t-34.5 16.5t-61.5 16t-80 5q-76 -4 -152.5 -43t-109.5 -123q-16 -41 -17.5 -86zM422 1206q0 -43 14.5 -77.5t41 -66.5t66.5 -64.5t93 -69.5q72 -53 149.5 -105.5t142 -113t105.5 -130t39 -155.5q-2 -78 -23.5 -147.5 t-60.5 -120.5q39 -47 89 -73t122 -26q61 0 112.5 19.5t88.5 54.5t56.5 80t19.5 98q0 49 -12.5 87t-39 73t-69.5 72t-103 80q-72 51 -146.5 101t-135 108.5t-98 132t-37.5 174.5q0 102 51 180q-18 27 -45 48t-58.5 35.5t-64.5 22t-62 7.5q-106 0 -170.5 -59.5t-64.5 -164.5z M947.5 1208q-1.5 -45 7 -87t24.5 -79.5t39 -62.5q25 -29 63.5 -60.5t80.5 -61.5t80 -55.5t63 -41.5t61.5 -46t76.5 -65t73.5 -72.5t52.5 -72.5q29 -59 37 -105.5t0 -105.5q-4 -29 -9.5 -47.5t-11.5 -33.5t-15 -29.5t-22 -32.5q-10 -12 -8 -20.5t8 -6.5q10 2 28.5 13t51.5 59 q27 39 47.5 104.5t10.5 151.5q-10 88 -47 141t-85 102q-23 20 -65.5 54t-89.5 68t-89 63.5t-61 44.5q-18 14 -48 36.5t-59.5 48t-55 51t-33.5 46.5q-16 41 -19.5 87t2.5 73q4 12 13.5 32.5t22.5 40t29.5 37t37.5 27.5q53 25 91 31t64 6q27 0 58.5 -5t44.5 -12q6 -2 -3.5 4.5 t-32 13.5t-57 14t-77.5 5q-76 -4 -153 -43t-109 -123q-16 -41 -17.5 -86zM1552 1382q6 -10 15.5 -17t21.5 -36q10 -23 13.5 -51.5t7.5 -32.5q2 -4 6 -2t6 9.5t2 25.5v141q-4 -8 -10 -11t-10 -7q-6 -4 -13 -6q-12 -4 -29.5 -3t-9.5 -10z" />
<glyph unicode="&#xe0;" horiz-adv-x="1691" d="M10 0v33q68 12 113 27.5t76.5 41t57.5 67.5t52 107q25 61 88 220q27 68 65 162t90 221t119.5 291.5t151.5 373.5h39q14 -37 51 -124t85.5 -203.5t103.5 -251t109.5 -263.5t100.5 -243.5t77 -190.5q41 -104 111.5 -164.5t180.5 -70.5v-33h-639v33q33 6 60.5 13t45 21.5 t24 35t-6.5 51.5q-10 35 -30 88q-16 47 -44 121.5t-69 185.5h-469q-39 -100 -60.5 -159.5t-33.5 -92.5q-14 -37 -19 -53q-10 -31 -19 -62.5t-9 -50.5q0 -31 14 -49.5t36.5 -28.5t49.5 -14t53 -6v-33h-555zM311 115.5q0 -11.5 4 -21.5t11 -20q16 -25 98 -29q18 0 17 1t-11 7 t-22.5 19.5t-16.5 36.5t2 49t13 41q2 6 13 36.5t25.5 72.5t31 88t30.5 83q4 12 9 25.5t9 36.5q0 6 -2 14q-2 6 -6 16.5t-14 20.5l-185 -451q-6 -14 -6 -25.5zM463 1858l24 102l105 35l313 -338l-28 -37zM510 627q106 -2 170.5 -2t99.5 2q41 0 58 2q12 0 24 4q10 2 21.5 5 t21.5 7l-61 -2h-279l209 553q4 31 4 50.5v29.5q0 12 -2 20q-6 -6 -37 -77q-12 -31 -32.5 -79t-48 -119t-64.5 -168t-84 -226zM571 1944q-2 -27 17 -50q20 -20 57 -51q31 -27 83 -65.5t134 -91.5l-274 292q-10 -10 -15 -24q-2 -6 -2 -10zM588 653h401l-190 512q0 4 -3 11.5 t-5 7.5q-4 0 -9 -8zM844 1440q0 -23 4 -41q0 -14 6 -37q4 -18 13.5 -47t25.5 -70l393 -1042q12 -33 37 -58.5t49 -44.5q29 -23 64 -39q14 -4 34 -8q16 -4 37.5 -5t46.5 3q-23 10 -41 20.5t-30 20.5q-14 10 -27 23q-14 14 -26 32q-12 16 -25.5 39t-26.5 54l-526 1280 q-6 -20 -7 -41t-1 -39z" />
<glyph unicode="&#xe1;" horiz-adv-x="1691" d="M10 0v33q68 12 113 27.5t76.5 41t57.5 67.5t52 107q25 61 88 220q27 68 65 162t90 221t119.5 291.5t151.5 373.5h39q14 -37 51 -124t85.5 -203.5t103.5 -251t109.5 -263.5t100.5 -243.5t77 -190.5q41 -104 111.5 -164.5t180.5 -70.5v-33h-639v33q33 6 60.5 13t45 21.5 t24 35t-6.5 51.5q-10 35 -30 88q-16 47 -44 121.5t-69 185.5h-469q-39 -100 -60.5 -159.5t-33.5 -92.5q-14 -37 -19 -53q-10 -31 -19 -62.5t-9 -50.5q0 -31 14 -49.5t36.5 -28.5t49.5 -14t53 -6v-33h-555zM311 115.5q0 -11.5 4 -21.5t11 -20q16 -25 98 -29q18 0 17 1t-11 7 t-22.5 19.5t-16.5 36.5t2 49t13 41q2 6 13 36.5t25.5 72.5t31 88t30.5 83q4 12 9 25.5t9 36.5q0 6 -2 14q-2 6 -6 16.5t-14 20.5l-185 -451q-6 -14 -6 -25.5zM510 627q106 -2 170.5 -2t99.5 2q41 0 58 2q12 0 24 4q10 2 21.5 5t21.5 7l-61 -2h-279l209 553q4 31 4 50.5v29.5 q0 12 -2 20q-6 -6 -37 -77q-12 -31 -32.5 -79t-48 -119t-64.5 -168t-84 -226zM588 653h401l-190 512q0 4 -3 11.5t-5 7.5q-4 0 -9 -8zM774 1634l305 353l156 -48l-27 -90l-413 -237zM844 1440q0 -23 4 -41q0 -14 6 -37q4 -18 13.5 -47t25.5 -70l393 -1042q12 -33 37 -58.5 t49 -44.5q29 -23 64 -39q14 -4 34 -8q16 -4 37.5 -5t46.5 3q-23 10 -41 20.5t-30 20.5q-14 10 -27 23q-14 14 -26 32q-12 16 -25.5 39t-26.5 54l-526 1280q-6 -20 -7 -41t-1 -39zM981 1735l213 127l18 65z" />
</font>
</defs>
</svg>
