<?xml version="1.0" standalone="no"?>
<!DOCTYPE svg PUBLIC "-//W3C//DTD SVG 1.1//EN" "http://www.w3.org/Graphics/SVG/1.1/DTD/svg11.dtd" >
<svg xmlns="http://www.w3.org/2000/svg">
<metadata></metadata>
<defs>
<font id="pf_monumenta_proregular" horiz-adv-x="467" >
<font-face units-per-em="1000" ascent="800" descent="-200" />
<missing-glyph horiz-adv-x="305" />
<glyph unicode=" "  horiz-adv-x="305" />
<glyph unicode="&#x09;" horiz-adv-x="305" />
<glyph unicode="&#xa0;" horiz-adv-x="305" />
<glyph unicode="!" horiz-adv-x="335" d="M178 177h-8l-61 510l96 64l37 -34zM233 56q0 -26 -16.5 -45t-45.5 -19q-32 0 -46 20t-14 41q0 9 3.5 20t11 20t19 15t27.5 6q26 0 43.5 -16t17.5 -42z" />
<glyph unicode="&#x22;" horiz-adv-x="335" d="M247 437h-11l-45 257l70 47l27 -25zM108 437h-11l-45 257l70 47l27 -25z" />
<glyph unicode="#" horiz-adv-x="747" d="M561 464l-52 -198h150l-11 -61h-157l-57 -206h-64l57 206h-172l-57 -206h-64l57 206h-123l12 61h128l53 198h-155l10 61h162l48 167h64l-48 -167h172l48 167h64l-48 -167h118l-11 -61h-124zM272 266h172l53 198h-173z" />
<glyph unicode="$" horiz-adv-x="593" d="M328 714q-26 0 -48.5 -10t-39 -26.5t-26 -39.5t-9.5 -48q0 -36 21.5 -63t61.5 -57l38 225l3 18zM253 22q7 -1 13.5 -1.5t13.5 -0.5q30 0 55 11t43 29t27.5 41.5t9.5 49.5q0 24 -6 42.5t-19 35.5t-34 34.5t-50 39.5l-4 3zM525 201q0 -54 -21.5 -94.5t-57 -67t-81.5 -39.5 t-95 -13h-11.5t-11.5 1l-11 -64q-2 -6 -6 -8l-15 -2q-1 -1 -5 -1.5t-9 -0.5q-2 -1 -4 1t-2 3l14 78q-38 8 -72.5 26t-64.5 43q4 37 6 69t4 76h7q6 -72 39 -117t87 -62l50 303q-31 21 -60 42.5t-52 48t-37 58.5t-14 74q0 39 16 72.5t45.5 58t71 39t92.5 14.5h6l9 52q2 7 7 8 l16 3q2 0 6.5 1t9.5 1q6 0 6 -4l-11 -64q31 -4 62 -12.5t54 -22.5q-1 -35 1.5 -71t4.5 -71l-9 -3q-6 36 -18 62.5t-27.5 44.5t-34.5 29t-38 16l-3 -16l-43 -249q34 -24 69.5 -48.5t64.5 -53t47.5 -62.5t18.5 -78z" />
<glyph unicode="%" horiz-adv-x="780" d="M205 38q-10 -16 -18 -27q-7 -11 -12.5 -19t-6.5 -10q-5 -8 -9 -5l-26 18q-1 1 -3.5 4t-0.5 5l44 63q120 177 215 319q40 60 79.5 118.5t70 104.5t50 76t21.5 33q6 8 9 5l26 -18l4.5 -4.5t0.5 -4.5zM202 374q-37 0 -66 13.5t-49.5 36t-31 51.5t-10.5 60q0 36 11.5 67 t33 54.5t51.5 37t67 13.5q38 0 67.5 -14t50 -36.5t31 -51.5t10.5 -59q0 -37 -12 -68.5t-34 -54.5t-52 -36t-67 -13zM200 679q-39 0 -60.5 -37t-21.5 -97q0 -30 6.5 -56t18.5 -45.5t29 -30.5t38 -11q40 0 62 36t22 99q0 28 -6 53.5t-18 45t-29.5 31.5t-40.5 12zM576 -10 q-37 0 -66 13.5t-49.5 36t-31.5 51.5t-11 60q0 36 11.5 67t33 54.5t51.5 37t68 13.5t67.5 -13.5t49.5 -36t30.5 -51.5t10.5 -60q0 -37 -12 -68.5t-33.5 -54.5t-51.5 -36t-67 -13zM573 295q-39 0 -60.5 -36.5t-21.5 -96.5q0 -30 6.5 -56.5t18.5 -46t29.5 -30.5t38.5 -11 q39 0 61 36t22 99q0 28 -6 53.5t-18 45t-29.5 31.5t-40.5 12z" />
<glyph unicode="&#x26;" horiz-adv-x="800" d="M764 362q-49 -5 -75.5 -24.5t-46.5 -49.5q-29 -44 -55 -84t-61 -80q48 -57 106 -92t130 -44l1 -11q-105 -9 -181 13.5t-121 57.5q-9 -6 -21 -14.5t-31 -17t-46 -15t-65 -7.5q-44 -1 -87.5 11t-78 38t-55.5 67t-21 97q0 44 17.5 81t41 65t48 46.5t38.5 25.5 q-14 32 -23.5 62.5t-9.5 71.5q0 71 39.5 119.5t104.5 57.5q32 4 65.5 0t61.5 -18t45.5 -39.5t17.5 -62.5q0 -35 -17 -62.5t-43.5 -49t-57 -37t-57.5 -25.5q27 -79 73 -151.5t100 -137.5q9 13 19.5 31t19.5 36.5t16 37.5t9 34q2 18 -6 30.5t-21.5 20.5t-30 12.5t-30.5 6.5v6 q32 2 67.5 -2t69.5 -4q40 0 81 2.5t70 4.5v-7zM430 76q-32 30 -62 66t-56.5 76t-49.5 81.5t-41 80.5q-22 -26 -32 -60.5t-9 -70.5t12.5 -70.5t33.5 -61.5t48.5 -42t53.5 -19t53.5 1.5t48.5 18.5zM387 592q2 21 -0.5 40.5t-10 34.5t-21 24.5t-32.5 9.5q-21 0 -30.5 -22 t-10.5 -55t6.5 -71.5t20.5 -70.5q20 13 37 30q14 14 26.5 34t14.5 46z" />
<glyph unicode="'" horiz-adv-x="211" d="M108 437h-11l-45 257l70 47l27 -25z" />
<glyph unicode="(" horiz-adv-x="362" d="M314 -58q0 -2 -4.5 -5.5t-6.5 -3.5l-10 6q-36 25 -77.5 62.5t-76.5 88.5t-58.5 116t-23.5 144q0 78 24 143.5t59.5 118t76.5 90.5t74 62q3 2 6 3.5t5 3.5q2 0 5.5 -7t3.5 -9q-1 -2 -3.5 -4.5l-4.5 -4.5q-29 -24 -58 -61t-52 -86.5t-37.5 -110.5t-14.5 -131 q0 -71 12.5 -131t34.5 -110t51.5 -90.5t63.5 -71.5q8 -6 11 -12z" />
<glyph unicode=")" horiz-adv-x="362" d="M57 762q0 2 5 5.5t7 3.5q6 -4 10 -6q36 -25 77 -63t76 -89t58.5 -115.5t23.5 -143.5q0 -78 -24 -143.5t-59.5 -118t-76 -90.5t-74.5 -62l-11 -7q-2 0 -5.5 7t-3.5 9q2 3 8 9q29 24 58 61t52.5 86.5t38 110t14.5 131.5t-12.5 131t-34.5 110t-51.5 90t-63.5 72q-8 6 -11 12 h-1z" />
<glyph unicode="*" horiz-adv-x="384" d="M355 571q-26 -2 -59.5 -6t-78.5 -10l92 -92l3 -9l-46 -45l-18 -1q-11 23 -24.5 53.5t-32.5 71.5l-67 -115l-18 -3q-21 27 -44 50l2 7q23 17 48 37t55 45l-138 23l-2 7q5 17 9 32.5t8 32.5l17 5q30 -19 58 -35.5t57 -32.5l-13 141h36t32 1l8 -15q-17 -58 -31 -129l118 59 l9 -3q11 -28 28 -57l-8 -12v0z" />
<glyph unicode="+" horiz-adv-x="650" d="M358 58h-68v184h-191v68h191v185h68v-185h193v-68h-193v-184z" />
<glyph unicode="," horiz-adv-x="273" d="M191 53q0 -24 -12.5 -48.5t-31 -47t-40 -41.5t-38.5 -30l-10 14q17 14 26 23.5t16 26.5q6 16 6.5 26.5t-2.5 19t-8.5 16t-11.5 17.5q-8 12 -10 32t12 38q7 10 23.5 17.5t30.5 4.5q26 -5 38 -25.5t12 -42.5z" />
<glyph unicode="-" horiz-adv-x="377" d="M42 276v74l292 1v-75h-292z" />
<glyph unicode="." horiz-adv-x="253" d="M185 56q0 -26 -16.5 -45t-45.5 -19q-32 0 -46 20t-14 41q0 9 3.5 20t11 20t19 15t27.5 6q26 0 43.5 -16t17.5 -42z" />
<glyph unicode="/" horiz-adv-x="443" d="M424 732q-84 -165 -156 -307q-31 -60 -62 -121.5t-59 -115.5t-49.5 -97t-33.5 -66q-13 -26 -21 -41.5t-9 -18.5q-5 -9 -8 -6l-35 17q-2 1 -4.5 3.5t-0.5 4.5q5 7 10 18q5 9 11.5 21.5t14.5 28.5q12 23 33 64t47.5 93.5t57 112t60.5 118.5t57.5 114t49 97.5t35 69.5 t14.5 30q5 9 8 6l34 -17q2 -1 5 -3.5t1 -4.5z" />
<glyph unicode="0" horiz-adv-x="800" d="M731 376q0 -86 -24 -158.5t-68.5 -125t-106.5 -82t-137 -29.5q-76 0 -136 31t-101.5 82t-63.5 117.5t-22 137.5q0 84 23.5 155.5t67 124t105.5 82.5t139 30q79 0 139.5 -30.5t101.5 -81.5t62 -117t21 -136zM602 352q0 65 -13.5 127.5t-40 111t-66.5 78.5t-93 30 q-46 0 -81 -24.5t-59 -68t-36 -103t-12 -129.5q0 -71 14 -134.5t41 -111.5t66 -76t89 -28q46 0 81.5 23.5t59.5 67t36.5 103.5t12.5 134h1z" />
<glyph unicode="1" d="M63 0v16q28 4 48.5 9t34 14.5t20.5 25.5t8 43q1 21 1 63v89.5v91v67.5v102.5t-2 96.5q-1 27 -8 43t-21 25.5t-34.5 14.5t-48.5 9v16h342v-17q-31 -3 -51 -8.5t-32 -15.5t-18 -26t-7 -40q-1 -17 -1.5 -41t-0.5 -56l-1 -169l1 -147v-60t2 -45q2 -21 7 -35.5t18 -24 t35 -15.5t58 -9v-17h-350z" />
<glyph unicode="2" horiz-adv-x="714" d="M614 27q-4 -14 -11.5 -20.5t-22.5 -6.5h-498l-3 9q115 99 194.5 174.5t121.5 145.5q20 32 31.5 69.5t14 74.5t-5.5 71.5t-28.5 61t-55 42.5t-83.5 16q-29 0 -55.5 -7t-49 -18t-41.5 -25t-32 -28l-6 7q21 30 47.5 57.5t59.5 48t73 32.5t88 12q39 0 78.5 -11.5t71.5 -36.5 t52 -65t20 -98q0 -37 -12 -73.5t-32 -70t-45 -64.5t-52 -58q-18 -18 -41.5 -39t-50 -44t-53 -46.5t-50.5 -45.5l2 -2h260q34 0 58.5 7.5t42.5 23.5t32 41.5t28 61.5l6 -8z" />
<glyph unicode="3" horiz-adv-x="629" d="M513 195q0 -66 -29 -116t-74.5 -85.5t-101 -58t-107.5 -34.5q-14 -3 -32 -5.5t-35 -5t-31 -3.5t-19 -1l-3 13q50 8 102.5 29t95 54.5t70 81t27.5 108.5q0 48 -24.5 87.5t-62.5 65t-84.5 35.5t-90.5 -1l-8 16q34 13 76 31.5t78.5 43.5t61 57t24.5 73q0 45 -24 69t-59 32.5 t-73.5 4.5t-67.5 -15l-5 13q18 12 41 22.5t48 18.5t49.5 12.5t45.5 4.5q30 0 59.5 -6.5t53.5 -21.5t39 -39t15 -59q0 -33 -13 -63.5t-35.5 -56.5t-51.5 -46.5t-60 -34.5q36 -7 72.5 -27t66 -49.5t48 -66t18.5 -77.5z" />
<glyph unicode="4" horiz-adv-x="747" d="M670 190h-143l1 -85q1 -33 0.5 -60.5t1.5 -44.5q2 -21 7 -35.5t18 -24t35 -15.5t58 -10v-17h-345v17q28 4 48.5 9t34 14.5t20.5 25.5t8 43q2 41 1.5 88t-0.5 95l-362 -1l-11 26l459 533l25 -11l-1 -296l2 -174h49q35 0 64 19.5t44 74.5l6 -2zM415 574v1l-264 -308h264 l2 166z" />
<glyph unicode="5" horiz-adv-x="568" d="M504 663q-4 -14 -8.5 -19.5t-23.5 -5.5h-270q-7 -22 -15 -47q-7 -21 -15 -46.5t-16 -49.5q74 3 138 -9.5t110.5 -43t73 -80t26.5 -121.5q0 -83 -42 -146.5t-106.5 -107.5t-142 -70t-149.5 -35l-2 14q64 17 121.5 43t100.5 64.5t68 90t25 119.5q0 46 -27.5 81t-69 57.5 t-91 30.5t-93.5 -1l-22 19l101 320l14 7h241q25 0 41 5.5t27 15.5t18.5 24t16.5 30l7 -5z" />
<glyph unicode="6" horiz-adv-x="709" d="M641 234q0 -52 -19.5 -97.5t-54.5 -80t-84 -54.5t-107 -20q-66 0 -120 22.5t-92 63t-59 97.5t-21 126q0 93 39 171t102.5 138.5t144 102t163.5 61.5l3 -14q-79 -27 -139.5 -72.5t-102 -106.5t-63 -135.5t-21.5 -159.5q0 -48 12 -93.5t34.5 -80.5t55 -56.5t72.5 -21.5 q29 0 54 11t43 33.5t28.5 55t10.5 76.5q0 48 -18 91t-49 69.5t-72.5 31t-89.5 -22.5l-8 11q27 22 60.5 35.5t69 18t70.5 -1.5t64 -23q42 -25 68 -69.5t26 -105.5z" />
<glyph unicode="7" horiz-adv-x="628" d="M612 707q-25 -40 -58.5 -102.5t-70.5 -137t-74.5 -155.5t-71 -157.5t-60 -144t-41.5 -114.5h-79l-15 17l368 706h-312q-32 0 -54 -4t-38.5 -16.5t-29.5 -34.5t-27 -58l-9 8l53 189q5 16 13 20.5t23 4.5h469l14 -21v0z" />
<glyph unicode="8" horiz-adv-x="642" d="M314 -17q-56 0 -102 14.5t-79 40t-51.5 60t-18.5 75.5q0 40 15 73.5t40.5 60.5t59 47t69.5 34q-31 16 -58.5 34t-47.5 39.5t-32 47t-12 56.5q0 28 14 59t43.5 57t75 43t109.5 17q46 0 84.5 -11.5t66.5 -32t43.5 -49t15.5 -63.5q0 -38 -16 -66.5t-39.5 -49.5t-49.5 -34.5 t-47 -20.5q27 -12 58.5 -29.5t59 -42.5t46 -59t18.5 -79q0 -39 -18 -78.5t-51.5 -71t-83 -51.5t-112.5 -20zM180 178q0 -29 11 -58.5t30 -53t45 -38t56 -14.5q24 0 48 12.5t43.5 34t31.5 51t12 62.5q0 36 -13 64.5t-35.5 51.5t-52 41t-62.5 34q-20 -11 -40.5 -28t-37 -40 t-26.5 -52.5t-10 -66.5zM443 583q0 27 -9.5 50.5t-25 40.5t-36.5 26.5t-44 9.5q-32 0 -56 -12t-40 -30.5t-23.5 -41t-7.5 -42.5q0 -45 35 -78t104 -70q11 4 28.5 14t34 27.5t28.5 43.5t12 62z" />
<glyph unicode="9" horiz-adv-x="709" d="M168 317q-42 25 -68 69t-26 106q0 52 19.5 97.5t54.5 80t83.5 54.5t107.5 20q66 0 120 -22.5t92 -63t59 -97.5t21 -126q0 -93 -39 -171t-102.5 -138.5t-144 -102t-163.5 -61.5l-3 14q79 27 139.5 72.5t102 106.5t63 135t21.5 160q0 48 -12 93.5t-34.5 80.5t-55 56.5 t-72.5 21.5q-59 0 -97.5 -44.5t-38.5 -131.5q0 -48 18 -91t49 -69.5t72.5 -31t89.5 22.5l8 -11q-27 -22 -60.5 -35.5t-69 -18t-70.5 1.5t-64 23z" />
<glyph unicode=":" horiz-adv-x="273" d="M199 57q0 -26 -16.5 -45t-45.5 -19q-32 0 -46 20t-14 41q0 9 3.5 20t11 20t19 15t27.5 6q26 0 43.5 -16t17.5 -42zM192 461q0 -26 -16.5 -45t-45.5 -19q-32 0 -46 20t-14 41q0 9 3.5 20t11 20t19 15t27.5 6q26 0 43.5 -16t17.5 -42z" />
<glyph unicode=";" horiz-adv-x="273" d="M192 461q0 -26 -16.5 -45t-45.5 -19q-32 0 -46 20t-14 41q0 9 3.5 20t11 20t19 15t27.5 6q26 0 43.5 -16t17.5 -42zM193 60q0 -26 -13.5 -54.5t-34 -55.5t-43.5 -49t-41 -34l-14 16q37 33 52 70q2 5 3 14.5t0 21t-5 23t-12 20.5q-11 12 -12 34t14 42q8 11 24 17.5t30 3.5 q29 -6 40.5 -25.5t11.5 -43.5z" />
<glyph unicode="&#x3c;" horiz-adv-x="500" d="M112 308l299 -173l-18 -47l-332 191v58l332 192l18 -47z" />
<glyph unicode="=" horiz-adv-x="650" d="M95 328l10 60h450l-10 -60h-450zM95 164l10 60h450l-10 -60h-450z" />
<glyph unicode="&#x3e;" horiz-adv-x="500" d="M61 482l18 47l332 -192v-58l-332 -191l-18 47l299 173z" />
<glyph unicode="?" horiz-adv-x="481" d="M387 409q-22 -29 -56.5 -53t-69.5 -51q-34 -26 -49.5 -62.5t-2.5 -78.5l-8 -5q-9 11 -19 25.5t-18 31t-13 34t-4 34.5q1 16 12 32.5t29 29.5q26 19 53 40t48.5 45.5t35 54t13.5 66.5q0 25 -7 48t-21 41t-34.5 28.5t-46.5 10.5q-35 0 -63 -24t-45 -54q-4 -10 -11 -10 q-9 0 -16.5 10t-10.5 16q-3 7 -6.5 17t-6 19.5t-2 18t4.5 13.5q29 29 59.5 40t56.5 11q53 0 102 -21.5t87 -64.5q22 -24 33.5 -55t13 -64t-8 -65t-29.5 -58zM264 56q0 -26 -16.5 -45t-45.5 -19q-32 0 -46 20t-14 41q0 9 3.5 20t11 20t19 15t27.5 6q26 0 43.5 -16t17.5 -42z " />
<glyph unicode="@" horiz-adv-x="786" d="M448 168q-14 0 -29 -0.5t-29 -1.5q-11 -1 -23.5 -1.5t-18.5 -0.5v4q26 4 35.5 17t2.5 33l-33 80l-58 1l-57 1q-3 -7 -8.5 -21t-11.5 -29t-10.5 -28.5t-4.5 -20.5q0 -11 12.5 -21.5t26.5 -11.5v-4q-2 0 -15 0.5t-24 1.5t-22 1.5t-15 0.5h-4q-2 0 -4.5 -0.5t-4.5 -0.5h-1 q24 -29 54.5 -51.5t65.5 -38.5t73.5 -24.5t77.5 -8.5q100 0 183 51l22 -36q-46 -27 -98.5 -42t-106.5 -15q-72 0 -139.5 25t-120 69t-84 104t-31.5 131q0 72 32 133.5t85 106.5t120.5 70t138.5 25q72 0 139 -26t119.5 -71t84 -106.5t31.5 -131.5q0 -44 -12.5 -78t-34 -57.5 t-50.5 -36t-62 -12.5q-27 0 -53 8t-47 25t-34 43.5t-13 64.5v214h-63q-16 0 -26 -2t-17.5 -7t-13 -12.5t-11.5 -19.5l-4 3q1 2 4.5 17t7.5 33q4 21 10 47l3 2q4 -8 11 -12t15.5 -6t17 -2h14.5l85 -3l96 3h13t11 1q-45 38 -102.5 59.5t-118.5 21.5q-63 0 -123 -22.5 t-106.5 -62.5t-75 -93.5t-28.5 -115.5q0 -41 12 -77t33 -67q8 8 14.5 21t14.5 30q3 7 10.5 23.5t18 39t22.5 49t24 53.5q28 62 62 138h12l141 -305q10 -23 28 -44.5t47 -23.5l1 -4zM747 334q0 51 -18 95.5t-49 80.5l-9 -54h-4q0 28 -12.5 37t-42.5 9l-61 1v-200 q0 -33 7.5 -53.5t20.5 -32.5t29 -16.5t34 -4.5q21 0 40 9t33.5 26t23 43t8.5 60zM294 436q-11 -28 -21.5 -54t-22.5 -55l43 -1l50 1z" />
<glyph unicode="A" horiz-adv-x="809" d="M815 0q-20 1 -44 3q-20 2 -46 3t-55 1q-23 0 -48.5 -1t-49.5 -2.5t-45 -2.5t-36 -1v7q54 8 70.5 28t-0.5 69q-9 23 -19.5 53t-20.5 57q-11 32 -23 64l-120 2l-115 -2q-15 -39 -27 -72q-11 -28 -20 -53t-11 -33q-5 -16 -9.5 -31t-4.5 -25q0 -15 7 -25.5t18 -17t24.5 -10 t26.5 -4.5v-7l-134 7q-2 0 -20 -1t-41.5 -2.5t-45.5 -2.5t-32 -1v7q33 6 55 15t38 23.5t28 36.5t25 54q6 15 20 49.5t33.5 81t42 101t45.5 109.5q53 128 117 282h8l265 -627q21 -51 55.5 -85.5t88.5 -39.5v-7zM382 572q-1 2 -2 6t-3 4q-3 0 -3 -4l-100 -263l101 -3l111 3z " />
<glyph unicode="B" horiz-adv-x="688" d="M631 221q0 -44 -18.5 -84t-53.5 -71t-84.5 -49t-110.5 -18l-151 7l-179 -6v7q29 3 50.5 8t36.5 15.5t23 27t9 43.5q1 21 1 64v92v93.5v68.5v51.5v55t-0.5 53.5t-1.5 47q-1 27 -8.5 43t-22 26t-36 15t-49.5 9v7q54 0 92 -3t67 -3q17 0 37.5 0.5t37.5 2.5l40 4 q41 3 85.5 -3.5t81.5 -25t61 -52t24 -85.5q0 -38 -15 -65.5t-35.5 -46.5t-40.5 -30t-30 -14v-5q36 -5 70 -18t61 -34.5t43 -53t16 -73.5zM514 199q0 40 -16 73t-43 57t-62 37.5t-72 13.5h-16v19h16q31 0 55.5 11t41 30.5t25 46t8.5 57.5q0 37 -11.5 65t-32 47.5t-47 29.5 t-56.5 10q-27 0 -35.5 -12.5t-8.5 -23.5v-50v-74v-26.5v-42.5v-50.5t0.5 -49.5t0.5 -40.5v-23.5v-35.5t0.5 -59t1 -58t0.5 -31.5q1 -22 6 -39t17.5 -28.5t33 -17.5t53.5 -6q22 0 47 9.5t46 30t34.5 53t13.5 78.5z" />
<glyph unicode="C" horiz-adv-x="782" d="M696 15q-24 -11 -55.5 -17t-61 -9t-51.5 -4t-28 -1q-89 0 -169.5 24t-142.5 72t-98.5 120t-36.5 168q0 89 39 158t100.5 116.5t138 72.5t151.5 25q13 0 36.5 -0.5t53 -4.5t62 -11.5t64.5 -20.5l31 -162l-12 -2q-9 36 -30.5 66.5t-52.5 53t-71.5 35t-87.5 12.5 q-65 0 -117.5 -25t-90.5 -68t-58.5 -100.5t-20.5 -122.5q0 -89 29 -158.5t75.5 -118t103 -74t112.5 -25.5q37 0 72 10.5t65 31.5t53.5 52.5t38.5 72.5l7 -8z" />
<glyph unicode="D" horiz-adv-x="915" d="M857 370q0 -92 -34 -162.5t-92 -118.5t-135.5 -72.5t-163.5 -24.5l-200 11h-36.5t-47.5 -0.5t-48.5 -1t-39.5 -1.5v8q28 4 50 9t37 15t23 26t10 42q1 14 1 38.5t0.5 54.5t0.5 63.5t-0.5 64t-0.5 56.5v42v51.5v56t-0.5 54.5t-1.5 47q-1 24 -9 40t-22 26t-35.5 15.5 t-49.5 9.5v7l170 -4q34 -1 76.5 2.5t87.5 3.5q88 0 171 -18.5t147 -60.5t103 -110.5t39 -168.5zM729 348q0 79 -31.5 143.5t-84.5 110t-121.5 70.5t-143.5 25q-24 0 -41.5 -6.5t-17.5 -34.5q0 -44 -1 -104.5t-1 -128.5v-116v-117.5t1 -78.5q6 -28 18.5 -45t31.5 -26.5 t42.5 -13t50.5 -3.5q73 0 129 23.5t93.5 66t56.5 102.5t19 133z" />
<glyph unicode="E" horiz-adv-x="663" d="M575 25q-4 -14 -9.5 -19.5t-19.5 -5.5q-54 1 -110 3t-130 2q-48 0 -113.5 -2t-129.5 -3v8q28 4 48.5 9t34 14.5t20.5 25.5t8 43q1 21 1 64.5v92v93.5v69v51.5v55t-0.5 53.5t-1.5 47q-1 27 -8 43t-20.5 25.5t-34.5 14.5t-49 9v8q22 -2 54 -3t66 -2t66 -1h55l149 1h43.5 t32 2.5t22.5 8.5t16 18l7 -5q-6 -23 -7.5 -47t-3.5 -35q-1 -11 -2 -24.5t-1.5 -27.5t-1 -26.5t-0.5 -20.5h-9q-5 56 -34 87t-89 33l-52 1h-88v-286h39t58 1q35 0 76 1q20 0 32.5 4.5t20.5 12t13 18t10 24.5q2 0 4 -2l2 -2q-2 -10 -3.5 -22.5t-3 -25.5t-2.5 -24.5t-1 -18.5 v-24.5t0.5 -26.5t0.5 -24v-17l-9 1q-1 13 -3.5 28t-10 27.5t-22 21t-38.5 8.5l-163 3v-87l1 -137q0 -27 5 -46.5t17.5 -32t34.5 -18t57 -4.5q15 0 23 0.5t15 1l14 1t20 2.5q22 3 40.5 9.5t34 20.5t29.5 37.5t27 59.5l8 -4z" />
<glyph unicode="F" horiz-adv-x="594" d="M567 745q-6 -23 -7.5 -47t-3.5 -35q-1 -11 -2 -24.5t-1.5 -27.5t-1 -26.5t-0.5 -20.5h-9q-5 56 -34 87.5t-89 32.5l-67 1h-68v-286h38.5t56.5 1q33 0 73 1q23 0 35.5 4.5t20 12t11.5 18t9 24.5q2 0 4 -2l2 -2q-2 -10 -3.5 -22.5t-3 -25.5t-2.5 -24.5t-1 -18.5v-24.5 t0.5 -26.5t0.5 -24v-17l-9 1q-1 13 -3.5 28t-10 27.5t-22 21t-38.5 8.5l-160 3v-50q0 -20 0.5 -37t0.5 -22v-47v-65t2 -50q2 -21 8 -35.5t19.5 -24t36.5 -15.5t59 -9v-7q-16 1 -38.5 2t-47.5 1.5t-49 1t-43 0.5q-18 0 -41 -0.5t-46.5 -1.5t-46 -1.5t-38.5 -1.5v6 q28 4 49.5 9t35.5 14.5t22 25.5t9 43q0 10 0.5 26.5t0.5 37.5v45v48v164v51.5v55t-0.5 53.5t-1.5 47q-1 27 -8 43t-20.5 25.5t-34.5 14.5t-49 9v8q22 -2 54 -3t66 -2t66 -1h55l144 1h46t32 2t21.5 8.5t13.5 18.5l8 -5v0z" />
<glyph unicode="G" horiz-adv-x="867" d="M860 339q-31 -3 -52 -8.5t-34 -16t-19.5 -26t-7.5 -39.5q-1 -14 -1 -42v-52v-129q-7 -4 -23 -8.5t-35 -9t-38 -8t-32 -5.5q-25 -3 -56 -7t-69 -4q-81 0 -159.5 23.5t-140 71t-99 119.5t-37.5 170q0 88 37 157t97.5 117t137.5 73t156 25q13 0 38 -0.5t56 -4.5t65 -11.5 t66 -20.5l31 -162l-12 -2q-9 36 -30.5 66.5t-52.5 53t-71.5 35t-87.5 12.5q-65 0 -118.5 -25.5t-92 -69t-60 -101.5t-21.5 -123q0 -64 20.5 -128.5t62.5 -116.5t106 -84.5t151 -32.5q13 0 28.5 1.5t30 3.5t25.5 4t15 4q0 12 1 25q0 11 0.5 26t0.5 30v39v45.5t-1 40.5 q-1 27 -9 43.5t-22.5 26.5t-36 15.5t-49.5 9.5v8q16 0 39 -0.5t47.5 -2t47.5 -2.5t40 -1q20 0 43 0.5t46 1.5t43.5 2t35.5 2v-8v0z" />
<glyph unicode="H" horiz-adv-x="973" d="M913 0q-16 1 -38.5 2t-47.5 1.5t-49 1t-43 0.5q-18 0 -41 -0.5t-46.5 -1.5t-46 -1.5t-38.5 -1.5v6q28 4 49.5 9t35.5 14.5t22 25.5t9 43q1 15 1 46.5v69.5v78v73h-388v-46q0 -59 0.5 -98.5t0.5 -65.5t0.5 -41t1.5 -23q2 -21 8 -35.5t19.5 -24t36.5 -15.5t59 -9v-7 q-16 1 -38.5 2t-47.5 1.5t-49 1t-43 0.5q-18 0 -41 -0.5t-46.5 -1.5t-46 -1.5t-38.5 -1.5v6q28 4 49.5 9t35.5 14.5t22 25.5t9 43q1 21 1 64.5v93v94.5v69t-0.5 42t-0.5 39.5t-0.5 51t-0.5 76.5q0 27 -7.5 43t-22.5 25.5t-37 14.5t-50 9v6q16 0 39 -0.5t47.5 -2t47.5 -2.5 t40 -1q20 0 43 0.5t46 1.5t43.5 2t35.5 2v-7q-31 -3 -52 -8.5t-34 -15.5t-19.5 -26t-7.5 -40q0 -8 -0.5 -19t-1 -28t-1 -41t-0.5 -59v-81l185 -2l203 1v62v49v41t-0.5 37t-1.5 39q-1 27 -9 43t-22.5 25.5t-36 14.5t-49.5 9v6q16 0 39 -0.5t47.5 -2t47.5 -2.5t40 -1 q20 0 43 0.5t46 1.5t43.5 2t35.5 2v-7q-31 -3 -52 -8.5t-34.5 -15.5t-20 -26t-7.5 -40q-1 -17 -1.5 -41t-0.5 -56v-179l1 -147v-65t2 -50q2 -21 8 -35.5t19.5 -24t36.5 -15.5t59 -9v-7v0z" />
<glyph unicode="I" d="M413 0q-16 1 -38.5 2t-47.5 1.5t-49 1t-43 0.5q-18 0 -41 -0.5t-46.5 -1.5t-46 -1.5t-38.5 -1.5v6q28 4 49.5 9t35.5 14.5t22 25.5t9 43q1 21 1 64.5v93v94.5v69t0.5 51.5t0.5 56v54.5t-1 47q-1 27 -9.5 43t-23.5 25.5t-36.5 14.5t-49.5 9v6q16 0 39 -0.5t47.5 -2 t47.5 -2.5t40 -1q20 0 43 0.5t46 1.5t43.5 2t35.5 2v-7q-31 -3 -52 -8.5t-34 -15.5t-19.5 -26t-7.5 -40q-1 -17 -1.5 -41t-0.5 -56v-326v-65t2 -50q2 -21 8 -35.5t19.5 -24t36.5 -15.5t59 -9v-7v0z" />
<glyph unicode="J" horiz-adv-x="428" d="M281 263q0 -40 1 -77.5t1 -69.5q0 -64 -19.5 -118.5t-54.5 -97t-84 -72.5t-108 -46l-5 9q47 22 78.5 61t50 86t26.5 98.5t8 98.5v21.5t-0.5 42.5t-0.5 55t-0.5 60.5t-0.5 57.5v47v51.5v56v54.5t-1 47q-1 27 -9 43t-22.5 25.5t-36 14.5t-49.5 9v6q16 0 39 -0.5t47.5 -2 t47.5 -2.5t40 -1q20 0 43 0.5t46 1.5t43.5 2t35.5 2v-7q-31 -3 -52 -8.5t-34 -15.5t-19.5 -26t-7.5 -40q-1 -17 -1.5 -41t-0.5 -56l-1 -189v-18.5v-25v-23v-13.5z" />
<glyph unicode="K" horiz-adv-x="855" d="M409 0q-16 1 -38.5 2t-47.5 1.5t-49 1t-43 0.5q-18 0 -41 -0.5t-46.5 -1.5t-46 -1.5t-38.5 -1.5v6q28 4 49.5 9t35.5 14.5t22 25.5t9 43q1 21 1.5 64.5t0.5 93v94.5v69v51.5t-0.5 56t-1 54.5t-1.5 47q-1 27 -9 43t-22.5 25.5t-36 14.5t-49.5 9v6q16 0 39 -0.5t47.5 -2 t47.5 -2.5t40 -1q20 0 43 0.5t46 1.5t43.5 2t35.5 2v-7q-31 -3 -52 -8.5t-34 -15.5t-19.5 -26t-7.5 -40q-1 -17 -1.5 -41t-0.5 -56l-2 -179l2 -147v-65t2 -50q2 -21 8 -35.5t19.5 -24t36.5 -15.5t59 -9v-7zM883 -15q-63 -6 -115.5 2t-97 26.5t-81.5 45t-67 58.5 q-19 19 -47 54t-59 74.5t-60 78t-49 64.5q8 9 25.5 27t39 40.5t45.5 47.5t46 47t39 39.5t25 25.5q11 11 25 27t19 32t-5 28t-47 15v9l162 -5l114 5v-9q-5 0 -14 -0.5t-19 -2t-20 -3.5t-17 -5q-23 -9 -55.5 -30t-64.5 -52q-11 -11 -39 -37t-59 -55.5t-59.5 -57t-40.5 -40.5 q18 -24 44.5 -60t55.5 -74.5t57.5 -74t50.5 -58.5q30 -31 62 -62t66 -55.5t68.5 -39.5t69.5 -15z" />
<glyph unicode="L" horiz-adv-x="667" d="M499 49q26 2 45.5 7.5t35.5 18t29 35.5t26 59l8 -4l-27 -129q-3 -14 -11.5 -25.5t-37.5 -10.5q-63 2 -124.5 4t-126.5 2q-66 0 -130 -2t-130 -4v8q30 4 52.5 9t37.5 14.5t23 25.5t9 43q1 21 1 64.5v92v93.5v69v51.5v56t-0.5 54.5t-1.5 47q-1 27 -9 43t-22.5 25.5 t-36 14.5t-49.5 9v6q16 0 39 -0.5t47.5 -2t47.5 -2.5t40 -1q20 0 43 0.5t46 1.5t43.5 2t35.5 2v-7q-31 -3 -52 -8.5t-34 -15.5t-19.5 -26t-7.5 -40q-1 -17 -1.5 -41t-0.5 -56l-1 -202q0 -12 0.5 -35t0.5 -50.5t0.5 -55.5t0.5 -51q0 -20 4.5 -37.5t16.5 -30.5t32 -20t50 -6 q19 0 33 0.5t26 1t23 1.5t26 2z" />
<glyph unicode="M" horiz-adv-x="1057" d="M1042 0q-21 1 -45 2.5t-47.5 2.5t-46 1.5t-40.5 0.5q-47 0 -88 -2t-83 -5v7q28 4 48 9t33 14.5t19.5 25.5t7.5 43q1 14 -2.5 53.5t-8.5 86.5t-10.5 94t-8.5 76q-1 13 -3.5 33.5l-5 41t-4.5 37.5t-2 23h-4q-28 -60 -44 -96t-27.5 -63t-23.5 -53t-31.5 -66.5t-50.5 -103.5 t-81 -163h-7q-58 129 -120 255.5t-119 255.5h-3l-14 -98q-6 -42 -13.5 -92.5t-15.5 -95.5q-6 -36 -11 -71t-6 -52q-1 -18 3.5 -33.5t17.5 -27.5t36 -20.5t59 -11.5v-8q-23 2 -67 4t-89 2q-44 0 -78.5 -2t-57.5 -4v7q26 4 47 12t37 24t27 41t18 64l72 419q-7 16 -13 31 q-5 12 -10 24.5t-8 18.5q-18 38 -45.5 55.5t-65.5 22.5v7q10 -1 24.5 -1.5t30 -1t29.5 -0.5h24q26 0 50.5 0.5t42.5 2.5q31 -68 62 -141t62.5 -146.5t62.5 -146.5t61 -140q34 67 69 139t69.5 145.5t69 146.5t68.5 143q8 -1 19.5 -1.5t24 -1t24 -1t19.5 -0.5q27 0 48.5 1 t39.5 3v-7q-31 -3 -51 -8.5t-32.5 -15.5t-18.5 -26t-7 -40q0 -4 0.5 -14.5t1.5 -16.5q5 -48 12 -104t13.5 -109.5t12 -98t8.5 -68.5q3 -29 6 -55q2 -22 4.5 -42.5t4.5 -28.5q4 -21 9.5 -35.5t18.5 -24t35 -15.5t58 -9v-8v0z" />
<glyph unicode="N" horiz-adv-x="945" d="M811 44q0 -8 -0.5 -18t-0.5 -19q-1 -11 -1 -21l-11 -3q-135 139 -250 260q-49 51 -99 103.5t-94 98t-78.5 81.5t-53.5 56v-11v-6v-10v-23l-1 -179l1 -147v-65t2 -50q2 -21 8 -35.5t19.5 -24t36.5 -15.5t59 -9v-7q-32 2 -72.5 3.5t-78.5 1.5q-35 0 -77.5 -1.5t-74.5 -3.5 v6q28 4 49.5 9t36 14.5t22 25.5t8.5 43q1 21 1 64.5v93v94.5v69v51.5v56t-0.5 54.5t-1.5 47q-1 27 -9 43t-22.5 25.5t-36 14.5t-49.5 9v6q27 -2 44.5 -3t31.5 -1t26.5 0.5t29.5 0.5q6 0 17 0.5t23 1t22.5 1t16.5 0.5q138 -150 247 -269q46 -51 91 -99.5t80.5 -87t57.5 -63 t24 -25.5h1q2 0 2 2q0 3 -0.5 28t-0.5 60.5t-0.5 75.5t-0.5 72q0 24 -0.5 51.5t-0.5 55.5v54t-1 47q-1 27 -9 43t-22.5 25.5t-36 14.5t-49.5 9v6q16 0 36 -0.5t40.5 -2t40.5 -2.5t37 -1q40 0 76 2t65 4v-7q-31 -3 -52 -8.5t-34 -15.5t-19.5 -26t-7.5 -40q-1 -17 -1.5 -41 t-0.5 -56l-1 -179l-4 -309v0z" />
<glyph unicode="O" horiz-adv-x="912" d="M853 373q0 -84 -30 -156t-84 -124.5t-128 -82t-161 -29.5q-90 0 -162.5 31t-123.5 83t-78.5 121t-27.5 144q0 72 26.5 140.5t77.5 122t126 86.5t172 33q85 0 157 -26t124.5 -74t82 -116t29.5 -153zM478 16q43 0 85.5 19.5t75.5 60t54 104t21 151.5q0 75 -20 140 t-56.5 113t-87.5 76t-112 28q-52 0 -96 -22.5t-76.5 -64.5t-50.5 -103t-18 -137q0 -77 20.5 -143.5t57 -116t88.5 -77.5t115 -28z" />
<glyph unicode="P" horiz-adv-x="677" d="M632 531q0 -56 -26.5 -102t-68.5 -78t-94.5 -48.5t-104.5 -13.5v9q40 4 74.5 17t59 36.5t38.5 56.5t14 77q0 41 -13 79t-37.5 67t-59.5 47.5t-78 20.5q-23 2 -41 0l-7 -13v-227l-1 -106l1 -147v-65t2 -50q2 -21 8 -35.5t19.5 -24t36.5 -15.5t59 -9v-7q-16 1 -38.5 2 t-47.5 1.5t-49 1t-43 0.5q-18 0 -41 -0.5t-46.5 -1.5t-46 -1.5t-38.5 -1.5v6q28 4 49.5 9t35.5 14.5t22 25.5t9 43q1 21 1 64.5v93v94.5v69v51v55t-0.5 53.5t-1.5 46.5q-1 27 -8 43t-21 26t-35 15t-49 9v8q12 -1 30 -1.5t39.5 -1t45.5 -1t47 -0.5l143 4q42 0 88 -8 t84.5 -29.5t64 -59.5t25.5 -98z" />
<glyph unicode="Q" horiz-adv-x="913" d="M1479 -117q-7 -7 -10 -9q-23 -21 -53 -42.5t-69 -39t-87.5 -28t-106.5 -10.5q-48 0 -91.5 7.5t-86 21.5t-85.5 35.5t-89 50.5q-16 10 -43.5 27.5t-57 37t-56.5 38t-42 29.5q-15 -5 -51.5 -9.5t-75.5 -4.5q-77 0 -148.5 26.5t-127 75.5t-89 118.5t-33.5 155.5 q0 71 26.5 139t78 121t127 85.5t172.5 32.5q85 0 156 -27t123 -75.5t81 -115.5t29 -147q0 -57 -15.5 -106t-41 -89.5t-58.5 -72.5t-67 -54q53 -33 100 -62q20 -12 40.5 -24.5t39.5 -24t34.5 -20t26.5 -13.5q56 -28 103.5 -46.5t87 -29.5t72 -15.5t58.5 -4.5q69 0 117.5 16.5 t91.5 47.5q4 3 7.5 6t6.5 5zM732 344q0 81 -21.5 148t-59 115t-88 74.5t-107.5 26.5q-47 0 -90.5 -20t-76.5 -60t-53 -100t-20 -139q0 -50 13 -100.5t36.5 -96t57.5 -83t75 -61t88.5 -30t99.5 10.5q22 7 47 30.5t47 63t36.5 95t14.5 126.5h1z" />
<glyph unicode="R" horiz-adv-x="767" d="M833 -46q-101 3 -172.5 35t-122 83t-85.5 115t-64 131q-9 -3 -22 -5t-28.5 -3.5t-31.5 -2t-29 0.5v-57v-104.5t2 -55.5q2 -21 8 -35.5t19.5 -24t36.5 -15.5t59 -9v-7q-16 1 -38.5 2t-47.5 1.5t-49 1t-43 0.5q-18 0 -41 -0.5t-46.5 -1.5t-46 -1.5t-38.5 -1.5v6 q28 4 49.5 9t35.5 14.5t22 25.5t9 43q1 20 1 62.5v90.5q0 54 0.5 101t0.5 91.5t-0.5 88.5t-2.5 94q-1 27 -8 43t-21 25.5t-35 14.5t-49 9v7q64 0 104.5 -2t65.5 -2l116 3q48 0 97.5 -8t90 -28t66.5 -55.5t26 -90.5q0 -62 -37.5 -105t-93.5 -76q10 -34 28.5 -75.5t44 -84 t56.5 -83.5t65.5 -74t72 -55t76.5 -26v-9zM510 499q0 52 -19.5 89.5t-51 61.5t-72 35.5t-82.5 11.5l-7 -10v-153l-1 -159v-41q43 1 84.5 14t74.5 34.5t53.5 51.5t20.5 65z" />
<glyph unicode="S" horiz-adv-x="598" d="M525 201q0 -54 -21.5 -94.5t-57 -67t-81.5 -39.5t-95 -13q-54 0 -105 20.5t-93 55.5q4 37 6 69t4 76h7q8 -94 59 -141t132 -47q30 0 55 11t43 29t27.5 41.5t9.5 49.5q0 24 -6 42.5t-19 35.5t-34 35t-50 39q-35 25 -71.5 49.5t-66 53t-48 64.5t-18.5 85q0 39 16 72.5 t45.5 58t71 39t92.5 14.5q18 0 40 -2t44.5 -6.5t43.5 -12t37 -17.5q-1 -35 1.5 -71t4.5 -71l-9 -3q-7 46 -24.5 76.5t-40.5 48.5t-48.5 25.5t-47.5 7.5q-26 0 -48.5 -10t-39 -26.5t-26 -39.5t-9.5 -48q0 -21 7 -38t21 -33t33.5 -32t45.5 -34q35 -26 72.5 -51t69 -54.5 t51.5 -65t20 -81.5z" />
<glyph unicode="T" horiz-adv-x="713" d="M681 574l-8 2q4 60 -21.5 81.5t-82.5 22.5l-163 2l-1 -431v-45v-65t2 -50q2 -21 8 -35.5t19.5 -24t36.5 -15.5t59 -9v-7q-16 1 -38.5 2t-47.5 1.5t-49 1t-43 0.5q-18 0 -41 -0.5t-46.5 -1.5t-46 -1.5t-38.5 -1.5v6q28 4 49.5 9t36 14.5t22 25.5t8.5 43q1 20 1.5 62.5 t0.5 90.5v256q0 29 -0.5 60t-0.5 57v58l-162 -2q-30 0 -48.5 -5t-31.5 -16.5t-24 -29.5t-26 -44l-7 5q0 3 6 29.5t14 58.5q9 36 21 82l6 6q8 -15 22 -23t29.5 -12.5t32 -6t28.5 -1.5l199 -5l229 5q35 1 56 3.5t34 7.5t19 11.5t11 15.5l8 -4z" />
<glyph unicode="U" horiz-adv-x="884" d="M748 336q0 -4 0.5 -9t0.5 -9q0 -40 -4 -79t-15.5 -74.5t-30.5 -66t-49 -54.5q-44 -35 -93 -48t-103 -13q-30 0 -61 3t-60.5 11t-56.5 21.5t-49 33.5q-68 59 -75 174q-2 19 -2.5 43.5t-1 51t-0.5 52v46.5v51.5v55.5v54t-1 47q-1 27 -9 43t-22.5 25.5t-36 14.5t-49.5 9v6 q16 0 39 -0.5t47.5 -2t47.5 -2.5t40 -1q20 0 43 0.5t46 1.5t43.5 2t35.5 2v-7q-31 -3 -52 -8.5t-34 -15.5t-19.5 -26t-7.5 -40q-1 -17 -1.5 -41t-0.5 -56l2 -216q0 -42 5.5 -81.5t17.5 -73t31 -60.5t47 -44q30 -19 62.5 -26.5t66.5 -7.5q40 0 77 15.5t62 41.5 q18 19 30.5 45.5t20 58t10.5 66t3 69.5l-2 176q-1 36 -1.5 72t-1.5 62q-1 27 -9 43t-22.5 25.5t-36 14.5t-49.5 9v6q32 1 72.5 -2.5t74.5 -3.5q40 0 79 2t68 4v-7q-31 -3 -52 -8.5t-34 -15.5t-19.5 -26t-7.5 -40q-1 -17 -1.5 -41t-0.5 -56v-72q0 -13 -0.5 -29.5t-0.5 -33 v-30.5v-22v-9z" />
<glyph unicode="V" horiz-adv-x="875" d="M433 -9h-9q-61 142 -111 256q-21 49 -42 96.5t-38.5 87t-29.5 66.5t-15 35q-4 9 -14.5 29.5t-22 42t-22 40t-14.5 23.5q-23 26 -47.5 36t-62.5 15v9q17 -1 39.5 -2.5t46 -2.5t46 -1.5t39.5 -0.5h25t41 1t49 2t49 4v-8q-11 -3 -24 -5t-23.5 -6.5t-17.5 -12.5t-7 -23 q0 -12 5 -29.5t16 -43.5q7 -18 18.5 -46.5t25 -62.5t29 -71.5t30.5 -73.5q35 -85 75 -183q0 1 1 1t2 1q7 19 24 57t39.5 88t48.5 110t52 122q9 22 18 42.5t15 37.5q16 47 -6 69t-79 30v6q32 2 67.5 -2t69.5 -4q40 0 81 2.5t70 4.5v-7q-36 -4 -61 -15.5t-43 -30.5 t-31.5 -43.5t-26.5 -53.5z" />
<glyph unicode="W" horiz-adv-x="1230" d="M838 -10q-35 81 -73 170q-32 76 -72.5 170t-81.5 190q-16 -37 -34 -79.5t-36.5 -86.5t-37 -88.5t-34.5 -84.5q-40 -95 -78 -191h-10l-194 542q-8 23 -18.5 45.5t-21 40.5t-19.5 31t-13 18q-23 26 -47.5 36t-62.5 15v9q17 -1 39.5 -2.5t46 -2.5t46 -1.5t39.5 -0.5h25t41 1 t49 2t49 4v-8q-11 -3 -24 -5t-23.5 -6.5t-17.5 -12.5t-7 -23q0 -12 6 -29t14 -44l128 -413q0 1 1 1t2 1l165 392q-11 23 -24.5 47t-28.5 40q-23 26 -47 36t-62 15v9q17 -1 39.5 -2.5t46 -2.5t46 -1.5t39.5 -0.5h25t41 1t49 2t49 4v-8q-11 -3 -24 -5t-23.5 -6.5t-17.5 -12.5 t-7 -23q0 -12 5.5 -29.5t15.5 -43.5l155 -413q0 1 1 1q2 0 2 1q12 31 26 71t28.5 81.5t28.5 81.5t25 72q7 23 11 35.5t7 24t7.5 26t14.5 41.5q16 47 -2 69t-75 30v6q32 2 69 -2t71 -4q40 0 80.5 2.5t69.5 4.5v-7q-36 -4 -61.5 -15.5t-43.5 -29.5t-31 -43t-25 -55l-40 -105 q-15 -38 -30.5 -79t-30.5 -82.5t-29.5 -81t-27.5 -75.5q-31 -84 -59 -164h-9z" />
<glyph unicode="X" horiz-adv-x="723" d="M754 -3q-17 1 -39.5 2.5t-46 2.5t-46 1.5t-39.5 0.5h-24t-39 -1t-47 -2t-48 -4v8q11 3 23.5 5t23 6.5t17 12.5t6.5 23q0 12 -10 31t-24 42q-13 21 -29 48.5t-32 54t-28.5 48t-17.5 31.5q-4 -6 -18.5 -27t-33 -48t-37.5 -56t-31 -50q-13 -21 -20 -36t-9 -24 q-4 -16 0.5 -27t14 -18t22.5 -11t26 -6v-7q-32 -1 -57 2.5t-59 3.5q-20 0 -43.5 -0.5t-47 -1.5t-44.5 -2t-36 -2v7q57 5 95.5 31.5t66.5 62.5q7 10 19 26t26 35.5t30 41.5t31 43q36 50 77 107q-25 40 -49 80q-20 34 -43.5 71.5t-40.5 67.5q-5 9 -14.5 23t-19.5 29t-19 27.5 t-13 17.5q-23 25 -50 35.5t-66 15.5v9q17 -1 39.5 -2.5t46.5 -2.5t46.5 -1.5t39.5 -0.5h23t39 1t47.5 2t48.5 4v-8q-12 -3 -24 -5t-22.5 -6.5t-17 -12.5t-6.5 -23q0 -12 10 -31t24 -42q13 -22 26.5 -46t26.5 -46t23 -40t16 -28q4 6 15.5 23.5t26.5 40.5t31.5 48.5t28.5 46.5 q24 41 29 60q4 16 -0.5 27t-14.5 18t-23 11t-26 6v6q32 2 57 -2t59 -4q41 0 81.5 2.5t69.5 4.5v-7q-28 -3 -49.5 -13t-39.5 -25t-33.5 -33.5t-31.5 -39.5q-15 -20 -40.5 -55.5t-50.5 -69.5q-29 -40 -61 -86q29 -47 56 -92q23 -38 48.5 -80t43.5 -72q5 -8 14 -22.5t19 -29.5 t19 -28t14 -18q23 -25 50 -35t65 -16v-8v0z" />
<glyph unicode="Y" horiz-adv-x="781" d="M779 720q-56 -6 -92 -36.5t-62 -74.5q-8 -12 -19 -31t-24.5 -42t-28.5 -48t-29 -49q-33 -57 -71 -121v-97.5v-65.5t0.5 -41t1.5 -23q2 -21 8 -35.5t19.5 -24t36.5 -15.5t59 -9v-7q-16 1 -38.5 2t-47.5 1.5t-49 1t-43 0.5q-18 0 -41 -0.5t-46.5 -1.5t-46 -1.5t-38.5 -1.5 v6q28 4 49.5 9t35.5 14.5t22 25.5t9 43q0 9 0.5 31.5t0.5 49.5v55.5v50.5q-34 59 -65 113q-13 23 -27 47t-27.5 47t-25 43t-20.5 35q-5 9 -14 23t-18 29t-17.5 27.5t-12.5 17.5q-23 25 -50 35.5t-66 15.5v9q17 -1 39.5 -2.5t46.5 -2.5t46.5 -1.5t39.5 -0.5h23t39 1t47.5 2 t48.5 4v-8q-12 -3 -24 -5t-22.5 -6.5t-17 -12.5t-6.5 -23q0 -12 10 -31t24 -42q8 -14 20 -35.5t25.5 -45.5t27 -49t25 -46.5t20 -37.5t12.5 -22q27 50 53 96q10 19 21.5 39.5t21.5 39t18.5 34t13.5 26.5q11 22 19 36.5t10 23.5q4 16 -0.5 27t-14.5 18t-23 11t-26 6v6 q16 1 29 0t25 -2.5t25 -2.5t30 -1q41 0 81.5 2.5t69.5 4.5v-7v0z" />
<glyph unicode="Z" horiz-adv-x="696" d="M33 10q1 -2 20.5 26t51.5 74.5t72.5 107t82.5 123.5q99 148 225 338l-126 3l-148 -2q-32 0 -51.5 -5t-33 -16.5t-25 -29.5t-26.5 -44l-7 5q0 3 6 29.5t14 58.5q9 36 21 82l6 6q8 -15 22 -23t29.5 -11.5t32 -4.5t28.5 -1l182 -2l234 2l6 -7l-457 -671q67 -2 120.5 -3 t88.5 0l136 3q32 1 51 6t32 16t24 29t26 44l7 -5q0 -3 -7 -30t-14 -58q-10 -37 -21 -82l-6 -6q-8 15 -21.5 22.5t-29 11.5t-32 5t-28.5 1l-181 3q-28 1 -64 1t-76 -0.5t-80.5 -1.5t-77.5 -4z" />
<glyph unicode="[" horiz-adv-x="338" d="M97 -58v821h194v-29h-121v-763h121v-29h-194z" />
<glyph unicode="\" horiz-adv-x="443" d="M450 -16q2 -2 -0.5 -4.5t-4.5 -3.5l-35 -17q-3 -3 -8 6q-1 3 -9 18.5t-21 41.5q-12 23 -34 66t-49.5 97t-58.5 115.5t-62 121.5q-72 142 -156 307q-2 2 1 4.5t5 3.5l34 17q3 3 8 -6q1 -3 14.5 -30t35 -69.5t49 -97.5t57.5 -114t60.5 -118.5t57 -112t47.5 -93.5t33 -64 q8 -16 14.5 -28.5t11.5 -21.5q5 -11 10 -18z" />
<glyph unicode="]" horiz-adv-x="338" d="M59 -58v28h121v764h-121v29h194v-821h-194z" />
<glyph unicode="^" horiz-adv-x="500" d="M63 134l-47 18l192 332h58l191 -332l-47 -18l-173 299z" />
<glyph unicode="_" horiz-adv-x="500" d="M0 -150v50h500v-50h-500z" />
<glyph unicode="`" horiz-adv-x="756" d="M362 781l-202 116l-13 44l76 23l152 -164z" />
<glyph unicode="a" horiz-adv-x="841" d="M831 0q-20 1 -44 3q-20 2 -46 3t-55 1q-23 0 -48.5 -1t-49.5 -2.5t-45 -2.5t-36 -1v7q54 8 70.5 28t-0.5 69q-9 23 -19.5 53t-20.5 57q-11 32 -23 64l-120 2l-115 -2q-15 -39 -27 -72q-11 -28 -20 -53t-11 -33q-5 -16 -9.5 -31t-4.5 -25q0 -15 7 -25.5t18 -17t24.5 -10 t26.5 -4.5v-7l-134 7q-2 0 -20 -1t-41.5 -2.5t-45.5 -2.5t-32 -1v7q33 6 55 15t38 23.5t28 36.5t25 54q6 15 20 49.5t33.5 81t42 101t45.5 109.5q53 128 117 282h8l265 -627q21 -51 55.5 -85.5t88.5 -39.5v-7zM398 572q-1 2 -2 6t-3 4q-3 0 -3 -4l-100 -263l101 -3l111 3z " />
<glyph unicode="b" horiz-adv-x="688" d="M211 55q-53 -65 -176 -71l-2 7q37 8 60.5 20.5t37 31t18.5 43.5t5 58v275v51.5v55t-0.5 53.5t-1.5 47q-1 27 -8.5 43t-22 26t-36 15t-49.5 9v7q54 0 92 -3.5t67 -3.5q17 0 37.5 1t37.5 3l40 4q41 3 85.5 -3t81.5 -25t61 -52.5t24 -85.5q0 -38 -15 -65.5t-35.5 -46.5 t-40.5 -30t-30 -14v-5q36 -5 70 -18t61 -34.5t43 -53t16 -73.5q0 -44 -18.5 -84t-53.5 -71t-84.5 -49t-110.5 -18q-14 0 -32 2t-38 8t-41.5 17t-41.5 29zM262 211v-31t0.5 -28t0.5 -21.5v-11.5q1 -22 6 -39t17.5 -28.5t33 -17.5t53.5 -6q22 0 47 9.5t46 30t34.5 53 t13.5 78.5q0 40 -16 73t-43 57t-62 37.5t-72 13.5h-16v19h16q31 0 55.5 11t41 30.5t25 46t8.5 57.5q0 37 -11.5 65t-32 47.5t-47 29.5t-56.5 10q-27 0 -35.5 -12.5t-8.5 -23.5v-124q0 -81 1.5 -162t0.5 -163z" />
<glyph unicode="c" horiz-adv-x="782" d="M696 15q-24 -11 -55.5 -17t-61 -9t-51.5 -4t-28 -1q-89 0 -169.5 24t-142.5 72t-98.5 120t-36.5 168q0 89 39 158t100.5 116.5t138 72.5t151.5 25q13 0 36.5 -0.5t53 -4.5t62 -11.5t64.5 -20.5l31 -162l-12 -2q-9 36 -30.5 66.5t-52.5 53t-71.5 35t-87.5 12.5 q-65 0 -117.5 -25t-90.5 -68t-58.5 -100.5t-20.5 -122.5q0 -89 29 -158.5t75.5 -118t103 -74t112.5 -25.5q37 0 72 10.5t65 31.5t53.5 52.5t38.5 72.5l7 -8z" />
<glyph unicode="d" horiz-adv-x="915" d="M857 370q0 -92 -34 -162.5t-92 -118.5t-135.5 -72.5t-163.5 -24.5l-200 11h-36.5t-47.5 -0.5t-48.5 -1t-39.5 -1.5v8q28 4 50 9t37 15t23 26t10 42q1 14 1 38.5t0.5 54.5t0.5 63.5t-0.5 64t-0.5 56.5v42v51.5v56t-0.5 54.5t-1.5 47q-1 24 -9 40t-22 26t-35.5 15.5 t-49.5 9.5v7l170 -4q34 -1 76.5 2.5t87.5 3.5q88 0 171 -18.5t147 -60.5t103 -110.5t39 -168.5zM729 348q0 79 -31.5 143.5t-84.5 110t-121.5 70.5t-143.5 25q-24 0 -41.5 -6.5t-17.5 -34.5q0 -44 -1 -104.5t-1 -128.5v-116v-117.5t1 -78.5q6 -28 18.5 -45t31.5 -26.5 t42.5 -13t50.5 -3.5q73 0 129 23.5t93.5 66t56.5 102.5t19 133z" />
<glyph unicode="e" horiz-adv-x="663" d="M575 25q-4 -14 -9.5 -19.5t-19.5 -5.5l-300 5l-183 -5v8q28 4 48.5 9t34 14.5t20.5 25.5t8 43q1 21 1 64.5v92v93.5v69v51.5v55t-0.5 53.5t-1.5 47q-1 27 -8 43t-20.5 25.5t-34.5 14.5t-49 9v8q22 -2 54 -3t66 -2t66 -1h55l149 1h43.5t32 2.5t22.5 8.5t16 18l7 -5 q-6 -23 -7.5 -47t-3.5 -35q-1 -11 -2 -24.5t-1.5 -27.5t-1 -26.5t-0.5 -20.5h-9q-5 56 -34 87t-89 33l-52 1h-88v-286h39t58 1q35 0 76 1q20 0 32.5 4.5t20.5 12t13 18t10 24.5q2 0 4 -2l2 -2q-2 -10 -3.5 -22.5t-3 -25.5t-2.5 -24.5t-1 -18.5v-24.5t0.5 -26.5t0.5 -24v-17 l-9 1q-1 13 -3.5 28t-10 27.5t-22 21t-38.5 8.5l-163 3v-87l1 -137q0 -27 5 -46.5t17.5 -32.5t34.5 -18.5t57 -3.5q14 1 22 1t15 0.5t14.5 1t20.5 2.5q22 3 40.5 9.5t34 20.5t29.5 37.5t27 59.5l8 -4z" />
<glyph unicode="f" horiz-adv-x="594" d="M567 745q-6 -23 -7.5 -47t-3.5 -35q-1 -11 -2 -24.5t-1.5 -27.5t-1 -26.5t-0.5 -20.5h-9q-5 56 -34 87.5t-89 32.5l-67 1h-68v-286h38.5t56.5 1q33 0 73 1q23 0 35.5 4.5t20 12t11.5 18t9 24.5q2 0 4 -2l2 -2q-2 -10 -3.5 -22.5t-3 -25.5t-2.5 -24.5t-1 -18.5v-24.5 t0.5 -26.5t0.5 -24v-17l-9 1q-1 13 -3.5 28t-10 27.5t-22 21t-38.5 8.5l-160 3v-50q0 -20 0.5 -37t0.5 -22v-47v-65t2 -50q2 -21 8 -35.5t19.5 -24t36.5 -15.5t59 -9v-7q-16 1 -38.5 2t-47.5 1.5t-49 1t-43 0.5q-18 0 -41 -0.5t-46.5 -1.5t-46 -1.5t-38.5 -1.5v6 q28 4 49.5 9t35.5 14.5t22 25.5t9 43q0 10 0.5 26.5t0.5 37.5v45v48v164v51.5v55t-0.5 53.5t-1.5 47q-1 27 -8 43t-20.5 25.5t-34.5 14.5t-49 9v8q22 -2 54 -3t66 -2t66 -1h55l144 1h46t32 2t21.5 8.5t13.5 18.5l8 -5v0z" />
<glyph unicode="g" horiz-adv-x="867" d="M860 339q-31 -3 -52 -8.5t-34 -16t-19.5 -26t-7.5 -39.5q-1 -14 -1 -42v-52v-129q-7 -4 -23 -8.5t-35 -9t-38 -8t-32 -5.5q-25 -3 -56 -7t-69 -4q-81 0 -159.5 23.5t-140 71t-99 119.5t-37.5 170q0 88 37 157t97.5 117t137.5 73t156 25q13 0 38 -0.5t56 -4.5t65 -11.5 t66 -20.5l31 -162l-12 -2q-9 36 -30.5 66.5t-52.5 53t-71.5 35t-87.5 12.5q-65 0 -118.5 -25.5t-92 -69t-60 -101.5t-21.5 -123q0 -64 20.5 -128.5t62.5 -116.5t106 -84.5t151 -32.5q13 0 28.5 1.5t30 3.5t25.5 4t15 4q0 12 1 25q0 11 0.5 26t0.5 30v39v45.5t-1 40.5 q-1 27 -9 43.5t-22.5 26.5t-36 15.5t-49.5 9.5v8q16 0 39 -0.5t47.5 -2t47.5 -2.5t40 -1q20 0 43 0.5t46 1.5t43.5 2t35.5 2v-8v0z" />
<glyph unicode="h" horiz-adv-x="973" d="M913 0q-16 1 -38.5 2t-47.5 1.5t-49 1t-43 0.5q-18 0 -41 -0.5t-46.5 -1.5t-46 -1.5t-38.5 -1.5v6q28 4 49.5 9t35.5 14.5t22 25.5t9 43q1 15 1 46.5v69.5v78v73h-388v-46q0 -59 0.5 -98.5t0.5 -65.5t0.5 -41t1.5 -23q2 -21 8 -35.5t19.5 -24t36.5 -15.5t59 -9v-7 q-16 1 -38.5 2t-47.5 1.5t-49 1t-43 0.5q-18 0 -41 -0.5t-46.5 -1.5t-46 -1.5t-38.5 -1.5v6q28 4 49.5 9t35.5 14.5t22 25.5t9 43q1 21 1 64.5v93v94.5v69t-0.5 42t-0.5 39.5t-0.5 51t-0.5 76.5q0 27 -7.5 43t-22.5 25.5t-37 14.5t-50 9v6q16 0 39 -0.5t47.5 -2t47.5 -2.5 t40 -1q20 0 43 0.5t46 1.5t43.5 2t35.5 2v-7q-31 -3 -52 -8.5t-34 -15.5t-19.5 -26t-7.5 -40q0 -8 -0.5 -19t-1 -28t-1 -41t-0.5 -59v-81l185 -2l203 1v62v49v41t-0.5 37t-1.5 39q-1 27 -9 43t-22.5 25.5t-36 14.5t-49.5 9v6q16 0 39 -0.5t47.5 -2t47.5 -2.5t40 -1 q20 0 43 0.5t46 1.5t43.5 2t35.5 2v-7q-31 -3 -52 -8.5t-34.5 -15.5t-20.5 -26t-8 -40q-1 -17 -1 -41v-56v-179l1 -147v-65t2 -50q2 -21 8 -35.5t19.5 -24t36.5 -15.5t59 -9v-7v0z" />
<glyph unicode="i" d="M413 0q-16 1 -38.5 2t-47.5 1.5t-49 1t-43 0.5q-18 0 -41 -0.5t-46.5 -1.5t-46 -1.5t-38.5 -1.5v6q28 4 49.5 9t35.5 14.5t22 25.5t9 43q1 21 1 64.5v93v94.5v69t0.5 51.5t0.5 56v54.5t-1 47q-1 27 -9.5 43t-23.5 25.5t-36.5 14.5t-49.5 9v6q16 0 39 -0.5t47.5 -2 t47.5 -2.5t40 -1q20 0 43 0.5t46 1.5t43.5 2t35.5 2v-7q-31 -3 -52 -8.5t-34 -15.5t-19.5 -26t-7.5 -40q-1 -17 -1.5 -41t-0.5 -56v-326v-65t2 -50q2 -21 8 -35.5t19.5 -24t36.5 -15.5t59 -9v-7v0z" />
<glyph unicode="j" horiz-adv-x="428" d="M281 263q0 -40 1 -77.5t1 -69.5q0 -64 -19.5 -118.5t-54.5 -97t-84 -72.5t-108 -46l-5 9q47 22 78.5 61t50 86t26.5 98.5t8 98.5v21.5t-0.5 42.5t-0.5 55t-0.5 60.5t-0.5 57.5v47v51.5v56v54.5t-1 47q-1 27 -9 43t-22.5 25.5t-36 14.5t-49.5 9v6q16 0 39 -0.5t47.5 -2 t47.5 -2.5t40 -1q20 0 43 0.5t46 1.5t43.5 2t35.5 2v-7q-31 -3 -52 -8.5t-34 -15.5t-19.5 -26t-7.5 -40q-1 -17 -1.5 -41t-0.5 -56q0 -77 -0.5 -127.5t-0.5 -81v-44v-16.5z" />
<glyph unicode="k" horiz-adv-x="855" d="M1057 -147q47 0 87.5 10t83.5 30l6 -7q-23 -21 -57 -37t-71.5 -26.5t-74.5 -15.5t-67 -5q-73 0 -139 28t-127 74.5t-115.5 107t-103.5 126t-92.5 130.5t-81.5 121q8 9 25.5 27t39.5 40.5t46.5 47l46.5 46.5l39.5 39.5l25.5 25.5q11 11 25 27t19 32t-5 28t-47 15v9l162 -5 l114 5v-9q-5 0 -14 -0.5t-19 -2t-20 -3.5t-17 -5q-23 -9 -55.5 -30t-64.5 -52q-11 -11 -39 -37t-59 -55.5t-59.5 -57t-40.5 -40.5q34 -51 76.5 -114t92 -127.5t105.5 -125.5t116.5 -108.5t125.5 -76.5t133 -29zM409 0q-16 1 -38.5 2t-47.5 1.5t-49 1t-43 0.5q-18 0 -41 -0.5 t-46.5 -1.5t-46 -1.5t-38.5 -1.5v6q28 4 49.5 9t36 14.5t22 25.5t8.5 43q1 21 1 64.5v93v94.5v69v51.5v56v54.5t-1 47q-1 27 -9 43t-22.5 25.5t-36.5 14.5t-50 9v6q16 0 39 -0.5t47.5 -2t47.5 -2.5t40 -1q20 0 43 0.5t46 1.5t43.5 2t35.5 2v-7q-31 -3 -52 -8.5t-34 -15.5 t-19.5 -26t-7.5 -40q-1 -17 -1.5 -41t-0.5 -56l-1 -179l1 -147q0 -32 -0.5 -65t1.5 -50q2 -21 8 -35.5t20 -24t37 -15.5t59 -9v-7z" />
<glyph unicode="l" horiz-adv-x="667" d="M499 49q26 2 45.5 7.5t35.5 18t29 35.5t26 59l8 -4l-27 -129q-3 -14 -11.5 -25.5t-37.5 -10.5q-63 2 -124.5 4t-126.5 2q-66 0 -130 -2t-130 -4v8q30 4 52.5 9t37.5 14.5t23 25.5t9 43q1 21 1 64.5v92v93.5v69v51.5v56t-0.5 54.5t-1.5 47q-1 27 -9 43t-22.5 25.5 t-36 14.5t-49.5 9v6q16 0 39 -0.5t47.5 -2t47.5 -2.5t40 -1q20 0 43 0.5t46 1.5t43.5 2t35.5 2v-7q-31 -3 -52 -8.5t-34 -15.5t-19.5 -26t-7.5 -40q-1 -17 -1.5 -41t-0.5 -56l-1 -202q0 -12 0.5 -35t0.5 -50.5t0.5 -55.5t0.5 -51q0 -20 4.5 -37.5t16.5 -30.5t32 -20t50 -6 q19 0 33 0.5t26 1t23 1.5t26 2z" />
<glyph unicode="m" horiz-adv-x="1057" d="M1042 0q-21 1 -45 2.5t-47.5 2.5t-46 1.5t-40.5 0.5q-47 0 -88 -2t-83 -5v7q28 4 48 9t33 14.5t19.5 25.5t7.5 43q1 14 -2.5 53.5t-8.5 86.5t-10.5 94t-8.5 76q-1 13 -3.5 33.5l-5 41t-4.5 37.5t-2 23h-4q-28 -60 -44 -96t-27.5 -63t-23.5 -53t-31.5 -66.5t-50.5 -103.5 t-81 -163h-7q-58 129 -120 255.5t-119 255.5h-3l-14 -98q-6 -42 -13.5 -92.5t-15.5 -95.5q-6 -36 -11 -71t-6 -52q-1 -18 3.5 -33.5t17.5 -27.5t36 -20.5t59 -11.5v-8q-23 2 -67 4t-89 2q-44 0 -78.5 -2t-57.5 -4v7q26 4 47 12t37 24t27 41t18 64l72 419q-7 16 -13 31 q-5 12 -10 24.5t-8 18.5q-18 38 -45.5 55.5t-65.5 22.5v7q10 -1 24.5 -1.5t30 -1t29.5 -0.5h24q26 0 50.5 0.5t42.5 2.5q31 -68 62 -141t62.5 -146.5t62.5 -146.5t61 -140q34 67 69 139t69.5 145.5t69 146.5t68.5 143q8 -1 19.5 -1.5t24 -1t24 -1t19.5 -0.5q27 0 48.5 1 t39.5 3v-7q-31 -3 -51 -8.5t-32.5 -15.5t-18.5 -26t-7 -40q0 -4 0.5 -14.5t1.5 -16.5q5 -48 12 -104t13.5 -109.5t12 -98t8.5 -68.5q3 -29 6 -55q2 -22 4.5 -42.5t4.5 -28.5q4 -21 9.5 -35.5t18.5 -24t35 -15.5t58 -9v-8v0z" />
<glyph unicode="n" horiz-adv-x="938" d="M921 719q-31 -3 -52 -8.5t-34 -15.5t-19.5 -26t-7.5 -40q-1 -17 -1.5 -41t-0.5 -56l-1 -179l-4 -329q0 -8 -0.5 -18t-0.5 -19v-21l-12 -3q-72 77 -145 163.5t-145 175.5t-143.5 176.5t-140.5 166.5q-1 -13 -1 -33v-48l-1 -211l1 -147v-65t2 -50q2 -21 8 -35.5t19.5 -24 t36.5 -15.5t59 -9v-7q-32 2 -72.5 3.5t-78.5 1.5q-35 0 -77.5 -1.5t-74.5 -3.5v6q28 4 49.5 9t36 14.5t22 25.5t8.5 43q1 21 1.5 69.5t0.5 104t-0.5 105.5t-0.5 74v55.5v71.5v71.5t-1 56.5q-43 41 -78.5 67t-68 40.5t-64 19.5t-66.5 5q-57 0 -113 -19t-109 -51l-5 4 q61 59 140 97t164 38q75 0 133.5 -27t112.5 -74t108 -112.5t120 -141.5q20 -23 45.5 -54t54 -65.5t58.5 -71t59 -71.5t55 -66t47 -55h1q2 0 2 2v30t-0.5 65t-1 80t-0.5 74v51.5v55.5t-0.5 54t-1.5 47q-1 27 -9 43t-22.5 25.5t-36 14.5t-49.5 9v6q16 0 36 -0.5t40.5 -2 t40.5 -2.5t37 -1q41 0 76.5 2t64.5 4v-7v0z" />
<glyph unicode="o" horiz-adv-x="912" d="M853 373q0 -84 -30 -156t-84 -124.5t-128 -82t-161 -29.5q-90 0 -162.5 31t-123.5 83t-78.5 121t-27.5 144q0 72 26.5 140.5t77.5 122t126 86.5t172 33q85 0 157 -26t124.5 -74t82 -116t29.5 -153zM478 16q43 0 85.5 19.5t75.5 60t54 104t21 151.5q0 75 -20 140 t-56.5 113t-87.5 76t-112 28q-52 0 -96 -22.5t-76.5 -64.5t-50.5 -103t-18 -137q0 -77 20.5 -143.5t57 -116t88.5 -77.5t115 -28z" />
<glyph unicode="p" horiz-adv-x="677" d="M632 531q0 -56 -26.5 -102t-68.5 -78t-94.5 -48.5t-104.5 -13.5v9q40 4 74.5 17t59 36.5t38.5 56.5t14 77q0 41 -13 79t-37.5 67t-59.5 47.5t-78 20.5q-23 2 -41 0l-7 -13v-227l-1 -106l1 -147v-65t2 -50q2 -21 8 -35.5t19.5 -24t36.5 -15.5t59 -9v-7q-16 1 -38.5 2 t-47.5 1.5t-49 1t-43 0.5q-18 0 -41 -0.5t-46.5 -1.5t-46 -1.5t-38.5 -1.5v6q28 4 49.5 9t35.5 14.5t22 25.5t9 43q1 21 1 64.5v93v94.5v69v51v55t-0.5 53.5t-1.5 46.5q-1 27 -8 43t-21 26t-35 15t-49 9v8q12 -1 30 -1.5t39.5 -1t45.5 -1t47 -0.5l143 4q42 0 88 -8 t84.5 -29.5t64 -59.5t25.5 -98z" />
<glyph unicode="q" horiz-adv-x="930" d="M1479 -117q-7 -7 -10 -9q-23 -21 -53 -42.5t-69 -39t-87.5 -28t-106.5 -10.5q-48 0 -91.5 7.5t-86 21.5t-85.5 35.5t-89 50.5q-16 10 -43.5 27.5t-57 37t-56.5 38t-42 29.5q-15 -5 -51.5 -9.5t-75.5 -4.5q-77 0 -148.5 26.5t-127 75.5t-89 118.5t-33.5 155.5 q0 71 26.5 139t78 121t127 85.5t172.5 32.5q85 0 156 -27t123 -75.5t81 -115.5t29 -147q0 -57 -15.5 -106t-41 -89.5t-58.5 -72.5t-67 -54q53 -33 100 -62q20 -12 40.5 -24.5t39.5 -24t34.5 -20t26.5 -13.5q56 -28 103.5 -46.5t87 -29.5t72 -15.5t58.5 -4.5q69 0 117.5 16.5 t91.5 47.5q4 3 7.5 6t6.5 5zM586 29q22 7 47 30.5t47 63t36.5 95t14.5 126.5q0 81 -21 148t-58.5 115t-88 74.5t-107.5 26.5q-47 0 -90.5 -20t-76.5 -60t-53 -100t-20 -139q0 -50 13 -100.5t36.5 -96t57.5 -83t75 -61t88.5 -30t99.5 10.5z" />
<glyph unicode="r" horiz-adv-x="776" d="M1174 -132q-20 -15 -49 -26t-60.5 -18t-62.5 -10.5t-55 -3.5q-74 0 -136.5 21.5t-115.5 58.5t-97 86.5t-82.5 105.5t-71.5 116t-63 117q-14 -4 -40 -6.5t-53 -0.5v-57v-104.5t2 -55.5q2 -21 8 -35.5t19.5 -24t36.5 -15.5t59 -9v-7q-16 1 -38.5 2t-47.5 1.5t-49 1t-43 0.5 q-18 0 -41 -0.5t-46.5 -1.5t-46 -1.5t-38.5 -1.5v6q28 4 49.5 9t35.5 14.5t22 25.5t9 43q1 20 1 62.5v90.5v47t-0.5 48t-0.5 42v30v51.5v55.5v54t-1 47q-1 27 -8 43t-21 25.5t-35 14.5t-49 9v7q64 0 104.5 -2t65.5 -2l116 3q44 0 93 -8t90.5 -28t69 -55.5t27.5 -90.5 q0 -31 -12 -59.5t-32.5 -52.5t-47.5 -43.5t-57 -32.5q28 -51 61 -108t72 -113t84.5 -107t98 -90t112 -62t127.5 -23q34 0 66.5 7t64.5 18zM520 499q0 52 -19.5 89.5t-51 61.5t-72 35.5t-82.5 11.5l-7 -10v-153l-1 -159v-41q43 1 84.5 14t74.5 34.5t53.5 51.5t20.5 65z" />
<glyph unicode="s" horiz-adv-x="598" d="M525 201q0 -54 -21.5 -94.5t-57 -67t-81.5 -39.5t-95 -13q-54 0 -105 20.5t-93 55.5q4 37 6 69t4 76h7q8 -94 59 -141t132 -47q30 0 55 11t43 29t27.5 41.5t9.5 49.5q0 24 -6 42.5t-19 35.5t-34 35t-50 39q-35 25 -71.5 49.5t-66 53t-48 64.5t-18.5 85q0 39 16 72.5 t45.5 58t71 39t92.5 14.5q18 0 40 -2t44.5 -6.5t43.5 -12t37 -17.5q-1 -35 1.5 -71t4.5 -71l-9 -3q-7 46 -24.5 76.5t-40.5 48.5t-48.5 25.5t-47.5 7.5q-26 0 -48.5 -10t-39 -26.5t-26 -39.5t-9.5 -48q0 -21 7 -38t21 -33t33.5 -32t45.5 -34q35 -26 72.5 -51t69 -54.5 t51.5 -65t20 -81.5z" />
<glyph unicode="t" horiz-adv-x="713" d="M681 574l-8 2q4 60 -21.5 81.5t-82.5 22.5l-163 2l-1 -431v-45v-65t2 -50q2 -21 8 -35.5t19.5 -24t36.5 -15.5t59 -9v-7q-16 1 -38.5 2t-47.5 1.5t-49 1t-43 0.5q-18 0 -41 -0.5t-46.5 -1.5t-46 -1.5t-38.5 -1.5v6q28 4 49.5 9t36 14.5t22 25.5t8.5 43q1 20 1.5 62.5 t0.5 90.5v256q0 29 -0.5 60t-0.5 57v58l-162 -2q-30 0 -48.5 -5t-31.5 -16.5t-24 -29.5t-26 -44l-7 5q0 3 6 29.5t14 58.5q9 36 21 82l6 6q8 -15 22 -23t29.5 -12.5t32 -6t28.5 -1.5l199 -5l229 5q35 1 56 3.5t34 7.5t19 11.5t11 15.5l8 -4z" />
<glyph unicode="u" horiz-adv-x="884" d="M748 336q0 -4 0.5 -9t0.5 -9q0 -40 -4 -79t-15.5 -74.5t-30.5 -66t-49 -54.5q-44 -35 -93 -48t-103 -13q-30 0 -61 3t-60.5 11t-56.5 21.5t-49 33.5q-68 59 -75 174q-2 19 -2.5 43.5t-1 51t-0.5 52v46.5v51.5v55.5v54t-1 47q-1 27 -9 43t-22.5 25.5t-36 14.5t-49.5 9v6 q16 0 39 -0.5t47.5 -2t47.5 -2.5t40 -1q20 0 43 0.5t46 1.5t43.5 2t35.5 2v-7q-31 -3 -52 -8.5t-34 -15.5t-19.5 -26t-7.5 -40q-1 -17 -1.5 -41t-0.5 -56l2 -216q0 -42 5.5 -81.5t17.5 -73t31 -60.5t47 -44q30 -19 62.5 -26.5t66.5 -7.5q40 0 77 15.5t62 41.5 q18 19 30.5 45.5t20 58t10.5 66t3 69.5l-2 176q-1 36 -1.5 72t-1.5 62q-1 27 -9 43t-22.5 25.5t-36 14.5t-49.5 9v6q32 1 72.5 -2.5t74.5 -3.5q40 0 79 2t68 4v-7q-31 -3 -52 -8.5t-34 -15.5t-19.5 -26t-7.5 -40q-1 -17 -1.5 -41t-0.5 -56v-72q0 -13 -0.5 -29.5t-0.5 -33 v-30.5v-22v-9z" />
<glyph unicode="v" horiz-adv-x="869" d="M430 -9h-9q-61 142 -111 256q-21 49 -42 96.5t-38.5 87t-29.5 66.5t-15 35q-4 9 -14.5 29.5t-22 42t-22 40t-14.5 23.5q-23 26 -47.5 36t-62.5 15v9q17 -1 39.5 -2.5t46 -2.5t46 -1.5t39.5 -0.5h25t41 1t49 2t49 4v-8q-11 -3 -24 -5t-23.5 -6.5t-17.5 -12.5t-7 -23 q0 -12 5 -29.5t16 -43.5q7 -18 18.5 -46.5t25 -62.5t29 -71.5t30.5 -73.5q35 -85 75 -183q0 1 1 1t2 1q7 19 24 57t39.5 88t48.5 110t52 122q9 22 18 42.5t15 37.5q16 47 -6 69t-79 30v6q32 2 67.5 -2t69.5 -4q40 0 81 2.5t70 4.5v-7q-36 -4 -61 -15.5t-43 -30.5 t-31.5 -43.5t-26.5 -53.5z" />
<glyph unicode="w" horiz-adv-x="1224" d="M835 -10q-35 81 -73 170q-32 76 -72.5 170t-81.5 190q-16 -37 -34 -79.5t-36.5 -86.5t-37 -88.5t-34.5 -84.5q-40 -95 -78 -191h-10l-194 542q-8 23 -18.5 45.5t-21 40.5t-19.5 31t-13 18q-23 26 -47.5 36t-62.5 15v9q17 -1 39.5 -2.5t46 -2.5t46 -1.5t39.5 -0.5h25t41 1 t49 2t49 4v-8q-11 -3 -24 -5t-23.5 -6.5t-17.5 -12.5t-7 -23q0 -12 6 -29t14 -44l128 -413q0 1 1 1t2 1l165 392q-11 23 -24.5 47t-28.5 40q-23 26 -47 36t-62 15v9q17 -1 39.5 -2.5t46 -2.5t46 -1.5t39.5 -0.5h25t41 1t49 2t49 4v-8q-11 -3 -24 -5t-23.5 -6.5t-17.5 -12.5 t-7 -23q0 -12 5.5 -29.5t15.5 -43.5l155 -413q0 1 1 1q2 0 2 1q12 31 26 71t28.5 81.5t28.5 81.5t25 72q6 20 11 34q3 7 5 13q5 17 9 32q4 13 8 26.5t7 21.5q16 47 -2 69t-75 30v6q32 2 69 -2t71 -4q40 0 80.5 2.5t69.5 4.5v-7q-36 -4 -61.5 -15.5t-43.5 -29.5t-31 -43 t-25 -55l-40 -105q-15 -38 -30.5 -79t-30.5 -82.5t-29.5 -81t-27.5 -75.5q-31 -84 -59 -164h-9z" />
<glyph unicode="x" horiz-adv-x="723" d="M754 -3q-17 1 -39.5 2.5t-46 2.5t-46 1.5t-39.5 0.5h-24t-39 -1t-47 -2t-48 -4v8q11 3 23.5 5t23 6.5t17 12.5t6.5 23q0 12 -10 31t-24 42q-13 21 -29 48.5t-32 54t-28.5 48t-17.5 31.5q-4 -6 -18.5 -27t-33 -48t-37.5 -56t-31 -50q-13 -21 -20 -36t-9 -24 q-4 -16 0.5 -27t14 -18t22.5 -11t26 -6v-7q-32 -1 -57 2.5t-59 3.5q-20 0 -43.5 -0.5t-47 -1.5t-44.5 -2t-36 -2v7q57 5 95.5 31.5t66.5 62.5q7 10 19 26t26 35.5t30 41.5t31 43q36 50 77 107q-25 40 -49 80q-20 34 -43.5 71.5t-40.5 67.5q-5 9 -14.5 23t-19.5 29t-19 27.5 t-13 17.5q-23 25 -50 35.5t-66 15.5v9q17 -1 39.5 -2.5t46.5 -2.5t46.5 -1.5t39.5 -0.5h23t39 1t47.5 2t48.5 4v-8q-12 -3 -24 -5t-22.5 -6.5t-17 -12.5t-6.5 -23q0 -12 10 -31t24 -42q13 -22 26.5 -46t26.5 -46t23 -40t16 -28q4 6 15.5 23.5t26.5 40.5t31.5 48.5t28.5 46.5 q24 41 29 60q4 16 -0.5 27t-14.5 18t-23 11t-26 6v6q32 2 57 -2t59 -4q41 0 81.5 2.5t69.5 4.5v-7q-28 -3 -49.5 -13t-39.5 -25t-33.5 -33.5t-31.5 -39.5q-15 -20 -40.5 -55.5t-50.5 -69.5q-29 -40 -61 -86q29 -47 56 -92q23 -38 48.5 -80t43.5 -72q5 -8 14 -22.5t19 -29.5 t19 -28t14 -18q23 -25 50 -35t65 -16v-8v0z" />
<glyph unicode="y" horiz-adv-x="820" d="M819 729q-65 6 -116 -15t-90.5 -60t-67.5 -92.5t-45.5 -112.5t-26 -119t-8.5 -112q0 -32 -1 -63.5t2 -63.5q2 -21 8 -35.5t20 -24t37 -15.5t59 -9v-7q-16 1 -38.5 2t-47.5 1.5t-49 1t-43 0.5q-18 0 -41 -0.5t-47 -1.5t-46 -1.5t-38 -1.5v6q28 4 49.5 9t36 14.5t22 25.5 t9.5 43q2 40 1 68.5t-1 57.5q-1 43 -10 97.5t-28 111.5t-48 111t-69 96t-91.5 66.5t-115.5 21.5v7q94 13 166.5 -6t125.5 -62.5t88.5 -107t55.5 -138.5q15 56 43.5 116t74 107.5t112 74.5t158.5 17v-7v0z" />
<glyph unicode="z" horiz-adv-x="696" d="M33 10q1 -2 20.5 26t51.5 74.5t72.5 107t82.5 123.5q99 148 225 338l-126 3l-148 -2q-32 0 -51.5 -5t-33 -16.5t-25 -29.5t-26.5 -44l-7 5q0 3 6 29.5t14 58.5q9 36 21 82l6 6q8 -15 22 -23t29.5 -11.5t32 -4.5t28.5 -1l182 -2l234 2l6 -7l-457 -671q67 -2 120.5 -3 t88.5 0l136 3q32 1 51 6t32 16t24 29t26 44l7 -5q0 -3 -7 -30t-14 -58q-10 -37 -21 -82l-6 -6q-8 15 -21.5 22.5t-29 11t-32 4t-28.5 0.5l-183 4q-28 1 -64 1.5t-75 0t-79.5 -1.5t-77.5 -4z" />
<glyph unicode="{" horiz-adv-x="362" d="M314 -66q-35 4 -68 11.5t-59 33.5q-41 41 -41 115l10 152q0 56 -29.5 80.5t-81.5 29.5v22q67 8 89 46t17 98q0 5 -1 19.5t-2 29.5t-1.5 27.5t-0.5 14.5q0 75 41 116q41 39 124 45l1 -20q-32 -7 -55 -23.5t-31 -39.5q-7 -21 -6.5 -47t3 -52.5t4.5 -52t-2 -46.5 q-8 -42 -34 -78t-68 -47v-1q28 -9 47 -23.5t31 -34t18 -43t8 -49.5q4 -37 -1.5 -78t-5.5 -77q0 -29 4.5 -49t17.5 -32q12 -12 29 -19t43 -10v-18v0z" />
<glyph unicode="|" horiz-adv-x="443" d="M240 -77q0 -3 -3 -3.5t-5 -1.5h-38q-5 0 -5 9l1 861q0 2 3 3t5 1h39q3 0 3 -9v-860v0z" />
<glyph unicode="}" horiz-adv-x="362" d="M322 356q-53 -5 -82 -29.5t-29 -80.5l10 -152q0 -74 -41 -115q-26 -26 -59 -33.5t-68 -11.5v18q26 3 43 10t29 19q13 12 17.5 32t4.5 49q0 36 -5.5 77t-1.5 78q2 26 8 49.5t18 43t30.5 34t47.5 23.5v1q-42 11 -68 47t-34 78q-4 21 -2 46.5t4.5 52t3 52.5t-6.5 47 q-8 23 -31 39.5t-55 23.5l1 20q83 -6 124 -45q41 -41 41 -116q0 -2 -0.5 -14.5t-1.5 -27.5t-2 -29.5t-1 -19.5q-5 -60 17 -98t89 -46v-22v0z" />
<glyph unicode="~" horiz-adv-x="703" d="M591 499q-4 -32 -22 -52t-42 -31.5t-49 -16t-43 -4.5q-41 0 -67 6t-46.5 13.5t-41.5 13.5t-51 6q-29 0 -43 -12.5t-19 -29.5h-46q4 15 14 33t30 33.5t50.5 26.5t75.5 11q22 0 48 -6t51 -13t46 -13t34 -6q23 0 46 8.5t31 32.5h44v0z" />
<glyph unicode="&#xa1;" horiz-adv-x="335" d="M174 567h8l61 -510l-96 -64l-37 34zM119 688q0 26 16.5 45t45.5 19q32 0 46 -20t14 -41q0 -9 -3.5 -20t-11 -20t-19 -15t-27.5 -6q-26 0 -43.5 16t-17.5 42z" />
<glyph unicode="&#xa2;" horiz-adv-x="782" d="M533 738q35 -2 78.5 -9.5t86.5 -25.5l31 -162l-12 -2q-17 61 -66.5 105.5t-124.5 57.5q-13 -69 -29.5 -157.5t-33.5 -180t-33 -177.5t-28 -150q54 -23 106 -23q37 0 72 10.5t65 31.5t53.5 52.5t38.5 72.5l7 -8l-48 -158q-24 -11 -55.5 -17t-61 -9t-51.5 -4t-28 -1 q-55 0 -106 9q-5 -24 -8 -41t-5 -27q-3 -20 -5.5 -32.5t-2.5 -13.5q-1 -8 -4 -8l-28 5q-2 1 -4 2.5t-2 3.5q1 6 3 14q2 7 4 17t4 23q2 9 5 25.5l7 38.5q-65 16 -120.5 47t-96.5 77t-64.5 107t-23.5 137q0 89 39 158t100.5 116.5t138 72.5t151.5 25h15q8 48 13.5 76.5 t5.5 30.5q0 11 4 7l27 -4q2 0 4 -2t2 -4zM188 390q0 -61 14 -113.5t38.5 -95t57.5 -75t70 -53.5q8 43 18 95.5t21 110.5t22 118t22 118t21 111.5t18 98.5l-15 1q-65 0 -117.5 -25t-90.5 -68t-58.5 -100.5t-20.5 -122.5z" />
<glyph unicode="&#xa3;" horiz-adv-x="603" d="M587 157q-14 -29 -30 -65t-28 -64q-8 -19 -17 -25t-29 -6q-8 0 -37 2t-69 6t-75.5 6t-66.5 2q-51 0 -94 -7t-63 -21q-5 -4 -8 -4q-13 0 -13 14q0 1 2.5 6.5t10.5 13.5q30 33 49.5 62.5t31 62.5t16 74t4.5 99v29h-103l6 41h97q-1 9 -0.5 16.5t0.5 11.5q0 139 64 229 q18 26 41.5 43.5t48.5 28.5t50.5 15.5t48.5 4.5q26 0 60 -10t62 -39q4 -5 4.5 -13.5t-1.5 -18.5t-6 -20t-7 -17q-3 -6 -10.5 -16t-16.5 -10q-7 0 -11 10q-8 15 -22 30t-30.5 26.5t-34.5 19t-36 7.5q-41 0 -59.5 -27.5t-25.5 -66t-5.5 -79.5t1.5 -69v-56h225l-6 -41h-219v-22 q0 -40 -9 -79t-25 -73.5t-38.5 -62t-48.5 -45.5q29 11 48.5 15.5t41.5 4.5q21 0 45 -1.5t62 -4.5q76 -6 109 -6q21 0 38.5 10t31 24.5t23 30.5t15.5 28l8 -4v0z" />
<glyph unicode="&#xa4;" horiz-adv-x="756" d="M522 307q0 -24 -7 -45.5t-18 -38.5l45 -45l-37 -37l-45 44q-36 -25 -80 -25q-23 0 -44.5 7t-38.5 20l-54 -54l-37 37l55 55q-25 36 -25 82q0 43 24 78l-47 48l37 37l47 -48q38 27 83 27q23 0 43 -7t37 -18l53 53l37 -37l-53 -53q11 -17 18 -37t7 -43zM468 307 q0 38 -24.5 64t-63.5 26q-41 -2 -65.5 -27t-23.5 -66q2 -42 26.5 -66t62.5 -24q21 0 37 8.5t27.5 21.5t17.5 29.5t6 33.5z" />
<glyph unicode="&#xa5;" horiz-adv-x="742" d="M649 243h-208v-37v-65t2 -50q2 -21 8 -35.5t19.5 -24t36.5 -15.5t59 -9v-7q-16 1 -38.5 2t-47.5 1.5t-49 1t-43 0.5q-18 0 -41 -0.5t-46.5 -1.5t-46 -1.5t-38.5 -1.5v6q28 4 49.5 9t35.5 14.5t22 25.5t9 43q0 7 0.5 22.5t0.5 35.5v43v44h-214l6 34h208v8q-7 11 -15 25 q-7 12 -15.5 28t-19.5 35h-164l6 34h138q-26 45 -52 89.5t-43 73.5q-5 8 -13.5 22.5t-18 29t-18 27.5t-12.5 18q-23 25 -50 35.5t-66 15.5v9q17 -1 39.5 -2.5t46.5 -2.5t46.5 -1.5t39.5 -0.5h23t39 1t47.5 2t48.5 4v-8q-12 -3 -24 -5t-22.5 -6.5t-17 -12.5t-6.5 -23 q0 -12 10 -31t24 -42q8 -14 20 -35.5t25.5 -45.5t27 -48.5t25 -46t20 -38t12.5 -22.5q27 50 53 96q10 19 21.5 39.5t21.5 39t18.5 34t13.5 26.5q11 22 19 36.5t10 23.5q4 16 -0.5 27t-14.5 18t-23 11t-26 6v6q16 1 29 0t25 -2.5t25 -2.5t30 -1q41 0 81.5 2.5t69.5 4.5v-7 q-56 -6 -92 -36.5t-62 -74.5q-9 -14 -22.5 -37.5t-30 -51t-34 -57t-33.5 -56.5h162l-6 -34h-175l-33 -55v-41h214z" />
<glyph unicode="&#xa6;" horiz-adv-x="443" d="M190 375v413q0 2 3 3t5 1h39q3 0 3 -9v-408h-50zM240 325v-402q0 -3 -3 -3.5t-5 -1.5h-38q-5 0 -4 9v398h50z" />
<glyph unicode="&#xa7;" horiz-adv-x="501" d="M411 228q-8 -17 -26.5 -36t-38.5 -35q15 -23 25 -49t10 -54q0 -33 -15.5 -64.5t-42.5 -57.5q-26 -26 -57 -40.5t-63 -14.5q-29 0 -61.5 10.5t-51.5 32.5q-3 3 2.5 13.5t13.5 21.5t16.5 19.5t11.5 8.5q12 -2 23.5 -14.5t22.5 -18.5q27 -16 41 -17t28 -1q35 0 48 19t13 51 t-20 72.5t-75 100.5l-5.5 5.5t-2 2.5t-2.5 2.5t-6 5.5q-36 38 -60 69t-38.5 57.5t-20.5 49.5t-6 46q0 20 7 41t18 40.5t25 37t28 30.5q-9 18 -14.5 32t-7.5 29q-12 82 53 139q63 55 145 37q14 -3 26.5 -7.5t17.5 -14.5q1 -2 -2.5 -12t-9 -21t-12.5 -19.5t-13 -8.5 q-4 0 -9 1.5t-19 9.5q-17 6 -36.5 12.5t-33.5 6.5q-19 0 -29.5 -8.5t-15 -21t-4 -28t5.5 -28.5q10 -28 41.5 -62t73.5 -82q17 -18 26 -29q23 -27 44 -57t34 -63t14 -68t-16 -71zM361 244q0 19 -7.5 41t-25.5 51t-47.5 67t-72.5 90q-11 14 -21.5 26t-19.5 23 q-17 -15 -27 -32.5t-10 -40.5q0 -39 36.5 -91.5t103.5 -127.5q28 -31 41 -46.5t21 -25.5q7 6 12.5 13t9.5 15q7 15 7 38z" />
<glyph unicode="&#xa8;" horiz-adv-x="756" d="M483 831q0 -21 -14.5 -36.5t-36.5 -15.5q-21 0 -36.5 15.5t-15.5 36.5q0 22 15.5 37t36.5 15q22 0 36.5 -15t14.5 -37zM260 883q21 0 36.5 -15t15.5 -36q0 -22 -15 -37t-37 -15t-37 15t-15 37q0 21 15.5 36t36.5 15z" />
<glyph unicode="&#xa9;" horiz-adv-x="786" d="M738 331q0 -72 -27.5 -135t-74.5 -109.5t-109.5 -73.5t-133.5 -27q-72 0 -135 27.5t-109.5 74.5t-73.5 109.5t-27 133.5q0 72 27.5 135t74.5 109.5t110 73.5t134 27q72 0 134.5 -27.5t109 -74.5t73.5 -110t27 -133zM695 331q0 63 -24 118.5t-65 96.5t-95.5 65t-116.5 24 q-63 0 -118.5 -24.5t-96.5 -66t-64.5 -96.5t-23.5 -117q0 -63 24 -118t65 -96.5t96 -65t117 -23.5q63 0 118 24t96 65.5t64.5 96.5t23.5 117zM530 134q-14 -6 -31 -9.5t-33 -5.5t-27.5 -2.5t-14.5 -0.5q-48 0 -91 13t-75.5 38.5t-52 64t-19.5 90.5q0 49 19 87t51 63.5 t73 38.5t86 13q35 0 58.5 -4.5t34.5 -6.5q11 -1 19.5 -0.5t16.5 3.5l9 -4l-7 -100l-14 1q-5 24 -16.5 40t-27.5 25.5t-36 13.5t-41 4q-34 0 -60.5 -15t-45 -38.5t-28.5 -52t-10 -55.5q0 -48 14.5 -83t37.5 -58.5t51.5 -34.5t57.5 -11q30 0 51 5.5t37 21.5q10 10 16 22.5 t11 26.5l14 -6z" />
<glyph unicode="&#xaa;" horiz-adv-x="454" d="M367 302q-16 0 -32.5 -0.5t-32.5 -1.5q-12 -1 -26 -1.5t-21 -0.5v4q29 5 39.5 19.5t2.5 36.5q-5 12 -11 27.5t-12 29.5q-7 16 -14 33l-65 1l-64 1q-8 -20 -14 -37q-5 -14 -10 -27.5t-7 -17.5q-3 -8 -5.5 -16.5t-2.5 -12.5q0 -12 14.5 -23.5t29.5 -13.5v-4q-2 0 -16.5 0.5 t-27.5 1.5t-25 1.5t-16 0.5h-5t-10 -1q-8 0 -19 -0.5t-21.5 -1t-19.5 -1t-13 -0.5v4q20 3 33.5 9.5t23 16.5t16 23t13.5 30l154 340h13l158 -342q6 -13 13.5 -26t18 -24t24 -18.5t29.5 -8.5l1 -4zM194 603q-13 -32 -24 -61t-25 -61l48 -1l56 1z" />
<glyph unicode="&#xab;" horiz-adv-x="500" d="M438 32l-26 -26l-183 182l191 183l28 -23l-108 -161zM267 32l-25 -26l-183 182l191 183l28 -23l-108 -161z" />
<glyph unicode="&#xac;" horiz-adv-x="500" d="M429 308h-429v60h490v-259h-61v199z" />
<glyph unicode="&#xad;" horiz-adv-x="377" d="M38 276v74l292 1v-75h-292z" />
<glyph unicode="&#xae;" horiz-adv-x="786" d="M738 331q0 -72 -27.5 -135t-74.5 -109.5t-109.5 -73.5t-133.5 -27q-72 0 -135 27.5t-109.5 74.5t-73.5 109.5t-27 133.5q0 72 27.5 135t74.5 109.5t110 73.5t134 27q72 0 134.5 -27.5t109 -74.5t73.5 -110t27 -133zM695 331q0 63 -24 118.5t-65 96.5t-95.5 65t-116.5 24 q-63 0 -118.5 -24.5t-96.5 -66t-64.5 -96.5t-23.5 -117q0 -63 24 -118t65 -96.5t96 -65t117 -23.5q63 0 118 24t96 65.5t64.5 96.5t23.5 117zM395 319q-9 -2 -21.5 -3.5t-24.5 -0.5v-47v-30.5t1 -21.5q1 -9 3 -15.5t8.5 -11t17.5 -7.5t30 -4v-16h-181v15q31 5 42.5 12 t12.5 31q0 10 0.5 30.5t0.5 44v45v33.5v50.5t-1 47.5q-1 24 -13 31t-43 12v15h117q25 0 55 -2t56 -11.5t43.5 -28.5t17.5 -53q0 -31 -18.5 -52.5t-45.5 -38.5q8 -25 26 -56.5t41.5 -59.5t50 -48t51.5 -23v-16q-52 1 -88.5 17t-62.5 41t-43.5 56.5t-31.5 64.5zM349 499v-75 l-1 -72v-16q20 1 38.5 7.5t32.5 16.5t22.5 23.5t8.5 29.5q0 24 -8.5 41t-22.5 27t-32 15t-37 5z" />
<glyph unicode="&#xaf;" horiz-adv-x="756" d="M194 795l10 60h300l-10 -60h-300z" />
<glyph unicode="&#xb0;" horiz-adv-x="495" d="M385 663q0 -30 -11 -56.5t-30.5 -46t-45.5 -30.5t-56 -11h-1q-30 0 -56.5 11t-46 30.5t-30.5 46t-11 56.5t11 56.5t30.5 46t46 30.5t56.5 11t56.5 -10.5t46 -30t30.5 -46t11 -57.5zM328 663q0 36 -25 61.5t-61 25.5q-38 -1 -63 -26.5t-23 -64.5q1 -35 25.5 -58.5 t59.5 -23.5q20 0 36 8t27.5 20t17.5 27.5t6 30.5z" />
<glyph unicode="&#xb1;" horiz-adv-x="703" d="M379 122h-68v184h-172v68h172v185h68v-185h170v-68h-170v-184zM139 5v71l408 3v-72z" />
<glyph unicode="&#xb2;" horiz-adv-x="450" d="M394 410q-6 -20 -26 -20h-300l-2 16q70 54 116.5 94.5t70.5 77.5q27 41 27 84q0 35 -22 60.5t-74 25.5q-32 0 -60 -14.5t-45 -30.5l-12 12q26 37 67 63.5t99 26.5q24 0 49 -6.5t44.5 -21t32 -37.5t12.5 -56q0 -21 -7.5 -41.5t-19.5 -39.5t-27 -36t-31 -32 q-11 -10 -25.5 -21.5t-30.5 -24.5q-15 -12 -23 -18.5t-22 -18.5h136q19 0 32 4t23.5 13t19.5 24t18 36l13 -13z" />
<glyph unicode="&#xb3;" horiz-adv-x="450" d="M345 538q0 -38 -17.5 -65.5t-45 -47.5t-61 -32.5t-65.5 -19.5h1q-8 -2 -20 -3.5t-23.5 -3t-21.5 -2t-13 -0.5l-1 20q29 5 60 16t56 28.5t41 41.5t16 56q0 24 -14 43.5t-36.5 32t-49.5 17t-53 -1.5l-8 22q20 7 45 17t47 23.5t37 30t15 36.5q0 29 -22.5 40t-49.5 11 q-15 0 -29.5 -2.5t-27.5 -7.5l-9 17q12 7 27 13.5t31 11.5t31.5 8t28.5 3q18 0 37 -4t34 -12.5t24.5 -23t9.5 -35.5q0 -35 -23 -62.5t-58 -44.5q20 -6 39.5 -17.5t34.5 -27.5t24 -35t9 -40z" />
<glyph unicode="&#xb4;" horiz-adv-x="756" d="M328 791l149 172l76 -23l-13 -44l-202 -116z" />
<glyph unicode="&#xb6;" horiz-adv-x="677" d="M516 218q0 -64 -19.5 -123t-54.5 -107.5t-84 -83t-108 -50.5l-5 9q95 45 136 130.5t41 206.5v67q-47 0 -94.5 13.5t-85.5 40t-62 65.5t-24 89q0 71 26 118.5t69 76t99.5 40.5t118.5 12q23 0 47 0.5t45.5 1t39.5 1t30 1.5v-8q-29 -4 -49.5 -9t-34.5 -15t-21 -26t-8 -43 q-1 -21 -1.5 -46.5t-0.5 -53.5v-55v-51v-201z" />
<glyph unicode="&#xb7;" horiz-adv-x="273" d="M192 461q0 -26 -16.5 -45t-45.5 -19q-32 0 -46 20t-14 41q0 9 3.5 20t11 20t19 15t27.5 6q26 0 43.5 -16t17.5 -42z" />
<glyph unicode="&#xb8;" horiz-adv-x="782" d="M500 -3v-51q5 1 11 1.5t12 0.5q17 0 32 -6t26 -16.5t17.5 -25t6.5 -30.5q0 -34 -28.5 -58.5t-73.5 -24.5q-32 0 -56 9.5t-50 24.5l8 17q15 -10 40.5 -18.5t51.5 -8.5q15 0 24.5 5t15.5 12.5t8 16.5t2 16q0 25 -24 36t-53 6l-1 94h31z" />
<glyph unicode="&#xb9;" horiz-adv-x="450" d="M111 390v22q33 4 48.5 11t16.5 33q1 9 1 24.5v35.5v106v56t-1 52q-2 23 -18 31t-48 13v21h215v-23q-37 -3 -50 -11.5t-14 -30.5q-1 -9 -1 -21.5v-30.5l-1 -91l1 -79v-31.5t1 -23.5q2 -20 15 -29t55 -12v-22h-220z" />
<glyph unicode="&#xba;" horiz-adv-x="517" d="M499 520q0 -47 -18.5 -87t-51 -69t-77 -45.5t-97.5 -16.5q-54 0 -98 17t-74.5 46t-47.5 67.5t-17 80.5q0 40 16 78.5t46.5 68.5t76 48t104.5 18q51 0 95 -14.5t75.5 -41.5t49.5 -65t18 -85zM403 508q0 39 -11.5 73t-31.5 58.5t-49 39t-63 14.5q-58 0 -96.5 -44 t-38.5 -124q0 -40 11.5 -75t32.5 -60.5t50 -40t65 -14.5q24 0 47.5 10t42 31t30 54t11.5 78z" />
<glyph unicode="&#xbb;" horiz-adv-x="500" d="M227 32l97 155l-107 161l27 23l192 -183l-184 -182zM57 32l97 155l-107 161l27 23l192 -183l-184 -182z" />
<glyph unicode="&#xbc;" horiz-adv-x="904" d="M833 103h-83l1 -39v-32.5t1 -23.5q2 -19 15 -27.5t55 -13.5v-22h-217v22q33 5 48.5 12t16.5 32q1 16 1 35v38v19l-210 -1l-11 23l276 293l24 -10l-1 -163l1 -87h23q17 0 32.5 10.5t23.5 40.5l18 -2zM631 732q-84 -165 -156 -307q-31 -60 -62 -121.5t-58.5 -115.5 t-49.5 -97t-34 -66q-13 -26 -21 -41.5t-9 -18.5q-4 -10 -8 -6l-34 17q-2 1 -5 3.5t-1 4.5q5 7 10 18q5 9 11.5 21.5t14.5 28.5q12 23 33 64t48 93.5t57 112t60 118.5t58 114t49.5 97.5t34.5 69.5t14 30q5 9 8 6l35 -17q1 -1 4 -3.5t1 -4.5zM57 301v22q33 4 48.5 11t16.5 33 q1 9 1 24.5v35.5v89v60t-0.5 39t-0.5 26q-2 23 -18 31t-48 13v21h215v-23q-37 -3 -50 -11.5t-14 -30.5q-1 -9 -1 -21.5v-30.5v-170v-31.5t1 -23.5q2 -20 15 -29t55 -12v-22h-220zM671 299q-35 -36 -66.5 -69.5t-66.5 -71.5h133l1 82z" />
<glyph unicode="&#xbd;" horiz-adv-x="904" d="M611 732q-84 -165 -156 -307q-31 -60 -62 -121.5t-58.5 -115.5t-49.5 -97t-34 -66q-13 -26 -21 -41.5t-9 -18.5q-4 -10 -8 -6l-34 17q-2 1 -5 3.5t-1 4.5q5 7 10 18q5 9 11.5 21.5t14.5 28.5q12 23 33 64t48 93.5t57 112t60 118.5t58 114t49.5 97.5t34.5 69.5t14 30 q5 9 8 6l35 -17q1 -1 4 -3.5t1 -4.5zM37 301v22q33 4 48.5 11t16.5 33q1 9 1 24.5v35.5v89v60t-0.5 39t-0.5 26q-2 23 -18 31t-48 13v21h215v-23q-37 -3 -50 -11.5t-14 -30.5q-1 -9 -1 -21.5v-30.5v-170v-31.5t1 -23.5q2 -20 15 -29t55 -12v-22h-220zM835 20q-6 -20 -26 -20 h-300l-2 16q70 54 116.5 94.5t70.5 77.5q26 40 26 84q0 35 -21.5 60.5t-73.5 25.5q-32 0 -60 -14.5t-45 -30.5l-12 12q26 37 67 63.5t99 26.5q24 0 49 -6.5t44.5 -21t32 -37.5t12.5 -56q0 -21 -7.5 -41.5t-19.5 -39.5t-27 -36t-31 -32q-20 -17 -49 -40.5t-52 -42.5h136 q19 0 32 4t23.5 13t19.5 24t18 36l13 -13z" />
<glyph unicode="&#xbe;" horiz-adv-x="904" d="M862 103h-83v-53q0 -18 0.5 -25.5t1.5 -16.5q2 -19 15 -27.5t55 -13.5v-22h-217v22q33 5 48.5 12t16.5 32q1 16 1 35v38v19l-210 -1l-11 23l276 293l24 -10v-250h23q17 0 32.5 10.5t23.5 40.5l18 -2zM295 425q-2 -48 -29 -81t-67 -53t-85.5 -29.5t-84.5 -10.5l-1 20 q29 5 60 16t56 28.5t41 41.5t16 56q0 24 -14 43.5t-36.5 32t-49.5 17t-53 -1.5l-8 22q20 7 45 17t47 23.5t37 30t15 36.5q0 29 -22.5 40t-49.5 11q-15 0 -29.5 -2.5t-27.5 -7.5l-9 17q12 7 27 13.5t31 11.5t31.5 8t28.5 3q18 0 37 -4t34 -12.5t24.5 -23t9.5 -35.5 q0 -35 -23 -62.5t-58 -44.5q20 -6 39.5 -17.5t34.5 -27.5t24 -35t9 -40zM620 732q-84 -165 -156 -307q-31 -60 -62 -121.5t-58.5 -115.5t-49.5 -97t-34 -66q-13 -26 -21 -41.5t-9 -18.5q-4 -10 -8 -6l-34 17q-2 1 -5 3.5t-1 4.5q5 7 10 18q5 9 11.5 21.5t14.5 28.5 q12 23 33 64t48 93.5t57 112t60 118.5t58 114t49.5 97.5t34.5 69.5t14 30q5 9 8 6l35 -17q1 -1 4 -3.5t1 -4.5zM700 299q-35 -36 -66.5 -69.5t-66.5 -71.5h133l1 82z" />
<glyph unicode="&#xbf;" horiz-adv-x="481" d="M107 321q22 29 56.5 53t69.5 51q34 26 49.5 62.5t2.5 78.5l8 5q9 -11 19 -25.5t18 -31t13 -34.5t4 -34t-12 -32.5t-29 -29.5q-26 -20 -53 -40.5t-48.5 -45t-35 -54t-13.5 -66.5q0 -25 7 -48t21 -41t34.5 -28.5t46.5 -10.5q35 0 63 24t45 54q4 10 11 10q9 0 16.5 -10 t10.5 -16q3 -7 6.5 -17t6 -19.5t2 -18.5t-4.5 -13q-29 -29 -59.5 -40t-56.5 -11q-53 0 -102 21.5t-87 64.5q-22 24 -33.5 55t-13 64t8 65t29.5 58zM230 674q0 26 16.5 45t45.5 19q32 0 46 -20t14 -41q0 -9 -3.5 -20t-11 -20t-19 -15t-27.5 -6q-26 0 -43.5 16t-17.5 42z" />
<glyph unicode="&#xc0;" horiz-adv-x="809" d="M815 0q-20 1 -44 3q-20 2 -46 3t-55 1q-23 0 -48.5 -1t-49.5 -2.5t-45 -2.5t-36 -1v7q54 8 70.5 28t-0.5 69q-9 23 -19.5 53t-20.5 57q-11 32 -23 64l-120 2l-115 -2q-15 -39 -27 -72q-11 -28 -20 -53t-11 -33q-5 -16 -9.5 -31t-4.5 -25q0 -15 7 -25.5t18 -17t24.5 -10 t26.5 -4.5v-7l-134 7q-2 0 -20 -1t-41.5 -2.5t-45.5 -2.5t-32 -1v7q33 6 55 15t38 23.5t28 36.5t25 54q6 15 20 49.5t33.5 81t42 101t45.5 109.5q53 128 117 282h8l265 -627q21 -51 55.5 -85.5t88.5 -39.5v-7zM382 572q-1 2 -2 6t-3 4q-3 0 -3 -4l-100 -263l101 -3l111 3z M420 781l-202 116l-13 44l76 23l152 -164z" />
<glyph unicode="&#xc1;" horiz-adv-x="809" d="M815 0q-20 1 -44 3q-20 2 -46 3t-55 1q-23 0 -48.5 -1t-49.5 -2.5t-45 -2.5t-36 -1v7q54 8 70.5 28t-0.5 69q-9 23 -19.5 53t-20.5 57q-11 32 -23 64l-120 2l-115 -2q-15 -39 -27 -72q-11 -28 -20 -53t-11 -33q-5 -16 -9.5 -31t-4.5 -25q0 -15 7 -25.5t18 -17t24.5 -10 t26.5 -4.5v-7l-134 7q-2 0 -20 -1t-41.5 -2.5t-45.5 -2.5t-32 -1v7q33 6 55 15t38 23.5t28 36.5t25 54q6 15 20 49.5t33.5 81t42 101t45.5 109.5q53 128 117 282h8l265 -627q21 -51 55.5 -85.5t88.5 -39.5v-7zM382 572q-1 2 -2 6t-3 4q-3 0 -3 -4l-100 -263l101 -3l111 3z M381 791l149 172l76 -23l-13 -44l-202 -116z" />
<glyph unicode="&#xc2;" horiz-adv-x="809" d="M815 0q-20 1 -44 3q-20 2 -46 3t-55 1q-23 0 -48.5 -1t-49.5 -2.5t-45 -2.5t-36 -1v7q54 8 70.5 28t-0.5 69q-9 23 -19.5 53t-20.5 57q-11 32 -23 64l-120 2l-115 -2q-15 -39 -27 -72q-11 -28 -20 -53t-11 -33q-5 -16 -9.5 -31t-4.5 -25q0 -15 7 -25.5t18 -17t24.5 -10 t26.5 -4.5v-7l-134 7q-2 0 -20 -1t-41.5 -2.5t-45.5 -2.5t-32 -1v7q33 6 55 15t38 23.5t28 36.5t25 54q6 15 20 49.5t33.5 81t42 101t45.5 109.5q53 128 117 282h8l265 -627q21 -51 55.5 -85.5t88.5 -39.5v-7zM382 572q-1 2 -2 6t-3 4q-3 0 -3 -4l-100 -263l101 -3l111 3z M544 782q-35 25 -64.5 49t-67.5 49q-34 -21 -67 -47.5t-68 -52.5l-10 11q32 45 63.5 87t61.5 84h39q31 -45 62.5 -87t62.5 -85z" />
<glyph unicode="&#xc3;" horiz-adv-x="809" d="M815 0q-20 1 -44 3q-20 2 -46 3t-55 1q-23 0 -48.5 -1t-49.5 -2.5t-45 -2.5t-36 -1v7q54 8 70.5 28t-0.5 69q-9 23 -19.5 53t-20.5 57q-11 32 -23 64l-120 2l-115 -2q-15 -39 -27 -72q-11 -28 -20 -53t-11 -33q-5 -16 -9.5 -31t-4.5 -25q0 -15 7 -25.5t18 -17t24.5 -10 t26.5 -4.5v-7l-134 7q-2 0 -20 -1t-41.5 -2.5t-45.5 -2.5t-32 -1v7q33 6 55 15t38 23.5t28 36.5t25 54q6 15 20 49.5t33.5 81t42 101t45.5 109.5q53 128 117 282h8l265 -627q21 -51 55.5 -85.5t88.5 -39.5v-7zM382 572q-1 2 -2 6t-3 4q-3 0 -3 -4l-100 -263l101 -3l111 3z M558 883q-2 -28 -11 -47t-21 -31q-23 -23 -50 -22.5t-49 7.5q-12 3 -29 11t-34.5 14.5t-34 8t-27.5 -9.5q-6 -6 -9.5 -17t-5.5 -20h-21q2 17 9 39t24 39q23 23 56 21.5t62 -14.5q12 -6 26 -12t28 -9.5t27 -2.5t24 10q5 5 9.5 14.5t6.5 20.5h20z" />
<glyph unicode="&#xc4;" horiz-adv-x="809" d="M815 0q-20 1 -44 3q-20 2 -46 3t-55 1q-23 0 -48.5 -1t-49.5 -2.5t-45 -2.5t-36 -1v7q54 8 70.5 28t-0.5 69q-9 23 -19.5 53t-20.5 57q-11 32 -23 64l-120 2l-115 -2q-15 -39 -27 -72q-11 -28 -20 -53t-11 -33q-5 -16 -9.5 -31t-4.5 -25q0 -15 7 -25.5t18 -17t24.5 -10 t26.5 -4.5v-7l-134 7q-2 0 -20 -1t-41.5 -2.5t-45.5 -2.5t-32 -1v7q33 6 55 15t38 23.5t28 36.5t25 54q6 15 20 49.5t33.5 81t42 101t45.5 109.5q53 128 117 282h8l265 -627q21 -51 55.5 -85.5t88.5 -39.5v-7zM382 572q-1 2 -2 6t-3 4q-3 0 -3 -4l-100 -263l101 -3l111 3z M313 883q21 0 36.5 -15t15.5 -36q0 -22 -15 -37t-37 -15t-37 15t-15 37q0 21 15.5 36t36.5 15zM536 831q0 -21 -14.5 -36.5t-36.5 -15.5q-21 0 -36.5 15.5t-15.5 36.5q0 22 15.5 37t36.5 15q22 0 36.5 -15t14.5 -37z" />
<glyph unicode="&#xc5;" horiz-adv-x="809" d="M815 0q-20 1 -44 3q-20 2 -46 3t-55 1q-23 0 -48.5 -1t-49.5 -2.5t-45 -2.5t-36 -1v7q54 8 70.5 28t-0.5 69q-9 23 -19.5 53t-20.5 57q-11 32 -23 64l-120 2l-115 -2q-15 -39 -27 -72q-11 -28 -20 -53t-11 -33q-5 -16 -9.5 -31t-4.5 -25q0 -15 7 -25.5t18 -17t24.5 -10 t26.5 -4.5v-7l-134 7q-2 0 -20 -1t-41.5 -2.5t-45.5 -2.5t-32 -1v7q33 6 55 15t38 23.5t28 36.5t25 54q6 15 20 49.5t33.5 81t42 101t45.5 109.5q53 128 117 282h8l265 -627q21 -51 55.5 -85.5t88.5 -39.5v-7zM382 572q-1 2 -2 6t-3 4q-3 0 -3 -4l-100 -263l101 -3l111 3z M500 884q0 -21 -7.5 -38.5t-20.5 -31t-30.5 -21t-36.5 -7.5q-20 0 -37 7.5t-30 21t-21 31t-8 38.5q0 19 7.5 36.5t21 30.5t30.5 20.5t37 7.5q19 0 36.5 -7.5t30.5 -20t20.5 -30t7.5 -37.5zM464 884q0 26 -16.5 43t-42.5 17q-27 -1 -43.5 -18t-15.5 -44q1 -28 17 -44t42 -16 q28 0 43.5 20t15.5 42z" />
<glyph unicode="&#xc6;" horiz-adv-x="997" d="M955 25q-4 -14 -9.5 -19.5t-19.5 -5.5l-300 5l-183 -5v8q28 4 48.5 9t34 14.5t20.5 25.5t8 43q0 12 0.5 31t0.5 42.5v50.5v55l-117 1l-115 -2q-27 -39 -48 -72q-19 -28 -35 -53t-21 -33q-10 -16 -18.5 -31t-11.5 -25q-4 -15 0 -25.5t13 -17t21 -10t25 -4.5l-2 -7l-131 7 q-2 0 -20.5 -1t-41.5 -2.5t-45.5 -2.5t-32.5 -1l2 7q34 6 58.5 15t45 23.5t38.5 36.5t41 54q12 18 44 64t74 106.5t89.5 128.5t91.5 130l61 93q5 8 9.5 17t-2.5 17q-14 11 -35 16t-51 10v8q22 -2 54 -3t66 -2t66 -1h55l149 1h43.5t32 2.5t22.5 8.5t16 18l7 -5 q-6 -23 -7.5 -47t-3.5 -35q-1 -11 -2 -24.5t-1.5 -27.5t-1 -26.5t-0.5 -20.5h-9q-5 56 -34 87t-89 33l-52 1h-88v-286h39t58 1q35 0 76 1q20 0 32.5 4.5t20.5 12t13 18t10 24.5q2 0 4 -2l2 -2q-2 -10 -3.5 -22.5t-3 -25.5t-2.5 -24.5t-1 -18.5v-24.5t0.5 -26.5t0.5 -24v-17 l-9 1q-1 13 -3.5 28t-10 27.5t-22 21t-38.5 8.5l-163 3v-87l1 -137q0 -27 5 -46.5t17.5 -32.5t34.5 -18.5t57 -3.5q14 1 22 1t15 0.5t14.5 1t20.5 2.5q22 3 40.5 9.5t34 20.5t29.5 37.5t27 59.5l8 -4zM444 312l111 2v105v51.5v55t-0.5 53.5t-1.5 47v4l-63 -96l-147 -219z " />
<glyph unicode="&#xc7;" horiz-adv-x="782" d="M696 15q-24 -11 -55.5 -17t-61 -9t-51.5 -4t-28 -1h-13.5t-14.5 1v-25q6 1 12.5 1.5t12.5 0.5q34 0 55 -21q11 -11 16.5 -26t5 -30t-7 -29.5t-19.5 -24.5q-26 -20 -69 -20q-32 0 -64 9.5t-61 23.5l13 25q20 -10 48.5 -18.5t51.5 -8.5q6 0 14 2.5t15.5 8.5t13 14.5 t5.5 20.5q0 13 -9.5 21.5t-22 13t-24.5 6t-17 0.5v58q-79 7 -149.5 34.5t-123.5 75.5t-84 115.5t-31 155.5q0 89 39 158t100.5 116.5t138 72.5t151.5 25q13 0 36.5 -0.5t53 -4.5t62 -11.5t64.5 -20.5l31 -162l-12 -2q-9 36 -30.5 66.5t-52.5 53t-71.5 35t-87.5 12.5 q-65 0 -117.5 -25t-90.5 -68t-58.5 -100.5t-20.5 -122.5q0 -89 29 -158.5t75.5 -118t103 -74t112.5 -25.5q37 0 72 10.5t65 31.5t53.5 52.5t38.5 72.5l7 -8z" />
<glyph unicode="&#xc8;" horiz-adv-x="663" d="M575 25q-4 -14 -9.5 -19.5t-19.5 -5.5q-54 1 -110 3t-130 2q-48 0 -113.5 -2t-129.5 -3v8q28 4 48.5 9t34 14.5t20.5 25.5t8 43q1 21 1 64.5v92v93.5v69v51.5v55t-0.5 53.5t-1.5 47q-1 27 -8 43t-20.5 25.5t-34.5 14.5t-49 9v8q22 -2 54 -3t66 -2t66 -1h55l149 1h43.5 t32 2.5t22.5 8.5t16 18l7 -5q-6 -23 -7.5 -47t-3.5 -35q-1 -11 -2 -24.5t-1.5 -27.5t-1 -26.5t-0.5 -20.5h-9q-5 56 -34 87t-89 33l-52 1h-88v-286h39t58 1q35 0 76 1q20 0 32.5 4.5t20.5 12t13 18t10 24.5q2 0 4 -2l2 -2q-2 -10 -3.5 -22.5t-3 -25.5t-2.5 -24.5t-1 -18.5 v-24.5t0.5 -26.5t0.5 -24v-17l-9 1q-1 13 -3.5 28t-10 27.5t-22 21t-38.5 8.5l-163 3v-87l1 -137q0 -27 5 -46.5t17.5 -32t34.5 -18t57 -4.5q15 0 23 0.5t15 1l14 1t20 2.5q22 3 40.5 9.5t34 20.5t29.5 37.5t27 59.5l8 -4zM358 781l-202 116l-13 44l76 23l152 -164z" />
<glyph unicode="&#xc9;" horiz-adv-x="663" d="M575 25q-4 -14 -9.5 -19.5t-19.5 -5.5q-54 1 -110 3t-130 2q-48 0 -113.5 -2t-129.5 -3v8q28 4 48.5 9t34 14.5t20.5 25.5t8 43q1 21 1 64.5v92v93.5v69v51.5v55t-0.5 53.5t-1.5 47q-1 27 -8 43t-20.5 25.5t-34.5 14.5t-49 9v8q22 -2 54 -3t66 -2t66 -1h55l149 1h43.5 t32 2.5t22.5 8.5t16 18l7 -5q-6 -23 -7.5 -47t-3.5 -35q-1 -11 -2 -24.5t-1.5 -27.5t-1 -26.5t-0.5 -20.5h-9q-5 56 -34 87t-89 33l-52 1h-88v-286h39t58 1q35 0 76 1q20 0 32.5 4.5t20.5 12t13 18t10 24.5q2 0 4 -2l2 -2q-2 -10 -3.5 -22.5t-3 -25.5t-2.5 -24.5t-1 -18.5 v-24.5t0.5 -26.5t0.5 -24v-17l-9 1q-1 13 -3.5 28t-10 27.5t-22 21t-38.5 8.5l-163 3v-87l1 -137q0 -27 5 -46.5t17.5 -32t34.5 -18t57 -4.5q15 0 23 0.5t15 1l14 1t20 2.5q22 3 40.5 9.5t34 20.5t29.5 37.5t27 59.5l8 -4zM308 791l149 172l76 -23l-13 -44l-202 -116z" />
<glyph unicode="&#xca;" horiz-adv-x="663" d="M575 25q-4 -14 -9.5 -19.5t-19.5 -5.5q-54 1 -110 3t-130 2q-48 0 -113.5 -2t-129.5 -3v8q28 4 48.5 9t34 14.5t20.5 25.5t8 43q1 21 1 64.5v92v93.5v69v51.5v55t-0.5 53.5t-1.5 47q-1 27 -8 43t-20.5 25.5t-34.5 14.5t-49 9v8q22 -2 54 -3t66 -2t66 -1h55l149 1h43.5 t32 2.5t22.5 8.5t16 18l7 -5q-6 -23 -7.5 -47t-3.5 -35q-1 -11 -2 -24.5t-1.5 -27.5t-1 -26.5t-0.5 -20.5h-9q-5 56 -34 87t-89 33l-52 1h-88v-286h39t58 1q35 0 76 1q20 0 32.5 4.5t20.5 12t13 18t10 24.5q2 0 4 -2l2 -2q-2 -10 -3.5 -22.5t-3 -25.5t-2.5 -24.5t-1 -18.5 v-24.5t0.5 -26.5t0.5 -24v-17l-9 1q-1 13 -3.5 28t-10 27.5t-22 21t-38.5 8.5l-163 3v-87l1 -137q0 -27 5 -46.5t17.5 -32t34.5 -18t57 -4.5q15 0 23 0.5t15 1l14 1t20 2.5q22 3 40.5 9.5t34 20.5t29.5 37.5t27 59.5l8 -4zM477 782q-35 25 -64.5 49t-67.5 49 q-34 -21 -67 -47.5t-68 -52.5l-10 11q32 45 63.5 87t61.5 84h39q31 -45 62.5 -87t62.5 -85z" />
<glyph unicode="&#xcb;" horiz-adv-x="663" d="M575 25q-4 -14 -9.5 -19.5t-19.5 -5.5q-54 1 -110 3t-130 2q-48 0 -113.5 -2t-129.5 -3v8q28 4 48.5 9t34 14.5t20.5 25.5t8 43q1 21 1 64.5v92v93.5v69v51.5v55t-0.5 53.5t-1.5 47q-1 27 -8 43t-20.5 25.5t-34.5 14.5t-49 9v8q22 -2 54 -3t66 -2t66 -1h55l149 1h43.5 t32 2.5t22.5 8.5t16 18l7 -5q-6 -23 -7.5 -47t-3.5 -35q-1 -11 -2 -24.5t-1.5 -27.5t-1 -26.5t-0.5 -20.5h-9q-5 56 -34 87t-89 33l-52 1h-88v-286h39t58 1q35 0 76 1q20 0 32.5 4.5t20.5 12t13 18t10 24.5q2 0 4 -2l2 -2q-2 -10 -3.5 -22.5t-3 -25.5t-2.5 -24.5t-1 -18.5 v-24.5t0.5 -26.5t0.5 -24v-17l-9 1q-1 13 -3.5 28t-10 27.5t-22 21t-38.5 8.5l-163 3v-87l1 -137q0 -27 5 -46.5t17.5 -32t34.5 -18t57 -4.5q15 0 23 0.5t15 1l14 1t20 2.5q22 3 40.5 9.5t34 20.5t29.5 37.5t27 59.5l8 -4zM239 889q21 0 36.5 -15t15.5 -36q0 -22 -15 -37 t-37 -15t-37 15t-15 37q0 21 15.5 36t36.5 15zM462 837q0 -21 -14.5 -36.5t-36.5 -15.5q-21 0 -36.5 15.5t-15.5 36.5q0 22 15.5 37t36.5 15q22 0 36.5 -15t14.5 -37z" />
<glyph unicode="&#xcc;" d="M413 0q-16 1 -38.5 2t-47.5 1.5t-49 1t-43 0.5q-18 0 -41 -0.5t-46.5 -1.5t-46 -1.5t-38.5 -1.5v6q28 4 49.5 9t35.5 14.5t22 25.5t9 43q1 21 1 64.5v93v94.5v69t0.5 51.5t0.5 56v54.5t-1 47q-1 27 -9.5 43t-23.5 25.5t-36.5 14.5t-49.5 9v6q16 0 39 -0.5t47.5 -2 t47.5 -2.5t40 -1q20 0 43 0.5t46 1.5t43.5 2t35.5 2v-7q-31 -3 -52 -8.5t-34 -15.5t-19.5 -26t-7.5 -40q-1 -17 -1.5 -41t-0.5 -56v-326v-65t2 -50q2 -21 8 -35.5t19.5 -24t36.5 -15.5t59 -9v-7zM244 781l-202 116l-13 44l76 23l152 -164z" />
<glyph unicode="&#xcd;" d="M413 0q-16 1 -38.5 2t-47.5 1.5t-49 1t-43 0.5q-18 0 -41 -0.5t-46.5 -1.5t-46 -1.5t-38.5 -1.5v6q28 4 49.5 9t35.5 14.5t22 25.5t9 43q1 21 1 64.5v93v94.5v69t0.5 51.5t0.5 56v54.5t-1 47q-1 27 -9.5 43t-23.5 25.5t-36.5 14.5t-49.5 9v6q16 0 39 -0.5t47.5 -2 t47.5 -2.5t40 -1q20 0 43 0.5t46 1.5t43.5 2t35.5 2v-7q-31 -3 -52 -8.5t-34 -15.5t-19.5 -26t-7.5 -40q-1 -17 -1.5 -41t-0.5 -56v-326v-65t2 -50q2 -21 8 -35.5t19.5 -24t36.5 -15.5t59 -9v-7zM226 791l149 172l76 -23l-13 -44l-202 -116z" />
<glyph unicode="&#xce;" d="M413 0q-16 1 -38.5 2t-47.5 1.5t-49 1t-43 0.5q-18 0 -41 -0.5t-46.5 -1.5t-46 -1.5t-38.5 -1.5v6q28 4 49.5 9t35.5 14.5t22 25.5t9 43q1 21 1 64.5v93v94.5v69t0.5 51.5t0.5 56v54.5t-1 47q-1 27 -9.5 43t-23.5 25.5t-36.5 14.5t-49.5 9v6q16 0 39 -0.5t47.5 -2 t47.5 -2.5t40 -1q20 0 43 0.5t46 1.5t43.5 2t35.5 2v-7q-31 -3 -52 -8.5t-34 -15.5t-19.5 -26t-7.5 -40q-1 -17 -1.5 -41t-0.5 -56v-326v-65t2 -50q2 -21 8 -35.5t19.5 -24t36.5 -15.5t59 -9v-7zM364 782q-35 25 -64.5 49t-67.5 49q-34 -21 -67 -47.5t-68 -52.5l-10 11 q32 45 63.5 87t61.5 84h39q31 -45 62.5 -87t62.5 -85z" />
<glyph unicode="&#xcf;" d="M413 0q-16 1 -38.5 2t-47.5 1.5t-49 1t-43 0.5q-18 0 -41 -0.5t-46.5 -1.5t-46 -1.5t-38.5 -1.5v6q28 4 49.5 9t35.5 14.5t22 25.5t9 43q1 21 1 64.5v93v94.5v69t0.5 51.5t0.5 56v54.5t-1 47q-1 27 -9.5 43t-23.5 25.5t-36.5 14.5t-49.5 9v6q16 0 39 -0.5t47.5 -2 t47.5 -2.5t40 -1q20 0 43 0.5t46 1.5t43.5 2t35.5 2v-7q-31 -3 -52 -8.5t-34 -15.5t-19.5 -26t-7.5 -40q-1 -17 -1.5 -41t-0.5 -56v-326v-65t2 -50q2 -21 8 -35.5t19.5 -24t36.5 -15.5t59 -9v-7zM371 837q0 -21 -14.5 -36.5t-36.5 -15.5q-21 0 -36.5 15.5t-15.5 36.5 q0 22 15.5 37t36.5 15q22 0 36.5 -15t14.5 -37zM148 889q21 0 36.5 -15t15.5 -36q0 -22 -15 -37t-37 -15t-37 15t-15 37q0 21 15.5 36t36.5 15z" />
<glyph unicode="&#xd0;" horiz-adv-x="915" d="M857 370q0 -92 -34 -162.5t-92 -118.5t-135.5 -72.5t-163.5 -24.5l-200 11h-36.5t-47.5 -0.5t-48.5 -1t-39.5 -1.5v8q28 4 50 9t37 15t23 26t10 42q1 15 1.5 42.5t0.5 61.5t-0.5 70t-0.5 68q-35 0 -67 -0.5t-49 -4.5v50q18 -4 50 -4.5t66 -0.5v37v51.5v56t-0.5 54.5 t-1.5 47q-1 24 -9 40t-22 26t-35.5 15.5t-49.5 9.5v7l170 -4q34 -1 76.5 2.5t87.5 3.5q88 0 171 -18.5t147 -60.5t103 -110.5t39 -168.5zM729 348q0 79 -31.5 143.5t-84.5 110t-121.5 70.5t-143.5 25q-24 0 -41.5 -6.5t-17.5 -34.5q0 -44 -1 -104.5t-1 -128.5v-41 q42 1 83 1.5t83 4.5v-51q-38 4 -80.5 4.5t-85.5 0.5v-41v-114.5t1 -75.5q6 -28 18.5 -45t31.5 -26.5t42.5 -13t50.5 -3.5q73 0 129 23.5t93.5 66t56.5 102.5t19 133z" />
<glyph unicode="&#xd1;" horiz-adv-x="945" d="M811 44q0 -8 -0.5 -18t-0.5 -19q-1 -11 -1 -21l-11 -3q-135 139 -250 260q-49 51 -99 103.5t-94 98t-78.5 81.5t-53.5 56v-11v-6v-10v-23l-1 -179l1 -147v-65t2 -50q2 -21 8 -35.5t19.5 -24t36.5 -15.5t59 -9v-7q-32 2 -72.5 3.5t-78.5 1.5q-35 0 -77.5 -1.5t-74.5 -3.5 v6q28 4 49.5 9t36 14.5t22 25.5t8.5 43q1 21 1 64.5v93v94.5v69v51.5v56t-0.5 54.5t-1.5 47q-1 27 -9 43t-22.5 25.5t-36 14.5t-49.5 9v6q27 -2 44.5 -3t31.5 -1t26.5 0.5t29.5 0.5q6 0 17 0.5t23 1t22.5 1t16.5 0.5q138 -150 247 -269q46 -51 91 -99.5t80.5 -87t57.5 -63 t24 -25.5h1q2 0 2 2q0 3 -0.5 28t-0.5 60.5t-0.5 75.5t-0.5 72q0 24 -0.5 51.5t-0.5 55.5v54t-1 47q-1 27 -9 43t-22.5 25.5t-36 14.5t-49.5 9v6q16 0 36 -0.5t40.5 -2t40.5 -2.5t37 -1q40 0 76 2t65 4v-7q-31 -3 -52 -8.5t-34 -15.5t-19.5 -26t-7.5 -40q-1 -17 -1.5 -41 t-0.5 -56l-1 -179zM627 888q-2 -28 -11 -47t-21 -31q-23 -23 -50 -22.5t-49 7.5q-12 3 -29 11t-34.5 14.5t-34 8t-27.5 -9.5q-6 -6 -9.5 -17t-5.5 -20h-21q2 17 9 39t24 39q23 23 56 21.5t62 -14.5q12 -6 26 -12t28 -9.5t27 -2.5t24 10q5 5 9.5 14.5t6.5 20.5h20z" />
<glyph unicode="&#xd2;" horiz-adv-x="912" d="M853 373q0 -84 -30 -156t-84 -124.5t-128 -82t-161 -29.5q-90 0 -162.5 31t-123.5 83t-78.5 121t-27.5 144q0 72 26.5 140.5t77.5 122t126 86.5t172 33q85 0 157 -26t124.5 -74t82 -116t29.5 -153zM478 16q43 0 85.5 19.5t75.5 60t54 104t21 151.5q0 75 -20 140 t-56.5 113t-87.5 76t-112 28q-52 0 -96 -22.5t-76.5 -64.5t-50.5 -103t-18 -137q0 -77 20.5 -143.5t57 -116t88.5 -77.5t115 -28zM481 781l-202 116l-13 44l76 23l152 -164z" />
<glyph unicode="&#xd3;" horiz-adv-x="912" d="M853 373q0 -84 -30 -156t-84 -124.5t-128 -82t-161 -29.5q-90 0 -162.5 31t-123.5 83t-78.5 121t-27.5 144q0 72 26.5 140.5t77.5 122t126 86.5t172 33q85 0 157 -26t124.5 -74t82 -116t29.5 -153zM478 16q43 0 85.5 19.5t75.5 60t54 104t21 151.5q0 75 -20 140 t-56.5 113t-87.5 76t-112 28q-52 0 -96 -22.5t-76.5 -64.5t-50.5 -103t-18 -137q0 -77 20.5 -143.5t57 -116t88.5 -77.5t115 -28zM438 791l149 172l76 -23l-13 -44l-202 -116z" />
<glyph unicode="&#xd4;" horiz-adv-x="912" d="M853 373q0 -84 -30 -156t-84 -124.5t-128 -82t-161 -29.5q-90 0 -162.5 31t-123.5 83t-78.5 121t-27.5 144q0 72 26.5 140.5t77.5 122t126 86.5t172 33q85 0 157 -26t124.5 -74t82 -116t29.5 -153zM478 16q43 0 85.5 19.5t75.5 60t54 104t21 151.5q0 75 -20 140 t-56.5 113t-87.5 76t-112 28q-52 0 -96 -22.5t-76.5 -64.5t-50.5 -103t-18 -137q0 -77 20.5 -143.5t57 -116t88.5 -77.5t115 -28zM592 782q-35 25 -64.5 49t-67.5 49q-34 -21 -67 -47.5t-68 -52.5l-10 11q32 45 63.5 87t61.5 84h39q31 -45 62.5 -87t62.5 -85z" />
<glyph unicode="&#xd5;" horiz-adv-x="912" d="M853 373q0 -84 -30 -156t-84 -124.5t-128 -82t-161 -29.5q-90 0 -162.5 31t-123.5 83t-78.5 121t-27.5 144q0 72 26.5 140.5t77.5 122t126 86.5t172 33q85 0 157 -26t124.5 -74t82 -116t29.5 -153zM478 16q43 0 85.5 19.5t75.5 60t54 104t21 151.5q0 75 -20 140 t-56.5 113t-87.5 76t-112 28q-52 0 -96 -22.5t-76.5 -64.5t-50.5 -103t-18 -137q0 -77 20.5 -143.5t57 -116t88.5 -77.5t115 -28zM592 885q-2 -28 -11 -47t-21 -31q-23 -23 -50 -22.5t-49 7.5q-12 3 -29 11t-34.5 14.5t-34 8t-27.5 -9.5q-6 -6 -9.5 -17t-5.5 -20h-21 q2 17 9 39t24 39q23 23 56 21.5t62 -14.5q12 -6 26 -12t28 -9.5t27 -2.5t24 10q5 5 9.5 14.5t6.5 20.5h20z" />
<glyph unicode="&#xd6;" horiz-adv-x="912" d="M853 373q0 -84 -30 -156t-84 -124.5t-128 -82t-161 -29.5q-90 0 -162.5 31t-123.5 83t-78.5 121t-27.5 144q0 72 26.5 140.5t77.5 122t126 86.5t172 33q85 0 157 -26t124.5 -74t82 -116t29.5 -153zM478 16q43 0 85.5 19.5t75.5 60t54 104t21 151.5q0 75 -20 140 t-56.5 113t-87.5 76t-112 28q-52 0 -96 -22.5t-76.5 -64.5t-50.5 -103t-18 -137q0 -77 20.5 -143.5t57 -116t88.5 -77.5t115 -28zM584 831q0 -21 -14.5 -36.5t-36.5 -15.5q-21 0 -36.5 15.5t-15.5 36.5q0 22 15.5 37t36.5 15q22 0 36.5 -15t14.5 -37zM361 883q21 0 36.5 -15 t15.5 -36q0 -22 -15 -37t-37 -15t-37 15t-15 37q0 21 15.5 36t36.5 15z" />
<glyph unicode="&#xd7;" horiz-adv-x="650" d="M197 100l-48 48l130 130l-137 137l46 45l139 -134l131 131l48 -48l-131 -131l133 -138l-47 -44l-134 134z" />
<glyph unicode="&#xd8;" horiz-adv-x="912" d="M853 708q-11 -11 -25 -24q-12 -11 -29.5 -26.5t-37.5 -35.5q44 -47 68 -109.5t24 -139.5q0 -84 -30 -156t-84 -124.5t-128 -82t-161 -29.5q-82 0 -149.5 25.5t-118.5 70.5l-6 -6q-9 -10 -24 -25l-29.5 -29.5l-25 -25t-11.5 -10.5q-6 -8 -8 -3l-24 24q-2 1 -3.5 3.5 t0.5 3.5l37 37q15 15 32 31.5t28 27.5l4 4q-45 51 -69.5 115.5t-24.5 135.5q0 72 26.5 140.5t77.5 122t126 86.5t172 33q81 0 149.5 -23t120.5 -67q38 35 62 58.5t26 25.5q2 4 4.5 4.5t3.5 -1.5l24 -23q1 -2 3 -5t0 -3zM478 16q43 0 85.5 19.5t75.5 60t53.5 104t20.5 151.5 q1 53 -9 100.5t-29 89.5q-50 -47 -107 -100t-113 -105t-107.5 -100.5t-91.5 -86.5q38 -62 94 -97.5t128 -35.5zM197 381q0 -108 38 -193q41 39 93.5 88t108 101.5t111.5 104.5t105 98q-36 59 -91 93.5t-124 34.5q-52 0 -96 -22.5t-76.5 -64.5t-50.5 -103t-18 -137z" />
<glyph unicode="&#xd9;" horiz-adv-x="884" d="M748 336q0 -4 0.5 -9t0.5 -9q0 -40 -4 -79t-15.5 -74.5t-30.5 -66t-49 -54.5q-44 -35 -93 -48t-103 -13q-30 0 -61 3t-60.5 11t-56.5 21.5t-49 33.5q-68 59 -75 174q-2 19 -2.5 43.5t-1 51t-0.5 52v46.5v51.5v55.5v54t-1 47q-1 27 -9 43t-22.5 25.5t-36 14.5t-49.5 9v6 q16 0 39 -0.5t47.5 -2t47.5 -2.5t40 -1q20 0 43 0.5t46 1.5t43.5 2t35.5 2v-7q-31 -3 -52 -8.5t-34 -15.5t-19.5 -26t-7.5 -40q-1 -17 -1.5 -41t-0.5 -56l2 -216q0 -42 5.5 -81.5t17.5 -73t31 -60.5t47 -44q30 -19 62.5 -26.5t66.5 -7.5q40 0 77 15.5t62 41.5 q18 19 30.5 45.5t20 58t10.5 66t3 69.5l-2 176q-1 36 -1.5 72t-1.5 62q-1 27 -9 43t-22.5 25.5t-36 14.5t-49.5 9v6q32 1 72.5 -2.5t74.5 -3.5q40 0 79 2t68 4v-7q-31 -3 -52 -8.5t-34 -15.5t-19.5 -26t-7.5 -40q-1 -17 -1.5 -41t-0.5 -56v-72q0 -13 -0.5 -29.5t-0.5 -33 v-30.5v-22v-9zM476 781l-202 116l-13 44l76 23l152 -164z" />
<glyph unicode="&#xda;" horiz-adv-x="884" d="M748 336q0 -4 0.5 -9t0.5 -9q0 -40 -4 -79t-15.5 -74.5t-30.5 -66t-49 -54.5q-44 -35 -93 -48t-103 -13q-30 0 -61 3t-60.5 11t-56.5 21.5t-49 33.5q-68 59 -75 174q-2 19 -2.5 43.5t-1 51t-0.5 52v46.5v51.5v55.5v54t-1 47q-1 27 -9 43t-22.5 25.5t-36 14.5t-49.5 9v6 q16 0 39 -0.5t47.5 -2t47.5 -2.5t40 -1q20 0 43 0.5t46 1.5t43.5 2t35.5 2v-7q-31 -3 -52 -8.5t-34 -15.5t-19.5 -26t-7.5 -40q-1 -17 -1.5 -41t-0.5 -56l2 -216q0 -42 5.5 -81.5t17.5 -73t31 -60.5t47 -44q30 -19 62.5 -26.5t66.5 -7.5q40 0 77 15.5t62 41.5 q18 19 30.5 45.5t20 58t10.5 66t3 69.5l-2 176q-1 36 -1.5 72t-1.5 62q-1 27 -9 43t-22.5 25.5t-36 14.5t-49.5 9v6q32 1 72.5 -2.5t74.5 -3.5q40 0 79 2t68 4v-7q-31 -3 -52 -8.5t-34 -15.5t-19.5 -26t-7.5 -40q-1 -17 -1.5 -41t-0.5 -56v-72q0 -13 -0.5 -29.5t-0.5 -33 v-30.5v-22v-9zM437 791l149 172l76 -23l-13 -44l-202 -116z" />
<glyph unicode="&#xdb;" horiz-adv-x="884" d="M748 336q0 -4 0.5 -9t0.5 -9q0 -40 -4 -79t-15.5 -74.5t-30.5 -66t-49 -54.5q-44 -35 -93 -48t-103 -13q-30 0 -61 3t-60.5 11t-56.5 21.5t-49 33.5q-68 59 -75 174q-2 19 -2.5 43.5t-1 51t-0.5 52v46.5v51.5v55.5v54t-1 47q-1 27 -9 43t-22.5 25.5t-36 14.5t-49.5 9v6 q16 0 39 -0.5t47.5 -2t47.5 -2.5t40 -1q20 0 43 0.5t46 1.5t43.5 2t35.5 2v-7q-31 -3 -52 -8.5t-34 -15.5t-19.5 -26t-7.5 -40q-1 -17 -1.5 -41t-0.5 -56l2 -216q0 -42 5.5 -81.5t17.5 -73t31 -60.5t47 -44q30 -19 62.5 -26.5t66.5 -7.5q40 0 77 15.5t62 41.5 q18 19 30.5 45.5t20 58t10.5 66t3 69.5l-2 176q-1 36 -1.5 72t-1.5 62q-1 27 -9 43t-22.5 25.5t-36 14.5t-49.5 9v6q32 1 72.5 -2.5t74.5 -3.5q40 0 79 2t68 4v-7q-31 -3 -52 -8.5t-34 -15.5t-19.5 -26t-7.5 -40q-1 -17 -1.5 -41t-0.5 -56v-72q0 -13 -0.5 -29.5t-0.5 -33 v-30.5v-22v-9zM596 782q-35 25 -64.5 49t-67.5 49q-34 -21 -67 -47.5t-68 -52.5l-10 11q32 45 63.5 87t61.5 84h39q31 -45 62.5 -87t62.5 -85z" />
<glyph unicode="&#xdc;" horiz-adv-x="884" d="M748 336q0 -4 0.5 -9t0.5 -9q0 -40 -4 -79t-15.5 -74.5t-30.5 -66t-49 -54.5q-44 -35 -93 -48t-103 -13q-30 0 -61 3t-60.5 11t-56.5 21.5t-49 33.5q-68 59 -75 174q-2 19 -2.5 43.5t-1 51t-0.5 52v46.5v51.5v55.5v54t-1 47q-1 27 -9 43t-22.5 25.5t-36 14.5t-49.5 9v6 q16 0 39 -0.5t47.5 -2t47.5 -2.5t40 -1q20 0 43 0.5t46 1.5t43.5 2t35.5 2v-7q-31 -3 -52 -8.5t-34 -15.5t-19.5 -26t-7.5 -40q-1 -17 -1.5 -41t-0.5 -56l2 -216q0 -42 5.5 -81.5t17.5 -73t31 -60.5t47 -44q30 -19 62.5 -26.5t66.5 -7.5q40 0 77 15.5t62 41.5 q18 19 30.5 45.5t20 58t10.5 66t3 69.5l-2 176q-1 36 -1.5 72t-1.5 62q-1 27 -9 43t-22.5 25.5t-36 14.5t-49.5 9v6q32 1 72.5 -2.5t74.5 -3.5q40 0 79 2t68 4v-7q-31 -3 -52 -8.5t-34 -15.5t-19.5 -26t-7.5 -40q-1 -17 -1.5 -41t-0.5 -56v-72q0 -13 -0.5 -29.5t-0.5 -33 v-30.5v-22v-9zM611 831q0 -21 -14.5 -36.5t-36.5 -15.5q-21 0 -36.5 15.5t-15.5 36.5q0 22 15.5 37t36.5 15q22 0 36.5 -15t14.5 -37zM388 883q21 0 36.5 -15t15.5 -36q0 -22 -15 -37t-37 -15t-37 15t-15 37q0 21 15.5 36t36.5 15z" />
<glyph unicode="&#xdd;" horiz-adv-x="781" d="M779 720q-56 -6 -92 -36.5t-62 -74.5q-8 -12 -19 -31t-24.5 -42t-28.5 -48t-29 -49q-33 -57 -71 -121v-97.5v-65.5t0.5 -41t1.5 -23q2 -21 8 -35.5t19.5 -24t36.5 -15.5t59 -9v-7q-16 1 -38.5 2t-47.5 1.5t-49 1t-43 0.5q-18 0 -41 -0.5t-46.5 -1.5t-46 -1.5t-38.5 -1.5 v6q28 4 49.5 9t35.5 14.5t22 25.5t9 43q0 9 0.5 31.5t0.5 49.5v55.5v50.5q-34 59 -65 113q-13 23 -27 47t-27.5 47t-25 43t-20.5 35q-5 9 -14 23t-18 29t-17.5 27.5t-12.5 17.5q-23 25 -50 35.5t-66 15.5v9q17 -1 39.5 -2.5t46.5 -2.5t46.5 -1.5t39.5 -0.5h23t39 1t47.5 2 t48.5 4v-8q-12 -3 -24 -5t-22.5 -6.5t-17 -12.5t-6.5 -23q0 -12 10 -31t24 -42q8 -14 20 -35.5t25.5 -45.5t27 -49t25 -46.5t20 -37.5t12.5 -22q27 50 53 96q10 19 21.5 39.5t21.5 39t18.5 34t13.5 26.5q11 22 19 36.5t10 23.5q4 16 -0.5 27t-14.5 18t-23 11t-26 6v6 q16 1 29 0t25 -2.5t25 -2.5t30 -1q41 0 81.5 2.5t69.5 4.5v-7zM411 791l149 172l76 -23l-13 -44l-202 -116z" />
<glyph unicode="&#xde;" horiz-adv-x="677" d="M179 646q-1 27 -9 43t-23 25.5t-36.5 14.5t-49.5 9v6q16 -1 38.5 -2t46 -1.5t46.5 -1t41 -0.5q19 0 43 0.5t49 1t47.5 1.5t38.5 2v-7q-36 -3 -59 -9t-36.5 -16t-19.5 -24t-8 -35v-66l82 -1q42 0 88 -8t84.5 -29.5t64 -59.5t25.5 -98q0 -56 -26.5 -102t-68.5 -78 t-94.5 -48.5t-104.5 -13.5v9q40 4 74.5 17t59 36.5t38.5 56.5t14 77q0 41 -13 79t-37.5 67t-59.5 47.5t-78 20.5q-11 1 -25 1t-23 -1v-373v-55t2 -40q2 -21 8 -35.5t19.5 -24t36.5 -15.5t59 -9v-7q-16 1 -38.5 2t-47.5 1.5t-49 1t-43 0.5q-18 0 -41 -0.5t-46.5 -1.5 t-46 -1.5t-38.5 -1.5v6q28 4 49.5 9t35.5 14.5t22 25.5t9 43v548z" />
<glyph unicode="&#xdf;" horiz-adv-x="906" d="M578 -13q-39 0 -76.5 10.5t-71.5 30.5q-34 -21 -75 -31t-84 -10q-54 0 -105 20.5t-93 55.5q4 37 6 69t4 76h7q8 -94 59 -141t132 -47q30 0 55 11t43 29t27.5 41.5t9.5 49.5q0 24 -6 42.5t-19 35.5t-34 35t-50 39q-35 25 -71.5 49.5t-66 53t-48 64.5t-18.5 85 q0 39 16 72.5t45.5 58t71 39t92.5 14.5q18 0 40 -2t44.5 -6.5t43.5 -12t37 -17.5q28 18 64 28t78 10q18 0 40 -2t44.5 -6.5t43.5 -12t37 -17.5q-1 -35 1.5 -71t4.5 -71l-9 -3q-7 46 -24.5 76.5t-40.5 48.5t-48.5 25.5t-47.5 7.5q-26 0 -48.5 -10t-39 -26.5t-26 -39.5 t-9.5 -48q0 -21 7 -38t21 -33t33.5 -32t45.5 -34q35 -26 72.5 -51t69 -54.5t51.5 -65t20 -81.5q0 -54 -21.5 -94.5t-57 -67t-81.5 -39.5t-95 -13zM526 201q0 -38 -11.5 -69t-29.5 -55q4 -7 13 -16.5t22.5 -18.5t30.5 -15.5t37 -6.5q30 0 55 11t43 29t27.5 41.5t9.5 49.5 q0 24 -6 42.5t-19 35.5t-34 35t-50 39q-35 25 -71.5 49.5t-66 53t-48 64.5t-18.5 85q0 48 26 89q-15 24 -30.5 38t-30 21t-26.5 9t-20 2q-26 0 -48.5 -10t-39 -26.5t-26 -39.5t-9.5 -48q0 -21 7 -38t21 -33t33.5 -32t45.5 -34q35 -26 72.5 -51t69 -54.5t51.5 -65t20 -81.5z " />
<glyph unicode="&#xe0;" horiz-adv-x="841" d="M831 0q-20 1 -44 3q-20 2 -46 3t-55 1q-23 0 -48.5 -1t-49.5 -2.5t-45 -2.5t-36 -1v7q54 8 70.5 28t-0.5 69q-9 23 -19.5 53t-20.5 57q-11 32 -23 64l-120 2l-115 -2q-15 -39 -27 -72q-11 -28 -20 -53t-11 -33q-5 -16 -9.5 -31t-4.5 -25q0 -15 7 -25.5t18 -17t24.5 -10 t26.5 -4.5v-7l-134 7q-2 0 -20 -1t-41.5 -2.5t-45.5 -2.5t-32 -1v7q33 6 55 15t38 23.5t28 36.5t25 54q6 15 20 49.5t33.5 81t42 101t45.5 109.5q53 128 117 282h8l265 -627q21 -51 55.5 -85.5t88.5 -39.5v-7zM398 572q-1 2 -2 6t-3 4q-3 0 -3 -4l-100 -263l101 -3l111 3z M403 781l-202 116l-13 44l76 23l152 -164z" />
<glyph unicode="&#xe1;" horiz-adv-x="841" d="M831 0q-20 1 -44 3q-20 2 -46 3t-55 1q-23 0 -48.5 -1t-49.5 -2.5t-45 -2.5t-36 -1v7q54 8 70.5 28t-0.5 69q-9 23 -19.5 53t-20.5 57q-11 32 -23 64l-120 2l-115 -2q-15 -39 -27 -72q-11 -28 -20 -53t-11 -33q-5 -16 -9.5 -31t-4.5 -25q0 -15 7 -25.5t18 -17t24.5 -10 t26.5 -4.5v-7l-134 7q-2 0 -20 -1t-41.5 -2.5t-45.5 -2.5t-32 -1v7q33 6 55 15t38 23.5t28 36.5t25 54q6 15 20 49.5t33.5 81t42 101t45.5 109.5q53 128 117 282h8l265 -627q21 -51 55.5 -85.5t88.5 -39.5v-7zM398 572q-1 2 -2 6t-3 4q-3 0 -3 -4l-100 -263l101 -3l111 3z M422 791l149 172l76 -23l-13 -44l-202 -116z" />
<glyph unicode="&#xe2;" horiz-adv-x="841" d="M831 0q-20 1 -44 3q-20 2 -46 3t-55 1q-23 0 -48.5 -1t-49.5 -2.5t-45 -2.5t-36 -1v7q54 8 70.5 28t-0.5 69q-9 23 -19.5 53t-20.5 57q-11 32 -23 64l-120 2l-115 -2q-15 -39 -27 -72q-11 -28 -20 -53t-11 -33q-5 -16 -9.5 -31t-4.5 -25q0 -15 7 -25.5t18 -17t24.5 -10 t26.5 -4.5v-7l-134 7q-2 0 -20 -1t-41.5 -2.5t-45.5 -2.5t-32 -1v7q33 6 55 15t38 23.5t28 36.5t25 54q6 15 20 49.5t33.5 81t42 101t45.5 109.5q53 128 117 282h8l265 -627q21 -51 55.5 -85.5t88.5 -39.5v-7zM398 572q-1 2 -2 6t-3 4q-3 0 -3 -4l-100 -263l101 -3l111 3z M541 782q-35 25 -64.5 49t-67.5 49q-34 -21 -67 -47.5t-68 -52.5l-10 11q32 45 63.5 87t61.5 84h39q31 -45 62.5 -87t62.5 -85z" />
<glyph unicode="&#xe3;" horiz-adv-x="841" d="M831 0q-20 1 -44 3q-20 2 -46 3t-55 1q-23 0 -48.5 -1t-49.5 -2.5t-45 -2.5t-36 -1v7q54 8 70.5 28t-0.5 69q-9 23 -19.5 53t-20.5 57q-11 32 -23 64l-120 2l-115 -2q-15 -39 -27 -72q-11 -28 -20 -53t-11 -33q-5 -16 -9.5 -31t-4.5 -25q0 -15 7 -25.5t18 -17t24.5 -10 t26.5 -4.5v-7l-134 7q-2 0 -20 -1t-41.5 -2.5t-45.5 -2.5t-32 -1v7q33 6 55 15t38 23.5t28 36.5t25 54q6 15 20 49.5t33.5 81t42 101t45.5 109.5q53 128 117 282h8l265 -627q21 -51 55.5 -85.5t88.5 -39.5v-7zM398 572q-1 2 -2 6t-3 4q-3 0 -3 -4l-100 -263l101 -3l111 3z M575 882q-2 -28 -11 -47t-21 -31q-23 -23 -50 -22.5t-49 7.5q-12 3 -29 11t-34.5 14.5t-34 8t-27.5 -9.5q-6 -6 -9.5 -17t-5.5 -20h-21q2 17 9 39t24 39q23 23 56 21.5t62 -14.5q12 -6 26 -12t28 -9.5t27 -2.5t24 10q5 5 9.5 14.5t6.5 20.5h20z" />
<glyph unicode="&#xe4;" horiz-adv-x="841" d="M831 0q-20 1 -44 3q-20 2 -46 3t-55 1q-23 0 -48.5 -1t-49.5 -2.5t-45 -2.5t-36 -1v7q54 8 70.5 28t-0.5 69q-9 23 -19.5 53t-20.5 57q-11 32 -23 64l-120 2l-115 -2q-15 -39 -27 -72q-11 -28 -20 -53t-11 -33q-5 -16 -9.5 -31t-4.5 -25q0 -15 7 -25.5t18 -17t24.5 -10 t26.5 -4.5v-7l-134 7q-2 0 -20 -1t-41.5 -2.5t-45.5 -2.5t-32 -1v7q33 6 55 15t38 23.5t28 36.5t25 54q6 15 20 49.5t33.5 81t42 101t45.5 109.5q53 128 117 282h8l265 -627q21 -51 55.5 -85.5t88.5 -39.5v-7zM398 572q-1 2 -2 6t-3 4q-3 0 -3 -4l-100 -263l101 -3l111 3z M330 883q21 0 36.5 -15t15.5 -36q0 -22 -15 -37t-37 -15t-37 15t-15 37q0 21 15.5 36t36.5 15zM553 831q0 -21 -14.5 -36.5t-36.5 -15.5q-21 0 -36.5 15.5t-15.5 36.5q0 22 15.5 37t36.5 15q22 0 36.5 -15t14.5 -37z" />
<glyph unicode="&#xe5;" horiz-adv-x="841" d="M831 0q-20 1 -44 3q-20 2 -46 3t-55 1q-23 0 -48.5 -1t-49.5 -2.5t-45 -2.5t-36 -1v7q54 8 70.5 28t-0.5 69q-9 23 -19.5 53t-20.5 57q-11 32 -23 64l-120 2l-115 -2q-15 -39 -27 -72q-11 -28 -20 -53t-11 -33q-5 -16 -9.5 -31t-4.5 -25q0 -15 7 -25.5t18 -17t24.5 -10 t26.5 -4.5v-7l-134 7q-2 0 -20 -1t-41.5 -2.5t-45.5 -2.5t-32 -1v7q33 6 55 15t38 23.5t28 36.5t25 54q6 15 20 49.5t33.5 81t42 101t45.5 109.5q53 128 117 282h8l265 -627q21 -51 55.5 -85.5t88.5 -39.5v-7zM398 572q-1 2 -2 6t-3 4q-3 0 -3 -4l-100 -263l101 -3l111 3z M500 875q0 -21 -7.5 -38.5t-20.5 -31t-30.5 -21t-36.5 -7.5q-20 0 -37 7.5t-30 21t-21 31t-8 38.5q0 19 7.5 36.5t21 30.5t30.5 20.5t37 7.5q19 0 36.5 -7.5t30.5 -20t20.5 -30t7.5 -37.5zM464 875q0 26 -16.5 43t-42.5 17q-27 -1 -43.5 -18t-15.5 -44q1 -28 17 -44t42 -16 q28 0 43.5 20t15.5 42z" />
<glyph unicode="&#xe6;" horiz-adv-x="997" d="M955 25q-4 -14 -9.5 -19.5t-19.5 -5.5l-300 5l-183 -5v8q28 4 48.5 9t34 14.5t20.5 25.5t8 43q0 12 0.5 31t0.5 42.5v50.5v55l-117 1l-115 -2q-27 -39 -48 -72q-19 -28 -35 -53t-21 -33q-10 -16 -18.5 -31t-11.5 -25q-4 -15 0 -25.5t13 -17t21 -10t25 -4.5l-2 -7l-131 7 q-2 0 -20.5 -1t-41.5 -2.5t-45.5 -2.5t-32.5 -1l2 7q34 6 58.5 15t45 23.5t38.5 36.5t41 54q12 18 44 64t74 106.5t89.5 128.5t91.5 130l61 93q5 8 9.5 17t-2.5 17q-14 11 -35 16t-51 10v8q22 -2 54 -3t66 -2t66 -1h55l149 1h43.5t32 2.5t22.5 8.5t16 18l7 -5 q-6 -23 -7.5 -47t-3.5 -35q-1 -11 -2 -24.5t-1.5 -27.5t-1 -26.5t-0.5 -20.5h-9q-5 56 -34 87t-89 33l-52 1h-88v-286h39t58 1q35 0 76 1q20 0 32.5 4.5t20.5 12t13 18t10 24.5q2 0 4 -2l2 -2q-2 -10 -3.5 -22.5t-3 -25.5t-2.5 -24.5t-1 -18.5v-24.5t0.5 -26.5t0.5 -24v-17 l-9 1q-1 13 -3.5 28t-10 27.5t-22 21t-38.5 8.5l-163 3v-87l1 -137q0 -27 5 -46.5t17.5 -32.5t34.5 -18.5t57 -3.5q14 1 22 1t15 0.5t14.5 1t20.5 2.5q22 3 40.5 9.5t34 20.5t29.5 37.5t27 59.5l8 -4zM444 312l111 2v105v51.5v55t-0.5 53.5t-1.5 47v4l-63 -96l-147 -219z " />
<glyph unicode="&#xe7;" horiz-adv-x="782" d="M696 15q-24 -11 -55.5 -17t-61 -9t-51.5 -4t-28 -1h-13.5t-14.5 1v-25q6 1 12.5 1.5t12.5 0.5q34 0 55 -21q11 -11 16.5 -26t5 -30t-7 -29.5t-19.5 -24.5q-26 -20 -69 -20q-32 0 -64 9.5t-61 23.5l14 34q20 -10 48 -20.5t51 -10.5q12 0 27 8t15 32q0 13 -8.5 21t-20 11.5 t-22.5 4t-16 -0.5v64q-79 7 -149.5 34.5t-123.5 75.5t-84 115.5t-31 155.5q0 89 39 158t100.5 116.5t138 72.5t151.5 25q13 0 36.5 -0.5t53 -4.5t62 -11.5t64.5 -20.5l31 -162l-12 -2q-9 36 -30.5 66.5t-52.5 53t-71.5 35t-87.5 12.5q-65 0 -117.5 -25t-90.5 -68 t-58.5 -100.5t-20.5 -122.5q0 -89 29 -158.5t75.5 -118t103 -74t112.5 -25.5q37 0 72 10.5t65 31.5t53.5 52.5t38.5 72.5l7 -8z" />
<glyph unicode="&#xe8;" horiz-adv-x="663" d="M575 25q-4 -14 -9.5 -19.5t-19.5 -5.5l-300 5l-183 -5v8q28 4 48.5 9t34 14.5t20.5 25.5t8 43q1 21 1 64.5v92v93.5v69v51.5v55t-0.5 53.5t-1.5 47q-1 27 -8 43t-20.5 25.5t-34.5 14.5t-49 9v8q22 -2 54 -3t66 -2t66 -1h55l149 1h43.5t32 2.5t22.5 8.5t16 18l7 -5 q-6 -23 -7.5 -47t-3.5 -35q-1 -11 -2 -24.5t-1.5 -27.5t-1 -26.5t-0.5 -20.5h-9q-5 56 -34 87t-89 33l-52 1h-88v-286h39t58 1q35 0 76 1q20 0 32.5 4.5t20.5 12t13 18t10 24.5q2 0 4 -2l2 -2q-2 -10 -3.5 -22.5t-3 -25.5t-2.5 -24.5t-1 -18.5v-24.5t0.5 -26.5t0.5 -24v-17 l-9 1q-1 13 -3.5 28t-10 27.5t-22 21t-38.5 8.5l-163 3v-87l1 -137q0 -27 5 -46.5t17.5 -32.5t34.5 -18.5t57 -3.5q14 1 22 1t15 0.5t14.5 1t20.5 2.5q22 3 40.5 9.5t34 20.5t29.5 37.5t27 59.5l8 -4zM336 781l-202 116l-13 44l76 23l152 -164z" />
<glyph unicode="&#xe9;" horiz-adv-x="663" d="M575 25q-4 -14 -9.5 -19.5t-19.5 -5.5l-300 5l-183 -5v8q28 4 48.5 9t34 14.5t20.5 25.5t8 43q1 21 1 64.5v92v93.5v69v51.5v55t-0.5 53.5t-1.5 47q-1 27 -8 43t-20.5 25.5t-34.5 14.5t-49 9v8q22 -2 54 -3t66 -2t66 -1h55l149 1h43.5t32 2.5t22.5 8.5t16 18l7 -5 q-6 -23 -7.5 -47t-3.5 -35q-1 -11 -2 -24.5t-1.5 -27.5t-1 -26.5t-0.5 -20.5h-9q-5 56 -34 87t-89 33l-52 1h-88v-286h39t58 1q35 0 76 1q20 0 32.5 4.5t20.5 12t13 18t10 24.5q2 0 4 -2l2 -2q-2 -10 -3.5 -22.5t-3 -25.5t-2.5 -24.5t-1 -18.5v-24.5t0.5 -26.5t0.5 -24v-17 l-9 1q-1 13 -3.5 28t-10 27.5t-22 21t-38.5 8.5l-163 3v-87l1 -137q0 -27 5 -46.5t17.5 -32.5t34.5 -18.5t57 -3.5q14 1 22 1t15 0.5t14.5 1t20.5 2.5q22 3 40.5 9.5t34 20.5t29.5 37.5t27 59.5l8 -4zM338 791l149 172l76 -23l-13 -44l-202 -116z" />
<glyph unicode="&#xea;" horiz-adv-x="663" d="M575 25q-4 -14 -9.5 -19.5t-19.5 -5.5l-300 5l-183 -5v8q28 4 48.5 9t34 14.5t20.5 25.5t8 43q1 21 1 64.5v92v93.5v69v51.5v55t-0.5 53.5t-1.5 47q-1 27 -8 43t-20.5 25.5t-34.5 14.5t-49 9v8q22 -2 54 -3t66 -2t66 -1h55l149 1h43.5t32 2.5t22.5 8.5t16 18l7 -5 q-6 -23 -7.5 -47t-3.5 -35q-1 -11 -2 -24.5t-1.5 -27.5t-1 -26.5t-0.5 -20.5h-9q-5 56 -34 87t-89 33l-52 1h-88v-286h39t58 1q35 0 76 1q20 0 32.5 4.5t20.5 12t13 18t10 24.5q2 0 4 -2l2 -2q-2 -10 -3.5 -22.5t-3 -25.5t-2.5 -24.5t-1 -18.5v-24.5t0.5 -26.5t0.5 -24v-17 l-9 1q-1 13 -3.5 28t-10 27.5t-22 21t-38.5 8.5l-163 3v-87l1 -137q0 -27 5 -46.5t17.5 -32.5t34.5 -18.5t57 -3.5q14 1 22 1t15 0.5t14.5 1t20.5 2.5q22 3 40.5 9.5t34 20.5t29.5 37.5t27 59.5l8 -4zM482 782q-35 25 -64.5 49t-67.5 49q-34 -21 -67 -47.5t-68 -52.5l-10 11 q32 45 63.5 87t61.5 84h39q31 -45 62.5 -87t62.5 -85z" />
<glyph unicode="&#xeb;" horiz-adv-x="663" d="M575 25q-4 -14 -9.5 -19.5t-19.5 -5.5l-300 5l-183 -5v8q28 4 48.5 9t34 14.5t20.5 25.5t8 43q1 21 1 64.5v92v93.5v69v51.5v55t-0.5 53.5t-1.5 47q-1 27 -8 43t-20.5 25.5t-34.5 14.5t-49 9v8q22 -2 54 -3t66 -2t66 -1h55l149 1h43.5t32 2.5t22.5 8.5t16 18l7 -5 q-6 -23 -7.5 -47t-3.5 -35q-1 -11 -2 -24.5t-1.5 -27.5t-1 -26.5t-0.5 -20.5h-9q-5 56 -34 87t-89 33l-52 1h-88v-286h39t58 1q35 0 76 1q20 0 32.5 4.5t20.5 12t13 18t10 24.5q2 0 4 -2l2 -2q-2 -10 -3.5 -22.5t-3 -25.5t-2.5 -24.5t-1 -18.5v-24.5t0.5 -26.5t0.5 -24v-17 l-9 1q-1 13 -3.5 28t-10 27.5t-22 21t-38.5 8.5l-163 3v-87l1 -137q0 -27 5 -46.5t17.5 -32.5t34.5 -18.5t57 -3.5q14 1 22 1t15 0.5t14.5 1t20.5 2.5q22 3 40.5 9.5t34 20.5t29.5 37.5t27 59.5l8 -4zM265 883q21 0 36.5 -15t15.5 -36q0 -22 -15 -37t-37 -15t-37 15t-15 37 q0 21 15.5 36t36.5 15zM488 831q0 -21 -14.5 -36.5t-36.5 -15.5q-21 0 -36.5 15.5t-15.5 36.5q0 22 15.5 37t36.5 15q22 0 36.5 -15t14.5 -37z" />
<glyph unicode="&#xec;" d="M413 0q-16 1 -38.5 2t-47.5 1.5t-49 1t-43 0.5q-18 0 -41 -0.5t-46.5 -1.5t-46 -1.5t-38.5 -1.5v6q28 4 49.5 9t35.5 14.5t22 25.5t9 43q1 21 1 64.5v93v94.5v69v51.5v56t-0.5 54.5t-1.5 47q-1 27 -9 43t-22.5 25.5t-36 14.5t-49.5 9v6q16 0 39 -0.5t47.5 -2t47.5 -2.5 t40 -1q20 0 43 0.5t46 1.5t43.5 2t35.5 2v-7q-31 -3 -52 -8.5t-34 -15.5t-19.5 -26t-7.5 -40q-1 -17 -1.5 -41t-0.5 -56l-1 -179l1 -147v-65t2 -50q2 -21 8 -35.5t19.5 -24t36.5 -15.5t59 -9v-7zM229 781l-202 116l-13 44l76 23l152 -164z" />
<glyph unicode="&#xed;" d="M413 0q-16 1 -38.5 2t-47.5 1.5t-49 1t-43 0.5q-18 0 -41 -0.5t-46.5 -1.5t-46 -1.5t-38.5 -1.5v6q28 4 49.5 9t35.5 14.5t22 25.5t9 43q1 21 1 64.5v93v94.5v69v51.5v56t-0.5 54.5t-1.5 47q-1 27 -9 43t-22.5 25.5t-36 14.5t-49.5 9v6q16 0 39 -0.5t47.5 -2t47.5 -2.5 t40 -1q20 0 43 0.5t46 1.5t43.5 2t35.5 2v-7q-31 -3 -52 -8.5t-34 -15.5t-19.5 -26t-7.5 -40q-1 -17 -1.5 -41t-0.5 -56l-1 -179l1 -147v-65t2 -50q2 -21 8 -35.5t19.5 -24t36.5 -15.5t59 -9v-7zM212 791l149 172l76 -23l-13 -44l-202 -116z" />
<glyph unicode="&#xee;" d="M413 0q-16 1 -38.5 2t-47.5 1.5t-49 1t-43 0.5q-18 0 -41 -0.5t-46.5 -1.5t-46 -1.5t-38.5 -1.5v6q28 4 49.5 9t35.5 14.5t22 25.5t9 43q1 21 1 64.5v93v94.5v69v51.5v56t-0.5 54.5t-1.5 47q-1 27 -9 43t-22.5 25.5t-36 14.5t-49.5 9v6q16 0 39 -0.5t47.5 -2t47.5 -2.5 t40 -1q20 0 43 0.5t46 1.5t43.5 2t35.5 2v-7q-31 -3 -52 -8.5t-34 -15.5t-19.5 -26t-7.5 -40q-1 -17 -1.5 -41t-0.5 -56l-1 -179l1 -147v-65t2 -50q2 -21 8 -35.5t19.5 -24t36.5 -15.5t59 -9v-7zM364 782q-35 25 -64.5 49t-67.5 49q-34 -21 -67 -47.5t-68 -52.5l-10 11 q32 45 63.5 87t61.5 84h39q31 -45 62.5 -87t62.5 -85z" />
<glyph unicode="&#xef;" d="M413 0q-16 1 -38.5 2t-47.5 1.5t-49 1t-43 0.5q-18 0 -41 -0.5t-46.5 -1.5t-46 -1.5t-38.5 -1.5v6q28 4 49.5 9t35.5 14.5t22 25.5t9 43q1 21 1 64.5v93v94.5v69v51.5v56t-0.5 54.5t-1.5 47q-1 27 -9 43t-22.5 25.5t-36 14.5t-49.5 9v6q16 0 39 -0.5t47.5 -2t47.5 -2.5 t40 -1q20 0 43 0.5t46 1.5t43.5 2t35.5 2v-7q-31 -3 -52 -8.5t-34 -15.5t-19.5 -26t-7.5 -40q-1 -17 -1.5 -41t-0.5 -56l-1 -179l1 -147v-65t2 -50q2 -21 8 -35.5t19.5 -24t36.5 -15.5t59 -9v-7zM372 831q0 -21 -14.5 -36.5t-36.5 -15.5q-21 0 -36.5 15.5t-15.5 36.5 q0 22 15.5 37t36.5 15q22 0 36.5 -15t14.5 -37zM149 883q21 0 36.5 -15t15.5 -36q0 -22 -15 -37t-37 -15t-37 15t-15 37q0 21 15.5 36t36.5 15z" />
<glyph unicode="&#xf0;" horiz-adv-x="915" d="M857 370q0 -92 -34 -162.5t-92 -118.5t-135.5 -72.5t-163.5 -24.5l-200 11h-36.5t-47.5 -0.5t-48.5 -1t-39.5 -1.5v8q28 4 50 9t37 15t23 26t10 42q1 15 1.5 42.5t0.5 61.5t-0.5 70t-0.5 68q-35 0 -67 -0.5t-49 -4.5v50q18 -4 50 -4.5t66 -0.5v37v51.5v56t-0.5 54.5 t-1.5 47q-1 24 -9 40t-22 26t-35.5 15.5t-49.5 9.5v7l170 -4q34 -1 76.5 2.5t87.5 3.5q88 0 171 -18.5t147 -60.5t103 -110.5t39 -168.5zM729 348q0 79 -31.5 143.5t-84.5 110t-121.5 70.5t-143.5 25q-24 0 -41.5 -6.5t-17.5 -34.5q0 -44 -1 -104.5t-1 -128.5v-41 q42 1 83 1.5t83 4.5v-51q-38 4 -80.5 4.5t-85.5 0.5v-41v-114.5t1 -75.5q6 -28 18.5 -45t31.5 -26.5t42.5 -13t50.5 -3.5q73 0 129 23.5t93.5 66t56.5 102.5t19 133z" />
<glyph unicode="&#xf1;" horiz-adv-x="938" d="M921 719q-31 -3 -52 -8.5t-34 -15.5t-19.5 -26t-7.5 -40q-1 -17 -1.5 -41t-0.5 -56l-1 -179l-4 -329q0 -8 -0.5 -18t-0.5 -19v-21l-12 -3q-72 77 -145 163.5t-145 175.5t-143.5 176.5t-140.5 166.5q-1 -13 -1 -33v-48l-1 -211l1 -147v-65t2 -50q2 -21 8 -35.5t19.5 -24 t36.5 -15.5t59 -9v-7q-32 2 -72.5 3.5t-78.5 1.5q-35 0 -77.5 -1.5t-74.5 -3.5v6q28 4 49.5 9t36 14.5t22 25.5t8.5 43q1 21 1.5 69.5t0.5 104t-0.5 105.5t-0.5 74v55.5v71.5v71.5t-1 56.5q-43 41 -78.5 67t-68 40.5t-64 19.5t-66.5 5q-57 0 -113 -19t-109 -51l-5 4 q61 59 140 97t164 38q75 0 133.5 -27t112.5 -74t108 -112.5t120 -141.5q20 -23 45.5 -54t54 -65.5t58.5 -71t59 -71.5t55 -66t47 -55h1q2 0 2 2v30t-0.5 65t-1 80t-0.5 74v51.5v55.5t-0.5 54t-1.5 47q-1 27 -9 43t-22.5 25.5t-36 14.5t-49.5 9v6q16 0 36 -0.5t40.5 -2 t40.5 -2.5t37 -1q41 0 76.5 2t64.5 4v-7zM618 882q-2 -28 -11 -47t-21 -31q-23 -23 -50 -22.5t-49 7.5q-12 3 -29 11t-34.5 14.5t-34 8t-27.5 -9.5q-6 -6 -9.5 -17t-5.5 -20h-21q2 17 9 39t24 39q23 23 56 21.5t62 -14.5q12 -6 26 -12t28 -9.5t27 -2.5t24 10q5 5 9.5 14.5 t6.5 20.5h20z" />
<glyph unicode="&#xf2;" horiz-adv-x="912" d="M853 373q0 -84 -30 -156t-84 -124.5t-128 -82t-161 -29.5q-90 0 -162.5 31t-123.5 83t-78.5 121t-27.5 144q0 72 26.5 140.5t77.5 122t126 86.5t172 33q85 0 157 -26t124.5 -74t82 -116t29.5 -153zM478 16q43 0 85.5 19.5t75.5 60t54 104t21 151.5q0 75 -20 140 t-56.5 113t-87.5 76t-112 28q-52 0 -96 -22.5t-76.5 -64.5t-50.5 -103t-18 -137q0 -77 20.5 -143.5t57 -116t88.5 -77.5t115 -28zM472 781l-202 116l-13 44l76 23l152 -164z" />
<glyph unicode="&#xf3;" horiz-adv-x="912" d="M853 373q0 -84 -30 -156t-84 -124.5t-128 -82t-161 -29.5q-90 0 -162.5 31t-123.5 83t-78.5 121t-27.5 144q0 72 26.5 140.5t77.5 122t126 86.5t172 33q85 0 157 -26t124.5 -74t82 -116t29.5 -153zM478 16q43 0 85.5 19.5t75.5 60t54 104t21 151.5q0 75 -20 140 t-56.5 113t-87.5 76t-112 28q-52 0 -96 -22.5t-76.5 -64.5t-50.5 -103t-18 -137q0 -77 20.5 -143.5t57 -116t88.5 -77.5t115 -28zM417 791l149 172l76 -23l-13 -44l-202 -116z" />
<glyph unicode="&#xf4;" horiz-adv-x="912" d="M853 373q0 -84 -30 -156t-84 -124.5t-128 -82t-161 -29.5q-90 0 -162.5 31t-123.5 83t-78.5 121t-27.5 144q0 72 26.5 140.5t77.5 122t126 86.5t172 33q85 0 157 -26t124.5 -74t82 -116t29.5 -153zM478 16q43 0 85.5 19.5t75.5 60t54 104t21 151.5q0 75 -20 140 t-56.5 113t-87.5 76t-112 28q-52 0 -96 -22.5t-76.5 -64.5t-50.5 -103t-18 -137q0 -77 20.5 -143.5t57 -116t88.5 -77.5t115 -28zM592 782q-35 25 -64.5 49t-67.5 49q-34 -21 -67 -47.5t-68 -52.5l-10 11q32 45 63.5 87t61.5 84h39q31 -45 62.5 -87t62.5 -85z" />
<glyph unicode="&#xf5;" horiz-adv-x="912" d="M853 373q0 -84 -30 -156t-84 -124.5t-128 -82t-161 -29.5q-90 0 -162.5 31t-123.5 83t-78.5 121t-27.5 144q0 72 26.5 140.5t77.5 122t126 86.5t172 33q85 0 157 -26t124.5 -74t82 -116t29.5 -153zM478 16q43 0 85.5 19.5t75.5 60t54 104t21 151.5q0 75 -20 140 t-56.5 113t-87.5 76t-112 28q-52 0 -96 -22.5t-76.5 -64.5t-50.5 -103t-18 -137q0 -77 20.5 -143.5t57 -116t88.5 -77.5t115 -28zM603 882q-2 -28 -11 -47t-21 -31q-23 -23 -50 -22.5t-49 7.5q-12 3 -29 11t-34.5 14.5t-34 8t-27.5 -9.5q-6 -6 -9.5 -17t-5.5 -20h-21 q2 17 9 39t24 39q23 23 56 21.5t62 -14.5q12 -6 26 -12t28 -9.5t27 -2.5t24 10q5 5 9.5 14.5t6.5 20.5h20z" />
<glyph unicode="&#xf6;" horiz-adv-x="912" d="M853 373q0 -84 -30 -156t-84 -124.5t-128 -82t-161 -29.5q-90 0 -162.5 31t-123.5 83t-78.5 121t-27.5 144q0 72 26.5 140.5t77.5 122t126 86.5t172 33q85 0 157 -26t124.5 -74t82 -116t29.5 -153zM478 16q43 0 85.5 19.5t75.5 60t54 104t21 151.5q0 75 -20 140 t-56.5 113t-87.5 76t-112 28q-52 0 -96 -22.5t-76.5 -64.5t-50.5 -103t-18 -137q0 -77 20.5 -143.5t57 -116t88.5 -77.5t115 -28zM598 831q0 -21 -14.5 -36.5t-36.5 -15.5q-21 0 -36.5 15.5t-15.5 36.5q0 22 15.5 37t36.5 15q22 0 36.5 -15t14.5 -37zM375 883q21 0 36.5 -15 t15.5 -36q0 -22 -15 -37t-37 -15t-37 15t-15 37q0 21 15.5 36t36.5 15z" />
<glyph unicode="&#xf7;" horiz-adv-x="650" d="M327 503q20 0 34.5 -14.5t14.5 -34.5t-14.5 -34.5t-34.5 -14.5t-34.5 14.5t-14.5 34.5t14.5 34.5t34.5 14.5zM327 143q20 0 34.5 -14.5t14.5 -34.5t-14.5 -34.5t-34.5 -14.5t-34.5 14.5t-14.5 34.5t14.5 34.5t34.5 14.5zM99 242v68h452l-1 -68h-451z" />
<glyph unicode="&#xf8;" horiz-adv-x="912" d="M853 708q-11 -11 -25 -24q-12 -11 -29.5 -26.5t-37.5 -35.5q44 -47 68 -109.5t24 -139.5q0 -84 -30 -156t-84 -124.5t-128 -82t-161 -29.5q-82 0 -149.5 25.5t-118.5 70.5l-6 -6q-9 -10 -24 -25l-29.5 -29.5l-25 -25t-11.5 -10.5q-6 -8 -8 -3l-24 24q-2 1 -3.5 3.5 t0.5 3.5l37 37q15 15 32 31.5t28 27.5l4 4q-45 51 -69.5 115.5t-24.5 135.5q0 72 26.5 140.5t77.5 122t126 86.5t172 33q81 0 149.5 -23t120.5 -67q38 35 62 58.5t26 25.5q2 4 4.5 4.5t3.5 -1.5l24 -23q1 -2 3 -5t0 -3zM478 16q43 0 85.5 19.5t75.5 60t53.5 104t20.5 151.5 q1 53 -9 100.5t-29 89.5q-50 -47 -107 -100t-113 -105t-107.5 -100.5t-91.5 -86.5q38 -62 94 -97.5t128 -35.5zM197 381q0 -108 38 -193q41 39 93.5 88t108 101.5t111.5 104.5t105 98q-36 59 -91 93.5t-124 34.5q-52 0 -96 -22.5t-76.5 -64.5t-50.5 -103t-18 -137z" />
<glyph unicode="&#xf9;" horiz-adv-x="884" d="M748 336q0 -4 0.5 -9t0.5 -9q0 -40 -4 -79t-15.5 -74.5t-30.5 -66t-49 -54.5q-44 -35 -93 -48t-103 -13q-30 0 -61 3t-60.5 11t-56.5 21.5t-49 33.5q-68 59 -75 174q-2 19 -2.5 43.5t-1 51t-0.5 52v46.5v51.5v55.5v54t-1 47q-1 27 -9 43t-22.5 25.5t-36 14.5t-49.5 9v6 q16 0 39 -0.5t47.5 -2t47.5 -2.5t40 -1q20 0 43 0.5t46 1.5t43.5 2t35.5 2v-7q-31 -3 -52 -8.5t-34 -15.5t-19.5 -26t-7.5 -40q-1 -17 -1.5 -41t-0.5 -56l2 -216q0 -42 5.5 -81.5t17.5 -73t31 -60.5t47 -44q30 -19 62.5 -26.5t66.5 -7.5q40 0 77 15.5t62 41.5 q18 19 30.5 45.5t20 58t10.5 66t3 69.5l-2 176q-1 36 -1.5 72t-1.5 62q-1 27 -9 43t-22.5 25.5t-36 14.5t-49.5 9v6q32 1 72.5 -2.5t74.5 -3.5q40 0 79 2t68 4v-7q-31 -3 -52 -8.5t-34 -15.5t-19.5 -26t-7.5 -40q-1 -17 -1.5 -41t-0.5 -56v-72q0 -13 -0.5 -29.5t-0.5 -33 v-30.5v-22v-9zM472 781l-202 116l-13 44l76 23l152 -164z" />
<glyph unicode="&#xfa;" horiz-adv-x="884" d="M748 336q0 -4 0.5 -9t0.5 -9q0 -40 -4 -79t-15.5 -74.5t-30.5 -66t-49 -54.5q-44 -35 -93 -48t-103 -13q-30 0 -61 3t-60.5 11t-56.5 21.5t-49 33.5q-68 59 -75 174q-2 19 -2.5 43.5t-1 51t-0.5 52v46.5v51.5v55.5v54t-1 47q-1 27 -9 43t-22.5 25.5t-36 14.5t-49.5 9v6 q16 0 39 -0.5t47.5 -2t47.5 -2.5t40 -1q20 0 43 0.5t46 1.5t43.5 2t35.5 2v-7q-31 -3 -52 -8.5t-34 -15.5t-19.5 -26t-7.5 -40q-1 -17 -1.5 -41t-0.5 -56l2 -216q0 -42 5.5 -81.5t17.5 -73t31 -60.5t47 -44q30 -19 62.5 -26.5t66.5 -7.5q40 0 77 15.5t62 41.5 q18 19 30.5 45.5t20 58t10.5 66t3 69.5l-2 176q-1 36 -1.5 72t-1.5 62q-1 27 -9 43t-22.5 25.5t-36 14.5t-49.5 9v6q32 1 72.5 -2.5t74.5 -3.5q40 0 79 2t68 4v-7q-31 -3 -52 -8.5t-34 -15.5t-19.5 -26t-7.5 -40q-1 -17 -1.5 -41t-0.5 -56v-72q0 -13 -0.5 -29.5t-0.5 -33 v-30.5v-22v-9zM445 791l149 172l76 -23l-13 -44l-202 -116z" />
<glyph unicode="&#xfb;" horiz-adv-x="884" d="M748 336q0 -4 0.5 -9t0.5 -9q0 -40 -4 -79t-15.5 -74.5t-30.5 -66t-49 -54.5q-44 -35 -93 -48t-103 -13q-30 0 -61 3t-60.5 11t-56.5 21.5t-49 33.5q-68 59 -75 174q-2 19 -2.5 43.5t-1 51t-0.5 52v46.5v51.5v55.5v54t-1 47q-1 27 -9 43t-22.5 25.5t-36 14.5t-49.5 9v6 q16 0 39 -0.5t47.5 -2t47.5 -2.5t40 -1q20 0 43 0.5t46 1.5t43.5 2t35.5 2v-7q-31 -3 -52 -8.5t-34 -15.5t-19.5 -26t-7.5 -40q-1 -17 -1.5 -41t-0.5 -56l2 -216q0 -42 5.5 -81.5t17.5 -73t31 -60.5t47 -44q30 -19 62.5 -26.5t66.5 -7.5q40 0 77 15.5t62 41.5 q18 19 30.5 45.5t20 58t10.5 66t3 69.5l-2 176q-1 36 -1.5 72t-1.5 62q-1 27 -9 43t-22.5 25.5t-36 14.5t-49.5 9v6q32 1 72.5 -2.5t74.5 -3.5q40 0 79 2t68 4v-7q-31 -3 -52 -8.5t-34 -15.5t-19.5 -26t-7.5 -40q-1 -17 -1.5 -41t-0.5 -56v-72q0 -13 -0.5 -29.5t-0.5 -33 v-30.5v-22v-9zM597 782q-35 25 -64.5 49t-67.5 49q-34 -21 -67 -47.5t-68 -52.5l-10 11q32 45 63.5 87t61.5 84h39q31 -45 62.5 -87t62.5 -85z" />
<glyph unicode="&#xfc;" horiz-adv-x="884" d="M748 336q0 -4 0.5 -9t0.5 -9q0 -40 -4 -79t-15.5 -74.5t-30.5 -66t-49 -54.5q-44 -35 -93 -48t-103 -13q-30 0 -61 3t-60.5 11t-56.5 21.5t-49 33.5q-68 59 -75 174q-2 19 -2.5 43.5t-1 51t-0.5 52v46.5v51.5v55.5v54t-1 47q-1 27 -9 43t-22.5 25.5t-36 14.5t-49.5 9v6 q16 0 39 -0.5t47.5 -2t47.5 -2.5t40 -1q20 0 43 0.5t46 1.5t43.5 2t35.5 2v-7q-31 -3 -52 -8.5t-34 -15.5t-19.5 -26t-7.5 -40q-1 -17 -1.5 -41t-0.5 -56l2 -216q0 -42 5.5 -81.5t17.5 -73t31 -60.5t47 -44q30 -19 62.5 -26.5t66.5 -7.5q40 0 77 15.5t62 41.5 q18 19 30.5 45.5t20 58t10.5 66t3 69.5l-2 176q-1 36 -1.5 72t-1.5 62q-1 27 -9 43t-22.5 25.5t-36 14.5t-49.5 9v6q32 1 72.5 -2.5t74.5 -3.5q40 0 79 2t68 4v-7q-31 -3 -52 -8.5t-34 -15.5t-19.5 -26t-7.5 -40q-1 -17 -1.5 -41t-0.5 -56v-72q0 -13 -0.5 -29.5t-0.5 -33 v-30.5v-22v-9zM599 831q0 -21 -14.5 -36.5t-36.5 -15.5q-21 0 -36.5 15.5t-15.5 36.5q0 22 15.5 37t36.5 15q22 0 36.5 -15t14.5 -37zM376 883q21 0 36.5 -15t15.5 -36q0 -22 -15 -37t-37 -15t-37 15t-15 37q0 21 15.5 36t36.5 15z" />
<glyph unicode="&#xfd;" horiz-adv-x="820" d="M819 729q-65 6 -116 -15t-90.5 -60t-67.5 -92.5t-45.5 -112.5t-26 -119t-8.5 -112q0 -32 -1 -63.5t2 -63.5q2 -21 8 -35.5t20 -24t37 -15.5t59 -9v-7q-16 1 -38.5 2t-47.5 1.5t-49 1t-43 0.5q-18 0 -41 -0.5t-47 -1.5t-46 -1.5t-38 -1.5v6q28 4 49.5 9t36 14.5t22 25.5 t9.5 43q2 40 1 68.5t-1 57.5q-1 43 -10 97.5t-28 111.5t-48 111t-69 96t-91.5 66.5t-115.5 21.5v7q94 13 166.5 -6t125.5 -62.5t88.5 -107t55.5 -138.5q15 56 43.5 116t74 107.5t112 74.5t158.5 17v-7zM396 791l149 172l76 -23l-13 -44l-202 -116z" />
<glyph unicode="&#xfe;" horiz-adv-x="677" d="M179 646q-1 27 -9 43t-23 25.5t-36.5 14.5t-49.5 9v6q16 -1 38.5 -2t46 -1.5t46.5 -1t41 -0.5q19 0 43 0.5t49 1t47.5 1.5t38.5 2v-7q-36 -3 -59 -9t-36.5 -16t-19.5 -24t-8 -35v-66l82 -1q42 0 88 -8t84.5 -29.5t64 -59.5t25.5 -98q0 -56 -26.5 -102t-68.5 -78 t-94.5 -48.5t-104.5 -13.5v9q40 4 74.5 17t59 36.5t38.5 56.5t14 77q0 41 -13 79t-37.5 67t-59.5 47.5t-78 20.5q-11 1 -25 1t-23 -1v-373v-55t2 -40q2 -21 8 -35.5t19.5 -24t36.5 -15.5t59 -9v-7q-16 1 -38.5 2t-47.5 1.5t-49 1t-43 0.5q-18 0 -41 -0.5t-46.5 -1.5 t-46 -1.5t-38.5 -1.5v6q28 4 49.5 9t35.5 14.5t22 25.5t9 43v548z" />
<glyph unicode="&#xff;" horiz-adv-x="820" d="M819 729q-65 6 -116 -15t-90.5 -60t-67.5 -92.5t-45.5 -112.5t-26 -119t-8.5 -112q0 -32 -1 -63.5t2 -63.5q2 -21 8 -35.5t20 -24t37 -15.5t59 -9v-7q-16 1 -38.5 2t-47.5 1.5t-49 1t-43 0.5q-18 0 -41 -0.5t-47 -1.5t-46 -1.5t-38 -1.5v6q28 4 49.5 9t36 14.5t22 25.5 t9.5 43q2 40 1 68.5t-1 57.5q-1 43 -10 97.5t-28 111.5t-48 111t-69 96t-91.5 66.5t-115.5 21.5v7q94 13 166.5 -6t125.5 -62.5t88.5 -107t55.5 -138.5q15 56 43.5 116t74 107.5t112 74.5t158.5 17v-7zM568 831q0 -21 -14.5 -36.5t-36.5 -15.5q-21 0 -36.5 15.5t-15.5 36.5 q0 22 15.5 37t36.5 15q22 0 36.5 -15t14.5 -37zM345 883q21 0 36.5 -15t15.5 -36q0 -22 -15 -37t-37 -15t-37 15t-15 37q0 21 15.5 36t36.5 15z" />
<glyph unicode="&#x100;" horiz-adv-x="809" d="M815 0q-20 1 -44 3q-20 2 -46 3t-55 1q-23 0 -48.5 -1t-49.5 -2.5t-45 -2.5t-36 -1v7q54 8 70.5 28t-0.5 69q-9 23 -19.5 53t-20.5 57q-11 32 -23 64l-120 2l-115 -2q-15 -39 -27 -72q-11 -28 -20 -53t-11 -33q-5 -16 -9.5 -31t-4.5 -25q0 -15 7 -25.5t18 -17t24.5 -10 t26.5 -4.5v-7l-134 7q-2 0 -20 -1t-41.5 -2.5t-45.5 -2.5t-32 -1v7q33 6 55 15t38 23.5t28 36.5t25 54q6 15 20 49.5t33.5 81t42 101t45.5 109.5q53 128 117 282h8l265 -627q21 -51 55.5 -85.5t88.5 -39.5v-7zM382 572q-1 2 -2 6t-3 4q-3 0 -3 -4l-100 -263l101 -3l111 3z M247 795l10 60h300l-10 -60h-300z" />
<glyph unicode="&#x101;" horiz-adv-x="841" d="M831 0q-20 1 -44 3q-20 2 -46 3t-55 1q-23 0 -48.5 -1t-49.5 -2.5t-45 -2.5t-36 -1v7q54 8 70.5 28t-0.5 69q-9 23 -19.5 53t-20.5 57q-11 32 -23 64l-120 2l-115 -2q-15 -39 -27 -72q-11 -28 -20 -53t-11 -33q-5 -16 -9.5 -31t-4.5 -25q0 -15 7 -25.5t18 -17t24.5 -10 t26.5 -4.5v-7l-134 7q-2 0 -20 -1t-41.5 -2.5t-45.5 -2.5t-32 -1v7q33 6 55 15t38 23.5t28 36.5t25 54q6 15 20 49.5t33.5 81t42 101t45.5 109.5q53 128 117 282h8l265 -627q21 -51 55.5 -85.5t88.5 -39.5v-7zM398 572q-1 2 -2 6t-3 4q-3 0 -3 -4l-100 -263l101 -3l111 3z M263 795l10 60h300l-10 -60h-300z" />
<glyph unicode="&#x102;" horiz-adv-x="809" d="M815 0q-20 1 -44 3q-20 2 -46 3t-55 1q-23 0 -48.5 -1t-49.5 -2.5t-45 -2.5t-36 -1v7q54 8 70.5 28t-0.5 69q-9 23 -19.5 53t-20.5 57q-11 32 -23 64l-120 2l-115 -2q-15 -39 -27 -72q-11 -28 -20 -53t-11 -33q-5 -16 -9.5 -31t-4.5 -25q0 -15 7 -25.5t18 -17t24.5 -10 t26.5 -4.5v-7l-134 7q-2 0 -20 -1t-41.5 -2.5t-45.5 -2.5t-32 -1v7q33 6 55 15t38 23.5t28 36.5t25 54q6 15 20 49.5t33.5 81t42 101t45.5 109.5q53 128 117 282h8l265 -627q21 -51 55.5 -85.5t88.5 -39.5v-7zM382 572q-1 2 -2 6t-3 4q-3 0 -3 -4l-100 -263l101 -3l111 3z M402 847q16 0 34 4.5t35.5 15.5t32 29t22.5 45h15q0 -19 -10 -46.5t-28 -53t-43.5 -43t-56.5 -17.5q-33 0 -58.5 18t-43 43.5t-27 52.5t-9.5 46h15q8 -27 22 -45t31 -29t35 -15.5t34 -4.5z" />
<glyph unicode="&#x103;" horiz-adv-x="841" d="M831 0q-20 1 -44 3q-20 2 -46 3t-55 1q-23 0 -48.5 -1t-49.5 -2.5t-45 -2.5t-36 -1v7q54 8 70.5 28t-0.5 69q-9 23 -19.5 53t-20.5 57q-11 32 -23 64l-120 2l-115 -2q-15 -39 -27 -72q-11 -28 -20 -53t-11 -33q-5 -16 -9.5 -31t-4.5 -25q0 -15 7 -25.5t18 -17t24.5 -10 t26.5 -4.5v-7l-134 7q-2 0 -20 -1t-41.5 -2.5t-45.5 -2.5t-32 -1v7q33 6 55 15t38 23.5t28 36.5t25 54q6 15 20 49.5t33.5 81t42 101t45.5 109.5q53 128 117 282h8l265 -627q21 -51 55.5 -85.5t88.5 -39.5v-7zM398 572q-1 2 -2 6t-3 4q-3 0 -3 -4l-100 -263l101 -3l111 3z M418 847q16 0 34 4.5t35.5 15.5t32 29t22.5 45h15q0 -19 -10 -46.5t-28 -53t-43.5 -43t-56.5 -17.5q-33 0 -58.5 18t-43 43.5t-27 52.5t-9.5 46h15q8 -27 22 -45t31 -29t35 -15.5t34 -4.5z" />
<glyph unicode="&#x104;" horiz-adv-x="756" d="M762 0q-20 1 -44 3q-20 2 -47 3t-57 1q-21 -20 -30 -42.5t-8.5 -43.5t10 -38t25.5 -26t38.5 -7.5t49.5 17.5l8 -23q-43 -25 -80 -29t-64.5 6t-42.5 32t-13.5 48t21.5 54t64 51l-154 -6v7q40 6 59.5 18t19.5 38q0 9 -5.5 28t-13.5 43t-17.5 49t-17.5 46t-13.5 34.5 t-4.5 14.5l-120 2l-115 -2q-10 -21 -22.5 -56t-23.5 -69.5t-18.5 -60t-7.5 -28.5q0 -15 7 -25.5t18 -17t24.5 -10t26.5 -4.5v-7l-134 7q-2 0 -20 -1t-41.5 -2.5t-45.5 -2.5t-32 -1v7q33 6 55 15t38 23.5t28 36.5t25 54q6 15 20 49.5t33.5 81t42 101t45.5 109.5 q53 128 117 282h8l265 -627q21 -51 55.5 -85.5t88.5 -39.5v-7zM329 572q-1 2 -2 6t-3 4q-3 0 -3 -4l-100 -263h212z" />
<glyph unicode="&#x105;" horiz-adv-x="756" d="M614 7q-21 -20 -30 -42.5t-8.5 -43.5t10 -38t25.5 -26t38.5 -7.5t49.5 17.5l8 -23q-43 -25 -80 -29t-64.5 6t-42.5 32t-13.5 48t21.5 54t64 51l-154 -6v7q40 6 59.5 18t19.5 38q0 9 -5.5 28t-13.5 43t-17.5 49t-17.5 46t-13.5 34.5t-4.5 14.5l-120 2l-115 -2 q-10 -21 -22.5 -56t-23.5 -69.5t-18.5 -60t-7.5 -28.5q0 -15 7 -25.5t18 -17t24.5 -10t26.5 -4.5v-7l-134 7q-2 0 -20 -1t-41.5 -2.5t-45.5 -2.5t-32 -1v7q33 6 55 15t38 23.5t28 36.5t25 54q6 15 20 49.5t33.5 81t42 101t45.5 109.5q53 128 117 282h8l265 -627 q21 -51 55.5 -85.5t88.5 -39.5v-7q-20 1 -44 3q-20 2 -47 3t-57 1zM329 572q-1 2 -2 6t-3 4q-3 0 -3 -4l-100 -263h212z" />
<glyph unicode="&#x106;" horiz-adv-x="782" d="M696 15q-24 -11 -55.5 -17t-61 -9t-51.5 -4t-28 -1q-89 0 -169.5 24t-142.5 72t-98.5 120t-36.5 168q0 89 39 158t100.5 116.5t138 72.5t151.5 25q13 0 36.5 -0.5t53 -4.5t62 -11.5t64.5 -20.5l31 -162l-12 -2q-9 36 -30.5 66.5t-52.5 53t-71.5 35t-87.5 12.5 q-65 0 -117.5 -25t-90.5 -68t-58.5 -100.5t-20.5 -122.5q0 -89 29 -158.5t75.5 -118t103 -74t112.5 -25.5q37 0 72 10.5t65 31.5t53.5 52.5t38.5 72.5l7 -8zM416 791l149 172l76 -23l-13 -44l-202 -116z" />
<glyph unicode="&#x107;" horiz-adv-x="782" d="M702 15q-24 -11 -55.5 -17t-61 -9t-51.5 -4t-28 -1q-89 0 -169.5 24t-142.5 72t-98.5 120t-36.5 168q0 89 39 158t100.5 116.5t138 72.5t151.5 25q13 0 36.5 -0.5t53 -4.5t62 -11.5t64.5 -20.5l31 -162l-12 -2q-9 36 -30.5 66.5t-52.5 53t-71.5 35t-87.5 12.5 q-65 0 -117.5 -25t-90.5 -68t-58.5 -100.5t-20.5 -122.5q0 -89 29 -158.5t75.5 -118t103 -74t112.5 -25.5q37 0 72 10.5t65 31.5t53.5 52.5t38.5 72.5l7 -8zM408 791l149 172l76 -23l-13 -44l-202 -116z" />
<glyph unicode="&#x108;" horiz-adv-x="782" d="M696 15q-24 -11 -55.5 -17t-61 -9t-51.5 -4t-28 -1q-89 0 -169.5 24t-142.5 72t-98.5 120t-36.5 168q0 89 39 158t100.5 116.5t138 72.5t151.5 25q13 0 36.5 -0.5t53 -4.5t62 -11.5t64.5 -20.5l31 -162l-12 -2q-9 36 -30.5 66.5t-52.5 53t-71.5 35t-87.5 12.5 q-65 0 -117.5 -25t-90.5 -68t-58.5 -100.5t-20.5 -122.5q0 -89 29 -158.5t75.5 -118t103 -74t112.5 -25.5q37 0 72 10.5t65 31.5t53.5 52.5t38.5 72.5l7 -8zM602 782q-35 25 -64.5 49t-67.5 49q-34 -21 -67 -47.5t-68 -52.5l-10 11q32 45 63.5 87t61.5 84h39 q31 -45 62.5 -87t62.5 -85z" />
<glyph unicode="&#x109;" horiz-adv-x="782" d="M696 15q-24 -11 -55.5 -17t-61 -9t-51.5 -4t-28 -1q-89 0 -169.5 24t-142.5 72t-98.5 120t-36.5 168q0 89 39 158t100.5 116.5t138 72.5t151.5 25q13 0 36.5 -0.5t53 -4.5t62 -11.5t64.5 -20.5l31 -162l-12 -2q-9 36 -30.5 66.5t-52.5 53t-71.5 35t-87.5 12.5 q-65 0 -117.5 -25t-90.5 -68t-58.5 -100.5t-20.5 -122.5q0 -89 29 -158.5t75.5 -118t103 -74t112.5 -25.5q37 0 72 10.5t65 31.5t53.5 52.5t38.5 72.5l7 -8zM602 782q-35 25 -64.5 49t-67.5 49q-34 -21 -67 -47.5t-68 -52.5l-10 11q32 45 63.5 87t61.5 84h39 q31 -45 62.5 -87t62.5 -85z" />
<glyph unicode="&#x10a;" horiz-adv-x="782" d="M696 15q-24 -11 -55.5 -17t-61 -9t-51.5 -4t-28 -1q-89 0 -169.5 24t-142.5 72t-98.5 120t-36.5 168q0 89 39 158t100.5 116.5t138 72.5t151.5 25q13 0 36.5 -0.5t53 -4.5t62 -11.5t64.5 -20.5l31 -162l-12 -2q-9 36 -30.5 66.5t-52.5 53t-71.5 35t-87.5 12.5 q-65 0 -117.5 -25t-90.5 -68t-58.5 -100.5t-20.5 -122.5q0 -89 29 -158.5t75.5 -118t103 -74t112.5 -25.5q37 0 72 10.5t65 31.5t53.5 52.5t38.5 72.5l7 -8zM447 884q21 0 36.5 -15t15.5 -36q0 -22 -15 -37t-37 -15t-37 15t-15 37q0 21 15.5 36t36.5 15z" />
<glyph unicode="&#x10b;" horiz-adv-x="782" d="M696 15q-24 -11 -55.5 -17t-61 -9t-51.5 -4t-28 -1q-89 0 -169.5 24t-142.5 72t-98.5 120t-36.5 168q0 89 39 158t100.5 116.5t138 72.5t151.5 25q13 0 36.5 -0.5t53 -4.5t62 -11.5t64.5 -20.5l31 -162l-12 -2q-9 36 -30.5 66.5t-52.5 53t-71.5 35t-87.5 12.5 q-65 0 -117.5 -25t-90.5 -68t-58.5 -100.5t-20.5 -122.5q0 -89 29 -158.5t75.5 -118t103 -74t112.5 -25.5q37 0 72 10.5t65 31.5t53.5 52.5t38.5 72.5l7 -8zM447 884q21 0 36.5 -15t15.5 -36q0 -22 -15 -37t-37 -15t-37 15t-15 37q0 21 15.5 36t36.5 15z" />
<glyph unicode="&#x10c;" horiz-adv-x="782" d="M696 15q-24 -11 -55.5 -17t-61 -9t-51.5 -4t-28 -1q-89 0 -169.5 24t-142.5 72t-98.5 120t-36.5 168q0 89 39 158t100.5 116.5t138 72.5t151.5 25q13 0 36.5 -0.5t53 -4.5t62 -11.5t64.5 -20.5l31 -162l-12 -2q-9 36 -30.5 66.5t-52.5 53t-71.5 35t-87.5 12.5 q-65 0 -117.5 -25t-90.5 -68t-58.5 -100.5t-20.5 -122.5q0 -89 29 -158.5t75.5 -118t103 -74t112.5 -25.5q37 0 72 10.5t65 31.5t53.5 52.5t38.5 72.5l7 -8zM593 953q-31 -43 -62.5 -85t-62.5 -87h-39q-30 42 -61.5 84t-63.5 87l10 11q35 -26 68 -52.5t67 -47.5 q38 25 67.5 49t64.5 49z" />
<glyph unicode="&#x10d;" horiz-adv-x="782" d="M696 15q-24 -11 -55.5 -17t-61 -9t-51.5 -4t-28 -1q-89 0 -169.5 24t-142.5 72t-98.5 120t-36.5 168q0 89 39 158t100.5 116.5t138 72.5t151.5 25q13 0 36.5 -0.5t53 -4.5t62 -11.5t64.5 -20.5l31 -162l-12 -2q-9 36 -30.5 66.5t-52.5 53t-71.5 35t-87.5 12.5 q-65 0 -117.5 -25t-90.5 -68t-58.5 -100.5t-20.5 -122.5q0 -89 29 -158.5t75.5 -118t103 -74t112.5 -25.5q37 0 72 10.5t65 31.5t53.5 52.5t38.5 72.5l7 -8zM593 953q-31 -43 -62.5 -85t-62.5 -87h-39q-30 42 -61.5 84t-63.5 87l10 11q35 -26 68 -52.5t67 -47.5 q38 25 67.5 49t64.5 49z" />
<glyph unicode="&#x10e;" horiz-adv-x="915" d="M857 370q0 -92 -34 -162.5t-92 -118.5t-135.5 -72.5t-163.5 -24.5l-200 11h-36.5t-47.5 -0.5t-48.5 -1t-39.5 -1.5v8q28 4 50 9t37 15t23 26t10 42q1 14 1 38.5t0.5 54.5t0.5 63.5t-0.5 64t-0.5 56.5v42v51.5v56t-0.5 54.5t-1.5 47q-1 24 -9 40t-22 26t-35.5 15.5 t-49.5 9.5v7l170 -4q34 -1 76.5 2.5t87.5 3.5q88 0 171 -18.5t147 -60.5t103 -110.5t39 -168.5zM729 348q0 79 -31.5 143.5t-84.5 110t-121.5 70.5t-143.5 25q-24 0 -41.5 -6.5t-17.5 -34.5q0 -44 -1 -104.5t-1 -128.5v-116v-117.5t1 -78.5q6 -28 18.5 -45t31.5 -26.5 t42.5 -13t50.5 -3.5q73 0 129 23.5t93.5 66t56.5 102.5t19 133zM588 953q-31 -43 -62.5 -85t-62.5 -87h-39q-30 42 -61.5 84t-63.5 87l10 11q35 -26 68 -52.5t67 -47.5q38 25 67.5 49t64.5 49z" />
<glyph unicode="&#x10f;" horiz-adv-x="915" d="M857 370q0 -92 -34 -162.5t-92 -118.5t-135.5 -72.5t-163.5 -24.5l-200 11h-36.5t-47.5 -0.5t-48.5 -1t-39.5 -1.5v8q28 4 50 9t37 15t23 26t10 42q1 14 1 38.5t0.5 54.5t0.5 63.5t-0.5 64t-0.5 56.5v42v51.5v56t-0.5 54.5t-1.5 47q-1 24 -9 40t-22 26t-35.5 15.5 t-49.5 9.5v7l170 -4q34 -1 76.5 2.5t87.5 3.5q88 0 171 -18.5t147 -60.5t103 -110.5t39 -168.5zM729 348q0 79 -31.5 143.5t-84.5 110t-121.5 70.5t-143.5 25q-24 0 -41.5 -6.5t-17.5 -34.5q0 -44 -1 -104.5t-1 -128.5v-116v-117.5t1 -78.5q6 -28 18.5 -45t31.5 -26.5 t42.5 -13t50.5 -3.5q73 0 129 23.5t93.5 66t56.5 102.5t19 133zM586 953q-31 -43 -62.5 -85t-62.5 -87h-39q-30 42 -61.5 84t-63.5 87l10 11q35 -26 68 -52.5t67 -47.5q38 25 67.5 49t64.5 49z" />
<glyph unicode="&#x110;" horiz-adv-x="915" d="M857 370q0 -92 -34 -162.5t-92 -118.5t-135.5 -72.5t-163.5 -24.5l-200 11h-36.5t-47.5 -0.5t-48.5 -1t-39.5 -1.5v8q28 4 50 9t37 15t23 26t10 42q1 15 1.5 42.5t0.5 61.5t-0.5 70t-0.5 68q-35 0 -67 -0.5t-49 -4.5v50q18 -4 50 -4.5t66 -0.5v37v51.5v56t-0.5 54.5 t-1.5 47q-1 24 -9 40t-22 26t-35.5 15.5t-49.5 9.5v7l170 -4q34 -1 76.5 2.5t87.5 3.5q88 0 171 -18.5t147 -60.5t103 -110.5t39 -168.5zM729 348q0 79 -31.5 143.5t-84.5 110t-121.5 70.5t-143.5 25q-24 0 -41.5 -6.5t-17.5 -34.5q0 -44 -1 -104.5t-1 -128.5v-41 q42 1 83 1.5t83 4.5v-51q-38 4 -80.5 4.5t-85.5 0.5v-41v-114.5t1 -75.5q6 -28 18.5 -45t31.5 -26.5t42.5 -13t50.5 -3.5q73 0 129 23.5t93.5 66t56.5 102.5t19 133z" />
<glyph unicode="&#x111;" horiz-adv-x="915" d="M857 370q0 -92 -34 -162.5t-92 -118.5t-135.5 -72.5t-163.5 -24.5l-200 11h-36.5t-47.5 -0.5t-48.5 -1t-39.5 -1.5v8q28 4 50 9t37 15t23 26t10 42q1 15 1.5 42.5t0.5 61.5t-0.5 70t-0.5 68q-35 0 -67 -0.5t-49 -4.5v50q18 -4 50 -4.5t66 -0.5v37v51.5v56t-0.5 54.5 t-1.5 47q-1 24 -9 40t-22 26t-35.5 15.5t-49.5 9.5v7l170 -4q34 -1 76.5 2.5t87.5 3.5q88 0 171 -18.5t147 -60.5t103 -110.5t39 -168.5zM729 348q0 79 -31.5 143.5t-84.5 110t-121.5 70.5t-143.5 25q-24 0 -41.5 -6.5t-17.5 -34.5q0 -44 -1 -104.5t-1 -128.5v-41 q42 1 83 1.5t83 4.5v-51q-38 4 -80.5 4.5t-85.5 0.5v-41v-114.5t1 -75.5q6 -28 18.5 -45t31.5 -26.5t42.5 -13t50.5 -3.5q73 0 129 23.5t93.5 66t56.5 102.5t19 133z" />
<glyph unicode="&#x112;" horiz-adv-x="663" d="M575 25q-4 -14 -9.5 -19.5t-19.5 -5.5q-54 1 -110 3t-130 2q-48 0 -113.5 -2t-129.5 -3v8q28 4 48.5 9t34 14.5t20.5 25.5t8 43q1 21 1 64.5v92v93.5v69v51.5v55t-0.5 53.5t-1.5 47q-1 27 -8 43t-20.5 25.5t-34.5 14.5t-49 9v8q22 -2 54 -3t66 -2t66 -1h55l149 1h43.5 t32 2.5t22.5 8.5t16 18l7 -5q-6 -23 -7.5 -47t-3.5 -35q-1 -11 -2 -24.5t-1.5 -27.5t-1 -26.5t-0.5 -20.5h-9q-5 56 -34 87t-89 33l-52 1h-88v-286h39t58 1q35 0 76 1q20 0 32.5 4.5t20.5 12t13 18t10 24.5q2 0 4 -2l2 -2q-2 -10 -3.5 -22.5t-3 -25.5t-2.5 -24.5t-1 -18.5 v-24.5t0.5 -26.5t0.5 -24v-17l-9 1q-1 13 -3.5 28t-10 27.5t-22 21t-38.5 8.5l-163 3v-87l1 -137q0 -27 5 -46.5t17.5 -32t34.5 -18t57 -4.5q15 0 23 0.5t15 1l14 1t20 2.5q22 3 40.5 9.5t34 20.5t29.5 37.5t27 59.5l8 -4zM194 795l10 60h300l-10 -60h-300z" />
<glyph unicode="&#x113;" horiz-adv-x="663" d="M575 25q-4 -14 -9.5 -19.5t-19.5 -5.5l-300 5l-183 -5v8q28 4 48.5 9t34 14.5t20.5 25.5t8 43q1 21 1 64.5v92v93.5v69v51.5v55t-0.5 53.5t-1.5 47q-1 27 -8 43t-20.5 25.5t-34.5 14.5t-49 9v8q22 -2 54 -3t66 -2t66 -1h55l149 1h43.5t32 2.5t22.5 8.5t16 18l7 -5 q-6 -23 -7.5 -47t-3.5 -35q-1 -11 -2 -24.5t-1.5 -27.5t-1 -26.5t-0.5 -20.5h-9q-5 56 -34 87t-89 33l-52 1h-88v-286h39t58 1q35 0 76 1q20 0 32.5 4.5t20.5 12t13 18t10 24.5q2 0 4 -2l2 -2q-2 -10 -3.5 -22.5t-3 -25.5t-2.5 -24.5t-1 -18.5v-24.5t0.5 -26.5t0.5 -24v-17 l-9 1q-1 13 -3.5 28t-10 27.5t-22 21t-38.5 8.5l-163 3v-87l1 -137q0 -27 5 -46.5t17.5 -32.5t34.5 -18.5t57 -3.5q14 1 22 1t15 0.5t14.5 1t20.5 2.5q22 3 40.5 9.5t34 20.5t29.5 37.5t27 59.5l8 -4zM194 795l10 60h300l-10 -60h-300z" />
<glyph unicode="&#x114;" horiz-adv-x="663" d="M575 25q-4 -14 -9.5 -19.5t-19.5 -5.5q-54 1 -110 3t-130 2q-48 0 -113.5 -2t-129.5 -3v8q28 4 48.5 9t34 14.5t20.5 25.5t8 43q1 21 1 64.5v92v93.5v69v51.5v55t-0.5 53.5t-1.5 47q-1 27 -8 43t-20.5 25.5t-34.5 14.5t-49 9v8q22 -2 54 -3t66 -2t66 -1h55l149 1h43.5 t32 2.5t22.5 8.5t16 18l7 -5q-6 -23 -7.5 -47t-3.5 -35q-1 -11 -2 -24.5t-1.5 -27.5t-1 -26.5t-0.5 -20.5h-9q-5 56 -34 87t-89 33l-52 1h-88v-286h39t58 1q35 0 76 1q20 0 32.5 4.5t20.5 12t13 18t10 24.5q2 0 4 -2l2 -2q-2 -10 -3.5 -22.5t-3 -25.5t-2.5 -24.5t-1 -18.5 v-24.5t0.5 -26.5t0.5 -24v-17l-9 1q-1 13 -3.5 28t-10 27.5t-22 21t-38.5 8.5l-163 3v-87l1 -137q0 -27 5 -46.5t17.5 -32t34.5 -18t57 -4.5q15 0 23 0.5t15 1l14 1t20 2.5q22 3 40.5 9.5t34 20.5t29.5 37.5t27 59.5l8 -4zM349 847q16 0 34 4.5t35.5 15.5t32 29t22.5 45h15 q0 -19 -10 -46.5t-28 -53t-43.5 -43t-56.5 -17.5q-33 0 -58.5 18t-43 43.5t-27 52.5t-9.5 46h15q8 -27 22 -45t31 -29t35 -15.5t34 -4.5z" />
<glyph unicode="&#x115;" horiz-adv-x="663" d="M575 25q-4 -14 -9.5 -19.5t-19.5 -5.5l-300 5l-183 -5v8q28 4 48.5 9t34 14.5t20.5 25.5t8 43q1 21 1 64.5v92v93.5v69v51.5v55t-0.5 53.5t-1.5 47q-1 27 -8 43t-20.5 25.5t-34.5 14.5t-49 9v8q22 -2 54 -3t66 -2t66 -1h55l149 1h43.5t32 2.5t22.5 8.5t16 18l7 -5 q-6 -23 -7.5 -47t-3.5 -35q-1 -11 -2 -24.5t-1.5 -27.5t-1 -26.5t-0.5 -20.5h-9q-5 56 -34 87t-89 33l-52 1h-88v-286h39t58 1q35 0 76 1q20 0 32.5 4.5t20.5 12t13 18t10 24.5q2 0 4 -2l2 -2q-2 -10 -3.5 -22.5t-3 -25.5t-2.5 -24.5t-1 -18.5v-24.5t0.5 -26.5t0.5 -24v-17 l-9 1q-1 13 -3.5 28t-10 27.5t-22 21t-38.5 8.5l-163 3v-87l1 -137q0 -27 5 -46.5t17.5 -32.5t34.5 -18.5t57 -3.5q14 1 22 1t15 0.5t14.5 1t20.5 2.5q22 3 40.5 9.5t34 20.5t29.5 37.5t27 59.5l8 -4zM349 847q16 0 34 4.5t35.5 15.5t32 29t22.5 45h15q0 -19 -10 -46.5 t-28 -53t-43.5 -43t-56.5 -17.5q-33 0 -58.5 18t-43 43.5t-27 52.5t-9.5 46h15q8 -27 22 -45t31 -29t35 -15.5t34 -4.5z" />
<glyph unicode="&#x116;" horiz-adv-x="663" d="M575 25q-4 -14 -9.5 -19.5t-19.5 -5.5q-54 1 -110 3t-130 2q-48 0 -113.5 -2t-129.5 -3v8q28 4 48.5 9t34 14.5t20.5 25.5t8 43q1 21 1 64.5v92v93.5v69v51.5v55t-0.5 53.5t-1.5 47q-1 27 -8 43t-20.5 25.5t-34.5 14.5t-49 9v8q22 -2 54 -3t66 -2t66 -1h55l149 1h43.5 t32 2.5t22.5 8.5t16 18l7 -5q-6 -23 -7.5 -47t-3.5 -35q-1 -11 -2 -24.5t-1.5 -27.5t-1 -26.5t-0.5 -20.5h-9q-5 56 -34 87t-89 33l-52 1h-88v-286h39t58 1q35 0 76 1q20 0 32.5 4.5t20.5 12t13 18t10 24.5q2 0 4 -2l2 -2q-2 -10 -3.5 -22.5t-3 -25.5t-2.5 -24.5t-1 -18.5 v-24.5t0.5 -26.5t0.5 -24v-17l-9 1q-1 13 -3.5 28t-10 27.5t-22 21t-38.5 8.5l-163 3v-87l1 -137q0 -27 5 -46.5t17.5 -32t34.5 -18t57 -4.5q15 0 23 0.5t15 1l14 1t20 2.5q22 3 40.5 9.5t34 20.5t29.5 37.5t27 59.5l8 -4zM374 884q21 0 36.5 -15t15.5 -36q0 -22 -15 -37 t-37 -15t-37 15t-15 37q0 21 15.5 36t36.5 15z" />
<glyph unicode="&#x117;" horiz-adv-x="663" d="M575 25q-4 -14 -9.5 -19.5t-19.5 -5.5l-300 5l-183 -5v8q28 4 48.5 9t34 14.5t20.5 25.5t8 43q1 21 1 64.5v92v93.5v69v51.5v55t-0.5 53.5t-1.5 47q-1 27 -8 43t-20.5 25.5t-34.5 14.5t-49 9v8q22 -2 54 -3t66 -2t66 -1h55l149 1h43.5t32 2.5t22.5 8.5t16 18l7 -5 q-6 -23 -7.5 -47t-3.5 -35q-1 -11 -2 -24.5t-1.5 -27.5t-1 -26.5t-0.5 -20.5h-9q-5 56 -34 87t-89 33l-52 1h-88v-286h39t58 1q35 0 76 1q20 0 32.5 4.5t20.5 12t13 18t10 24.5q2 0 4 -2l2 -2q-2 -10 -3.5 -22.5t-3 -25.5t-2.5 -24.5t-1 -18.5v-24.5t0.5 -26.5t0.5 -24v-17 l-9 1q-1 13 -3.5 28t-10 27.5t-22 21t-38.5 8.5l-163 3v-87l1 -137q0 -27 5 -46.5t17.5 -32.5t34.5 -18.5t57 -3.5q14 1 22 1t15 0.5t14.5 1t20.5 2.5q22 3 40.5 9.5t34 20.5t29.5 37.5t27 59.5l8 -4zM374 884q21 0 36.5 -15t15.5 -36q0 -22 -15 -37t-37 -15t-37 15t-15 37 q0 21 15.5 36t36.5 15z" />
<glyph unicode="&#x118;" horiz-adv-x="663" d="M540 0q-30 -30 -35.5 -64.5t8.5 -59.5t43.5 -32t69.5 17l8 -23q-43 -25 -80 -29t-64.5 6t-42.5 32t-13.5 48t21.5 54t64 51l-273 5l-183 -5v8q28 4 48.5 9t34 14.5t20.5 25.5t8 43q1 21 1 64.5v92v93.5v69v51.5v55t-0.5 53.5t-1.5 47q-1 27 -8 43t-20.5 25.5t-34.5 14.5 t-49 9v8q22 -2 54 -3t66 -2t66 -1h55l149 1h43.5t32 2.5t22.5 8.5t16 18l7 -5q-6 -23 -7.5 -47t-3.5 -35q-1 -11 -2 -24.5t-1.5 -27.5t-1 -26.5t-0.5 -20.5h-9q-5 56 -34 87t-89 33l-52 1h-88v-286h39t58 1q35 0 76 1q20 0 32.5 4.5t20.5 12t13 18t10 24.5q2 0 4 -2l2 -2 q-2 -10 -3.5 -22.5t-3 -25.5t-2.5 -24.5t-1 -18.5v-24.5t0.5 -26.5t0.5 -24v-17l-9 1q-1 13 -3.5 28t-10 27.5t-22 21t-38.5 8.5l-163 3v-87l1 -137q0 -27 5 -46.5t17.5 -32.5t34.5 -18.5t57 -3.5q14 1 22 1t15 0.5t14.5 1t20.5 2.5q22 3 40.5 9.5t34 20.5t29.5 37.5 t27 59.5l8 -4l-35 -140q-4 -14 -9.5 -19.5t-19.5 -5.5h-6z" />
<glyph unicode="&#x119;" horiz-adv-x="663" d="M540 0q-30 -30 -35.5 -64.5t8.5 -59.5t43.5 -32t69.5 17l8 -23q-43 -25 -80 -29t-64.5 6t-42.5 32t-13.5 48t21.5 54t64 51l-273 5l-183 -5v8q28 4 48.5 9t34 14.5t20.5 25.5t8 43q1 21 1 64.5v92v93.5v69v51.5v55t-0.5 53.5t-1.5 47q-1 27 -8 43t-20.5 25.5t-34.5 14.5 t-49 9v8q22 -2 54 -3t66 -2t66 -1h55l149 1h43.5t32 2.5t22.5 8.5t16 18l7 -5q-6 -23 -7.5 -47t-3.5 -35q-1 -11 -2 -24.5t-1.5 -27.5t-1 -26.5t-0.5 -20.5h-9q-5 56 -34 87t-89 33l-52 1h-88v-286h39t58 1q35 0 76 1q20 0 32.5 4.5t20.5 12t13 18t10 24.5q2 0 4 -2l2 -2 q-2 -10 -3.5 -22.5t-3 -25.5t-2.5 -24.5t-1 -18.5v-24.5t0.5 -26.5t0.5 -24v-17l-9 1q-1 13 -3.5 28t-10 27.5t-22 21t-38.5 8.5l-163 3v-87l1 -137q0 -27 5 -46.5t17.5 -32.5t34.5 -18.5t57 -3.5q14 1 22 1t15 0.5t14.5 1t20.5 2.5q22 3 40.5 9.5t34 20.5t29.5 37.5 t27 59.5l8 -4l-35 -140q-4 -14 -9.5 -19.5t-19.5 -5.5h-6z" />
<glyph unicode="&#x11a;" horiz-adv-x="663" d="M575 25q-4 -14 -9.5 -19.5t-19.5 -5.5q-54 1 -110 3t-130 2q-48 0 -113.5 -2t-129.5 -3v8q28 4 48.5 9t34 14.5t20.5 25.5t8 43q1 21 1 64.5v92v93.5v69v51.5v55t-0.5 53.5t-1.5 47q-1 27 -8 43t-20.5 25.5t-34.5 14.5t-49 9v8q22 -2 54 -3t66 -2t66 -1h55l149 1h43.5 t32 2.5t22.5 8.5t16 18l7 -5q-6 -23 -7.5 -47t-3.5 -35q-1 -11 -2 -24.5t-1.5 -27.5t-1 -26.5t-0.5 -20.5h-9q-5 56 -34 87t-89 33l-52 1h-88v-286h39t58 1q35 0 76 1q20 0 32.5 4.5t20.5 12t13 18t10 24.5q2 0 4 -2l2 -2q-2 -10 -3.5 -22.5t-3 -25.5t-2.5 -24.5t-1 -18.5 v-24.5t0.5 -26.5t0.5 -24v-17l-9 1q-1 13 -3.5 28t-10 27.5t-22 21t-38.5 8.5l-163 3v-87l1 -137q0 -27 5 -46.5t17.5 -32t34.5 -18t57 -4.5q15 0 23 0.5t15 1l14 1t20 2.5q22 3 40.5 9.5t34 20.5t29.5 37.5t27 59.5l8 -4zM493 953q-31 -43 -62.5 -85t-62.5 -87h-39 q-30 42 -61.5 84t-63.5 87l10 11q35 -26 68 -52.5t67 -47.5q38 25 67.5 49t64.5 49z" />
<glyph unicode="&#x11b;" horiz-adv-x="663" d="M575 25q-4 -14 -9.5 -19.5t-19.5 -5.5l-300 5l-183 -5v8q28 4 48.5 9t34 14.5t20.5 25.5t8 43q1 21 1 64.5v92v93.5v69v51.5v55t-0.5 53.5t-1.5 47q-1 27 -8 43t-20.5 25.5t-34.5 14.5t-49 9v8q22 -2 54 -3t66 -2t66 -1h55l149 1h43.5t32 2.5t22.5 8.5t16 18l7 -5 q-6 -23 -7.5 -47t-3.5 -35q-1 -11 -2 -24.5t-1.5 -27.5t-1 -26.5t-0.5 -20.5h-9q-5 56 -34 87t-89 33l-52 1h-88v-286h39t58 1q35 0 76 1q20 0 32.5 4.5t20.5 12t13 18t10 24.5q2 0 4 -2l2 -2q-2 -10 -3.5 -22.5t-3 -25.5t-2.5 -24.5t-1 -18.5v-24.5t0.5 -26.5t0.5 -24v-17 l-9 1q-1 13 -3.5 28t-10 27.5t-22 21t-38.5 8.5l-163 3v-87l1 -137q0 -27 5 -46.5t17.5 -32.5t34.5 -18.5t57 -3.5q14 1 22 1t15 0.5t14.5 1t20.5 2.5q22 3 40.5 9.5t34 20.5t29.5 37.5t27 59.5l8 -4zM493 953q-31 -43 -62.5 -85t-62.5 -87h-39q-30 42 -61.5 84t-63.5 87 l10 11q35 -26 68 -52.5t67 -47.5q38 25 67.5 49t64.5 49z" />
<glyph unicode="&#x11c;" horiz-adv-x="867" d="M860 339q-31 -3 -52 -8.5t-34 -16t-19.5 -26t-7.5 -39.5q-1 -14 -1 -42v-52v-129q-7 -4 -23 -8.5t-35 -9t-38 -8t-32 -5.5q-25 -3 -56 -7t-69 -4q-81 0 -159.5 23.5t-140 71t-99 119.5t-37.5 170q0 88 37 157t97.5 117t137.5 73t156 25q13 0 38 -0.5t56 -4.5t65 -11.5 t66 -20.5l31 -162l-12 -2q-9 36 -30.5 66.5t-52.5 53t-71.5 35t-87.5 12.5q-65 0 -118.5 -25.5t-92 -69t-60 -101.5t-21.5 -123q0 -64 20.5 -128.5t62.5 -116.5t106 -84.5t151 -32.5q13 0 28.5 1.5t30 3.5t25.5 4t15 4q0 12 1 25q0 11 0.5 26t0.5 30v39v45.5t-1 40.5 q-1 27 -9 43.5t-22.5 26.5t-36 15.5t-49.5 9.5v8q16 0 39 -0.5t47.5 -2t47.5 -2.5t40 -1q20 0 43 0.5t46 1.5t43.5 2t35.5 2v-8zM632 782q-35 25 -64.5 49t-67.5 49q-34 -21 -67 -47.5t-68 -52.5l-10 11q32 45 63.5 87t61.5 84h39q31 -45 62.5 -87t62.5 -85z" />
<glyph unicode="&#x11d;" horiz-adv-x="867" d="M860 339q-31 -3 -52 -8.5t-34 -16t-19.5 -26t-7.5 -39.5q-1 -14 -1 -42v-52v-129q-7 -4 -23 -8.5t-35 -9t-38 -8t-32 -5.5q-25 -3 -56 -7t-69 -4q-81 0 -159.5 23.5t-140 71t-99 119.5t-37.5 170q0 88 37 157t97.5 117t137.5 73t156 25q13 0 38 -0.5t56 -4.5t65 -11.5 t66 -20.5l31 -162l-12 -2q-9 36 -30.5 66.5t-52.5 53t-71.5 35t-87.5 12.5q-65 0 -118.5 -25.5t-92 -69t-60 -101.5t-21.5 -123q0 -64 20.5 -128.5t62.5 -116.5t106 -84.5t151 -32.5q13 0 28.5 1.5t30 3.5t25.5 4t15 4q0 12 1 25q0 11 0.5 26t0.5 30v39v45.5t-1 40.5 q-1 27 -9 43.5t-22.5 26.5t-36 15.5t-49.5 9.5v8q16 0 39 -0.5t47.5 -2t47.5 -2.5t40 -1q20 0 43 0.5t46 1.5t43.5 2t35.5 2v-8zM632 782q-35 25 -64.5 49t-67.5 49q-34 -21 -67 -47.5t-68 -52.5l-10 11q32 45 63.5 87t61.5 84h39q31 -45 62.5 -87t62.5 -85z" />
<glyph unicode="&#x11e;" horiz-adv-x="867" d="M860 339q-31 -3 -52 -8.5t-34 -16t-19.5 -26t-7.5 -39.5q-1 -14 -1 -42v-52v-129q-7 -4 -23 -8.5t-35 -9t-38 -8t-32 -5.5q-25 -3 -56 -7t-69 -4q-81 0 -159.5 23.5t-140 71t-99 119.5t-37.5 170q0 88 37 157t97.5 117t137.5 73t156 25q13 0 38 -0.5t56 -4.5t65 -11.5 t66 -20.5l31 -162l-12 -2q-9 36 -30.5 66.5t-52.5 53t-71.5 35t-87.5 12.5q-65 0 -118.5 -25.5t-92 -69t-60 -101.5t-21.5 -123q0 -64 20.5 -128.5t62.5 -116.5t106 -84.5t151 -32.5q13 0 28.5 1.5t30 3.5t25.5 4t15 4q0 12 1 25q0 11 0.5 26t0.5 30v39v45.5t-1 40.5 q-1 27 -9 43.5t-22.5 26.5t-36 15.5t-49.5 9.5v8q16 0 39 -0.5t47.5 -2t47.5 -2.5t40 -1q20 0 43 0.5t46 1.5t43.5 2t35.5 2v-8zM494 847q16 0 34 4.5t35.5 15.5t32 29t22.5 45h15q0 -19 -10 -46.5t-28 -53t-43.5 -43t-56.5 -17.5q-33 0 -58.5 18t-43 43.5t-27 52.5t-9.5 46 h15q8 -27 22 -45t31 -29t35 -15.5t34 -4.5z" />
<glyph unicode="&#x11f;" horiz-adv-x="867" d="M860 339q-31 -3 -52 -8.5t-34 -16t-19.5 -26t-7.5 -39.5q-1 -14 -1 -42v-52v-129q-7 -4 -23 -8.5t-35 -9t-38 -8t-32 -5.5q-25 -3 -56 -7t-69 -4q-81 0 -159.5 23.5t-140 71t-99 119.5t-37.5 170q0 88 37 157t97.5 117t137.5 73t156 25q13 0 38 -0.5t56 -4.5t65 -11.5 t66 -20.5l31 -162l-12 -2q-9 36 -30.5 66.5t-52.5 53t-71.5 35t-87.5 12.5q-65 0 -118.5 -25.5t-92 -69t-60 -101.5t-21.5 -123q0 -64 20.5 -128.5t62.5 -116.5t106 -84.5t151 -32.5q13 0 28.5 1.5t30 3.5t25.5 4t15 4q0 12 1 25q0 11 0.5 26t0.5 30v39v45.5t-1 40.5 q-1 27 -9 43.5t-22.5 26.5t-36 15.5t-49.5 9.5v8q16 0 39 -0.5t47.5 -2t47.5 -2.5t40 -1q20 0 43 0.5t46 1.5t43.5 2t35.5 2v-8zM494 847q16 0 34 4.5t35.5 15.5t32 29t22.5 45h15q0 -19 -10 -46.5t-28 -53t-43.5 -43t-56.5 -17.5q-33 0 -58.5 18t-43 43.5t-27 52.5t-9.5 46 h15q8 -27 22 -45t31 -29t35 -15.5t34 -4.5z" />
<glyph unicode="&#x120;" horiz-adv-x="867" d="M860 339q-31 -3 -52 -8.5t-34 -16t-19.5 -26t-7.5 -39.5q-1 -14 -1 -42v-52v-129q-7 -4 -23 -8.5t-35 -9t-38 -8t-32 -5.5q-25 -3 -56 -7t-69 -4q-81 0 -159.5 23.5t-140 71t-99 119.5t-37.5 170q0 88 37 157t97.5 117t137.5 73t156 25q13 0 38 -0.5t56 -4.5t65 -11.5 t66 -20.5l31 -162l-12 -2q-9 36 -30.5 66.5t-52.5 53t-71.5 35t-87.5 12.5q-65 0 -118.5 -25.5t-92 -69t-60 -101.5t-21.5 -123q0 -64 20.5 -128.5t62.5 -116.5t106 -84.5t151 -32.5q13 0 28.5 1.5t30 3.5t25.5 4t15 4q0 12 1 25q0 11 0.5 26t0.5 30v39v45.5t-1 40.5 q-1 27 -9 43.5t-22.5 26.5t-36 15.5t-49.5 9.5v8q16 0 39 -0.5t47.5 -2t47.5 -2.5t40 -1q20 0 43 0.5t46 1.5t43.5 2t35.5 2v-8zM494 884q21 0 36.5 -15t15.5 -36q0 -22 -15 -37t-37 -15t-37 15t-15 37q0 21 15.5 36t36.5 15z" />
<glyph unicode="&#x121;" horiz-adv-x="867" d="M860 339q-31 -3 -52 -8.5t-34 -16t-19.5 -26t-7.5 -39.5q-1 -14 -1 -42v-52v-129q-7 -4 -23 -8.5t-35 -9t-38 -8t-32 -5.5q-25 -3 -56 -7t-69 -4q-81 0 -159.5 23.5t-140 71t-99 119.5t-37.5 170q0 88 37 157t97.5 117t137.5 73t156 25q13 0 38 -0.5t56 -4.5t65 -11.5 t66 -20.5l31 -162l-12 -2q-9 36 -30.5 66.5t-52.5 53t-71.5 35t-87.5 12.5q-65 0 -118.5 -25.5t-92 -69t-60 -101.5t-21.5 -123q0 -64 20.5 -128.5t62.5 -116.5t106 -84.5t151 -32.5q13 0 28.5 1.5t30 3.5t25.5 4t15 4q0 12 1 25q0 11 0.5 26t0.5 30v39v45.5t-1 40.5 q-1 27 -9 43.5t-22.5 26.5t-36 15.5t-49.5 9.5v8q16 0 39 -0.5t47.5 -2t47.5 -2.5t40 -1q20 0 43 0.5t46 1.5t43.5 2t35.5 2v-8zM494 884q21 0 36.5 -15t15.5 -36q0 -22 -15 -37t-37 -15t-37 15t-15 37q0 21 15.5 36t36.5 15z" />
<glyph unicode="&#x122;" horiz-adv-x="867" d="M860 339q-31 -3 -52 -8.5t-34 -16t-19.5 -26t-7.5 -39.5q-1 -14 -1 -42v-52v-129q-7 -4 -23 -8.5t-35 -9t-38 -8t-32 -5.5q-25 -3 -56 -7t-69 -4q-81 0 -159.5 23.5t-140 71t-99 119.5t-37.5 170q0 88 37 157t97.5 117t137.5 73t156 25q13 0 38 -0.5t56 -4.5t65 -11.5 t66 -20.5l31 -162l-12 -2q-9 36 -30.5 66.5t-52.5 53t-71.5 35t-87.5 12.5q-65 0 -118.5 -25.5t-92 -69t-60 -101.5t-21.5 -123q0 -64 20.5 -128.5t62.5 -116.5t106 -84.5t151 -32.5q13 0 28.5 1.5t30 3.5t25.5 4t15 4q0 12 1 25q0 11 0.5 26t0.5 30v39v45.5t-1 40.5 q-1 27 -9 43.5t-22.5 26.5t-36 15.5t-49.5 9.5v8q16 0 39 -0.5t47.5 -2t47.5 -2.5t40 -1q20 0 43 0.5t46 1.5t43.5 2t35.5 2v-8zM521 -113q0 -22 -12 -45.5t-29.5 -44.5t-37.5 -39t-36 -28l-9 13q16 13 24.5 22t14.5 25q6 15 6.5 25t-2.5 18t-8 15.5l-11 16.5q-8 12 -8 28.5 t7 30.5t20.5 22t33.5 5q25 -5 36 -24t11 -40z" />
<glyph unicode="&#x123;" horiz-adv-x="867" d="M860 339q-31 -3 -52 -8.5t-34 -16t-19.5 -26t-7.5 -39.5q-1 -14 -1 -42v-52v-129q-7 -4 -23 -8.5t-35 -9t-38 -8t-32 -5.5q-25 -3 -56 -7t-69 -4q-81 0 -159.5 23.5t-140 71t-99 119.5t-37.5 170q0 88 37 157t97.5 117t137.5 73t156 25q13 0 38 -0.5t56 -4.5t65 -11.5 t66 -20.5l31 -162l-12 -2q-9 36 -30.5 66.5t-52.5 53t-71.5 35t-87.5 12.5q-65 0 -118.5 -25.5t-92 -69t-60 -101.5t-21.5 -123q0 -64 20.5 -128.5t62.5 -116.5t106 -84.5t151 -32.5q13 0 28.5 1.5t30 3.5t25.5 4t15 4q0 12 1 25q0 11 0.5 26t0.5 30v39v45.5t-1 40.5 q-1 27 -9 43.5t-22.5 26.5t-36 15.5t-49.5 9.5v8q16 0 39 -0.5t47.5 -2t47.5 -2.5t40 -1q20 0 43 0.5t46 1.5t43.5 2t35.5 2v-8zM521 -113q0 -22 -12 -45.5t-29.5 -44.5t-37.5 -39t-36 -28l-9 13q16 13 24.5 22t14.5 25q6 15 6.5 25t-2.5 18t-8 15.5l-11 16.5q-8 12 -8 28.5 t7 30.5t20.5 22t33.5 5q25 -5 36 -24t11 -40z" />
<glyph unicode="&#x124;" horiz-adv-x="973" d="M913 0q-16 1 -38.5 2t-47.5 1.5t-49 1t-43 0.5q-18 0 -41 -0.5t-46.5 -1.5t-46 -1.5t-38.5 -1.5v6q28 4 49.5 9t35.5 14.5t22 25.5t9 43q1 15 1 46.5v69.5v78v73h-388v-46q0 -59 0.5 -98.5t0.5 -65.5t0.5 -41t1.5 -23q2 -21 8 -35.5t19.5 -24t36.5 -15.5t59 -9v-7 q-16 1 -38.5 2t-47.5 1.5t-49 1t-43 0.5q-18 0 -41 -0.5t-46.5 -1.5t-46 -1.5t-38.5 -1.5v6q28 4 49.5 9t35.5 14.5t22 25.5t9 43q1 21 1 64.5v93v94.5v69t-0.5 42t-0.5 39.5t-0.5 51t-0.5 76.5q0 27 -7.5 43t-22.5 25.5t-37 14.5t-50 9v6q16 0 39 -0.5t47.5 -2t47.5 -2.5 t40 -1q20 0 43 0.5t46 1.5t43.5 2t35.5 2v-7q-31 -3 -52 -8.5t-34 -15.5t-19.5 -26t-7.5 -40q0 -8 -0.5 -19t-1 -28t-1 -41t-0.5 -59v-81l185 -2l203 1v62v49v41t-0.5 37t-1.5 39q-1 27 -9 43t-22.5 25.5t-36 14.5t-49.5 9v6q16 0 39 -0.5t47.5 -2t47.5 -2.5t40 -1 q20 0 43 0.5t46 1.5t43.5 2t35.5 2v-7q-31 -3 -52 -8.5t-34.5 -15.5t-20 -26t-7.5 -40q-1 -17 -1.5 -41t-0.5 -56v-179l1 -147v-65t2 -50q2 -21 8 -35.5t19.5 -24t36.5 -15.5t59 -9v-7zM615 782q-35 25 -64.5 49t-67.5 49q-34 -21 -67 -47.5t-68 -52.5l-10 11q32 45 63.5 87 t61.5 84h39q31 -45 62.5 -87t62.5 -85z" />
<glyph unicode="&#x125;" horiz-adv-x="973" d="M913 0q-16 1 -38.5 2t-47.5 1.5t-49 1t-43 0.5q-18 0 -41 -0.5t-46.5 -1.5t-46 -1.5t-38.5 -1.5v6q28 4 49.5 9t35.5 14.5t22 25.5t9 43q1 15 1 46.5v69.5v78v73h-388v-46q0 -59 0.5 -98.5t0.5 -65.5t0.5 -41t1.5 -23q2 -21 8 -35.5t19.5 -24t36.5 -15.5t59 -9v-7 q-16 1 -38.5 2t-47.5 1.5t-49 1t-43 0.5q-18 0 -41 -0.5t-46.5 -1.5t-46 -1.5t-38.5 -1.5v6q28 4 49.5 9t35.5 14.5t22 25.5t9 43q1 21 1 64.5v93v94.5v69t-0.5 42t-0.5 39.5t-0.5 51t-0.5 76.5q0 27 -7.5 43t-22.5 25.5t-37 14.5t-50 9v6q16 0 39 -0.5t47.5 -2t47.5 -2.5 t40 -1q20 0 43 0.5t46 1.5t43.5 2t35.5 2v-7q-31 -3 -52 -8.5t-34 -15.5t-19.5 -26t-7.5 -40q0 -8 -0.5 -19t-1 -28t-1 -41t-0.5 -59v-81l185 -2l203 1v62v49v41t-0.5 37t-1.5 39q-1 27 -9 43t-22.5 25.5t-36 14.5t-49.5 9v6q16 0 39 -0.5t47.5 -2t47.5 -2.5t40 -1 q20 0 43 0.5t46 1.5t43.5 2t35.5 2v-7q-31 -3 -52 -8.5t-34.5 -15.5t-20.5 -26t-8 -40q-1 -17 -1 -41v-56v-179l1 -147v-65t2 -50q2 -21 8 -35.5t19.5 -24t36.5 -15.5t59 -9v-7zM615 782q-35 25 -64.5 49t-67.5 49q-34 -21 -67 -47.5t-68 -52.5l-10 11q32 45 63.5 87 t61.5 84h39q31 -45 62.5 -87t62.5 -85z" />
<glyph unicode="&#x126;" horiz-adv-x="973" d="M913 -1q-16 1 -38.5 2t-47.5 1.5t-49 1t-43 0.5q-18 0 -41 -0.5t-46.5 -1.5t-46 -1.5t-38.5 -1.5v6q28 4 49.5 9t35.5 14.5t22 25.5t9 43q1 15 1 46.5v69.5v78v73h-388v-46q0 -59 0.5 -98.5t0.5 -65.5t0.5 -41t1.5 -23q2 -21 8 -35.5t19.5 -24t36.5 -15.5t59 -9v-7 q-16 1 -38.5 2t-47.5 1.5t-49 1t-43 0.5q-18 0 -41 -0.5t-46.5 -1.5t-46 -1.5t-38.5 -1.5v6q28 4 49.5 9t35.5 14.5t22 25.5t9 43q1 21 1 64.5v93v94.5v69q0 29 -0.5 51t-1.5 53q-22 -1 -42 -1.5t-37 -2.5v39q16 -2 36 -3t43 -2v75q0 27 -7.5 43t-22.5 25.5t-37 14.5t-50 9 v6q16 0 39 -0.5t47.5 -2t47.5 -2.5t40 -1q20 0 43 0.5t46 1.5t43.5 2t35.5 2v-7q-31 -3 -52 -8.5t-34 -15.5t-19.5 -26t-7.5 -40q-1 -12 -1.5 -30t-1.5 -50q43 -1 83.5 -1h70.5h75q40 0 80 0.5t79 1.5q0 20 -0.5 38.5t-1.5 39.5q-1 27 -9 43t-22.5 25.5t-36 14.5t-49.5 9v6 q16 0 39 -0.5t47.5 -2t47.5 -2.5t40 -1q20 0 43 0.5t46 1.5t43.5 2t35.5 2v-7q-31 -3 -52 -8.5t-34.5 -15.5t-20 -26t-7.5 -40q-1 -14 -1.5 -32.5t-0.5 -41.5q27 1 50 2t40 2v-40q-21 2 -43.5 2.5t-46.5 1.5v-170l1 -147v-65t2 -50q2 -21 8 -35.5t19.5 -24t36.5 -15.5t59 -9 v-7zM446 524h-154v-43v-81l185 -2l203 1v62v63h-159h-75z" />
<glyph unicode="&#x127;" horiz-adv-x="973" d="M913 -1q-16 1 -38.5 2t-47.5 1.5t-49 1t-43 0.5q-18 0 -41 -0.5t-46.5 -1.5t-46 -1.5t-38.5 -1.5v6q28 4 49.5 9t35.5 14.5t22 25.5t9 43q1 15 1 46.5v69.5v78v73h-388v-46q0 -59 0.5 -98.5t0.5 -65.5t0.5 -41t1.5 -23q2 -21 8 -35.5t19.5 -24t36.5 -15.5t59 -9v-7 q-16 1 -38.5 2t-47.5 1.5t-49 1t-43 0.5q-18 0 -41 -0.5t-46.5 -1.5t-46 -1.5t-38.5 -1.5v6q28 4 49.5 9t35.5 14.5t22 25.5t9 43q1 21 1 64.5v93v94.5v69q0 29 -0.5 51t-1.5 53q-22 -1 -42 -1.5t-37 -2.5v39q16 -2 36 -3t43 -2v75q0 27 -7.5 43t-22.5 25.5t-37 14.5t-50 9 v6q16 0 39 -0.5t47.5 -2t47.5 -2.5t40 -1q20 0 43 0.5t46 1.5t43.5 2t35.5 2v-7q-31 -3 -52 -8.5t-34 -15.5t-19.5 -26t-7.5 -40q-1 -12 -1.5 -30t-1.5 -50q43 -1 83.5 -1h70.5h75q40 0 80 0.5t79 1.5q0 20 -0.5 38.5t-1.5 39.5q-1 27 -9 43t-22.5 25.5t-36 14.5t-49.5 9v6 q16 0 39 -0.5t47.5 -2t47.5 -2.5t40 -1q20 0 43 0.5t46 1.5t43.5 2t35.5 2v-7q-31 -3 -52 -8.5t-34.5 -15.5t-20 -26t-7.5 -40q-1 -14 -1.5 -32.5t-0.5 -41.5q27 1 50 2t40 2v-40q-21 2 -43.5 2.5t-46.5 1.5v-170l1 -147v-65t2 -50q2 -21 8 -35.5t19.5 -24t36.5 -15.5t59 -9 v-7zM446 524h-154v-43v-81l185 -2l203 1v62v63h-159h-75z" />
<glyph unicode="&#x128;" d="M413 0q-16 1 -38.5 2t-47.5 1.5t-49 1t-43 0.5q-18 0 -41 -0.5t-46.5 -1.5t-46 -1.5t-38.5 -1.5v6q28 4 49.5 9t35.5 14.5t22 25.5t9 43q1 21 1 64.5v93v94.5v69t0.5 51.5t0.5 56v54.5t-1 47q-1 27 -9.5 43t-23.5 25.5t-36.5 14.5t-49.5 9v6q16 0 39 -0.5t47.5 -2 t47.5 -2.5t40 -1q20 0 43 0.5t46 1.5t43.5 2t35.5 2v-7q-31 -3 -52 -8.5t-34 -15.5t-19.5 -26t-7.5 -40q-1 -17 -1.5 -41t-0.5 -56v-326v-65t2 -50q2 -21 8 -35.5t19.5 -24t36.5 -15.5t59 -9v-7zM379 901q-2 -28 -11 -47t-21 -31q-23 -23 -50 -22.5t-49 7.5q-12 3 -29 11 t-34.5 14.5t-34 8t-27.5 -9.5q-6 -6 -9.5 -17t-5.5 -20h-21q2 17 9 39t24 39q23 23 56 21.5t62 -14.5q12 -6 26 -12t28 -9.5t27 -2.5t24 10q5 5 9.5 14.5t6.5 20.5h20z" />
<glyph unicode="&#x129;" d="M379 901q-2 -28 -11 -47t-21 -31q-23 -23 -50 -22.5t-49 7.5q-12 3 -29 11t-34.5 14.5t-34 8t-27.5 -9.5q-6 -6 -9.5 -17t-5.5 -20h-21q2 17 9 39t24 39q23 23 56 21.5t62 -14.5q12 -6 26 -12t28 -9.5t27 -2.5t24 10q5 5 9.5 14.5t6.5 20.5h20zM413 0q-16 1 -38.5 2 t-47.5 1.5t-49 1t-43 0.5q-18 0 -41 -0.5t-46.5 -1.5t-46 -1.5t-38.5 -1.5v6q28 4 49.5 9t35.5 14.5t22 25.5t9 43q1 21 1 64.5v93v94.5v69v51.5v56t-0.5 54.5t-1.5 47q-1 27 -9 43t-22.5 25.5t-36 14.5t-49.5 9v6q16 0 39 -0.5t47.5 -2t47.5 -2.5t40 -1q20 0 43 0.5t46 1.5 t43.5 2t35.5 2v-7q-31 -3 -52 -8.5t-34 -15.5t-19.5 -26t-7.5 -40q-1 -17 -1.5 -41t-0.5 -56l-1 -179l1 -147v-65t2 -50q2 -21 8 -35.5t19.5 -24t36.5 -15.5t59 -9v-7z" />
<glyph unicode="&#x12a;" d="M413 0q-16 1 -38.5 2t-47.5 1.5t-49 1t-43 0.5q-18 0 -41 -0.5t-46.5 -1.5t-46 -1.5t-38.5 -1.5v6q28 4 49.5 9t35.5 14.5t22 25.5t9 43q1 21 1 64.5v93v94.5v69t0.5 51.5t0.5 56v54.5t-1 47q-1 27 -9.5 43t-23.5 25.5t-36.5 14.5t-49.5 9v6q16 0 39 -0.5t47.5 -2 t47.5 -2.5t40 -1q20 0 43 0.5t46 1.5t43.5 2t35.5 2v-7q-31 -3 -52 -8.5t-34 -15.5t-19.5 -26t-7.5 -40q-1 -17 -1.5 -41t-0.5 -56v-326v-65t2 -50q2 -21 8 -35.5t19.5 -24t36.5 -15.5t59 -9v-7zM75 795l10 60h300l-10 -60h-300z" />
<glyph unicode="&#x12b;" d="M75 795l10 60h300l-10 -60h-300zM413 0q-16 1 -38.5 2t-47.5 1.5t-49 1t-43 0.5q-18 0 -41 -0.5t-46.5 -1.5t-46 -1.5t-38.5 -1.5v6q28 4 49.5 9t35.5 14.5t22 25.5t9 43q1 21 1 64.5v93v94.5v69v51.5v56t-0.5 54.5t-1.5 47q-1 27 -9 43t-22.5 25.5t-36 14.5t-49.5 9v6 q16 0 39 -0.5t47.5 -2t47.5 -2.5t40 -1q20 0 43 0.5t46 1.5t43.5 2t35.5 2v-7q-31 -3 -52 -8.5t-34 -15.5t-19.5 -26t-7.5 -40q-1 -17 -1.5 -41t-0.5 -56l-1 -179l1 -147v-65t2 -50q2 -21 8 -35.5t19.5 -24t36.5 -15.5t59 -9v-7z" />
<glyph unicode="&#x12c;" d="M230 847q16 0 34 4.5t35.5 15.5t32 29t22.5 45h15q0 -19 -10 -46.5t-28 -53t-43.5 -43t-56.5 -17.5q-33 0 -58.5 18t-43 43.5t-27 52.5t-9.5 46h15q8 -27 22 -45t31 -29t35 -15.5t34 -4.5zM413 0q-16 1 -38.5 2t-47.5 1.5t-49 1t-43 0.5q-18 0 -41 -0.5t-46.5 -1.5 t-46 -1.5t-38.5 -1.5v6q28 4 49.5 9t35.5 14.5t22 25.5t9 43q1 21 1 64.5v93v94.5v69t0.5 51.5t0.5 56v54.5t-1 47q-1 27 -9.5 43t-23.5 25.5t-36.5 14.5t-49.5 9v6q16 0 39 -0.5t47.5 -2t47.5 -2.5t40 -1q20 0 43 0.5t46 1.5t43.5 2t35.5 2v-7q-31 -3 -52 -8.5t-34 -15.5 t-19.5 -26t-7.5 -40q-1 -17 -1.5 -41t-0.5 -56v-326v-65t2 -50q2 -21 8 -35.5t19.5 -24t36.5 -15.5t59 -9v-7z" />
<glyph unicode="&#x12d;" d="M230 847q16 0 34 4.5t35.5 15.5t32 29t22.5 45h15q0 -19 -10 -46.5t-28 -53t-43.5 -43t-56.5 -17.5q-33 0 -58.5 18t-43 43.5t-27 52.5t-9.5 46h15q8 -27 22 -45t31 -29t35 -15.5t34 -4.5zM413 0q-16 1 -38.5 2t-47.5 1.5t-49 1t-43 0.5q-18 0 -41 -0.5t-46.5 -1.5 t-46 -1.5t-38.5 -1.5v6q28 4 49.5 9t35.5 14.5t22 25.5t9 43q1 21 1 64.5v93v94.5v69v51.5v56t-0.5 54.5t-1.5 47q-1 27 -9 43t-22.5 25.5t-36 14.5t-49.5 9v6q16 0 39 -0.5t47.5 -2t47.5 -2.5t40 -1q20 0 43 0.5t46 1.5t43.5 2t35.5 2v-7q-31 -3 -52 -8.5t-34 -15.5 t-19.5 -26t-7.5 -40q-1 -17 -1.5 -41t-0.5 -56l-1 -179l1 -147v-65t2 -50q2 -21 8 -35.5t19.5 -24t36.5 -15.5t59 -9v-7z" />
<glyph unicode="&#x12e;" d="M230 5q-18 0 -40.5 -0.5t-45.5 -1.5t-44.5 -1.5t-36.5 -1.5v6q28 4 49.5 9t35.5 14.5t22 25.5t9 43q1 21 1 64.5v93v94.5v69v51.5v56t-0.5 54.5t-1.5 47q-1 27 -9 43t-22.5 25.5t-36 14.5t-49.5 9v6q16 0 39 -0.5t47.5 -2t47.5 -2.5t40 -1q20 0 43 0.5t46 1.5t43.5 2 t35.5 2v-7q-31 -3 -52 -8.5t-34 -15.5t-19.5 -26t-7.5 -40q-1 -17 -1.5 -41t-0.5 -56l-1 -179l1 -147v-65t2 -50q2 -21 8 -35.5t19.5 -24t36.5 -15.5t59 -9v-7q-29 2 -72 3.5t-90 1.5q-30 -30 -35.5 -64.5t8.5 -59.5t43.5 -32t69.5 17l8 -23q-43 -25 -80 -29t-64.5 6 t-42.5 32t-13.5 48t21.5 54t64 51z" />
<glyph unicode="&#x12f;" d="M230 5q-18 0 -40.5 -0.5t-45.5 -1.5t-44.5 -1.5t-36.5 -1.5v6q28 4 49.5 9t35.5 14.5t22 25.5t9 43q1 21 1 64.5v93v94.5v69v51.5v56t-0.5 54.5t-1.5 47q-1 27 -9 43t-22.5 25.5t-36 14.5t-49.5 9v6q16 0 39 -0.5t47.5 -2t47.5 -2.5t40 -1q20 0 43 0.5t46 1.5t43.5 2 t35.5 2v-7q-31 -3 -52 -8.5t-34 -15.5t-19.5 -26t-7.5 -40q-1 -17 -1.5 -41t-0.5 -56l-1 -179l1 -147v-65t2 -50q2 -21 8 -35.5t19.5 -24t36.5 -15.5t59 -9v-7q-29 2 -72 3.5t-90 1.5q-30 -30 -35.5 -64.5t8.5 -59.5t43.5 -32t69.5 17l8 -23q-43 -25 -80 -29t-64.5 6 t-42.5 32t-13.5 48t21.5 54t64 51z" />
<glyph unicode="&#x130;" d="M413 0q-16 1 -38.5 2t-47.5 1.5t-49 1t-43 0.5q-18 0 -41 -0.5t-46.5 -1.5t-46 -1.5t-38.5 -1.5v6q28 4 49.5 9t35.5 14.5t22 25.5t9 43q1 21 1 64.5v93v94.5v69t0.5 51.5t0.5 56v54.5t-1 47q-1 27 -9.5 43t-23.5 25.5t-36.5 14.5t-49.5 9v6q16 0 39 -0.5t47.5 -2 t47.5 -2.5t40 -1q20 0 43 0.5t46 1.5t43.5 2t35.5 2v-7q-31 -3 -52 -8.5t-34 -15.5t-19.5 -26t-7.5 -40q-1 -17 -1.5 -41t-0.5 -56v-326v-65t2 -50q2 -21 8 -35.5t19.5 -24t36.5 -15.5t59 -9v-7zM230 884q21 0 36.5 -15t15.5 -36q0 -22 -15 -37t-37 -15t-37 15t-15 37 q0 21 15.5 36t36.5 15z" />
<glyph unicode="&#x131;" d="M413 0q-16 1 -38.5 2t-47.5 1.5t-49 1t-43 0.5q-18 0 -41 -0.5t-46.5 -1.5t-46 -1.5t-38.5 -1.5v6q28 4 49.5 9t35.5 14.5t22 25.5t9 43q1 21 1 64.5v93v94.5v69v51.5v56t-0.5 54.5t-1.5 47q-1 27 -9 43t-22.5 25.5t-36 14.5t-49.5 9v6q16 0 39 -0.5t47.5 -2t47.5 -2.5 t40 -1q20 0 43 0.5t46 1.5t43.5 2t35.5 2v-7q-31 -3 -52 -8.5t-34 -15.5t-19.5 -26t-7.5 -40q-1 -17 -1.5 -41t-0.5 -56l-1 -179l1 -147v-65t2 -50q2 -21 8 -35.5t19.5 -24t36.5 -15.5t59 -9v-7v0z" />
<glyph unicode="&#x132;" horiz-adv-x="843" d="M415 0q-16 1 -38.5 2t-47.5 1.5t-49 1t-43 0.5q-18 0 -41 -0.5t-46.5 -1.5t-46 -1.5t-38.5 -1.5v6q28 4 49.5 9t35.5 14.5t22 25.5t9 43q1 21 1 64.5v93v94.5v69t0.5 51.5t0.5 56v54.5t-1 47q-1 27 -9.5 43t-23.5 25.5t-36.5 14.5t-49.5 9v6q16 0 39 -0.5t47.5 -2 t47.5 -2.5t40 -1q20 0 43 0.5t46 1.5t43.5 2t35.5 2v-7q-31 -3 -52 -8.5t-34 -15.5t-19.5 -26t-7.5 -40q-1 -17 -1.5 -41t-0.5 -56v-326v-65t2 -50q2 -21 8 -35.5t19.5 -24t36.5 -15.5t59 -9v-7zM696 263q0 -40 1 -77.5t1 -69.5q0 -64 -19.5 -118.5t-54.5 -97t-84 -72.5 t-108 -46l-5 9q47 22 78.5 61t50 86t26.5 98.5t8 98.5v21.5t-0.5 42.5t-0.5 55t-0.5 60.5t-0.5 57.5v47v51.5v56v54.5t-1 47q-1 27 -9 43t-22.5 25.5t-36 14.5t-49.5 9v6q16 0 39 -0.5t47.5 -2t47.5 -2.5t40 -1q20 0 43 0.5t46 1.5t43.5 2t35.5 2v-7q-31 -3 -52 -8.5 t-34 -15.5t-19.5 -26t-7.5 -40q-1 -17 -1.5 -41t-0.5 -56l-1 -189v-18.5v-25v-23v-13.5z" />
<glyph unicode="&#x133;" horiz-adv-x="844" d="M414 0q-16 1 -38.5 2t-47.5 1.5t-49 1t-43 0.5q-18 0 -41 -0.5t-46.5 -1.5t-46 -1.5t-38.5 -1.5v6q28 4 49.5 9t35.5 14.5t22 25.5t9 43q1 21 1 64.5v93v94.5v69t0.5 51.5t0.5 56v54.5t-1 47q-1 27 -9.5 43t-23.5 25.5t-36.5 14.5t-49.5 9v6q16 0 39 -0.5t47.5 -2 t47.5 -2.5t40 -1q20 0 43 0.5t46 1.5t43.5 2t35.5 2v-7q-31 -3 -52 -8.5t-34 -15.5t-19.5 -26t-7.5 -40q-1 -17 -1.5 -41t-0.5 -56v-326v-65t2 -50q2 -21 8 -35.5t19.5 -24t36.5 -15.5t59 -9v-7zM697 263q0 -40 1 -77.5t1 -69.5q0 -64 -19.5 -118.5t-54.5 -97t-84 -72.5 t-108 -46l-5 9q47 22 78.5 61t50 86t26.5 98.5t8 98.5v21.5t-0.5 42.5t-0.5 55t-0.5 60.5t-0.5 57.5v47v51.5v56v54.5t-1 47q-1 27 -9 43t-22.5 25.5t-36 14.5t-49.5 9v6q16 0 39 -0.5t47.5 -2t47.5 -2.5t40 -1q20 0 43 0.5t46 1.5t43.5 2t35.5 2v-7q-31 -3 -52 -8.5 t-34 -15.5t-19.5 -26t-7.5 -40q-1 -17 -1.5 -41t-0.5 -56q0 -77 -0.5 -127.5t-0.5 -81v-44v-16.5z" />
<glyph unicode="&#x134;" horiz-adv-x="428" d="M281 263q0 -40 1 -77.5t1 -69.5q0 -64 -19.5 -118.5t-54.5 -97t-84 -72.5t-108 -46l-5 9q47 22 78.5 61t50 86t26.5 98.5t8 98.5v21.5t-0.5 42.5t-0.5 55t-0.5 60.5t-0.5 57.5v47v51.5v56v54.5t-1 47q-1 27 -9 43t-22.5 25.5t-36 14.5t-49.5 9v6q16 0 39 -0.5t47.5 -2 t47.5 -2.5t40 -1q20 0 43 0.5t46 1.5t43.5 2t35.5 2v-7q-31 -3 -52 -8.5t-34 -15.5t-19.5 -26t-7.5 -40q-1 -17 -1.5 -41t-0.5 -56l-1 -189v-18.5v-25v-23v-13.5zM358 782q-35 25 -64.5 49t-67.5 49q-34 -21 -67 -47.5t-68 -52.5l-10 11q32 45 63.5 87t61.5 84h39 q31 -45 62.5 -87t62.5 -85z" />
<glyph unicode="&#x135;" horiz-adv-x="428" d="M281 263q0 -40 1 -77.5t1 -69.5q0 -64 -19.5 -118.5t-54.5 -97t-84 -72.5t-108 -46l-5 9q47 22 78.5 61t50 86t26.5 98.5t8 98.5v21.5t-0.5 42.5t-0.5 55t-0.5 60.5t-0.5 57.5v47v51.5v56v54.5t-1 47q-1 27 -9 43t-22.5 25.5t-36 14.5t-49.5 9v6q16 0 39 -0.5t47.5 -2 t47.5 -2.5t40 -1q20 0 43 0.5t46 1.5t43.5 2t35.5 2v-7q-31 -3 -52 -8.5t-34 -15.5t-19.5 -26t-7.5 -40q-1 -17 -1.5 -41t-0.5 -56q0 -77 -0.5 -127.5t-0.5 -81v-44v-16.5zM358 782q-35 25 -64.5 49t-67.5 49q-34 -21 -67 -47.5t-68 -52.5l-10 11q32 45 63.5 87t61.5 84h39 q31 -45 62.5 -87t62.5 -85z" />
<glyph unicode="&#x136;" horiz-adv-x="855" d="M409 0q-16 1 -38.5 2t-47.5 1.5t-49 1t-43 0.5q-18 0 -41 -0.5t-46.5 -1.5t-46 -1.5t-38.5 -1.5v6q28 4 49.5 9t35.5 14.5t22 25.5t9 43q1 21 1.5 64.5t0.5 93v94.5v69v51.5t-0.5 56t-1 54.5t-1.5 47q-1 27 -9 43t-22.5 25.5t-36 14.5t-49.5 9v6q16 0 39 -0.5t47.5 -2 t47.5 -2.5t40 -1q20 0 43 0.5t46 1.5t43.5 2t35.5 2v-7q-31 -3 -52 -8.5t-34 -15.5t-19.5 -26t-7.5 -40q-1 -17 -1.5 -41t-0.5 -56l-2 -179l2 -147v-65t2 -50q2 -21 8 -35.5t19.5 -24t36.5 -15.5t59 -9v-7zM883 -15q-63 -6 -115.5 2t-97 26.5t-81.5 45t-67 58.5 q-19 19 -47 54t-59 74.5t-60 78t-49 64.5q8 9 25.5 27t39 40.5t45.5 47.5t46 47t39 39.5t25 25.5q11 11 25 27t19 32t-5 28t-47 15v9l162 -5l114 5v-9q-5 0 -14 -0.5t-19 -2t-20 -3.5t-17 -5q-23 -9 -55.5 -30t-64.5 -52q-11 -11 -39 -37t-59 -55.5t-59.5 -57t-40.5 -40.5 q18 -24 44.5 -60t55.5 -74.5t57.5 -74t50.5 -58.5q30 -31 62 -62t66 -55.5t68.5 -39.5t69.5 -15zM521 -113q0 -22 -12 -45.5t-29.5 -44.5t-37.5 -39t-36 -28l-9 13q16 13 24.5 22t14.5 25q6 15 6.5 25t-2.5 18t-8 15.5l-11 16.5q-8 12 -8 28.5t7 30.5t20.5 22t33.5 5 q25 -5 36 -24t11 -40z" />
<glyph unicode="&#x137;" horiz-adv-x="855" d="M1057 -147q47 0 87.5 10t83.5 30l6 -7q-23 -21 -57 -37t-71.5 -26.5t-74.5 -15.5t-67 -5q-73 0 -139 28t-127 74.5t-115.5 107t-103.5 126t-92.5 130.5t-81.5 121q8 9 25.5 27t39.5 40.5t46.5 47l46.5 46.5l39.5 39.5l25.5 25.5q11 11 25 27t19 32t-5 28t-47 15v9l162 -5 l114 5v-9q-5 0 -14 -0.5t-19 -2t-20 -3.5t-17 -5q-23 -9 -55.5 -30t-64.5 -52q-11 -11 -39 -37t-59 -55.5t-59.5 -57t-40.5 -40.5q34 -51 76.5 -114t92 -127.5t105.5 -125.5t116.5 -108.5t125.5 -76.5t133 -29zM409 0q-16 1 -38.5 2t-47.5 1.5t-49 1t-43 0.5q-18 0 -41 -0.5 t-46.5 -1.5t-46 -1.5t-38.5 -1.5v6q28 4 49.5 9t36 14.5t22 25.5t8.5 43q1 21 1 64.5v93v94.5v69v51.5v56v54.5t-1 47q-1 27 -9 43t-22.5 25.5t-36.5 14.5t-50 9v6q16 0 39 -0.5t47.5 -2t47.5 -2.5t40 -1q20 0 43 0.5t46 1.5t43.5 2t35.5 2v-7q-31 -3 -52 -8.5t-34 -15.5 t-19.5 -26t-7.5 -40q-1 -17 -1.5 -41t-0.5 -56l-1 -179l1 -147q0 -32 -0.5 -65t1.5 -50q2 -21 8 -35.5t20 -24t37 -15.5t59 -9v-7zM521 -113q0 -22 -12 -45.5t-29.5 -44.5t-37.5 -39t-36 -28l-9 13q16 13 24.5 22t14.5 25q6 15 6.5 25t-2.5 18t-8 15.5l-11 16.5 q-8 12 -8 28.5t7 30.5t20.5 22t33.5 5q25 -5 36 -24t11 -40z" />
<glyph unicode="&#x138;" horiz-adv-x="855" d="M1057 -147q47 0 87.5 10t83.5 30l6 -7q-23 -21 -57 -37t-71.5 -26.5t-74.5 -15.5t-67 -5q-73 0 -139 28t-127 74.5t-115.5 107t-103.5 126t-92.5 130.5t-81.5 121q8 9 25.5 27t39.5 40.5t46.5 47l46.5 46.5l39.5 39.5l25.5 25.5q11 11 25 27t19 32t-5 28t-47 15v9l162 -5 l114 5v-9q-5 0 -14 -0.5t-19 -2t-20 -3.5t-17 -5q-23 -9 -55.5 -30t-64.5 -52q-11 -11 -39 -37t-59 -55.5t-59.5 -57t-40.5 -40.5q34 -51 76.5 -114t92 -127.5t105.5 -125.5t116.5 -108.5t125.5 -76.5t133 -29zM409 0q-16 1 -38.5 2t-47.5 1.5t-49 1t-43 0.5q-18 0 -41 -0.5 t-46.5 -1.5t-46 -1.5t-38.5 -1.5v6q28 4 49.5 9t36 14.5t22 25.5t8.5 43q1 21 1 64.5v93v94.5v69v51.5v56t-0.5 54.5t-1.5 47q-1 27 -9 43t-22.5 25.5t-36 14.5t-49.5 9v6q16 0 39 -0.5t47.5 -2t47.5 -2.5t40 -1q20 0 43 0.5t46 1.5t43.5 2t35.5 2v-7q-31 -3 -52 -8.5 t-34 -15.5t-19.5 -26t-7.5 -40q-1 -17 -1.5 -41t-0.5 -56l-1 -179l1 -147v-65t2 -50q2 -21 8 -35.5t19.5 -24t36.5 -15.5t59 -9v-7z" />
<glyph unicode="&#x139;" horiz-adv-x="667" d="M499 49q26 2 45.5 7.5t35.5 18t29 35.5t26 59l8 -4l-27 -129q-3 -14 -11.5 -25.5t-37.5 -10.5q-63 2 -124.5 4t-126.5 2q-66 0 -130 -2t-130 -4v8q30 4 52.5 9t37.5 14.5t23 25.5t9 43q1 21 1 64.5v92v93.5v69v51.5v56t-0.5 54.5t-1.5 47q-1 27 -9 43t-22.5 25.5 t-36 14.5t-49.5 9v6q16 0 39 -0.5t47.5 -2t47.5 -2.5t40 -1q20 0 43 0.5t46 1.5t43.5 2t35.5 2v-7q-31 -3 -52 -8.5t-34 -15.5t-19.5 -26t-7.5 -40q-1 -17 -1.5 -41t-0.5 -56l-1 -202q0 -12 0.5 -35t0.5 -50.5t0.5 -55.5t0.5 -51q0 -20 4.5 -37.5t16.5 -30.5t32 -20t50 -6 q19 0 33 0.5t26 1t23 1.5t26 2zM258 791l149 172l76 -23l-13 -44l-202 -116z" />
<glyph unicode="&#x13a;" horiz-adv-x="667" d="M499 49q26 2 45.5 7.5t35.5 18t29 35.5t26 59l8 -4l-27 -129q-3 -14 -11.5 -25.5t-37.5 -10.5q-63 2 -124.5 4t-126.5 2q-66 0 -130 -2t-130 -4v8q30 4 52.5 9t37.5 14.5t23 25.5t9 43q1 21 1 64.5v92v93.5v69v51.5v56t-0.5 54.5t-1.5 47q-1 27 -9 43t-22.5 25.5 t-36 14.5t-49.5 9v6q16 0 39 -0.5t47.5 -2t47.5 -2.5t40 -1q20 0 43 0.5t46 1.5t43.5 2t35.5 2v-7q-31 -3 -52 -8.5t-34 -15.5t-19.5 -26t-7.5 -40q-1 -17 -1.5 -41t-0.5 -56l-1 -202q0 -12 0.5 -35t0.5 -50.5t0.5 -55.5t0.5 -51q0 -20 4.5 -37.5t16.5 -30.5t32 -20t50 -6 q19 0 33 0.5t26 1t23 1.5t26 2zM258 791l149 172l76 -23l-13 -44l-202 -116z" />
<glyph unicode="&#x13b;" horiz-adv-x="667" d="M499 49q26 2 45.5 7.5t35.5 18t29 35.5t26 59l8 -4l-27 -129q-3 -14 -11.5 -25.5t-37.5 -10.5q-63 2 -124.5 4t-126.5 2q-66 0 -130 -2t-130 -4v8q30 4 52.5 9t37.5 14.5t23 25.5t9 43q1 21 1 64.5v92v93.5v69v51.5v56t-0.5 54.5t-1.5 47q-1 27 -9 43t-22.5 25.5 t-36 14.5t-49.5 9v6q16 0 39 -0.5t47.5 -2t47.5 -2.5t40 -1q20 0 43 0.5t46 1.5t43.5 2t35.5 2v-7q-31 -3 -52 -8.5t-34 -15.5t-19.5 -26t-7.5 -40q-1 -17 -1.5 -41t-0.5 -56l-1 -202q0 -12 0.5 -35t0.5 -50.5t0.5 -55.5t0.5 -51q0 -20 4.5 -37.5t16.5 -30.5t32 -20t50 -6 q19 0 33 0.5t26 1t23 1.5t26 2zM391 -113q0 -22 -12 -45.5t-29.5 -44.5t-37.5 -39t-36 -28l-9 13q16 13 24.5 22t14.5 25q6 15 6.5 25t-2.5 18t-8 15.5l-11 16.5q-8 12 -8 28.5t7 30.5t20.5 22t33.5 5q25 -5 36 -24t11 -40z" />
<glyph unicode="&#x13c;" horiz-adv-x="667" d="M499 49q26 2 45.5 7.5t35.5 18t29 35.5t26 59l8 -4l-27 -129q-3 -14 -11.5 -25.5t-37.5 -10.5q-63 2 -124.5 4t-126.5 2q-66 0 -130 -2t-130 -4v8q30 4 52.5 9t37.5 14.5t23 25.5t9 43q1 21 1 64.5v92v93.5v69v51.5v56t-0.5 54.5t-1.5 47q-1 27 -9 43t-22.5 25.5 t-36 14.5t-49.5 9v6q16 0 39 -0.5t47.5 -2t47.5 -2.5t40 -1q20 0 43 0.5t46 1.5t43.5 2t35.5 2v-7q-31 -3 -52 -8.5t-34 -15.5t-19.5 -26t-7.5 -40q-1 -17 -1.5 -41t-0.5 -56l-1 -202q0 -12 0.5 -35t0.5 -50.5t0.5 -55.5t0.5 -51q0 -20 4.5 -37.5t16.5 -30.5t32 -20t50 -6 q19 0 33 0.5t26 1t23 1.5t26 2zM391 -113q0 -22 -12 -45.5t-29.5 -44.5t-37.5 -39t-36 -28l-9 13q16 13 24.5 22t14.5 25q6 15 6.5 25t-2.5 18t-8 15.5l-11 16.5q-8 12 -8 28.5t7 30.5t20.5 22t33.5 5q25 -5 36 -24t11 -40z" />
<glyph unicode="&#x13d;" horiz-adv-x="667" d="M499 49q26 2 45.5 7.5t35.5 18t29 35.5t26 59l8 -4l-27 -129q-3 -14 -11.5 -25.5t-37.5 -10.5q-63 2 -124.5 4t-126.5 2q-66 0 -130 -2t-130 -4v8q30 4 52.5 9t37.5 14.5t23 25.5t9 43q1 21 1 64.5v92v93.5v69v51.5v56t-0.5 54.5t-1.5 47q-1 27 -9 43t-22.5 25.5 t-36 14.5t-49.5 9v6q16 0 39 -0.5t47.5 -2t47.5 -2.5t40 -1q20 0 43 0.5t46 1.5t43.5 2t35.5 2v-7q-31 -3 -52 -8.5t-34 -15.5t-19.5 -26t-7.5 -40q-1 -17 -1.5 -41t-0.5 -56l-1 -202q0 -12 0.5 -35t0.5 -50.5t0.5 -55.5t0.5 -51q0 -20 4.5 -37.5t16.5 -30.5t32 -20t50 -6 q19 0 33 0.5t26 1t23 1.5t26 2zM607 656q0 -22 -12 -45.5t-29.5 -44.5t-37.5 -39t-36 -28l-9 13q16 13 24.5 22t14.5 25q6 15 6.5 25t-2.5 18t-8 15.5l-11 16.5q-8 12 -8 28.5t7 30.5t20.5 22t33.5 5q25 -5 36 -24t11 -40z" />
<glyph unicode="&#x13e;" horiz-adv-x="667" d="M499 49q26 2 45.5 7.5t35.5 18t29 35.5t26 59l8 -4l-27 -129q-3 -14 -11.5 -25.5t-37.5 -10.5q-63 2 -124.5 4t-126.5 2q-66 0 -130 -2t-130 -4v8q30 4 52.5 9t37.5 14.5t23 25.5t9 43q1 21 1 64.5v92v93.5v69v51.5v56t-0.5 54.5t-1.5 47q-1 27 -9 43t-22.5 25.5 t-36 14.5t-49.5 9v6q16 0 39 -0.5t47.5 -2t47.5 -2.5t40 -1q20 0 43 0.5t46 1.5t43.5 2t35.5 2v-7q-31 -3 -52 -8.5t-34 -15.5t-19.5 -26t-7.5 -40q-1 -17 -1.5 -41t-0.5 -56l-1 -202q0 -12 0.5 -35t0.5 -50.5t0.5 -55.5t0.5 -51q0 -20 4.5 -37.5t16.5 -30.5t32 -20t50 -6 q19 0 33 0.5t26 1t23 1.5t26 2zM607 656q0 -22 -12 -45.5t-29.5 -44.5t-37.5 -39t-36 -28l-9 13q16 13 24.5 22t14.5 25q6 15 6.5 25t-2.5 18t-8 15.5l-11 16.5q-8 12 -8 28.5t7 30.5t20.5 22t33.5 5q25 -5 36 -24t11 -40z" />
<glyph unicode="&#x13f;" horiz-adv-x="667" d="M499 49q26 2 45.5 7.5t35.5 18t29 35.5t26 59l8 -4l-27 -129q-3 -14 -11.5 -25.5t-37.5 -10.5q-63 2 -124.5 4t-126.5 2q-66 0 -130 -2t-130 -4v8q30 4 52.5 9t37.5 14.5t23 25.5t9 43q1 21 1 64.5v92v93.5v69v51.5v56t-0.5 54.5t-1.5 47q-1 27 -9 43t-22.5 25.5 t-36 14.5t-49.5 9v6q16 0 39 -0.5t47.5 -2t47.5 -2.5t40 -1q20 0 43 0.5t46 1.5t43.5 2t35.5 2v-7q-31 -3 -52 -8.5t-34 -15.5t-19.5 -26t-7.5 -40q-1 -17 -1.5 -41t-0.5 -56l-1 -202q0 -12 0.5 -35t0.5 -50.5t0.5 -55.5t0.5 -51q0 -20 4.5 -37.5t16.5 -30.5t32 -20t50 -6 q19 0 33 0.5t26 1t23 1.5t26 2zM456 397q21 0 36.5 -15t15.5 -36q0 -22 -15 -37t-37 -15t-37 15t-15 37q0 21 15.5 36t36.5 15z" />
<glyph unicode="&#x140;" horiz-adv-x="667" d="M456 397q21 0 36.5 -15t15.5 -36q0 -22 -15 -37t-37 -15t-37 15t-15 37q0 21 15.5 36t36.5 15zM499 49q26 2 45.5 7.5t35.5 18t29 35.5t26 59l8 -4l-27 -129q-3 -14 -11.5 -25.5t-37.5 -10.5q-63 2 -124.5 4t-126.5 2q-66 0 -130 -2t-130 -4v8q30 4 52.5 9t37.5 14.5 t23 25.5t9 43q1 21 1 64.5v92v93.5v69v51.5v56t-0.5 54.5t-1.5 47q-1 27 -9 43t-22.5 25.5t-36 14.5t-49.5 9v6q16 0 39 -0.5t47.5 -2t47.5 -2.5t40 -1q20 0 43 0.5t46 1.5t43.5 2t35.5 2v-7q-31 -3 -52 -8.5t-34 -15.5t-19.5 -26t-7.5 -40q-1 -17 -1.5 -41t-0.5 -56 l-1 -202q0 -12 0.5 -35t0.5 -50.5t0.5 -55.5t0.5 -51q0 -20 4.5 -37.5t16.5 -30.5t32 -20t50 -6q19 0 33 0.5t26 1t23 1.5t26 2z" />
<glyph unicode="&#x141;" horiz-adv-x="667" d="M499 49q26 2 45.5 7.5t35.5 18t29 35.5t26 59l8 -4l-27 -129q-3 -14 -11.5 -25.5t-37.5 -10.5q-63 2 -124.5 4t-126.5 2q-66 0 -130 -2t-130 -4v8q30 4 52.5 9t37.5 14.5t23 25.5t9 43q0 13 0.5 35.5t0.5 50v58.5v61l-148 -86l-16 31l164 95v74v51.5v56t-0.5 54.5 t-1.5 47q-1 27 -9 43t-22.5 25.5t-36 14.5t-49.5 9v6q16 0 39 -0.5t47.5 -2t47.5 -2.5t40 -1q20 0 43 0.5t46 1.5t43.5 2t35.5 2v-7q-31 -3 -52 -8.5t-34 -15.5t-19.5 -26t-7.5 -40q-1 -17 -1.5 -41t-0.5 -56l-1 -125l142 82l16 -31l-158 -91v-37q0 -12 0.5 -35t0.5 -50.5 t0.5 -55.5t0.5 -51q0 -20 4.5 -37.5t16.5 -30.5t32 -20t50 -6q19 0 33 0.5t26 1t23 1.5t26 2z" />
<glyph unicode="&#x142;" horiz-adv-x="667" d="M499 49q26 2 45.5 7.5t35.5 18t29 35.5t26 59l8 -4l-27 -129q-3 -14 -11.5 -25.5t-37.5 -10.5q-63 2 -124.5 4t-126.5 2q-66 0 -130 -2t-130 -4v8q30 4 52.5 9t37.5 14.5t23 25.5t9 43q0 13 0.5 35.5t0.5 50v58.5v61l-148 -86l-16 31l164 95v74v51.5v56t-0.5 54.5 t-1.5 47q-1 27 -9 43t-22.5 25.5t-36 14.5t-49.5 9v6q16 0 39 -0.5t47.5 -2t47.5 -2.5t40 -1q20 0 43 0.5t46 1.5t43.5 2t35.5 2v-7q-31 -3 -52 -8.5t-34 -15.5t-19.5 -26t-7.5 -40q-1 -17 -1.5 -41t-0.5 -56l-1 -125l142 82l16 -31l-158 -91v-37q0 -12 0.5 -35t0.5 -50.5 t0.5 -55.5t0.5 -51q0 -20 4.5 -37.5t16.5 -30.5t32 -20t50 -6q19 0 33 0.5t26 1t23 1.5t26 2z" />
<glyph unicode="&#x143;" horiz-adv-x="945" d="M811 44q0 -8 -0.5 -18t-0.5 -19q-1 -11 -1 -21l-11 -3q-135 139 -250 260q-49 51 -99 103.5t-94 98t-78.5 81.5t-53.5 56v-11v-6v-10v-23l-1 -179l1 -147v-65t2 -50q2 -21 8 -35.5t19.5 -24t36.5 -15.5t59 -9v-7q-32 2 -72.5 3.5t-78.5 1.5q-35 0 -77.5 -1.5t-74.5 -3.5 v6q28 4 49.5 9t36 14.5t22 25.5t8.5 43q1 21 1 64.5v93v94.5v69v51.5v56t-0.5 54.5t-1.5 47q-1 27 -9 43t-22.5 25.5t-36 14.5t-49.5 9v6q27 -2 44.5 -3t31.5 -1t26.5 0.5t29.5 0.5q6 0 17 0.5t23 1t22.5 1t16.5 0.5q138 -150 247 -269q46 -51 91 -99.5t80.5 -87t57.5 -63 t24 -25.5h1q2 0 2 2q0 3 -0.5 28t-0.5 60.5t-0.5 75.5t-0.5 72q0 24 -0.5 51.5t-0.5 55.5v54t-1 47q-1 27 -9 43t-22.5 25.5t-36 14.5t-49.5 9v6q16 0 36 -0.5t40.5 -2t40.5 -2.5t37 -1q40 0 76 2t65 4v-7q-31 -3 -52 -8.5t-34 -15.5t-19.5 -26t-7.5 -40q-1 -17 -1.5 -41 t-0.5 -56l-1 -179zM449 791l149 172l76 -23l-13 -44l-202 -116z" />
<glyph unicode="&#x144;" horiz-adv-x="938" d="M921 719q-31 -3 -52 -8.5t-34 -15.5t-19.5 -26t-7.5 -40q-1 -17 -1.5 -41t-0.5 -56l-1 -179l-4 -329q0 -8 -0.5 -18t-0.5 -19v-21l-12 -3q-72 77 -145 163.5t-145 175.5t-143.5 176.5t-140.5 166.5q-1 -13 -1 -33v-48l-1 -211l1 -147v-65t2 -50q2 -21 8 -35.5t19.5 -24 t36.5 -15.5t59 -9v-7q-32 2 -72.5 3.5t-78.5 1.5q-35 0 -77.5 -1.5t-74.5 -3.5v6q28 4 49.5 9t36 14.5t22 25.5t8.5 43q1 21 1.5 69.5t0.5 104t-0.5 105.5t-0.5 74v55.5v71.5v71.5t-1 56.5q-43 41 -78.5 67t-68 40.5t-64 19.5t-66.5 5q-57 0 -113 -19t-109 -51l-5 4 q61 59 140 97t164 38q75 0 133.5 -27t112.5 -74t108 -112.5t120 -141.5q20 -23 45.5 -54t54 -65.5t58.5 -71t59 -71.5t55 -66t47 -55h1q2 0 2 2v30t-0.5 65t-1 80t-0.5 74v51.5v55.5t-0.5 54t-1.5 47q-1 27 -9 43t-22.5 25.5t-36 14.5t-49.5 9v6q16 0 36 -0.5t40.5 -2 t40.5 -2.5t37 -1q41 0 76.5 2t64.5 4v-7zM449 791l149 172l76 -23l-13 -44l-202 -116z" />
<glyph unicode="&#x145;" horiz-adv-x="945" d="M811 44q0 -8 -0.5 -18t-0.5 -19q-1 -11 -1 -21l-11 -3q-135 139 -250 260q-49 51 -99 103.5t-94 98t-78.5 81.5t-53.5 56v-11v-6v-10v-23l-1 -179l1 -147v-65t2 -50q2 -21 8 -35.5t19.5 -24t36.5 -15.5t59 -9v-7q-32 2 -72.5 3.5t-78.5 1.5q-35 0 -77.5 -1.5t-74.5 -3.5 v6q28 4 49.5 9t36 14.5t22 25.5t8.5 43q1 21 1 64.5v93v94.5v69v51.5v56t-0.5 54.5t-1.5 47q-1 27 -9 43t-22.5 25.5t-36 14.5t-49.5 9v6q27 -2 44.5 -3t31.5 -1t26.5 0.5t29.5 0.5q6 0 17 0.5t23 1t22.5 1t16.5 0.5q138 -150 247 -269q46 -51 91 -99.5t80.5 -87t57.5 -63 t24 -25.5h1q2 0 2 2q0 3 -0.5 28t-0.5 60.5t-0.5 75.5t-0.5 72q0 24 -0.5 51.5t-0.5 55.5v54t-1 47q-1 27 -9 43t-22.5 25.5t-36 14.5t-49.5 9v6q16 0 36 -0.5t40.5 -2t40.5 -2.5t37 -1q40 0 76 2t65 4v-7q-31 -3 -52 -8.5t-34 -15.5t-19.5 -26t-7.5 -40q-1 -17 -1.5 -41 t-0.5 -56l-1 -179zM521 -113q0 -22 -12 -45.5t-29.5 -44.5t-37.5 -39t-36 -28l-9 13q16 13 24.5 22t14.5 25q6 15 6.5 25t-2.5 18t-8 15.5l-11 16.5q-8 12 -8 28.5t7 30.5t20.5 22t33.5 5q25 -5 36 -24t11 -40z" />
<glyph unicode="&#x146;" horiz-adv-x="938" d="M921 719q-31 -3 -52 -8.5t-34 -15.5t-19.5 -26t-7.5 -40q-1 -17 -1.5 -41t-0.5 -56l-1 -179l-4 -329q0 -8 -0.5 -18t-0.5 -19v-21l-12 -3q-72 77 -145 163.5t-145 175.5t-143.5 176.5t-140.5 166.5q-1 -13 -1 -33v-48l-1 -211l1 -147v-65t2 -50q2 -21 8 -35.5t19.5 -24 t36.5 -15.5t59 -9v-7q-32 2 -72.5 3.5t-78.5 1.5q-35 0 -77.5 -1.5t-74.5 -3.5v6q28 4 49.5 9t36 14.5t22 25.5t8.5 43q1 21 1.5 69.5t0.5 104t-0.5 105.5t-0.5 74v55.5v71.5v71.5t-1 56.5q-43 41 -78.5 67t-68 40.5t-64 19.5t-66.5 5q-57 0 -113 -19t-109 -51l-5 4 q61 59 140 97t164 38q75 0 133.5 -27t112.5 -74t108 -112.5t120 -141.5q20 -23 45.5 -54t54 -65.5t58.5 -71t59 -71.5t55 -66t47 -55h1q2 0 2 2v30t-0.5 65t-1 80t-0.5 74v51.5v55.5t-0.5 54t-1.5 47q-1 27 -9 43t-22.5 25.5t-36 14.5t-49.5 9v6q16 0 36 -0.5t40.5 -2 t40.5 -2.5t37 -1q41 0 76.5 2t64.5 4v-7zM521 -113q0 -22 -12 -45.5t-29.5 -44.5t-37.5 -39t-36 -28l-9 13q16 13 24.5 22t14.5 25q6 15 6.5 25t-2.5 18t-8 15.5l-11 16.5q-8 12 -8 28.5t7 30.5t20.5 22t33.5 5q25 -5 36 -24t11 -40z" />
<glyph unicode="&#x147;" horiz-adv-x="945" d="M811 44q0 -8 -0.5 -18t-0.5 -19q-1 -11 -1 -21l-11 -3q-135 139 -250 260q-49 51 -99 103.5t-94 98t-78.5 81.5t-53.5 56v-11v-6v-10v-23l-1 -179l1 -147v-65t2 -50q2 -21 8 -35.5t19.5 -24t36.5 -15.5t59 -9v-7q-32 2 -72.5 3.5t-78.5 1.5q-35 0 -77.5 -1.5t-74.5 -3.5 v6q28 4 49.5 9t36 14.5t22 25.5t8.5 43q1 21 1 64.5v93v94.5v69v51.5v56t-0.5 54.5t-1.5 47q-1 27 -9 43t-22.5 25.5t-36 14.5t-49.5 9v6q27 -2 44.5 -3t31.5 -1t26.5 0.5t29.5 0.5q6 0 17 0.5t23 1t22.5 1t16.5 0.5q138 -150 247 -269q46 -51 91 -99.5t80.5 -87t57.5 -63 t24 -25.5h1q2 0 2 2q0 3 -0.5 28t-0.5 60.5t-0.5 75.5t-0.5 72q0 24 -0.5 51.5t-0.5 55.5v54t-1 47q-1 27 -9 43t-22.5 25.5t-36 14.5t-49.5 9v6q16 0 36 -0.5t40.5 -2t40.5 -2.5t37 -1q40 0 76 2t65 4v-7q-31 -3 -52 -8.5t-34 -15.5t-19.5 -26t-7.5 -40q-1 -17 -1.5 -41 t-0.5 -56l-1 -179zM639 953q-31 -43 -62.5 -85t-62.5 -87h-39q-30 42 -61.5 84t-63.5 87l10 11q35 -26 68 -52.5t67 -47.5q38 25 67.5 49t64.5 49z" />
<glyph unicode="&#x148;" horiz-adv-x="938" d="M921 719q-31 -3 -52 -8.5t-34 -15.5t-19.5 -26t-7.5 -40q-1 -17 -1.5 -41t-0.5 -56l-1 -179l-4 -329q0 -8 -0.5 -18t-0.5 -19v-21l-12 -3q-72 77 -145 163.5t-145 175.5t-143.5 176.5t-140.5 166.5q-1 -13 -1 -33v-48l-1 -211l1 -147v-65t2 -50q2 -21 8 -35.5t19.5 -24 t36.5 -15.5t59 -9v-7q-32 2 -72.5 3.5t-78.5 1.5q-35 0 -77.5 -1.5t-74.5 -3.5v6q28 4 49.5 9t36 14.5t22 25.5t8.5 43q1 21 1.5 69.5t0.5 104t-0.5 105.5t-0.5 74v55.5v71.5v71.5t-1 56.5q-43 41 -78.5 67t-68 40.5t-64 19.5t-66.5 5q-57 0 -113 -19t-109 -51l-5 4 q61 59 140 97t164 38q75 0 133.5 -27t112.5 -74t108 -112.5t120 -141.5q20 -23 45.5 -54t54 -65.5t58.5 -71t59 -71.5t55 -66t47 -55h1q2 0 2 2v30t-0.5 65t-1 80t-0.5 74v51.5v55.5t-0.5 54t-1.5 47q-1 27 -9 43t-22.5 25.5t-36 14.5t-49.5 9v6q16 0 36 -0.5t40.5 -2 t40.5 -2.5t37 -1q41 0 76.5 2t64.5 4v-7zM639 953q-31 -43 -62.5 -85t-62.5 -87h-39q-30 42 -61.5 84t-63.5 87l10 11q35 -26 68 -52.5t67 -47.5q38 25 67.5 49t64.5 49z" />
<glyph unicode="&#x149;" horiz-adv-x="1069" d="M1052 719q-31 -3 -52 -8.5t-34 -15.5t-19.5 -26t-7.5 -40q-1 -17 -1.5 -41t-0.5 -56l-1 -179l-4 -329q0 -8 -0.5 -18t-0.5 -19v-21l-12 -3q-72 77 -145 163.5t-145 175.5t-143.5 176.5t-140.5 166.5q-1 -13 -1 -33v-48l-1 -211l1 -147v-65t2 -50q2 -21 8 -35.5t19.5 -24 t36.5 -15.5t59 -9v-7q-32 2 -72.5 3.5t-78.5 1.5q-35 0 -77.5 -1.5t-74.5 -3.5v6q28 4 49.5 9t36 14.5t22 25.5t8.5 43q1 21 1.5 69.5t0.5 104t-0.5 105.5t-0.5 74v55.5v71.5v71.5t-1 56.5q-43 41 -78.5 67t-68 40.5t-64 19.5t-66.5 5q-57 0 -113 -19t-109 -51l-5 4 q61 59 140 97t164 38q75 0 133.5 -27t112.5 -74t108 -112.5t120 -141.5q20 -23 45.5 -54t54 -65.5t58.5 -71t59 -71.5t55 -66t47 -55h1q2 0 2 2v30t-0.5 65t-1 80t-0.5 74v51.5v55.5t-0.5 54t-1.5 47q-1 27 -9 43t-22.5 25.5t-36 14.5t-49.5 9v6q16 0 36 -0.5t40.5 -2 t40.5 -2.5t37 -1q41 0 76.5 2t64.5 4v-7zM142 637q0 -22 -12 -45.5t-29.5 -44.5t-37.5 -39t-36 -28l-9 13q16 13 24.5 22t14.5 25q6 15 6.5 25t-2.5 18t-8 15.5l-11 16.5q-8 12 -8 28.5t7 30.5t20.5 22t33.5 5q25 -5 36 -24t11 -40z" />
<glyph unicode="&#x14a;" horiz-adv-x="945" d="M755 182q2 0 2 2q0 3 -0.5 28t-0.5 60.5t-0.5 75.5t-0.5 72q0 24 -0.5 51.5t-0.5 55.5v54t-1 47q-1 27 -9 43t-22.5 25.5t-36 14.5t-49.5 9v6q16 0 36 -0.5t40.5 -2t40.5 -2.5t37 -1q40 0 76 2t65 4v-7q-31 -3 -52 -8.5t-34 -15.5t-19.5 -26t-7.5 -40q-1 -17 -1.5 -41 t-0.5 -56l-1 -179l-4 -309v-130q0 -60 -29.5 -94t-83.5 -35q-29 0 -63 10t-72 33l6 8q51 -15 88 -13q54 2 73.5 31.5t19.5 72.5l-1 114q-29 29 -74 75t-96.5 99t-105.5 108.5t-103 106t-88 90.5t-59 62v-11v-6v-10v-23l-1 -179l1 -147v-65t2 -50q2 -21 8 -35.5t19.5 -24 t36.5 -15.5t59 -9v-7q-32 2 -72.5 3.5t-78.5 1.5q-35 0 -77.5 -1.5t-74.5 -3.5v6q28 4 49.5 9t36 14.5t22 25.5t8.5 43q1 21 1 64.5v93v94.5v69v51.5v56t-0.5 54.5t-1.5 47q-1 27 -9 43t-22.5 25.5t-36 14.5t-49.5 9v6q27 -2 44.5 -3t31.5 -1t26.5 0.5t29.5 0.5q6 0 17 0.5 t23 1t22.5 1t16.5 0.5q138 -150 247 -269q46 -51 91 -99.5t80.5 -87t57.5 -63t24 -25.5h1z" />
<glyph unicode="&#x14b;" horiz-adv-x="938" d="M921 719q-31 -3 -52 -8.5t-34 -15.5t-19.5 -26t-7.5 -40q-1 -17 -1.5 -41t-0.5 -56l-1 -179q0 -43 -1 -87.5t-1.5 -86t-1 -76.5t-0.5 -59v-130q0 -60 -29.5 -94t-83.5 -35q-29 0 -63 10t-72 33l6 8q51 -15 88 -13q54 2 73.5 31.5t19.5 72.5l-1 89q-66 73 -133 153.5 t-133 162t-131 161.5t-128 152q-1 -13 -1 -33v-48l-1 -211l1 -147v-65t2 -50q2 -21 8 -35.5t19.5 -24t36.5 -15.5t59 -9v-7q-32 2 -72.5 3.5t-78.5 1.5q-35 0 -77.5 -1.5t-74.5 -3.5v6q28 4 49.5 9t36 14.5t22 25.5t8.5 43q1 21 1.5 69.5t0.5 104t-0.5 105.5t-0.5 74v54.5 v69.5v69.5t-1 55.5q-72 72 -139.5 101.5t-144.5 29.5q-27 0 -53 -3t-55 -11q-30 -8 -54.5 -19.5t-52.5 -29.5l-5 4q61 59 137.5 95.5t161.5 36.5q81 0 146.5 -30.5t122.5 -80t109.5 -113t106.5 -129.5q29 -36 70 -86.5t84.5 -104t85 -104.5t73.5 -87h1q2 0 2 2v30t-0.5 65 t-1 80t-0.5 74v51.5v55.5t-0.5 54t-1.5 47q-1 27 -9 43t-22.5 25.5t-36 14.5t-49.5 9v6q16 0 36 -0.5t40.5 -2t40.5 -2.5t37 -1q41 0 76.5 2t64.5 4v-7v0z" />
<glyph unicode="&#x14c;" horiz-adv-x="912" d="M853 373q0 -84 -30 -156t-84 -124.5t-128 -82t-161 -29.5q-90 0 -162.5 31t-123.5 83t-78.5 121t-27.5 144q0 72 26.5 140.5t77.5 122t126 86.5t172 33q85 0 157 -26t124.5 -74t82 -116t29.5 -153zM478 16q43 0 85.5 19.5t75.5 60t54 104t21 151.5q0 75 -20 140 t-56.5 113t-87.5 76t-112 28q-52 0 -96 -22.5t-76.5 -64.5t-50.5 -103t-18 -137q0 -77 20.5 -143.5t57 -116t88.5 -77.5t115 -28zM279 795l10 60h300l-10 -60h-300z" />
<glyph unicode="&#x14d;" horiz-adv-x="912" d="M853 373q0 -84 -30 -156t-84 -124.5t-128 -82t-161 -29.5q-90 0 -162.5 31t-123.5 83t-78.5 121t-27.5 144q0 72 26.5 140.5t77.5 122t126 86.5t172 33q85 0 157 -26t124.5 -74t82 -116t29.5 -153zM478 16q43 0 85.5 19.5t75.5 60t54 104t21 151.5q0 75 -20 140 t-56.5 113t-87.5 76t-112 28q-52 0 -96 -22.5t-76.5 -64.5t-50.5 -103t-18 -137q0 -77 20.5 -143.5t57 -116t88.5 -77.5t115 -28zM279 795l10 60h300l-10 -60h-300z" />
<glyph unicode="&#x14e;" horiz-adv-x="912" d="M853 373q0 -84 -30 -156t-84 -124.5t-128 -82t-161 -29.5q-90 0 -162.5 31t-123.5 83t-78.5 121t-27.5 144q0 72 26.5 140.5t77.5 122t126 86.5t172 33q85 0 157 -26t124.5 -74t82 -116t29.5 -153zM478 16q43 0 85.5 19.5t75.5 60t54 104t21 151.5q0 75 -20 140 t-56.5 113t-87.5 76t-112 28q-52 0 -96 -22.5t-76.5 -64.5t-50.5 -103t-18 -137q0 -77 20.5 -143.5t57 -116t88.5 -77.5t115 -28zM459 847q16 0 34 4.5t35.5 15.5t32 29t22.5 45h15q0 -19 -10 -46.5t-28 -53t-43.5 -43t-56.5 -17.5q-33 0 -58.5 18t-43 43.5t-27 52.5 t-9.5 46h15q8 -27 22 -45t31 -29t35 -15.5t34 -4.5z" />
<glyph unicode="&#x14f;" horiz-adv-x="912" d="M853 373q0 -84 -30 -156t-84 -124.5t-128 -82t-161 -29.5q-90 0 -162.5 31t-123.5 83t-78.5 121t-27.5 144q0 72 26.5 140.5t77.5 122t126 86.5t172 33q85 0 157 -26t124.5 -74t82 -116t29.5 -153zM478 16q43 0 85.5 19.5t75.5 60t54 104t21 151.5q0 75 -20 140 t-56.5 113t-87.5 76t-112 28q-52 0 -96 -22.5t-76.5 -64.5t-50.5 -103t-18 -137q0 -77 20.5 -143.5t57 -116t88.5 -77.5t115 -28zM459 847q16 0 34 4.5t35.5 15.5t32 29t22.5 45h15q0 -19 -10 -46.5t-28 -53t-43.5 -43t-56.5 -17.5q-33 0 -58.5 18t-43 43.5t-27 52.5 t-9.5 46h15q8 -27 22 -45t31 -29t35 -15.5t34 -4.5z" />
<glyph unicode="&#x150;" horiz-adv-x="912" d="M853 373q0 -84 -30 -156t-84 -124.5t-128 -82t-161 -29.5q-90 0 -162.5 31t-123.5 83t-78.5 121t-27.5 144q0 72 26.5 140.5t77.5 122t126 86.5t172 33q85 0 157 -26t124.5 -74t82 -116t29.5 -153zM478 16q43 0 85.5 19.5t75.5 60t54 104t21 151.5q0 75 -20 140 t-56.5 113t-87.5 76t-112 28q-52 0 -96 -22.5t-76.5 -64.5t-50.5 -103t-18 -137q0 -77 20.5 -143.5t57 -116t88.5 -77.5t115 -28zM363 797l149 172l76 -23l-13 -44l-202 -116zM523 797l149 172l76 -23l-13 -44l-202 -116z" />
<glyph unicode="&#x151;" horiz-adv-x="912" d="M853 373q0 -84 -30 -156t-84 -124.5t-128 -82t-161 -29.5q-90 0 -162.5 31t-123.5 83t-78.5 121t-27.5 144q0 72 26.5 140.5t77.5 122t126 86.5t172 33q85 0 157 -26t124.5 -74t82 -116t29.5 -153zM478 16q43 0 85.5 19.5t75.5 60t54 104t21 151.5q0 75 -20 140 t-56.5 113t-87.5 76t-112 28q-52 0 -96 -22.5t-76.5 -64.5t-50.5 -103t-18 -137q0 -77 20.5 -143.5t57 -116t88.5 -77.5t115 -28zM363 797l149 172l76 -23l-13 -44l-202 -116zM523 797l149 172l76 -23l-13 -44l-202 -116z" />
<glyph unicode="&#x152;" horiz-adv-x="1073" d="M985 25q-4 -14 -9.5 -19.5t-19.5 -5.5l-300 5l-64 -2q-32 -11 -68 -16.5t-74 -5.5q-90 0 -162.5 31t-123.5 83t-78.5 121t-27.5 144q0 72 26.5 140.5t77.5 122t126 86.5t172 33q77 0 142 -21q32 -1 60.5 -1h49.5l149 1h43.5t32 2.5t22.5 8.5t16 18l7 -5q-6 -23 -7.5 -47 t-3.5 -35q-1 -11 -2 -24.5t-1.5 -27.5t-1 -26.5t-0.5 -20.5h-9q-5 56 -34 87t-89 33l-52 1h-88v-286h39t58 1q35 0 76 1q20 0 32.5 4.5t20.5 12t13 18t10 24.5q2 0 4 -2l2 -2q-2 -10 -3.5 -22.5t-3 -25.5t-2.5 -24.5t-1 -18.5v-24.5t0.5 -26.5t0.5 -24v-17l-9 1 q-1 13 -3.5 28t-10 27.5t-22 21t-38.5 8.5l-163 3v-87l1 -137q0 -27 5 -46.5t17.5 -32.5t34.5 -18.5t57 -3.5q14 1 22 1t15 0.5t14.5 1t20.5 2.5q22 3 40.5 9.5t34 20.5t29.5 37.5t27 59.5l8 -4zM478 16q20 0 39.5 4t38.5 12q25 18 28 68q1 21 1 64.5v92v93.5v69v51.5v55 t-0.5 53.5t-1.5 47q-2 23 -6 38q-30 21 -65 32.5t-74 11.5q-52 0 -96 -22.5t-76.5 -64.5t-50.5 -103t-18 -137q0 -77 20.5 -143.5t57 -116t88.5 -77.5t115 -28z" />
<glyph unicode="&#x153;" horiz-adv-x="1073" d="M985 25q-4 -14 -9.5 -19.5t-19.5 -5.5l-300 5l-64 -2q-32 -11 -68 -16.5t-74 -5.5q-90 0 -162.5 31t-123.5 83t-78.5 121t-27.5 144q0 72 26.5 140.5t77.5 122t126 86.5t172 33q77 0 142 -21q32 -1 60.5 -1h49.5l149 1h43.5t32 2.5t22.5 8.5t16 18l7 -5q-6 -23 -7.5 -47 t-3.5 -35q-1 -11 -2 -24.5t-1.5 -27.5t-1 -26.5t-0.5 -20.5h-9q-5 56 -34 87t-89 33l-52 1h-88v-286h39t58 1q35 0 76 1q20 0 32.5 4.5t20.5 12t13 18t10 24.5q2 0 4 -2l2 -2q-2 -10 -3.5 -22.5t-3 -25.5t-2.5 -24.5t-1 -18.5v-24.5t0.5 -26.5t0.5 -24v-17l-9 1 q-1 13 -3.5 28t-10 27.5t-22 21t-38.5 8.5l-163 3v-87l1 -137q0 -27 5 -46.5t17.5 -32.5t34.5 -18.5t57 -3.5q14 1 22 1t15 0.5t14.5 1t20.5 2.5q22 3 40.5 9.5t34 20.5t29.5 37.5t27 59.5l8 -4zM478 16q20 0 39.5 4t38.5 12q25 18 28 68q1 21 1 64.5v92v93.5v69v51.5v55 t-0.5 53.5t-1.5 47q-2 23 -6 38q-30 21 -65 32.5t-74 11.5q-52 0 -96 -22.5t-76.5 -64.5t-50.5 -103t-18 -137q0 -77 20.5 -143.5t57 -116t88.5 -77.5t115 -28z" />
<glyph unicode="&#x154;" horiz-adv-x="767" d="M833 -46q-101 3 -172.5 35t-122 83t-85.5 115t-64 131q-9 -3 -22 -5t-28.5 -3.5t-31.5 -2t-29 0.5v-57v-104.5t2 -55.5q2 -21 8 -35.5t19.5 -24t36.5 -15.5t59 -9v-7q-16 1 -38.5 2t-47.5 1.5t-49 1t-43 0.5q-18 0 -41 -0.5t-46.5 -1.5t-46 -1.5t-38.5 -1.5v6 q28 4 49.5 9t35.5 14.5t22 25.5t9 43q1 20 1 62.5v90.5q0 54 0.5 101t0.5 91.5t-0.5 88.5t-2.5 94q-1 27 -8 43t-21 25.5t-35 14.5t-49 9v7q64 0 104.5 -2t65.5 -2l116 3q48 0 97.5 -8t90 -28t66.5 -55.5t26 -90.5q0 -62 -37.5 -105t-93.5 -76q10 -34 28.5 -75.5t44 -84 t56.5 -83.5t65.5 -74t72 -55t76.5 -26v-9zM510 499q0 52 -19.5 89.5t-51 61.5t-72 35.5t-82.5 11.5l-7 -10v-153l-1 -159v-41q43 1 84.5 14t74.5 34.5t53.5 51.5t20.5 65zM299 791l149 172l76 -23l-13 -44l-202 -116z" />
<glyph unicode="&#x155;" horiz-adv-x="767" d="M1174 -132q-20 -15 -49 -26t-60.5 -18t-62.5 -10.5t-55 -3.5q-74 0 -136.5 21.5t-115.5 58.5t-97 86.5t-82.5 105.5t-71.5 116t-63 117q-14 -4 -40 -6.5t-53 -0.5v-57v-104.5t2 -55.5q2 -21 8 -35.5t19.5 -24t36.5 -15.5t59 -9v-7q-16 1 -38.5 2t-47.5 1.5t-49 1t-43 0.5 q-18 0 -41 -0.5t-46.5 -1.5t-46 -1.5t-38.5 -1.5v6q28 4 49.5 9t35.5 14.5t22 25.5t9 43q1 20 1 62.5v90.5v47t-0.5 48t-0.5 42v30v51.5v55.5v54t-1 47q-1 27 -8 43t-21 25.5t-35 14.5t-49 9v7q64 0 104.5 -2t65.5 -2l116 3q44 0 93 -8t90.5 -28t69 -55.5t27.5 -90.5 q0 -31 -12 -59.5t-32.5 -52.5t-47.5 -43.5t-57 -32.5q28 -51 61 -108t72 -113t84.5 -107t98 -90t112 -62t127.5 -23q34 0 66.5 7t64.5 18zM520 499q0 52 -19.5 89.5t-51 61.5t-72 35.5t-82.5 11.5l-7 -10v-153l-1 -159v-41q43 1 84.5 14t74.5 34.5t53.5 51.5t20.5 65z M299 791l149 172l76 -23l-13 -44l-202 -116z" />
<glyph unicode="&#x156;" horiz-adv-x="767" d="M833 -46q-101 3 -172.5 35t-122 83t-85.5 115t-64 131q-9 -3 -22 -5t-28.5 -3.5t-31.5 -2t-29 0.5v-57v-104.5t2 -55.5q2 -21 8 -35.5t19.5 -24t36.5 -15.5t59 -9v-7q-16 1 -38.5 2t-47.5 1.5t-49 1t-43 0.5q-18 0 -41 -0.5t-46.5 -1.5t-46 -1.5t-38.5 -1.5v6 q28 4 49.5 9t35.5 14.5t22 25.5t9 43q1 20 1 62.5v90.5q0 54 0.5 101t0.5 91.5t-0.5 88.5t-2.5 94q-1 27 -8 43t-21 25.5t-35 14.5t-49 9v7q64 0 104.5 -2t65.5 -2l116 3q48 0 97.5 -8t90 -28t66.5 -55.5t26 -90.5q0 -62 -37.5 -105t-93.5 -76q10 -34 28.5 -75.5t44 -84 t56.5 -83.5t65.5 -74t72 -55t76.5 -26v-9zM510 499q0 52 -19.5 89.5t-51 61.5t-72 35.5t-82.5 11.5l-7 -10v-153l-1 -159v-41q43 1 84.5 14t74.5 34.5t53.5 51.5t20.5 65zM521 -113q0 -22 -12 -45.5t-29.5 -44.5t-37.5 -39t-36 -28l-9 13q16 13 24.5 22t14.5 25q6 15 6.5 25 t-2.5 18t-8 15.5l-11 16.5q-8 12 -8 28.5t7 30.5t20.5 22t33.5 5q25 -5 36 -24t11 -40z" />
<glyph unicode="&#x157;" horiz-adv-x="767" d="M1174 -132q-20 -15 -49 -26t-60.5 -18t-62.5 -10.5t-55 -3.5q-74 0 -136.5 21.5t-115.5 58.5t-97 86.5t-82.5 105.5t-71.5 116t-63 117q-14 -4 -40 -6.5t-53 -0.5v-57v-104.5t2 -55.5q2 -21 8 -35.5t19.5 -24t36.5 -15.5t59 -9v-7q-16 1 -38.5 2t-47.5 1.5t-49 1t-43 0.5 q-18 0 -41 -0.5t-46.5 -1.5t-46 -1.5t-38.5 -1.5v6q28 4 49.5 9t35.5 14.5t22 25.5t9 43q1 20 1 62.5v90.5v47t-0.5 48t-0.5 42v30v51.5v55.5v54t-1 47q-1 27 -8 43t-21 25.5t-35 14.5t-49 9v7q64 0 104.5 -2t65.5 -2l116 3q44 0 93 -8t90.5 -28t69 -55.5t27.5 -90.5 q0 -31 -12 -59.5t-32.5 -52.5t-47.5 -43.5t-57 -32.5q28 -51 61 -108t72 -113t84.5 -107t98 -90t112 -62t127.5 -23q34 0 66.5 7t64.5 18zM520 499q0 52 -19.5 89.5t-51 61.5t-72 35.5t-82.5 11.5l-7 -10v-153l-1 -159v-41q43 1 84.5 14t74.5 34.5t53.5 51.5t20.5 65z M521 -113q0 -22 -12 -45.5t-29.5 -44.5t-37.5 -39t-36 -28l-9 13q16 13 24.5 22t14.5 25q6 15 6.5 25t-2.5 18t-8 15.5l-11 16.5q-8 12 -8 28.5t7 30.5t20.5 22t33.5 5q25 -5 36 -24t11 -40z" />
<glyph unicode="&#x158;" horiz-adv-x="767" d="M833 -46q-101 3 -172.5 35t-122 83t-85.5 115t-64 131q-9 -3 -22 -5t-28.5 -3.5t-31.5 -2t-29 0.5v-57v-104.5t2 -55.5q2 -21 8 -35.5t19.5 -24t36.5 -15.5t59 -9v-7q-16 1 -38.5 2t-47.5 1.5t-49 1t-43 0.5q-18 0 -41 -0.5t-46.5 -1.5t-46 -1.5t-38.5 -1.5v6 q28 4 49.5 9t35.5 14.5t22 25.5t9 43q1 20 1 62.5v90.5q0 54 0.5 101t0.5 91.5t-0.5 88.5t-2.5 94q-1 27 -8 43t-21 25.5t-35 14.5t-49 9v7q64 0 104.5 -2t65.5 -2l116 3q48 0 97.5 -8t90 -28t66.5 -55.5t26 -90.5q0 -62 -37.5 -105t-93.5 -76q10 -34 28.5 -75.5t44 -84 t56.5 -83.5t65.5 -74t72 -55t76.5 -26v-9zM510 499q0 52 -19.5 89.5t-51 61.5t-72 35.5t-82.5 11.5l-7 -10v-153l-1 -159v-41q43 1 84.5 14t74.5 34.5t53.5 51.5t20.5 65zM473 953q-31 -43 -62.5 -85t-62.5 -87h-39q-30 42 -61.5 84t-63.5 87l10 11q35 -26 68 -52.5 t67 -47.5q38 25 67.5 49t64.5 49z" />
<glyph unicode="&#x159;" horiz-adv-x="767" d="M1174 -132q-20 -15 -49 -26t-60.5 -18t-62.5 -10.5t-55 -3.5q-74 0 -136.5 21.5t-115.5 58.5t-97 86.5t-82.5 105.5t-71.5 116t-63 117q-14 -4 -40 -6.5t-53 -0.5v-57v-104.5t2 -55.5q2 -21 8 -35.5t19.5 -24t36.5 -15.5t59 -9v-7q-16 1 -38.5 2t-47.5 1.5t-49 1t-43 0.5 q-18 0 -41 -0.5t-46.5 -1.5t-46 -1.5t-38.5 -1.5v6q28 4 49.5 9t35.5 14.5t22 25.5t9 43q1 20 1 62.5v90.5v47t-0.5 48t-0.5 42v30v51.5v55.5v54t-1 47q-1 27 -8 43t-21 25.5t-35 14.5t-49 9v7q64 0 104.5 -2t65.5 -2l116 3q44 0 93 -8t90.5 -28t69 -55.5t27.5 -90.5 q0 -31 -12 -59.5t-32.5 -52.5t-47.5 -43.5t-57 -32.5q28 -51 61 -108t72 -113t84.5 -107t98 -90t112 -62t127.5 -23q34 0 66.5 7t64.5 18zM520 499q0 52 -19.5 89.5t-51 61.5t-72 35.5t-82.5 11.5l-7 -10v-153l-1 -159v-41q43 1 84.5 14t74.5 34.5t53.5 51.5t20.5 65z M487 953q-31 -43 -62.5 -85t-62.5 -87h-39q-30 42 -61.5 84t-63.5 87l10 11q35 -26 68 -52.5t67 -47.5q38 25 67.5 49t64.5 49z" />
<glyph unicode="&#x15a;" horiz-adv-x="598" d="M525 201q0 -54 -21.5 -94.5t-57 -67t-81.5 -39.5t-95 -13q-54 0 -105 20.5t-93 55.5q4 37 6 69t4 76h7q8 -94 59 -141t132 -47q30 0 55 11t43 29t27.5 41.5t9.5 49.5q0 24 -6 42.5t-19 35.5t-34 35t-50 39q-35 25 -71.5 49.5t-66 53t-48 64.5t-18.5 85q0 39 16 72.5 t45.5 58t71 39t92.5 14.5q18 0 40 -2t44.5 -6.5t43.5 -12t37 -17.5q-1 -35 1.5 -71t4.5 -71l-9 -3q-7 46 -24.5 76.5t-40.5 48.5t-48.5 25.5t-47.5 7.5q-26 0 -48.5 -10t-39 -26.5t-26 -39.5t-9.5 -48q0 -21 7 -38t21 -33t33.5 -32t45.5 -34q35 -26 72.5 -51t69 -54.5 t51.5 -65t20 -81.5zM257 791l149 172l76 -23l-13 -44l-202 -116z" />
<glyph unicode="&#x15b;" horiz-adv-x="598" d="M525 201q0 -54 -21.5 -94.5t-57 -67t-81.5 -39.5t-95 -13q-54 0 -105 20.5t-93 55.5q4 37 6 69t4 76h7q8 -94 59 -141t132 -47q30 0 55 11t43 29t27.5 41.5t9.5 49.5q0 24 -6 42.5t-19 35.5t-34 35t-50 39q-35 25 -71.5 49.5t-66 53t-48 64.5t-18.5 85q0 39 16 72.5 t45.5 58t71 39t92.5 14.5q18 0 40 -2t44.5 -6.5t43.5 -12t37 -17.5q-1 -35 1.5 -71t4.5 -71l-9 -3q-7 46 -24.5 76.5t-40.5 48.5t-48.5 25.5t-47.5 7.5q-26 0 -48.5 -10t-39 -26.5t-26 -39.5t-9.5 -48q0 -21 7 -38t21 -33t33.5 -32t45.5 -34q35 -26 72.5 -51t69 -54.5 t51.5 -65t20 -81.5zM253 791l149 172l76 -23l-13 -44l-202 -116z" />
<glyph unicode="&#x15c;" horiz-adv-x="598" d="M525 201q0 -54 -21.5 -94.5t-57 -67t-81.5 -39.5t-95 -13q-54 0 -105 20.5t-93 55.5q4 37 6 69t4 76h7q8 -94 59 -141t132 -47q30 0 55 11t43 29t27.5 41.5t9.5 49.5q0 24 -6 42.5t-19 35.5t-34 35t-50 39q-35 25 -71.5 49.5t-66 53t-48 64.5t-18.5 85q0 39 16 72.5 t45.5 58t71 39t92.5 14.5q18 0 40 -2t44.5 -6.5t43.5 -12t37 -17.5q-1 -35 1.5 -71t4.5 -71l-9 -3q-7 46 -24.5 76.5t-40.5 48.5t-48.5 25.5t-47.5 7.5q-26 0 -48.5 -10t-39 -26.5t-26 -39.5t-9.5 -48q0 -21 7 -38t21 -33t33.5 -32t45.5 -34q35 -26 72.5 -51t69 -54.5 t51.5 -65t20 -81.5zM444 782q-35 25 -64.5 49t-67.5 49q-34 -21 -67 -47.5t-68 -52.5l-10 11q32 45 63.5 87t61.5 84h39q31 -45 62.5 -87t62.5 -85z" />
<glyph unicode="&#x15d;" horiz-adv-x="598" d="M525 201q0 -54 -21.5 -94.5t-57 -67t-81.5 -39.5t-95 -13q-54 0 -105 20.5t-93 55.5q4 37 6 69t4 76h7q8 -94 59 -141t132 -47q30 0 55 11t43 29t27.5 41.5t9.5 49.5q0 24 -6 42.5t-19 35.5t-34 35t-50 39q-35 25 -71.5 49.5t-66 53t-48 64.5t-18.5 85q0 39 16 72.5 t45.5 58t71 39t92.5 14.5q18 0 40 -2t44.5 -6.5t43.5 -12t37 -17.5q-1 -35 1.5 -71t4.5 -71l-9 -3q-7 46 -24.5 76.5t-40.5 48.5t-48.5 25.5t-47.5 7.5q-26 0 -48.5 -10t-39 -26.5t-26 -39.5t-9.5 -48q0 -21 7 -38t21 -33t33.5 -32t45.5 -34q35 -26 72.5 -51t69 -54.5 t51.5 -65t20 -81.5zM449 782q-35 25 -64.5 49t-67.5 49q-34 -21 -67 -47.5t-68 -52.5l-10 11q32 45 63.5 87t61.5 84h39q31 -45 62.5 -87t62.5 -85z" />
<glyph unicode="&#x15e;" horiz-adv-x="598" d="M525 201q0 -51 -19.5 -90t-51.5 -65.5t-74 -40.5t-88 -17v-38q5 1 11 1.5t12 0.5q17 0 32 -6t26 -16.5t17.5 -25t6.5 -30.5q0 -34 -28.5 -58.5t-73.5 -24.5q-32 0 -56 9.5t-50 24.5l8 17q15 -10 40.5 -18.5t51.5 -8.5q15 0 24.5 5t15.5 12.5t8 16.5t2 16q0 25 -24 36 t-53 6l-1 80q-52 2 -100.5 22t-88.5 54q4 37 6 69t4 76h7q8 -94 59 -141t132 -47q30 0 55 11t43 29t27.5 41.5t9.5 49.5q0 24 -6 42.5t-19 35.5t-34 35t-50 39q-35 25 -71.5 49.5t-66 53t-48 64.5t-18.5 85q0 39 16 72.5t45.5 58t71 39t92.5 14.5q18 0 40 -2t44.5 -6.5 t43.5 -12t37 -17.5q-1 -35 1.5 -71t4.5 -71l-9 -3q-7 46 -24.5 76.5t-40.5 48.5t-48.5 25.5t-47.5 7.5q-26 0 -48.5 -10t-39 -26.5t-26 -39.5t-9.5 -48q0 -21 7 -38t21 -33t33.5 -32t45.5 -34q35 -26 72.5 -51t69 -54.5t51.5 -65t20 -81.5z" />
<glyph unicode="&#x15f;" horiz-adv-x="598" d="M525 201q0 -51 -19.5 -90t-51.5 -65.5t-74 -40.5t-88 -17v-38q5 1 11 1.5t12 0.5q17 0 32 -6t26 -16.5t17.5 -25t6.5 -30.5q0 -34 -28.5 -58.5t-73.5 -24.5q-32 0 -56 9.5t-50 24.5l8 17q15 -10 40.5 -18.5t51.5 -8.5q15 0 24.5 5t15.5 12.5t8 16.5t2 16q0 25 -24 36 t-53 6l-1 80q-52 2 -100.5 22t-88.5 54q4 37 6 69t4 76h7q8 -94 59 -141t132 -47q30 0 55 11t43 29t27.5 41.5t9.5 49.5q0 24 -6 42.5t-19 35.5t-34 35t-50 39q-35 25 -71.5 49.5t-66 53t-48 64.5t-18.5 85q0 39 16 72.5t45.5 58t71 39t92.5 14.5q18 0 40 -2t44.5 -6.5 t43.5 -12t37 -17.5q-1 -35 1.5 -71t4.5 -71l-9 -3q-7 46 -24.5 76.5t-40.5 48.5t-48.5 25.5t-47.5 7.5q-26 0 -48.5 -10t-39 -26.5t-26 -39.5t-9.5 -48q0 -21 7 -38t21 -33t33.5 -32t45.5 -34q35 -26 72.5 -51t69 -54.5t51.5 -65t20 -81.5z" />
<glyph unicode="&#x160;" horiz-adv-x="598" d="M525 201q0 -54 -21.5 -94.5t-57 -67t-81.5 -39.5t-95 -13q-54 0 -105 20.5t-93 55.5q4 37 6 69t4 76h7q8 -94 59 -141t132 -47q30 0 55 11t43 29t27.5 41.5t9.5 49.5q0 24 -6 42.5t-19 35.5t-34 35t-50 39q-35 25 -71.5 49.5t-66 53t-48 64.5t-18.5 85q0 39 16 72.5 t45.5 58t71 39t92.5 14.5q18 0 40 -2t44.5 -6.5t43.5 -12t37 -17.5q-1 -35 1.5 -71t4.5 -71l-9 -3q-7 46 -24.5 76.5t-40.5 48.5t-48.5 25.5t-47.5 7.5q-26 0 -48.5 -10t-39 -26.5t-26 -39.5t-9.5 -48q0 -21 7 -38t21 -33t33.5 -32t45.5 -34q35 -26 72.5 -51t69 -54.5 t51.5 -65t20 -81.5zM490 953q-31 -43 -62.5 -85t-62.5 -87h-39q-30 42 -61.5 84t-63.5 87l10 11q35 -26 68 -52.5t67 -47.5q38 25 67.5 49t64.5 49z" />
<glyph unicode="&#x161;" horiz-adv-x="598" d="M525 201q0 -54 -21.5 -94.5t-57 -67t-81.5 -39.5t-95 -13q-54 0 -105 20.5t-93 55.5q4 37 6 69t4 76h7q8 -94 59 -141t132 -47q30 0 55 11t43 29t27.5 41.5t9.5 49.5q0 24 -6 42.5t-19 35.5t-34 35t-50 39q-35 25 -71.5 49.5t-66 53t-48 64.5t-18.5 85q0 39 16 72.5 t45.5 58t71 39t92.5 14.5q18 0 40 -2t44.5 -6.5t43.5 -12t37 -17.5q-1 -35 1.5 -71t4.5 -71l-9 -3q-7 46 -24.5 76.5t-40.5 48.5t-48.5 25.5t-47.5 7.5q-26 0 -48.5 -10t-39 -26.5t-26 -39.5t-9.5 -48q0 -21 7 -38t21 -33t33.5 -32t45.5 -34q35 -26 72.5 -51t69 -54.5 t51.5 -65t20 -81.5zM478 953q-31 -43 -62.5 -85t-62.5 -87h-39q-30 42 -61.5 84t-63.5 87l10 11q35 -26 68 -52.5t67 -47.5q38 25 67.5 49t64.5 49z" />
<glyph unicode="&#x162;" horiz-adv-x="713" d="M681 574l-8 2q4 60 -21.5 81.5t-82.5 22.5l-163 2l-1 -431v-45v-65t2 -50q2 -21 8 -35.5t19.5 -24t36.5 -15.5t59 -9v-7q-16 1 -38.5 2t-47.5 1.5t-49 1t-43 0.5q-18 0 -41 -0.5t-46.5 -1.5t-46 -1.5t-38.5 -1.5v6q28 4 49.5 9t36 14.5t22 25.5t8.5 43q1 20 1.5 62.5 t0.5 90.5v256q0 29 -0.5 60t-0.5 57v58l-162 -2q-30 0 -48.5 -5t-31.5 -16.5t-24 -29.5t-26 -44l-7 5q0 3 6 29.5t14 58.5q9 36 21 82l6 6q8 -15 22 -23t29.5 -12.5t32 -6t28.5 -1.5l199 -5l229 5q35 1 56 3.5t34 7.5t19 11.5t11 15.5l8 -4zM411 -113q0 -22 -12 -45.5 t-29.5 -44.5t-37.5 -39t-36 -28l-9 13q16 13 24.5 22t14.5 25q6 15 6.5 25t-2.5 18t-8 15.5l-11 16.5q-8 12 -8 28.5t7 30.5t20.5 22t33.5 5q25 -5 36 -24t11 -40z" />
<glyph unicode="&#x163;" horiz-adv-x="713" d="M681 574l-8 2q4 60 -21.5 81.5t-82.5 22.5l-163 2l-1 -431v-45v-65t2 -50q2 -21 8 -35.5t19.5 -24t36.5 -15.5t59 -9v-7q-16 1 -38.5 2t-47.5 1.5t-49 1t-43 0.5q-18 0 -41 -0.5t-46.5 -1.5t-46 -1.5t-38.5 -1.5v6q28 4 49.5 9t36 14.5t22 25.5t8.5 43q1 20 1.5 62.5 t0.5 90.5v256q0 29 -0.5 60t-0.5 57v58l-162 -2q-30 0 -48.5 -5t-31.5 -16.5t-24 -29.5t-26 -44l-7 5q0 3 6 29.5t14 58.5q9 36 21 82l6 6q8 -15 22 -23t29.5 -12.5t32 -6t28.5 -1.5l199 -5l229 5q35 1 56 3.5t34 7.5t19 11.5t11 15.5l8 -4zM411 -113q0 -22 -12 -45.5 t-29.5 -44.5t-37.5 -39t-36 -28l-9 13q16 13 24.5 22t14.5 25q6 15 6.5 25t-2.5 18t-8 15.5l-11 16.5q-8 12 -8 28.5t7 30.5t20.5 22t33.5 5q25 -5 36 -24t11 -40z" />
<glyph unicode="&#x164;" horiz-adv-x="713" d="M681 574l-8 2q4 60 -21.5 81.5t-82.5 22.5l-163 2l-1 -431v-45v-65t2 -50q2 -21 8 -35.5t19.5 -24t36.5 -15.5t59 -9v-7q-16 1 -38.5 2t-47.5 1.5t-49 1t-43 0.5q-18 0 -41 -0.5t-46.5 -1.5t-46 -1.5t-38.5 -1.5v6q28 4 49.5 9t36 14.5t22 25.5t8.5 43q1 20 1.5 62.5 t0.5 90.5v256q0 29 -0.5 60t-0.5 57v58l-162 -2q-30 0 -48.5 -5t-31.5 -16.5t-24 -29.5t-26 -44l-7 5q0 3 6 29.5t14 58.5q9 36 21 82l6 6q8 -15 22 -23t29.5 -12.5t32 -6t28.5 -1.5l199 -5l229 5q35 1 56 3.5t34 7.5t19 11.5t11 15.5l8 -4zM493 953q-31 -43 -62.5 -85 t-62.5 -87h-39q-30 42 -61.5 84t-63.5 87l10 11q35 -26 68 -52.5t67 -47.5q38 25 67.5 49t64.5 49z" />
<glyph unicode="&#x165;" horiz-adv-x="713" d="M681 574l-8 2q4 60 -21.5 81.5t-82.5 22.5l-163 2l-1 -431v-45v-65t2 -50q2 -21 8 -35.5t19.5 -24t36.5 -15.5t59 -9v-7q-16 1 -38.5 2t-47.5 1.5t-49 1t-43 0.5q-18 0 -41 -0.5t-46.5 -1.5t-46 -1.5t-38.5 -1.5v6q28 4 49.5 9t36 14.5t22 25.5t8.5 43q1 20 1.5 62.5 t0.5 90.5v256q0 29 -0.5 60t-0.5 57v58l-162 -2q-30 0 -48.5 -5t-31.5 -16.5t-24 -29.5t-26 -44l-7 5q0 3 6 29.5t14 58.5q9 36 21 82l6 6q8 -15 22 -23t29.5 -12.5t32 -6t28.5 -1.5l199 -5l229 5q35 1 56 3.5t34 7.5t19 11.5t11 15.5l8 -4zM493 953q-31 -43 -62.5 -85 t-62.5 -87h-39q-30 42 -61.5 84t-63.5 87l10 11q35 -26 68 -52.5t67 -47.5q38 25 67.5 49t64.5 49z" />
<glyph unicode="&#x166;" horiz-adv-x="713" d="M681 574l-8 2q4 60 -21.5 81.5t-82.5 22.5l-163 2q-1 -38 -1 -78v-165q43 0 77.5 0.5t62 1t51 2t46.5 3.5l-6 -35q-31 3 -58 4.5t-54 1.5h-55.5h-63.5v-166v-45v-65t2 -50q2 -21 8 -35.5t19.5 -24t36.5 -15.5t59 -9v-7q-16 1 -38.5 2t-47.5 1.5t-49 1t-43 0.5 q-18 0 -41 -0.5t-46.5 -1.5t-46 -1.5t-38.5 -1.5v6q28 4 49.5 9t36 14.5t22 25.5t8.5 43q1 20 1.5 62.5t0.5 90.5v166q-69 0 -125 -0.5t-113 -5.5l9 31q50 -6 106 -4.5t123 1.5v68q0 29 -0.5 60t-0.5 57v58l-162 -2q-30 0 -48.5 -5t-31.5 -16.5t-24 -29.5t-26 -44l-7 5 q0 3 6 29.5t14 58.5q9 36 21 82l6 6q8 -15 22 -23t29.5 -12.5t32 -6t28.5 -1.5l199 -5l229 5q35 1 56 3.5t34 7.5t19 11.5t11 15.5l8 -4z" />
<glyph unicode="&#x167;" horiz-adv-x="713" d="M681 574l-8 2q4 60 -21.5 81.5t-82.5 22.5l-163 2q-1 -38 -1 -78v-165q43 0 77.5 0.5t62 1t51 2t46.5 3.5l-6 -35q-31 3 -58 4.5t-54 1.5h-55.5h-63.5v-166v-45v-65t2 -50q2 -21 8 -35.5t19.5 -24t36.5 -15.5t59 -9v-7q-16 1 -38.5 2t-47.5 1.5t-49 1t-43 0.5 q-18 0 -41 -0.5t-46.5 -1.5t-46 -1.5t-38.5 -1.5v6q28 4 49.5 9t36 14.5t22 25.5t8.5 43q1 20 1.5 62.5t0.5 90.5v166q-69 0 -125 -0.5t-113 -5.5l9 31q50 -6 106 -4.5t123 1.5v68q0 29 -0.5 60t-0.5 57v58l-162 -2q-30 0 -48.5 -5t-31.5 -16.5t-24 -29.5t-26 -44l-7 5 q0 3 6 29.5t14 58.5q9 36 21 82l6 6q8 -15 22 -23t29.5 -12.5t32 -6t28.5 -1.5l199 -5l229 5q35 1 56 3.5t34 7.5t19 11.5t11 15.5l8 -4z" />
<glyph unicode="&#x168;" horiz-adv-x="884" d="M748 336q0 -4 0.5 -9t0.5 -9q0 -40 -4 -79t-15.5 -74.5t-30.5 -66t-49 -54.5q-44 -35 -93 -48t-103 -13q-30 0 -61 3t-60.5 11t-56.5 21.5t-49 33.5q-68 59 -75 174q-2 19 -2.5 43.5t-1 51t-0.5 52v46.5v51.5v55.5v54t-1 47q-1 27 -9 43t-22.5 25.5t-36 14.5t-49.5 9v6 q16 0 39 -0.5t47.5 -2t47.5 -2.5t40 -1q20 0 43 0.5t46 1.5t43.5 2t35.5 2v-7q-31 -3 -52 -8.5t-34 -15.5t-19.5 -26t-7.5 -40q-1 -17 -1.5 -41t-0.5 -56l2 -216q0 -42 5.5 -81.5t17.5 -73t31 -60.5t47 -44q30 -19 62.5 -26.5t66.5 -7.5q40 0 77 15.5t62 41.5 q18 19 30.5 45.5t20 58t10.5 66t3 69.5l-2 176q-1 36 -1.5 72t-1.5 62q-1 27 -9 43t-22.5 25.5t-36 14.5t-49.5 9v6q32 1 72.5 -2.5t74.5 -3.5q40 0 79 2t68 4v-7q-31 -3 -52 -8.5t-34 -15.5t-19.5 -26t-7.5 -40q-1 -17 -1.5 -41t-0.5 -56v-72q0 -13 -0.5 -29.5t-0.5 -33 v-30.5v-22v-9zM607 900q-2 -28 -11 -47t-21 -31q-23 -23 -50 -22.5t-49 7.5q-12 3 -29 11t-34.5 14.5t-34 8t-27.5 -9.5q-6 -6 -9.5 -17t-5.5 -20h-21q2 17 9 39t24 39q23 23 56 21.5t62 -14.5q12 -6 26 -12t28 -9.5t27 -2.5t24 10q5 5 9.5 14.5t6.5 20.5h20z" />
<glyph unicode="&#x169;" horiz-adv-x="884" d="M748 336q0 -4 0.5 -9t0.5 -9q0 -40 -4 -79t-15.5 -74.5t-30.5 -66t-49 -54.5q-44 -35 -93 -48t-103 -13q-30 0 -61 3t-60.5 11t-56.5 21.5t-49 33.5q-68 59 -75 174q-2 19 -2.5 43.5t-1 51t-0.5 52v46.5v51.5v55.5v54t-1 47q-1 27 -9 43t-22.5 25.5t-36 14.5t-49.5 9v6 q16 0 39 -0.5t47.5 -2t47.5 -2.5t40 -1q20 0 43 0.5t46 1.5t43.5 2t35.5 2v-7q-31 -3 -52 -8.5t-34 -15.5t-19.5 -26t-7.5 -40q-1 -17 -1.5 -41t-0.5 -56l2 -216q0 -42 5.5 -81.5t17.5 -73t31 -60.5t47 -44q30 -19 62.5 -26.5t66.5 -7.5q40 0 77 15.5t62 41.5 q18 19 30.5 45.5t20 58t10.5 66t3 69.5l-2 176q-1 36 -1.5 72t-1.5 62q-1 27 -9 43t-22.5 25.5t-36 14.5t-49.5 9v6q32 1 72.5 -2.5t74.5 -3.5q40 0 79 2t68 4v-7q-31 -3 -52 -8.5t-34 -15.5t-19.5 -26t-7.5 -40q-1 -17 -1.5 -41t-0.5 -56v-72q0 -13 -0.5 -29.5t-0.5 -33 v-30.5v-22v-9zM607 900q-2 -28 -11 -47t-21 -31q-23 -23 -50 -22.5t-49 7.5q-12 3 -29 11t-34.5 14.5t-34 8t-27.5 -9.5q-6 -6 -9.5 -17t-5.5 -20h-21q2 17 9 39t24 39q23 23 56 21.5t62 -14.5q12 -6 26 -12t28 -9.5t27 -2.5t24 10q5 5 9.5 14.5t6.5 20.5h20z" />
<glyph unicode="&#x16a;" horiz-adv-x="884" d="M748 336q0 -4 0.5 -9t0.5 -9q0 -40 -4 -79t-15.5 -74.5t-30.5 -66t-49 -54.5q-44 -35 -93 -48t-103 -13q-30 0 -61 3t-60.5 11t-56.5 21.5t-49 33.5q-68 59 -75 174q-2 19 -2.5 43.5t-1 51t-0.5 52v46.5v51.5v55.5v54t-1 47q-1 27 -9 43t-22.5 25.5t-36 14.5t-49.5 9v6 q16 0 39 -0.5t47.5 -2t47.5 -2.5t40 -1q20 0 43 0.5t46 1.5t43.5 2t35.5 2v-7q-31 -3 -52 -8.5t-34 -15.5t-19.5 -26t-7.5 -40q-1 -17 -1.5 -41t-0.5 -56l2 -216q0 -42 5.5 -81.5t17.5 -73t31 -60.5t47 -44q30 -19 62.5 -26.5t66.5 -7.5q40 0 77 15.5t62 41.5 q18 19 30.5 45.5t20 58t10.5 66t3 69.5l-2 176q-1 36 -1.5 72t-1.5 62q-1 27 -9 43t-22.5 25.5t-36 14.5t-49.5 9v6q32 1 72.5 -2.5t74.5 -3.5q40 0 79 2t68 4v-7q-31 -3 -52 -8.5t-34 -15.5t-19.5 -26t-7.5 -40q-1 -17 -1.5 -41t-0.5 -56v-72q0 -13 -0.5 -29.5t-0.5 -33 v-30.5v-22v-9zM306 795l10 60h300l-10 -60h-300z" />
<glyph unicode="&#x16b;" horiz-adv-x="884" d="M748 336q0 -4 0.5 -9t0.5 -9q0 -40 -4 -79t-15.5 -74.5t-30.5 -66t-49 -54.5q-44 -35 -93 -48t-103 -13q-30 0 -61 3t-60.5 11t-56.5 21.5t-49 33.5q-68 59 -75 174q-2 19 -2.5 43.5t-1 51t-0.5 52v46.5v51.5v55.5v54t-1 47q-1 27 -9 43t-22.5 25.5t-36 14.5t-49.5 9v6 q16 0 39 -0.5t47.5 -2t47.5 -2.5t40 -1q20 0 43 0.5t46 1.5t43.5 2t35.5 2v-7q-31 -3 -52 -8.5t-34 -15.5t-19.5 -26t-7.5 -40q-1 -17 -1.5 -41t-0.5 -56l2 -216q0 -42 5.5 -81.5t17.5 -73t31 -60.5t47 -44q30 -19 62.5 -26.5t66.5 -7.5q40 0 77 15.5t62 41.5 q18 19 30.5 45.5t20 58t10.5 66t3 69.5l-2 176q-1 36 -1.5 72t-1.5 62q-1 27 -9 43t-22.5 25.5t-36 14.5t-49.5 9v6q32 1 72.5 -2.5t74.5 -3.5q40 0 79 2t68 4v-7q-31 -3 -52 -8.5t-34 -15.5t-19.5 -26t-7.5 -40q-1 -17 -1.5 -41t-0.5 -56v-72q0 -13 -0.5 -29.5t-0.5 -33 v-30.5v-22v-9zM306 795l10 60h300l-10 -60h-300z" />
<glyph unicode="&#x16c;" horiz-adv-x="884" d="M748 336q0 -4 0.5 -9t0.5 -9q0 -40 -4 -79t-15.5 -74.5t-30.5 -66t-49 -54.5q-44 -35 -93 -48t-103 -13q-30 0 -61 3t-60.5 11t-56.5 21.5t-49 33.5q-68 59 -75 174q-2 19 -2.5 43.5t-1 51t-0.5 52v46.5v51.5v55.5v54t-1 47q-1 27 -9 43t-22.5 25.5t-36 14.5t-49.5 9v6 q16 0 39 -0.5t47.5 -2t47.5 -2.5t40 -1q20 0 43 0.5t46 1.5t43.5 2t35.5 2v-7q-31 -3 -52 -8.5t-34 -15.5t-19.5 -26t-7.5 -40q-1 -17 -1.5 -41t-0.5 -56l2 -216q0 -42 5.5 -81.5t17.5 -73t31 -60.5t47 -44q30 -19 62.5 -26.5t66.5 -7.5q40 0 77 15.5t62 41.5 q18 19 30.5 45.5t20 58t10.5 66t3 69.5l-2 176q-1 36 -1.5 72t-1.5 62q-1 27 -9 43t-22.5 25.5t-36 14.5t-49.5 9v6q32 1 72.5 -2.5t74.5 -3.5q40 0 79 2t68 4v-7q-31 -3 -52 -8.5t-34 -15.5t-19.5 -26t-7.5 -40q-1 -17 -1.5 -41t-0.5 -56v-72q0 -13 -0.5 -29.5t-0.5 -33 v-30.5v-22v-9zM468 847q16 0 34 4.5t35.5 15.5t32 29t22.5 45h15q0 -19 -10 -46.5t-28 -53t-43.5 -43t-56.5 -17.5q-33 0 -58.5 18t-43 43.5t-27 52.5t-9.5 46h15q8 -27 22 -45t31 -29t35 -15.5t34 -4.5z" />
<glyph unicode="&#x16d;" horiz-adv-x="884" d="M748 336q0 -4 0.5 -9t0.5 -9q0 -40 -4 -79t-15.5 -74.5t-30.5 -66t-49 -54.5q-44 -35 -93 -48t-103 -13q-30 0 -61 3t-60.5 11t-56.5 21.5t-49 33.5q-68 59 -75 174q-2 19 -2.5 43.5t-1 51t-0.5 52v46.5v51.5v55.5v54t-1 47q-1 27 -9 43t-22.5 25.5t-36 14.5t-49.5 9v6 q16 0 39 -0.5t47.5 -2t47.5 -2.5t40 -1q20 0 43 0.5t46 1.5t43.5 2t35.5 2v-7q-31 -3 -52 -8.5t-34 -15.5t-19.5 -26t-7.5 -40q-1 -17 -1.5 -41t-0.5 -56l2 -216q0 -42 5.5 -81.5t17.5 -73t31 -60.5t47 -44q30 -19 62.5 -26.5t66.5 -7.5q40 0 77 15.5t62 41.5 q18 19 30.5 45.5t20 58t10.5 66t3 69.5l-2 176q-1 36 -1.5 72t-1.5 62q-1 27 -9 43t-22.5 25.5t-36 14.5t-49.5 9v6q32 1 72.5 -2.5t74.5 -3.5q40 0 79 2t68 4v-7q-31 -3 -52 -8.5t-34 -15.5t-19.5 -26t-7.5 -40q-1 -17 -1.5 -41t-0.5 -56v-72q0 -13 -0.5 -29.5t-0.5 -33 v-30.5v-22v-9zM468 847q16 0 34 4.5t35.5 15.5t32 29t22.5 45h15q0 -19 -10 -46.5t-28 -53t-43.5 -43t-56.5 -17.5q-33 0 -58.5 18t-43 43.5t-27 52.5t-9.5 46h15q8 -27 22 -45t31 -29t35 -15.5t34 -4.5z" />
<glyph unicode="&#x16e;" horiz-adv-x="884" d="M748 336q0 -4 0.5 -9t0.5 -9q0 -40 -4 -79t-15.5 -74.5t-30.5 -66t-49 -54.5q-44 -35 -93 -48t-103 -13q-30 0 -61 3t-60.5 11t-56.5 21.5t-49 33.5q-68 59 -75 174q-2 19 -2.5 43.5t-1 51t-0.5 52v46.5v51.5v55.5v54t-1 47q-1 27 -9 43t-22.5 25.5t-36 14.5t-49.5 9v6 q16 0 39 -0.5t47.5 -2t47.5 -2.5t40 -1q20 0 43 0.5t46 1.5t43.5 2t35.5 2v-7q-31 -3 -52 -8.5t-34 -15.5t-19.5 -26t-7.5 -40q-1 -17 -1.5 -41t-0.5 -56l2 -216q0 -42 5.5 -81.5t17.5 -73t31 -60.5t47 -44q30 -19 62.5 -26.5t66.5 -7.5q40 0 77 15.5t62 41.5 q18 19 30.5 45.5t20 58t10.5 66t3 69.5l-2 176q-1 36 -1.5 72t-1.5 62q-1 27 -9 43t-22.5 25.5t-36 14.5t-49.5 9v6q32 1 72.5 -2.5t74.5 -3.5q40 0 79 2t68 4v-7q-31 -3 -52 -8.5t-34 -15.5t-19.5 -26t-7.5 -40q-1 -17 -1.5 -41t-0.5 -56v-72q0 -13 -0.5 -29.5t-0.5 -33 v-30.5v-22v-9zM561 875q0 -21 -7.5 -38.5t-20.5 -31t-30.5 -21t-36.5 -7.5q-20 0 -37 7.5t-30 21t-21 31t-8 38.5q0 19 7.5 36.5t21 30.5t30.5 20.5t37 7.5q19 0 36.5 -7.5t30.5 -20t20.5 -30t7.5 -37.5zM525 875q0 26 -16.5 43t-42.5 17q-27 -1 -43.5 -18t-15.5 -44 q1 -28 17 -44t42 -16q28 0 43.5 20t15.5 42z" />
<glyph unicode="&#x16f;" horiz-adv-x="884" d="M748 336q0 -4 0.5 -9t0.5 -9q0 -40 -4 -79t-15.5 -74.5t-30.5 -66t-49 -54.5q-44 -35 -93 -48t-103 -13q-30 0 -61 3t-60.5 11t-56.5 21.5t-49 33.5q-68 59 -75 174q-2 19 -2.5 43.5t-1 51t-0.5 52v46.5v51.5v55.5v54t-1 47q-1 27 -9 43t-22.5 25.5t-36 14.5t-49.5 9v6 q16 0 39 -0.5t47.5 -2t47.5 -2.5t40 -1q20 0 43 0.5t46 1.5t43.5 2t35.5 2v-7q-31 -3 -52 -8.5t-34 -15.5t-19.5 -26t-7.5 -40q-1 -17 -1.5 -41t-0.5 -56l2 -216q0 -42 5.5 -81.5t17.5 -73t31 -60.5t47 -44q30 -19 62.5 -26.5t66.5 -7.5q40 0 77 15.5t62 41.5 q18 19 30.5 45.5t20 58t10.5 66t3 69.5l-2 176q-1 36 -1.5 72t-1.5 62q-1 27 -9 43t-22.5 25.5t-36 14.5t-49.5 9v6q32 1 72.5 -2.5t74.5 -3.5q40 0 79 2t68 4v-7q-31 -3 -52 -8.5t-34 -15.5t-19.5 -26t-7.5 -40q-1 -17 -1.5 -41t-0.5 -56v-72q0 -13 -0.5 -29.5t-0.5 -33 v-30.5v-22v-9zM561 875q0 -21 -7.5 -38.5t-20.5 -31t-30.5 -21t-36.5 -7.5q-20 0 -37 7.5t-30 21t-21 31t-8 38.5q0 19 7.5 36.5t21 30.5t30.5 20.5t37 7.5q19 0 36.5 -7.5t30.5 -20t20.5 -30t7.5 -37.5zM525 875q0 26 -16.5 43t-42.5 17q-27 -1 -43.5 -18t-15.5 -44 q1 -28 17 -44t42 -16q28 0 43.5 20t15.5 42z" />
<glyph unicode="&#x170;" horiz-adv-x="884" d="M748 336q0 -4 0.5 -9t0.5 -9q0 -40 -4 -79t-15.5 -74.5t-30.5 -66t-49 -54.5q-44 -35 -93 -48t-103 -13q-30 0 -61 3t-60.5 11t-56.5 21.5t-49 33.5q-68 59 -75 174q-2 19 -2.5 43.5t-1 51t-0.5 52v46.5v51.5v55.5v54t-1 47q-1 27 -9 43t-22.5 25.5t-36 14.5t-49.5 9v6 q16 0 39 -0.5t47.5 -2t47.5 -2.5t40 -1q20 0 43 0.5t46 1.5t43.5 2t35.5 2v-7q-31 -3 -52 -8.5t-34 -15.5t-19.5 -26t-7.5 -40q-1 -17 -1.5 -41t-0.5 -56l2 -216q0 -42 5.5 -81.5t17.5 -73t31 -60.5t47 -44q30 -19 62.5 -26.5t66.5 -7.5q40 0 77 15.5t62 41.5 q18 19 30.5 45.5t20 58t10.5 66t3 69.5l-2 176q-1 36 -1.5 72t-1.5 62q-1 27 -9 43t-22.5 25.5t-36 14.5t-49.5 9v6q32 1 72.5 -2.5t74.5 -3.5q40 0 79 2t68 4v-7q-31 -3 -52 -8.5t-34 -15.5t-19.5 -26t-7.5 -40q-1 -17 -1.5 -41t-0.5 -56v-72q0 -13 -0.5 -29.5t-0.5 -33 v-30.5v-22v-9zM354 797l149 172l76 -23l-13 -44l-202 -116zM514 797l149 172l76 -23l-13 -44l-202 -116z" />
<glyph unicode="&#x171;" horiz-adv-x="884" d="M748 336q0 -4 0.5 -9t0.5 -9q0 -40 -4 -79t-15.5 -74.5t-30.5 -66t-49 -54.5q-44 -35 -93 -48t-103 -13q-30 0 -61 3t-60.5 11t-56.5 21.5t-49 33.5q-68 59 -75 174q-2 19 -2.5 43.5t-1 51t-0.5 52v46.5v51.5v55.5v54t-1 47q-1 27 -9 43t-22.5 25.5t-36 14.5t-49.5 9v6 q16 0 39 -0.5t47.5 -2t47.5 -2.5t40 -1q20 0 43 0.5t46 1.5t43.5 2t35.5 2v-7q-31 -3 -52 -8.5t-34 -15.5t-19.5 -26t-7.5 -40q-1 -17 -1.5 -41t-0.5 -56l2 -216q0 -42 5.5 -81.5t17.5 -73t31 -60.5t47 -44q30 -19 62.5 -26.5t66.5 -7.5q40 0 77 15.5t62 41.5 q18 19 30.5 45.5t20 58t10.5 66t3 69.5l-2 176q-1 36 -1.5 72t-1.5 62q-1 27 -9 43t-22.5 25.5t-36 14.5t-49.5 9v6q32 1 72.5 -2.5t74.5 -3.5q40 0 79 2t68 4v-7q-31 -3 -52 -8.5t-34 -15.5t-19.5 -26t-7.5 -40q-1 -17 -1.5 -41t-0.5 -56v-72q0 -13 -0.5 -29.5t-0.5 -33 v-30.5v-22v-9zM354 797l149 172l76 -23l-13 -44l-202 -116zM514 797l149 172l76 -23l-13 -44l-202 -116z" />
<glyph unicode="&#x172;" horiz-adv-x="884" d="M489 22q40 0 77 15.5t62 41.5q18 19 30.5 45.5t20 58t10.5 66t3 69.5l-2 176q-1 36 -1.5 72t-1.5 62q-1 27 -9 43t-22.5 25.5t-36 14.5t-49.5 9v6q32 1 72.5 -2.5t74.5 -3.5q40 0 79 2t68 4v-7q-31 -3 -52 -8.5t-34 -15.5t-19.5 -26t-7.5 -40q-1 -17 -1.5 -41t-0.5 -56 v-72q0 -13 -0.5 -29.5t-0.5 -33v-30.5v-22v-9q0 -4 0.5 -9t0.5 -9q0 -40 -4 -79t-15.5 -74.5t-30.5 -66t-49 -54.5q-38 -30 -79 -43.5t-86 -16.5q-30 -30 -35.5 -64.5t8.5 -59.5t43.5 -32t69.5 17l8 -23q-43 -25 -80 -29t-64.5 6t-42.5 32t-13.5 48t21.5 54t64 51 q-33 0 -65.5 3t-63.5 10.5t-58.5 21t-49.5 33.5q-68 59 -75 174q-2 19 -2.5 43.5t-1 51t-0.5 52v46.5v51.5v55.5v54t-1 47q-1 27 -9 43t-22.5 25.5t-36 14.5t-49.5 9v6q16 0 39 -0.5t47.5 -2t47.5 -2.5t40 -1q20 0 43 0.5t46 1.5t43.5 2t35.5 2v-7q-31 -3 -52 -8.5 t-34 -15.5t-19.5 -26t-7.5 -40q-1 -17 -1.5 -41t-0.5 -56l2 -216q0 -42 5.5 -81.5t17.5 -73t31 -60.5t47 -44q30 -19 62.5 -26.5t66.5 -7.5z" />
<glyph unicode="&#x173;" horiz-adv-x="884" d="M489 22q40 0 77 15.5t62 41.5q18 19 30.5 45.5t20 58t10.5 66t3 69.5l-2 176q-1 36 -1.5 72t-1.5 62q-1 27 -9 43t-22.5 25.5t-36 14.5t-49.5 9v6q32 1 72.5 -2.5t74.5 -3.5q40 0 79 2t68 4v-7q-31 -3 -52 -8.5t-34 -15.5t-19.5 -26t-7.5 -40q-1 -17 -1.5 -41t-0.5 -56 v-72q0 -13 -0.5 -29.5t-0.5 -33v-30.5v-22v-9q0 -4 0.5 -9t0.5 -9q0 -40 -4 -79t-15.5 -74.5t-30.5 -66t-49 -54.5q-38 -30 -79 -43.5t-86 -16.5q-30 -30 -35.5 -64.5t8.5 -59.5t43.5 -32t69.5 17l8 -23q-43 -25 -80 -29t-64.5 6t-42.5 32t-13.5 48t21.5 54t64 51 q-33 0 -65.5 3t-63.5 10.5t-58.5 21t-49.5 33.5q-68 59 -75 174q-2 19 -2.5 43.5t-1 51t-0.5 52v46.5v51.5v55.5v54t-1 47q-1 27 -9 43t-22.5 25.5t-36 14.5t-49.5 9v6q16 0 39 -0.5t47.5 -2t47.5 -2.5t40 -1q20 0 43 0.5t46 1.5t43.5 2t35.5 2v-7q-31 -3 -52 -8.5 t-34 -15.5t-19.5 -26t-7.5 -40q-1 -17 -1.5 -41t-0.5 -56l2 -216q0 -42 5.5 -81.5t17.5 -73t31 -60.5t47 -44q30 -19 62.5 -26.5t66.5 -7.5z" />
<glyph unicode="&#x174;" horiz-adv-x="1230" d="M838 -10q-35 81 -73 170q-32 76 -72.5 170t-81.5 190q-16 -37 -34 -79.5t-36.5 -86.5t-37 -88.5t-34.5 -84.5q-40 -95 -78 -191h-10l-194 542q-8 23 -18.5 45.5t-21 40.5t-19.5 31t-13 18q-23 26 -47.5 36t-62.5 15v9q17 -1 39.5 -2.5t46 -2.5t46 -1.5t39.5 -0.5h25t41 1 t49 2t49 4v-8q-11 -3 -24 -5t-23.5 -6.5t-17.5 -12.5t-7 -23q0 -12 6 -29t14 -44l128 -413q0 1 1 1t2 1l165 392q-11 23 -24.5 47t-28.5 40q-23 26 -47 36t-62 15v9q17 -1 39.5 -2.5t46 -2.5t46 -1.5t39.5 -0.5h25t41 1t49 2t49 4v-8q-11 -3 -24 -5t-23.5 -6.5t-17.5 -12.5 t-7 -23q0 -12 5.5 -29.5t15.5 -43.5l155 -413q0 1 1 1q2 0 2 1q12 31 26 71t28.5 81.5t28.5 81.5t25 72q7 23 11 35.5t7 24t7.5 26t14.5 41.5q16 47 -2 69t-75 30v6q32 2 69 -2t71 -4q40 0 80.5 2.5t69.5 4.5v-7q-36 -4 -61.5 -15.5t-43.5 -29.5t-31 -43t-25 -55l-40 -105 q-15 -38 -30.5 -79t-30.5 -82.5t-29.5 -81t-27.5 -75.5q-31 -84 -59 -164h-9zM742 782q-35 25 -64.5 49t-67.5 49q-34 -21 -67 -47.5t-68 -52.5l-10 11q32 45 63.5 87t61.5 84h39q31 -45 62.5 -87t62.5 -85z" />
<glyph unicode="&#x175;" horiz-adv-x="1224" d="M835 -10q-35 81 -73 170q-32 76 -72.5 170t-81.5 190q-16 -37 -34 -79.5t-36.5 -86.5t-37 -88.5t-34.5 -84.5q-40 -95 -78 -191h-10l-194 542q-8 23 -18.5 45.5t-21 40.5t-19.5 31t-13 18q-23 26 -47.5 36t-62.5 15v9q17 -1 39.5 -2.5t46 -2.5t46 -1.5t39.5 -0.5h25t41 1 t49 2t49 4v-8q-11 -3 -24 -5t-23.5 -6.5t-17.5 -12.5t-7 -23q0 -12 6 -29t14 -44l128 -413q0 1 1 1t2 1l165 392q-11 23 -24.5 47t-28.5 40q-23 26 -47 36t-62 15v9q17 -1 39.5 -2.5t46 -2.5t46 -1.5t39.5 -0.5h25t41 1t49 2t49 4v-8q-11 -3 -24 -5t-23.5 -6.5t-17.5 -12.5 t-7 -23q0 -12 5.5 -29.5t15.5 -43.5l155 -413q0 1 1 1q2 0 2 1q12 31 26 71t28.5 81.5t28.5 81.5t25 72q6 20 11 34q3 7 5 13q5 17 9 32q4 13 8 26.5t7 21.5q16 47 -2 69t-75 30v6q32 2 69 -2t71 -4q40 0 80.5 2.5t69.5 4.5v-7q-36 -4 -61.5 -15.5t-43.5 -29.5t-31 -43 t-25 -55l-40 -105q-15 -38 -30.5 -79t-30.5 -82.5t-29.5 -81t-27.5 -75.5q-31 -84 -59 -164h-9zM739 782q-35 25 -64.5 49t-67.5 49q-34 -21 -67 -47.5t-68 -52.5l-10 11q32 45 63.5 87t61.5 84h39q31 -45 62.5 -87t62.5 -85z" />
<glyph unicode="&#x176;" horiz-adv-x="781" d="M779 720q-56 -6 -92 -36.5t-62 -74.5q-8 -12 -19 -31t-24.5 -42t-28.5 -48t-29 -49q-33 -57 -71 -121v-97.5v-65.5t0.5 -41t1.5 -23q2 -21 8 -35.5t19.5 -24t36.5 -15.5t59 -9v-7q-16 1 -38.5 2t-47.5 1.5t-49 1t-43 0.5q-18 0 -41 -0.5t-46.5 -1.5t-46 -1.5t-38.5 -1.5 v6q28 4 49.5 9t35.5 14.5t22 25.5t9 43q0 9 0.5 31.5t0.5 49.5v55.5v50.5q-34 59 -65 113q-13 23 -27 47t-27.5 47t-25 43t-20.5 35q-5 9 -14 23t-18 29t-17.5 27.5t-12.5 17.5q-23 25 -50 35.5t-66 15.5v9q17 -1 39.5 -2.5t46.5 -2.5t46.5 -1.5t39.5 -0.5h23t39 1t47.5 2 t48.5 4v-8q-12 -3 -24 -5t-22.5 -6.5t-17 -12.5t-6.5 -23q0 -12 10 -31t24 -42q8 -14 20 -35.5t25.5 -45.5t27 -49t25 -46.5t20 -37.5t12.5 -22q27 50 53 96q10 19 21.5 39.5t21.5 39t18.5 34t13.5 26.5q11 22 19 36.5t10 23.5q4 16 -0.5 27t-14.5 18t-23 11t-26 6v6 q16 1 29 0t25 -2.5t25 -2.5t30 -1q41 0 81.5 2.5t69.5 4.5v-7zM553 782q-35 25 -64.5 49t-67.5 49q-34 -21 -67 -47.5t-68 -52.5l-10 11q32 45 63.5 87t61.5 84h39q31 -45 62.5 -87t62.5 -85z" />
</font>
</defs>
</svg>
