<svg id="Layer_1" xmlns="http://www.w3.org/2000/svg" viewBox="0 0 26 21"><style>.st0{fill:#EE673E;}</style><path id="XMLID_4_" class="st0" d="M6.6 16.7c.8 0 1.3.5 1.3 1.2s-.5 1.2-1.3 1.2-1.3-.5-1.3-1.2.5-1.2 1.3-1.2m0-1.9c-1.8 0-3.2 1.4-3.2 3.1 0 1.7 1.4 3.1 3.2 3.1 1.8 0 3.3-1.4 3.3-3.1 0-1.7-1.5-3.1-3.3-3.1zm19.1-4.1l-4.5-6.5c-.3-.2-.7-.5-1-.5h-4.5V2.5C15.6 1.1 14.4 0 13 0H2.6C1.2 0 0 1.1 0 2.5v13.6c0 1.2.9 2.2 2.1 2.4 0-.2-.1-.4-.1-.6 0-2.4 2-4.3 4.6-4.3s4.6 1.9 4.6 4.3c0 .2 0 .4-.1.6H14.4c0-.2-.1-.4-.1-.6 0-2.4 2-4.3 4.6-4.3s4.5 1.9 4.5 4.3c0 .2 0 .4-.1.6h.1c1.4 0 2.6-1.1 2.6-2.5v-4.6c0-.2-.1-.4-.3-.7zm-8.8-.8V6.2h3.3l2.6 3.7h-5.9zm2 6.8c.8 0 1.3.5 1.3 1.2s-.5 1.2-1.3 1.2-1.3-.5-1.3-1.2c-.1-.7.5-1.2 1.3-1.2m0-1.9c-1.8 0-3.3 1.4-3.3 3.1 0 1.7 1.4 3.1 3.3 3.1 1.8 0 3.3-1.4 3.3-3.1-.1-1.7-1.5-3.1-3.3-3.1z"/></svg>