<svg xmlns="http://www.w3.org/2000/svg" preserveAspectRatio="xMidYMid" width="80" height="80" viewBox="0 0 80 80"><defs><style>.cls-1 { fill: #d6d5da; fill-rule: evenodd; }</style></defs><path d="M65.153 36.786c-3.193 2.727-6.256 5.363-8.633 8.26-2.853 7.34-6.467 13.07-10.517 16.04C37.11 71.59 60 70.226 60 80H19.666c0-9.964 23.82-8.35 13.434-19.554-3.687-3.127-6.973-8.596-9.62-15.393-2.377-2.907-5.44-5.537-8.633-8.264C7.547 30.555 0 24.112 0 13.332 0 5.856 5.857 0 13.333 0c5.02 0 9.257 2.67 11.534 6.666H55.13C57.41 2.67 61.647 0 66.667 0 74.143 0 80 5.855 80 13.332c0 10.78-7.553 17.223-14.847 23.453zM16.687 7.55c-.977-.55-2.107-.884-3.354-.884-3.8 0-6.667 2.867-6.667 6.667 0 7.707 5.797 12.656 12.507 18.387.134.11.264.223.394.333-1.784-7.807-2.81-16.29-2.88-24.504zm31.17 30.766c0-.335-.043-.538-.126-.61-.083-.072-.256-.108-.52-.108h-4.127v-18.41c0-.454-.084-.826-.25-1.113-.17-.287-.396-.496-.683-.628-.287-.13-.622-.19-1.004-.18-.384.013-.778.08-1.185.198l-5.956 1.615c-.31.096-.497.216-.556.36-.06.143-.09.322-.09.537v2.62c0 .264.047.437.143.52.097.085.288.103.576.054l3.804-.644v15.072h-3.804c-.264 0-.437.036-.52.108-.085.072-.126.275-.126.61v2.835c0 .265.04.45.125.557.084.108.257.162.52.162h13.136c.264 0 .437-.055.52-.163.084-.107.126-.292.126-.556v-2.834zm18.81-31.65c-1.247 0-2.377.333-3.354.88-.07 8.217-1.097 16.7-2.88 24.507l.39-.333c6.717-5.73 12.51-10.68 12.51-18.387 0-3.8-2.863-6.667-6.666-6.667z" class="cls-1"/></svg>