<svg xmlns="http://www.w3.org/2000/svg" preserveAspectRatio="xMidYMid" width="18" height="15" viewBox="0 0 18 15">
<defs><style>.deliver-1 { fill-rule: evenodd; }</style></defs>
<path d="M4.59 11.912c.54 0 .9.353.9.882 0 .53-.36.882-.9.882s-.9-.353-.9-.882c0-.53.36-.882.9-.882m0-1.324c-1.26 0-2.25.97-2.25 2.206C2.34 14.03 3.33 15 4.59 15s2.25-.97 2.25-2.206c0-1.235-.99-2.206-2.25-2.206zm13.23-2.912L14.67 3c-.18-.177-.45-.353-.72-.353H10.8v-.882C10.8.795 9.99 0 9 0H1.8C.81 0 0 .794 0 1.765v9.705c0 .864.642 1.584 1.48 1.733-.017-.135-.04-.268-.04-.41 0-1.73 1.384-3.087 3.15-3.087s3.15 1.356 3.15 3.088c0 .152-.024.296-.044.44h2.248c-.02-.144-.044-.288-.044-.44 0-1.732 1.384-3.088 3.15-3.088s3.15 1.356 3.15 3.088c0 .152-.024.296-.044.44h.044c.99 0 1.8-.793 1.8-1.764V8.206c0-.177-.09-.353-.18-.53zM11.7 7.06V4.41h2.277L15.76 7.06H11.7zm1.35 4.852c.54 0 .9.353.9.882 0 .53-.36.882-.9.882s-.9-.353-.9-.882c0-.53.36-.882.9-.882m0-1.324c-1.26 0-2.25.97-2.25 2.206 0 1.235.99 2.206 2.25 2.206s2.25-.97 2.25-2.206c0-1.235-.99-2.206-2.25-2.206z" class="deliver-1"/></svg>