<svg xmlns="http://www.w3.org/2000/svg" preserveAspectRatio="xMidYMid" width="40" height="46" viewBox="0 0 40 46"><defs><style>.cls-1 { fill: #ee673e; fill-rule: evenodd; }</style></defs><path d="M30.217 8.587c1.084 2.366 1.29 6.373-.9 8.317C25.613 2.874 16.452 0 16.452 0c1.084 7.234-3.925 15.145-8.758 21.057-.17-2.884-.35-4.876-1.868-7.636-.342 5.242-4.352 9.514-5.438 14.765-1.47 7.11 1.1 12.316 10.867 17.815-.006-.007 0-.006.004-.005-3.066-6.375-1.43-10.028.928-13.47 2.583-3.773 3.25-7.507 3.25-7.507l.007.01.002-.015s2.028 2.633 1.22 6.752c3.58-3.99 4.254-10.333 3.713-12.765l.013.01c0-.005 0-.01-.002-.015 8.11 5.66 11.578 17.918 6.907 27.002 24.83-14.04 6.17-35.044 2.92-37.41z" class="cls-1"/></svg>