<svg id="Layer_1" xmlns="http://www.w3.org/2000/svg" viewBox="0 0 92.7 15.6"><style>.st0{fill-rule:evenodd;clip-rule:evenodd;fill:#FFFFFF;}</style><g id="XMLID_1_"><path id="XMLID_72_" class="st0" d="M65.9.8L65.3 4c-1.1-.6-1.9-.8-2.8-.8-2.4 0-4.1 2.3-4.1 5.6 0 2.3 1.1 3.7 3 3.7.8 0 1.7-.3 2.7-.8l-.6 3.4c-1.2.3-1.9.5-2.8.5-3.5 0-5.6-2.5-5.6-6.5C55.1 3.8 58 0 62.3 0c.6 0 1.1.1 1.5.2l1.2.3c.4.1.6.2.9.3z"/><path id="XMLID_71_" class="st0" d="M55.6 3h-.3c-1.1 0-1.7.5-2.6 2l.3-1.9h-3l-2 12.2h3.2c1.2-7.5 1.5-8.7 3-8.7h.2c.3-1.5.7-2.5 1.2-3.5V3z"/><path id="XMLID_70_" class="st0" d="M37.2 15.2c-.9.3-1.6.4-2.3.4-1.6 0-2.5-.9-2.5-2.7 0-.3.1-.7.1-1.1l.2-1.2.2-1 1.4-8.3h3.2L37 3.1h1.6l-.4 3h-1.6l-.9 5.1c-.1.2-.1.4-.1.5 0 .6.3.9 1.1.9.4 0 .7 0 .9-.1l-.4 2.7z"/><path id="XMLID_69_" class="st0" d="M24.9 7c0 1.5.7 2.6 2.4 3.4 1.3.6 1.5.8 1.5 1.3 0 .8-.6 1.1-1.8 1.1-1 0-1.8-.2-2.8-.5l-.5 2.8.2.1.6.1c.2.1.5.1.9.1.7.1 1.3.1 1.7.1 3.4 0 4.9-1.3 4.9-4.1 0-1.7-.7-2.6-2.2-3.4-1.4-.6-1.5-.8-1.5-1.3 0-.7.6-1 1.6-1 .6 0 1.5.1 2.3.2l.5-2.8c-.8-.2-2.1-.3-2.8-.3-3.8 0-5 1.9-5 4.2z"/><path id="XMLID_54_" class="st0" d="M90.2 15.3h-3l.2-1.2c-.9.9-1.8 1.3-2.9 1.3-2.3 0-3.9-2-3.9-5 0-4.1 2.4-7.5 5.2-7.5 1.3 0 2.2.6 3.1 1.7l.7-4.3h3.2l-2.6 15zm-4.7-2.8c1.5 0 2.5-1.7 2.5-4.1 0-1.6-.6-2.4-1.7-2.4-1.4 0-2.5 1.7-2.5 4.1.1 1.5.6 2.4 1.7 2.4z"/><path id="XMLID_50_" class="st0" d="M46.9 15.1c-1.1.4-2.1.5-3.3.5-3.6 0-5.4-1.9-5.4-5.5 0-4.2 2.3-7.3 5.5-7.3 2.6 0 4.3 1.7 4.3 4.4 0 .9-.1 1.8-.4 3.1h-6.3c-.1.2-.1.3-.1.4 0 1.4 1 2.1 2.8 2.1 1.2 0 2.2-.2 3.3-.8l-.4 3.1zm-1.7-7.3v-.6c0-1-.6-1.6-1.5-1.6-1 0-1.7.8-2 2.2h3.5z"/><path id="XMLID_49_" class="st0" d="M12.8 15.3H9.6l1.8-11.5-4.1 11.5H5.1L4.9 3.9l-2 11.4H0L2.5.3h4.6l.1 9.3L10.3.3h5l-2.5 15z"/><path id="XMLID_37_" class="st0" d="M20.6 9.9c-.3 0-.5-.1-.7-.1-1.8 0-2.7.7-2.7 1.9 0 .8.4 1.2 1.1 1.2 1.4 0 2.3-1.2 2.3-3zm2.4 5.4h-2.6l.1-1.3c-.8 1-1.9 1.5-3.4 1.5-1.7 0-2.9-1.3-2.9-3.3 0-3 2-4.7 5.6-4.7.4 0 .8.1 1.3.1.1-.4.1-.6.1-.8 0-.8-.6-1.1-2-1.1-.9 0-1.9.1-2.6.3l-.6.2-.3.1.5-2.7c1.5-.6 2.6-.8 3.8-.8 2.7 0 4.2 1.2 4.2 3.6 0 .6-.1 1.1-.3 2.4l-.7 4.3-.1.8-.1.6v.8z"/><path id="XMLID_33_" class="st0" d="M71 9.9c-.4 0-.5-.1-.7-.1-1.8 0-2.7.7-2.7 1.9 0 .8.5 1.2 1.2 1.2 1.2 0 2.1-1.2 2.2-3zm2.3 5.4h-2.6l.1-1.3c-.8 1-1.9 1.5-3.4 1.5-1.7 0-2.9-1.3-2.9-3.3 0-3 2-4.7 5.6-4.7.4 0 .8.1 1.3.1.1-.4.2-.6.2-.8 0-.8-.6-1.1-2-1.1-.9 0-2 .1-2.7.3l-.4.2-.3.1.5-2.7c1.6-.5 2.6-.6 3.8-.6 2.7 0 4.2 1.2 4.2 3.6 0 .6 0 1.1-.3 2.4l-.7 4.3-.1.8-.1.6-.2.3v.3z"/><path id="XMLID_32_" class="st0" d="M81.9 3h-.3c-1.1 0-1.7.5-2.6 2l.3-1.9h-2.9l-1.9 12.2h3.2c1.2-7.5 1.5-8.7 3-8.7h.2c.2-1.5.6-2.6 1.1-3.5l-.1-.1z"/></g></svg>