<svg baseProfile="tiny" xmlns="http://www.w3.org/2000/svg" viewBox="0 0 22 21"><path d="M11 8.1c.8 0 1.5-.7 1.5-1.5s-.7-1.5-1.5-1.5-1.5.7-1.5 1.5.7 1.5 1.5 1.5zM17.7 0H4.3C1.9 0 0 1.8 0 4.1v12.7C0 19.2 1.9 21 4.3 21h13.3c2.4 0 4.3-1.8 4.3-4.1V4.1C22 1.8 20.1 0 17.7 0zM11 3c2 0 3.6 1.6 3.6 3.6S13 10.2 11 10.2 7.4 8.6 7.4 6.6 9 3 11 3zm3.5 9.3c-.6.4-1.3.7-2.1.9l2 2c.4.4.4 1.1 0 1.5-.4.4-1.1.4-1.5 0l-2-2-2 2c-.1.2-.3.3-.6.3s-.5-.1-.7-.3c-.4-.4-.4-1.1 0-1.5l2-2c-.7-.2-1.4-.5-2.1-.9-.5-.3-.6-1-.3-1.5s1-.6 1.4-.3c1.5.9 3.3.9 4.8 0 .5-.3 1.1-.2 1.4.3.4.5.2 1.2-.3 1.5z"/></svg>