<svg baseProfile="tiny" xmlns="http://www.w3.org/2000/svg" viewBox="0 0 61 84"><path fill-rule="evenodd" fill="#EE673E" d="M5 0h51c2.8 0 5 2.2 5 5v74c0 2.8-2.2 5-5 5H5c-2.8 0-5-2.2-5-5V5c0-2.8 2.2-5 5-5z"/><path fill="#FFF" d="M30.4 45.2c-.5 0-.9-.4-1.1-.8h-.1c-.5.1-.8.1-1.2 0-.4-.1-.7-.4-.8-.7-.8.3-1.5.1-2-.5-.2.2-.6.4-.9.3-.2-.1-.3-.4-.2-.6 0 0 0-.1-.1-.1-.1-.1-.1-.1-.1-.2-.4-.7-.3-1.4.1-1.9-.2-.3-.2-.7 0-1.1.2-.5.7-.9 1.3-.9h.2c.2.1.3.2.3.4v.2c.1-.1.3-.2.5-.3l.2-.1c.3-.2.7-.6 1-1.2.1-.4.5-.6.8-.8.1 0 .2-.1.2-.1 0-.2 0-.4-.3-.7-.2-.2-.4-.3-.6-.3-.3 0-.4.3-.4.4 0 .1.2.1.3.1.2 0 .4.1.5.3.1.2 0 .4-.1.6-.1.1-.7.5-1.2.5l-.3.3c-.2.1-.3.1-.5 0 0 0-.1 0-.1-.1-.1.1-.2.2-.4.2-.1.1-.3.2-.4.3 0 0-.1 0-.1.1l-.1.1c-.1 0-.1.1-.2.1-.1.1-.2.2-.4.3l-.2.2c-.1.1-.2.1-.2.2-.1 0-.1.1-.2.1l-.1.1-.1.1s-.1.1-.1.2l-.2.2-.1.1-.1.1-.1.1c.2.1.3.2.5.4.1.1.3.3.3.6 0 .2-.1.4-.1.5 0 .1 0 .2-.1.4s-.2.5-.6.6h-.2s-.5 0-.6-.6c-.5-.1-.7-.5-.7-.7 0-.1-.1-.1-.1-.2H20.9c-.2 0-.3 0-.5.1-.4.2-.8.1-1.1-.1l.2-.5-.3.4h.1c-.1 0-.1.1-.2.1-.1.1-.3.2-.4.2-.2 0-.3-.1-.4-.2-.1-.1-.1-.4-.1-.5v-.2c0-.3.1-.5.3-.6 0-.1.1-.2.1-.4.1-.2.1-.3.2-.4.2-.3.4-.4.6-.5l.2-.1c.1-.1.2-.2.3-.2.2-.1.3-.2.5-.2s.4.1.4.2c.3-.2.8 0 1 .4h.1c.1 0 .2-.1.2-.1.1-.1.1-.1.2-.1l.4.3-.3-.4.2-.2.3-.3c.1-.1.2-.2.3-.2h.1v-.1-.1c-.6 0-1-.4-1.2-1.1 0-.2 0-.3.1-.4.1-.2.4-.2.6-.2v-1.1-.2c.3-.6.6-.9 1-1.2-.3.1-.5-.2-.6-.3 0 0 0-.1-.1-.1L23 33c-.1.2-.3.4-.5.5-.3.1-.4.1-.5.2-.1.1-.2.1-.4.1-.4-.1-.5-.3-.5-.5l-.1-.1c0-.1-.1-.1-.1-.2-.2.1-.5.2-.7.2l-.2-.8v.5c-.2 0-.4 0-.6-.1-.3-.2-.3-.4-.3-.6l-.1-.1v-.2c-.1 0-.2.1-.4.1h-.1c-.1 0-.2 0-.3-.1H18c-.1 0-.2-.1-.3-.2-.1-.1-.4-.6-.4-1v-.1c-.2 0-.4-.1-.5-.2-.1 0-.2-.1-.2-.1-.2-.1-.4-.2-.4-.5s0-.5.1-.7c-.4-.1-.8-.3-1-.8-.1-.1-.1-.3 0-.4.1-.1.2-.3.4-.5-.5-.3-.8-.7-1-1.2-.1-.2 0-.5.3-.6.1-.1.2-.1.4-.2l-.1-.1c-.3-.2-.5-.4-.6-.8-.1-.2-.1-.4-.1-.6.1-.2.3-.3.6-.4-.5-.4-.9-1-.7-1.7 0-.2.2-.3.3-.3.2-.1.3-.1.5-.1v-.1c-.3-.7-.4-1.1-.3-1.4 0-.3.3-.6.7-.6-.3-.6-.5-1.5.1-2.4.1-.1.2-.2.4-.2.1 0 .2 0 .3.1-.1-.3-.1-.7-.1-1 0-.4.5-1.8 1.3-1.8.2 0 .4.1.5.3.6 1.5 1.5 2.7 2.4 4l.1.1h.2c.1 0 .3.2.3.3.2.5.5 1 .9 1.3.1 0 .2-.1.3-.1.2 0 .3.1.4.2.3.5.7.9 1.2 1.3.3.2.5.5.8.8.3.4.5.7.6 1.1V23.6c0 .4.1.6-.2 1.1 0 .1-.1.1-.1.2-.5.4-.4.5-.3.7.2.2.4.3.8.3v-.1c-.3-.5-.2-1.3.1-1.8.1-.2.3-.3.5-.3h.2v-.4c0-.2.1-.3.2-.4.1-.1.3-.1.4-.1.1 0 .2.1.4.2.3-.1.4-.5.5-.8v-.4c0-.1 0-.2-.1-.3l-.3-.6c-.1-.2-.2-.3-.4-.4h-.4-.1c-.1 0-.1 0-.2-.1-.4-.1-.7-.1-.9.1 0 .1 0 .3-.1.4-.1.2-.4.3-.6.2-.3-.1-.6-.4-.7-.7 0-.2 0-.5.3-1-.1 0-.1 0-.2.1s-.2.2-.4.3c-.1 0-.3 0-.4-.1l-.2-.2c-.3-.5-.5-.9-.3-1.6.1-.4.4-.8.9-1 .2-.1.3-.1.5-.1l.3-.3c0-.3.2-.6 1.1-.6.4 0 1 .1 1.4.1h.4l.9.2h.5c.2 0 .4 0 .5-.1h.2l.1.5v-.5c.2 0 .3.1.4.2.1.1.1.3.1.5l-.1.2c0 .1-.1.2-.2.2.1.1 0 .3 0 .4-.1.1-.1.2-.2.3.1 0 .4.1.6.1h.4c.2 0 .3.1.4.2.1.1.1.3.1.5-.1.3-.3.5-.5.6.2.3.3.7.5 1 .1-.3.2-.5.4-.7l.1-.2c.1-.1.1-.2.1-.2-.1-.1-.2-.1-.3-.3-.1-.1-.2-.3-.1-.5 0-.2.2-.3.4-.4.1 0 .2-.1.3-.1.3 0 .5-.1.7-.2-.1-.1-.1-.3-.1-.4v-.1l-.1-.1c-.2-.2-.4-.4-.4-.8 0-.2.1-.4.3-.5.2-.1.4 0 .5.1h.1l.2.1c.1 0 .3.1.4.1h.3c.7.1 1 0 1 0 .6-.2 1.9-.4 2.5-.3.2.1.5.2.6.4 0 .1.1.2.1.2s.1 0 .1.1c.1 0 .1.1.2.2.4.1.7.2.9.4l.1.1c.2.2.3.4.4.7.2.5.1.9-.2 1.3v.1s0 .1-.1.1c-.1.1-.2.3-.4.3-.2.1-.4 0-.6-.2-.1-.1-.1-.1-.1-.2-.2-.1-.3-.1-.4-.1.2.4.4.9.4 1 0 .4-.3.8-.8.9h-.2c-.2 0-.3-.1-.4-.2-.1-.1-.1-.3-.1-.5v-.1c0-.1 0-.1-.1-.2l-.1-.1h-.4-.1s-.1 0-.1.1c-.2.1-.4.1-.6.1l-.1.1c-.1.1-.2.1-.3.2-.2.1-.3.3-.5.5-.1.3-.2.4-.2.8 0 .2 0 .4.1.6l.3.3c.1 0 .1 0 .2.1h.1c.1 0 .1-.1.2-.1.1-.1.2-.2.3-.2.1 0 .3.1.3.2.1.1.2.4.1.6 0 .1-.1.2-.1.3 0 0 0 .1-.1.1 0 0-.1.1-.1.2.1 0 .1 0 .2-.1.1-.2.3-.2.5-.2.2.1.3.2.4.3 0-.2-.1-.3-.1-.5 0-.6.4-1 .7-1.4l.1-.2.4-.3c.6-.5 1.2-1 1.7-1.6.1-.1.2-.1.4-.1h.1c.3-.4.6-.8 1-1.2l.3-.3c.1-.1.2-.2.3-.2.9-1 1.7-2.2 2.4-3.3l.3-.5c.1-.1.2-.2.4-.2s.3 0 .4.1c.7.7.7 1.7.5 2.5.2-.1.5 0 .6.2.7.9.3 1.9-.1 2.6.4-.1.7 0 .8.2.4.4.2 1-.5 1.9.3 0 .9.1 1 .6.2.5-.3.9-.5 1.1-.1.1-.2.2-.4.3.5.2.8.4.8.9 0 .1-.1.3-.2.4-.2.2-.4.4-.7.5.1.1.2.2.4.3.1.1.1.2.2.3 0 .2 0 .5-.2.8-.2.2-.4.4-.7.6.3.4.3.6.3.7 0 .1-.1.3-.2.4-.3.3-.6.5-.9.5v.7c0 .1-.1.3-.1.4-.2.2-.5.1-.8.2-.1 0-.2.1-.4.1 0 .2 0 .4-.1.6-.1.6-.5.7-.6.7H42.7c0 .1-.1.2-.1.2 0 .1-.1.3-.2.4-.1.2-.3.3-.5.3h-.4c-.2 0-.4 0-.7-.1h-.1v.1c-.1.1-.2.2-.2.4l-.3.3c-.1.1-.3 0-.4 0-.1 0-.1-.1-.2-.1-.5 0-.7-.2-.9-.4-.1.1-.2.2-.3.2-.1.2-.2.3-.4.3.5.4.7.9.8 1.6v.7c.2-.1.3-.1.5 0s.2.3.2.4c0 .4-.2.7-.4.9l-.1.1c-.2.1-.4.2-.6.2.4.3 1 .8 1.5 1.1 0 0 .1 0 .1.1l.2.1.1-.1c.2-.2.5-.3.7-.4.2-.1.6-.1.8 0h.5c.3.1.5.3.6.4 0 0 .1.1.1.2v.2c.2.1.4.3.4.6.1.3 0 .5-.1.6-.1.1-.2.2-.3.2v.3c.1.9-.5 1.1-.6 1.1-.1 0-.3 0-.3-.1-.2-.1-.2-.3-.3-.4h-.2c-.1 0-.3 0-.4-.1-.1-.1-.2-.1-.3-.1-.8.1-.9.1-.9.1h-.2c-.1.1-.3.2-.4.4 0 0-.1.1-.1.2-.1.1-.3.4-.8.4 0 .1 0 .2-.1.3-.1.1-.2.2-.4.2s-.4-.1-.6-.4c-.1-.2-.2-.3-.2-.5-.1-.2 0-.3 0-.4v-.4c.1-.3.3-.5.4-.6.1 0 .1-.1.1-.1l-.2-.2c-.3-.3-.6-.6-1-.8l-.2-.2-.1-.1c-.1 0-.1-.1-.2-.1-.1-.1-.3-.1-.5-.2h-.1c-.2 0-.3-.1-.5-.3-.1.1-.2.1-.3.1-.1 0-.2-.1-.3-.1-.3.1-.5.1-.7.1-.1 0-.2-.1-.3-.1 0 .1.1.2.1.3v.2s.4.2.6.4c.2.1.3.2.5.3l.2.2s.1.1.2.1c0-.1.1-.3.1-.4.2-.2.4-.2.5-.2.7 0 1 .6 1.1.8.1.2.2.5.2.7 0 .2 0 .3-.1.5.2.3.4.7.4 1.1 0 .3-.1.6-.3.9l-.1.1c-.1.2-.1.2-.1.4s-.1.4-.3.4c-.2.1-.3.1-.5 0-.1-.1-.3-.2-.4-.3-.2.2-.4.4-.6.5-.5.2-1 .1-1.3 0-.5.7-1.3.7-1.8.7h-.2c-.1 0-.1 0-.2-.1l-.6.6c0-.2-.1-.2-.3-.2z"/><path fill-rule="evenodd" fill="#FFF" d="M9 65.1h43v5H9v-5zM19.2 55.1h22.5v5H19.2v-5z"/></svg>