<svg id="Layer_1" xmlns="http://www.w3.org/2000/svg" xmlns:xlink="http://www.w3.org/1999/xlink" viewBox="0 0 105 105"><style>.st0{clip-path:url(#SVGID_2_);fill:#FFFFFF;stroke:#231F20;stroke-width:1.7598;stroke-miterlimit:10;} .st1{clip-path:url(#SVGID_2_);} .st2{fill:none;stroke:#231F20;stroke-width:1.7598;stroke-miterlimit:10;} .st3{clip-path:url(#SVGID_2_);fill:#231F20;} .st4{clip-path:url(#SVGID_2_);fill:none;stroke:#231F20;stroke-width:1.7598;stroke-miterlimit:10;}</style><defs><circle id="SVGID_1_" cx="52.5" cy="52.5" r="52.5"/></defs><use xlink:href="#SVGID_1_" overflow="visible" fill="#EE673E"/><clipPath id="SVGID_2_"><use xlink:href="#SVGID_1_" overflow="visible"/></clipPath><path class="st0" d="M68.4 70.6v25.5H38.2V70.6"/><path class="st0" d="M76.7 40.6c-.4 0-.9.1-1.3.2 1.9-18.9-9.8-28.2-21.7-28.6h-1.2c-11.9.4-23.6 9.7-21.7 28.6-.4-.1-.8-.2-1.3-.2-3.5 0-6.4 3.8-6.4 8.5s2.9 8.5 6.4 8.5h.2c.4 5.1 9.2 18.8 22.7 19.7h1.2c13.5-.9 22.4-14.6 22.7-19.7h.3c3.5 0 6.4-3.8 6.4-8.5.1-4.7-2.8-8.5-6.3-8.5z"/><path class="st1 st2" d="M51.7 45.7v10.7h5.5"/><path class="st3" d="M30.8 34c1.7-13.5 8.7-21.9 23.5-21.6 1.6 5.9.6 19.8-23.5 21.6z"/><path class="st3" d="M75.9 34c-1.7-13.5-8.7-21.9-23.5-21.6-1.6 5.9-.6 19.8 23.5 21.6z"/><circle class="st4" cx="42.6" cy="45.8" r="6"/><circle class="st4" cx="63.3" cy="45" r="6"/><path class="st0" d="M48.9 45h8.4M69 43.8l6.4-3.1M36.6 45.2l-5.8-4.5"/><path class="st3" d="M103.5 98.5c0-6.6-5.5-18-25.2-17.8H67.5s-1 10.7-14.3 10.7C41.6 91.4 39 80.7 39 80.7H28.4c-20.2.6-26.3 9.9-26.3 17.8h3.1v8.4h89.9v-8.4h8.4z"/><path class="st4" d="M49.4 65.4l4.3 1.5 4.4-1.5"/><circle class="st3" cx="42.6" cy="45.8" r="1.9"/><circle class="st3" cx="63.3" cy="45.1" r="1.9"/></svg>