<svg id="Layer_1" xmlns="http://www.w3.org/2000/svg" viewBox="0 0 23 25"><style>.st0{fill:#EE673E;}</style><g id="XMLID_3_"><g id="XMLID_46_"><path id="XMLID_47_" class="st0" d="M23 21.4l-5.5-11.3c.5-.9.7-2 .7-3.1 0-3.8-3-7-6.7-7S4.8 3.1 4.8 7c0 1.1.3 2.2.7 3.1L0 21.4c-.1.1-.1.3 0 .5.2.1.4.1.5.1l3.6-1 1.6 3.8c.1.1.2.2.4.2.1 0 .3-.1.3-.2l5.1-10.5 5.1 10.5c.1.1.2.2.3.2.1 0 .3-.1.3-.3l1.5-3.8 3.6 1c.1 0 .3 0 .4-.1.3-.1.3-.3.3-.4zM11.5 11.2c-2.3 0-4.3-2-4.3-4.4 0-2.4 1.9-4.4 4.3-4.4 2.3 0 4.3 2 4.3 4.4 0 2.5-1.9 4.4-4.3 4.4z"/></g></g></svg>