<svg baseProfile="tiny" xmlns="http://www.w3.org/2000/svg" viewBox="0 0 226.6 41.9">

<path  d="M20.9 0C9.4 0 0 9.4 0 20.9s9.4 20.9 20.9 20.9 20.9-9.4 20.9-20.9S32.5 0 20.9 0zm19 20.9c0 10.4-8.5 18.9-18.9 18.9S2 31.4 2 20.9C2 10.5 10.5 2 20.9 2s19 8.5 19 18.9z"/>
<g  stroke="#FFF" stroke-width=".039" stroke-linecap="round" stroke-linejoin="round">

<path d="M49.3 31.1c.4 0 .9-.1 1.3-.1.7 0 2.9 0 2.9 2.1 0 .9-.4 2.4-2.6 2.4-.7 0-1.4-.1-1.6-.1v-4.3zM47 25.7c.7.5.7 1.1.7 1.6v7.8c0 .4 0 1.1-.7 1.6h3.8c.9 0 4.6-.1 4.6-3.5 0-2.1-1.5-3.2-4-3.2-.5 0-1.5.1-2 .1V27h3.3c.5 0 1.2 0 1.6.5v-1.8H47zM61.5 27.1l1.7 4.3h-3.4l1.7-4.3zM60 25.7c.6.3.4.9.4 1.1l-3.1 7.9c-.3.8-.6 1.5-1.4 2h3c-.7-.5-.6-1.2-.4-1.7l1-2.5h4.2l1.2 2.9c.1.4.3.9-.5 1.2h3.4c-.8-.4-1.1-1-1.3-1.6l-3.8-9.3H60zM76.8 30v-2.8c0-.5 0-1.1-.7-1.6h3c-.7.5-.7 1.1-.7 1.6V35c0 .5 0 1.1.7 1.6h-3c.7-.5.7-1.1.7-1.6v-3.8h-6V35c0 .5 0 1.1.7 1.6h-3c.7-.5.7-1.1.7-1.6v-7.8c0-.5 0-1.1-.7-1.6h3c-.7.5-.7 1.1-.7 1.6V30h6zM84.5 25.7c-.7.5-.7 1.1-.7 1.6v7.8c0 .4 0 1.1.7 1.6h-3c.7-.5.7-1.1.7-1.6v-7.8c0-.4 0-1.1-.7-1.6h3zm2 1.9c.4-.6.6-.9.6-1.2 0-.4-.3-.6-.6-.8h3l-3.8 4.9 1.8 2.4c1.4 1.9 2.2 2.9 3.6 3.7l-1.7.1c-1.2.1-1.9-.9-2.7-2l-2.8-3.8 2.6-3.3z"/></g>
<g><path d="M51.6 16.3H50v2.2c0 .9.2 1.3.4 1.5h-3c.1-.2.4-.6.4-1.5V9.4c0-.9-.3-1.3-.4-1.5h4.4c3.1 0 5 1.6 5 4-.1 3-2.5 4.4-5.2 4.4zm-.5-7.1H50V15h1.3c1.5 0 3-.6 3-3 0-2.2-1.6-2.8-3.2-2.8zM67.9 11l-3.7 8.7c-1.1 2.5-2 4-4.2 4-1.3 0-2.2-.7-2.7-1.2l.6-1.2c.6 1 1.3 1.4 2.2 1.4 1.3 0 2.1-1.1 2.9-3L59 11c-.3-.6-.5-1-.8-1.3h3.1c-.1.3-.1.5.2 1.3l2.6 6 2.5-6c.3-.6.3-.9.2-1.3h1.9c-.4.3-.6.7-.8 1.3zM75.3 10.5c-2.3 0-3.4 2.2-3.4 4.4 0 3.1 1.9 4.4 3.4 4.4s2.4-.7 3.1-1.7l.4.8c-.9 1.2-2.3 1.8-3.8 1.8-3.5 0-5.3-2.4-5.3-5.4 0-3.2 2.1-5.3 5.5-5.3 1.3 0 2 .3 2.7.3.4 0 .7 0 1-.2l-.9 2c-.6-.8-1.5-1.1-2.7-1.1zM86 10.5c-2.3 0-3.4 2.2-3.4 4.4 0 3.1 1.9 4.4 3.4 4.4s2.4-.7 3.1-1.7l.4.8c-.9 1.2-2.3 1.8-3.8 1.8-3.5 0-5.3-2.4-5.3-5.4 0-3.2 2.1-5.3 5.5-5.3 1.3 0 2 .3 2.7.3.4 0 .7 0 1-.2l-.8 1.9c-.7-.7-1.7-1-2.8-1zM94.3 11c0-.7.2-1.1.3-1.3h-2.8c.1.2.3.5.3 1.3v7.8c0 .7-.2 1.1-.3 1.3h2.8c-.1-.2-.3-.5-.3-1.3V11z"/><path d="M101.7 20c-.3-.2-.7-.7-1.2-1.3l-3.8-4.5 3.4-3.2c.7-.7 1-1 1.4-1.3h-2.8c.2.3.3.7-.4 1.3l-3.9 3.7 3.4 4.1c.6.7.6 1 .4 1.3h3.5V20zM111 20c.1-.2.3-.5.3-1.3V13l-4.7 5.5v.3c0 .7.2 1.1.3 1.3h-2.8c.1-.2.3-.5.3-1.3V11c0-.7-.2-1.1-.3-1.3h2.8c-.1.2-.3.5-.3 1.3v5.7l4.7-5.5V11c0-.7-.2-1.1-.3-1.3h2.7c-.1.2-.3.5-.3 1.3v7.8c0 .7.2 1.1.3 1.3H111V20zM122.2 8.1c-1.8 0-2.5-.7-2.5-1.3 0-.3.2-.7.5-1h.9c-.2.2-.2.4-.2.8 0 .3.4 1 1.4 1 1 0 1.4-.7 1.4-1 0-.3-.1-.5-.3-.8h.9c.3.2.4.6.4 1 .1.6-.7 1.3-2.5 1.3zm2.1 11.9c.1-.2.3-.5.3-1.3V13l-4.7 5.5v.3c0 .7.2 1.1.3 1.3h-2.8c.1-.2.3-.5.3-1.3V11c0-.7-.2-1.1-.3-1.3h2.8c-.1.2-.3.5-.3 1.3v5.7l4.7-5.5V11c0-.7-.2-1.1-.3-1.3h2.7c-.1.2-.3.5-.3 1.3v7.8c0 .7.2 1.1.3 1.3h-2.7V20zM142.5 8.8c-2.7 0-4.1 2.6-4.1 5.1 0 3.7 2.4 5.1 4.1 5.1 1.7 0 2.8-.8 3.7-1.9l.4 1c-1.1 1.4-2.7 2.1-4.5 2.1-4.1 0-6.2-2.9-6.2-6.3 0-3.7 2.5-6.3 6.4-6.3 1.5 0 2.4.4 3.2.4.5 0 .8 0 1.1-.2l-1 2.2c-.7-.8-1.7-1.2-3.1-1.2zM156.6 11.4c-.4-.5-1.1-.6-1.6-.6h-1.7v7.9c0 .7.2 1.1.3 1.3h-2.8c.1-.2.3-.5.3-1.3v-7.9h-1.4c-.8 0-1.5-.1-2.5.6l.7-1.7h9.3l-.6 1.7zM165.2 20c.1-.2.2-.6-.1-1.3l-.5-1.1h-4.7l-.5 1.1c-.3.7-.2 1.1-.1 1.3h-2.1c.2-.2.5-.5.8-1.3l3.5-8v-.1c-.2-.5-.4-.8-.7-1h2.5l4 9c.3.7.6 1 .8 1.3h-2.9v.1zm-2.9-7.8l-1.9 4.3h3.7l-1.8-4.3zM176.9 20c.1-.2.3-.5.3-1.3v-3.5h-4.3v3.5c0 .7.2 1.1.3 1.3h-2.8c.1-.2.3-.5.3-1.3V11c0-.7-.2-1.1-.3-1.3h2.8c-.1.2-.3.5-.3 1.3v3.1h4.3V11c0-.7-.2-1.1-.3-1.3h2.8c-.1.2-.3.5-.3 1.3v7.8c0 .7.2 1.1.3 1.3h-2.8V20zM189.3 20h-4.2c-.8 0-2.1.3-3 .9v-1.5c1.8-.8 2.2-1.9 2.2-3.9V11c0-.7-.2-1.1-.3-1.3h7.4c-.1.2-.3.5-.3 1.3v6.7c0 .7.3 1.4 1.3 1.7v1.5c-1.1-.6-2.4-.9-3.1-.9zm-.4-9.2h-2.7c-.3 0-.6.3-.6.6v4.2c0 1.5-.2 2.6-.9 3.3h3.6c.3 0 .6-.3.6-.6v-7.5zM202.2 20c.1-.2.2-.6-.1-1.3l-.5-1.1h-4.7l-.5 1.1c-.3.7-.2 1.1-.1 1.3h-2.1c.2-.2.5-.5.8-1.3l3.5-8v-.1c-.2-.5-.4-.8-.7-1h2.5l4 9c.3.7.6 1 .8 1.3h-2.9v.1zm-2.9-7.8l-1.9 4.3h3.7l-1.8-4.3zM211.4 16.8h-1.5v1.9c0 .7.2 1.1.3 1.3h-2.8c.1-.2.3-.5.3-1.3V11c0-.7-.2-1.1-.3-1.3h3.9c2.7 0 4.3 1.3 4.3 3.5.1 2.5-2 3.6-4.2 3.6zm-.5-6h-1v4.9h1.2c1.3 0 2.5-.5 2.5-2.6-.1-1.9-1.4-2.3-2.7-2.3zM225.9 11.4c-.4-.5-1-.6-1.6-.6h-1.5v7.9c0 .7.2 1.1.3 1.3h-2.8c.1-.2.3-.5.3-1.3v-7.9h-1.2c-.8 0-1.5-.1-2.5.6l.7-1.7h8.9l-.6 1.7z"/></g>
<path fill-rule="evenodd"  d="M20.5 31.5s1-.8 1-2.2c0-1.4-1.2-2.3-2.6-2.5-1.1-.1-3.1 0-3.7 0-.6 0-1.4 0-2-.7 0 0 .8 0 1.7-.2.7-.1 2.1-.7 3-.6 0 0-.3-.4-1-.4-.4 0-.5.1-.8.2-.4.1-1.1.1-1.5-.7 0 0 .6.5 1.1.3.4-.1.5-.3.6-.4.2-.1.5-.2.8-.2.3 0 .6.1.8.3.3.2.8.2.5-.1-.3-.3-.7-.6-1.4-.6-1.1 0-3 .2-3.7.6-.5.2-.8.5-1 .8-.1.1-.2.1-.2-.1 0-.7.3-2.4 1.1-3.2.9-.8 3.1-1.4 4-1.5 0 0-.2-.5 0-.9.4-.5 1.6-1.4 9.1-1.4 0 0-.4.3-.6.6 0 0 2.9.2 4.5 1 .3.1.8.2.9-1l-.5-.3s0-.2.1-.4c0-.2 0-.3-.2-.2-.2.1-.2.2-.2.2s-.4.2-.5-.1c0-.3-.5-.9-1.4-1 0 0 .5-.6 1.5-.5 0 0 .1.3.3.2.2-.1.5-.3.6 0 0 .3.1.7.7 0 0 0 .6.3 1.1.1.5-.2.9-.5 1.1-1.4 0-.2 0-.3.2-.4.1-.2.3-.4 0-.6-.3-.3-1.4-.9-1.8-1.1-.4-.2-1.2-.5-1.2-2.2-.1-1.7-.6-2.6-2.7-4.4V7s-.7-.7-2.2-1.1c0 0 .2-.7.2-1.1 0-.3-.2-.6-.7-.5-.6.1-2.5.8-3.2 1-.7.2-5.2 1.7-7.9 4.3 0 0 .6-1.6 1.9-3.3-1 .3-1.9.6-2.8 1.1-1.4 2-3.3 5.8-3.3 9 0 0-.9-2.7-.1-6.7-.9.8-1.7 1.7-2.5 2.7-.2 2.3-.2 5.3 1.7 9.6 0 0-1.9-1.4-3.6-5.9-.5 1.5-.9 3-.9 4.6 1.5 2.8 3.8 5.6 8.5 8.1 0 0-3.8-.6-8.1-3.8.4 1.8 1.1 3.4 2 4.9 2.3 1 6 2.3 11.1 2 0 0-2.8 1.6-8.5 1.1 0 0 1 1.2 3.6 2.5 2.4 1.1 5.5.4 6.5-.3 1.2-.8 2.6-2.8 2-5.4.3.3-.2 1.3-1.4 1.7zm8-20.6c.6.1.7.1.9.2.2.1.6.2.7-1 0-.1.1 0 .1 0 .1.5.1 1.1 0 1.4-.1.5-.2.5-.5.3-.3-.1-.3-.2-.5-.2-.1 0-.3 0-.2.2.1.2.3.8.2 1.2 0 0-.6-1.2-1.4-1.8-.4-.4.5-.3.7-.3zm-5.3-3.3c.7-1.1 1.7-1.7 1.9-1.9.2-.1.3-.1.2 0-.3.4-.7 1-.8 1.2-.1.2 0 .3.1.3.1.1.1.2-.1.2s-.7.1-1.1.3c-.2.2-.3 0-.2-.1zm-4.8 7.9c1.1-2.7 3.6-5.5 5-6.7v.1c-1.9 2.2-3.2 5.3-3.2 5.3.2-.1.6-.2.9-.3.3-.1.4.1.3.3-.3.8-.7 2-.5 2.6.1.5 1.5.9 1.5.9-.3 0-1.7.1-2 .2-.3.1-.9.1-.8-.5.1-.8.6-2.3.6-2.3-.4.1-1.2.5-1.5.7-.3 0-.3-.1-.3-.3zM5.5 25.2zm23 2.9c-.4-.5-1-1.2-1-1.2.6.3 1.7.5 1.7.5-.3-.3-1-1.1-1.3-1.4-.8-.9-2.2-2-3.2-2.5-2-.9-4.1-1-4.4-1.1-.3-.1-.9.1-.5-.5s2.5-2.2 2.5-2.2c-.5 0-2.4.2-3 .3-.6.1-.7-.1-.8-.5 0 0-1.2 1.1-.6 1.7.1.1.3.1.7 0l1.2-.4s-.5.8-.6 1.1c-.1.3-.1.5.4.7.5.2 3.3 1 4.9 2.2 1.7 1.1 3.4 2.6 4.7 5.2 1.3 2.7.6 4.7.4 5.1.9-.6 1.7-1.3 2.5-2-.8-2.3-2.6-3.7-3.6-5zm6 1.8c.5-.8.9-1.6 1.2-2.5-1.6-1.3-4.5-3.7-8-4.5 0-.1 5 2 6.8 7zm-11.7 7.5c1-.1 2.1-.4 3.1-.7.5-1.3 1.1-4.2.5-6.5 0 0 .1 5.4-3.6 7.2zm14-15.9c-.5-.2-3.4-1-3.4-1 1-.1 1.4-.8 1.4-.8-.9.3-2.4.4-3.5.2 0 0 2.7 1.2 5.5 3.8.1-.6.1-1.3.1-1.9-.1-.2-.1-.2-.1-.3z"/></svg>