<svg baseProfile="tiny" xmlns="http://www.w3.org/2000/svg" viewBox="0 0 22 21">
<path fill="#D9D9D9" d="M11.4 9.2c.2 0 .4-.1.7-.2.3-.1.4-.3.5-.5.1-.2.1-.4.1-.7 0-.2-.1-.4-.2-.6-.1-.2-.3-.4-.5-.4-.2-.1-.5-.1-.7-.1H9.9v2.6h.4c.5-.1.9-.1 1.1-.1zm1.2 2.2c-.2-.1-.5-.1-.8-.1H9.9v3h1.9c.3 0 .6-.1 1-.2.3-.1.5-.3.6-.5.1-.2.2-.5.2-.8 0-.4-.1-.7-.2-.9-.2-.2-.4-.4-.8-.5zM17.7 0H4.3C1.9 0 0 1.8 0 4.1v12.7C0 19.2 1.9 21 4.3 21h13.3c2.4 0 4.3-1.8 4.3-4.1V4.1C22 1.8 20.1 0 17.7 0zm-1.2 14.4c-.2.5-.6.8-1 1.1-.5.4-1 .6-1.6.8-.6.2-1.3.2-2.2.2h-5V4.4h4.5c.9 0 1.6 0 2.1.1s.9.2 1.4.4c.5.2.8.5 1 .9.2.4.3.9.3 1.4 0 .6-.2 1.1-.5 1.6s-.7.8-1.3 1v.1c.8.2 1.4.5 1.9 1s.7 1.1.7 2c.1.5 0 1-.3 1.5z"/></svg>