<svg id="Layer_1" xmlns="http://www.w3.org/2000/svg" xmlns:xlink="http://www.w3.org/1999/xlink" viewBox="0 0 106.1 106.1"><style>.st0{clip-path:url(#SVGID_2_);fill:#EE673E;} .st1{clip-path:url(#SVGID_2_);fill:#231F20;} .st2{clip-path:url(#SVGID_2_);fill:#FFFFFF;stroke:#231F20;stroke-width:1.9325;stroke-miterlimit:10;} .st3{clip-path:url(#SVGID_2_);} .st4{fill:none;stroke:#231F20;stroke-width:1.9325;stroke-miterlimit:10;} .st5{clip-path:url(#SVGID_2_);fill:none;stroke:#231F20;stroke-width:1.9325;stroke-miterlimit:10;} .st6{fill:#231F20;}</style><defs><circle id="SVGID_1_" cx="52.8" cy="52.9" r="52.5"/></defs><clipPath id="SVGID_2_"><use xlink:href="#SVGID_1_" overflow="visible"/></clipPath><circle class="st0" cx="52.8" cy="52.7" r="52.7"/><path class="st1" d="M79.8 85.6h-3.6v-9.4H30.7v9.4h-3.2C6.4 86.2 0 97.9 0 106.1h106.1c0-6.9-5.7-20.7-26.3-20.5z"/><path class="st2" d="M75.8 43.6c-.3 0-.7.1-1 .1V40l-2.6-13.3S59.3 23 53.2 23c-5.3 0-19.7 2.9-19.7 2.9L31.9 40v3.7c-.3-.1-.6-.1-1-.1-3.7 0-6.7 3.4-6.7 7.5v5.7c0 4.2 3 7.5 6.7 7.5.3 0 .7-.1 1-.1l-.4 11.6s7.7 9.9 22.5 9.9c14.9 0 21.2-9.4 21.2-9.4l-.4-12.1c.3.1.6.1 1 .1 3.7 0 6.7-3.4 6.7-7.5v-5.7c.1-4.1-2.9-7.5-6.7-7.5z"/><g class="st3"><path class="st4" d="M38.6 49.5s2.1-2.7 6-2.6c3.9.1 6 3.4 6 3.4v11.8l6-2.5M57.3 49.5s2.4-2.5 6-2.6c3.6-.1 6 3.4 6 3.4"/></g><path class="st5" d="M58.1 69.9c-1.2 1.3-2.9 2.1-4.8 2.1-2.3 0-4.2-1.1-5.4-2.9"/><path class="st1" d="M77.2 25.2C76.1 15.1 56 12.9 53.4 12.7h-.1-.1c-2.6.2-22.7 2.4-23.8 12.6-1.4 5.7.6 18.4.6 18.4l4 2.2 2.8-9v-8.2l16.4 2.9h.2l16.4-2.9v8.2l2.8 9 4-2.2c-.1 0 2-12.7.6-18.5z"/><path class="st1" d="M48.3 26.9s-4.4 6-1 8.2c3.4 2.2 6.2 2.9 4.1 5.6 1.8-.1 6.6-2 3.9-4.8-3.8-3.9 3.1-5.1 3.1-5.1l-10.1-3.9z"/><g><path class="st6" d="M58.7 85.7H48s3.2-4.8 5.4-4.8c2.3-.1 5.3 4.8 5.3 4.8z"/></g></svg>