<svg baseProfile="tiny" xmlns="http://www.w3.org/2000/svg" viewBox="0 0 135.4 135.4"><path fill="#231F20" d="M131.8 67.2c0 35.9-28.7 64.1-64.1 64.1-35.4 0-64.1-28.7-64.1-64.1 0-35.4 28.7-64.1 64.1-64.1 35.4 0 64.1 28.7 64.1 64.1z"/><path fill="#FFF" d="M95.8 107.1V95.9H41.2v11.2h-3.8c-7 .2-12.6 1.4-17.1 3.2 11.7 12.9 28.6 21 47.4 21 19.2 0 36.3-8.3 48.1-21.5-4.2-1.7-9.3-2.7-15.6-2.7h-4.4z"/><path fill="#FFF" d="M95.4 56.5c-.4 0-.8.1-1.2.1v-4.5l-3.1-16s-2.5-11.6-22.9-11.6-23.7 10.7-23.7 10.7l-1.9 16.9v4.5c-.4-.1-.8-.1-1.2-.1-4.5 0-8.1 4-8.1 9v6.9c0 5 3.6 9 8.1 9 .4 0 .8-.1 1.2-.1l-.5 14.2s9.2 11.8 27 11.9c17.8.1 25.5-11.3 25.5-11.3l-.5-14.8c.4.1.8.1 1.2.1 4.5 0 8.1-4 8.1-9v-6.9c.1-5-3.5-9-8-9z"/><path fill="#231F20" d="M69.4 108.5h-.1c-18.3 0-27.6-11.8-28-12.3l-.3-.3.4-13.3c-5.1 0-9.2-4.6-9.2-10.2v-6.9c0-5.6 4.2-10.2 9.3-10.2v-3.2l1.9-17c.2-.7 3.8-11.7 24.9-11.7 21.1 0 23.9 12 24 12.5l3.1 16v3.4c5.1 0 9.2 4.6 9.2 10.2v6.9c0 5.6-4.1 10.2-9.2 10.2l.4 13.8-.2.3c-.3.5-8.1 11.8-26.2 11.8zm-26-13.4c1.6 1.8 10.4 11.1 25.9 11.1h.1c15.4 0 22.9-8.8 24.2-10.5L93 79.9l1.4.2c.4.1.7.1 1 .1 3.8 0 6.9-3.5 6.9-7.9v-6.9c0-4.3-3.1-7.9-6.9-7.9-.3 0-.6.1-.9.1l-1.4.4v-5.9L90 36.4c-.1-.4-2.6-10.7-21.7-10.7-19.2 0-22.5 9.5-22.6 9.9l-1.8 16.7V58l-1.4-.2c-.4-.1-.7-.1-1-.1-3.8 0-6.9 3.5-6.9 7.9v6.9c0 4.3 3.1 7.9 6.9 7.9.3 0 .6-.1.9-.1l1.4-.2v1.4l-.4 13.6z"/><path fill="none" stroke="#231F20" stroke-width="2.321" stroke-miterlimit="10" d="M50.7 59.4l14.4 5.2v14.1l7.3-3M73.1 63.5L87.6 59M73.9 96.1l-12.4-4.2"/><path fill="#231F20" d="M93 44H43.9l-.9 8.1-.5 35.7 52.5.6-.5-36.3L93 44zm-8.4 27.8H53.1c-4.5 0-8.2-3.7-8.2-8.2 0-4.5 3.7-8.2 8.2-8.2h31.5c4.5 0 8.2 3.7 8.2 8.2 0 4.6-3.7 8.2-8.2 8.2z"/><circle fill="none" stroke="#231F20" stroke-width="2.321" stroke-miterlimit="10" cx="81.7" cy="66.9" r="2"/><circle fill="none" stroke="#231F20" stroke-width="2.321" stroke-miterlimit="10" cx="55.5" cy="66.9" r="2"/><path fill="none" d="M130.7 67.7c0 35.4-28.2 63-63 63s-63-27.6-63-63c0-34.8 28.2-63 63-63 34.8-.1 63 28.2 63 63z"/><path fill="#EE673E" d="M67.7 0C30.4 0 0 30.4 0 67.7c0 38 29.7 67.7 67.7 67.7s67.7-29.7 67.7-67.7C135.4 30.4 105 0 67.7 0zm0 9.3c14.2 0 27.2 5.1 37.3 13.5l-82.4 82.4C14.3 95.1 9.3 82.1 9.3 67.7c0-32.2 26.2-58.4 58.4-58.4zm0 116.8c-14.3 0-27.2-4.9-37.3-13.1l82.4-82.4c8.3 10.1 13.3 23 13.3 37.1 0 32.7-25.7 58.4-58.4 58.4z"/></svg>