<svg id="Layer_1" xmlns="http://www.w3.org/2000/svg" viewBox="0 0 46.5 15.1">
<style>.st011{fill:#0066B3;} .st111{fill:#FAA634;}</style>
<path class="st011" d="M20.2 14.8h-3.8L18.7.3h3.8zM13.2.3l-3.6 10-.5-2.2-1.3-6.5S7.6.3 6 .3H0v.2s1.8.4 4 1.7l3.3 12.7h4l6-14.6h-4.1zM43 14.8h3.5L43.5.2h-3c-1.4 0-1.8 1.1-1.8 1.1L33 14.8h4l.8-2.2h4.8l.4 2.2zm-4.2-5.1l2-5.5 1.1 5.5h-3.1zM33.3 3.8l.5-3.1S32.1.1 30.4.1C28.5.1 24 .9 24 4.9c0 3.8 5.2 3.8 5.2 5.8s-4.7 1.6-6.3.4l-.6 3.3s1.7.8 4.3.8c2.6 0 6.5-1.3 6.5-5C33.3 6.3 28 6 28 4.3c0-1.6 3.7-1.4 5.3-.5z"/>
<path class="st111" d="M9.1 8.1L7.8 1.6S7.6.3 6 .3H0v.2s2.9.6 5.6 2.8c2.7 2.2 3.5 4.8 3.5 4.8z"/></svg>