<svg id="Layer_1" xmlns="http://www.w3.org/2000/svg" viewBox="0 0 33 32.5">
<g id="XMLID_96_">
<g id="XMLID_66_">
<path id="XMLID_67_" class="" d="M19 17.6c-.3-.1-.7-.2-1.2-.2h-2.9v4.7h2.9c.5 0 1-.1 1.5-.3.4-.2.8-.5 1-.8.2-.4.3-.8.3-1.2 0-.6-.1-1-.4-1.4-.4-.4-.8-.6-1.2-.8zm-1.8-3.4c.3 0 .7-.1 1-.3.4-.2.6-.4.8-.7.1-.3.2-.7.2-1.1 0-.3-.1-.6-.2-.9-.2-.3-.4-.6-.7-.7-.3-.1-.7-.2-1.1-.2H15v4h.6c.7-.1 1.2-.1 1.6-.1zM26.5 0h-20C2.9 0 0 2.9 0 6.4v19.7c0 3.5 2.9 6.4 6.5 6.4h20c3.6 0 6.5-2.9 6.5-6.4V6.4C33 2.9 30.1 0 26.5 0zm-1.7 22.3c-.4.7-.8 1.3-1.4 1.8-.7.6-1.5 1-2.4 1.2-.9.2-1.9.4-3.3.4h-7.6V6.8h6.7c1.4 0 2.5.1 3.2.2.7.1 1.4.3 2 .7.7.4 1.2.8 1.5 1.5.3.6.5 1.3.5 2.1 0 .9-.2 1.7-.7 2.5-.5.7-1.1 1.2-1.9 1.6v.1c1.2.2 2.1.7 2.8 1.5.7.8 1.1 1.8 1.1 3.1 0 .7-.2 1.5-.5 2.2z"/>
</g>
</g>
</svg>