<svg id="Layer_1" xmlns="http://www.w3.org/2000/svg" viewBox="0 0 28.7 34.4"><style>.st0{fill:#A5A5A5;}</style><path id="YouTube_2_" class="st0" d="M24.2 25.2h-1.9v-1.1c0-.5.4-.9.9-.9h.1c.5 0 .9.4.9.9v1.1zm-7-2.4c-.5 0-.9.3-.9.7v5.3c0 .4.4.7.9.7s.9-.3.9-.7v-5.3c-.1-.4-.5-.7-.9-.7zm11.5-3V30c0 2.4-2.1 4.4-4.7 4.4H4.7c-2.6 0-4.7-2-4.7-4.4V19.8c0-2.4 2.1-4.4 4.7-4.4H24c2.6 0 4.7 2 4.7 4.4zM6 31.1V20.4h2.4v-1.6H2v1.6h2v10.7h2zm7.1-9.1h-2v7.1c-.2.4-.9.9-1.2 0V22H8v7.5c0 .5 0 1.1.5 1.5.9.6 2.6-.1 3-1v1.2h1.6V22zm6.4 6.5v-4.7c0-1.8-1.4-2.9-3.2-1.4v-3.5h-2v12.2h1.6l.1-.8c2.2 1.8 3.5.5 3.5-1.8zm6.3-.6h-1.5v1c0 .4-.4.8-.8.8h-.3c-.4 0-.8-.4-.8-.8v-2.2h3.4v-1.3c0-.9 0-1.9-.1-2.4-.2-1.7-2.6-2-3.8-1.1-.4.3-.7.6-.8 1.1-.2.5-.3 1.2-.3 2v2.8c-.1 4.8 5.6 4.1 5 .1zm-7.7-15.4c.1.3.3.5.5.6.2.2.5.2.8.2.3 0 .5-.1.8-.2.2-.2.4-.4.6-.7v.8H23V3.7h-1.7v7.4c0 .4-.3.7-.7.7-.4 0-.7-.3-.7-.7V3.7h-1.8v8c-.2.3-.1.6 0 .8zm-6.7-5.3c0-.9.1-1.6.2-2.1.2-.5.4-.9.8-1.2.4-.3.9-.5 1.5-.5.5 0 1 .1 1.3.3.4.2.7.5.9.8.2.3.3.6.4 1 .1.3.1.9.1 1.5v2.4c0 .9 0 1.5-.1 1.9-.1.4-.2.8-.4 1.1-.2.4-.5.6-.9.8-.4.2-.8.3-1.2.3-.5 0-.9-.1-1.3-.2s-.6-.4-.8-.7c-.2-.3-.3-.6-.4-1.1-.1-.4-.1-1-.1-1.9V7.2zm1.7 3.7c0 .5.4 1 .9 1s.9-.4.9-1v-5c0-.5-.4-1-.9-1s-.9.4-.9 1v5zm-6.2 2.6H9V6.3L11.5 0H9.2L7.9 4.6 6.6 0H4.3l2.6 6.2v7.3z"/></svg>