<?xml version="1.0" encoding="utf-8"?>
<!-- Generator: Adobe Illustrator 18.0.0, SVG Export Plug-In . SVG Version: 6.00 Build 0)  -->
<!DOCTYPE svg PUBLIC "-//W3C//DTD SVG 1.1//EN" "http://www.w3.org/Graphics/SVG/1.1/DTD/svg11.dtd">
<svg version="1.1" id="Layer_1" xmlns="http://www.w3.org/2000/svg" xmlns:xlink="http://www.w3.org/1999/xlink" x="0px" y="0px"
	 viewBox="0 0 20 20" enable-background="new 0 0 20 20" xml:space="preserve">
<path d="M17,17H3c-1.6,0-3-1.3-3-3V6c0-1.6,1.3-3,3-3h14c1.6,0,3,1.3,3,3v8C20,15.7,18.7,17,17,17z M3,5C2.4,5,2,5.4,2,6v8
	c0,0.5,0.4,1,1,1h14c0.5,0,1-0.4,1-1V6c0-0.5-0.4-1-1-1H3z"/>
<path d="M10,12c-0.2,0-0.4-0.1-0.6-0.2l-8-6l1.2-1.6L10,9.8l7.4-5.5l1.2,1.6l-8,6C10.4,11.9,10.2,12,10,12z"/>
</svg>
