<?xml version="1.0" encoding="utf-8"?>
<!-- Generator: Adobe Illustrator 18.0.0, SVG Export Plug-In . SVG Version: 6.00 Build 0)  -->
<!DOCTYPE svg PUBLIC "-//W3C//DTD SVG 1.1//EN" "http://www.w3.org/Graphics/SVG/1.1/DTD/svg11.dtd">
<svg version="1.1" id="Layer_1" xmlns="http://www.w3.org/2000/svg" xmlns:xlink="http://www.w3.org/1999/xlink" x="0px" y="0px"
	 viewBox="0 0 16 16" enable-background="new 0 0 16 16" xml:space="preserve">
<path d="M14,2c0,0.5-0.9,1-2,1H4C2.9,3,2,2.5,2,2s0.9-1,2-1h8C13.1,1,14,1.5,14,2z"/>
<path d="M14,14c0,0.6-0.9,1-2,1H4c-1.1,0-2-0.4-2-1s0.9-1,2-1h8C13.1,13,14,13.4,14,14z"/>
<path d="M3,4.5C3,3.7,3.9,3,5,3h6c1.1,0,2,0.7,2,1.5s-0.8,1.9-1.8,2.4l-0.4,0.2c-1,0.5-1,1.3,0,1.8l0.4,0.2c1,0.5,1.8,1.6,1.8,2.4
	S12.1,13,11,13H5c-1.1,0-2-0.7-2-1.5s0.8-1.9,1.8-2.4l0.4-0.2c1-0.5,1-1.3,0-1.8L4.8,6.9C3.8,6.4,3,5.3,3,4.5z"/>
</svg>
