<?xml version="1.0" encoding="utf-8"?>
<!-- Generator: Adobe Illustrator 18.0.0, SVG Export Plug-In . SVG Version: 6.00 Build 0)  -->
<!DOCTYPE svg PUBLIC "-//W3C//DTD SVG 1.1//EN" "http://www.w3.org/Graphics/SVG/1.1/DTD/svg11.dtd">
<svg version="1.1" id="Layer_1" xmlns="http://www.w3.org/2000/svg" xmlns:xlink="http://www.w3.org/1999/xlink" x="0px" y="0px"
	 viewBox="0 0 20 20" enable-background="new 0 0 20 20" xml:space="preserve">
<path  d="M8,0.2C3.7,0.2,0.2,3.7,0.2,8s3.5,7.8,7.8,7.8s7.8-3.5,7.8-7.8S12.3,0.2,8,0.2z M8,13.9
	c-3.2,0-5.9-2.6-5.9-5.9S4.8,2.1,8,2.1s5.9,2.6,5.9,5.9S11.2,13.9,8,13.9z"/>
<path  d="M16.3,19.3c0.4,0.4,1,0.4,1.4,0l1.6-1.6c0.4-0.4,0.4-1,0-1.4l-4.6-4.6c-0.4-0.4-1-0.4-1.4,0l-1.6,1.6
	c-0.4,0.4-0.4,1,0,1.4L16.3,19.3z"/>
</svg>
