<?xml version="1.0" encoding="utf-8"?>
<!-- Generator: Adobe Illustrator 18.0.0, SVG Export Plug-In . SVG Version: 6.00 Build 0)  -->
<!DOCTYPE svg PUBLIC "-//W3C//DTD SVG 1.1//EN" "http://www.w3.org/Graphics/SVG/1.1/DTD/svg11.dtd">
<svg version="1.1" id="Layer_1" xmlns="http://www.w3.org/2000/svg" xmlns:xlink="http://www.w3.org/1999/xlink" x="0px" y="0px"
	 viewBox="0 0 24 24" enable-background="new 0 0 24 24" xml:space="preserve">
<path d="M12.1,5.5c1.5,0,2.7-1.2,2.7-2.7c0-1.5-1.2-2.7-2.7-2.7c-1.5,0-2.7,1.2-2.7,2.7C9.3,4.2,10.6,5.5,12.1,5.5"/>
<path d="M19.3,4.7c-0.7-0.7-1.8-0.7-2.4,0c-1.1,1.1-2,1.6-3.1,1.7H9.9C9,6.5,7.8,7,7.2,7.6l-2.8,2.8c-0.6,0.6-0.6,1.6-0.1,2.1
	C5,13,5.9,13,6.5,12.4l1-1c0.5-0.5,1-0.4,1.1,0.1l0.1,1.1c0.1,0.8,0.2,2.2,0.2,3l0.5,7c0.1,0.8,0.7,1.5,1.3,1.5h0.3h0.7h0.2h1.2
	c0.7,0,1.3-0.7,1.4-1.5l0.5-7c0.1-0.8,0.2-2.2,0.2-3l0.1-1.4c0.1-0.8,0.7-1.8,1.5-2.2c0,0,1.3-0.7,2.4-1.8C20,6.5,20,5.4,19.3,4.7"
	/>
</svg>
